<?xml version="1.0" standalone="no"?>
<!DOCTYPE svg PUBLIC "-//W3C//DTD SVG 1.1//EN" "http://www.w3.org/Graphics/SVG/1.1/DTD/svg11.dtd" >
<svg xmlns="http://www.w3.org/2000/svg" xmlns:xlink="http://www.w3.org/1999/xlink" version="1.1">
<metadata>
Created by FontForge 20161003 at Tue Jul 17 20:52:42 2018
 By www-data
Copyright (c) 2018 Commercial Type, Inc.. All rights reserved.
</metadata>
<defs>
<font id="SchnyderLLight" horiz-adv-x="212" >
  <font-face 
    font-family="SchnyderLLight"
    font-weight="300"
    font-stretch="normal"
    units-per-em="1000"
    panose-1="0 0 0 0 0 0 0 0 0 0"
    ascent="836"
    descent="-164"
    x-height="466"
    cap-height="750"
    bbox="-96 -296 1095 1038"
    underline-thickness="16"
    underline-position="-94"
    unicode-range="U+0020-FB04"
  />
<missing-glyph horiz-adv-x="500" 
d="M50 -164v942h400v-942h-400zM100 -114h300v842h-300v-842z" />
    <glyph glyph-name="f_f" unicode="ff" horiz-adv-x="457" 
d="M248 0v7q29 8 34.5 30.5t5.5 115.5v303h-148v-303q0 -93 8.5 -115.5t50.5 -30.5v-7h-174v7q29 8 34.5 30.5t5.5 115.5v303h-49v8q30 5 39.5 20t9.5 52v11q0 108 48 159t118 51q78 0 93 -43q36 48 95 48q34 0 57 -12.5t23 -33.5q0 -29 -28 -29t-33 29q-3 14 -4.5 19
t-4.5 10.5t-7 6.5t-12 1q-24 0 -35.5 -27t-11.5 -98v-162h97v-10h-97v-303q0 -93 8.5 -115.5t50.5 -30.5v-7h-174zM140 466h148v114q0 53 15 95h-1q-28 0 -34 30q-5 26 -12.5 35t-29.5 9q-41 0 -63.5 -37.5t-22.5 -131.5v-114z" />
    <glyph glyph-name="f_f_i" unicode="ffi" horiz-adv-x="656" 
d="M25 0v7q29 8 34.5 30.5t5.5 115.5v303h-49v8q30 5 39.5 20t9.5 52v11q0 108 48 159t118 51q78 0 93 -43q36 48 95 48q34 0 57 -12.5t23 -33.5q0 -29 -28 -29t-33 29q-3 14 -4.5 19t-4.5 10.5t-7 6.5t-12 1q-24 0 -35.5 -27t-11.5 -98v-162h107l117 9v-322
q0 -93 6.5 -115.5t37.5 -30.5v-7h-162v7q30 8 36 30.5t6 115.5v209q0 66 -5 78.5t-36 15.5h-107v-303q0 -93 8.5 -115.5t50.5 -30.5v-7h-174v7q29 8 34.5 30.5t5.5 115.5v303h-148v-303q0 -93 8.5 -115.5t50.5 -30.5v-7h-174zM140 466h148v114q0 53 15 95h-1q-28 0 -34 30
q-5 26 -12.5 35t-29.5 9q-41 0 -63.5 -37.5t-22.5 -131.5v-114zM547 559q-19 0 -32 13t-13 32t13 32t32 13t32 -13t13 -32t-13 -32t-32 -13z" />
    <glyph glyph-name="f_f_l" unicode="ffl" horiz-adv-x="656" 
d="M248 0v7q29 8 34.5 30.5t5.5 115.5v303h-148v-303q0 -93 8.5 -115.5t50.5 -30.5v-7h-174v7q29 8 34.5 30.5t5.5 115.5v303h-49v8q30 5 39.5 20t9.5 52v11q0 108 49.5 159t118.5 51q39 0 64 -13.5t28 -36.5q40 52 109 52q49 0 73 -22l79 38v-622q0 -93 6.5 -115.5
t38.5 -30.5v-7h-163v7q31 8 37 30.5t6 115.5v423q0 86 -3 105q-6 -2 -11 -2q-26 0 -32 29q-6 27 -12 34.5t-26 7.5q-64 0 -64 -125v-159h93v-10h-93v-303q0 -93 8.5 -115.5t50.5 -30.5v-7h-174zM140 466h148v108q0 60 19 101h-5q-28 0 -34 30q-4 20 -6.5 27t-10 12t-23.5 5
q-88 0 -88 -169v-114z" />
    <glyph glyph-name="f_b" unicode="fb" horiz-adv-x="745" 
d="M25 0v7q29 8 34.5 30.5t5.5 115.5v303h-49v8q31 5 40 21.5t9 70.5v18q0 97 42.5 141t103.5 44q49 0 74 -22l78 38v-404l24 27q69 76 140 76q78 0 134 -62t56 -169q0 -117 -68 -184.5t-166 -67.5q-53 0 -105.5 23t-61.5 23q-16 0 -21 -17h-7v568q0 76 -2 93q-8 -2 -12 -2
q-26 0 -33 29q-6 27 -12 34.5t-25 7.5q-64 0 -64 -125v-159h93v-10h-93v-303q0 -93 8.5 -115.5t50.5 -30.5v-7h-174zM389 25q42 -25 94 -25q66 0 110 53.5t44 174.5q0 231 -124 231q-60 0 -126 -74l-24 -27v-273q0 -44 26 -60z" />
    <glyph glyph-name="f_f_b" unicode="ffb" horiz-adv-x="968" 
d="M248 0v7q29 8 34.5 30.5t5.5 115.5v303h-148v-303q0 -93 8.5 -115.5t50.5 -30.5v-7h-174v7q29 8 34.5 30.5t5.5 115.5v303h-49v8q30 5 39.5 20t9.5 52v11q0 108 48 158.5t117 50.5q39 0 65.5 -13t31.5 -34q39 50 107 50q49 0 74 -22l78 38v-404l24 27q69 76 140 76
q78 0 134 -62t56 -169q0 -117 -68 -184.5t-166 -67.5q-53 0 -105.5 23t-61.5 23q-16 0 -21 -17h-7v568q0 76 -2 93q-8 -2 -12 -2q-26 0 -32 29q-6 27 -12 34.5t-26 7.5q-64 0 -64 -125v-159h93v-10h-93v-303q0 -93 8.5 -115.5t50.5 -30.5v-7h-174zM140 466h148v108
q0 57 18 100h-3q-28 0 -34 32q-5 25 -12.5 33t-31.5 8q-41 0 -63 -36.5t-22 -130.5v-114zM612 25q42 -25 94 -25q66 0 110 53.5t44 174.5q0 231 -124 231q-60 0 -126 -74l-24 -27v-273q0 -44 26 -60z" />
    <glyph glyph-name="f_f_h" unicode="ffh" horiz-adv-x="951" 
d="M248 0v7q29 8 34.5 30.5t5.5 115.5v303h-148v-303q0 -93 8.5 -115.5t50.5 -30.5v-7h-174v7q29 8 34.5 30.5t5.5 115.5v303h-49v8q30 5 39.5 20t9.5 52v11q0 108 48 158.5t117 50.5q39 0 65.5 -13t31.5 -34q39 50 107 50q51 0 74 -23l78 40v-409l33 30q83 77 150 77
q118 0 118 -121v-200q0 -94 5.5 -116t34.5 -30v-7h-160v7q32 8 38.5 30.5t6.5 115.5v216q0 88 -65 88q-49 0 -128 -72l-33 -30v-202q0 -93 6.5 -115.5t37.5 -30.5v-7h-159v7q29 8 34.5 30.5t5.5 115.5v435q0 76 -3 93q-6 -2 -11 -2q-26 0 -32 29q-6 27 -12 34.5t-26 7.5
q-64 0 -64 -125v-159h93v-10h-93v-303q0 -93 8.5 -115.5t50.5 -30.5v-7h-174zM140 466h148v108q0 57 18 100h-3q-28 0 -34 32q-5 25 -12.5 33t-31.5 8q-41 0 -63 -36.5t-22 -130.5v-114z" />
    <glyph glyph-name="f_f_j" unicode="ffj" horiz-adv-x="652" 
d="M248 0v7q29 8 34.5 30.5t5.5 115.5v303h-148v-303q0 -93 8.5 -115.5t50.5 -30.5v-7h-174v7q29 8 34.5 30.5t5.5 115.5v303h-49v8q30 5 39.5 20t9.5 52v11q0 108 48 159t118 51q78 0 93 -43q36 48 95 48q34 0 57 -12.5t23 -33.5q0 -29 -28 -29t-33 29q-3 14 -4.5 19
t-4.5 10.5t-7 6.5t-12 1q-24 0 -35.5 -27t-11.5 -98v-162h107l117 10v-427q0 -96 -93 -161q-39 -27 -73 -27q-16 0 -27.5 8t-11.5 23q0 14 9 21.5t22 7.5q17 0 34.5 -15.5t26.5 -15.5t14 4q23 17 23 132v306q0 89 -5 105t-36 19h-107v-303q0 -93 8.5 -115.5t50.5 -30.5v-7
h-174zM140 466h148v114q0 53 15 95h-1q-28 0 -34 30q-5 26 -12.5 35t-29.5 9q-41 0 -63.5 -37.5t-22.5 -131.5v-114zM547 559q-19 0 -32 13t-13 32t13 32t32 13t32 -13t13 -32t-13 -32t-32 -13z" />
    <glyph glyph-name="f_f_k" unicode="ffk" horiz-adv-x="895" 
d="M248 0v7q29 8 34.5 30.5t5.5 115.5v303h-148v-303q0 -93 8.5 -115.5t50.5 -30.5v-7h-174v7q29 8 34.5 30.5t5.5 115.5v303h-49v8q30 5 39.5 20t9.5 52v11q0 108 48 158.5t117 50.5q39 0 65.5 -13t31.5 -34q39 50 107 50q47 0 73 -21l79 38v-623q0 -93 6.5 -115.5
t37.5 -30.5v-7h-159v7q29 8 34.5 30.5t5.5 115.5v423q0 86 -3 105q-6 -2 -11 -2q-26 0 -32 29q-6 27 -12 34.5t-26 7.5q-64 0 -64 -125v-159h93v-10h-93v-303q0 -93 8.5 -115.5t50.5 -30.5v-7h-174zM140 466h148v108q0 57 18 100h-3q-28 0 -34 32q-5 25 -12.5 33t-31.5 8
q-41 0 -63 -36.5t-22 -130.5v-114zM741 0v8q16 2 20 13.5t-14 37.5l-156 183v8l182 152q27 25 23 40t-31 18v6h116v-6q-41 -13 -102 -64l-133 -111l198 -234q32 -38 53 -43v-8h-156z" />
    <glyph glyph-name="f_h" unicode="fh" horiz-adv-x="728" 
d="M25 0v7q29 8 34.5 30.5t5.5 115.5v303h-49v8q31 5 40 21.5t9 70.5v18q0 97 42.5 141t103.5 44q51 0 74 -23l78 40v-409l33 30q83 77 150 77q118 0 118 -121v-200q0 -94 5.5 -116t34.5 -30v-7h-160v7q32 8 38.5 30.5t6.5 115.5v216q0 88 -65 88q-49 0 -128 -72l-33 -30
v-202q0 -93 6.5 -115.5t37.5 -30.5v-7h-159v7q29 8 34.5 30.5t5.5 115.5v435q0 76 -3 93q-6 -2 -11 -2q-26 0 -33 29q-6 27 -12 34.5t-25 7.5q-64 0 -64 -125v-159h93v-10h-93v-303q0 -93 8.5 -115.5t50.5 -30.5v-7h-174z" />
    <glyph glyph-name="f_i" unicode="fi" horiz-adv-x="433" 
d="M25 0v7q29 8 34.5 30.5t5.5 115.5v303h-49v8q31 5 40 21.5t9 70.5v26q0 93 39 136.5t92 43.5q34 0 57 -12.5t23 -33.5q0 -12 -7.5 -20.5t-20.5 -8.5q-28 0 -34 29q-4 18 -5.5 24t-6.5 9.5t-15 3.5q-24 0 -35.5 -27t-11.5 -98v-162h107l116 9v-322q0 -93 6.5 -115.5
t38.5 -30.5v-7h-163v7q31 8 37 30.5t6 115.5v209q0 66 -5 78.5t-36 15.5h-107v-303q0 -93 8.5 -115.5t50.5 -30.5v-7h-174zM324 559q-19 0 -32 13t-13 32t13 32t32 13t32 -13t13 -32t-13 -32t-32 -13z" />
    <glyph glyph-name="f_j" unicode="fj" horiz-adv-x="429" 
d="M25 0v7q29 8 34.5 30.5t5.5 115.5v303h-49v8q31 5 40 21.5t9 70.5v26q0 93 39 136.5t92 43.5q34 0 57 -12.5t23 -33.5q0 -12 -7.5 -20.5t-20.5 -8.5q-28 0 -34 29q-4 18 -5.5 24t-6.5 9.5t-15 3.5q-24 0 -35.5 -27t-11.5 -98v-162h107l116 10v-427q0 -95 -92 -161
q-39 -27 -73 -27q-16 0 -27.5 8t-11.5 23q0 14 9 21.5t22 7.5q17 0 34.5 -15.5t26.5 -15.5t14 4q23 17 23 132v306q0 89 -5 105t-36 19h-107v-303q0 -93 8.5 -115.5t50.5 -30.5v-7h-174zM324 559q-19 0 -32 13t-13 32t13 32t32 13t32 -13t13 -32t-13 -32t-32 -13z" />
    <glyph glyph-name="f_k" unicode="fk" horiz-adv-x="672" 
d="M25 0v7q29 8 34.5 30.5t5.5 115.5v303h-49v8q31 5 40 21.5t9 70.5v18q0 97 42.5 141t103.5 44q47 0 73 -21l79 38v-623q0 -93 6.5 -115.5t37.5 -30.5v-7h-159v7q29 8 34.5 30.5t5.5 115.5v423q0 86 -3 105q-6 -2 -11 -2q-26 0 -33 29q-6 27 -12 34.5t-25 7.5
q-64 0 -64 -125v-159h93v-10h-93v-303q0 -93 8.5 -115.5t50.5 -30.5v-7h-174zM518 0v8q16 2 20 13.5t-14 37.5l-156 183v8l182 152q28 25 23 40t-31 18v6h116v-6q-41 -13 -102 -64l-133 -111l198 -234q32 -38 53 -43v-8h-156z" />
    <glyph glyph-name="f_l" unicode="fl" horiz-adv-x="433" 
d="M25 0v7q29 8 34.5 30.5t5.5 115.5v303h-49v8q31 5 40 21.5t9 70.5v18q0 97 42.5 141t103.5 44q49 0 73 -22l79 38v-622q0 -93 6.5 -115.5t38.5 -30.5v-7h-163v7q31 8 37 30.5t6 115.5v423q0 86 -3 105q-6 -2 -11 -2q-26 0 -33 29q-6 27 -12 34.5t-25 7.5q-64 0 -64 -125
v-159h93v-10h-93v-303q0 -93 8.5 -115.5t50.5 -30.5v-7h-174z" />
    <glyph glyph-name="g_j" unicode="gj" horiz-adv-x="648" 
d="M543 559q-19 0 -32 13t-13 32t13 32t32 13t32 -13t13 -32t-13 -32t-32 -13zM209 161q-47 0 -89 21l-14 -9q-31 -20 -31 -42q0 -23 45 -32l179 -27q119 -17 119 -104q0 -23 -11 -47q11 0 31 -16t30 -16q8 0 16 5q22 18 22 132v255q0 89 -5 105.5t-36 19.5v8l117 62v-427
q0 -55 -27.5 -96t-65.5 -65q-38 -26 -71 -26q-16 0 -26 7t-10 18q-59 -59 -177 -59q-47 0 -88 9.5t-70.5 33t-29.5 56.5q0 58 102 101q-36 7 -54 26.5t-18 46.5q0 43 50 75l16 10q-79 44 -79 128q0 70 54.5 115.5t120.5 45.5q46 0 91 -24q51 41 97 41q29 0 29 -28
q0 -12 -7 -18.5t-17 -6.5q-9 0 -28 9t-35 9q-15 0 -33 -10q78 -49 78 -133q0 -69 -53.5 -111t-121.5 -42zM209 170q46 0 74 34.5t28 109.5q0 76 -28.5 114t-73.5 38q-46 0 -73.5 -38t-27.5 -114q0 -144 101 -144zM68 -63q0 -51 37.5 -75.5t99.5 -24.5q86 0 133.5 31t47.5 69
q0 18 -7.5 30.5t-25 19.5t-28.5 9.5t-35 6.5l-157 23q-35 -18 -50 -37t-15 -52z" />
    <glyph glyph-name=".notdef" horiz-adv-x="500" 
d="M50 -164v942h400v-942h-400zM100 -114h300v842h-300v-842z" />
    <glyph glyph-name=".null" horiz-adv-x="0" 
 />
    <glyph glyph-name="nonmarkingreturn" horiz-adv-x="333" 
 />
    <glyph glyph-name="space" unicode=" " horiz-adv-x="210" 
 />
    <glyph glyph-name="exclam" unicode="!" 
d="M112 191h-11q-3 120 -14.5 234.5t-21 184t-9.5 88.5q0 27 13.5 43t36.5 16t36.5 -16t13.5 -43q0 -19 -9.5 -88.5t-20.5 -184t-14 -234.5zM107 -10q-21 0 -35 13.5t-14 34.5t14.5 35t34.5 14q21 0 35 -14t14 -35t-14 -34.5t-35 -13.5z" />
    <glyph glyph-name="quotedbl" unicode="&#x22;" horiz-adv-x="248" 
d="M178 572h-9q-3 23 -17 75t-14 73q0 43 35 43t35 -43q0 -21 -13.5 -73t-16.5 -75zM79 572h-9q-3 23 -17 75t-14 73q0 43 36 43q35 0 35 -43q0 -21 -14 -73t-17 -75z" />
    <glyph glyph-name="numbersign" unicode="#" horiz-adv-x="463" 
d="M17 268v12h115l42 240h-113v12h115l38 218h14l-38 -218h133l38 218h14l-38 -218h115v-12h-117l-42 -240h115v-12h-117l-46 -267h-14l46 267h-133l-46 -267h-14l46 267h-113zM146 280h133l42 240h-133z" />
    <glyph glyph-name="dollar" unicode="$" horiz-adv-x="488" 
d="M192 835h13v-79q8 1 25 1q14 0 40 -2v80h12v-81q71 -9 114 -38t43 -57q0 -32 -28 -32q-29 0 -41 38q-6 18 -9 24.5t-12 20.5t-25.5 22t-41.5 12v-318q94 -48 138 -94t44 -128q0 -78 -50.5 -136.5t-131.5 -70.5v-92h-12v90q-8 -1 -26 -1q-13 0 -39 2v-91h-13v93
q-80 11 -131 50.5t-51 80.5q0 32 29 32q28 0 38 -36q6 -26 12 -42t18.5 -33.5t33 -28t51.5 -15.5v372q-84 42 -123.5 88.5t-39.5 112.5q0 70 46.5 117t116.5 58v81zM239 447q11 -5 31 -15v314q-24 2 -40 2q-17 0 -25 -1v-283zM81 626q0 -56 25 -89t86 -66v274
q-52 -8 -81.5 -39t-29.5 -80zM244 2q18 0 26 1v337q-25 13 -49 24q-2 1 -7.5 3.5t-8.5 4.5v-368q24 -2 39 -2zM405 157q0 65 -28 103t-95 74v-329q62 10 92.5 51t30.5 101z" />
    <glyph glyph-name="percent" unicode="%" horiz-adv-x="735" 
d="M189 379q-62 0 -114 53.5t-52 135.5t52 135t114 53q63 0 115.5 -53t52.5 -135t-53 -135.5t-115 -53.5zM128 -2l-13 8l491 748l12 -8zM189 388q41 0 74 45t33 135t-32.5 134.5t-74.5 44.5q-40 0 -72.5 -44.5t-32.5 -134.5t32.5 -135t72.5 -45zM545 -6q-62 0 -114 53.5
t-52 135.5t52 135t114 53q63 0 115.5 -53t52.5 -135t-53 -135.5t-115 -53.5zM545 3q41 0 74 45t33 135t-32.5 134.5t-74.5 44.5q-40 0 -72.5 -44.5t-32.5 -134.5t32.5 -135t72.5 -45z" />
    <glyph glyph-name="ampersand" unicode="&#x26;" horiz-adv-x="741" 
d="M162 599q0 70 45.5 115.5t106.5 45.5q62 0 104 -36.5t42 -94.5q0 -105 -142 -175q4 -4 12 -13.5t12 -14.5l150 -172q16 -18 23 -27l43 100q35 82 35 100q0 23 -33 31l-8 2v6h147v-6q-24 -6 -36.5 -10.5t-29.5 -18t-32 -39.5t-33 -68l-45 -106q132 -154 159 -178
q28 -26 51 -33v-7h-119l-125 143q-84 -153 -217 -153q-109 0 -177.5 55.5t-68.5 143.5q0 154 217 238q-81 98 -81 172zM222 635q0 -44 22.5 -83.5t68.5 -92.5q91 63 91 167q0 125 -90 125q-43 0 -67.5 -32t-24.5 -84zM110 193q0 -87 42 -140.5t120 -53.5q130 0 210 153
l-205 235q-13 14 -30 35q-66 -34 -101.5 -87t-35.5 -142z" />
    <glyph glyph-name="quotesingle" unicode="'" horiz-adv-x="149" 
d="M79 572h-9q-3 23 -17 75t-14 73q0 43 36 43q35 0 35 -43q0 -21 -14 -73t-17 -75z" />
    <glyph glyph-name="parenleft" unicode="(" horiz-adv-x="296" 
d="M286 -100l-5 -6q-38 31 -72 69.5t-69.5 94.5t-56.5 130.5t-21 157.5t21 157.5t56.5 130.5t69.5 93.5t72 68.5l5 -6q-161 -151 -161 -444q0 -297 161 -446z" />
    <glyph glyph-name="parenright" unicode=")" horiz-adv-x="296" 
d="M10 -100q161 149 161 446q0 293 -161 444l5 6q38 -31 72 -68.5t69.5 -93.5t56.5 -130.5t21 -157.5t-21 -157.5t-56.5 -130.5t-69.5 -94.5t-72 -69.5z" />
    <glyph glyph-name="asterisk" unicode="*" horiz-adv-x="294" 
d="M167 535q0 -28 -20 -28q-19 0 -19 28q0 13 8 44.5t10 48.5q-12 -15 -28 -43t-25 -37q-21 -19 -36 -5q-14 14 7 35q9 8 36.5 24t42.5 28q-18 -2 -49.5 -10t-43.5 -8q-29 0 -29 20t29 20q13 0 45 -8t48 -11q-15 12 -42 28t-37 25q-20 22 -6 36q15 13 35 -7q8 -9 25 -37.5
t28 -42.5q-2 18 -10 50t-8 44q0 29 19 29q20 0 20 -29q0 -13 -8 -46t-10 -48q11 14 27 42.5t25 37.5q20 20 36 6q13 -13 -7 -35q-10 -9 -36.5 -25t-41.5 -28q17 3 48 11t44 8q29 0 29 -20t-29 -20q-13 0 -43.5 8t-48.5 10q15 -12 42 -27.5t37 -23.5q20 -22 5 -37
q-14 -14 -34 7q-8 9 -24.5 36.5t-28.5 42.5q2 -16 10 -47.5t8 -45.5z" />
    <glyph glyph-name="plus" unicode="+" horiz-adv-x="471" 
d="M243 159h-14v186h-184v12h184v187h14v-187h183v-12h-183v-186z" />
    <glyph glyph-name="comma" unicode="," horiz-adv-x="187" 
d="M119 10q-13 -13 -35 -13q-17 0 -29 12t-12 31q0 21 13.5 34t32.5 13q24 0 40.5 -17t16.5 -49q0 -88 -82 -126l-5 7q31 16 48.5 41t17.5 50q0 11 -6 17z" />
    <glyph glyph-name="hyphen" unicode="-" horiz-adv-x="270" 
d="M38 251l13 50h181l-13 -50h-181z" />
    <glyph glyph-name="period" unicode="." horiz-adv-x="183" 
d="M92 -10q-21 0 -35.5 13.5t-14.5 34.5t14.5 35t35.5 14q20 0 34 -14t14 -35t-14 -34.5t-34 -13.5z" />
    <glyph glyph-name="slash" unicode="/" horiz-adv-x="425" 
d="M394 801l14 -6l-419 -963l-14 6z" />
    <glyph glyph-name="zero" unicode="0" horiz-adv-x="641" 
d="M320 758q49 0 99 -27t91 -75t67 -121.5t26 -158.5q0 -167 -89 -275.5t-194 -108.5q-104 0 -193 108.5t-89 275.5t89 274.5t193 107.5zM320 749q-77 0 -136 -94.5t-59 -278.5t59 -279.5t136 -95.5q78 0 137 95.5t59 279.5t-59 278.5t-137 94.5z" />
    <glyph glyph-name="one" unicode="1" horiz-adv-x="264" 
d="M247 0h-227v7q23 4 34.5 9.5t21 17t13 40.5t5 67t1.5 109v238q0 112 -10 133.5t-64 17.5v7l156 115v-511q0 -164 10 -199.5t60 -43.5v-7z" />
    <glyph glyph-name="two" unicode="2" horiz-adv-x="520" 
d="M274 65q74 0 109 1.5t60 8t33 16t16 30.5h9l-23 -83q-6 -26 -10.5 -32t-18.5 -6h-435l206 225q89 98 126.5 176t37.5 166q0 182 -154 182q-16 0 -29.5 -2.5t-24 -7.5t-18.5 -10t-14 -13t-10 -13.5t-7 -14.5l-4.5 -13.5t-3.5 -12.5t-2 -9q-8 -36 -41 -36q-16 0 -25.5 10.5
t-9.5 25.5q0 36 50 70.5t140 34.5q102 0 170.5 -47t68.5 -140q0 -39 -13 -78t-31 -70t-51.5 -70.5t-59 -65.5t-68.5 -67l-161 -155h188z" />
    <glyph glyph-name="three" unicode="3" horiz-adv-x="529" 
d="M207 3q101 0 151.5 73t50.5 174q0 99 -35 157t-110 58q-29 0 -53 -10t-38.5 -21.5t-36.5 -33.5l-6 6l265 278h-140q-80 0 -116 -1t-61 -8.5t-31.5 -16t-15.5 -30.5h-9l24 89q7 23 10.5 28t12.5 5h393v-8l-275 -289q35 21 77 21q101 0 165.5 -59t64.5 -166
q-1 -101 -80 -178t-207 -77q-86 0 -141.5 37t-55.5 79q0 15 8.5 26t23.5 11q33 0 41 -37q0 -1 1.5 -8.5t2.5 -11.5t4 -13t6 -14.5t8.5 -14t11.5 -14t15.5 -12t20 -10.5t24.5 -6.5t30 -2.5z" />
    <glyph glyph-name="four" unicode="4" horiz-adv-x="601" 
d="M549 179h-96q1 -76 5.5 -109.5t13.5 -45t33 -17.5v-7h-185v7q24 6 33 17.5t13.5 45t5.5 109.5h-345v6l403 571h23v-523h125zM72 233h300v425z" />
    <glyph glyph-name="five" unicode="5" horiz-adv-x="537" 
d="M437 684h-290l-66 -252q61 56 162 56t173 -59t72 -168q-1 -116 -77.5 -193t-204.5 -77q-87 0 -143 36t-56 77q0 15 8.5 25.5t24.5 10.5q30 0 39 -36q0 -1 3 -13t4.5 -16.5t6.5 -16.5t10 -18t15 -15t21.5 -13.5t29 -8t37.5 -3.5q94 0 146 74.5t52 187.5q0 101 -41 159
t-120 58q-102 0 -167 -61l-6 4l85 328h319l-15 -44q-5 -15 -8.5 -18.5t-13.5 -3.5z" />
    <glyph glyph-name="six" unicode="6" horiz-adv-x="602" 
d="M353 748q-95 0 -155 -83.5t-70 -236.5q33 40 84.5 65t111.5 25q102 0 174 -69.5t72 -183.5q0 -82 -40.5 -146.5t-97 -95.5t-113.5 -31q-48 0 -95.5 22t-89 65t-67 117.5t-25.5 169.5q0 172 93.5 281.5t217.5 109.5q90 0 140 -29t50 -61q0 -13 -8.5 -22.5t-22.5 -9.5
q-28 0 -40 36q-12 38 -27 51q-28 26 -92 26zM126 366q0 -179 54.5 -272t138.5 -93q74 0 120 69t46 195q0 127 -49.5 185.5t-112.5 58.5q-59 0 -110.5 -26.5t-85.5 -67.5q-1 -16 -1 -49z" />
    <glyph glyph-name="seven" unicode="7" horiz-adv-x="508" 
d="M479 742l-296 -742h-11l272 685h-227q-56 0 -85.5 -1.5t-52.5 -4t-33 -11.5t-15.5 -18.5t-12.5 -30.5h-10l28 102q5 19 9 24t16 5h418v-8z" />
    <glyph glyph-name="eight" unicode="8" horiz-adv-x="544" 
d="M509 195q0 -86 -68 -145.5t-167 -59.5q-102 0 -171 55.5t-69 130.5q0 70 52 123t129 85q-86 47 -123.5 91t-37.5 110q0 79 64 127t147 48q98 0 154.5 -47t56.5 -115q0 -54 -44 -100.5t-106 -75.5q93 -49 138 -98t45 -129zM277 448q7 -4 21 -11t21 -11q108 64 108 170
q0 155 -162 155q-67 0 -112 -34.5t-45 -92.5t37.5 -92.5t131.5 -83.5zM274 -1q85 0 130 45t45 112q0 68 -43.5 110t-147.5 95q-2 1 -35 19q-132 -66 -132 -202q0 -83 47.5 -131t135.5 -48z" />
    <glyph glyph-name="nine" unicode="9" horiz-adv-x="606" 
d="M251 1q96 0 155.5 82.5t69.5 235.5q-33 -39 -83.5 -63.5t-110.5 -24.5q-105 0 -176 69t-71 184q0 82 40 146t96.5 94.5t113.5 30.5q49 0 96.5 -22.5t89 -65.5t67 -117t25.5 -167q0 -172 -93 -281.5t-219 -109.5q-90 0 -140 30t-50 61q0 14 8.5 23t21.5 9q29 0 40 -36
q0 -1 3 -10t4.5 -12.5t6 -12.5t9.5 -13.5t14 -11t20 -10t27.5 -6t35.5 -2.5zM120 484q0 -127 49 -185.5t114 -58.5q60 0 110.5 26t83.5 68q1 16 1 49q0 176 -55 269.5t-138 93.5q-73 0 -119 -67.5t-46 -194.5z" />
    <glyph glyph-name="colon" unicode=":" horiz-adv-x="190" 
d="M95 344q-21 0 -35 14t-14 35q0 20 14 34.5t35 14.5t35 -14.5t14 -34.5q0 -21 -14 -35t-35 -14zM95 -10q-21 0 -35 13.5t-14 34.5t14 35t35 14t35 -14t14 -35t-14 -34.5t-35 -13.5z" />
    <glyph glyph-name="semicolon" unicode=";" horiz-adv-x="194" 
d="M97 344q-21 0 -35.5 14t-14.5 35q0 20 14.5 34.5t35.5 14.5q20 0 34 -14.5t14 -34.5q0 -21 -14 -35t-34 -14zM122 10q-11 -13 -34 -13q-17 0 -29.5 12t-12.5 31q0 21 13.5 34t32.5 13q24 0 41 -17t17 -49q0 -88 -83 -126l-5 7q32 16 49.5 41t17.5 50q0 10 -7 17z" />
    <glyph glyph-name="less" unicode="&#x3c;" horiz-adv-x="450" 
d="M49 343v15l351 147v-14l-334 -140l334 -140v-15z" />
    <glyph glyph-name="equal" unicode="=" horiz-adv-x="471" 
d="M45 406v13h381v-13h-381zM45 277v13h381v-13h-381z" />
    <glyph glyph-name="greater" unicode="&#x3e;" horiz-adv-x="450" 
d="M400 343l-351 -147v15l334 140l-334 140v14l351 -147v-15z" />
    <glyph glyph-name="question" unicode="?" horiz-adv-x="398" 
d="M146 191h-8q2 60 25 118.5t50 97.5t49 92.5t22 105.5q0 78 -30.5 110t-88.5 32q-44 0 -61 -34q-4 -6 -9 -18.5t-8.5 -18t-11.5 -10.5t-20 -5q-16 0 -25 10t-9 25q0 25 37.5 42.5t107.5 17.5q83 0 140.5 -41t57.5 -117q0 -40 -21 -81t-51.5 -77t-61.5 -72.5t-55.5 -82.5
t-28.5 -94zM153 -10q-21 0 -35 13.5t-14 34.5t14.5 35t34.5 14q21 0 35 -14t14 -35t-14 -34.5t-35 -13.5z" />
    <glyph glyph-name="at" unicode="@" horiz-adv-x="829" 
d="M699 -50l5 -7q-43 -40 -119.5 -71.5t-181.5 -31.5q-76 0 -142 20.5t-119 61.5t-84 110.5t-31 158.5q0 190 127.5 314.5t306.5 124.5q151 0 247.5 -83.5t96.5 -225.5q0 -139 -90.5 -227.5t-244.5 -86.5l15 91l-18 -18q-32 -31 -45 -42.5t-33.5 -22t-41.5 -10.5
q-56 0 -94.5 46.5t-38.5 125.5q0 123 76 205t166 82q34 0 68 -17.5t45 -17.5q29 0 44 25h7l-46 -272q-21 -118 -11 -140q8 -18 43 -6q172 61 172 270q0 138 -93 224t-232 86q-168 0 -280.5 -108t-112.5 -297q0 -171 99 -266.5t244 -95.5q185 0 296 101zM293 172
q0 -153 68 -153q23 0 44 15t61 56l21 22l43 257q7 38 -11 62.5t-63 24.5q-64 0 -113.5 -83.5t-49.5 -200.5z" />
    <glyph glyph-name="A" unicode="A" horiz-adv-x="665" 
d="M8 0v6q23 10 39 32.5t40 89.5l199 553q-13 34 -24.5 46t-31.5 17v6h107q7 0 9.5 -2.5t6.5 -11.5l230 -609q2 -6 7.5 -21t7.5 -19.5t6.5 -16t6.5 -15.5t6.5 -12t8 -11.5t8.5 -9t10.5 -9t12.5 -6.5v-7h-151v7q22 5 24 22.5t-12 51.5l-58 151h-326l-37 -104
q-18 -38 -17 -73.5t36 -48.5v-6h-108zM137 240h320l-165 428z" />
    <glyph glyph-name="B" unicode="B" horiz-adv-x="583" 
d="M17 0v7q37 11 44.5 46.5t7.5 198.5v246q0 163 -7.5 198.5t-44.5 46.5v7h260q118 0 184 -46.5t66 -124.5q0 -66 -45.5 -112.5t-150.5 -56.5v-1q67 -8 114.5 -27t71.5 -46t34.5 -54.5t10.5 -58.5q0 -110 -85.5 -166.5t-219.5 -56.5h-240zM276 741h-126v-328h120
q103 0 143 36.5t40 125.5q0 166 -177 166zM272 405h-122v-396h102q115 0 169.5 44t54.5 163q0 37 -3.5 62.5t-15.5 51.5t-33.5 41t-59.5 24.5t-92 9.5z" />
    <glyph glyph-name="C" unicode="C" horiz-adv-x="637" 
d="M370 -7q-149 0 -241 105t-92 278q0 94 30 169.5t79 120.5t107.5 68.5t120.5 23.5q66 0 118 -21t65 -21q22 0 30 28h10v-153h-10q-19 82 -75.5 120t-137.5 38q-113 0 -181.5 -88.5t-68.5 -269.5q0 -101 21.5 -177.5t59 -119.5t82 -64t96.5 -21q137 0 217 100l7 -6
q-83 -110 -237 -110z" />
    <glyph glyph-name="D" unicode="D" horiz-adv-x="672" 
d="M17 0v7q37 11 44.5 46.5t7.5 198.5v246q0 163 -7.5 198.5t-44.5 46.5v7h166q223 0 338.5 -91.5t115.5 -273.5t-112 -283.5t-342 -101.5h-166zM183 741h-33v-733h33q189 0 277 87.5t88 290.5q0 104 -25.5 175.5t-76 110t-113.5 54t-150 15.5z" />
    <glyph glyph-name="E" unicode="E" horiz-adv-x="552" 
d="M17 0v7q37 11 44.5 46.5t7.5 198.5v246q0 163 -7.5 198.5t-44.5 46.5v7h465q6 0 8.5 -1t5.5 -5.5t4 -14.5l16 -91h-10q-18 60 -52.5 81.5t-97.5 21.5h-206v-322h93q29 0 47.5 5.5t27.5 20t11 21t6 27.5h9v-157h-9q-8 41 -21 53q-22 21 -71 21h-93v-401h225q70 0 103 21.5
t51 93.5h10l-11 -106q-1 -12 -5 -15t-14 -3h-492z" />
    <glyph glyph-name="F" unicode="F" horiz-adv-x="545" 
d="M17 0v7q37 10 44.5 46t7.5 199v246q0 163 -7.5 199t-44.5 46v7h487q6 0 8 -1t5 -5.5t4 -14.5l13 -91h-10q-18 60 -53.5 81.5t-105.5 21.5h-215v-315h98q28 0 46.5 5.5t27 17t12 21.5t6.5 25q1 4 1 6h8v-158h-8q-8 40 -21 53q-21 21 -72 21h-98v-165q0 -163 7.5 -199
t44.5 -46v-7h-185z" />
    <glyph glyph-name="G" unicode="G" horiz-adv-x="682" 
d="M363 -8q-148 0 -239.5 108t-91.5 281q0 94 29.5 168t78.5 118t107.5 67t120.5 23q50 0 86 -10.5t59 -20.5t40 -10q22 0 30 28h9v-153h-9q-19 81 -75.5 119t-139.5 38q-113 0 -181 -83t-68 -274q0 -201 66 -295.5t178 -94.5q99 0 139.5 39.5t40.5 136.5v6q0 65 -3 89.5
t-13 36t-36 17.5v7h182v-7q-24 -6 -33.5 -17t-14 -42t-4.5 -102v-46q-96 -127 -258 -127z" />
    <glyph glyph-name="H" unicode="H" horiz-adv-x="678" 
d="M17 0v7q37 10 44.5 46t7.5 199v246q0 163 -7.5 199t-44.5 46v7h185v-7q-37 -10 -44.5 -46t-7.5 -199v-83h378v83q0 163 -7.5 199t-44.5 46v7h185v-7q-37 -10 -44.5 -46t-7.5 -199v-246q0 -163 7.5 -199t44.5 -46v-7h-185v7q37 10 44.5 46t7.5 199v155h-378v-155
q0 -163 7.5 -199t44.5 -46v-7h-185z" />
    <glyph glyph-name="I" unicode="I" horiz-adv-x="219" 
d="M17 0v7q37 11 44.5 46.5t7.5 198.5v246q0 163 -7.5 199t-44.5 46v7h185v-7q-37 -10 -44.5 -46t-7.5 -199v-246q0 -163 7.5 -198.5t44.5 -46.5v-7h-185z" />
    <glyph glyph-name="J" unicode="J" horiz-adv-x="364" 
d="M147 -9q-66 0 -106.5 23.5t-40.5 58.5t37 35q19 0 28.5 -9t16.5 -34q5 -19 8.5 -28.5t10.5 -19.5t17.5 -13.5t27.5 -3.5q31 0 49.5 18t18.5 52v428q0 163 -7.5 199t-44.5 46v7h185v-7q-37 -10 -44.5 -46t-7.5 -199v-364q0 -60 -42.5 -101.5t-105.5 -41.5z" />
    <glyph glyph-name="K" unicode="K" horiz-adv-x="605" 
d="M425 0v6q18 5 21.5 16t-3.5 25t-24 36l-266 339l276 234q70 60 53 77q-9 8 -31 11v6h118v-6q-24 -7 -46 -22.5t-62 -49.5l-245 -208l302 -386q47 -60 78 -72v-6h-171zM17 0v7q37 10 44.5 46t7.5 199v246q0 163 -7.5 199t-44.5 46v7h185v-7q-37 -10 -44.5 -46t-7.5 -199
v-246q0 -163 7.5 -199t44.5 -46v-7h-185z" />
    <glyph glyph-name="L" unicode="L" horiz-adv-x="515" 
d="M17 0v7q37 10 44.5 46t7.5 199v246q0 163 -7.5 199t-44.5 46v7h187v-7q-38 -10 -46 -46t-8 -199v-489h194q71 0 105.5 23t54.5 103h10l-17 -117q-2 -12 -5.5 -15t-13.5 -3h-461z" />
    <glyph glyph-name="M" unicode="M" horiz-adv-x="787" 
d="M17 0v7q14 5 21 9t14 16t9.5 24.5t4.5 43.5t2.5 63t0.5 93v242q0 163 -7.5 198.5t-44.5 46.5v7h129q8 0 11 -3.5t9 -20.5l227 -622l242 646h136v-7q-37 -10 -44.5 -46t-7.5 -199v-246q0 -163 7.5 -199t44.5 -46v-7h-186v7q37 10 44.5 46t7.5 199v474l-272 -729h-12
l-274 732v-473q0 -73 1 -108.5t3 -66.5t9.5 -42.5t16.5 -18.5t27 -13v-7h-119z" />
    <glyph glyph-name="N" unicode="N" horiz-adv-x="637" 
d="M17 0v7q14 5 21 9t14 16t9.5 24.5t4.5 43.5t2.5 63t0.5 93v242q0 163 -7.5 198.5t-44.5 46.5v7h127q13 0 18.5 -4.5t19.5 -25.5l376 -585v359q0 73 -1 108.5t-3 66.5t-9.5 42.5t-16.5 18.5t-27 13v7h120v-7q-14 -5 -21 -9t-14 -16t-9.5 -24.5t-4.5 -43.5t-2.5 -63
t-0.5 -93v-497h-16l-474 732v-473q0 -73 1 -108.5t3 -66.5t9.5 -42.5t16.5 -18.5t27 -13v-7h-119z" />
    <glyph glyph-name="O" unicode="O" horiz-adv-x="725" 
d="M362 -8q-128 0 -227 108t-99 276q0 85 28 157.5t74 121t104.5 76t119.5 27.5q130 0 229 -107t99 -275t-99 -276t-229 -108zM362 1q105 0 172 93.5t67 281.5t-67 280.5t-172 92.5q-104 0 -171 -93t-67 -280q0 -188 67 -281.5t171 -93.5z" />
    <glyph glyph-name="P" unicode="P" horiz-adv-x="550" 
d="M17 0v7q37 10 44.5 46t7.5 199v246q0 163 -7.5 199t-44.5 46v7h243q275 0 275 -192q0 -105 -77.5 -158.5t-196.5 -53.5h-111v-94q0 -163 8 -199t46 -46v-7h-187zM259 741h-109v-386h108q41 0 71 6t62 24.5t49 59.5t17 104t-17.5 104t-49.5 58.5t-61.5 23.5t-69.5 6z" />
    <glyph glyph-name="Q" unicode="Q" horiz-adv-x="725" 
d="M362 -7q-61 0 -119.5 27.5t-104.5 76t-74 121.5t-28 158t28 157.5t74 121t104.5 76t119.5 27.5q130 0 229 -107t99 -275q0 -121 -54 -213t-140 -137q16 -49 26.5 -74.5t26.5 -52t36 -37.5t47 -11q38 0 64 29l5 -5q-34 -41 -92 -41q-64 0 -111 35.5t-72 130.5
q-37 -7 -64 -7zM362 749q-104 0 -171 -93t-67 -280q0 -299 151 -362q-47 28 -47 82q0 40 29 63.5t70 23.5q66 0 102 -35t60 -102q112 90 112 330q0 188 -67 280.5t-172 92.5zM240 96q0 -49 34.5 -71.5t87.5 -22.5q31 0 61 9q0 2 -1.5 8t-2.5 9q-16 80 -38 111.5t-61 31.5
q-33 0 -56.5 -19t-23.5 -56z" />
    <glyph glyph-name="R" unicode="R" horiz-adv-x="615" 
d="M17 0v7q37 10 44.5 46t7.5 199v246q0 163 -7.5 199t-44.5 46v7h263q288 0 288 -178q0 -97 -73.5 -146.5t-181.5 -49.5h-41q64 -9 103.5 -52.5t58.5 -129.5q21 -92 51.5 -136.5t78.5 -44.5q37 0 61 28l5 -5q-30 -43 -95 -43t-112.5 40t-70.5 146q-13 55 -19 81t-17 53.5
t-18 36t-24 17t-32.5 9t-46.5 0.5h-45v-124q0 -163 7.5 -199t44.5 -46v-7h-185zM276 741h-126v-357h159q179 0 179 173q0 94 -46.5 139t-165.5 45z" />
    <glyph glyph-name="S" unicode="S" horiz-adv-x="519" 
d="M263 -7q-55 0 -95.5 13.5t-65.5 27t-44 13.5q-20 0 -26 -22h-9v169h9q12 -90 72.5 -141t158.5 -51q84 0 122.5 43t38.5 113q0 76 -38 115.5t-147 87.5q-105 46 -152.5 94.5t-47.5 122.5q0 82 60 130.5t148 48.5q63 0 113 -19t63 -19q20 0 28 24h9v-130h-9
q-33 135 -204 135q-71 0 -110 -31t-39 -90q0 -64 35 -101t125 -76q61 -26 95.5 -44t71 -47t52.5 -66t16 -86q0 -89 -66 -151.5t-164 -62.5z" />
    <glyph glyph-name="T" unicode="T" horiz-adv-x="606" 
d="M211 0v7q37 11 44.5 46.5t7.5 198.5v489h-82q-73 0 -108 -25t-53 -103h-10l16 116q1 15 4 18t12 3h522q9 0 12 -3t5 -18l15 -116h-10q-18 78 -53 103t-109 25h-80v-489q0 -163 7.5 -198.5t44.5 -46.5v-7h-185z" />
    <glyph glyph-name="U" unicode="U" horiz-adv-x="649" 
d="M354 -8q-290 0 -290 260v246q0 163 -7.5 199t-42.5 46v7h183v-7q-37 -10 -44.5 -46t-7.5 -199v-260q0 -120 46 -177.5t164 -57.5q218 0 218 244v247q0 61 -0.5 93t-2.5 63.5t-5 43.5t-10.5 24t-16 16t-23.5 9v7h121v-7q-14 -5 -21 -9t-14 -16t-9.5 -24.5t-4.5 -43.5
t-2.5 -63t-0.5 -93v-247q0 -133 -61.5 -194t-168.5 -61z" />
    <glyph glyph-name="V" unicode="V" horiz-adv-x="639" 
d="M316 -5l-232 618q-34 89 -45.5 105.5t-30.5 25.5v6h156v-6q-22 -6 -24.5 -23.5t13.5 -61.5l203 -557l189 522q20 46 17.5 77t-37.5 43v6h107v-6q-24 -11 -38 -31t-39 -90l-227 -628h-12z" />
    <glyph glyph-name="W" unicode="W" horiz-adv-x="900" 
d="M307 -5l-227 628q-3 7 -8 22t-7 20.5t-6.5 16.5t-6.5 15l-6 12t-7.5 11.5t-8 8.5t-10 8t-11.5 6v7h150v-7q-21 -6 -23 -23.5t13 -57.5l199 -558l104 287l-84 232q-2 6 -7 20t-7 19t-6 15.5t-6 14t-5.5 11.5t-6 11.5t-6.5 8.5t-8 8t-8.5 6t-10.5 6v7h149v-7
q-21 -6 -23 -23t13 -59l66 -183l53 146q18 41 17.5 73.5t-31.5 45.5v7h98v-7q-23 -9 -36 -29.5t-38 -89.5l-59 -160l128 -357l172 516q18 42 15.5 75t-35.5 45v7h105v-7q-24 -10 -38.5 -30.5t-36.5 -89.5l-209 -628h-12l-138 382l-138 -382h-12z" />
    <glyph glyph-name="X" unicode="X" horiz-adv-x="635" 
d="M13 0v6q30 16 49 36.5t59 79.5l163 240l-175 271q-41 64 -58 83.5t-41 27.5v6h178v-6q-29 -5 -27.5 -28.5t36.5 -77.5l142 -220l145 215q64 95 -2 111v6h118v-6q-7 -3 -13 -6t-10.5 -5.5t-10 -7.5t-8.5 -7.5t-9 -9.5t-8.5 -10.5l-10 -14t-10.5 -15t-12.5 -19t-14.5 -21.5
l-148 -219l180 -281l21 -33t19 -29t14.5 -20.5t15 -18.5t14 -11t17.5 -10v-6h-181v6q30 8 29 34t-37 83l-148 229l-159 -235q-62 -91 7 -111v-6h-124z" />
    <glyph glyph-name="Y" unicode="Y" horiz-adv-x="609" 
d="M216 0v7q37 11 44.5 46.5t7.5 198.5v117l-159 255q-5 8 -14 23t-13 21t-11 17t-10.5 15.5t-9 12t-9.5 11t-10 8t-11 7t-12 5.5v6h170v-6q-15 -4 -21 -12t-3 -23.5t18 -39.5l171 -278l141 233q18 29 26 45.5t12 32.5t-3.5 26t-25.5 16v6h107v-6q-24 -10 -45 -33t-60 -87
l-147 -242v-130q0 -163 7.5 -198.5t44.5 -46.5v-7h-185z" />
    <glyph glyph-name="Z" unicode="Z" horiz-adv-x="590" 
d="M21 0l432 741h-229q-80 0 -116 -29.5t-58 -101.5h-9l23 140h484l-437 -741h257q51 0 83.5 8t54 28t33 47.5t21.5 73.5h9l-17 -166h-531z" />
    <glyph glyph-name="bracketleft" unicode="[" horiz-adv-x="251" 
d="M71 793h167v-9h-114v-881h114v-9h-167v899z" />
    <glyph glyph-name="backslash" unicode="\" horiz-adv-x="425" 
d="M32 801l419 -963l-14 -6l-419 963z" />
    <glyph glyph-name="bracketright" unicode="]" horiz-adv-x="251" 
d="M180 793v-899h-167v9h114v881h-114v9h167z" />
    <glyph glyph-name="asciicircum" unicode="^" horiz-adv-x="388" 
d="M31 489l159 267h8l159 -267l-8 -4l-155 259l-155 -259z" />
    <glyph glyph-name="underscore" unicode="_" horiz-adv-x="361" 
d="M-5 -86v12h371v-12h-371z" />
    <glyph glyph-name="grave" unicode="`" horiz-adv-x="446" 
d="M287 534l-133 110q-23 19 -23 37q0 12 8 20t20 8q20 0 40 -29l93 -141z" />
    <glyph glyph-name="a" unicode="a" horiz-adv-x="421" 
d="M136 -5q-49 0 -80.5 25.5t-31.5 71.5q0 24 6.5 41t24 29.5t31 19t44 18.5t46.5 19l37 16q70 30 70 82v66q0 82 -85 82q-31 0 -45 -8.5t-25 -25.5q-24 -39 -49 -39q-13 0 -21 8.5t-8 19.5q0 24 44.5 39t102.5 15q72 0 117 -23.5t45 -87.5v-222q0 -85 7 -108.5t30 -23.5
q19 0 34 10l3 -5q-23 -20 -63 -20q-87 0 -87 76l-15 -15q-60 -60 -132 -60zM101 105q0 -92 67 -92q45 0 100 52l15 15v202q-15 -32 -69 -56l-37 -16q-76 -32 -76 -105z" />
    <glyph glyph-name="b" unicode="b" horiz-adv-x="515" 
d="M253 -9q-53 0 -105.5 23t-61.5 23q-16 0 -21 -17h-7v568q0 91 -5 106t-37 16h-3v7l120 58v-404l24 27q69 76 140 76q78 0 134 -62t56 -169q0 -117 -68 -184.5t-166 -67.5zM159 25q42 -25 94 -25q66 0 110 53.5t44 174.5q0 231 -124 231q-60 0 -126 -74l-24 -27v-273
q0 -44 26 -60z" />
    <glyph glyph-name="c" unicode="c" horiz-adv-x="424" 
d="M258 -7q-96 0 -164 66.5t-68 176.5q0 104 73 171.5t161 67.5q54 0 98.5 -16.5t44.5 -45.5q0 -14 -9 -24.5t-26 -10.5q-6 0 -10.5 1.5l-7.5 2.5t-6.5 5t-5 6.5t-4 8.5t-3.5 8.5t-4 11t-4 11.5q-11 33 -62 33q-69 0 -113 -54t-44 -171q0 -235 170 -235q81 0 130 59l6 -6
q-52 -66 -152 -66z" />
    <glyph glyph-name="d" unicode="d" horiz-adv-x="525" 
d="M231 -7q-80 0 -139.5 60.5t-59.5 170.5q0 117 64.5 183.5t160.5 66.5q65 0 128 -54v168q0 89 -6 105t-41 17v7l122 58v-622q0 -93 7 -115.5t43 -30.5v-7h-125v86l-12 -14q-65 -79 -142 -79zM112 239q0 -70 12.5 -118.5t34 -71.5t42 -32t44.5 -9q64 0 128 76l12 14v311
q-67 56 -128 56q-63 0 -104 -52t-41 -174z" />
    <glyph glyph-name="e" unicode="e" horiz-adv-x="443" 
d="M267 -8q-96 0 -167 64t-71 181q0 109 68.5 174t147.5 65q66 0 114.5 -37.5t62.5 -114.5h-307q-7 -42 -7 -84q0 -125 48.5 -180t126.5 -55q72 0 129 45l6 -7q-64 -51 -151 -51zM245 467q-41 0 -76.5 -31.5t-51.5 -101.5h237q-8 133 -109 133z" />
    <glyph glyph-name="f" unicode="f" horiz-adv-x="234" 
d="M25 0v7q29 8 34.5 30.5t5.5 115.5v303h-49v8q31 5 40 21.5t9 70.5v26q0 93 39 136.5t92 43.5q34 0 57 -12.5t23 -33.5q0 -12 -7.5 -20.5t-20.5 -8.5q-28 0 -34 29q-4 18 -5.5 24t-6.5 9.5t-15 3.5q-24 0 -35.5 -27t-11.5 -98v-162h97v-10h-97v-303q0 -93 8.5 -115.5
t50.5 -30.5v-7h-174z" />
    <glyph glyph-name="g" unicode="g" horiz-adv-x="429" 
d="M209 161q-47 0 -89 21l-14 -9q-31 -20 -31 -42q0 -23 45 -32l179 -27q119 -17 119 -104q0 -59 -59 -99.5t-154 -40.5q-47 0 -88 9.5t-70.5 33t-29.5 56.5q0 58 102 101q-36 7 -54 26.5t-18 46.5q0 43 50 75l16 10q-79 44 -79 128q0 70 54.5 115.5t120.5 45.5q46 0 91 -24
q51 41 97 41q29 0 29 -28q0 -12 -7 -18.5t-17 -6.5q-9 0 -28 9t-35 9q-15 0 -33 -10q78 -49 78 -133q0 -69 -53.5 -111t-121.5 -42zM209 170q46 0 74 34.5t28 109.5q0 76 -28.5 114t-73.5 38q-46 0 -73.5 -38t-27.5 -114q0 -144 101 -144zM68 -63q0 -51 37.5 -75.5
t99.5 -24.5q86 0 133.5 31t47.5 69q0 18 -7.5 30.5t-25 19.5t-28.5 9.5t-35 6.5l-157 23q-35 -18 -50 -37t-15 -52z" />
    <glyph glyph-name="h" unicode="h" horiz-adv-x="504" 
d="M25 0v7q29 8 34.5 30.5t5.5 115.5v435q0 88 -5 104.5t-36 17.5v7l116 59v-409l33 30q83 77 150 77q118 0 118 -121v-200q0 -94 5.5 -116t34.5 -30v-7h-160v7q32 8 38.5 30.5t6.5 115.5v216q0 88 -65 88q-49 0 -128 -72l-33 -30v-202q0 -93 6.5 -115.5t37.5 -30.5v-7h-159
z" />
    <glyph glyph-name="i" unicode="i" 
d="M103 559q-19 0 -32 13t-13 32t13 32t32 13t32 -13t13 -32t-13 -32t-32 -13zM24 0v7q31 8 37 30.5t6 115.5v129q0 89 -5 105t-36 19v8l116 62v-323q0 -93 6.5 -115.5t38.5 -30.5v-7h-163z" />
    <glyph glyph-name="j" unicode="j" horiz-adv-x="206" 
d="M101 559q-19 0 -31.5 13t-12.5 32t12.5 32t31.5 13t32 -13t13 -32t-13 -32t-32 -13zM-25 -139q-16 0 -27.5 8t-11.5 23q0 14 9 21.5t22 7.5q17 0 34.5 -15.5t26.5 -15.5t14 4q23 17 23 132v255q0 89 -5 105.5t-36 19.5v8l116 62v-427q0 -95 -92 -161q-39 -27 -73 -27z
" />
    <glyph glyph-name="k" unicode="k" horiz-adv-x="449" 
d="M25 0v7q29 8 34.5 30.5t5.5 115.5v423q0 98 -5.5 115.5t-39.5 18.5v8l120 58v-623q0 -93 6.5 -115.5t37.5 -30.5v-7h-159zM295 0v8q16 2 20 13.5t-14 37.5l-156 183v8l182 152q27 25 23 40t-31 18v6h116v-6q-41 -13 -102 -64l-133 -111l198 -234q32 -38 53 -43v-8h-156z
" />
    <glyph glyph-name="l" unicode="l" 
d="M24 0v7q31 8 37 30.5t6 115.5v423q0 98 -6 115.5t-40 18.5v7l121 58v-622q0 -93 6.5 -115.5t38.5 -30.5v-7h-163z" />
    <glyph glyph-name="m" unicode="m" horiz-adv-x="762" 
d="M25 0v7q29 8 34.5 30.5t5.5 115.5v129q0 88 -5 104.5t-36 19.5v8l116 62v-94l16 15q82 77 148 77q100 0 114 -93l17 16q83 77 148 77q116 0 116 -121v-200q0 -94 5.5 -116t34.5 -30v-7h-160v7q32 8 38.5 30.5t6.5 115.5v216q0 88 -63 88q-48 0 -126 -72l-16 -15v-3h1
v-214q0 -94 5.5 -116t34.5 -30v-7h-160v7q31 8 37.5 30.5t6.5 115.5v216q0 88 -63 88q-48 0 -125 -72l-16 -15v-217q0 -93 6.5 -115.5t37.5 -30.5v-7h-159z" />
    <glyph glyph-name="n" unicode="n" horiz-adv-x="503" 
d="M25 0v7q29 8 34.5 30.5t5.5 115.5v129q0 88 -5 104.5t-36 19.5v8l115 62v-110l33 31q84 77 150 77q118 0 118 -121v-200q0 -94 5.5 -116t34.5 -30v-7h-159v7q32 8 38.5 30.5t6.5 115.5v216q0 88 -66 88q-49 0 -128 -72l-33 -31v-201q0 -93 6.5 -115.5t37.5 -30.5v-7h-158
z" />
    <glyph glyph-name="o" unicode="o" horiz-adv-x="505" 
d="M252 -9q-83 0 -153 66t-70 174q0 109 70.5 177t152.5 68q83 0 153.5 -68t70.5 -177t-70.5 -174.5t-153.5 -65.5zM252 -1q64 0 104 55.5t40 176.5t-40.5 179t-103.5 58q-62 0 -102.5 -58t-40.5 -179t40 -176.5t103 -55.5z" />
    <glyph glyph-name="p" unicode="p" horiz-adv-x="523" 
d="M22 -166v7q29 8 34.5 30.5t5.5 115.5v295q0 88 -5 104.5t-36 19.5v8l116 62v-107l25 28q70 77 140 77q79 0 134 -60t55 -171q0 -117 -63.5 -183.5t-159.5 -66.5q-72 0 -131 48v-54q0 -93 6.5 -115.5t40.5 -30.5v-7h-162zM162 385l-25 -28v-305q65 -49 131 -49
q143 0 143 225q0 71 -10.5 119t-29.5 71t-39 32t-45 9q-57 0 -125 -74z" />
    <glyph glyph-name="q" unicode="q" horiz-adv-x="518" 
d="M338 -166v7q34 8 40.5 30.5t6.5 115.5v101l-21 -23q-66 -72 -139 -72q-79 0 -136 60.5t-57 170.5q0 115 64.5 183.5t160.5 68.5q42 0 76 -12t56 -24t34 -12q23 0 30 33h7v-474q0 -93 5.5 -115.5t34.5 -30.5v-7h-162zM112 239q0 -231 129 -231q61 0 123 69l21 23v271
q0 45 -35 68q-43 28 -93 28q-62 0 -103.5 -54.5t-41.5 -173.5z" />
    <glyph glyph-name="r" unicode="r" horiz-adv-x="329" 
d="M25 0v7q29 8 34.5 30.5t5.5 115.5v117q0 98 -5 115.5t-36 20.5v8l116 62v-122l51 55q34 37 52.5 50t42.5 13q37 0 37 -35q0 -14 -9 -24t-23 -10q-13 0 -32 9.5t-29 9.5q-17 0 -39 -25l-51 -55v-189q0 -93 6.5 -115.5t39.5 -30.5v-7h-161z" />
    <glyph glyph-name="s" unicode="s" horiz-adv-x="367" 
d="M181 1q106 0 106 94q0 41 -26.5 65.5t-89.5 49.5q-67 26 -101.5 60t-34.5 83q0 58 40 90.5t102 32.5q45 0 75 -12.5t37 -12.5q13 0 17 17h8v-101h-8q-18 55 -48 77.5t-81 22.5q-45 0 -70 -20.5t-25 -57.5q0 -36 23.5 -56.5t85.5 -45.5q75 -31 110.5 -66t35.5 -89
q0 -62 -43 -100.5t-113 -38.5q-50 0 -87 18t-43 18q-13 0 -16 -18h-9v130h8q29 -140 147 -140z" />
    <glyph glyph-name="t" unicode="t" horiz-adv-x="252" 
d="M156 -6q-45 0 -71 25.5t-26 72.5v364h-41v9q94 13 107 143h9v-142h99v-10h-99v-338q0 -60 9 -84.5t38 -24.5q32 0 56 26l5 -5q-28 -36 -86 -36z" />
    <glyph glyph-name="u" unicode="u" horiz-adv-x="500" 
d="M181 -8q-118 0 -118 121v157q0 98 -5 115.5t-36 20.5v8l116 62v-391q0 -41 16.5 -58.5t48.5 -17.5q54 0 129 67l27 25v169q0 98 -5 115.5t-36 20.5v8l117 62v-323q0 -94 7 -116t43 -30v-7h-126v89l-27 -25q-80 -72 -151 -72z" />
    <glyph glyph-name="v" unicode="v" horiz-adv-x="431" 
d="M209 -5l-143 360q-25 62 -37 81t-30 24v6h146v-6q-17 -3 -22.5 -10.5t-2 -29t19.5 -62.5l106 -272l98 248q21 52 23 79.5t-7.5 35.5t-32.5 11v6h107v-6q-22 -5 -34 -24.5t-45 -101.5l-134 -339h-12z" />
    <glyph glyph-name="w" unicode="w" horiz-adv-x="635" 
d="M194 -5l-129 360q-22 60 -35.5 79.5t-33.5 25.5v6h147v-6q-16 -3 -20.5 -10.5t-1 -28.5t18.5 -63l94 -270l85 200l-24 67q-23 62 -36 80.5t-32 24.5v6h146v-6q-23 -4 -24.5 -22t19.5 -80l94 -262l89 240q20 53 21.5 80t-7 33.5t-32.5 10.5v6h107v-6q-24 -6 -37 -25.5
t-42 -98.5l-126 -341h-11l-100 280l-119 -280h-11z" />
    <glyph glyph-name="x" unicode="x" horiz-adv-x="438" 
d="M10 0v6q31 12 47 28.5t57 74.5l76 111l-88 137q-39 60 -56.5 78.5t-35.5 24.5v6h151v-6q-13 -2 -18.5 -6t-5 -14.5t9 -27t26.5 -44.5l66 -100l64 92q26 38 34.5 60t3 29.5t-22.5 10.5v6h96v-6q-28 -9 -42.5 -24t-59.5 -79l-68 -97l97 -149q41 -62 56.5 -81t32.5 -24v-6
h-148v6q12 2 17.5 6.5t5 15t-9 27.5t-26.5 44l-73 113l-73 -105q-64 -91 -17 -101v-6h-96z" />
    <glyph glyph-name="y" unicode="y" horiz-adv-x="430" 
d="M96 -171q-39 0 -39 30t34 30q11 0 25 -6t20 -6q12 0 25.5 19t33.5 69l13 33l-143 359q-24 61 -37 79t-32 24v6h147v-6q-23 -4 -25 -20.5t21 -79.5l105 -272l100 248q21 51 22.5 78t-8 34.5t-32.5 11.5v6h108v-6q-21 -5 -34 -25t-45 -99l-149 -371q-30 -75 -55 -105.5
t-55 -30.5z" />
    <glyph glyph-name="z" unicode="z" horiz-adv-x="396" 
d="M369 -10q-23 10 -130 10h-229l276 458h-136q-38 0 -62.5 -14t-34 -29.5t-24.5 -49.5h-8l21 111q22 -10 129 -10h198l-280 -458h152q66 0 90.5 24.5t46.5 89.5h8z" />
    <glyph glyph-name="braceleft" unicode="{" horiz-adv-x="273" 
d="M260 -106q-85 0 -139.5 30.5t-54.5 89.5q0 42 38.5 126.5t38.5 118.5q0 17 -3.5 28.5t-14.5 25t-38 21t-69 7.5v8q42 0 69 7.5t38 21t14.5 25t3.5 28.5q0 34 -38.5 118.5t-38.5 126.5q0 59 54.5 89.5t139.5 30.5v-8q-71 0 -105 -25.5t-34 -82.5q0 -39 30 -121t30 -116
q0 -86 -112 -98q112 -12 112 -98q0 -34 -30 -116t-30 -121q0 -57 34 -82.5t105 -25.5v-8z" />
    <glyph glyph-name="bar" unicode="|" horiz-adv-x="251" 
d="M118 820h15v-926h-15v926z" />
    <glyph glyph-name="braceright" unicode="}" horiz-adv-x="273" 
d="M13 -106v8q71 0 105 25.5t34 82.5q0 39 -30 121t-30 116q0 86 112 98q-112 12 -112 98q0 34 30 116t30 121q0 57 -34 82.5t-105 25.5v8q85 0 139.5 -30.5t54.5 -89.5q0 -42 -38.5 -126.5t-38.5 -118.5q0 -17 3.5 -28.5t14.5 -25t38 -21t69 -7.5v-8q-42 0 -69 -7.5
t-38 -21t-14.5 -25t-3.5 -28.5q0 -34 38.5 -118.5t38.5 -126.5q0 -59 -54.5 -89.5t-139.5 -30.5z" />
    <glyph glyph-name="asciitilde" unicode="~" horiz-adv-x="359" 
d="M124 407q16 0 66.5 -10t65.5 -10q27 0 55 47l7 -3q-30 -88 -74 -88q-18 0 -68 10t-65 10q-31 0 -63 -48l-7 3q18 43 40.5 66t42.5 23z" />
    <glyph glyph-name="uni00A0" unicode="&#xa0;" horiz-adv-x="210" 
 />
    <glyph glyph-name="exclamdown" unicode="&#xa1;" 
d="M107 471q21 0 35 -13.5t14 -34.5t-14 -35t-35 -14q-20 0 -34.5 14t-14.5 35t14 34.5t35 13.5zM112 270q3 -120 14 -234.5t20.5 -184t9.5 -88.5q0 -27 -13.5 -43t-36.5 -16t-36.5 16t-13.5 43q0 19 9.5 88.5t21 184t14.5 234.5h11z" />
    <glyph glyph-name="cent" unicode="&#xa2;" horiz-adv-x="424" 
d="M258 -7h-7v-87h-13v88q-89 7 -150.5 72.5t-61.5 169.5q0 97 64.5 162.5t147.5 75.5v89h13v-88h9q54 0 98.5 -16.5t44.5 -45.5q0 -14 -9 -24.5t-26 -10.5q-6 0 -10.5 1.5l-7.5 2.5t-6.5 5t-5 6.5t-4 8.5t-3.5 8.5t-4 11t-4 11.5q-11 33 -62 33h-10v-459q7 -1 23 -1
q81 0 130 59l6 -6q-52 -66 -152 -66zM104 241q0 -209 134 -232v455q-60 -8 -97 -62.5t-37 -160.5z" />
    <glyph glyph-name="sterling" unicode="&#xa3;" horiz-adv-x="505" 
d="M39 0l57 56q67 65 67 128q0 41 -16 86h-128v11h124q-11 29 -32 74h-92v11h87q-52 114 -52 184q0 92 67.5 149t162.5 57q83 0 134 -34t51 -69q0 -15 -8.5 -25.5t-24.5 -10.5q-33 0 -43 36q0 1 -2 11t-3.5 15t-5.5 15.5t-8.5 16t-13 14t-18.5 12.5t-24.5 7.5t-32.5 3.5
q-75 0 -112 -52.5t-37 -138.5q0 -71 40 -191h219v-11h-215q16 -50 20 -74h195v-11h-192q3 -20 3 -39q0 -37 -14.5 -71t-30.5 -52.5t-41 -41.5h175q115 0 146.5 8t45.5 42h9l-20 -78q-7 -25 -12 -31.5t-20 -6.5h-405z" />
    <glyph glyph-name="yen" unicode="&#xa5;" horiz-adv-x="548" 
d="M188 0v7q37 11 44.5 46.5t7.5 198.5v35h-186v11h186v74h-186v11h182l-128 241q-35 63 -53 86t-46 34v6h170v-6q-23 -5 -25 -21t17 -54l144 -270l114 225q16 32 23 48t10 32.5t-4.5 25t-24.5 14.5v6h106v-6q-25 -10 -45.5 -34t-53.5 -89l-119 -235v-3h186v-11h-186v-74
h186v-11h-186v-35q0 -163 7.5 -198.5t44.5 -46.5v-7h-185z" />
    <glyph glyph-name="brokenbar" unicode="&#xa6;" horiz-adv-x="251" 
d="M118 820h15v-380h-15v380zM133 274v-380h-15v380h15z" />
    <glyph glyph-name="section" unicode="&#xa7;" horiz-adv-x="499" 
d="M226 -146q58 0 87.5 37t29.5 98q0 45 -32 87t-117 119q-9 8 -34.5 31t-32.5 29.5t-26 25t-24 26.5t-16.5 23.5t-14.5 27t-6.5 27t-3.5 31.5q0 86 82 129q-16 33 -16 76q0 72 48 112t119 40q66 0 108 -30t42 -61q0 -28 -29 -28q-17 0 -26 7.5t-15 25.5q-1 2 -4 11.5t-4 12
t-4.5 11t-6 12t-7 10t-9.5 9l-12 6t-15 5t-18 1.5q-52 0 -83 -27.5t-31 -78.5q0 -46 24.5 -78.5t99.5 -101.5q115 -103 143 -137q51 -61 51 -125q0 -71 -81 -131q10 -26 10 -58q0 -79 -50 -130.5t-126 -51.5q-75 0 -124 41t-49 87q0 13 7.5 21.5t21.5 8.5q28 0 37 -34
q7 -31 12.5 -48t17 -35t30 -25.5t47.5 -7.5zM237 264q69 -64 102 -99.5t49 -69.5q29 29 29 71q0 57 -36 103t-144 141q-91 83 -115 127q-38 -22 -38 -75q0 -10 2 -19.5t4 -17t8 -17.5t10 -16.5t14 -18t16 -18t20.5 -20t22.5 -20.5t27 -24t29 -27z" />
    <glyph glyph-name="dieresis" unicode="&#xa8;" horiz-adv-x="446" 
d="M303 560q-18 0 -30.5 12.5t-12.5 31.5q0 18 12.5 30t30.5 12t30.5 -12t12.5 -30q0 -19 -12.5 -31.5t-30.5 -12.5zM143 560q-18 0 -30.5 12.5t-12.5 31.5q0 18 12.5 30t30.5 12t30.5 -12t12.5 -30q0 -19 -12.5 -31.5t-30.5 -12.5z" />
    <glyph glyph-name="copyright" unicode="&#xa9;" horiz-adv-x="836" 
d="M419 759q158 0 271.5 -113t113.5 -272q0 -158 -113.5 -271.5t-271.5 -113.5q-160 0 -273.5 113.5t-113.5 271.5q0 159 113.5 272t273.5 113zM419 -2q154 0 264.5 110t110.5 266t-110.5 266t-264.5 110t-266 -110t-112 -266t112 -266t266 -110zM432 146q-92 0 -149 62.5
t-57 166.5q0 110 62.5 169t145.5 59q39 0 70.5 -12.5t39.5 -12.5q12 0 17 17h7v-102h-7q-30 102 -127 102q-63 0 -101 -52.5t-38 -158.5q0 -116 42 -171.5t103 -55.5q85 0 130 60l5 -5q-46 -66 -143 -66z" />
    <glyph glyph-name="ordfeminine" unicode="&#xaa;" horiz-adv-x="344" 
d="M112 391q-39 0 -63.5 19t-24.5 55q0 18 5 31t19 23t24 15t35 14.5t36 14.5l27 12q55 22 55 62v50q0 62 -66 62q-24 0 -34 -6t-18 -19q-7 -13 -11.5 -19t-11.5 -10.5t-17 -4.5q-22 0 -22 21q0 20 34.5 32.5t79.5 12.5q127 0 127 -84v-170q0 -63 5 -82t21 -19q13 0 26 9
l2 -5q-15 -15 -47 -15q-68 0 -68 59l-12 -12q-46 -46 -101 -46zM87 475q0 -70 49 -70q36 0 77 40l12 12v153q-11 -24 -53 -42l-28 -12q-57 -25 -57 -81z" />
    <glyph glyph-name="guillemotleft" unicode="&#xab;" horiz-adv-x="342" 
d="M295 67l-131 159v8l130 159l6 -4l-79 -159l80 -159zM177 67l-131 159v8l130 159l6 -4l-79 -159l80 -159z" />
    <glyph glyph-name="registered" unicode="&#xae;" horiz-adv-x="510" 
d="M256 758q92 0 158 -65.5t66 -158.5q0 -94 -66 -159.5t-158 -65.5q-93 0 -159.5 66t-66.5 159t66.5 158.5t159.5 65.5zM256 318q88 0 151 63t63 153t-63 152.5t-151 62.5q-89 0 -152.5 -62.5t-63.5 -152.5q0 -91 63.5 -153.5t152.5 -62.5zM171 424v4q11 3 13.5 14t2.5 62
v78q0 49 -2.5 61t-13.5 14v4h91q93 0 93 -56q0 -31 -24 -47t-59 -16h-10q21 -3 32.5 -16t17.5 -41q14 -54 40 -54q14 0 20 8l2 -3q-12 -14 -34 -14q-23 0 -38 12t-23 47q-11 44 -17.5 52.5t-30.5 8.5h-10v-38q0 -51 2.5 -62t14.5 -14v-4h-67zM260 656h-39v-109h49
q51 0 51 53q0 28 -13.5 42t-47.5 14z" />
    <glyph glyph-name="macron" unicode="&#xaf;" horiz-adv-x="446" 
d="M128 610h195v-34h-195v34z" />
    <glyph glyph-name="degree" unicode="&#xb0;" horiz-adv-x="250" 
d="M124 758q39 0 65.5 -27t26.5 -66q0 -40 -26.5 -67t-65.5 -27q-38 0 -64.5 27.5t-26.5 66.5q0 38 26.5 65.5t64.5 27.5zM45 665q0 -35 23 -59.5t56 -24.5q34 0 57 24.5t23 59.5t-23 59t-57 24q-33 0 -56 -24t-23 -59z" />
    <glyph glyph-name="twosuperior" unicode="&#xb2;" horiz-adv-x="424" 
d="M222 511q65 0 81 4.5t24 24.5h6l-16 -55q-10 -19 -15 -20h-218l99 111q73 83 73 170t-57 87q-9 0 -16 -2t-12 -6t-8.5 -7.5t-6 -9.5t-3.5 -9t-2.5 -8t-1.5 -6q-5 -24 -27 -24q-24 0 -24 24q0 19 27 37t74 18q51 0 83 -23t32 -69q0 -44 -27.5 -82.5t-83.5 -91.5l-68 -63
h87z" />
    <glyph glyph-name="threesuperior" unicode="&#xb3;" horiz-adv-x="425" 
d="M113 822q3 14 9 14h200v-5l-133 -143q16 9 35 9q50 0 83 -29t33 -81q0 -48 -40.5 -86t-104.5 -38q-44 0 -71.5 18t-27.5 39q0 23 23 23q11 0 16 -5.5t8 -17.5l1 -7q2 -7 3.5 -10.5t5.5 -11t9 -11t13.5 -7t19.5 -3.5q44 0 66.5 35t22.5 82q0 46 -15 74.5t-46 28.5
q-33 0 -61 -30l-4 4l115 125h-62q-41 0 -57 -0.5t-29 -3.5t-15.5 -7t-6.5 -14h-6z" />
    <glyph glyph-name="acute" unicode="&#xb4;" horiz-adv-x="446" 
d="M159 534l-5 5l93 141q20 29 40 29q12 0 20 -8t8 -20q0 -18 -23 -37z" />
    <glyph glyph-name="paragraph" unicode="&#xb6;" horiz-adv-x="486" 
d="M289 394h-59q-94 0 -152 47t-58 133q0 87 57.5 131.5t153.5 44.5h239v-7q-37 -10 -44.5 -46.5t-7.5 -201.5v-283q0 -306 -215 -306q-34 0 -53.5 12t-19.5 33q0 15 8.5 24t22.5 9q24 0 49.5 -30t48.5 -30q42 0 71.5 54t29.5 182v580h-71v-346z" />
    <glyph glyph-name="periodcentered" unicode="&#xb7;" horiz-adv-x="183" 
d="M92 232q-21 0 -35.5 13.5t-14.5 34.5t14.5 35t35.5 14q20 0 34 -14t14 -35t-14 -34.5t-34 -13.5z" />
    <glyph glyph-name="cedilla" unicode="&#xb8;" horiz-adv-x="446" 
d="M237 0h11l-32 -53q40 -4 67 -22.5t27 -48.5q0 -73 -148 -76l-1 8q51 4 76 19t25 36q0 38 -77 42l-3 5z" />
    <glyph glyph-name="onesuperior" unicode="&#xb9;" horiz-adv-x="311" 
d="M230 465h-134v6q20 3 27.5 11.5t10.5 34.5t3 92v72q0 65 -5.5 77.5t-34.5 11.5v6l94 66v-233q0 -68 2.5 -92.5t9.5 -33.5t27 -12v-6z" />
    <glyph glyph-name="ordmasculine" unicode="&#xba;" horiz-adv-x="386" 
d="M193 386q-63 0 -117 49t-54 133q0 83 54.5 135.5t116.5 52.5q63 0 117.5 -52.5t54.5 -135.5q0 -84 -54 -133t-118 -49zM193 393q46 0 76.5 41.5t30.5 133.5q0 93 -31 137t-76 44t-75.5 -44t-30.5 -137q0 -92 30.5 -133.5t75.5 -41.5z" />
    <glyph glyph-name="guillemotright" unicode="&#xbb;" horiz-adv-x="342" 
d="M47 67l-6 4l80 159l-79 159l6 4l130 -159v-8zM165 67l-6 4l80 159l-79 159l6 4l130 -159v-8z" />
    <glyph glyph-name="onequarter" unicode="&#xbc;" horiz-adv-x="497" 
d="M316 465h-134v6q20 3 27.5 11.5t10.5 34.5t3 92v72q0 65 -5.5 77.5t-34.5 11.5v6l94 66v-233q0 -68 2.5 -92.5t9.5 -33.5t27 -12v-6zM63 371v8h371v-8h-371zM371 -4h-45q1 -47 6 -60t22 -17v-6h-110v6q17 4 22 16.5t6 60.5h-166v4l203 287h17v-251h66zM141 36h131v186z
" />
    <glyph glyph-name="onehalf" unicode="&#xbd;" horiz-adv-x="497" 
d="M316 465h-134v6q20 3 27.5 11.5t10.5 34.5t3 92v72q0 65 -5.5 77.5t-34.5 11.5v6l94 66v-233q0 -68 2.5 -92.5t9.5 -33.5t27 -12v-6zM63 371v8h371v-8h-371zM262 -41q65 0 81 4.5t24 24.5h6l-16 -55q-10 -19 -15 -20h-218l99 111q73 83 73 170t-57 87q-9 0 -16 -2t-12 -6
t-8.5 -7.5t-6 -9.5t-3.5 -9t-2.5 -8t-1.5 -6q-5 -24 -27 -24q-24 0 -24 24q0 19 27 37t74 18q51 0 83 -23t32 -69q0 -44 -27.5 -82.5t-83.5 -91.5l-68 -63h87z" />
    <glyph glyph-name="threequarters" unicode="&#xbe;" horiz-adv-x="497" 
d="M144 822q4 14 9 14h200v-5l-133 -143q16 9 35 9q50 0 83 -29t33 -81q0 -48 -40.5 -86t-104.5 -38q-44 0 -71.5 18t-27.5 39q0 23 23 23q11 0 16 -5.5t8 -17.5l2 -7q1 -7 2.5 -10.5t5.5 -11t9 -11t13.5 -7t19.5 -3.5q44 0 66.5 35t22.5 82q0 46 -15 74.5t-46 28.5
q-33 0 -61 -30l-4 4l115 125h-62q-41 0 -57 -0.5t-29 -3.5t-15.5 -7t-6.5 -14h-6zM63 371v8h371v-8h-371zM371 -4h-45q1 -47 6 -60t22 -17v-6h-110v6q17 4 22 16.5t6 60.5h-166v4l203 287h17v-251h66zM141 36h131v186z" />
    <glyph glyph-name="questiondown" unicode="&#xbf;" horiz-adv-x="398" 
d="M245 471q21 0 35 -13.5t14 -34.5t-14.5 -35t-34.5 -14q-21 0 -35 14t-14 35t14 34.5t35 13.5zM252 270h8q-2 -60 -25 -118.5t-50 -97.5t-49 -92.5t-22 -105.5q0 -78 30.5 -110t88.5 -32q44 0 61 34q4 6 9 18.5t8.5 18t11.5 10.5t20 5q16 0 25 -10t9 -25
q0 -25 -37.5 -42.5t-107.5 -17.5q-83 0 -140.5 41t-57.5 117q0 40 21 81t51.5 77t61.5 72.5t55.5 82.5t28.5 94z" />
    <glyph glyph-name="Agrave" unicode="&#xc0;" horiz-adv-x="665" 
d="M401 778l-168 45q-40 11 -40 38q0 10 7.5 17.5t18.5 7.5q14 0 36 -12l149 -90zM8 0v6q23 10 39 32.5t40 89.5l199 553q-13 34 -24.5 46t-31.5 17v6h107q7 0 9.5 -2.5t6.5 -11.5l230 -609q2 -6 7.5 -21t7.5 -19.5t6.5 -16t6.5 -15.5t6.5 -12t8 -11.5t8.5 -9t10.5 -9
t12.5 -6.5v-7h-151v7q22 5 24 22.5t-12 51.5l-58 151h-326l-37 -104q-18 -38 -17 -73.5t36 -48.5v-6h-108zM137 240h320l-165 428z" />
    <glyph glyph-name="Aacute" unicode="&#xc1;" horiz-adv-x="665" 
d="M220 778l-3 6l149 90q22 12 36 12q11 0 18.5 -7.5t7.5 -17.5q0 -27 -40 -38zM8 0v6q23 10 39 32.5t40 89.5l199 553q-13 34 -24.5 46t-31.5 17v6h107q7 0 9.5 -2.5t6.5 -11.5l230 -609q2 -6 7.5 -21t7.5 -19.5t6.5 -16t6.5 -15.5t6.5 -12t8 -11.5t8.5 -9t10.5 -9
t12.5 -6.5v-7h-151v7q22 5 24 22.5t-12 51.5l-58 151h-326l-37 -104q-18 -38 -17 -73.5t36 -48.5v-6h-108zM137 240h320l-165 428z" />
    <glyph glyph-name="Acircumflex" unicode="&#xc2;" horiz-adv-x="665" 
d="M182 782l126 106l126 -106l-4 -5l-122 50l-122 -50zM8 0v6q23 10 39 32.5t40 89.5l199 553q-13 34 -24.5 46t-31.5 17v6h107q7 0 9.5 -2.5t6.5 -11.5l230 -609q2 -6 7.5 -21t7.5 -19.5t6.5 -16t6.5 -15.5t6.5 -12t8 -11.5t8.5 -9t10.5 -9t12.5 -6.5v-7h-151v7
q22 5 24 22.5t-12 51.5l-58 151h-326l-37 -104q-18 -38 -17 -73.5t36 -48.5v-6h-108zM137 240h320l-165 428z" />
    <glyph glyph-name="Atilde" unicode="&#xc3;" horiz-adv-x="665" 
d="M271 864q11 0 54 -6.5t54 -6.5q24 0 51 46l7 -2q-13 -44 -31 -65.5t-36 -21.5q-14 0 -57 6t-53 6q-26 0 -58 -47l-6 2q15 44 35.5 66.5t39.5 22.5zM8 0v6q23 10 39 32.5t40 89.5l199 553q-13 34 -24.5 46t-31.5 17v6h107q7 0 9.5 -2.5t6.5 -11.5l230 -609q2 -6 7.5 -21
t7.5 -19.5t6.5 -16t6.5 -15.5t6.5 -12t8 -11.5t8.5 -9t10.5 -9t12.5 -6.5v-7h-151v7q22 5 24 22.5t-12 51.5l-58 151h-326l-37 -104q-18 -38 -17 -73.5t36 -48.5v-6h-108zM137 240h320l-165 428z" />
    <glyph glyph-name="Adieresis" unicode="&#xc4;" horiz-adv-x="665" 
d="M404 783q-19 0 -31 12.5t-12 31.5q0 18 12 30.5t31 12.5q17 0 29.5 -12.5t12.5 -30.5q0 -19 -12.5 -31.5t-29.5 -12.5zM212 783q-17 0 -29.5 12.5t-12.5 31.5q0 18 12.5 30.5t29.5 12.5q19 0 31 -12.5t12 -30.5q0 -19 -12 -31.5t-31 -12.5zM8 0v6q23 10 39 32.5t40 89.5
l199 553q-13 34 -24.5 46t-31.5 17v6h107q7 0 9.5 -2.5t6.5 -11.5l230 -609q2 -6 7.5 -21t7.5 -19.5t6.5 -16t6.5 -15.5t6.5 -12t8 -11.5t8.5 -9t10.5 -9t12.5 -6.5v-7h-151v7q22 5 24 22.5t-12 51.5l-58 151h-326l-37 -104q-18 -38 -17 -73.5t36 -48.5v-6h-108zM137 240
h320l-165 428z" />
    <glyph glyph-name="Aring" unicode="&#xc5;" horiz-adv-x="665" 
d="M229 852q0 32 24 54.5t55 22.5q32 0 55.5 -22.5t23.5 -54.5q0 -33 -23.5 -55t-55.5 -22t-55.5 22t-23.5 55zM264 852q0 -31 12 -49.5t32 -18.5t32 18.5t12 49.5q0 30 -12 49.5t-32 19.5q-19 0 -31.5 -19.5t-12.5 -49.5zM8 0v6q23 10 39 32.5t40 89.5l199 553
q-13 34 -24.5 46t-31.5 17v6h107q7 0 9.5 -2.5t6.5 -11.5l230 -609q2 -6 7.5 -21t7.5 -19.5t6.5 -16t6.5 -15.5t6.5 -12t8 -11.5t8.5 -9t10.5 -9t12.5 -6.5v-7h-151v7q22 5 24 22.5t-12 51.5l-58 151h-326l-37 -104q-18 -38 -17 -73.5t36 -48.5v-6h-108zM137 240h320
l-165 428z" />
    <glyph glyph-name="AE" unicode="&#xc6;" horiz-adv-x="914" 
d="M702 336q-8 41 -21 53q-22 21 -71 21h-84v-401h211q70 0 103 21.5t51 93.5h10l-12 -106q-1 -12 -4.5 -15t-13.5 -3h-478v7q20 6 28.5 12.5t15 33t7.5 64t1 120.5h-274l-63 -111q-13 -23 -20 -41t-9 -34t5.5 -27t24.5 -18v-6h-108v6q21 10 40 33.5t56 86.5l316 555
q17 33 10 44.5t-39 17.5v7h460q6 0 8.5 -1t5.5 -5.5t4 -14.5l16 -91h-10q-18 60 -52.5 81.5t-97.5 21.5h-192v-322h84q29 0 47.5 5.5t27.5 20t11 21t6 27.5h9v-157h-9zM176 245h269v473z" />
    <glyph glyph-name="Ccedilla" unicode="&#xc7;" horiz-adv-x="637" 
d="M370 -7q-17 0 -25 1l-28 -47q40 -4 67 -22.5t27 -48.5q0 -73 -148 -76l-1 8q51 4 76 19t25 36q0 38 -77 42l-3 5l52 85q-135 13 -216.5 116t-81.5 265q0 94 30 169.5t79 120.5t107.5 68.5t120.5 23.5q66 0 118 -21t65 -21q22 0 30 28h10v-153h-10q-19 82 -75.5 120
t-137.5 38q-113 0 -181.5 -88.5t-68.5 -269.5q0 -101 21.5 -177.5t59 -119.5t82 -64t96.5 -21q137 0 217 100l7 -6q-83 -110 -237 -110z" />
    <glyph glyph-name="Egrave" unicode="&#xc8;" horiz-adv-x="552" 
d="M382 778l-168 45q-40 11 -40 38q0 10 7.5 17.5t18.5 7.5q14 0 36 -12l149 -90zM17 0v7q37 11 44.5 46.5t7.5 198.5v246q0 163 -7.5 198.5t-44.5 46.5v7h465q6 0 8.5 -1t5.5 -5.5t4 -14.5l16 -91h-10q-18 60 -52.5 81.5t-97.5 21.5h-206v-322h93q29 0 47.5 5.5t27.5 20
t11 21t6 27.5h9v-157h-9q-8 41 -21 53q-22 21 -71 21h-93v-401h225q70 0 103 21.5t51 93.5h10l-11 -106q-1 -12 -5 -15t-14 -3h-492z" />
    <glyph glyph-name="Eacute" unicode="&#xc9;" horiz-adv-x="552" 
d="M201 778l-3 6l149 90q22 12 36 12q11 0 18.5 -7.5t7.5 -17.5q0 -27 -40 -38zM17 0v7q37 11 44.5 46.5t7.5 198.5v246q0 163 -7.5 198.5t-44.5 46.5v7h465q6 0 8.5 -1t5.5 -5.5t4 -14.5l16 -91h-10q-18 60 -52.5 81.5t-97.5 21.5h-206v-322h93q29 0 47.5 5.5t27.5 20
t11 21t6 27.5h9v-157h-9q-8 41 -21 53q-22 21 -71 21h-93v-401h225q70 0 103 21.5t51 93.5h10l-11 -106q-1 -12 -5 -15t-14 -3h-492z" />
    <glyph glyph-name="Ecircumflex" unicode="&#xca;" horiz-adv-x="552" 
d="M163 782l126 106l126 -106l-4 -5l-122 50l-122 -50zM17 0v7q37 11 44.5 46.5t7.5 198.5v246q0 163 -7.5 198.5t-44.5 46.5v7h465q6 0 8.5 -1t5.5 -5.5t4 -14.5l16 -91h-10q-18 60 -52.5 81.5t-97.5 21.5h-206v-322h93q29 0 47.5 5.5t27.5 20t11 21t6 27.5h9v-157h-9
q-8 41 -21 53q-22 21 -71 21h-93v-401h225q70 0 103 21.5t51 93.5h10l-11 -106q-1 -12 -5 -15t-14 -3h-492z" />
    <glyph glyph-name="Edieresis" unicode="&#xcb;" horiz-adv-x="552" 
d="M385 783q-19 0 -31 12.5t-12 31.5q0 18 12 30.5t31 12.5q17 0 29.5 -12.5t12.5 -30.5q0 -19 -12.5 -31.5t-29.5 -12.5zM193 783q-17 0 -29.5 12.5t-12.5 31.5q0 18 12.5 30.5t29.5 12.5q19 0 31 -12.5t12 -30.5q0 -19 -12 -31.5t-31 -12.5zM17 0v7q37 11 44.5 46.5
t7.5 198.5v246q0 163 -7.5 198.5t-44.5 46.5v7h465q6 0 8.5 -1t5.5 -5.5t4 -14.5l16 -91h-10q-18 60 -52.5 81.5t-97.5 21.5h-206v-322h93q29 0 47.5 5.5t27.5 20t11 21t6 27.5h9v-157h-9q-8 41 -21 53q-22 21 -71 21h-93v-401h225q70 0 103 21.5t51 93.5h10l-11 -106
q-1 -12 -5 -15t-14 -3h-492z" />
    <glyph glyph-name="Igrave" unicode="&#xcc;" horiz-adv-x="219" 
d="M201 778l-168 45q-40 11 -40 38q0 10 7.5 17.5t18.5 7.5q14 0 36 -12l149 -90zM17 0v7q37 11 44.5 46.5t7.5 198.5v246q0 163 -7.5 199t-44.5 46v7h185v-7q-37 -10 -44.5 -46t-7.5 -199v-246q0 -163 7.5 -198.5t44.5 -46.5v-7h-185z" />
    <glyph glyph-name="Iacute" unicode="&#xcd;" horiz-adv-x="219" 
d="M21 778l-3 6l149 90q22 12 36 12q11 0 18.5 -7.5t7.5 -17.5q0 -27 -40 -38zM17 0v7q37 11 44.5 46.5t7.5 198.5v246q0 163 -7.5 199t-44.5 46v7h185v-7q-37 -10 -44.5 -46t-7.5 -199v-246q0 -163 7.5 -198.5t44.5 -46.5v-7h-185z" />
    <glyph glyph-name="Icircumflex" unicode="&#xce;" horiz-adv-x="219" 
d="M-17 782l126 106l126 -106l-4 -5l-122 50l-122 -50zM17 0v7q37 11 44.5 46.5t7.5 198.5v246q0 163 -7.5 199t-44.5 46v7h185v-7q-37 -10 -44.5 -46t-7.5 -199v-246q0 -163 7.5 -198.5t44.5 -46.5v-7h-185z" />
    <glyph glyph-name="Idieresis" unicode="&#xcf;" horiz-adv-x="219" 
d="M172 783q-18 0 -30 12.5t-12 31.5q0 18 12 30.5t30 12.5t30.5 -12.5t12.5 -30.5q0 -19 -12.5 -31.5t-30.5 -12.5zM46 783q-17 0 -29.5 12.5t-12.5 31.5q0 18 12.5 30.5t29.5 12.5q19 0 31 -12.5t12 -30.5q0 -19 -12 -31.5t-31 -12.5zM17 0v7q37 11 44.5 46.5t7.5 198.5
v246q0 163 -7.5 199t-44.5 46v7h185v-7q-37 -10 -44.5 -46t-7.5 -199v-246q0 -163 7.5 -198.5t44.5 -46.5v-7h-185z" />
    <glyph glyph-name="Eth" unicode="&#xd0;" horiz-adv-x="673" 
d="M19 0v7q37 11 44.5 46.5t7.5 198.5v136h-74v8h74v102q0 163 -7.5 198.5t-44.5 46.5v7h166q223 0 338.5 -91.5t115.5 -273.5t-112 -283.5t-342 -101.5h-166zM305 388h-153v-380h33q189 0 277 87.5t88 290.5q0 104 -25.5 175.5t-76 110t-113.5 54t-150 15.5h-33v-345h153
v-8z" />
    <glyph glyph-name="Ntilde" unicode="&#xd1;" horiz-adv-x="637" 
d="M309 864q11 0 54 -6.5t54 -6.5q24 0 51 46l7 -2q-13 -44 -31 -65.5t-36 -21.5q-14 0 -57 6t-53 6q-26 0 -58 -47l-6 2q15 44 35.5 66.5t39.5 22.5zM17 0v7q14 5 21 9t14 16t9.5 24.5t4.5 43.5t2.5 63t0.5 93v242q0 163 -7.5 198.5t-44.5 46.5v7h127q13 0 18.5 -4.5
t19.5 -25.5l376 -585v359q0 73 -1 108.5t-3 66.5t-9.5 42.5t-16.5 18.5t-27 13v7h120v-7q-14 -5 -21 -9t-14 -16t-9.5 -24.5t-4.5 -43.5t-2.5 -63t-0.5 -93v-497h-16l-474 732v-473q0 -73 1 -108.5t3 -66.5t9.5 -42.5t16.5 -18.5t27 -13v-7h-119z" />
    <glyph glyph-name="Ograve" unicode="&#xd2;" horiz-adv-x="725" 
d="M455 778l-168 45q-40 11 -40 38q0 10 7.5 17.5t18.5 7.5q14 0 36 -12l149 -90zM362 -8q-128 0 -227 108t-99 276q0 85 28 157.5t74 121t104.5 76t119.5 27.5q130 0 229 -107t99 -275t-99 -276t-229 -108zM362 1q105 0 172 93.5t67 281.5t-67 280.5t-172 92.5
q-104 0 -171 -93t-67 -280q0 -188 67 -281.5t171 -93.5z" />
    <glyph glyph-name="Oacute" unicode="&#xd3;" horiz-adv-x="725" 
d="M274 778l-3 6l149 90q22 12 36 12q11 0 18.5 -7.5t7.5 -17.5q0 -27 -40 -38zM362 -8q-128 0 -227 108t-99 276q0 85 28 157.5t74 121t104.5 76t119.5 27.5q130 0 229 -107t99 -275t-99 -276t-229 -108zM362 1q105 0 172 93.5t67 281.5t-67 280.5t-172 92.5
q-104 0 -171 -93t-67 -280q0 -188 67 -281.5t171 -93.5z" />
    <glyph glyph-name="Ocircumflex" unicode="&#xd4;" horiz-adv-x="725" 
d="M236 782l126 106l126 -106l-4 -5l-122 50l-122 -50zM362 -8q-128 0 -227 108t-99 276q0 85 28 157.5t74 121t104.5 76t119.5 27.5q130 0 229 -107t99 -275t-99 -276t-229 -108zM362 1q105 0 172 93.5t67 281.5t-67 280.5t-172 92.5q-104 0 -171 -93t-67 -280
q0 -188 67 -281.5t171 -93.5z" />
    <glyph glyph-name="Otilde" unicode="&#xd5;" horiz-adv-x="725" 
d="M325 864q11 0 54 -6.5t54 -6.5q24 0 51 46l7 -2q-13 -44 -31 -65.5t-36 -21.5q-14 0 -57 6t-53 6q-26 0 -58 -47l-6 2q15 44 35.5 66.5t39.5 22.5zM362 -8q-128 0 -227 108t-99 276q0 85 28 157.5t74 121t104.5 76t119.5 27.5q130 0 229 -107t99 -275t-99 -276t-229 -108
zM362 1q105 0 172 93.5t67 281.5t-67 280.5t-172 92.5q-104 0 -171 -93t-67 -280q0 -188 67 -281.5t171 -93.5z" />
    <glyph glyph-name="Odieresis" unicode="&#xd6;" horiz-adv-x="725" 
d="M458 783q-19 0 -31 12.5t-12 31.5q0 18 12 30.5t31 12.5q17 0 29.5 -12.5t12.5 -30.5q0 -19 -12.5 -31.5t-29.5 -12.5zM266 783q-17 0 -29.5 12.5t-12.5 31.5q0 18 12.5 30.5t29.5 12.5q19 0 31 -12.5t12 -30.5q0 -19 -12 -31.5t-31 -12.5zM362 -8q-128 0 -227 108
t-99 276q0 85 28 157.5t74 121t104.5 76t119.5 27.5q130 0 229 -107t99 -275t-99 -276t-229 -108zM362 1q105 0 172 93.5t67 281.5t-67 280.5t-172 92.5q-104 0 -171 -93t-67 -280q0 -188 67 -281.5t171 -93.5z" />
    <glyph glyph-name="multiply" unicode="&#xd7;" horiz-adv-x="398" 
d="M48 202l143 150l-146 153l9 9l146 -153l144 151l9 -9l-144 -151l144 -151l-9 -9l-144 150l-143 -150z" />
    <glyph glyph-name="Oslash" unicode="&#xd8;" horiz-adv-x="725" 
d="M362 -8q-87 0 -166 54l-47 -96l-9 4l48 98q-69 50 -110.5 134t-41.5 190q0 85 28 157.5t74 121t104.5 76t119.5 27.5q81 0 152 -44l41 83l9 -5l-41 -83q75 -49 121 -135.5t46 -197.5q0 -168 -99 -276t-229 -108zM124 376q0 -198 78 -296l302 613q-59 56 -142 56
q-104 0 -171 -93t-67 -280zM362 1q105 0 172 93.5t67 281.5q0 212 -90 309l-302 -614q61 -70 153 -70z" />
    <glyph glyph-name="Ugrave" unicode="&#xd9;" horiz-adv-x="649" 
d="M453 778l-168 45q-40 11 -40 38q0 10 7.5 17.5t18.5 7.5q14 0 36 -12l149 -90zM354 -8q-290 0 -290 260v246q0 163 -7.5 199t-42.5 46v7h183v-7q-37 -10 -44.5 -46t-7.5 -199v-260q0 -120 46 -177.5t164 -57.5q218 0 218 244v247q0 61 -0.5 93t-2.5 63.5t-5 43.5
t-10.5 24t-16 16t-23.5 9v7h121v-7q-14 -5 -21 -9t-14 -16t-9.5 -24.5t-4.5 -43.5t-2.5 -63t-0.5 -93v-247q0 -133 -61.5 -194t-168.5 -61z" />
    <glyph glyph-name="Uacute" unicode="&#xda;" horiz-adv-x="649" 
d="M272 778l-3 6l149 90q22 12 36 12q11 0 18.5 -7.5t7.5 -17.5q0 -27 -40 -38zM354 -8q-290 0 -290 260v246q0 163 -7.5 199t-42.5 46v7h183v-7q-37 -10 -44.5 -46t-7.5 -199v-260q0 -120 46 -177.5t164 -57.5q218 0 218 244v247q0 61 -0.5 93t-2.5 63.5t-5 43.5t-10.5 24
t-16 16t-23.5 9v7h121v-7q-14 -5 -21 -9t-14 -16t-9.5 -24.5t-4.5 -43.5t-2.5 -63t-0.5 -93v-247q0 -133 -61.5 -194t-168.5 -61z" />
    <glyph glyph-name="Ucircumflex" unicode="&#xdb;" horiz-adv-x="649" 
d="M234 782l126 106l126 -106l-4 -5l-122 50l-122 -50zM354 -8q-290 0 -290 260v246q0 163 -7.5 199t-42.5 46v7h183v-7q-37 -10 -44.5 -46t-7.5 -199v-260q0 -120 46 -177.5t164 -57.5q218 0 218 244v247q0 61 -0.5 93t-2.5 63.5t-5 43.5t-10.5 24t-16 16t-23.5 9v7h121v-7
q-14 -5 -21 -9t-14 -16t-9.5 -24.5t-4.5 -43.5t-2.5 -63t-0.5 -93v-247q0 -133 -61.5 -194t-168.5 -61z" />
    <glyph glyph-name="Udieresis" unicode="&#xdc;" horiz-adv-x="649" 
d="M456 783q-19 0 -31 12.5t-12 31.5q0 18 12 30.5t31 12.5q17 0 29.5 -12.5t12.5 -30.5q0 -19 -12.5 -31.5t-29.5 -12.5zM264 783q-17 0 -29.5 12.5t-12.5 31.5q0 18 12.5 30.5t29.5 12.5q19 0 31 -12.5t12 -30.5q0 -19 -12 -31.5t-31 -12.5zM354 -8q-290 0 -290 260v246
q0 163 -7.5 199t-42.5 46v7h183v-7q-37 -10 -44.5 -46t-7.5 -199v-260q0 -120 46 -177.5t164 -57.5q218 0 218 244v247q0 61 -0.5 93t-2.5 63.5t-5 43.5t-10.5 24t-16 16t-23.5 9v7h121v-7q-14 -5 -21 -9t-14 -16t-9.5 -24.5t-4.5 -43.5t-2.5 -63t-0.5 -93v-247
q0 -133 -61.5 -194t-168.5 -61z" />
    <glyph glyph-name="Yacute" unicode="&#xdd;" horiz-adv-x="609" 
d="M255 778l-3 6l149 90q22 12 36 12q11 0 18.5 -7.5t7.5 -17.5q0 -27 -40 -38zM216 0v7q37 11 44.5 46.5t7.5 198.5v117l-159 255q-5 8 -14 23t-13 21t-11 17t-10.5 15.5t-9 12t-9.5 11t-10 8t-11 7t-12 5.5v6h170v-6q-15 -4 -21 -12t-3 -23.5t18 -39.5l171 -278l141 233
q18 29 26 45.5t12 32.5t-3.5 26t-25.5 16v6h107v-6q-24 -10 -45 -33t-60 -87l-147 -242v-130q0 -163 7.5 -198.5t44.5 -46.5v-7h-185z" />
    <glyph glyph-name="Thorn" unicode="&#xde;" horiz-adv-x="548" 
d="M17 0v7q37 11 44.5 46.5t7.5 198.5v246q0 163 -7.5 199t-44.5 46v7h185v-7q-31 -8 -40.5 -31t-10.5 -105h109q275 0 275 -192q0 -105 -77.5 -158.5t-196.5 -53.5h-111q1 -89 5 -125.5t13.5 -50t33.5 -20.5v-7h-185zM150 212h108q41 0 71 6t62 24.5t49 59.5t17 104
t-17.5 104t-49.5 58.5t-61.5 23.5t-69.5 6h-108q-1 -27 -1 -100v-286z" />
    <glyph glyph-name="germandbls" unicode="&#xdf;" horiz-adv-x="512" 
d="M140 153q0 -92 6 -115t35 -31v-7h-156v7q29 8 34.5 30.5t5.5 115.5v303h-49v8q31 5 40 21.5t9 69.5v9q0 97 57 147.5t134 50.5t124.5 -33.5t47.5 -88.5q0 -26 -14 -51.5t-28 -39.5t-41 -36t-33 -28q-25 -23 -36 -39.5t-11 -38.5q0 -10 2.5 -18.5t9.5 -17t12 -14t18 -14.5
t19.5 -13t24.5 -15t25 -15q61 -37 91 -73t30 -91q0 -65 -44 -104t-105 -39q-43 0 -76 15.5t-39 15.5q-12 0 -16 -17h-9v122h9q24 -128 131 -128q48 0 74.5 28.5t26.5 69.5q0 46 -24 72.5t-86 61.5q-59 32 -88 62t-29 73q0 13 4.5 26.5t8.5 22.5t16 22t16.5 18t20.5 19t18 16
q62 58 62 133q0 58 -30 93t-82 35q-58 0 -87 -33t-29 -107v-460z" />
    <glyph glyph-name="agrave" unicode="&#xe0;" horiz-adv-x="421" 
d="M263 534l-133 110q-23 19 -23 37q0 12 8 20t20 8q20 0 40 -29l93 -141zM136 -5q-49 0 -80.5 25.5t-31.5 71.5q0 24 6.5 41t24 29.5t31 19t44 18.5t46.5 19l37 16q70 30 70 82v66q0 82 -85 82q-31 0 -45 -8.5t-25 -25.5q-24 -39 -49 -39q-13 0 -21 8.5t-8 19.5
q0 24 44.5 39t102.5 15q72 0 117 -23.5t45 -87.5v-222q0 -85 7 -108.5t30 -23.5q19 0 34 10l3 -5q-23 -20 -63 -20q-87 0 -87 76l-15 -15q-60 -60 -132 -60zM101 105q0 -92 67 -92q45 0 100 52l15 15v202q-15 -32 -69 -56l-37 -16q-76 -32 -76 -105z" />
    <glyph glyph-name="aacute" unicode="&#xe1;" horiz-adv-x="421" 
d="M167 534l-5 5l93 141q20 29 40 29q12 0 20 -8t8 -20q0 -18 -23 -37zM136 -5q-49 0 -80.5 25.5t-31.5 71.5q0 24 6.5 41t24 29.5t31 19t44 18.5t46.5 19l37 16q70 30 70 82v66q0 82 -85 82q-31 0 -45 -8.5t-25 -25.5q-24 -39 -49 -39q-13 0 -21 8.5t-8 19.5q0 24 44.5 39
t102.5 15q72 0 117 -23.5t45 -87.5v-222q0 -85 7 -108.5t30 -23.5q19 0 34 10l3 -5q-23 -20 -63 -20q-87 0 -87 76l-15 -15q-60 -60 -132 -60zM101 105q0 -92 67 -92q45 0 100 52l15 15v202q-15 -32 -69 -56l-37 -16q-76 -32 -76 -105z" />
    <glyph glyph-name="acircumflex" unicode="&#xe2;" horiz-adv-x="421" 
d="M93 537l112 175l112 -175l-7 -4l-105 100l-105 -100zM136 -5q-49 0 -80.5 25.5t-31.5 71.5q0 24 6.5 41t24 29.5t31 19t44 18.5t46.5 19l37 16q70 30 70 82v66q0 82 -85 82q-31 0 -45 -8.5t-25 -25.5q-24 -39 -49 -39q-13 0 -21 8.5t-8 19.5q0 24 44.5 39t102.5 15
q72 0 117 -23.5t45 -87.5v-222q0 -85 7 -108.5t30 -23.5q19 0 34 10l3 -5q-23 -20 -63 -20q-87 0 -87 76l-15 -15q-60 -60 -132 -60zM101 105q0 -92 67 -92q45 0 100 52l15 15v202q-15 -32 -69 -56l-37 -16q-76 -32 -76 -105z" />
    <glyph glyph-name="atilde" unicode="&#xe3;" horiz-adv-x="421" 
d="M169 635q13 0 52 -6t51 -6q24 0 48 47l7 -3q-10 -43 -28 -65t-35 -22q-15 0 -54.5 5.5t-50.5 5.5q-26 0 -55 -49l-6 3q13 43 33 66.5t38 23.5zM136 -5q-49 0 -80.5 25.5t-31.5 71.5q0 24 6.5 41t24 29.5t31 19t44 18.5t46.5 19l37 16q70 30 70 82v66q0 82 -85 82
q-31 0 -45 -8.5t-25 -25.5q-24 -39 -49 -39q-13 0 -21 8.5t-8 19.5q0 24 44.5 39t102.5 15q72 0 117 -23.5t45 -87.5v-222q0 -85 7 -108.5t30 -23.5q19 0 34 10l3 -5q-23 -20 -63 -20q-87 0 -87 76l-15 -15q-60 -60 -132 -60zM101 105q0 -92 67 -92q45 0 100 52l15 15v202
q-15 -32 -69 -56l-37 -16q-76 -32 -76 -105z" />
    <glyph glyph-name="adieresis" unicode="&#xe4;" horiz-adv-x="421" 
d="M285 560q-18 0 -30.5 12.5t-12.5 31.5q0 18 12.5 30t30.5 12t30.5 -12t12.5 -30q0 -19 -12.5 -31.5t-30.5 -12.5zM125 560q-18 0 -30.5 12.5t-12.5 31.5q0 18 12.5 30t30.5 12t30.5 -12t12.5 -30q0 -19 -12.5 -31.5t-30.5 -12.5zM136 -5q-49 0 -80.5 25.5t-31.5 71.5
q0 24 6.5 41t24 29.5t31 19t44 18.5t46.5 19l37 16q70 30 70 82v66q0 82 -85 82q-31 0 -45 -8.5t-25 -25.5q-24 -39 -49 -39q-13 0 -21 8.5t-8 19.5q0 24 44.5 39t102.5 15q72 0 117 -23.5t45 -87.5v-222q0 -85 7 -108.5t30 -23.5q19 0 34 10l3 -5q-23 -20 -63 -20
q-87 0 -87 76l-15 -15q-60 -60 -132 -60zM101 105q0 -92 67 -92q45 0 100 52l15 15v202q-15 -32 -69 -56l-37 -16q-76 -32 -76 -105z" />
    <glyph glyph-name="aring" unicode="&#xe5;" horiz-adv-x="421" 
d="M123 608q0 33 24 55t58 22t58 -22t24 -55t-23.5 -55t-58.5 -22t-58.5 21.5t-23.5 55.5zM157 608q0 -68 48 -68q23 0 35.5 18.5t12.5 49.5q0 30 -13 49t-35 19t-35 -19t-13 -49zM136 -5q-49 0 -80.5 25.5t-31.5 71.5q0 24 6.5 41t24 29.5t31 19t44 18.5t46.5 19l37 16
q70 30 70 82v66q0 82 -85 82q-31 0 -45 -8.5t-25 -25.5q-24 -39 -49 -39q-13 0 -21 8.5t-8 19.5q0 24 44.5 39t102.5 15q72 0 117 -23.5t45 -87.5v-222q0 -85 7 -108.5t30 -23.5q19 0 34 10l3 -5q-23 -20 -63 -20q-87 0 -87 76l-15 -15q-60 -60 -132 -60zM101 105
q0 -92 67 -92q45 0 100 52l15 15v202q-15 -32 -69 -56l-37 -16q-76 -32 -76 -105z" />
    <glyph glyph-name="ae" unicode="&#xe6;" horiz-adv-x="690" 
d="M138 -5q-51 0 -82.5 25.5t-31.5 71.5q0 24 6.5 41t24 29.5t31 19t44 18.5t46.5 19l37 16q70 30 70 82v66q0 82 -85 82q-31 0 -45 -8.5t-25 -25.5q-24 -39 -49 -39q-13 0 -21 8.5t-8 19.5q0 24 44.5 39t102.5 15q126 0 153 -64q66 66 148 66q65 0 113.5 -37.5t62.5 -114.5
h-305q-7 -42 -7 -84q0 -125 48.5 -180t125.5 -55q71 0 128 45l6 -7q-64 -51 -150 -51q-61 0 -115 27.5t-86 80.5l-42 -41q-34 -33 -65 -48.5t-74 -15.5zM498 467q-39 0 -75 -32t-52 -101h234q-3 71 -33 102t-74 31zM101 105q0 -92 66 -92q54 0 107 53l41 41q-32 56 -32 130
v45q-15 -32 -69 -56l-37 -16q-76 -32 -76 -105z" />
    <glyph glyph-name="ccedilla" unicode="&#xe7;" horiz-adv-x="424" 
d="M258 -7q-20 0 -39 3l-30 -49q40 -4 67 -22.5t27 -48.5q0 -73 -148 -76l-1 8q51 4 76 19t25 36q0 38 -77 42l-3 5l54 88q-79 16 -131 79.5t-52 158.5q0 104 73 171.5t161 67.5q54 0 98.5 -16.5t44.5 -45.5q0 -14 -9 -24.5t-26 -10.5q-6 0 -10.5 1.5l-7.5 2.5t-6.5 5
t-5 6.5t-4 8.5t-3.5 8.5t-4 11t-4 11.5q-11 33 -62 33q-69 0 -113 -54t-44 -171q0 -235 170 -235q81 0 130 59l6 -6q-52 -66 -152 -66z" />
    <glyph glyph-name="egrave" unicode="&#xe8;" horiz-adv-x="443" 
d="M303 534l-133 110q-23 19 -23 37q0 12 8 20t20 8q20 0 40 -29l93 -141zM267 -8q-96 0 -167 64t-71 181q0 109 68.5 174t147.5 65q66 0 114.5 -37.5t62.5 -114.5h-307q-7 -42 -7 -84q0 -125 48.5 -180t126.5 -55q72 0 129 45l6 -7q-64 -51 -151 -51zM245 467
q-41 0 -76.5 -31.5t-51.5 -101.5h237q-8 133 -109 133z" />
    <glyph glyph-name="eacute" unicode="&#xe9;" horiz-adv-x="443" 
d="M207 534l-5 5l93 141q20 29 40 29q12 0 20 -8t8 -20q0 -18 -23 -37zM267 -8q-96 0 -167 64t-71 181q0 109 68.5 174t147.5 65q66 0 114.5 -37.5t62.5 -114.5h-307q-7 -42 -7 -84q0 -125 48.5 -180t126.5 -55q72 0 129 45l6 -7q-64 -51 -151 -51zM245 467
q-41 0 -76.5 -31.5t-51.5 -101.5h237q-8 133 -109 133z" />
    <glyph glyph-name="ecircumflex" unicode="&#xea;" horiz-adv-x="443" 
d="M134 537l112 175l112 -175l-7 -4l-105 100l-105 -100zM267 -8q-96 0 -167 64t-71 181q0 109 68.5 174t147.5 65q66 0 114.5 -37.5t62.5 -114.5h-307q-7 -42 -7 -84q0 -125 48.5 -180t126.5 -55q72 0 129 45l6 -7q-64 -51 -151 -51zM245 467q-41 0 -76.5 -31.5
t-51.5 -101.5h237q-8 133 -109 133z" />
    <glyph glyph-name="edieresis" unicode="&#xeb;" horiz-adv-x="443" 
d="M326 560q-18 0 -30.5 12.5t-12.5 31.5q0 18 12.5 30t30.5 12t30.5 -12t12.5 -30q0 -19 -12.5 -31.5t-30.5 -12.5zM166 560q-18 0 -30.5 12.5t-12.5 31.5q0 18 12.5 30t30.5 12t30.5 -12t12.5 -30q0 -19 -12.5 -31.5t-30.5 -12.5zM267 -8q-96 0 -167 64t-71 181
q0 109 68.5 174t147.5 65q66 0 114.5 -37.5t62.5 -114.5h-307q-7 -42 -7 -84q0 -125 48.5 -180t126.5 -55q72 0 129 45l6 -7q-64 -51 -151 -51zM245 467q-41 0 -76.5 -31.5t-51.5 -101.5h237q-8 133 -109 133z" />
    <glyph glyph-name="igrave" unicode="&#xec;" 
d="M163 534l-133 110q-23 19 -23 37q0 12 8 20t20 8q20 0 40 -29l93 -141zM24 0v7q31 8 37 30.5t6 115.5v129q0 89 -5 105t-36 19v8l116 62v-323q0 -93 6.5 -115.5t38.5 -30.5v-7h-163z" />
    <glyph glyph-name="iacute" unicode="&#xed;" 
d="M67 534l-5 5l93 141q20 29 40 29q12 0 20 -8t8 -20q0 -18 -23 -37zM24 0v7q31 8 37 30.5t6 115.5v129q0 89 -5 105t-36 19v8l116 62v-323q0 -93 6.5 -115.5t38.5 -30.5v-7h-163z" />
    <glyph glyph-name="icircumflex" unicode="&#xee;" 
d="M-7 537l112 175l112 -175l-7 -4l-105 100l-105 -100zM24 0v7q31 8 37 30.5t6 115.5v129q0 89 -5 105t-36 19v8l116 62v-323q0 -93 6.5 -115.5t38.5 -30.5v-7h-163z" />
    <glyph glyph-name="idieresis" unicode="&#xef;" 
d="M166 560q-18 0 -30.5 12.5t-12.5 31.5q0 18 12.5 30t30.5 12t30.5 -12t12.5 -30q0 -19 -12.5 -31.5t-30.5 -12.5zM39 560q-18 0 -30.5 12.5t-12.5 31.5q0 18 12.5 30t30.5 12t30.5 -12t12.5 -30q0 -19 -12.5 -31.5t-30.5 -12.5zM24 0v7q31 8 37 30.5t6 115.5v129
q0 89 -5 105t-36 19v8l116 62v-323q0 -93 6.5 -115.5t38.5 -30.5v-7h-163z" />
    <glyph glyph-name="eth" unicode="&#xf0;" horiz-adv-x="505" 
d="M476 275q0 -72 -20.5 -129t-54 -89.5t-72 -49t-77.5 -16.5q-83 0 -153 66t-70 174q0 109 70.5 177t152.5 68q65 0 125 -45q-29 109 -92 191l-119 -50l-4 8l118 49q-66 83 -153 129l5 4q115 -46 191 -115l118 49l4 -8l-115 -48q146 -138 146 -365zM252 -1q64 0 104 55.5
t40 176.5t-40.5 179t-103.5 58q-62 0 -102.5 -58t-40.5 -179t40 -176.5t103 -55.5z" />
    <glyph glyph-name="ntilde" unicode="&#xf1;" horiz-adv-x="503" 
d="M213 635q13 0 52 -6t51 -6q24 0 48 47l7 -3q-10 -43 -28 -65t-35 -22q-15 0 -54.5 5.5t-50.5 5.5q-26 0 -55 -49l-6 3q13 43 33 66.5t38 23.5zM25 0v7q29 8 34.5 30.5t5.5 115.5v129q0 88 -5 104.5t-36 19.5v8l115 62v-110l33 31q84 77 150 77q118 0 118 -121v-200
q0 -94 5.5 -116t34.5 -30v-7h-159v7q32 8 38.5 30.5t6.5 115.5v216q0 88 -66 88q-49 0 -128 -72l-33 -31v-201q0 -93 6.5 -115.5t37.5 -30.5v-7h-158z" />
    <glyph glyph-name="ograve" unicode="&#xf2;" horiz-adv-x="505" 
d="M310 534l-133 110q-23 19 -23 37q0 12 8 20t20 8q20 0 40 -29l93 -141zM252 -9q-83 0 -153 66t-70 174q0 109 70.5 177t152.5 68q83 0 153.5 -68t70.5 -177t-70.5 -174.5t-153.5 -65.5zM252 -1q64 0 104 55.5t40 176.5t-40.5 179t-103.5 58q-62 0 -102.5 -58t-40.5 -179
t40 -176.5t103 -55.5z" />
    <glyph glyph-name="oacute" unicode="&#xf3;" horiz-adv-x="505" 
d="M214 534l-5 5l93 141q20 29 40 29q12 0 20 -8t8 -20q0 -18 -23 -37zM252 -9q-83 0 -153 66t-70 174q0 109 70.5 177t152.5 68q83 0 153.5 -68t70.5 -177t-70.5 -174.5t-153.5 -65.5zM252 -1q64 0 104 55.5t40 176.5t-40.5 179t-103.5 58q-62 0 -102.5 -58t-40.5 -179
t40 -176.5t103 -55.5z" />
    <glyph glyph-name="ocircumflex" unicode="&#xf4;" horiz-adv-x="505" 
d="M140 537l112 175l112 -175l-7 -4l-105 100l-105 -100zM252 -9q-83 0 -153 66t-70 174q0 109 70.5 177t152.5 68q83 0 153.5 -68t70.5 -177t-70.5 -174.5t-153.5 -65.5zM252 -1q64 0 104 55.5t40 176.5t-40.5 179t-103.5 58q-62 0 -102.5 -58t-40.5 -179t40 -176.5
t103 -55.5z" />
    <glyph glyph-name="otilde" unicode="&#xf5;" horiz-adv-x="505" 
d="M216 635q13 0 52 -6t51 -6q24 0 48 47l7 -3q-10 -43 -28 -65t-35 -22q-15 0 -54.5 5.5t-50.5 5.5q-26 0 -55 -49l-6 3q13 43 33 66.5t38 23.5zM252 -9q-83 0 -153 66t-70 174q0 109 70.5 177t152.5 68q83 0 153.5 -68t70.5 -177t-70.5 -174.5t-153.5 -65.5zM252 -1
q64 0 104 55.5t40 176.5t-40.5 179t-103.5 58q-62 0 -102.5 -58t-40.5 -179t40 -176.5t103 -55.5z" />
    <glyph glyph-name="odieresis" unicode="&#xf6;" horiz-adv-x="505" 
d="M332 560q-18 0 -30.5 12.5t-12.5 31.5q0 18 12.5 30t30.5 12t30.5 -12t12.5 -30q0 -19 -12.5 -31.5t-30.5 -12.5zM172 560q-18 0 -30.5 12.5t-12.5 31.5q0 18 12.5 30t30.5 12t30.5 -12t12.5 -30q0 -19 -12.5 -31.5t-30.5 -12.5zM252 -9q-83 0 -153 66t-70 174
q0 109 70.5 177t152.5 68q83 0 153.5 -68t70.5 -177t-70.5 -174.5t-153.5 -65.5zM252 -1q64 0 104 55.5t40 176.5t-40.5 179t-103.5 58q-62 0 -102.5 -58t-40.5 -179t40 -176.5t103 -55.5z" />
    <glyph glyph-name="divide" unicode="&#xf7;" horiz-adv-x="470" 
d="M191 494q0 19 13 32t32 13q18 0 31.5 -13t13.5 -32q0 -18 -13.5 -31t-31.5 -13q-19 0 -32 13t-13 31zM45 345v12h381v-12h-381zM191 205q0 18 13 31t32 13q18 0 31.5 -13t13.5 -31q0 -19 -13.5 -32t-31.5 -13q-19 0 -32 13t-13 32z" />
    <glyph glyph-name="oslash" unicode="&#xf8;" horiz-adv-x="505" 
d="M252 -1q64 0 104 55.5t40 176.5q0 120 -43 183l13 26q-2 1 -8 5l35 66l8 -5l-35 -66q49 -32 79.5 -86t30.5 -123q0 -109 -70.5 -174.5t-153.5 -65.5q-54 0 -104 29l11 21q-1 1 -3.5 4.5t-3.5 4.5l195 372q-37 46 -95 46q-62 0 -102.5 -58t-40.5 -179t43 -181l-12 -25
q1 -1 4 -2.5t4 -2.5l-39 -74l-8 5l39 74q-50 31 -80.5 83.5t-30.5 122.5q0 109 70.5 177t152.5 68q53 0 106 -31l-11 -23q2 -2 6 -8l-194 -373q35 -42 93 -42z" />
    <glyph glyph-name="ugrave" unicode="&#xf9;" horiz-adv-x="500" 
d="M309 534l-133 110q-23 19 -23 37q0 12 8 20t20 8q20 0 40 -29l93 -141zM181 -8q-118 0 -118 121v157q0 98 -5 115.5t-36 20.5v8l116 62v-391q0 -41 16.5 -58.5t48.5 -17.5q54 0 129 67l27 25v169q0 98 -5 115.5t-36 20.5v8l117 62v-323q0 -94 7 -116t43 -30v-7h-126v89
l-27 -25q-80 -72 -151 -72z" />
    <glyph glyph-name="uacute" unicode="&#xfa;" horiz-adv-x="500" 
d="M214 534l-5 5l93 141q20 29 40 29q12 0 20 -8t8 -20q0 -18 -23 -37zM181 -8q-118 0 -118 121v157q0 98 -5 115.5t-36 20.5v8l116 62v-391q0 -41 16.5 -58.5t48.5 -17.5q54 0 129 67l27 25v169q0 98 -5 115.5t-36 20.5v8l117 62v-323q0 -94 7 -116t43 -30v-7h-126v89
l-27 -25q-80 -72 -151 -72z" />
    <glyph glyph-name="ucircumflex" unicode="&#xfb;" horiz-adv-x="500" 
d="M140 537l112 175l112 -175l-7 -4l-105 100l-105 -100zM181 -8q-118 0 -118 121v157q0 98 -5 115.5t-36 20.5v8l116 62v-391q0 -41 16.5 -58.5t48.5 -17.5q54 0 129 67l27 25v169q0 98 -5 115.5t-36 20.5v8l117 62v-323q0 -94 7 -116t43 -30v-7h-126v89l-27 -25
q-80 -72 -151 -72z" />
    <glyph glyph-name="udieresis" unicode="&#xfc;" horiz-adv-x="500" 
d="M332 560q-18 0 -30.5 12.5t-12.5 31.5q0 18 12.5 30t30.5 12t30.5 -12t12.5 -30q0 -19 -12.5 -31.5t-30.5 -12.5zM172 560q-18 0 -30.5 12.5t-12.5 31.5q0 18 12.5 30t30.5 12t30.5 -12t12.5 -30q0 -19 -12.5 -31.5t-30.5 -12.5zM181 -8q-118 0 -118 121v157
q0 98 -5 115.5t-36 20.5v8l116 62v-391q0 -41 16.5 -58.5t48.5 -17.5q54 0 129 67l27 25v169q0 98 -5 115.5t-36 20.5v8l117 62v-323q0 -94 7 -116t43 -30v-7h-126v89l-27 -25q-80 -72 -151 -72z" />
    <glyph glyph-name="yacute" unicode="&#xfd;" horiz-adv-x="430" 
d="M204 534l-5 5l93 141q20 29 40 29q12 0 20 -8t8 -20q0 -18 -23 -37zM96 -171q-39 0 -39 30t34 30q11 0 25 -6t20 -6q12 0 25.5 19t33.5 69l13 33l-143 359q-24 61 -37 79t-32 24v6h147v-6q-23 -4 -25 -20.5t21 -79.5l105 -272l100 248q21 51 22.5 78t-8 34.5t-32.5 11.5
v6h108v-6q-21 -5 -34 -25t-45 -99l-149 -371q-30 -75 -55 -105.5t-55 -30.5z" />
    <glyph glyph-name="thorn" unicode="&#xfe;" horiz-adv-x="518" 
d="M18 -166v7q29 8 34.5 30.5t5.5 115.5v601q0 91 -5 106t-37 16h-3v7l120 58v-406l25 28q70 77 140 77q78 0 133.5 -60t55.5 -171q0 -117 -63.5 -183.5t-159.5 -66.5q-72 0 -131 48v-54q0 -93 6.5 -115.5t40.5 -30.5v-7h-162zM158 385l-25 -28v-305q65 -49 131 -49
q143 0 143 225q0 70 -10.5 118.5t-30 71.5t-39 32t-44.5 9q-57 0 -125 -74z" />
    <glyph glyph-name="ydieresis" unicode="&#xff;" horiz-adv-x="430" 
d="M322 560q-18 0 -30.5 12.5t-12.5 31.5q0 18 12.5 30t30.5 12t30.5 -12t12.5 -30q0 -19 -12.5 -31.5t-30.5 -12.5zM162 560q-18 0 -30.5 12.5t-12.5 31.5q0 18 12.5 30t30.5 12t30.5 -12t12.5 -30q0 -19 -12.5 -31.5t-30.5 -12.5zM96 -171q-39 0 -39 30t34 30q11 0 25 -6
t20 -6q12 0 25.5 19t33.5 69l13 33l-143 359q-24 61 -37 79t-32 24v6h147v-6q-23 -4 -25 -20.5t21 -79.5l105 -272l100 248q21 51 22.5 78t-8 34.5t-32.5 11.5v6h108v-6q-21 -5 -34 -25t-45 -99l-149 -371q-30 -75 -55 -105.5t-55 -30.5z" />
    <glyph glyph-name="Amacron" unicode="&#x100;" horiz-adv-x="665" 
d="M411 831v-35h-206v35h206zM8 0v6q23 10 39 32.5t40 89.5l199 553q-13 34 -24.5 46t-31.5 17v6h107q7 0 9.5 -2.5t6.5 -11.5l230 -609q2 -6 7.5 -21t7.5 -19.5t6.5 -16t6.5 -15.5t6.5 -12t8 -11.5t8.5 -9t10.5 -9t12.5 -6.5v-7h-151v7q22 5 24 22.5t-12 51.5l-58 151h-326
l-37 -104q-18 -38 -17 -73.5t36 -48.5v-6h-108zM137 240h320l-165 428z" />
    <glyph glyph-name="amacron" unicode="&#x101;" horiz-adv-x="421" 
d="M108 610h195v-34h-195v34zM136 -5q-49 0 -80.5 25.5t-31.5 71.5q0 24 6.5 41t24 29.5t31 19t44 18.5t46.5 19l37 16q70 30 70 82v66q0 82 -85 82q-31 0 -45 -8.5t-25 -25.5q-24 -39 -49 -39q-13 0 -21 8.5t-8 19.5q0 24 44.5 39t102.5 15q72 0 117 -23.5t45 -87.5v-222
q0 -85 7 -108.5t30 -23.5q19 0 34 10l3 -5q-23 -20 -63 -20q-87 0 -87 76l-15 -15q-60 -60 -132 -60zM101 105q0 -92 67 -92q45 0 100 52l15 15v202q-15 -32 -69 -56l-37 -16q-76 -32 -76 -105z" />
    <glyph glyph-name="Abreve" unicode="&#x102;" horiz-adv-x="665" 
d="M309 827q71 0 91 54h9q-5 -37 -29 -67.5t-71 -30.5q-48 0 -72 30.5t-29 68.5h9q17 -55 92 -55zM8 0v6q23 10 39 32.5t40 89.5l199 553q-13 34 -24.5 46t-31.5 17v6h107q7 0 9.5 -2.5t6.5 -11.5l230 -609q2 -6 7.5 -21t7.5 -19.5t6.5 -16t6.5 -15.5t6.5 -12t8 -11.5
t8.5 -9t10.5 -9t12.5 -6.5v-7h-151v7q22 5 24 22.5t-12 51.5l-58 151h-326l-37 -104q-18 -38 -17 -73.5t36 -48.5v-6h-108zM137 240h320l-165 428z" />
    <glyph glyph-name="abreve" unicode="&#x103;" horiz-adv-x="421" 
d="M206 585q69 0 86 74h9q-2 -49 -26.5 -83.5t-68.5 -34.5q-46 0 -70 34t-26 85h9q14 -75 87 -75zM136 -5q-49 0 -80.5 25.5t-31.5 71.5q0 24 6.5 41t24 29.5t31 19t44 18.5t46.5 19l37 16q70 30 70 82v66q0 82 -85 82q-31 0 -45 -8.5t-25 -25.5q-24 -39 -49 -39
q-13 0 -21 8.5t-8 19.5q0 24 44.5 39t102.5 15q72 0 117 -23.5t45 -87.5v-222q0 -85 7 -108.5t30 -23.5q19 0 34 10l3 -5q-23 -20 -63 -20q-87 0 -87 76l-15 -15q-60 -60 -132 -60zM101 105q0 -92 67 -92q45 0 100 52l15 15v202q-15 -32 -69 -56l-37 -16q-76 -32 -76 -105z
" />
    <glyph glyph-name="Aogonek" unicode="&#x104;" horiz-adv-x="665" 
d="M8 0v6q23 10 39 32.5t40 89.5l199 553q-13 34 -24.5 46t-31.5 17v6h107q7 0 9.5 -2.5t6.5 -11.5l230 -609q2 -6 7.5 -21t7.5 -19.5t6.5 -16t6.5 -15.5t6.5 -12t8 -11.5t8.5 -9t10.5 -9t12.5 -6.5v-7h-84q-37 0 -63.5 -28t-26.5 -64q0 -20 11.5 -33t32.5 -13q26 0 42 16
l5 -5q-8 -14 -28.5 -28.5t-51.5 -14.5q-33 0 -52 17.5t-19 46.5q0 65 124 111l-87 227h-325l-38 -104q-18 -38 -17 -73.5t36 -48.5v-6h-108zM138 241h318l-164 426z" />
    <glyph glyph-name="aogonek" unicode="&#x105;" horiz-adv-x="421" 
d="M136 -5q-49 0 -80.5 25.5t-31.5 71.5q0 24 6.5 41t24 29.5t31 19t44 18.5t46.5 19l37 16q70 30 70 82v66q0 82 -85 82q-31 0 -45 -8.5t-25 -25.5q-24 -39 -49 -39q-13 0 -21 8.5t-8 19.5q0 24 44.5 39t102.5 15q72 0 117 -23.5t45 -87.5v-222q0 -85 7 -108.5t30 -23.5
q19 0 34 10l3 -5q-7 -7 -24 -14q-33 -11 -53.5 -35t-20.5 -57q0 -20 11.5 -33t32.5 -13q26 0 42 16l6 -5q-29 -43 -80 -43q-33 0 -52 17t-19 47q0 35 31.5 60.5t72.5 40.5q-3 -1 -13 -1q-84 0 -84 76l-15 -15q-60 -60 -132 -60zM101 105q0 -92 67 -92q45 0 100 52l15 15v202
q-15 -32 -69 -56l-37 -16q-76 -32 -76 -105z" />
    <glyph glyph-name="Cacute" unicode="&#x106;" horiz-adv-x="637" 
d="M279 778l-3 6l149 90q22 12 36 12q11 0 18.5 -7.5t7.5 -17.5q0 -27 -40 -38zM370 -7q-149 0 -241 105t-92 278q0 94 30 169.5t79 120.5t107.5 68.5t120.5 23.5q66 0 118 -21t65 -21q22 0 30 28h10v-153h-10q-19 82 -75.5 120t-137.5 38q-113 0 -181.5 -88.5t-68.5 -269.5
q0 -101 21.5 -177.5t59 -119.5t82 -64t96.5 -21q137 0 217 100l7 -6q-83 -110 -237 -110z" />
    <glyph glyph-name="cacute" unicode="&#x107;" horiz-adv-x="424" 
d="M219 534l-5 5l93 141q20 29 40 29q12 0 20 -8t8 -20q0 -18 -23 -37zM258 -7q-96 0 -164 66.5t-68 176.5q0 104 73 171.5t161 67.5q54 0 98.5 -16.5t44.5 -45.5q0 -14 -9 -24.5t-26 -10.5q-6 0 -10.5 1.5l-7.5 2.5t-6.5 5t-5 6.5t-4 8.5t-3.5 8.5t-4 11t-4 11.5
q-11 33 -62 33q-69 0 -113 -54t-44 -171q0 -235 170 -235q81 0 130 59l6 -6q-52 -66 -152 -66z" />
    <glyph glyph-name="Ccircumflex" unicode="&#x108;" horiz-adv-x="637" 
d="M241 782l126 106l126 -106l-4 -5l-122 50l-122 -50zM370 -7q-149 0 -241 105t-92 278q0 94 30 169.5t79 120.5t107.5 68.5t120.5 23.5q66 0 118 -21t65 -21q22 0 30 28h10v-153h-10q-19 82 -75.5 120t-137.5 38q-113 0 -181.5 -88.5t-68.5 -269.5q0 -101 21.5 -177.5
t59 -119.5t82 -64t96.5 -21q137 0 217 100l7 -6q-83 -110 -237 -110z" />
    <glyph glyph-name="ccircumflex" unicode="&#x109;" horiz-adv-x="424" 
d="M145 537l112 175l112 -175l-7 -4l-105 100l-105 -100zM258 -7q-96 0 -164 66.5t-68 176.5q0 104 73 171.5t161 67.5q54 0 98.5 -16.5t44.5 -45.5q0 -14 -9 -24.5t-26 -10.5q-6 0 -10.5 1.5l-7.5 2.5t-6.5 5t-5 6.5t-4 8.5t-3.5 8.5t-4 11t-4 11.5q-11 33 -62 33
q-69 0 -113 -54t-44 -171q0 -235 170 -235q81 0 130 59l6 -6q-52 -66 -152 -66z" />
    <glyph glyph-name="Cdotaccent" unicode="&#x10a;" horiz-adv-x="637" 
d="M367 783q-19 0 -32 13.5t-13 32.5t13 31.5t32 12.5t32 -12.5t13 -31.5t-13 -32.5t-32 -13.5zM370 -7q-149 0 -241 105t-92 278q0 94 30 169.5t79 120.5t107.5 68.5t120.5 23.5q66 0 118 -21t65 -21q22 0 30 28h10v-153h-10q-19 82 -75.5 120t-137.5 38
q-113 0 -181.5 -88.5t-68.5 -269.5q0 -101 21.5 -177.5t59 -119.5t82 -64t96.5 -21q137 0 217 100l7 -6q-83 -110 -237 -110z" />
    <glyph glyph-name="cdotaccent" unicode="&#x10b;" horiz-adv-x="424" 
d="M257 559q-19 0 -32 13t-13 32t13 32t32 13t32 -13t13 -32t-13 -32t-32 -13zM258 -7q-96 0 -164 66.5t-68 176.5q0 104 73 171.5t161 67.5q54 0 98.5 -16.5t44.5 -45.5q0 -14 -9 -24.5t-26 -10.5q-6 0 -10.5 1.5l-7.5 2.5t-6.5 5t-5 6.5t-4 8.5t-3.5 8.5t-4 11t-4 11.5
q-11 33 -62 33q-69 0 -113 -54t-44 -171q0 -235 170 -235q81 0 130 59l6 -6q-52 -66 -152 -66z" />
    <glyph glyph-name="Ccaron" unicode="&#x10c;" horiz-adv-x="637" 
d="M241 885l4 5l122 -50l122 50l4 -5l-126 -106zM370 -7q-149 0 -241 105t-92 278q0 94 30 169.5t79 120.5t107.5 68.5t120.5 23.5q66 0 118 -21t65 -21q22 0 30 28h10v-153h-10q-19 82 -75.5 120t-137.5 38q-113 0 -181.5 -88.5t-68.5 -269.5q0 -101 21.5 -177.5t59 -119.5
t82 -64t96.5 -21q137 0 217 100l7 -6q-83 -110 -237 -110z" />
    <glyph glyph-name="ccaron" unicode="&#x10d;" horiz-adv-x="424" 
d="M145 714l7 4l105 -100l105 100l7 -4l-112 -175zM258 -7q-96 0 -164 66.5t-68 176.5q0 104 73 171.5t161 67.5q54 0 98.5 -16.5t44.5 -45.5q0 -14 -9 -24.5t-26 -10.5q-6 0 -10.5 1.5l-7.5 2.5t-6.5 5t-5 6.5t-4 8.5t-3.5 8.5t-4 11t-4 11.5q-11 33 -62 33q-69 0 -113 -54
t-44 -171q0 -235 170 -235q81 0 130 59l6 -6q-52 -66 -152 -66z" />
    <glyph glyph-name="Dcaron" unicode="&#x10e;" horiz-adv-x="672" 
d="M148 885l4 5l122 -50l122 50l4 -5l-126 -106zM17 0v7q37 11 44.5 46.5t7.5 198.5v246q0 163 -7.5 198.5t-44.5 46.5v7h166q223 0 338.5 -91.5t115.5 -273.5t-112 -283.5t-342 -101.5h-166zM183 741h-33v-733h33q189 0 277 87.5t88 290.5q0 104 -25.5 175.5t-76 110
t-113.5 54t-150 15.5z" />
    <glyph glyph-name="dcaron" unicode="&#x10f;" horiz-adv-x="525" 
d="M231 -7q-80 0 -139.5 60.5t-59.5 170.5q0 117 64.5 183.5t160.5 66.5q65 0 128 -54v168q0 89 -6 105t-41 17v7l122 58v-622q0 -93 7 -115.5t43 -30.5v-7h-125v86l-12 -14q-65 -79 -142 -79zM501 583l-6 2l11 129q5 49 32 49q12 0 19 -7.5t7 -18.5q0 -13 -9 -34zM112 239
q0 -70 12.5 -118.5t34 -71.5t42 -32t44.5 -9q64 0 128 76l12 14v311q-67 56 -128 56q-63 0 -104 -52t-41 -174z" />
    <glyph glyph-name="Dcroat" unicode="&#x110;" horiz-adv-x="673" 
d="M19 0v7q37 11 44.5 46.5t7.5 198.5v136h-74v8h74v102q0 163 -7.5 198.5t-44.5 46.5v7h166q223 0 338.5 -91.5t115.5 -273.5t-112 -283.5t-342 -101.5h-166zM305 388h-153v-380h33q189 0 277 87.5t88 290.5q0 104 -25.5 175.5t-76 110t-113.5 54t-150 15.5h-33v-345h153
v-8z" />
    <glyph glyph-name="dcroat" unicode="&#x111;" horiz-adv-x="525" 
d="M231 -7q-80 0 -139.5 60.5t-59.5 170.5q0 117 64.5 183.5t160.5 66.5q65 0 128 -54v149h-141v9h141v10q0 89 -6 105t-41 17v7l122 58v-197h74v-9h-74v-416q0 -93 7 -115.5t43 -30.5v-7h-125v86l-12 -14q-65 -79 -142 -79zM112 239q0 -70 12.5 -118.5t34 -71.5t42 -32
t44.5 -9q64 0 128 76l12 14v311q-67 56 -128 56q-63 0 -104 -52t-41 -174z" />
    <glyph glyph-name="Emacron" unicode="&#x112;" horiz-adv-x="552" 
d="M392 831v-35h-206v35h206zM17 0v7q37 11 44.5 46.5t7.5 198.5v246q0 163 -7.5 198.5t-44.5 46.5v7h465q6 0 8.5 -1t5.5 -5.5t4 -14.5l16 -91h-10q-18 60 -52.5 81.5t-97.5 21.5h-206v-322h93q29 0 47.5 5.5t27.5 20t11 21t6 27.5h9v-157h-9q-8 41 -21 53q-22 21 -71 21
h-93v-401h225q70 0 103 21.5t51 93.5h10l-11 -106q-1 -12 -5 -15t-14 -3h-492z" />
    <glyph glyph-name="emacron" unicode="&#x113;" horiz-adv-x="443" 
d="M149 610h195v-34h-195v34zM267 -8q-96 0 -167 64t-71 181q0 109 68.5 174t147.5 65q66 0 114.5 -37.5t62.5 -114.5h-307q-7 -42 -7 -84q0 -125 48.5 -180t126.5 -55q72 0 129 45l6 -7q-64 -51 -151 -51zM245 467q-41 0 -76.5 -31.5t-51.5 -101.5h237q-8 133 -109 133z
" />
    <glyph glyph-name="Ebreve" unicode="&#x114;" horiz-adv-x="552" 
d="M290 827q71 0 91 54h9q-5 -37 -29 -67.5t-71 -30.5q-48 0 -72 30.5t-29 68.5h9q17 -55 92 -55zM17 0v7q37 11 44.5 46.5t7.5 198.5v246q0 163 -7.5 198.5t-44.5 46.5v7h465q6 0 8.5 -1t5.5 -5.5t4 -14.5l16 -91h-10q-18 60 -52.5 81.5t-97.5 21.5h-206v-322h93
q29 0 47.5 5.5t27.5 20t11 21t6 27.5h9v-157h-9q-8 41 -21 53q-22 21 -71 21h-93v-401h225q70 0 103 21.5t51 93.5h10l-11 -106q-1 -12 -5 -15t-14 -3h-492z" />
    <glyph glyph-name="ebreve" unicode="&#x115;" horiz-adv-x="443" 
d="M247 585q69 0 86 74h9q-2 -49 -26.5 -83.5t-68.5 -34.5q-46 0 -70 34t-26 85h9q14 -75 87 -75zM267 -8q-96 0 -167 64t-71 181q0 109 68.5 174t147.5 65q66 0 114.5 -37.5t62.5 -114.5h-307q-7 -42 -7 -84q0 -125 48.5 -180t126.5 -55q72 0 129 45l6 -7q-64 -51 -151 -51
zM245 467q-41 0 -76.5 -31.5t-51.5 -101.5h237q-8 133 -109 133z" />
    <glyph glyph-name="Edotaccent" unicode="&#x116;" horiz-adv-x="552" 
d="M290 783q-19 0 -32 13.5t-13 32.5t13 31.5t32 12.5t32 -12.5t13 -31.5t-13 -32.5t-32 -13.5zM17 0v7q37 11 44.5 46.5t7.5 198.5v246q0 163 -7.5 198.5t-44.5 46.5v7h465q6 0 8.5 -1t5.5 -5.5t4 -14.5l16 -91h-10q-18 60 -52.5 81.5t-97.5 21.5h-206v-322h93
q29 0 47.5 5.5t27.5 20t11 21t6 27.5h9v-157h-9q-8 41 -21 53q-22 21 -71 21h-93v-401h225q70 0 103 21.5t51 93.5h10l-11 -106q-1 -12 -5 -15t-14 -3h-492z" />
    <glyph glyph-name="edotaccent" unicode="&#x117;" horiz-adv-x="443" 
d="M246 559q-19 0 -32 13t-13 32t13 32t32 13t32 -13t13 -32t-13 -32t-32 -13zM267 -8q-96 0 -167 64t-71 181q0 109 68.5 174t147.5 65q66 0 114.5 -37.5t62.5 -114.5h-307q-7 -42 -7 -84q0 -125 48.5 -180t126.5 -55q72 0 129 45l6 -7q-64 -51 -151 -51zM245 467
q-41 0 -76.5 -31.5t-51.5 -101.5h237q-8 133 -109 133z" />
    <glyph glyph-name="Eogonek" unicode="&#x118;" horiz-adv-x="552" 
d="M17 0v7q37 11 44.5 46.5t7.5 198.5v246q0 163 -7.5 198.5t-44.5 46.5v7h465q6 0 8.5 -1t5.5 -5.5t4 -14.5l16 -91h-10q-18 60 -52.5 81.5t-97.5 21.5h-206v-322h93q29 0 47.5 5.5t27.5 20t11 21t6 27.5h9v-157h-9q-8 41 -21 53q-22 21 -71 21h-93v-401h225q70 0 103 21.5
t51 93.5h10l-11 -106q-1 -12 -5 -15t-14 -3h-59q-29 -12 -48.5 -36t-19.5 -56q0 -20 12 -33t33 -13q24 0 42 16l5 -5q-8 -14 -29 -28.5t-51 -14.5q-33 0 -52 17.5t-19 46.5q0 40 39 67.5t76 38.5h-421z" />
    <glyph glyph-name="eogonek" unicode="&#x119;" horiz-adv-x="443" 
d="M368 -127q-29 -43 -80 -43q-33 0 -52 17t-19 47q0 60 103 103q-20 -5 -53 -5q-96 0 -167 64t-71 181q0 109 68.5 174t147.5 65q66 0 114.5 -37.5t62.5 -114.5h-307q-7 -42 -7 -84q0 -125 48.5 -180t126.5 -55q72 0 129 45l6 -7q-22 -18 -57 -34q-85 -33 -85 -101
q0 -20 11.5 -33t32.5 -13q26 0 42 16zM245 467q-41 0 -76.5 -31.5t-51.5 -101.5h237q-8 133 -109 133z" />
    <glyph glyph-name="Ecaron" unicode="&#x11a;" horiz-adv-x="552" 
d="M163 885l4 5l122 -50l122 50l4 -5l-126 -106zM17 0v7q37 11 44.5 46.5t7.5 198.5v246q0 163 -7.5 198.5t-44.5 46.5v7h465q6 0 8.5 -1t5.5 -5.5t4 -14.5l16 -91h-10q-18 60 -52.5 81.5t-97.5 21.5h-206v-322h93q29 0 47.5 5.5t27.5 20t11 21t6 27.5h9v-157h-9
q-8 41 -21 53q-22 21 -71 21h-93v-401h225q70 0 103 21.5t51 93.5h10l-11 -106q-1 -12 -5 -15t-14 -3h-492z" />
    <glyph glyph-name="ecaron" unicode="&#x11b;" horiz-adv-x="443" 
d="M134 714l7 4l105 -100l105 100l7 -4l-112 -175zM267 -8q-96 0 -167 64t-71 181q0 109 68.5 174t147.5 65q66 0 114.5 -37.5t62.5 -114.5h-307q-7 -42 -7 -84q0 -125 48.5 -180t126.5 -55q72 0 129 45l6 -7q-64 -51 -151 -51zM245 467q-41 0 -76.5 -31.5t-51.5 -101.5h237
q-8 133 -109 133z" />
    <glyph glyph-name="Gcircumflex" unicode="&#x11c;" horiz-adv-x="682" 
d="M239 782l126 106l126 -106l-4 -5l-122 50l-122 -50zM363 -8q-148 0 -239.5 108t-91.5 281q0 94 29.5 168t78.5 118t107.5 67t120.5 23q50 0 86 -10.5t59 -20.5t40 -10q22 0 30 28h9v-153h-9q-19 81 -75.5 119t-139.5 38q-113 0 -181 -83t-68 -274q0 -201 66 -295.5
t178 -94.5q99 0 139.5 39.5t40.5 136.5v6q0 65 -3 89.5t-13 36t-36 17.5v7h182v-7q-24 -6 -33.5 -17t-14 -42t-4.5 -102v-46q-96 -127 -258 -127z" />
    <glyph glyph-name="gcircumflex" unicode="&#x11d;" horiz-adv-x="429" 
d="M110 537l112 175l112 -175l-7 -4l-105 100l-105 -100zM209 161q-47 0 -89 21l-14 -9q-31 -20 -31 -42q0 -23 45 -32l179 -27q119 -17 119 -104q0 -59 -59 -99.5t-154 -40.5q-47 0 -88 9.5t-70.5 33t-29.5 56.5q0 58 102 101q-36 7 -54 26.5t-18 46.5q0 43 50 75l16 10
q-79 44 -79 128q0 70 54.5 115.5t120.5 45.5q46 0 91 -24q51 41 97 41q29 0 29 -28q0 -12 -7 -18.5t-17 -6.5q-9 0 -28 9t-35 9q-15 0 -33 -10q78 -49 78 -133q0 -69 -53.5 -111t-121.5 -42zM209 170q46 0 74 34.5t28 109.5q0 76 -28.5 114t-73.5 38q-46 0 -73.5 -38
t-27.5 -114q0 -144 101 -144zM68 -63q0 -51 37.5 -75.5t99.5 -24.5q86 0 133.5 31t47.5 69q0 18 -7.5 30.5t-25 19.5t-28.5 9.5t-35 6.5l-157 23q-35 -18 -50 -37t-15 -52z" />
    <glyph glyph-name="Gbreve" unicode="&#x11e;" horiz-adv-x="682" 
d="M366 827q71 0 91 54h9q-5 -37 -29 -67.5t-71 -30.5q-48 0 -72 30.5t-29 68.5h9q17 -55 92 -55zM363 -8q-148 0 -239.5 108t-91.5 281q0 94 29.5 168t78.5 118t107.5 67t120.5 23q50 0 86 -10.5t59 -20.5t40 -10q22 0 30 28h9v-153h-9q-19 81 -75.5 119t-139.5 38
q-113 0 -181 -83t-68 -274q0 -201 66 -295.5t178 -94.5q99 0 139.5 39.5t40.5 136.5v6q0 65 -3 89.5t-13 36t-36 17.5v7h182v-7q-24 -6 -33.5 -17t-14 -42t-4.5 -102v-46q-96 -127 -258 -127z" />
    <glyph glyph-name="gbreve" unicode="&#x11f;" horiz-adv-x="429" 
d="M223 585q69 0 86 74h9q-2 -49 -26.5 -83.5t-68.5 -34.5q-46 0 -70 34t-26 85h9q14 -75 87 -75zM209 161q-47 0 -89 21l-14 -9q-31 -20 -31 -42q0 -23 45 -32l179 -27q119 -17 119 -104q0 -59 -59 -99.5t-154 -40.5q-47 0 -88 9.5t-70.5 33t-29.5 56.5q0 58 102 101
q-36 7 -54 26.5t-18 46.5q0 43 50 75l16 10q-79 44 -79 128q0 70 54.5 115.5t120.5 45.5q46 0 91 -24q51 41 97 41q29 0 29 -28q0 -12 -7 -18.5t-17 -6.5q-9 0 -28 9t-35 9q-15 0 -33 -10q78 -49 78 -133q0 -69 -53.5 -111t-121.5 -42zM209 170q46 0 74 34.5t28 109.5
q0 76 -28.5 114t-73.5 38q-46 0 -73.5 -38t-27.5 -114q0 -144 101 -144zM68 -63q0 -51 37.5 -75.5t99.5 -24.5q86 0 133.5 31t47.5 69q0 18 -7.5 30.5t-25 19.5t-28.5 9.5t-35 6.5l-157 23q-35 -18 -50 -37t-15 -52z" />
    <glyph glyph-name="Gdotaccent" unicode="&#x120;" horiz-adv-x="682" 
d="M365 783q-19 0 -32 13.5t-13 32.5t13 31.5t32 12.5t32 -12.5t13 -31.5t-13 -32.5t-32 -13.5zM363 -8q-148 0 -239.5 108t-91.5 281q0 94 29.5 168t78.5 118t107.5 67t120.5 23q50 0 86 -10.5t59 -20.5t40 -10q22 0 30 28h9v-153h-9q-19 81 -75.5 119t-139.5 38
q-113 0 -181 -83t-68 -274q0 -201 66 -295.5t178 -94.5q99 0 139.5 39.5t40.5 136.5v6q0 65 -3 89.5t-13 36t-36 17.5v7h182v-7q-24 -6 -33.5 -17t-14 -42t-4.5 -102v-46q-96 -127 -258 -127z" />
    <glyph glyph-name="gdotaccent" unicode="&#x121;" horiz-adv-x="429" 
d="M222 559q-19 0 -32 13t-13 32t13 32t32 13t32 -13t13 -32t-13 -32t-32 -13zM209 161q-47 0 -89 21l-14 -9q-31 -20 -31 -42q0 -23 45 -32l179 -27q119 -17 119 -104q0 -59 -59 -99.5t-154 -40.5q-47 0 -88 9.5t-70.5 33t-29.5 56.5q0 58 102 101q-36 7 -54 26.5t-18 46.5
q0 43 50 75l16 10q-79 44 -79 128q0 70 54.5 115.5t120.5 45.5q46 0 91 -24q51 41 97 41q29 0 29 -28q0 -12 -7 -18.5t-17 -6.5q-9 0 -28 9t-35 9q-15 0 -33 -10q78 -49 78 -133q0 -69 -53.5 -111t-121.5 -42zM209 170q46 0 74 34.5t28 109.5q0 76 -28.5 114t-73.5 38
q-46 0 -73.5 -38t-27.5 -114q0 -144 101 -144zM68 -63q0 -51 37.5 -75.5t99.5 -24.5q86 0 133.5 31t47.5 69q0 18 -7.5 30.5t-25 19.5t-28.5 9.5t-35 6.5l-157 23q-35 -18 -50 -37t-15 -52z" />
    <glyph glyph-name="Gcommaaccent" unicode="&#x122;" horiz-adv-x="682" 
d="M363 -8q-148 0 -239.5 108t-91.5 281q0 94 29.5 168t78.5 118t107.5 67t120.5 23q50 0 86 -10.5t59 -20.5t40 -10q22 0 30 28h9v-153h-9q-19 81 -75.5 119t-139.5 38q-113 0 -181 -83t-68 -274q0 -201 66 -295.5t178 -94.5q99 0 139.5 39.5t40.5 136.5v6q0 65 -3 89.5
t-13 36t-36 17.5v7h182v-7q-24 -6 -33.5 -17t-14 -42t-4.5 -102v-46q-96 -127 -258 -127zM375 -121q-12 -12 -29 -12q-16 0 -27 10.5t-11 27.5q0 19 12.5 30t30.5 11q21 0 35 -14.5t14 -40.5q0 -68 -72 -82l-4 7q56 12 56 49q0 9 -5 14z" />
    <glyph glyph-name="gcommaaccent" unicode="&#x123;" horiz-adv-x="429" 
d="M195 617q12 12 28 12t27 -10.5t11 -28.5q0 -19 -12 -30t-30 -11q-21 0 -35 15t-14 40q0 68 72 83l4 -8q-56 -12 -56 -49q0 -8 5 -13zM209 161q-47 0 -89 21l-14 -9q-31 -20 -31 -42q0 -23 45 -32l179 -27q119 -17 119 -104q0 -59 -59 -99.5t-154 -40.5q-47 0 -88 9.5
t-70.5 33t-29.5 56.5q0 58 102 101q-36 7 -54 26.5t-18 46.5q0 43 50 75l16 10q-79 44 -79 128q0 70 54.5 115.5t120.5 45.5q46 0 91 -24q51 41 97 41q29 0 29 -28q0 -12 -7 -18.5t-17 -6.5q-9 0 -28 9t-35 9q-15 0 -33 -10q78 -49 78 -133q0 -69 -53.5 -111t-121.5 -42z
M209 170q46 0 74 34.5t28 109.5q0 76 -28.5 114t-73.5 38q-46 0 -73.5 -38t-27.5 -114q0 -144 101 -144zM68 -63q0 -51 37.5 -75.5t99.5 -24.5q86 0 133.5 31t47.5 69q0 18 -7.5 30.5t-25 19.5t-28.5 9.5t-35 6.5l-157 23q-35 -18 -50 -37t-15 -52z" />
    <glyph glyph-name="Hcircumflex" unicode="&#x124;" horiz-adv-x="678" 
d="M213 782l126 106l126 -106l-4 -5l-122 50l-122 -50zM17 0v7q37 10 44.5 46t7.5 199v246q0 163 -7.5 199t-44.5 46v7h185v-7q-37 -10 -44.5 -46t-7.5 -199v-83h378v83q0 163 -7.5 199t-44.5 46v7h185v-7q-37 -10 -44.5 -46t-7.5 -199v-246q0 -163 7.5 -199t44.5 -46v-7
h-185v7q37 10 44.5 46t7.5 199v155h-378v-155q0 -163 7.5 -199t44.5 -46v-7h-185z" />
    <glyph glyph-name="hcircumflex" unicode="&#x125;" horiz-adv-x="504" 
d="M135 812l126 106l126 -106l-4 -5l-122 50l-122 -50zM25 0v7q29 8 34.5 30.5t5.5 115.5v435q0 88 -5 104.5t-36 17.5v7l116 59v-409l33 30q83 77 150 77q118 0 118 -121v-200q0 -94 5.5 -116t34.5 -30v-7h-160v7q32 8 38.5 30.5t6.5 115.5v216q0 88 -65 88q-49 0 -128 -72
l-33 -30v-202q0 -93 6.5 -115.5t37.5 -30.5v-7h-159z" />
    <glyph glyph-name="Hbar" unicode="&#x126;" horiz-adv-x="690" 
d="M23 0v7q37 10 44.5 46t7.5 199v246v71h-83v8h83q-1 73 -5.5 105t-14 43.5t-32.5 17.5v7h185v-7q-23 -6 -32.5 -17.5t-14 -43.5t-5.5 -105h378q-1 73 -5.5 105t-14 43.5t-32.5 17.5v7h185v-7q-23 -6 -32.5 -17.5t-14 -43.5t-5.5 -105h83v-8h-83v-71v-246q0 -163 7.5 -199
t44.5 -46v-7h-185v7q37 10 44.5 46t7.5 199v155h-378v-155q0 -163 7.5 -199t44.5 -46v-7h-185zM156 415h378v83v71h-378v-71v-83z" />
    <glyph glyph-name="hbar" unicode="&#x127;" horiz-adv-x="504" 
d="M25 0v7q29 8 34.5 30.5t5.5 115.5v416h-74v9h74v10q0 88 -5 104.5t-36 17.5v7l116 59v-198h141v-9h-141v-202l33 30q83 77 150 77q118 0 118 -121v-200q0 -94 5.5 -116t34.5 -30v-7h-160v7q32 8 38.5 30.5t6.5 115.5v216q0 88 -65 88q-49 0 -128 -72l-33 -30v-202
q0 -93 6.5 -115.5t37.5 -30.5v-7h-159z" />
    <glyph glyph-name="Itilde" unicode="&#x128;" horiz-adv-x="219" 
d="M71 864q12 0 54.5 -6.5t53.5 -6.5q24 0 51 46l7 -2q-13 -44 -31 -65.5t-36 -21.5q-14 0 -57 6t-53 6q-26 0 -58 -47l-6 2q15 44 35.5 66.5t39.5 22.5zM17 0v7q37 11 44.5 46.5t7.5 198.5v246q0 163 -7.5 199t-44.5 46v7h185v-7q-37 -10 -44.5 -46t-7.5 -199v-246
q0 -163 7.5 -198.5t44.5 -46.5v-7h-185z" />
    <glyph glyph-name="itilde" unicode="&#x129;" 
d="M69 635q13 0 52 -6t51 -6q24 0 48 47l7 -3q-10 -43 -28 -65t-35 -22q-15 0 -54.5 5.5t-50.5 5.5q-26 0 -55 -49l-6 3q13 43 33 66.5t38 23.5zM24 0v7q31 8 37 30.5t6 115.5v129q0 89 -5 105t-36 19v8l116 62v-323q0 -93 6.5 -115.5t38.5 -30.5v-7h-163z" />
    <glyph glyph-name="Imacron" unicode="&#x12a;" horiz-adv-x="219" 
d="M212 831v-35h-206v35h206zM17 0v7q37 11 44.5 46.5t7.5 198.5v246q0 163 -7.5 199t-44.5 46v7h185v-7q-37 -10 -44.5 -46t-7.5 -199v-246q0 -163 7.5 -198.5t44.5 -46.5v-7h-185z" />
    <glyph glyph-name="imacron" unicode="&#x12b;" 
d="M8 610h195v-34h-195v34zM24 0v7q31 8 37 30.5t6 115.5v129q0 89 -5 105t-36 19v8l116 62v-323q0 -93 6.5 -115.5t38.5 -30.5v-7h-163z" />
    <glyph glyph-name="Ibreve" unicode="&#x12c;" horiz-adv-x="219" 
d="M110 827q71 0 91 54h9q-5 -37 -29 -67.5t-71 -30.5q-48 0 -72 30.5t-29 68.5h9q17 -55 92 -55zM17 0v7q37 11 44.5 46.5t7.5 198.5v246q0 163 -7.5 199t-44.5 46v7h185v-7q-37 -10 -44.5 -46t-7.5 -199v-246q0 -163 7.5 -198.5t44.5 -46.5v-7h-185z" />
    <glyph glyph-name="ibreve" unicode="&#x12d;" 
d="M106 585q69 0 86 74h9q-2 -49 -26.5 -83.5t-68.5 -34.5q-46 0 -70 34t-26 85h9q14 -75 87 -75zM24 0v7q31 8 37 30.5t6 115.5v129q0 89 -5 105t-36 19v8l116 62v-323q0 -93 6.5 -115.5t38.5 -30.5v-7h-163z" />
    <glyph glyph-name="Iogonek" unicode="&#x12e;" horiz-adv-x="219" 
d="M17 0v7q37 11 44.5 46.5t7.5 198.5v246q0 163 -7.5 199t-44.5 46v7h185v-7q-37 -10 -44.5 -46t-7.5 -199v-246q0 -163 7.5 -198.5t44.5 -46.5v-7h-40q-29 -12 -48.5 -36t-19.5 -56q0 -20 12 -33t33 -13q24 0 42 16l5 -5q-8 -14 -29 -28.5t-51 -14.5q-33 0 -52 17.5
t-19 46.5q0 40 39 67.5t76 38.5h-133z" />
    <glyph glyph-name="iogonek" unicode="&#x12f;" 
d="M103 559q-19 0 -32 13t-13 32t13 32t32 13t32 -13t13 -32t-13 -32t-32 -13zM24 0v7q31 8 37 30.5t6 115.5v129q0 89 -5 105t-36 19v8l116 62v-323q0 -93 6.5 -115.5t38.5 -30.5v-7h-31q-29 -12 -48.5 -36t-19.5 -56q0 -20 12 -33t33 -13q24 0 42 16l5 -5
q-8 -14 -29 -28.5t-51 -14.5q-33 0 -52 17.5t-19 46.5q0 40 39 67.5t76 38.5h-120z" />
    <glyph glyph-name="Idotaccent" unicode="&#x130;" horiz-adv-x="219" 
d="M109 783q-19 0 -32 13.5t-13 32.5t13 31.5t32 12.5t32 -12.5t13 -31.5t-13 -32.5t-32 -13.5zM17 0v7q37 11 44.5 46.5t7.5 198.5v246q0 163 -7.5 199t-44.5 46v7h185v-7q-37 -10 -44.5 -46t-7.5 -199v-246q0 -163 7.5 -198.5t44.5 -46.5v-7h-185z" />
    <glyph glyph-name="dotlessi" unicode="&#x131;" 
d="M24 0v7q31 8 37 30.5t6 115.5v129q0 89 -5 105t-36 19v8l116 62v-323q0 -93 6.5 -115.5t38.5 -30.5v-7h-163z" />
    <glyph glyph-name="IJ" unicode="&#x132;" horiz-adv-x="582" 
d="M17 0v7q37 11 44.5 46.5t7.5 198.5v246q0 163 -7.5 199t-44.5 46v7h185v-7q-37 -10 -44.5 -46t-7.5 -199v-246q0 -163 7.5 -198.5t44.5 -46.5v-7h-185zM366 -9q-66 0 -106.5 23.5t-40.5 58.5t37 35q19 0 28.5 -9t16.5 -34q5 -19 8.5 -28.5t10.5 -19.5t17.5 -13.5
t27.5 -3.5q31 0 49.5 18t18.5 52v428q0 163 -7.5 199t-44.5 46v7h185v-7q-37 -10 -44.5 -46t-7.5 -199v-364q0 -60 -42.5 -101.5t-105.5 -41.5z" />
    <glyph glyph-name="ij" unicode="&#x133;" horiz-adv-x="414" 
d="M103 559q-19 0 -32 13t-13 32t13 32t32 13t32 -13t13 -32t-13 -32t-32 -13zM309 559q-19 0 -31.5 13t-12.5 32t12.5 32t31.5 13t32 -13t13 -32t-13 -32t-32 -13zM24 0v7q31 8 37 30.5t6 115.5v129q0 89 -5 105t-36 19v8l116 62v-323q0 -93 6.5 -115.5t38.5 -30.5v-7h-163
zM183 -139q-16 0 -27.5 8t-11.5 23q0 14 9 21.5t22 7.5q17 0 34.5 -15.5t26.5 -15.5t14 4q23 17 23 132v255q0 89 -5 105.5t-36 19.5v8l116 62v-427q0 -95 -92 -161q-39 -27 -73 -27z" />
    <glyph glyph-name="Jcircumflex" unicode="&#x134;" horiz-adv-x="364" 
d="M128 782l126 106l126 -106l-4 -5l-122 50l-122 -50zM147 -9q-66 0 -106.5 23.5t-40.5 58.5t37 35q19 0 28.5 -9t16.5 -34q5 -19 8.5 -28.5t10.5 -19.5t17.5 -13.5t27.5 -3.5q31 0 49.5 18t18.5 52v428q0 163 -7.5 199t-44.5 46v7h185v-7q-37 -10 -44.5 -46t-7.5 -199
v-364q0 -60 -42.5 -101.5t-105.5 -41.5z" />
    <glyph glyph-name="jcircumflex" unicode="&#x135;" horiz-adv-x="206" 
d="M-7 537l112 175l112 -175l-7 -4l-105 100l-105 -100zM-25 -139q-16 0 -27.5 8t-11.5 23q0 14 9 21.5t22 7.5q17 0 34.5 -15.5t26.5 -15.5t14 4q23 17 23 132v255q0 89 -5 105.5t-36 19.5v8l116 62v-427q0 -95 -92 -161q-39 -27 -73 -27z" />
    <glyph glyph-name="Kcommaaccent" unicode="&#x136;" horiz-adv-x="605" 
d="M425 0v6q18 5 21.5 16t-3.5 25t-24 36l-266 339l276 234q70 60 53 77q-9 8 -31 11v6h118v-6q-24 -7 -46 -22.5t-62 -49.5l-245 -208l302 -386q47 -60 78 -72v-6h-171zM17 0v7q37 10 44.5 46t7.5 199v246q0 163 -7.5 199t-44.5 46v7h185v-7q-37 -10 -44.5 -46t-7.5 -199
v-246q0 -163 7.5 -199t44.5 -46v-7h-185zM315 -121q-12 -12 -29 -12q-16 0 -27 10.5t-11 27.5q0 19 12.5 30t30.5 11q21 0 35 -14.5t14 -40.5q0 -68 -72 -82l-4 7q56 12 56 49q0 9 -5 14z" />
    <glyph glyph-name="kcommaaccent" unicode="&#x137;" horiz-adv-x="449" 
d="M25 0v7q29 8 34.5 30.5t5.5 115.5v423q0 98 -5.5 115.5t-39.5 18.5v8l120 58v-623q0 -93 6.5 -115.5t37.5 -30.5v-7h-159zM295 0v8q16 2 20 13.5t-14 37.5l-156 183v8l182 152q27 25 23 40t-31 18v6h116v-6q-41 -13 -102 -64l-133 -111l198 -234q32 -38 53 -43v-8h-156z
M251 -121q-12 -12 -29 -12q-16 0 -27 10.5t-11 27.5q0 19 12.5 30t30.5 11q21 0 35 -14.5t14 -40.5q0 -68 -72 -82l-4 7q56 12 56 49q0 9 -5 14z" />
    <glyph glyph-name="Lacute" unicode="&#x139;" horiz-adv-x="515" 
d="M20 778l-3 6l149 90q22 12 36 12q11 0 18.5 -7.5t7.5 -17.5q0 -27 -40 -38zM17 0v7q37 10 44.5 46t7.5 199v246q0 163 -7.5 199t-44.5 46v7h187v-7q-38 -10 -46 -46t-8 -199v-489h194q71 0 105.5 23t54.5 103h10l-17 -117q-2 -12 -5.5 -15t-13.5 -3h-461z" />
    <glyph glyph-name="lacute" unicode="&#x13a;" 
d="M16 778l-3 6l149 90q22 12 36 12q11 0 18.5 -7.5t7.5 -17.5q0 -27 -40 -38zM24 0v7q31 8 37 30.5t6 115.5v423q0 98 -6 115.5t-40 18.5v7l121 58v-622q0 -93 6.5 -115.5t38.5 -30.5v-7h-163z" />
    <glyph glyph-name="Lcommaaccent" unicode="&#x13b;" horiz-adv-x="515" 
d="M17 0v7q37 10 44.5 46t7.5 199v246q0 163 -7.5 199t-44.5 46v7h187v-7q-38 -10 -46 -46t-8 -199v-489h194q71 0 105.5 23t54.5 103h10l-17 -117q-2 -12 -5.5 -15t-13.5 -3h-461zM294 -121q-12 -12 -29 -12q-16 0 -27 10.5t-11 27.5q0 19 12.5 30t30.5 11q21 0 35 -14.5
t14 -40.5q0 -68 -72 -82l-4 7q56 12 56 49q0 9 -5 14z" />
    <glyph glyph-name="lcommaaccent" unicode="&#x13c;" 
d="M24 0v7q31 8 37 30.5t6 115.5v423q0 98 -6 115.5t-40 18.5v7l121 58v-622q0 -93 6.5 -115.5t38.5 -30.5v-7h-163zM123 -121q-12 -12 -29 -12q-16 0 -27 10.5t-11 27.5q0 19 12.5 30t30.5 11q21 0 35 -14.5t14 -40.5q0 -68 -72 -82l-4 7q56 12 56 49q0 9 -5 14z" />
    <glyph glyph-name="Lcaron" unicode="&#x13d;" horiz-adv-x="515" 
d="M234 582l-6 2l11 129q5 49 32 49q12 0 19 -7.5t7 -18.5q0 -13 -9 -34zM17 0v7q37 10 44.5 46t7.5 199v246q0 163 -7.5 199t-44.5 46v7h187v-7q-38 -10 -46 -46t-8 -199v-489h194q71 0 105.5 23t54.5 103h10l-17 -117q-2 -12 -5.5 -15t-13.5 -3h-461z" />
    <glyph glyph-name="lcaron" unicode="&#x13e;" 
d="M24 0v7q31 8 37 30.5t6 115.5v423q0 98 -6 115.5t-40 18.5v7l121 58v-622q0 -93 6.5 -115.5t38.5 -30.5v-7h-163zM202 583l-6 2l11 129q5 49 32 49q12 0 19 -7.5t7 -18.5q0 -13 -9 -34z" />
    <glyph glyph-name="Ldot" unicode="&#x13f;" horiz-adv-x="515" 
d="M17 0v7q37 10 44.5 46t7.5 199v246q0 163 -7.5 199t-44.5 46v7h187v-7q-38 -10 -46 -46t-8 -199v-489h194q71 0 105.5 23t54.5 103h10l-17 -117q-2 -12 -5.5 -15t-13.5 -3h-461zM366 343q-20 0 -34.5 14t-14.5 35q0 20 14.5 34t34.5 14q21 0 35 -14t14 -34q0 -21 -14 -35
t-35 -14z" />
    <glyph glyph-name="ldot" unicode="&#x140;" horiz-adv-x="256" 
d="M24 0v7q31 8 37 30.5t6 115.5v423q0 98 -6 115.5t-40 18.5v7l121 58v-622q0 -93 6.5 -115.5t38.5 -30.5v-7h-163zM234 316q-20 0 -34.5 14t-14.5 35t14.5 35t34.5 14q21 0 35 -14t14 -35t-14 -35t-35 -14z" />
    <glyph glyph-name="Lslash" unicode="&#x141;" horiz-adv-x="515" 
d="M17 0v7q37 10 44.5 46t7.5 199v58l-81 -47l-5 8l86 49v178q0 163 -7.5 199t-44.5 46v7h187v-7q-38 -10 -46 -46t-8 -199v-131l167 95l4 -7l-171 -99v-347h194q71 0 105.5 23t54.5 103h10l-17 -117q-2 -12 -5.5 -15t-13.5 -3h-461z" />
    <glyph glyph-name="lslash" unicode="&#x142;" 
d="M24 0v7q31 8 37 30.5t6 115.5v204l-70 -51l-6 6l76 55v209q0 98 -6 115.5t-40 18.5v7l121 58v-353l72 52l6 -7l-78 -56v-258q0 -93 6.5 -115.5t38.5 -30.5v-7h-163z" />
    <glyph glyph-name="Nacute" unicode="&#x143;" horiz-adv-x="637" 
d="M259 778l-3 6l149 90q22 12 36 12q11 0 18.5 -7.5t7.5 -17.5q0 -27 -40 -38zM17 0v7q14 5 21 9t14 16t9.5 24.5t4.5 43.5t2.5 63t0.5 93v242q0 163 -7.5 198.5t-44.5 46.5v7h127q13 0 18.5 -4.5t19.5 -25.5l376 -585v359q0 73 -1 108.5t-3 66.5t-9.5 42.5t-16.5 18.5
t-27 13v7h120v-7q-14 -5 -21 -9t-14 -16t-9.5 -24.5t-4.5 -43.5t-2.5 -63t-0.5 -93v-497h-16l-474 732v-473q0 -73 1 -108.5t3 -66.5t9.5 -42.5t16.5 -18.5t27 -13v-7h-119z" />
    <glyph glyph-name="nacute" unicode="&#x144;" horiz-adv-x="503" 
d="M211 534l-5 5l93 141q20 29 40 29q12 0 20 -8t8 -20q0 -18 -23 -37zM25 0v7q29 8 34.5 30.5t5.5 115.5v129q0 88 -5 104.5t-36 19.5v8l115 62v-110l33 31q84 77 150 77q118 0 118 -121v-200q0 -94 5.5 -116t34.5 -30v-7h-159v7q32 8 38.5 30.5t6.5 115.5v216q0 88 -66 88
q-49 0 -128 -72l-33 -31v-201q0 -93 6.5 -115.5t37.5 -30.5v-7h-158z" />
    <glyph glyph-name="Ncommaaccent" unicode="&#x145;" horiz-adv-x="637" 
d="M17 0v7q14 5 21 9t14 16t9.5 24.5t4.5 43.5t2.5 63t0.5 93v242q0 163 -7.5 198.5t-44.5 46.5v7h127q13 0 18.5 -4.5t19.5 -25.5l376 -585v359q0 73 -1 108.5t-3 66.5t-9.5 42.5t-16.5 18.5t-27 13v7h120v-7q-14 -5 -21 -9t-14 -16t-9.5 -24.5t-4.5 -43.5t-2.5 -63
t-0.5 -93v-497h-16l-474 732v-473q0 -73 1 -108.5t3 -66.5t9.5 -42.5t16.5 -18.5t27 -13v-7h-119zM328 -121q-12 -12 -29 -12q-16 0 -27 10.5t-11 27.5q0 19 12.5 30t30.5 11q21 0 35 -14.5t14 -40.5q0 -68 -72 -82l-4 7q56 12 56 49q0 9 -5 14z" />
    <glyph glyph-name="ncommaaccent" unicode="&#x146;" horiz-adv-x="503" 
d="M25 0v7q29 8 34.5 30.5t5.5 115.5v129q0 88 -5 104.5t-36 19.5v8l115 62v-110l33 31q84 77 150 77q118 0 118 -121v-200q0 -94 5.5 -116t34.5 -30v-7h-159v7q32 8 38.5 30.5t6.5 115.5v216q0 88 -66 88q-49 0 -128 -72l-33 -31v-201q0 -93 6.5 -115.5t37.5 -30.5v-7h-158
zM270 -121q-12 -12 -29 -12q-16 0 -27 10.5t-11 27.5q0 19 12.5 30t30.5 11q21 0 35 -14.5t14 -40.5q0 -68 -72 -82l-4 7q56 12 56 49q0 9 -5 14z" />
    <glyph glyph-name="Ncaron" unicode="&#x147;" horiz-adv-x="637" 
d="M221 885l4 5l122 -50l122 50l4 -5l-126 -106zM17 0v7q14 5 21 9t14 16t9.5 24.5t4.5 43.5t2.5 63t0.5 93v242q0 163 -7.5 198.5t-44.5 46.5v7h127q13 0 18.5 -4.5t19.5 -25.5l376 -585v359q0 73 -1 108.5t-3 66.5t-9.5 42.5t-16.5 18.5t-27 13v7h120v-7q-14 -5 -21 -9
t-14 -16t-9.5 -24.5t-4.5 -43.5t-2.5 -63t-0.5 -93v-497h-16l-474 732v-473q0 -73 1 -108.5t3 -66.5t9.5 -42.5t16.5 -18.5t27 -13v-7h-119z" />
    <glyph glyph-name="ncaron" unicode="&#x148;" horiz-adv-x="503" 
d="M137 714l7 4l105 -100l105 100l7 -4l-112 -175zM25 0v7q29 8 34.5 30.5t5.5 115.5v129q0 88 -5 104.5t-36 19.5v8l115 62v-110l33 31q84 77 150 77q118 0 118 -121v-200q0 -94 5.5 -116t34.5 -30v-7h-159v7q32 8 38.5 30.5t6.5 115.5v216q0 88 -66 88q-49 0 -128 -72
l-33 -31v-201q0 -93 6.5 -115.5t37.5 -30.5v-7h-158z" />
    <glyph glyph-name="napostrophe" unicode="&#x149;" horiz-adv-x="503" 
d="M38 690q-11 -13 -31 -13q-17 0 -29 11.5t-12 30.5q0 20 13 32.5t32 12.5q23 0 39 -17t16 -50q0 -77 -74 -122l-5 7q58 40 58 89q0 15 -7 19zM25 0v7q29 8 34.5 30.5t5.5 115.5v129q0 88 -5 104.5t-36 19.5v8l115 62v-110l33 31q84 77 150 77q118 0 118 -121v-200
q0 -94 5.5 -116t34.5 -30v-7h-159v7q32 8 38.5 30.5t6.5 115.5v216q0 88 -66 88q-49 0 -128 -72l-33 -31v-201q0 -93 6.5 -115.5t37.5 -30.5v-7h-158z" />
    <glyph glyph-name="Eng" unicode="&#x14a;" horiz-adv-x="637" 
d="M17 0v7q14 5 21 9t14 16t9.5 24.5t4.5 43.5t2.5 63t0.5 93v242q0 163 -7.5 198.5t-44.5 46.5v7h127q13 0 18.5 -4.5t19.5 -25.5l376 -582v356q0 73 -1 108.5t-3 66.5t-9.5 42.5t-16.5 18.5t-27 13v7h120v-7q-14 -5 -21 -9t-14 -16t-9.5 -24.5t-4.5 -43.5t-2.5 -63
t-0.5 -93v-511q0 -52 -31.5 -84t-82.5 -32q-62 0 -101 23t-39 58t38 35q18 0 27.5 -9t16.5 -34q5 -20 8 -28.5t9 -19t15.5 -13.5t24.5 -3q47 0 75.5 30t28.5 79v8l-479 736v-473q0 -73 1 -108.5t3 -66.5t9.5 -42.5t16.5 -18.5t27 -13v-7h-119z" />
    <glyph glyph-name="eng" unicode="&#x14b;" horiz-adv-x="501" 
d="M25 0v7q29 8 34.5 30.5t5.5 115.5v129q0 88 -5 104.5t-36 19.5v8l115 62v-110l33 31q84 77 150 77q118 0 118 -121v-304q0 -96 -93 -161q-38 -27 -72 -27q-16 0 -27.5 8t-11.5 23q0 14 9 21.5t22 7.5q16 0 34 -15.5t27 -15.5q8 0 13 4q25 17 25 132v343q0 88 -66 88
q-49 0 -128 -72l-33 -31v-201q0 -93 6.5 -115.5t37.5 -30.5v-7h-158z" />
    <glyph glyph-name="Omacron" unicode="&#x14c;" horiz-adv-x="725" 
d="M465 831v-35h-206v35h206zM362 -8q-128 0 -227 108t-99 276q0 85 28 157.5t74 121t104.5 76t119.5 27.5q130 0 229 -107t99 -275t-99 -276t-229 -108zM362 1q105 0 172 93.5t67 281.5t-67 280.5t-172 92.5q-104 0 -171 -93t-67 -280q0 -188 67 -281.5t171 -93.5z" />
    <glyph glyph-name="omacron" unicode="&#x14d;" horiz-adv-x="505" 
d="M155 610h195v-34h-195v34zM252 -9q-83 0 -153 66t-70 174q0 109 70.5 177t152.5 68q83 0 153.5 -68t70.5 -177t-70.5 -174.5t-153.5 -65.5zM252 -1q64 0 104 55.5t40 176.5t-40.5 179t-103.5 58q-62 0 -102.5 -58t-40.5 -179t40 -176.5t103 -55.5z" />
    <glyph glyph-name="Obreve" unicode="&#x14e;" horiz-adv-x="725" 
d="M363 827q71 0 91 54h9q-5 -37 -29 -67.5t-71 -30.5q-48 0 -72 30.5t-29 68.5h9q17 -55 92 -55zM362 -8q-128 0 -227 108t-99 276q0 85 28 157.5t74 121t104.5 76t119.5 27.5q130 0 229 -107t99 -275t-99 -276t-229 -108zM362 1q105 0 172 93.5t67 281.5t-67 280.5
t-172 92.5q-104 0 -171 -93t-67 -280q0 -188 67 -281.5t171 -93.5z" />
    <glyph glyph-name="obreve" unicode="&#x14f;" horiz-adv-x="505" 
d="M253 585q69 0 86 74h9q-2 -49 -26.5 -83.5t-68.5 -34.5q-46 0 -70 34t-26 85h9q14 -75 87 -75zM252 -9q-83 0 -153 66t-70 174q0 109 70.5 177t152.5 68q83 0 153.5 -68t70.5 -177t-70.5 -174.5t-153.5 -65.5zM252 -1q64 0 104 55.5t40 176.5t-40.5 179t-103.5 58
q-62 0 -102.5 -58t-40.5 -179t40 -176.5t103 -55.5z" />
    <glyph glyph-name="Ohungarumlaut" unicode="&#x150;" horiz-adv-x="725" 
d="M422 772l-5 6l62 86q21 30 39 30q25 0 25 -24q0 -18 -21 -33zM283 772l-5 6l62 86q9 12 12.5 16t11 9t15.5 5q25 0 25 -24q0 -20 -21 -33zM362 -8q-128 0 -227 108t-99 276q0 85 28 157.5t74 121t104.5 76t119.5 27.5q130 0 229 -107t99 -275t-99 -276t-229 -108zM362 1
q105 0 172 93.5t67 281.5t-67 280.5t-172 92.5q-104 0 -171 -93t-67 -280q0 -188 67 -281.5t171 -93.5z" />
    <glyph glyph-name="ohungarumlaut" unicode="&#x151;" horiz-adv-x="505" 
d="M311 540l-6 2l37 137q6 21 13.5 30t21.5 9q25 0 25 -25q0 -14 -12 -33zM194 540l-6 2l37 137q6 21 13 30t21 9q25 0 25 -25q0 -13 -11 -33zM252 -9q-83 0 -153 66t-70 174q0 109 70.5 177t152.5 68q83 0 153.5 -68t70.5 -177t-70.5 -174.5t-153.5 -65.5zM252 -1
q64 0 104 55.5t40 176.5t-40.5 179t-103.5 58q-62 0 -102.5 -58t-40.5 -179t40 -176.5t103 -55.5z" />
    <glyph glyph-name="OE" unicode="&#x152;" horiz-adv-x="970" 
d="M756 336q-8 41 -21 53q-22 21 -71 21h-84v-401h213q70 0 103 21.5t51 93.5h10l-12 -106q-1 -12 -4.5 -15t-13.5 -3h-517q-161 0 -267.5 99.5t-106.5 276.5q0 175 106.5 274.5t267.5 99.5h490q6 0 8.5 -1t5.5 -5.5t4 -14.5l16 -91h-10q-18 60 -52.5 81.5t-97.5 21.5h-194
v-322h84q29 0 47.5 5.5t27.5 20t11 21t6 27.5h9v-157h-9zM410 741q-137 0 -212 -84.5t-75 -280.5q0 -367 287 -367q64 0 76.5 37.5t12.5 209.5v234q0 175 -12.5 213t-76.5 38z" />
    <glyph glyph-name="oe" unicode="&#x153;" horiz-adv-x="802" 
d="M250 -9q-81 0 -151 66t-70 174q0 73 35.5 131t85 86t100.5 28q49 0 99 -28.5t81 -78.5q30 51 79 79t98 28q64 0 112 -37.5t62 -114.5h-303q-7 -42 -7 -84q0 -125 48.5 -180t125.5 -55q69 0 126 45l6 -7q-64 -51 -149 -51q-59 0 -111.5 27t-84.5 78q-31 -50 -81.5 -78
t-100.5 -28zM250 -1q61 0 101 55.5t40 176.5t-40 179t-101 58t-101 -58t-40 -179t40 -176.5t101 -55.5zM607 467q-39 0 -75 -32t-52 -101h233q-4 71 -34 102t-72 31z" />
    <glyph glyph-name="Racute" unicode="&#x154;" horiz-adv-x="615" 
d="M207 778l-3 6l149 90q22 12 36 12q11 0 18.5 -7.5t7.5 -17.5q0 -27 -40 -38zM17 0v7q37 10 44.5 46t7.5 199v246q0 163 -7.5 199t-44.5 46v7h263q288 0 288 -178q0 -97 -73.5 -146.5t-181.5 -49.5h-41q64 -9 103.5 -52.5t58.5 -129.5q21 -92 51.5 -136.5t78.5 -44.5
q37 0 61 28l5 -5q-30 -43 -95 -43t-112.5 40t-70.5 146q-13 55 -19 81t-17 53.5t-18 36t-24 17t-32.5 9t-46.5 0.5h-45v-124q0 -163 7.5 -199t44.5 -46v-7h-185zM276 741h-126v-357h159q179 0 179 173q0 94 -46.5 139t-165.5 45z" />
    <glyph glyph-name="racute" unicode="&#x155;" horiz-adv-x="329" 
d="M158 534l-5 5l93 141q20 29 40 29q12 0 20 -8t8 -20q0 -18 -23 -37zM25 0v7q29 8 34.5 30.5t5.5 115.5v117q0 98 -5 115.5t-36 20.5v8l116 62v-122l51 55q34 37 52.5 50t42.5 13q37 0 37 -35q0 -14 -9 -24t-23 -10q-13 0 -32 9.5t-29 9.5q-17 0 -39 -25l-51 -55v-189
q0 -93 6.5 -115.5t39.5 -30.5v-7h-161z" />
    <glyph glyph-name="Rcommaaccent" unicode="&#x156;" horiz-adv-x="615" 
d="M17 0v7q37 10 44.5 46t7.5 199v246q0 163 -7.5 199t-44.5 46v7h263q288 0 288 -178q0 -97 -73.5 -146.5t-181.5 -49.5h-41q64 -9 103.5 -52.5t58.5 -129.5q21 -92 51.5 -136.5t78.5 -44.5q37 0 61 28l5 -5q-30 -43 -95 -43t-112.5 40t-70.5 146q-13 55 -19 81t-17 53.5
t-18 36t-24 17t-32.5 9t-46.5 0.5h-45v-124q0 -163 7.5 -199t44.5 -46v-7h-185zM276 741h-126v-357h159q179 0 179 173q0 94 -46.5 139t-165.5 45zM316 -121q-12 -12 -29 -12q-16 0 -27 10.5t-11 27.5q0 19 12.5 30t30.5 11q21 0 35 -14.5t14 -40.5q0 -68 -72 -82l-4 7
q56 12 56 49q0 9 -5 14z" />
    <glyph glyph-name="rcommaaccent" unicode="&#x157;" horiz-adv-x="329" 
d="M25 0v7q29 8 34.5 30.5t5.5 115.5v117q0 98 -5 115.5t-36 20.5v8l116 62v-122l51 55q34 37 52.5 50t42.5 13q37 0 37 -35q0 -14 -9 -24t-23 -10q-13 0 -32 9.5t-29 9.5q-17 0 -39 -25l-51 -55v-189q0 -93 6.5 -115.5t39.5 -30.5v-7h-161zM121 -121q-12 -12 -29 -12
q-16 0 -27 10.5t-11 27.5q0 19 12.5 30t30.5 11q21 0 35 -14.5t14 -40.5q0 -68 -72 -82l-4 7q56 12 56 49q0 9 -5 14z" />
    <glyph glyph-name="Rcaron" unicode="&#x158;" horiz-adv-x="615" 
d="M169 885l4 5l122 -50l122 50l4 -5l-126 -106zM17 0v7q37 10 44.5 46t7.5 199v246q0 163 -7.5 199t-44.5 46v7h263q288 0 288 -178q0 -97 -73.5 -146.5t-181.5 -49.5h-41q64 -9 103.5 -52.5t58.5 -129.5q21 -92 51.5 -136.5t78.5 -44.5q37 0 61 28l5 -5q-30 -43 -95 -43
t-112.5 40t-70.5 146q-13 55 -19 81t-17 53.5t-18 36t-24 17t-32.5 9t-46.5 0.5h-45v-124q0 -163 7.5 -199t44.5 -46v-7h-185zM276 741h-126v-357h159q179 0 179 173q0 94 -46.5 139t-165.5 45z" />
    <glyph glyph-name="rcaron" unicode="&#x159;" horiz-adv-x="329" 
d="M85 714l7 4l105 -100l105 100l7 -4l-112 -175zM25 0v7q29 8 34.5 30.5t5.5 115.5v117q0 98 -5 115.5t-36 20.5v8l116 62v-122l51 55q34 37 52.5 50t42.5 13q37 0 37 -35q0 -14 -9 -24t-23 -10q-13 0 -32 9.5t-29 9.5q-17 0 -39 -25l-51 -55v-189q0 -93 6.5 -115.5
t39.5 -30.5v-7h-161z" />
    <glyph glyph-name="Sacute" unicode="&#x15a;" horiz-adv-x="519" 
d="M172 778l-3 6l149 90q22 12 36 12q11 0 18.5 -7.5t7.5 -17.5q0 -27 -40 -38zM263 -7q-55 0 -95.5 13.5t-65.5 27t-44 13.5q-20 0 -26 -22h-9v169h9q12 -90 72.5 -141t158.5 -51q84 0 122.5 43t38.5 113q0 76 -38 115.5t-147 87.5q-105 46 -152.5 94.5t-47.5 122.5
q0 82 60 130.5t148 48.5q63 0 113 -19t63 -19q20 0 28 24h9v-130h-9q-33 135 -204 135q-71 0 -110 -31t-39 -90q0 -64 35 -101t125 -76q61 -26 95.5 -44t71 -47t52.5 -66t16 -86q0 -89 -66 -151.5t-164 -62.5z" />
    <glyph glyph-name="sacute" unicode="&#x15b;" horiz-adv-x="367" 
d="M147 534l-5 5l93 141q20 29 40 29q12 0 20 -8t8 -20q0 -18 -23 -37zM181 1q106 0 106 94q0 41 -26.5 65.5t-89.5 49.5q-67 26 -101.5 60t-34.5 83q0 58 40 90.5t102 32.5q45 0 75 -12.5t37 -12.5q13 0 17 17h8v-101h-8q-18 55 -48 77.5t-81 22.5q-45 0 -70 -20.5
t-25 -57.5q0 -36 23.5 -56.5t85.5 -45.5q75 -31 110.5 -66t35.5 -89q0 -62 -43 -100.5t-113 -38.5q-50 0 -87 18t-43 18q-13 0 -16 -18h-9v130h8q29 -140 147 -140z" />
    <glyph glyph-name="Scircumflex" unicode="&#x15c;" horiz-adv-x="519" 
d="M134 782l126 106l126 -106l-4 -5l-122 50l-122 -50zM263 -7q-55 0 -95.5 13.5t-65.5 27t-44 13.5q-20 0 -26 -22h-9v169h9q12 -90 72.5 -141t158.5 -51q84 0 122.5 43t38.5 113q0 76 -38 115.5t-147 87.5q-105 46 -152.5 94.5t-47.5 122.5q0 82 60 130.5t148 48.5
q63 0 113 -19t63 -19q20 0 28 24h9v-130h-9q-33 135 -204 135q-71 0 -110 -31t-39 -90q0 -64 35 -101t125 -76q61 -26 95.5 -44t71 -47t52.5 -66t16 -86q0 -89 -66 -151.5t-164 -62.5z" />
    <glyph glyph-name="scircumflex" unicode="&#x15d;" horiz-adv-x="367" 
d="M73 537l112 175l112 -175l-7 -4l-105 100l-105 -100zM181 1q106 0 106 94q0 41 -26.5 65.5t-89.5 49.5q-67 26 -101.5 60t-34.5 83q0 58 40 90.5t102 32.5q45 0 75 -12.5t37 -12.5q13 0 17 17h8v-101h-8q-18 55 -48 77.5t-81 22.5q-45 0 -70 -20.5t-25 -57.5
q0 -36 23.5 -56.5t85.5 -45.5q75 -31 110.5 -66t35.5 -89q0 -62 -43 -100.5t-113 -38.5q-50 0 -87 18t-43 18q-13 0 -16 -18h-9v130h8q29 -140 147 -140z" />
    <glyph glyph-name="Scedilla" unicode="&#x15e;" horiz-adv-x="519" 
d="M263 -7q-15 0 -22 1l-28 -47q40 -4 67 -22.5t27 -48.5q0 -73 -148 -76l-1 8q101 7 101 55q0 38 -77 42l-2 5l50 84q-56 4 -105 28.5t-67 24.5q-20 0 -26 -22h-9v169h9q12 -90 72.5 -141t158.5 -51q84 0 122.5 43t38.5 113q0 76 -38 115.5t-147 87.5q-105 46 -152.5 94.5
t-47.5 122.5q0 82 60 130.5t148 48.5q63 0 113 -19t63 -19q20 0 28 24h9v-130h-9q-33 135 -204 135q-71 0 -110 -31t-39 -90q0 -64 35 -101t125 -76q61 -26 95.5 -44t71 -47t52.5 -66t16 -86q0 -89 -66 -151.5t-164 -62.5z" />
    <glyph glyph-name="scedilla" unicode="&#x15f;" horiz-adv-x="367" 
d="M181 1q106 0 106 94q0 41 -26.5 65.5t-89.5 49.5q-67 26 -101.5 60t-34.5 83q0 58 40 90.5t102 32.5q45 0 75 -12.5t37 -12.5q13 0 17 17h8v-101h-8q-18 55 -48 77.5t-81 22.5q-45 0 -70 -20.5t-25 -57.5q0 -36 23.5 -56.5t85.5 -45.5q75 -31 110.5 -66t35.5 -89
q0 -62 -43 -100.5t-113 -38.5h-12l-28 -46q40 -4 67 -22.5t27 -48.5q0 -73 -148 -76l-1 8q101 7 101 55q0 38 -77 42l-2 5l51 84q-38 3 -69 19t-39 16q-13 0 -16 -18h-9v130h8q29 -140 147 -140z" />
    <glyph glyph-name="Scaron" unicode="&#x160;" horiz-adv-x="519" 
d="M134 885l4 5l122 -50l122 50l4 -5l-126 -106zM263 -7q-55 0 -95.5 13.5t-65.5 27t-44 13.5q-20 0 -26 -22h-9v169h9q12 -90 72.5 -141t158.5 -51q84 0 122.5 43t38.5 113q0 76 -38 115.5t-147 87.5q-105 46 -152.5 94.5t-47.5 122.5q0 82 60 130.5t148 48.5q63 0 113 -19
t63 -19q20 0 28 24h9v-130h-9q-33 135 -204 135q-71 0 -110 -31t-39 -90q0 -64 35 -101t125 -76q61 -26 95.5 -44t71 -47t52.5 -66t16 -86q0 -89 -66 -151.5t-164 -62.5z" />
    <glyph glyph-name="scaron" unicode="&#x161;" horiz-adv-x="367" 
d="M73 714l7 4l105 -100l105 100l7 -4l-112 -175zM181 1q106 0 106 94q0 41 -26.5 65.5t-89.5 49.5q-67 26 -101.5 60t-34.5 83q0 58 40 90.5t102 32.5q45 0 75 -12.5t37 -12.5q13 0 17 17h8v-101h-8q-18 55 -48 77.5t-81 22.5q-45 0 -70 -20.5t-25 -57.5q0 -36 23.5 -56.5
t85.5 -45.5q75 -31 110.5 -66t35.5 -89q0 -62 -43 -100.5t-113 -38.5q-50 0 -87 18t-43 18q-13 0 -16 -18h-9v130h8q29 -140 147 -140z" />
    <glyph glyph-name="Tcommaaccent" unicode="&#x162;" horiz-adv-x="606" 
d="M211 0v7q37 11 44.5 46.5t7.5 198.5v489h-82q-73 0 -108 -25t-53 -103h-10l16 116q1 15 4 18t12 3h522q9 0 12 -3t5 -18l15 -116h-10q-18 78 -53 103t-109 25h-80v-489q0 -163 7.5 -198.5t44.5 -46.5v-7h-185zM322 -121q-12 -12 -29 -12q-16 0 -27 10.5t-11 27.5
q0 19 12.5 30t30.5 11q21 0 35 -14.5t14 -40.5q0 -68 -72 -82l-4 7q56 12 56 49q0 9 -5 14z" />
    <glyph glyph-name="tcommaaccent" unicode="&#x163;" horiz-adv-x="252" 
d="M156 -6q-45 0 -71 25.5t-26 72.5v364h-41v9q94 13 107 143h9v-142h99v-10h-99v-338q0 -60 9 -84.5t38 -24.5q32 0 56 26l5 -5q-28 -36 -86 -36zM169 -121q-12 -12 -29 -12q-16 0 -27 10.5t-11 27.5q0 19 12.5 30t30.5 11q21 0 35 -14.5t14 -40.5q0 -68 -72 -82l-4 7
q56 12 56 49q0 9 -5 14z" />
    <glyph glyph-name="Tcaron" unicode="&#x164;" horiz-adv-x="606" 
d="M177 885l4 5l122 -50l122 50l4 -5l-126 -106zM211 0v7q37 11 44.5 46.5t7.5 198.5v489h-82q-73 0 -108 -25t-53 -103h-10l16 116q1 15 4 18t12 3h522q9 0 12 -3t5 -18l15 -116h-10q-18 78 -53 103t-109 25h-80v-489q0 -163 7.5 -198.5t44.5 -46.5v-7h-185z" />
    <glyph glyph-name="tcaron" unicode="&#x165;" horiz-adv-x="252" 
d="M195 529l-6 2l11 129q5 49 32 49q12 0 19 -7.5t7 -18.5q0 -13 -9 -34zM156 -6q-45 0 -71 25.5t-26 72.5v364h-41v9q94 13 107 143h9v-142h99v-10h-99v-338q0 -60 9 -84.5t38 -24.5q32 0 56 26l5 -5q-28 -36 -86 -36z" />
    <glyph glyph-name="Tbar" unicode="&#x166;" horiz-adv-x="606" 
d="M211 0v7q37 11 44.5 46.5t7.5 198.5v167h-142v9h142v313h-82q-73 0 -108 -25t-53 -103h-10l16 116q1 15 4 18t12 3h522q9 0 12 -3t5 -18l15 -116h-10q-18 78 -53 103t-109 25h-80v-313h142v-9h-142v-167q0 -163 7.5 -198.5t44.5 -46.5v-7h-185z" />
    <glyph glyph-name="tbar" unicode="&#x167;" horiz-adv-x="252" 
d="M156 -6q-45 0 -71 25.5t-26 72.5v207h-40v9h40v148h-41v9q94 13 107 143h9v-142h99v-10h-99v-148h96v-9h-96v-181q0 -60 9 -84.5t38 -24.5q32 0 56 26l5 -5q-28 -36 -86 -36z" />
    <glyph glyph-name="Utilde" unicode="&#x168;" horiz-adv-x="649" 
d="M323 864q11 0 53.5 -6.5t54.5 -6.5q24 0 51 46l7 -2q-13 -44 -31 -65.5t-36 -21.5q-14 0 -57 6t-53 6q-26 0 -58 -47l-6 2q15 44 35.5 66.5t39.5 22.5zM354 -8q-290 0 -290 260v246q0 163 -7.5 199t-42.5 46v7h183v-7q-37 -10 -44.5 -46t-7.5 -199v-260q0 -120 46 -177.5
t164 -57.5q218 0 218 244v247q0 61 -0.5 93t-2.5 63.5t-5 43.5t-10.5 24t-16 16t-23.5 9v7h121v-7q-14 -5 -21 -9t-14 -16t-9.5 -24.5t-4.5 -43.5t-2.5 -63t-0.5 -93v-247q0 -133 -61.5 -194t-168.5 -61z" />
    <glyph glyph-name="utilde" unicode="&#x169;" horiz-adv-x="500" 
d="M216 635q13 0 52 -6t51 -6q24 0 48 47l7 -3q-10 -43 -28 -65t-35 -22q-15 0 -54.5 5.5t-50.5 5.5q-26 0 -55 -49l-6 3q13 43 33 66.5t38 23.5zM181 -8q-118 0 -118 121v157q0 98 -5 115.5t-36 20.5v8l116 62v-391q0 -41 16.5 -58.5t48.5 -17.5q54 0 129 67l27 25v169
q0 98 -5 115.5t-36 20.5v8l117 62v-323q0 -94 7 -116t43 -30v-7h-126v89l-27 -25q-80 -72 -151 -72z" />
    <glyph glyph-name="Umacron" unicode="&#x16a;" horiz-adv-x="649" 
d="M463 831v-35h-206v35h206zM354 -8q-290 0 -290 260v246q0 163 -7.5 199t-42.5 46v7h183v-7q-37 -10 -44.5 -46t-7.5 -199v-260q0 -120 46 -177.5t164 -57.5q218 0 218 244v247q0 61 -0.5 93t-2.5 63.5t-5 43.5t-10.5 24t-16 16t-23.5 9v7h121v-7q-14 -5 -21 -9t-14 -16
t-9.5 -24.5t-4.5 -43.5t-2.5 -63t-0.5 -93v-247q0 -133 -61.5 -194t-168.5 -61z" />
    <glyph glyph-name="umacron" unicode="&#x16b;" horiz-adv-x="500" 
d="M155 610h195v-34h-195v34zM181 -8q-118 0 -118 121v157q0 98 -5 115.5t-36 20.5v8l116 62v-391q0 -41 16.5 -58.5t48.5 -17.5q54 0 129 67l27 25v169q0 98 -5 115.5t-36 20.5v8l117 62v-323q0 -94 7 -116t43 -30v-7h-126v89l-27 -25q-80 -72 -151 -72z" />
    <glyph glyph-name="Ubreve" unicode="&#x16c;" horiz-adv-x="649" 
d="M361 827q71 0 91 54h9q-5 -37 -29 -67.5t-71 -30.5q-48 0 -72 30.5t-29 68.5h9q17 -55 92 -55zM354 -8q-290 0 -290 260v246q0 163 -7.5 199t-42.5 46v7h183v-7q-37 -10 -44.5 -46t-7.5 -199v-260q0 -120 46 -177.5t164 -57.5q218 0 218 244v247q0 61 -0.5 93t-2.5 63.5
t-5 43.5t-10.5 24t-16 16t-23.5 9v7h121v-7q-14 -5 -21 -9t-14 -16t-9.5 -24.5t-4.5 -43.5t-2.5 -63t-0.5 -93v-247q0 -133 -61.5 -194t-168.5 -61z" />
    <glyph glyph-name="ubreve" unicode="&#x16d;" horiz-adv-x="500" 
d="M253 585q69 0 86 74h9q-2 -49 -26.5 -83.5t-68.5 -34.5q-46 0 -70 34t-26 85h9q14 -75 87 -75zM181 -8q-118 0 -118 121v157q0 98 -5 115.5t-36 20.5v8l116 62v-391q0 -41 16.5 -58.5t48.5 -17.5q54 0 129 67l27 25v169q0 98 -5 115.5t-36 20.5v8l117 62v-323
q0 -94 7 -116t43 -30v-7h-126v89l-27 -25q-80 -72 -151 -72z" />
    <glyph glyph-name="Uring" unicode="&#x16e;" horiz-adv-x="649" 
d="M283 828q0 32 24 54.5t55 22.5q32 0 55.5 -22.5t23.5 -54.5q0 -33 -23.5 -55t-55.5 -22t-55.5 22t-23.5 55zM318 828q0 -31 12 -49.5t32 -18.5t32 18.5t12 49.5q0 30 -12 49.5t-32 19.5q-19 0 -31.5 -19.5t-12.5 -49.5zM354 -8q-290 0 -290 260v246q0 163 -7.5 199
t-42.5 46v7h183v-7q-37 -10 -44.5 -46t-7.5 -199v-260q0 -120 46 -177.5t164 -57.5q218 0 218 244v247q0 61 -0.5 93t-2.5 63.5t-5 43.5t-10.5 24t-16 16t-23.5 9v7h121v-7q-14 -5 -21 -9t-14 -16t-9.5 -24.5t-4.5 -43.5t-2.5 -63t-0.5 -93v-247q0 -133 -61.5 -194
t-168.5 -61z" />
    <glyph glyph-name="uring" unicode="&#x16f;" horiz-adv-x="500" 
d="M170 608q0 33 24 55t58 22t58 -22t24 -55t-23.5 -55t-58.5 -22t-58.5 21.5t-23.5 55.5zM204 608q0 -68 48 -68q23 0 35.5 18.5t12.5 49.5q0 30 -13 49t-35 19t-35 -19t-13 -49zM181 -8q-118 0 -118 121v157q0 98 -5 115.5t-36 20.5v8l116 62v-391q0 -41 16.5 -58.5
t48.5 -17.5q54 0 129 67l27 25v169q0 98 -5 115.5t-36 20.5v8l117 62v-323q0 -94 7 -116t43 -30v-7h-126v89l-27 -25q-80 -72 -151 -72z" />
    <glyph glyph-name="Uhungarumlaut" unicode="&#x170;" horiz-adv-x="649" 
d="M420 772l-5 6l62 86q21 30 39 30q25 0 25 -24q0 -18 -21 -33zM281 772l-5 6l62 86q9 12 12.5 16t11 9t15.5 5q25 0 25 -24q0 -20 -21 -33zM354 -8q-290 0 -290 260v246q0 163 -7.5 199t-42.5 46v7h183v-7q-37 -10 -44.5 -46t-7.5 -199v-260q0 -120 46 -177.5t164 -57.5
q218 0 218 244v247q0 61 -0.5 93t-2.5 63.5t-5 43.5t-10.5 24t-16 16t-23.5 9v7h121v-7q-14 -5 -21 -9t-14 -16t-9.5 -24.5t-4.5 -43.5t-2.5 -63t-0.5 -93v-247q0 -133 -61.5 -194t-168.5 -61z" />
    <glyph glyph-name="uhungarumlaut" unicode="&#x171;" horiz-adv-x="500" 
d="M311 540l-6 2l37 137q6 21 13.5 30t21.5 9q25 0 25 -25q0 -14 -12 -33zM194 540l-6 2l37 137q6 21 13 30t21 9q25 0 25 -25q0 -13 -11 -33zM181 -8q-118 0 -118 121v157q0 98 -5 115.5t-36 20.5v8l116 62v-391q0 -41 16.5 -58.5t48.5 -17.5q54 0 129 67l27 25v169
q0 98 -5 115.5t-36 20.5v8l117 62v-323q0 -94 7 -116t43 -30v-7h-126v89l-27 -25q-80 -72 -151 -72z" />
    <glyph glyph-name="Uogonek" unicode="&#x172;" horiz-adv-x="649" 
d="M376 -170q-33 0 -52 17.5t-19 46.5q0 59 105 103q-25 -5 -56 -5q-290 0 -290 260v246q0 163 -7.5 199t-42.5 46v7h183v-7q-37 -10 -44.5 -46t-7.5 -199v-260q0 -120 46 -177.5t164 -57.5q218 0 218 244v247q0 61 -0.5 93t-2.5 63.5t-5 43.5t-10.5 24t-16 16t-23.5 9v7
h121v-7q-14 -5 -21 -9t-14 -16t-9.5 -24.5t-4.5 -43.5t-2.5 -63t-0.5 -93v-247q0 -186 -126 -237q-21 -9 -34 -15.5t-28.5 -18.5t-23 -29t-7.5 -39q0 -20 11.5 -33t32.5 -13q26 0 42 16l5 -5q-8 -14 -28.5 -28.5t-51.5 -14.5z" />
    <glyph glyph-name="uogonek" unicode="&#x173;" horiz-adv-x="500" 
d="M181 -8q-118 0 -118 121v157q0 98 -5 115.5t-36 20.5v8l116 62v-391q0 -41 16.5 -58.5t48.5 -17.5q54 0 129 67l27 25v169q0 98 -5 115.5t-36 20.5v8l117 62v-323q0 -94 7 -116t43 -30v-7h-114q-57 -33 -57 -92q0 -20 11.5 -33t32.5 -13q25 0 43 16l5 -5
q-8 -14 -29 -28.5t-51 -14.5q-33 0 -52 17t-19 47q0 59 104 106v89l-27 -25q-80 -72 -151 -72z" />
    <glyph glyph-name="Wcircumflex" unicode="&#x174;" horiz-adv-x="900" 
d="M352 782l126 106l126 -106l-4 -5l-122 50l-122 -50zM307 -5l-227 628q-3 7 -8 22t-7 20.5t-6.5 16.5t-6.5 15l-6 12t-7.5 11.5t-8 8.5t-10 8t-11.5 6v7h150v-7q-21 -6 -23 -23.5t13 -57.5l199 -558l104 287l-84 232q-2 6 -7 20t-7 19t-6 15.5t-6 14t-5.5 11.5t-6 11.5
t-6.5 8.5t-8 8t-8.5 6t-10.5 6v7h149v-7q-21 -6 -23 -23t13 -59l66 -183l53 146q18 41 17.5 73.5t-31.5 45.5v7h98v-7q-23 -9 -36 -29.5t-38 -89.5l-59 -160l128 -357l172 516q18 42 15.5 75t-35.5 45v7h105v-7q-24 -10 -38.5 -30.5t-36.5 -89.5l-209 -628h-12l-138 382
l-138 -382h-12z" />
    <glyph glyph-name="wcircumflex" unicode="&#x175;" horiz-adv-x="635" 
d="M194 537l112 175l112 -175l-7 -4l-105 100l-105 -100zM194 -5l-129 360q-22 60 -35.5 79.5t-33.5 25.5v6h147v-6q-16 -3 -20.5 -10.5t-1 -28.5t18.5 -63l94 -270l85 200l-24 67q-23 62 -36 80.5t-32 24.5v6h146v-6q-23 -4 -24.5 -22t19.5 -80l94 -262l89 240
q20 53 21.5 80t-7 33.5t-32.5 10.5v6h107v-6q-24 -6 -37 -25.5t-42 -98.5l-126 -341h-11l-100 280l-119 -280h-11z" />
    <glyph glyph-name="Ycircumflex" unicode="&#x176;" horiz-adv-x="609" 
d="M217 782l126 106l126 -106l-4 -5l-122 50l-122 -50zM216 0v7q37 11 44.5 46.5t7.5 198.5v117l-159 255q-5 8 -14 23t-13 21t-11 17t-10.5 15.5t-9 12t-9.5 11t-10 8t-11 7t-12 5.5v6h170v-6q-15 -4 -21 -12t-3 -23.5t18 -39.5l171 -278l141 233q18 29 26 45.5t12 32.5
t-3.5 26t-25.5 16v6h107v-6q-24 -10 -45 -33t-60 -87l-147 -242v-130q0 -163 7.5 -198.5t44.5 -46.5v-7h-185z" />
    <glyph glyph-name="ycircumflex" unicode="&#x177;" horiz-adv-x="430" 
d="M130 537l112 175l112 -175l-7 -4l-105 100l-105 -100zM96 -171q-39 0 -39 30t34 30q11 0 25 -6t20 -6q12 0 25.5 19t33.5 69l13 33l-143 359q-24 61 -37 79t-32 24v6h147v-6q-23 -4 -25 -20.5t21 -79.5l105 -272l100 248q21 51 22.5 78t-8 34.5t-32.5 11.5v6h108v-6
q-21 -5 -34 -25t-45 -99l-149 -371q-30 -75 -55 -105.5t-55 -30.5z" />
    <glyph glyph-name="Ydieresis" unicode="&#x178;" horiz-adv-x="609" 
d="M439 783q-19 0 -31 12.5t-12 31.5q0 18 12 30.5t31 12.5q17 0 29.5 -12.5t12.5 -30.5q0 -19 -12.5 -31.5t-29.5 -12.5zM247 783q-17 0 -29.5 12.5t-12.5 31.5q0 18 12.5 30.5t29.5 12.5q19 0 31 -12.5t12 -30.5q0 -19 -12 -31.5t-31 -12.5zM216 0v7q37 11 44.5 46.5
t7.5 198.5v117l-159 255q-5 8 -14 23t-13 21t-11 17t-10.5 15.5t-9 12t-9.5 11t-10 8t-11 7t-12 5.5v6h170v-6q-15 -4 -21 -12t-3 -23.5t18 -39.5l171 -278l141 233q18 29 26 45.5t12 32.5t-3.5 26t-25.5 16v6h107v-6q-24 -10 -45 -33t-60 -87l-147 -242v-130
q0 -163 7.5 -198.5t44.5 -46.5v-7h-185z" />
    <glyph glyph-name="Zacute" unicode="&#x179;" horiz-adv-x="590" 
d="M211 778l-3 6l149 90q22 12 36 12q11 0 18.5 -7.5t7.5 -17.5q0 -27 -40 -38zM21 0l432 741h-229q-80 0 -116 -29.5t-58 -101.5h-9l23 140h484l-437 -741h257q51 0 83.5 8t54 28t33 47.5t21.5 73.5h9l-17 -166h-531z" />
    <glyph glyph-name="zacute" unicode="&#x17a;" horiz-adv-x="396" 
d="M169 534l-5 5l93 141q20 29 40 29q12 0 20 -8t8 -20q0 -18 -23 -37zM369 -10q-23 10 -130 10h-229l276 458h-136q-38 0 -62.5 -14t-34 -29.5t-24.5 -49.5h-8l21 111q22 -10 129 -10h198l-280 -458h152q66 0 90.5 24.5t46.5 89.5h8z" />
    <glyph glyph-name="Zdotaccent" unicode="&#x17b;" horiz-adv-x="590" 
d="M300 783q-19 0 -32 13.5t-13 32.5t13 31.5t32 12.5t32 -12.5t13 -31.5t-13 -32.5t-32 -13.5zM21 0l432 741h-229q-80 0 -116 -29.5t-58 -101.5h-9l23 140h484l-437 -741h257q51 0 83.5 8t54 28t33 47.5t21.5 73.5h9l-17 -166h-531z" />
    <glyph glyph-name="zdotaccent" unicode="&#x17c;" horiz-adv-x="396" 
d="M207 559q-19 0 -32 13t-13 32t13 32t32 13t32 -13t13 -32t-13 -32t-32 -13zM369 -10q-23 10 -130 10h-229l276 458h-136q-38 0 -62.5 -14t-34 -29.5t-24.5 -49.5h-8l21 111q22 -10 129 -10h198l-280 -458h152q66 0 90.5 24.5t46.5 89.5h8z" />
    <glyph glyph-name="Zcaron" unicode="&#x17d;" horiz-adv-x="590" 
d="M173 885l4 5l122 -50l122 50l4 -5l-126 -106zM21 0l432 741h-229q-80 0 -116 -29.5t-58 -101.5h-9l23 140h484l-437 -741h257q51 0 83.5 8t54 28t33 47.5t21.5 73.5h9l-17 -166h-531z" />
    <glyph glyph-name="zcaron" unicode="&#x17e;" horiz-adv-x="396" 
d="M95 714l7 4l105 -100l105 100l7 -4l-112 -175zM369 -10q-23 10 -130 10h-229l276 458h-136q-38 0 -62.5 -14t-34 -29.5t-24.5 -49.5h-8l21 111q22 -10 129 -10h198l-280 -458h152q66 0 90.5 24.5t46.5 89.5h8z" />
    <glyph glyph-name="florin" unicode="&#x192;" horiz-adv-x="344" 
d="M59 456v10h68l15 108q14 103 58.5 145.5t101.5 42.5q33 0 56 -12.5t23 -33.5q0 -29 -28 -29q-27 0 -33 29q-5 23 -10 30t-19 7q-49 0 -68 -130l-23 -157h89v-10h-91l-46 -316q-12 -79 -31 -132.5t-43.5 -79t-46.5 -35.5t-48 -10q-33 0 -56 13.5t-23 35.5q0 12 7.5 20
t21.5 8q26 0 32 -28q5 -25 9.5 -32.5t18.5 -7.5q18 0 28 8t21.5 42.5t22 95.5t26.5 177l34 241h-66z" />
    <glyph glyph-name="Aringacute" unicode="&#x1fa;" horiz-adv-x="665" 
d="M222 930l-3 6l149 90q22 12 36 12q11 0 18.5 -7.5t7.5 -17.5q0 -27 -40 -38zM229 852q0 32 24 54.5t55 22.5q32 0 55.5 -22.5t23.5 -54.5q0 -33 -23.5 -55t-55.5 -22t-55.5 22t-23.5 55zM264 852q0 -31 12 -49.5t32 -18.5t32 18.5t12 49.5q0 30 -12 49.5t-32 19.5
q-19 0 -31.5 -19.5t-12.5 -49.5zM8 0v6q23 10 39 32.5t40 89.5l199 553q-13 34 -24.5 46t-31.5 17v6h107q7 0 9.5 -2.5t6.5 -11.5l230 -609q2 -6 7.5 -21t7.5 -19.5t6.5 -16t6.5 -15.5t6.5 -12t8 -11.5t8.5 -9t10.5 -9t12.5 -6.5v-7h-151v7q22 5 24 22.5t-12 51.5l-58 151
h-326l-37 -104q-18 -38 -17 -73.5t36 -48.5v-6h-108zM137 240h320l-165 428z" />
    <glyph glyph-name="aringacute" unicode="&#x1fb;" horiz-adv-x="421" 
d="M117 710l-3 6l149 90q22 12 36 12q11 0 18.5 -7.5t7.5 -17.5q0 -27 -40 -38zM123 608q0 33 24 55t58 22t58 -22t24 -55t-23.5 -55t-58.5 -22t-58.5 21.5t-23.5 55.5zM157 608q0 -68 48 -68q23 0 35.5 18.5t12.5 49.5q0 30 -13 49t-35 19t-35 -19t-13 -49zM136 -5
q-49 0 -80.5 25.5t-31.5 71.5q0 24 6.5 41t24 29.5t31 19t44 18.5t46.5 19l37 16q70 30 70 82v66q0 82 -85 82q-31 0 -45 -8.5t-25 -25.5q-24 -39 -49 -39q-13 0 -21 8.5t-8 19.5q0 24 44.5 39t102.5 15q72 0 117 -23.5t45 -87.5v-222q0 -85 7 -108.5t30 -23.5q19 0 34 10
l3 -5q-23 -20 -63 -20q-87 0 -87 76l-15 -15q-60 -60 -132 -60zM101 105q0 -92 67 -92q45 0 100 52l15 15v202q-15 -32 -69 -56l-37 -16q-76 -32 -76 -105z" />
    <glyph glyph-name="AEacute" unicode="&#x1fc;" horiz-adv-x="914" 
d="M542 778l-3 6l149 90q22 12 36 12q11 0 18.5 -7.5t7.5 -17.5q0 -27 -40 -38zM702 336q-8 41 -21 53q-22 21 -71 21h-84v-401h211q70 0 103 21.5t51 93.5h10l-12 -106q-1 -12 -4.5 -15t-13.5 -3h-478v7q20 6 28.5 12.5t15 33t7.5 64t1 120.5h-274l-63 -111
q-13 -23 -20 -41t-9 -34t5.5 -27t24.5 -18v-6h-108v6q21 10 40 33.5t56 86.5l316 555q17 33 10 44.5t-39 17.5v7h460q6 0 8.5 -1t5.5 -5.5t4 -14.5l16 -91h-10q-18 60 -52.5 81.5t-97.5 21.5h-192v-322h84q29 0 47.5 5.5t27.5 20t11 21t6 27.5h9v-157h-9zM176 245h269v473z
" />
    <glyph glyph-name="aeacute" unicode="&#x1fd;" horiz-adv-x="690" 
d="M340 534l-5 5l93 141q20 29 40 29q12 0 20 -8t8 -20q0 -18 -23 -37zM138 -5q-51 0 -82.5 25.5t-31.5 71.5q0 24 6.5 41t24 29.5t31 19t44 18.5t46.5 19l37 16q70 30 70 82v66q0 82 -85 82q-31 0 -45 -8.5t-25 -25.5q-24 -39 -49 -39q-13 0 -21 8.5t-8 19.5q0 24 44.5 39
t102.5 15q126 0 153 -64q66 66 148 66q65 0 113.5 -37.5t62.5 -114.5h-305q-7 -42 -7 -84q0 -125 48.5 -180t125.5 -55q71 0 128 45l6 -7q-64 -51 -150 -51q-61 0 -115 27.5t-86 80.5l-42 -41q-34 -33 -65 -48.5t-74 -15.5zM498 467q-39 0 -75 -32t-52 -101h234
q-3 71 -33 102t-74 31zM101 105q0 -92 66 -92q54 0 107 53l41 41q-32 56 -32 130v45q-15 -32 -69 -56l-37 -16q-76 -32 -76 -105z" />
    <glyph glyph-name="Oslashacute" unicode="&#x1fe;" horiz-adv-x="725" 
d="M274 778l-3 6l149 90q22 12 36 12q11 0 18.5 -7.5t7.5 -17.5q0 -27 -40 -38zM362 -8q-87 0 -166 54l-47 -96l-9 4l48 98q-69 50 -110.5 134t-41.5 190q0 85 28 157.5t74 121t104.5 76t119.5 27.5q81 0 152 -44l41 83l9 -5l-41 -83q75 -49 121 -135.5t46 -197.5
q0 -168 -99 -276t-229 -108zM124 376q0 -198 78 -296l302 613q-59 56 -142 56q-104 0 -171 -93t-67 -280zM362 1q105 0 172 93.5t67 281.5q0 212 -90 309l-302 -614q61 -70 153 -70z" />
    <glyph glyph-name="oslashacute" unicode="&#x1ff;" horiz-adv-x="505" 
d="M214 534l-5 5l93 141q20 29 40 29q12 0 20 -8t8 -20q0 -18 -23 -37zM252 -1q64 0 104 55.5t40 176.5q0 120 -43 183l13 26q-2 1 -8 5l35 66l8 -5l-35 -66q49 -32 79.5 -86t30.5 -123q0 -109 -70.5 -174.5t-153.5 -65.5q-54 0 -104 29l11 21q-1 1 -3.5 4.5t-3.5 4.5
l195 372q-37 46 -95 46q-62 0 -102.5 -58t-40.5 -179t43 -181l-12 -25q1 -1 4 -2.5t4 -2.5l-39 -74l-8 5l39 74q-50 31 -80.5 83.5t-30.5 122.5q0 109 70.5 177t152.5 68q53 0 106 -31l-11 -23q2 -2 6 -8l-194 -373q35 -42 93 -42z" />
    <glyph glyph-name="Scommaaccent" unicode="&#x218;" horiz-adv-x="519" 
d="M263 -7q-55 0 -95.5 13.5t-65.5 27t-44 13.5q-20 0 -26 -22h-9v169h9q12 -90 72.5 -141t158.5 -51q84 0 122.5 43t38.5 113q0 76 -38 115.5t-147 87.5q-105 46 -152.5 94.5t-47.5 122.5q0 82 60 130.5t148 48.5q63 0 113 -19t63 -19q20 0 28 24h9v-130h-9
q-33 135 -204 135q-71 0 -110 -31t-39 -90q0 -64 35 -101t125 -76q61 -26 95.5 -44t71 -47t52.5 -66t16 -86q0 -89 -66 -151.5t-164 -62.5zM266 -121q-12 -12 -29 -12q-16 0 -27 10.5t-11 27.5q0 19 12.5 30t30.5 11q21 0 35 -14.5t14 -40.5q0 -68 -72 -82l-4 7q56 12 56 49
q0 9 -5 14z" />
    <glyph glyph-name="scommaaccent" unicode="&#x219;" horiz-adv-x="367" 
d="M181 1q106 0 106 94q0 41 -26.5 65.5t-89.5 49.5q-67 26 -101.5 60t-34.5 83q0 58 40 90.5t102 32.5q45 0 75 -12.5t37 -12.5q13 0 17 17h8v-101h-8q-18 55 -48 77.5t-81 22.5q-45 0 -70 -20.5t-25 -57.5q0 -36 23.5 -56.5t85.5 -45.5q75 -31 110.5 -66t35.5 -89
q0 -62 -43 -100.5t-113 -38.5q-50 0 -87 18t-43 18q-13 0 -16 -18h-9v130h8q29 -140 147 -140zM201 -121q-12 -12 -29 -12q-16 0 -27 10.5t-11 27.5q0 19 12.5 30t30.5 11q21 0 35 -14.5t14 -40.5q0 -68 -72 -82l-4 7q56 12 56 49q0 9 -5 14z" />
    <glyph glyph-name="uni021A" unicode="&#x21a;" horiz-adv-x="606" 
d="M211 0v7q37 11 44.5 46.5t7.5 198.5v489h-82q-73 0 -108 -25t-53 -103h-10l16 116q1 15 4 18t12 3h522q9 0 12 -3t5 -18l15 -116h-10q-18 78 -53 103t-109 25h-80v-489q0 -163 7.5 -198.5t44.5 -46.5v-7h-185zM322 -121q-12 -12 -29 -12q-16 0 -27 10.5t-11 27.5
q0 19 12.5 30t30.5 11q21 0 35 -14.5t14 -40.5q0 -68 -72 -82l-4 7q56 12 56 49q0 9 -5 14z" />
    <glyph glyph-name="uni021B" unicode="&#x21b;" horiz-adv-x="252" 
d="M156 -6q-45 0 -71 25.5t-26 72.5v364h-41v9q94 13 107 143h9v-142h99v-10h-99v-338q0 -60 9 -84.5t38 -24.5q32 0 56 26l5 -5q-28 -36 -86 -36zM169 -121q-12 -12 -29 -12q-16 0 -27 10.5t-11 27.5q0 19 12.5 30t30.5 11q21 0 35 -14.5t14 -40.5q0 -68 -72 -82l-4 7
q56 12 56 49q0 9 -5 14z" />
    <glyph glyph-name="dotlessj" unicode="&#x237;" horiz-adv-x="206" 
d="M-25 -139q-16 0 -27.5 8t-11.5 23q0 14 9 21.5t22 7.5q17 0 34.5 -15.5t26.5 -15.5t14 4q23 17 23 132v255q0 89 -5 105.5t-36 19.5v8l116 62v-427q0 -95 -92 -161q-39 -27 -73 -27z" />
    <glyph glyph-name="circumflex" unicode="&#x2c6;" horiz-adv-x="446" 
d="M116 537l112 175l112 -175l-7 -4l-105 100l-105 -100z" />
    <glyph glyph-name="caron" unicode="&#x2c7;" horiz-adv-x="446" 
d="M116 714l7 4l105 -100l105 100l7 -4l-112 -175z" />
    <glyph glyph-name="breve" unicode="&#x2d8;" horiz-adv-x="446" 
d="M223 585q69 0 86 74h9q-2 -49 -26.5 -83.5t-68.5 -34.5q-46 0 -70 34t-26 85h9q14 -75 87 -75z" />
    <glyph glyph-name="dotaccent" unicode="&#x2d9;" horiz-adv-x="446" 
d="M222 559q-19 0 -32 13t-13 32t13 32t32 13t32 -13t13 -32t-13 -32t-32 -13z" />
    <glyph glyph-name="ring" unicode="&#x2da;" horiz-adv-x="446" 
d="M149 608q0 33 24 55t58 22t58 -22t24 -55t-23.5 -55t-58.5 -22t-58.5 21.5t-23.5 55.5zM183 608q0 -68 48 -68q23 0 35.5 18.5t12.5 49.5q0 30 -13 49t-35 19t-35 -19t-13 -49z" />
    <glyph glyph-name="ogonek" unicode="&#x2db;" horiz-adv-x="446" 
d="M218 -170q-33 0 -52 17.5t-19 46.5q0 40 39 67.5t76 38.5h12q-29 -12 -48.5 -36t-19.5 -56q0 -20 12 -33t33 -13q24 0 42 16l5 -5q-8 -14 -29 -28.5t-51 -14.5z" />
    <glyph glyph-name="tilde" unicode="&#x2dc;" horiz-adv-x="446" 
d="M179 635q13 0 52 -6t51 -6q24 0 48 47l7 -3q-10 -43 -28 -65t-35 -22q-15 0 -54.5 5.5t-50.5 5.5q-26 0 -55 -49l-6 3q13 43 33 66.5t38 23.5z" />
    <glyph glyph-name="hungarumlaut" unicode="&#x2dd;" horiz-adv-x="446" 
d="M251 540l-6 2l37 137q6 21 13.5 30t21.5 9q25 0 25 -25q0 -14 -12 -33zM134 540l-6 2l37 137q6 21 13 30t21 9q25 0 25 -25q0 -13 -11 -33z" />
    <glyph glyph-name="Wgrave" unicode="&#x1e80;" horiz-adv-x="900" 
d="M570 778l-168 45q-40 11 -40 38q0 10 7.5 17.5t18.5 7.5q14 0 36 -12l149 -90zM307 -5l-227 628q-3 7 -8 22t-7 20.5t-6.5 16.5t-6.5 15l-6 12t-7.5 11.5t-8 8.5t-10 8t-11.5 6v7h150v-7q-21 -6 -23 -23.5t13 -57.5l199 -558l104 287l-84 232q-2 6 -7 20t-7 19t-6 15.5
t-6 14t-5.5 11.5t-6 11.5t-6.5 8.5t-8 8t-8.5 6t-10.5 6v7h149v-7q-21 -6 -23 -23t13 -59l66 -183l53 146q18 41 17.5 73.5t-31.5 45.5v7h98v-7q-23 -9 -36 -29.5t-38 -89.5l-59 -160l128 -357l172 516q18 42 15.5 75t-35.5 45v7h105v-7q-24 -10 -38.5 -30.5t-36.5 -89.5
l-209 -628h-12l-138 382l-138 -382h-12z" />
    <glyph glyph-name="wgrave" unicode="&#x1e81;" horiz-adv-x="635" 
d="M364 534l-133 110q-23 19 -23 37q0 12 8 20t20 8q20 0 40 -29l93 -141zM194 -5l-129 360q-22 60 -35.5 79.5t-33.5 25.5v6h147v-6q-16 -3 -20.5 -10.5t-1 -28.5t18.5 -63l94 -270l85 200l-24 67q-23 62 -36 80.5t-32 24.5v6h146v-6q-23 -4 -24.5 -22t19.5 -80l94 -262
l89 240q20 53 21.5 80t-7 33.5t-32.5 10.5v6h107v-6q-24 -6 -37 -25.5t-42 -98.5l-126 -341h-11l-100 280l-119 -280h-11z" />
    <glyph glyph-name="Wacute" unicode="&#x1e82;" horiz-adv-x="900" 
d="M390 778l-3 6l149 90q22 12 36 12q11 0 18.5 -7.5t7.5 -17.5q0 -27 -40 -38zM307 -5l-227 628q-3 7 -8 22t-7 20.5t-6.5 16.5t-6.5 15l-6 12t-7.5 11.5t-8 8.5t-10 8t-11.5 6v7h150v-7q-21 -6 -23 -23.5t13 -57.5l199 -558l104 287l-84 232q-2 6 -7 20t-7 19t-6 15.5
t-6 14t-5.5 11.5t-6 11.5t-6.5 8.5t-8 8t-8.5 6t-10.5 6v7h149v-7q-21 -6 -23 -23t13 -59l66 -183l53 146q18 41 17.5 73.5t-31.5 45.5v7h98v-7q-23 -9 -36 -29.5t-38 -89.5l-59 -160l128 -357l172 516q18 42 15.5 75t-35.5 45v7h105v-7q-24 -10 -38.5 -30.5t-36.5 -89.5
l-209 -628h-12l-138 382l-138 -382h-12z" />
    <glyph glyph-name="wacute" unicode="&#x1e83;" horiz-adv-x="635" 
d="M268 534l-5 5l93 141q20 29 40 29q12 0 20 -8t8 -20q0 -18 -23 -37zM194 -5l-129 360q-22 60 -35.5 79.5t-33.5 25.5v6h147v-6q-16 -3 -20.5 -10.5t-1 -28.5t18.5 -63l94 -270l85 200l-24 67q-23 62 -36 80.5t-32 24.5v6h146v-6q-23 -4 -24.5 -22t19.5 -80l94 -262
l89 240q20 53 21.5 80t-7 33.5t-32.5 10.5v6h107v-6q-24 -6 -37 -25.5t-42 -98.5l-126 -341h-11l-100 280l-119 -280h-11z" />
    <glyph glyph-name="Wdieresis" unicode="&#x1e84;" horiz-adv-x="900" 
d="M574 783q-19 0 -31 12.5t-12 31.5q0 18 12 30.5t31 12.5q17 0 29.5 -12.5t12.5 -30.5q0 -19 -12.5 -31.5t-29.5 -12.5zM382 783q-17 0 -29.5 12.5t-12.5 31.5q0 18 12.5 30.5t29.5 12.5q19 0 31 -12.5t12 -30.5q0 -19 -12 -31.5t-31 -12.5zM307 -5l-227 628q-3 7 -8 22
t-7 20.5t-6.5 16.5t-6.5 15l-6 12t-7.5 11.5t-8 8.5t-10 8t-11.5 6v7h150v-7q-21 -6 -23 -23.5t13 -57.5l199 -558l104 287l-84 232q-2 6 -7 20t-7 19t-6 15.5t-6 14t-5.5 11.5t-6 11.5t-6.5 8.5t-8 8t-8.5 6t-10.5 6v7h149v-7q-21 -6 -23 -23t13 -59l66 -183l53 146
q18 41 17.5 73.5t-31.5 45.5v7h98v-7q-23 -9 -36 -29.5t-38 -89.5l-59 -160l128 -357l172 516q18 42 15.5 75t-35.5 45v7h105v-7q-24 -10 -38.5 -30.5t-36.5 -89.5l-209 -628h-12l-138 382l-138 -382h-12z" />
    <glyph glyph-name="wdieresis" unicode="&#x1e85;" horiz-adv-x="635" 
d="M386 560q-18 0 -30.5 12.5t-12.5 31.5q0 18 12.5 30t30.5 12t30.5 -12t12.5 -30q0 -19 -12.5 -31.5t-30.5 -12.5zM226 560q-18 0 -30.5 12.5t-12.5 31.5q0 18 12.5 30t30.5 12t30.5 -12t12.5 -30q0 -19 -12.5 -31.5t-30.5 -12.5zM194 -5l-129 360q-22 60 -35.5 79.5
t-33.5 25.5v6h147v-6q-16 -3 -20.5 -10.5t-1 -28.5t18.5 -63l94 -270l85 200l-24 67q-23 62 -36 80.5t-32 24.5v6h146v-6q-23 -4 -24.5 -22t19.5 -80l94 -262l89 240q20 53 21.5 80t-7 33.5t-32.5 10.5v6h107v-6q-24 -6 -37 -25.5t-42 -98.5l-126 -341h-11l-100 280
l-119 -280h-11z" />
    <glyph glyph-name="Ygrave" unicode="&#x1ef2;" horiz-adv-x="609" 
d="M436 778l-168 45q-40 11 -40 38q0 10 7.5 17.5t18.5 7.5q14 0 36 -12l149 -90zM216 0v7q37 11 44.5 46.5t7.5 198.5v117l-159 255q-5 8 -14 23t-13 21t-11 17t-10.5 15.5t-9 12t-9.5 11t-10 8t-11 7t-12 5.5v6h170v-6q-15 -4 -21 -12t-3 -23.5t18 -39.5l171 -278l141 233
q18 29 26 45.5t12 32.5t-3.5 26t-25.5 16v6h107v-6q-24 -10 -45 -33t-60 -87l-147 -242v-130q0 -163 7.5 -198.5t44.5 -46.5v-7h-185z" />
    <glyph glyph-name="ygrave" unicode="&#x1ef3;" horiz-adv-x="430" 
d="M300 534l-133 110q-23 19 -23 37q0 12 8 20t20 8q20 0 40 -29l93 -141zM96 -171q-39 0 -39 30t34 30q11 0 25 -6t20 -6q12 0 25.5 19t33.5 69l13 33l-143 359q-24 61 -37 79t-32 24v6h147v-6q-23 -4 -25 -20.5t21 -79.5l105 -272l100 248q21 51 22.5 78t-8 34.5
t-32.5 11.5v6h108v-6q-21 -5 -34 -25t-45 -99l-149 -371q-30 -75 -55 -105.5t-55 -30.5z" />
    <glyph glyph-name="endash" unicode="&#x2013;" horiz-adv-x="503" 
d="M41 275v12h421v-12h-421z" />
    <glyph glyph-name="emdash" unicode="&#x2014;" horiz-adv-x="881" 
d="M41 275v12h799v-12h-799z" />
    <glyph glyph-name="quoteleft" unicode="&#x2018;" horiz-adv-x="174" 
d="M66 664q9 13 31 13q17 0 29 -11.5t12 -30.5q0 -20 -13 -32t-32 -12q-23 0 -39 17t-16 50q0 76 74 121l5 -6q-58 -40 -58 -89q0 -14 7 -20z" />
    <glyph glyph-name="quoteright" unicode="&#x2019;" horiz-adv-x="174" 
d="M108 690q-11 -13 -31 -13q-17 0 -29 11.5t-12 30.5q0 20 13 32.5t32 12.5q23 0 39 -17t16 -50q0 -77 -74 -122l-5 7q58 40 58 89q0 15 -7 19z" />
    <glyph glyph-name="quotesinglbase" unicode="&#x201a;" horiz-adv-x="174" 
d="M108 26q-11 -13 -31 -13q-17 0 -29 11.5t-12 30.5q0 20 13 32.5t32 12.5q23 0 39 -17t16 -50q0 -77 -74 -122l-5 7q58 40 58 89q0 15 -7 19z" />
    <glyph glyph-name="quotedblleft" unicode="&#x201c;" horiz-adv-x="296" 
d="M66 664q9 13 31 13q17 0 29 -11.5t12 -30.5q0 -20 -13 -32t-32 -12q-23 0 -39 17t-16 50q0 76 74 121l5 -6q-58 -40 -58 -89q0 -14 7 -20zM188 664q9 13 31 13q17 0 29 -11.5t12 -30.5q0 -20 -13 -32t-32 -12q-23 0 -39 17t-16 50q0 76 74 121l5 -6q-58 -40 -58 -89
q0 -14 7 -20z" />
    <glyph glyph-name="quotedblright" unicode="&#x201d;" horiz-adv-x="296" 
d="M230 690q-11 -13 -31 -13q-17 0 -29 11.5t-12 30.5q0 20 13 32.5t32 12.5q23 0 39 -17t16 -50q0 -77 -74 -122l-5 7q58 40 58 89q0 15 -7 19zM108 690q-11 -13 -31 -13q-17 0 -29 11.5t-12 30.5q0 20 13 32.5t32 12.5q23 0 39 -17t16 -50q0 -77 -74 -122l-5 7
q58 40 58 89q0 15 -7 19z" />
    <glyph glyph-name="quotedblbase" unicode="&#x201e;" horiz-adv-x="296" 
d="M230 26q-11 -13 -31 -13q-17 0 -29 11.5t-12 30.5q0 20 13 32.5t32 12.5q23 0 39 -17t16 -50q0 -77 -74 -122l-5 7q58 40 58 89q0 15 -7 19zM108 26q-11 -13 -31 -13q-17 0 -29 11.5t-12 30.5q0 20 13 32.5t32 12.5q23 0 39 -17t16 -50q0 -77 -74 -122l-5 7q58 40 58 89
q0 15 -7 19z" />
    <glyph glyph-name="dagger" unicode="&#x2020;" horiz-adv-x="333" 
d="M164 -2q-1 97 -13 258.5t-17 199.5q28 70 28 122q-20 0 -57 -14t-53 -14q-19 0 -29 10t-10 23q0 14 10 23.5t29 9.5q16 0 53 -14.5t57 -14.5q0 19 -16.5 66.5t-16.5 61.5q0 19 10.5 30t27.5 11t27.5 -11t10.5 -30q0 -14 -16.5 -61.5t-16.5 -66.5q20 0 56 14.5t54 14.5
q19 0 29 -9.5t10 -23.5q0 -13 -10.5 -23t-28.5 -10t-54.5 14t-55.5 14q0 -52 28 -122q-5 -34 -16.5 -197.5t-11.5 -260.5h-8z" />
    <glyph glyph-name="daggerdbl" unicode="&#x2021;" horiz-adv-x="333" 
d="M167 -8q-17 0 -27.5 11t-10.5 30q0 14 16.5 61.5t16.5 66.5q-20 0 -57 -14.5t-53 -14.5q-19 0 -29 9.5t-10 23.5q0 13 10 23t29 10q16 0 53 -14t57 -14q0 132 -34 204q34 70 34 204q-20 0 -57 -14t-53 -14q-19 0 -29 10t-10 23q0 14 10 23.5t29 9.5q16 0 53 -14.5
t57 -14.5q0 19 -16.5 66.5t-16.5 61.5q0 19 10.5 30t27.5 11t27.5 -11t10.5 -30q0 -14 -16.5 -61.5t-16.5 -66.5q20 0 56 14.5t54 14.5q19 0 29 -9.5t10 -23.5q0 -13 -10.5 -23t-28.5 -10t-54.5 14t-55.5 14q0 -134 34 -204q-34 -70 -34 -204q19 0 55.5 14t54.5 14t28.5 -10
t10.5 -23q0 -14 -10 -23.5t-29 -9.5q-18 0 -54 14.5t-56 14.5q0 -19 16.5 -66.5t16.5 -61.5q0 -19 -10.5 -30t-27.5 -11z" />
    <glyph glyph-name="bullet" unicode="&#x2022;" horiz-adv-x="327" 
d="M163 402q47 0 81 -33.5t34 -81.5t-33.5 -81t-81.5 -33t-81 33t-33 81t33 81.5t81 33.5z" />
    <glyph glyph-name="ellipsis" unicode="&#x2026;" horiz-adv-x="594" 
d="M492 -10q-21 0 -35.5 13.5t-14.5 34.5t14.5 35t35.5 14q20 0 34 -14t14 -35t-14 -34.5t-34 -13.5zM297 -10q-21 0 -35.5 13.5t-14.5 34.5t14.5 35t35.5 14q20 0 34 -14t14 -35t-14 -34.5t-34 -13.5zM102 -10q-21 0 -35.5 13.5t-14.5 34.5t14.5 35t35.5 14q20 0 34 -14
t14 -35t-14 -34.5t-34 -13.5z" />
    <glyph glyph-name="perthousand" unicode="&#x2030;" horiz-adv-x="1118" 
d="M189 379q-62 0 -114 53.5t-52 135.5t52 135t114 53q63 0 115.5 -53t52.5 -135t-53 -135.5t-115 -53.5zM128 -2l-13 8l491 748l12 -8zM189 388q41 0 74 45t33 135t-32.5 134.5t-74.5 44.5q-40 0 -72.5 -44.5t-32.5 -134.5t32.5 -135t72.5 -45zM545 -6q-62 0 -114 53.5
t-52 135.5t52 135t114 53q63 0 115.5 -53t52.5 -135t-53 -135.5t-115 -53.5zM928 -6q-62 0 -114 53.5t-52 135.5t52 135t114 53t114.5 -53t52.5 -135t-52.5 -135.5t-114.5 -53.5zM545 3q41 0 74 45t33 135t-32.5 134.5t-74.5 44.5q-40 0 -72.5 -44.5t-32.5 -134.5t32.5 -135
t72.5 -45zM928 3q41 0 74 45t33 135t-32.5 134.5t-74.5 44.5q-40 0 -72.5 -44.5t-32.5 -134.5t32.5 -135t72.5 -45z" />
    <glyph glyph-name="minute" unicode="&#x2032;" horiz-adv-x="135" 
d="M37 580l-7 1q9 38 9 108q0 69 39 69q16 0 24.5 -10t8.5 -24q0 -23 -26 -61q-34 -50 -48 -83z" />
    <glyph glyph-name="second" unicode="&#x2033;" horiz-adv-x="231" 
d="M37 580l-7 1q9 38 9 108q0 69 39 69q16 0 24.5 -10t8.5 -24q0 -23 -26 -61q-34 -50 -48 -83zM133 580l-7 1q9 38 9 108q0 69 39 69q16 0 24.5 -10t8.5 -24q0 -23 -26 -61q-34 -50 -48 -83z" />
    <glyph glyph-name="guilsinglleft" unicode="&#x2039;" horiz-adv-x="224" 
d="M177 67l-131 159v8l130 159l6 -4l-74 -159l75 -159z" />
    <glyph glyph-name="guilsinglright" unicode="&#x203a;" horiz-adv-x="224" 
d="M48 67l-6 4l75 159l-74 159l6 4l130 -159v-8z" />
    <glyph glyph-name="fraction" unicode="&#x2044;" horiz-adv-x="497" 
d="M63 371v8h371v-8h-371z" />
    <glyph glyph-name="Euro" unicode="&#x20ac;" horiz-adv-x="617" 
d="M9 335v11h73q-1 10 -1 30q0 16 2 44h-74v11h75q15 153 102.5 240t191.5 87q86 0 141.5 -37t55.5 -72q0 -13 -8 -22t-22 -9q-33 0 -42 39q-13 45 -26 61q-28 31 -99 31q-89 0 -145.5 -80.5t-63.5 -237.5h264v-11h-265v-29q0 -31 1 -45h264v-11h-264q10 -168 70 -246.5
t144 -78.5q50 0 90 17.5t58.5 35.5t41.5 46l7 -6q-80 -109 -210 -109q-119 0 -198 95t-90 246h-73z" />
    <glyph glyph-name="trademark" unicode="&#x2122;" horiz-adv-x="679" 
d="M107 446v4q11 3 15 9.5t5.5 24.5t1.5 64v197h-34q-29 0 -43 -11t-22 -44h-5l7 52q1 6 2 7t5 1h225q6 0 7 -8l6 -52h-5q-7 33 -21 44t-44 11h-33v-197q0 -64 3.5 -78.5t19.5 -19.5v-4h-90zM308 446v4q15 4 18.5 19.5t3.5 83.5v90q0 69 -3 84t-18 19v4h70q4 0 7 -7l92 -236
l101 243h68v-4q-15 -4 -18 -19t-3 -84v-90q0 -68 3.5 -83.5t18.5 -19.5v-4h-89v4q15 4 18 19t3 84v185l-121 -293h-6l-118 295v-187q0 -68 3.5 -83.5t17.5 -19.5v-4h-48z" />
    <glyph glyph-name="onethird" unicode="&#x2153;" horiz-adv-x="497" 
d="M316 465h-134v6q20 3 27.5 11.5t10.5 34.5t3 92v72q0 65 -5.5 77.5t-34.5 11.5v6l94 66v-233q0 -68 2.5 -92.5t9.5 -33.5t27 -12v-6zM63 371v8h371v-8h-371zM144 271q4 14 9 14h200v-5l-133 -143q16 9 35 9q50 0 83 -29t33 -81q0 -48 -40.5 -86t-104.5 -38
q-44 0 -71.5 18t-27.5 39q0 23 23 23q11 0 16 -5.5t8 -17.5l2 -7q1 -7 2.5 -10.5t5.5 -11t9 -11t13.5 -7t19.5 -3.5q44 0 66.5 35t22.5 82q0 46 -15 74.5t-46 28.5q-33 0 -61 -30l-4 4l115 125h-62q-41 0 -57 -0.5t-29 -3.5t-15.5 -7t-6.5 -14h-6z" />
    <glyph glyph-name="twothirds" unicode="&#x2154;" horiz-adv-x="497" 
d="M262 511q65 0 81 4.5t24 24.5h6l-16 -55q-10 -19 -15 -20h-218l99 111q73 83 73 170t-57 87q-9 0 -16 -2t-12 -6t-8.5 -7.5t-6 -9.5t-3.5 -9t-2.5 -8t-1.5 -6q-5 -24 -27 -24q-24 0 -24 24q0 19 27 37t74 18q51 0 83 -23t32 -69q0 -44 -27.5 -82.5t-83.5 -91.5l-68 -63
h87zM63 371v8h371v-8h-371zM144 271q4 14 9 14h200v-5l-133 -143q16 9 35 9q50 0 83 -29t33 -81q0 -48 -40.5 -86t-104.5 -38q-44 0 -71.5 18t-27.5 39q0 23 23 23q11 0 16 -5.5t8 -17.5l2 -7q1 -7 2.5 -10.5t5.5 -11t9 -11t13.5 -7t19.5 -3.5q44 0 66.5 35t22.5 82
q0 46 -15 74.5t-46 28.5q-33 0 -61 -30l-4 4l115 125h-62q-41 0 -57 -0.5t-29 -3.5t-15.5 -7t-6.5 -14h-6z" />
    <glyph glyph-name="oneeighth" unicode="&#x215b;" horiz-adv-x="497" 
d="M316 465h-134v6q20 3 27.5 11.5t10.5 34.5t3 92v72q0 65 -5.5 77.5t-34.5 11.5v6l94 66v-233q0 -68 2.5 -92.5t9.5 -33.5t27 -12v-6zM63 371v8h371v-8h-371zM370 21q0 -46 -36 -78t-86 -32q-56 0 -88.5 26t-32.5 67q0 61 86 98q-43 25 -60.5 46.5t-17.5 52.5
q0 42 31.5 65t77.5 23q50 0 78 -21t28 -54q0 -24 -19.5 -47.5t-48.5 -39.5q47 -25 67.5 -46.5t20.5 -59.5zM253 143q2 -1 23 -13q42 29 42 82q0 70 -74 70q-31 0 -50 -15.5t-19 -42.5t16 -41.5t62 -39.5zM248 -82q37 0 58 22.5t21 54.5q0 31 -19 49t-68 43q-14 8 -21 11
q-55 -30 -55 -93q0 -87 84 -87z" />
    <glyph glyph-name="threeeighths" unicode="&#x215c;" horiz-adv-x="497" 
d="M144 822q4 14 9 14h200v-5l-133 -143q16 9 35 9q50 0 83 -29t33 -81q0 -48 -40.5 -86t-104.5 -38q-44 0 -71.5 18t-27.5 39q0 23 23 23q11 0 16 -5.5t8 -17.5l2 -7q1 -7 2.5 -10.5t5.5 -11t9 -11t13.5 -7t19.5 -3.5q44 0 66.5 35t22.5 82q0 46 -15 74.5t-46 28.5
q-33 0 -61 -30l-4 4l115 125h-62q-41 0 -57 -0.5t-29 -3.5t-15.5 -7t-6.5 -14h-6zM63 371v8h371v-8h-371zM370 21q0 -46 -36 -78t-86 -32q-56 0 -88.5 26t-32.5 67q0 61 86 98q-43 25 -60.5 46.5t-17.5 52.5q0 42 31.5 65t77.5 23q50 0 78 -21t28 -54q0 -24 -19.5 -47.5
t-48.5 -39.5q47 -25 67.5 -46.5t20.5 -59.5zM253 143q2 -1 23 -13q42 29 42 82q0 70 -74 70q-31 0 -50 -15.5t-19 -42.5t16 -41.5t62 -39.5zM248 -82q37 0 58 22.5t21 54.5q0 31 -19 49t-68 43q-14 8 -21 11q-55 -30 -55 -93q0 -87 84 -87z" />
    <glyph glyph-name="fiveeighths" unicode="&#x215d;" horiz-adv-x="497" 
d="M342 789h-150l-27 -105q33 28 82 28q53 0 89.5 -30t36.5 -85q0 -58 -39 -96t-105 -38q-46 0 -75 18t-29 39q0 24 25 24q20 0 25 -28l1 -4l1.5 -7.5t2 -7.5t4 -8t6.5 -7t9 -6.5t13 -4t17 -1.5q42 0 64.5 36.5t22.5 90.5q0 108 -70 108q-53 0 -87 -34l-4 2l42 163h168
l-13 -37q-3 -10 -10 -10zM63 371v8h371v-8h-371zM370 21q0 -46 -36 -78t-86 -32q-56 0 -88.5 26t-32.5 67q0 61 86 98q-43 25 -60.5 46.5t-17.5 52.5q0 42 31.5 65t77.5 23q50 0 78 -21t28 -54q0 -24 -19.5 -47.5t-48.5 -39.5q47 -25 67.5 -46.5t20.5 -59.5zM253 143
q2 -1 23 -13q42 29 42 82q0 70 -74 70q-31 0 -50 -15.5t-19 -42.5t16 -41.5t62 -39.5zM248 -82q37 0 58 22.5t21 54.5q0 31 -19 49t-68 43q-14 8 -21 11q-55 -30 -55 -93q0 -87 84 -87z" />
    <glyph glyph-name="seveneighths" unicode="&#x215e;" horiz-adv-x="497" 
d="M369 832l-150 -367h-8l133 325h-106q-45 0 -63 -2.5t-26 -9.5t-13 -24h-7l19 68q4 14 12 14h209v-4zM63 371v8h371v-8h-371zM370 21q0 -46 -36 -78t-86 -32q-56 0 -88.5 26t-32.5 67q0 61 86 98q-43 25 -60.5 46.5t-17.5 52.5q0 42 31.5 65t77.5 23q50 0 78 -21t28 -54
q0 -24 -19.5 -47.5t-48.5 -39.5q47 -25 67.5 -46.5t20.5 -59.5zM253 143q2 -1 23 -13q42 29 42 82q0 70 -74 70q-31 0 -50 -15.5t-19 -42.5t16 -41.5t62 -39.5zM248 -82q37 0 58 22.5t21 54.5q0 31 -19 49t-68 43q-14 8 -21 11q-55 -30 -55 -93q0 -87 84 -87z" />
    <glyph glyph-name="arrowleft" unicode="&#x2190;" horiz-adv-x="774" 
d="M37 361q73 19 173.5 84t130.5 135l8 -3q-31 -92 -72 -140.5t-93 -75.5h544v-10h-544q52 -27 93 -75.5t72 -140.5l-8 -3q-21 49 -81 98t-120 79.5t-103 41.5v10z" />
    <glyph glyph-name="arrowright" unicode="&#x2192;" horiz-adv-x="774" 
d="M45 351v10h544q-52 27 -92.5 75.5t-71.5 140.5l8 3q30 -70 130.5 -135t172.5 -84v-10q-43 -11 -102.5 -41.5t-119.5 -79.5t-81 -98l-8 3q31 92 71.5 140.5t92.5 75.5h-544z" />
    <glyph glyph-name="minus" unicode="&#x2212;" horiz-adv-x="461" 
d="M45 345v12h371v-12h-371z" />
    <glyph glyph-name="Pcircle" unicode="&#x24c5;" horiz-adv-x="836" 
d="M419 759q158 0 271.5 -113t113.5 -272q0 -158 -113.5 -271.5t-271.5 -113.5q-160 0 -273.5 113.5t-113.5 271.5q0 159 113.5 272t273.5 113zM419 -2q154 0 264.5 110t110.5 266t-110.5 266t-264.5 110t-266 -110t-112 -266t112 -266t266 -110zM284 148v6q22 5 26.5 26.5
t4.5 118.5v148q0 97 -4.5 118.5t-26.5 26.5v6h153q169 0 169 -115q0 -63 -48 -95t-121 -32h-59v-57q0 -97 4.5 -118.5t27.5 -26.5v-6h-126zM436 590h-58v-226h57q23 0 39.5 3.5t34 14t27 34.5t9.5 61t-9.5 61.5t-27.5 35t-33.5 13.5t-38.5 3z" />
    <glyph glyph-name="commaaccent" unicode="&#xf6c3;" horiz-adv-x="500" 
d="M274 -121q-12 -12 -29 -12q-16 0 -27 10.5t-11 27.5q0 19 12.5 30t30.5 11q21 0 35 -14.5t14 -40.5q0 -68 -72 -82l-4 7q56 12 56 49q0 9 -5 14z" />
    <glyph glyph-name="fi" unicode="&#xfb01;" horiz-adv-x="433" 
d="M25 0v7q29 8 34.5 30.5t5.5 115.5v303h-49v8q31 5 40 21.5t9 70.5v26q0 93 39 136.5t92 43.5q34 0 57 -12.5t23 -33.5q0 -12 -7.5 -20.5t-20.5 -8.5q-28 0 -34 29q-4 18 -5.5 24t-6.5 9.5t-15 3.5q-24 0 -35.5 -27t-11.5 -98v-162h107l116 9v-322q0 -93 6.5 -115.5
t38.5 -30.5v-7h-163v7q31 8 37 30.5t6 115.5v209q0 66 -5 78.5t-36 15.5h-107v-303q0 -93 8.5 -115.5t50.5 -30.5v-7h-174zM324 559q-19 0 -32 13t-13 32t13 32t32 13t32 -13t13 -32t-13 -32t-32 -13z" />
    <glyph glyph-name="fl" unicode="&#xfb02;" horiz-adv-x="433" 
d="M25 0v7q29 8 34.5 30.5t5.5 115.5v303h-49v8q31 5 40 21.5t9 70.5v18q0 96 43 140.5t103 44.5q48 0 73 -22l79 38v-622q0 -93 6.5 -115.5t38.5 -30.5v-7h-163v7q31 8 37 30.5t6 115.5v423q0 86 -3 105q-6 -2 -11 -2q-26 0 -33 29q-6 27 -12 34.5t-25 7.5q-64 0 -64 -125
v-159h93v-10h-93v-303q0 -93 8.5 -115.5t50.5 -30.5v-7h-174z" />
    <glyph glyph-name="A.alt" horiz-adv-x="636" 
d="M324 756l232 -619q4 -10 10 -26t8.5 -23t7 -18.5t7 -16.5l6.5 -13t7 -12t7.5 -8.5t9 -7.5t9.5 -6v-6h-156q2 0 2 3t-2 3q25 6 28 24t-13 61l-52 141h-303l-38 -106q-19 -46 -16.5 -76.5t36.5 -43.5v-6h-106v6q23 10 37 31t40 90l227 629h12zM135 240h297l-150 406z" />
    <glyph glyph-name="Agrave.alt" horiz-adv-x="636" 
d="M410 778l-168 45q-40 11 -40 38q0 10 7.5 17.5t18.5 7.5q14 0 36 -12l149 -90zM324 756l232 -619q4 -10 10 -26t8.5 -23t7 -18.5t7 -16.5l6.5 -13t7 -12t7.5 -8.5t9 -7.5t9.5 -6v-6h-156q2 0 2 3t-2 3q25 6 28 24t-13 61l-52 141h-303l-38 -106q-19 -46 -16.5 -76.5
t36.5 -43.5v-6h-106v6q23 10 37 31t40 90l227 629h12zM135 240h297l-150 406z" />
    <glyph glyph-name="Aacute.alt" horiz-adv-x="636" 
d="M230 778l-3 6l149 90q22 12 36 12q11 0 18.5 -7.5t7.5 -17.5q0 -27 -40 -38zM324 756l232 -619q4 -10 10 -26t8.5 -23t7 -18.5t7 -16.5l6.5 -13t7 -12t7.5 -8.5t9 -7.5t9.5 -6v-6h-156q2 0 2 3t-2 3q25 6 28 24t-13 61l-52 141h-303l-38 -106q-19 -46 -16.5 -76.5
t36.5 -43.5v-6h-106v6q23 10 37 31t40 90l227 629h12zM135 240h297l-150 406z" />
    <glyph glyph-name="Acircumflex.alt" horiz-adv-x="636" 
d="M192 782l126 106l126 -106l-4 -5l-122 50l-122 -50zM324 756l232 -619q4 -10 10 -26t8.5 -23t7 -18.5t7 -16.5l6.5 -13t7 -12t7.5 -8.5t9 -7.5t9.5 -6v-6h-156q2 0 2 3t-2 3q25 6 28 24t-13 61l-52 141h-303l-38 -106q-19 -46 -16.5 -76.5t36.5 -43.5v-6h-106v6
q23 10 37 31t40 90l227 629h12zM135 240h297l-150 406z" />
    <glyph glyph-name="Atilde.alt" horiz-adv-x="636" 
d="M281 864q11 0 54 -6.5t54 -6.5q24 0 51 46l7 -2q-13 -44 -31 -65.5t-36 -21.5q-14 0 -57 6t-53 6q-26 0 -58 -47l-6 2q15 44 35.5 66.5t39.5 22.5zM324 756l232 -619q4 -10 10 -26t8.5 -23t7 -18.5t7 -16.5l6.5 -13t7 -12t7.5 -8.5t9 -7.5t9.5 -6v-6h-156q2 0 2 3t-2 3
q25 6 28 24t-13 61l-52 141h-303l-38 -106q-19 -46 -16.5 -76.5t36.5 -43.5v-6h-106v6q23 10 37 31t40 90l227 629h12zM135 240h297l-150 406z" />
    <glyph glyph-name="Adieresis.alt" horiz-adv-x="636" 
d="M414 783q-19 0 -31 12.5t-12 31.5q0 18 12 30.5t31 12.5q17 0 29.5 -12.5t12.5 -30.5q0 -19 -12.5 -31.5t-29.5 -12.5zM222 783q-17 0 -29.5 12.5t-12.5 31.5q0 18 12.5 30.5t29.5 12.5q19 0 31 -12.5t12 -30.5q0 -19 -12 -31.5t-31 -12.5zM324 756l232 -619
q4 -10 10 -26t8.5 -23t7 -18.5t7 -16.5l6.5 -13t7 -12t7.5 -8.5t9 -7.5t9.5 -6v-6h-156q2 0 2 3t-2 3q25 6 28 24t-13 61l-52 141h-303l-38 -106q-19 -46 -16.5 -76.5t36.5 -43.5v-6h-106v6q23 10 37 31t40 90l227 629h12zM135 240h297l-150 406z" />
    <glyph glyph-name="Aring.alt" horiz-adv-x="636" 
d="M239 852q0 32 24 54.5t55 22.5q32 0 55.5 -22.5t23.5 -54.5q0 -33 -23.5 -55t-55.5 -22t-55.5 22t-23.5 55zM274 852q0 -31 12 -49.5t32 -18.5t32 18.5t12 49.5q0 30 -12 49.5t-32 19.5q-19 0 -31.5 -19.5t-12.5 -49.5zM324 756l232 -619q4 -10 10 -26t8.5 -23t7 -18.5
t7 -16.5l6.5 -13t7 -12t7.5 -8.5t9 -7.5t9.5 -6v-6h-156q2 0 2 3t-2 3q25 6 28 24t-13 61l-52 141h-303l-38 -106q-19 -46 -16.5 -76.5t36.5 -43.5v-6h-106v6q23 10 37 31t40 90l227 629h12zM135 240h297l-150 406z" />
    <glyph glyph-name="Amacron.alt" horiz-adv-x="636" 
d="M421 831v-35h-206v35h206zM324 756l232 -619q4 -10 10 -26t8.5 -23t7 -18.5t7 -16.5l6.5 -13t7 -12t7.5 -8.5t9 -7.5t9.5 -6v-6h-156q2 0 2 3t-2 3q25 6 28 24t-13 61l-52 141h-303l-38 -106q-19 -46 -16.5 -76.5t36.5 -43.5v-6h-106v6q23 10 37 31t40 90l227 629h12z
M135 240h297l-150 406z" />
    <glyph glyph-name="Abreve.alt" horiz-adv-x="636" 
d="M319 827q71 0 91 54h9q-5 -37 -29 -67.5t-71 -30.5q-48 0 -72 30.5t-29 68.5h9q17 -55 92 -55zM324 756l232 -619q4 -10 10 -26t8.5 -23t7 -18.5t7 -16.5l6.5 -13t7 -12t7.5 -8.5t9 -7.5t9.5 -6v-6h-156q2 0 2 3t-2 3q25 6 28 24t-13 61l-52 141h-303l-38 -106
q-19 -46 -16.5 -76.5t36.5 -43.5v-6h-106v6q23 10 37 31t40 90l227 629h12zM135 240h297l-150 406z" />
    <glyph glyph-name="Aogonek.alt" horiz-adv-x="636" 
d="M8 0v6q23 10 37 31t40 90l227 629h12l232 -619q4 -10 10 -26t8.5 -23t7 -18.5t7 -16.5l6.5 -13t7 -12t7.5 -8.5t9 -7.5t9.5 -6v-6h-79q-37 0 -63.5 -28t-26.5 -64q0 -20 11.5 -33t32.5 -13q26 0 42 16l6 -5q-29 -43 -80 -43q-33 0 -52 17t-19 47q0 39 37.5 66t81.5 43
l-84 229h-303l-38 -106q-19 -46 -16.5 -76.5t36.5 -43.5v-6h-106zM136 241h295l-149 405z" />
    <glyph glyph-name="Aringacute.alt" horiz-adv-x="636" 
d="M230 930l-3 6l149 90q22 12 36 12q11 0 18.5 -7.5t7.5 -17.5q0 -27 -40 -38zM239 852q0 32 24 54.5t55 22.5q32 0 55.5 -22.5t23.5 -54.5q0 -33 -23.5 -55t-55.5 -22t-55.5 22t-23.5 55zM274 852q0 -31 12 -49.5t32 -18.5t32 18.5t12 49.5q0 30 -12 49.5t-32 19.5
q-19 0 -31.5 -19.5t-12.5 -49.5zM324 756l232 -619q4 -10 10 -26t8.5 -23t7 -18.5t7 -16.5l6.5 -13t7 -12t7.5 -8.5t9 -7.5t9.5 -6v-6h-156q2 0 2 3t-2 3q25 6 28 24t-13 61l-52 141h-303l-38 -106q-19 -46 -16.5 -76.5t36.5 -43.5v-6h-106v6q23 10 37 31t40 90l227 629h12z
M135 240h297l-150 406z" />
    <glyph glyph-name="C.alt" horiz-adv-x="641" 
d="M376 2q178 0 217 157h9v-153h-9q-8 28 -31 28q-15 0 -38 -10t-60.5 -20.5t-87.5 -10.5q-154 0 -246.5 104.5t-92.5 278.5q0 94 30 169.5t79 120.5t107.5 68.5t120.5 23.5q66 0 118 -21t65 -21q22 0 30 28h10v-153h-10q-19 82 -75.5 120t-137.5 38q-113 0 -181.5 -88.5
t-68.5 -269.5q0 -102 22 -179.5t59 -122t80 -66t91 -21.5z" />
    <glyph glyph-name="Ccedilla.alt" horiz-adv-x="641" 
d="M376 2q178 0 217 157h9v-153h-9q-8 28 -31 28q-15 0 -38 -10t-60.5 -20.5t-87.5 -10.5q-21 0 -31 1l-28 -47q40 -4 67 -22.5t27 -48.5q0 -73 -148 -76l-1 8q51 4 76 19t25 36q0 38 -77 42l-3 5l52 85q-137 14 -217.5 116.5t-80.5 264.5q0 94 30 169.5t79 120.5
t107.5 68.5t120.5 23.5q66 0 118 -21t65 -21q22 0 30 28h10v-153h-10q-19 82 -75.5 120t-137.5 38q-113 0 -181.5 -88.5t-68.5 -269.5q0 -102 22 -179.5t59 -122t80 -66t91 -21.5z" />
    <glyph glyph-name="Cacute.alt" horiz-adv-x="641" 
d="M279 778l-3 6l149 90q22 12 36 12q11 0 18.5 -7.5t7.5 -17.5q0 -27 -40 -38zM376 2q178 0 217 157h9v-153h-9q-8 28 -31 28q-15 0 -38 -10t-60.5 -20.5t-87.5 -10.5q-154 0 -246.5 104.5t-92.5 278.5q0 94 30 169.5t79 120.5t107.5 68.5t120.5 23.5q66 0 118 -21t65 -21
q22 0 30 28h10v-153h-10q-19 82 -75.5 120t-137.5 38q-113 0 -181.5 -88.5t-68.5 -269.5q0 -102 22 -179.5t59 -122t80 -66t91 -21.5z" />
    <glyph glyph-name="Ccircumflex.alt" horiz-adv-x="641" 
d="M241 782l126 106l126 -106l-4 -5l-122 50l-122 -50zM376 2q178 0 217 157h9v-153h-9q-8 28 -31 28q-15 0 -38 -10t-60.5 -20.5t-87.5 -10.5q-154 0 -246.5 104.5t-92.5 278.5q0 94 30 169.5t79 120.5t107.5 68.5t120.5 23.5q66 0 118 -21t65 -21q22 0 30 28h10v-153h-10
q-19 82 -75.5 120t-137.5 38q-113 0 -181.5 -88.5t-68.5 -269.5q0 -102 22 -179.5t59 -122t80 -66t91 -21.5z" />
    <glyph glyph-name="Cdotaccent.alt" horiz-adv-x="641" 
d="M367 783q-19 0 -32 13.5t-13 32.5t13 31.5t32 12.5t32 -12.5t13 -31.5t-13 -32.5t-32 -13.5zM376 2q178 0 217 157h9v-153h-9q-8 28 -31 28q-15 0 -38 -10t-60.5 -20.5t-87.5 -10.5q-154 0 -246.5 104.5t-92.5 278.5q0 94 30 169.5t79 120.5t107.5 68.5t120.5 23.5
q66 0 118 -21t65 -21q22 0 30 28h10v-153h-10q-19 82 -75.5 120t-137.5 38q-113 0 -181.5 -88.5t-68.5 -269.5q0 -102 22 -179.5t59 -122t80 -66t91 -21.5z" />
    <glyph glyph-name="Ccaron.alt" horiz-adv-x="641" 
d="M241 885l4 5l122 -50l122 50l4 -5l-126 -106zM376 2q178 0 217 157h9v-153h-9q-8 28 -31 28q-15 0 -38 -10t-60.5 -20.5t-87.5 -10.5q-154 0 -246.5 104.5t-92.5 278.5q0 94 30 169.5t79 120.5t107.5 68.5t120.5 23.5q66 0 118 -21t65 -21q22 0 30 28h10v-153h-10
q-19 82 -75.5 120t-137.5 38q-113 0 -181.5 -88.5t-68.5 -269.5q0 -102 22 -179.5t59 -122t80 -66t91 -21.5z" />
    <glyph glyph-name="G.alt" horiz-adv-x="673" 
d="M364 -8q-153 0 -242.5 107t-89.5 282q0 94 30 168t79.5 118t108 67t121.5 23q50 0 85.5 -10.5t57.5 -20.5t39 -10q22 0 30 28h9v-153h-9q-36 157 -212 157q-252 0 -252 -357q0 -391 245 -391q76 0 125 23.5t49 70.5v44q0 62 -0.5 96t-2.5 65t-5 44t-10 24t-15 14t-22 6v7
h133v-379h-8q-1 15 -7.5 20.5t-21.5 5.5q-14 0 -41.5 -12t-72 -24.5t-101.5 -12.5z" />
    <glyph glyph-name="Gcircumflex.alt" horiz-adv-x="673" 
d="M241 782l126 106l126 -106l-4 -5l-122 50l-122 -50zM364 -8q-153 0 -242.5 107t-89.5 282q0 94 30 168t79.5 118t108 67t121.5 23q50 0 85.5 -10.5t57.5 -20.5t39 -10q22 0 30 28h9v-153h-9q-36 157 -212 157q-252 0 -252 -357q0 -391 245 -391q76 0 125 23.5t49 70.5v44
q0 62 -0.5 96t-2.5 65t-5 44t-10 24t-15 14t-22 6v7h133v-379h-8q-1 15 -7.5 20.5t-21.5 5.5q-14 0 -41.5 -12t-72 -24.5t-101.5 -12.5z" />
    <glyph glyph-name="Gbreve.alt" horiz-adv-x="673" 
d="M368 827q71 0 91 54h9q-5 -37 -29 -67.5t-71 -30.5q-48 0 -72 30.5t-29 68.5h9q17 -55 92 -55zM364 -8q-153 0 -242.5 107t-89.5 282q0 94 30 168t79.5 118t108 67t121.5 23q50 0 85.5 -10.5t57.5 -20.5t39 -10q22 0 30 28h9v-153h-9q-36 157 -212 157q-252 0 -252 -357
q0 -391 245 -391q76 0 125 23.5t49 70.5v44q0 62 -0.5 96t-2.5 65t-5 44t-10 24t-15 14t-22 6v7h133v-379h-8q-1 15 -7.5 20.5t-21.5 5.5q-14 0 -41.5 -12t-72 -24.5t-101.5 -12.5z" />
    <glyph glyph-name="Gdotaccent.alt" horiz-adv-x="673" 
d="M367 783q-19 0 -32 13.5t-13 32.5t13 31.5t32 12.5t32 -12.5t13 -31.5t-13 -32.5t-32 -13.5zM364 -8q-153 0 -242.5 107t-89.5 282q0 94 30 168t79.5 118t108 67t121.5 23q50 0 85.5 -10.5t57.5 -20.5t39 -10q22 0 30 28h9v-153h-9q-36 157 -212 157q-252 0 -252 -357
q0 -391 245 -391q76 0 125 23.5t49 70.5v44q0 62 -0.5 96t-2.5 65t-5 44t-10 24t-15 14t-22 6v7h133v-379h-8q-1 15 -7.5 20.5t-21.5 5.5q-14 0 -41.5 -12t-72 -24.5t-101.5 -12.5z" />
    <glyph glyph-name="J.alt" horiz-adv-x="219" 
d="M-37 -156q-28 0 -40.5 12.5t-12.5 29.5q0 15 11 24.5t27 9.5q20 0 42.5 -24t32.5 -24q6 0 16 6q30 23 30 139v481q0 163 -7.5 199t-44.5 46v7h185v-7q-37 -10 -44.5 -46t-7.5 -199v-443q0 -110 -106 -183q-37 -28 -81 -28z" />
    <glyph glyph-name="Jcircumflex.alt" horiz-adv-x="219" 
d="M-16 782l126 106l126 -106l-4 -5l-122 50l-122 -50zM-37 -156q-28 0 -40.5 12.5t-12.5 29.5q0 15 11 24.5t27 9.5q20 0 42.5 -24t32.5 -24q6 0 16 6q30 23 30 139v481q0 163 -7.5 199t-44.5 46v7h185v-7q-37 -10 -44.5 -46t-7.5 -199v-443q0 -110 -106 -183
q-37 -28 -81 -28z" />
    <glyph glyph-name="K.alt" horiz-adv-x="608" 
d="M17 0v7q37 10 44.5 46t7.5 199v246q0 163 -7.5 199t-44.5 46v7h185v-7q-37 -10 -44.5 -46t-7.5 -199v-110l292 266q27 25 40 38.5t17 25t-4.5 17t-29.5 9.5v6h118v-6q-36 -6 -108 -72l-291 -264q34 18 80 18q84 0 123.5 -44.5t61.5 -142.5q32 -144 51.5 -185t64.5 -41
q34 0 62 30l5 -5q-33 -45 -97 -45q-72 0 -110 52t-62 189q-18 106 -42.5 143.5t-74.5 37.5t-96 -39v-124q0 -163 7.5 -199t44.5 -46v-7h-185z" />
    <glyph glyph-name="Kcommaaccent.alt" horiz-adv-x="608" 
d="M17 0v7q37 10 44.5 46t7.5 199v246q0 163 -7.5 199t-44.5 46v7h185v-7q-37 -10 -44.5 -46t-7.5 -199v-110l292 266q27 25 40 38.5t17 25t-4.5 17t-29.5 9.5v6h118v-6q-36 -6 -108 -72l-291 -264q34 18 80 18q84 0 123.5 -44.5t61.5 -142.5q32 -144 51.5 -185t64.5 -41
q34 0 62 30l5 -5q-33 -45 -97 -45q-72 0 -110 52t-62 189q-18 106 -42.5 143.5t-74.5 37.5t-96 -39v-124q0 -163 7.5 -199t44.5 -46v-7h-185zM334 -121q-12 -12 -29 -12q-16 0 -27 10.5t-11 27.5q0 19 12.5 30t30.5 11q21 0 35 -14.5t14 -40.5q0 -68 -72 -82l-4 7
q56 12 56 49q0 9 -5 14z" />
    <glyph glyph-name="Q.alt" horiz-adv-x="725" 
d="M362 -8q-128 0 -227 108t-99 276q0 85 28 157.5t74 121t104.5 76t119.5 27.5q130 0 229 -107t99 -275q0 -148 -81 -255l73 -74q35 -36 64 -41v-6h-89q-12 0 -24 12l-65 65q-91 -85 -206 -85zM362 1q117 0 179 102l-135 135q-31 31 -57 35v6h95q9 0 19 -10l106 -108
q32 85 32 215q0 188 -67 280.5t-172 92.5q-104 0 -171 -93t-67 -280q0 -188 67 -281.5t171 -93.5z" />
    <glyph glyph-name="R.alt" horiz-adv-x="602" 
d="M17 0v7q37 10 44.5 46t7.5 199v246q0 163 -7.5 199t-44.5 46v7h265q285 0 285 -179q0 -94 -69 -143t-175 -52l195 -298q22 -34 38 -49t41 -23v-6h-120l-245 376h-82v-124q0 -163 7.5 -199t44.5 -46v-7h-185zM278 741h-128v-357h156q181 0 181 173q0 93 -46 138.5
t-163 45.5z" />
    <glyph glyph-name="Racute.alt" horiz-adv-x="602" 
d="M208 778l-3 6l149 90q22 12 36 12q11 0 18.5 -7.5t7.5 -17.5q0 -27 -40 -38zM17 0v7q37 10 44.5 46t7.5 199v246q0 163 -7.5 199t-44.5 46v7h265q285 0 285 -179q0 -94 -69 -143t-175 -52l195 -298q22 -34 38 -49t41 -23v-6h-120l-245 376h-82v-124q0 -163 7.5 -199
t44.5 -46v-7h-185zM278 741h-128v-357h156q181 0 181 173q0 93 -46 138.5t-163 45.5z" />
    <glyph glyph-name="Rcommaaccent.alt" horiz-adv-x="602" 
d="M17 0v7q37 10 44.5 46t7.5 199v246q0 163 -7.5 199t-44.5 46v7h265q285 0 285 -179q0 -94 -69 -143t-175 -52l195 -298q22 -34 38 -49t41 -23v-6h-120l-245 376h-82v-124q0 -163 7.5 -199t44.5 -46v-7h-185zM278 741h-128v-357h156q181 0 181 173q0 93 -46 138.5
t-163 45.5zM333 -121q-12 -12 -29 -12q-16 0 -27 10.5t-11 27.5q0 19 12.5 30t30.5 11q21 0 35 -14.5t14 -40.5q0 -68 -72 -82l-4 7q56 12 56 49q0 9 -5 14z" />
    <glyph glyph-name="Rcaron.alt" horiz-adv-x="602" 
d="M170 885l4 5l122 -50l122 50l4 -5l-126 -106zM17 0v7q37 10 44.5 46t7.5 199v246q0 163 -7.5 199t-44.5 46v7h265q285 0 285 -179q0 -94 -69 -143t-175 -52l195 -298q22 -34 38 -49t41 -23v-6h-120l-245 376h-82v-124q0 -163 7.5 -199t44.5 -46v-7h-185zM278 741h-128
v-357h156q181 0 181 173q0 93 -46 138.5t-163 45.5z" />
    <glyph glyph-name="W.alt" horiz-adv-x="903" 
d="M307 -5l-227 628q-3 7 -8 22t-7 20.5t-6.5 16.5t-6.5 15l-6 12t-7.5 11.5t-8 8.5t-10 8t-11.5 6v7h150v-7q-21 -6 -23 -23.5t13 -57.5l199 -559l105 292l-82 228q-2 6 -7 20t-7 19t-6 15.5t-6 14t-5.5 11.5t-6 11.5t-6.5 8.5t-8 8t-8.5 6t-10.5 6v7h149v-7
q-21 -6 -22.5 -23t13.5 -59l197 -556l172 518q18 42 16 75t-36 45v7h105v-7q-24 -10 -38 -30.5t-37 -89.5l-209 -628h-12l-140 386l-139 -386h-12z" />
    <glyph glyph-name="Wcircumflex.alt" horiz-adv-x="903" 
d="M253 782l126 106l126 -106l-4 -5l-122 50l-122 -50zM307 -5l-227 628q-3 7 -8 22t-7 20.5t-6.5 16.5t-6.5 15l-6 12t-7.5 11.5t-8 8.5t-10 8t-11.5 6v7h150v-7q-21 -6 -23 -23.5t13 -57.5l199 -559l105 292l-82 228q-2 6 -7 20t-7 19t-6 15.5t-6 14t-5.5 11.5t-6 11.5
t-6.5 8.5t-8 8t-8.5 6t-10.5 6v7h149v-7q-21 -6 -22.5 -23t13.5 -59l197 -556l172 518q18 42 16 75t-36 45v7h105v-7q-24 -10 -38 -30.5t-37 -89.5l-209 -628h-12l-140 386l-139 -386h-12z" />
    <glyph glyph-name="Wgrave.alt" horiz-adv-x="903" 
d="M471 778l-168 45q-40 11 -40 38q0 10 7.5 17.5t18.5 7.5q14 0 36 -12l149 -90zM307 -5l-227 628q-3 7 -8 22t-7 20.5t-6.5 16.5t-6.5 15l-6 12t-7.5 11.5t-8 8.5t-10 8t-11.5 6v7h150v-7q-21 -6 -23 -23.5t13 -57.5l199 -559l105 292l-82 228q-2 6 -7 20t-7 19t-6 15.5
t-6 14t-5.5 11.5t-6 11.5t-6.5 8.5t-8 8t-8.5 6t-10.5 6v7h149v-7q-21 -6 -22.5 -23t13.5 -59l197 -556l172 518q18 42 16 75t-36 45v7h105v-7q-24 -10 -38 -30.5t-37 -89.5l-209 -628h-12l-140 386l-139 -386h-12z" />
    <glyph glyph-name="Wacute.alt" horiz-adv-x="903" 
d="M291 778l-3 6l149 90q22 12 36 12q11 0 18.5 -7.5t7.5 -17.5q0 -27 -40 -38zM307 -5l-227 628q-3 7 -8 22t-7 20.5t-6.5 16.5t-6.5 15l-6 12t-7.5 11.5t-8 8.5t-10 8t-11.5 6v7h150v-7q-21 -6 -23 -23.5t13 -57.5l199 -559l105 292l-82 228q-2 6 -7 20t-7 19t-6 15.5
t-6 14t-5.5 11.5t-6 11.5t-6.5 8.5t-8 8t-8.5 6t-10.5 6v7h149v-7q-21 -6 -22.5 -23t13.5 -59l197 -556l172 518q18 42 16 75t-36 45v7h105v-7q-24 -10 -38 -30.5t-37 -89.5l-209 -628h-12l-140 386l-139 -386h-12z" />
    <glyph glyph-name="Wdieresis.alt" horiz-adv-x="903" 
d="M481 783q-19 0 -31 12.5t-12 31.5q0 18 12 30.5t31 12.5q17 0 29.5 -12.5t12.5 -30.5q0 -19 -12.5 -31.5t-29.5 -12.5zM289 783q-17 0 -29.5 12.5t-12.5 31.5q0 18 12.5 30.5t29.5 12.5q19 0 31 -12.5t12 -30.5q0 -19 -12 -31.5t-31 -12.5zM307 -5l-227 628q-3 7 -8 22
t-7 20.5t-6.5 16.5t-6.5 15l-6 12t-7.5 11.5t-8 8.5t-10 8t-11.5 6v7h150v-7q-21 -6 -23 -23.5t13 -57.5l199 -559l105 292l-82 228q-2 6 -7 20t-7 19t-6 15.5t-6 14t-5.5 11.5t-6 11.5t-6.5 8.5t-8 8t-8.5 6t-10.5 6v7h149v-7q-21 -6 -22.5 -23t13.5 -59l197 -556l172 518
q18 42 16 75t-36 45v7h105v-7q-24 -10 -38 -30.5t-37 -89.5l-209 -628h-12l-140 386l-139 -386h-12z" />
    <glyph glyph-name="J.alt1" horiz-adv-x="477" 
d="M328 498q0 163 -7.5 199t-44.5 46v7h185v-7q-37 -10 -44.5 -46t-7.5 -199v-272q0 -115 -59 -174.5t-158 -59.5q-75 0 -131.5 34t-56.5 83q0 39 37 39q21 0 32 -11.5t15 -44.5q7 -49 28 -69.5t76 -21.5q75 0 105.5 48t30.5 153v296z" />
    <glyph glyph-name="Jcircumflex.alt1" horiz-adv-x="477" 
d="M241 782l126 106l126 -106l-4 -5l-122 50l-122 -50zM328 498q0 163 -7.5 199t-44.5 46v7h185v-7q-37 -10 -44.5 -46t-7.5 -199v-272q0 -115 -59 -174.5t-158 -59.5q-75 0 -131.5 34t-56.5 83q0 39 37 39q21 0 32 -11.5t15 -44.5q7 -49 28 -69.5t76 -21.5q75 0 105.5 48
t30.5 153v296z" />
    <glyph glyph-name="Cacute.altpl" horiz-adv-x="641" 
d="M357 779l-6 3l25 94q6 22 14 30.5t22 8.5q12 0 20 -8t8 -19q0 -18 -15 -34zM376 2q178 0 217 157h9v-153h-9q-8 28 -31 28q-15 0 -38 -10t-60.5 -20.5t-87.5 -10.5q-154 0 -246.5 104.5t-92.5 278.5q0 94 30 169.5t79 120.5t107.5 68.5t120.5 23.5q66 0 118 -21t65 -21
q22 0 30 28h10v-153h-10q-19 82 -75.5 120t-137.5 38q-113 0 -181.5 -88.5t-68.5 -269.5q0 -102 22 -179.5t59 -122t80 -66t91 -21.5z" />
    <glyph glyph-name="R.long" horiz-adv-x="742" 
d="M17 0v7q37 10 44.5 46t7.5 199v246q0 163 -7.5 199t-44.5 46v7h263q288 0 288 -184q0 -85 -68 -136t-176 -54q76 -12 121.5 -53.5t77.5 -115.5q49 -114 81.5 -156t84.5 -42q47 0 71 35l6 -4q-30 -47 -98 -47q-75 0 -123.5 37t-94.5 142q-27 61 -46 96t-35.5 59t-38 33.5
t-41 12.5t-57.5 3h-82v-124q0 -163 7.5 -199t44.5 -46v-7h-185zM487 558q0 94 -46 138.5t-165 44.5h-126v-357h159q178 0 178 174z" />
    <glyph glyph-name="Racute.long" horiz-adv-x="742" 
d="M211 778l-3 6l149 90q22 12 36 12q11 0 18.5 -7.5t7.5 -17.5q0 -27 -40 -38zM17 0v7q37 10 44.5 46t7.5 199v246q0 163 -7.5 199t-44.5 46v7h263q288 0 288 -184q0 -85 -68 -136t-176 -54q76 -12 121.5 -53.5t77.5 -115.5q49 -114 81.5 -156t84.5 -42q47 0 71 35l6 -4
q-30 -47 -98 -47q-75 0 -123.5 37t-94.5 142q-27 61 -46 96t-35.5 59t-38 33.5t-41 12.5t-57.5 3h-82v-124q0 -163 7.5 -199t44.5 -46v-7h-185zM487 558q0 94 -46 138.5t-165 44.5h-126v-357h159q178 0 178 174z" />
    <glyph glyph-name="Rcommaaccent.long" horiz-adv-x="742" 
d="M17 0v7q37 10 44.5 46t7.5 199v246q0 163 -7.5 199t-44.5 46v7h263q288 0 288 -184q0 -85 -68 -136t-176 -54q76 -12 121.5 -53.5t77.5 -115.5q49 -114 81.5 -156t84.5 -42q47 0 71 35l6 -4q-30 -47 -98 -47q-75 0 -123.5 37t-94.5 142q-27 61 -46 96t-35.5 59t-38 33.5
t-41 12.5t-57.5 3h-82v-124q0 -163 7.5 -199t44.5 -46v-7h-185zM487 558q0 94 -46 138.5t-165 44.5h-126v-357h159q178 0 178 174zM368 -121q-12 -12 -29 -12q-16 0 -27 10.5t-11 27.5q0 19 12.5 30t30.5 11q21 0 35 -14.5t14 -40.5q0 -68 -72 -82l-4 7q56 12 56 49
q0 9 -5 14z" />
    <glyph glyph-name="Rcaron.long" horiz-adv-x="742" 
d="M173 885l4 5l122 -50l122 50l4 -5l-126 -106zM17 0v7q37 10 44.5 46t7.5 199v246q0 163 -7.5 199t-44.5 46v7h263q288 0 288 -184q0 -85 -68 -136t-176 -54q76 -12 121.5 -53.5t77.5 -115.5q49 -114 81.5 -156t84.5 -42q47 0 71 35l6 -4q-30 -47 -98 -47q-75 0 -123.5 37
t-94.5 142q-27 61 -46 96t-35.5 59t-38 33.5t-41 12.5t-57.5 3h-82v-124q0 -163 7.5 -199t44.5 -46v-7h-185zM487 558q0 94 -46 138.5t-165 44.5h-126v-357h159q178 0 178 174z" />
    <glyph glyph-name="Cacute.pl" horiz-adv-x="637" 
d="M357 779l-6 3l25 94q6 22 14 30.5t22 8.5q12 0 20 -8t8 -19q0 -18 -15 -34zM370 -7q-149 0 -241 105t-92 278q0 94 30 169.5t79 120.5t107.5 68.5t120.5 23.5q66 0 118 -21t65 -21q22 0 30 28h10v-153h-10q-19 82 -75.5 120t-137.5 38q-113 0 -181.5 -88.5t-68.5 -269.5
q0 -101 21.5 -177.5t59 -119.5t82 -64t96.5 -21q137 0 217 100l7 -6q-83 -110 -237 -110z" />
    <glyph glyph-name="Nacute.pl" horiz-adv-x="637" 
d="M329 779l-6 3l25 94q6 22 14 30.5t22 8.5q12 0 20 -8t8 -19q0 -18 -15 -34zM17 0v7q14 5 21 9t14 16t9.5 24.5t4.5 43.5t2.5 63t0.5 93v242q0 163 -7.5 198.5t-44.5 46.5v7h127q13 0 18.5 -4.5t19.5 -25.5l376 -585v359q0 73 -1 108.5t-3 66.5t-9.5 42.5t-16.5 18.5
t-27 13v7h120v-7q-14 -5 -21 -9t-14 -16t-9.5 -24.5t-4.5 -43.5t-2.5 -63t-0.5 -93v-497h-16l-474 732v-473q0 -73 1 -108.5t3 -66.5t9.5 -42.5t16.5 -18.5t27 -13v-7h-119z" />
    <glyph glyph-name="Oacute.pl" horiz-adv-x="725" 
d="M349 779l-6 3l25 94q6 22 14 30.5t22 8.5q12 0 20 -8t8 -19q0 -18 -15 -34zM362 -8q-128 0 -227 108t-99 276q0 85 28 157.5t74 121t104.5 76t119.5 27.5q130 0 229 -107t99 -275t-99 -276t-229 -108zM362 1q105 0 172 93.5t67 281.5t-67 280.5t-172 92.5
q-104 0 -171 -93t-67 -280q0 -188 67 -281.5t171 -93.5z" />
    <glyph glyph-name="Sacute.pl" horiz-adv-x="519" 
d="M247 779l-6 3l25 94q6 22 14 30.5t22 8.5q12 0 20 -8t8 -19q0 -18 -15 -34zM263 -7q-55 0 -95.5 13.5t-65.5 27t-44 13.5q-20 0 -26 -22h-9v169h9q12 -90 72.5 -141t158.5 -51q84 0 122.5 43t38.5 113q0 76 -38 115.5t-147 87.5q-105 46 -152.5 94.5t-47.5 122.5
q0 82 60 130.5t148 48.5q63 0 113 -19t63 -19q20 0 28 24h9v-130h-9q-33 135 -204 135q-71 0 -110 -31t-39 -90q0 -64 35 -101t125 -76q61 -26 95.5 -44t71 -47t52.5 -66t16 -86q0 -89 -66 -151.5t-164 -62.5z" />
    <glyph glyph-name="Zacute.pl" horiz-adv-x="590" 
d="M285 779l-6 3l25 94q6 22 14 30.5t22 8.5q12 0 20 -8t8 -19q0 -18 -15 -34zM21 0l432 741h-229q-80 0 -116 -29.5t-58 -101.5h-9l23 140h484l-437 -741h257q51 0 83.5 8t54 28t33 47.5t21.5 73.5h9l-17 -166h-531z" />
    <glyph glyph-name="R.short" horiz-adv-x="586" 
d="M17 0v7q37 10 44.5 46t7.5 199v246q0 163 -7.5 199t-44.5 46v7h263q288 0 288 -178q0 -97 -73.5 -146.5t-181.5 -49.5h-40q126 -20 151 -182q16 -95 42.5 -138t70.5 -43q36 0 52 35l6 -3q-24 -52 -95 -52q-59 0 -98.5 41t-58.5 145q-9 54 -14.5 81t-15 53.5t-16 35.5
t-23.5 17.5t-32.5 9t-46.5 0.5h-45v-124q0 -163 7.5 -199t44.5 -46v-7h-185zM276 741h-126v-357h159q179 0 179 173q0 94 -46.5 139t-165.5 45z" />
    <glyph glyph-name="Racute.short" horiz-adv-x="586" 
d="M209 778l-3 6l149 90q22 12 36 12q11 0 18.5 -7.5t7.5 -17.5q0 -27 -40 -38zM17 0v7q37 10 44.5 46t7.5 199v246q0 163 -7.5 199t-44.5 46v7h263q288 0 288 -178q0 -97 -73.5 -146.5t-181.5 -49.5h-40q126 -20 151 -182q16 -95 42.5 -138t70.5 -43q36 0 52 35l6 -3
q-24 -52 -95 -52q-59 0 -98.5 41t-58.5 145q-9 54 -14.5 81t-15 53.5t-16 35.5t-23.5 17.5t-32.5 9t-46.5 0.5h-45v-124q0 -163 7.5 -199t44.5 -46v-7h-185zM276 741h-126v-357h159q179 0 179 173q0 94 -46.5 139t-165.5 45z" />
    <glyph glyph-name="Rcommaaccent.short" horiz-adv-x="586" 
d="M17 0v7q37 10 44.5 46t7.5 199v246q0 163 -7.5 199t-44.5 46v7h263q288 0 288 -178q0 -97 -73.5 -146.5t-181.5 -49.5h-40q126 -20 151 -182q16 -95 42.5 -138t70.5 -43q36 0 52 35l6 -3q-24 -52 -95 -52q-59 0 -98.5 41t-58.5 145q-9 54 -14.5 81t-15 53.5t-16 35.5
t-23.5 17.5t-32.5 9t-46.5 0.5h-45v-124q0 -163 7.5 -199t44.5 -46v-7h-185zM276 741h-126v-357h159q179 0 179 173q0 94 -46.5 139t-165.5 45zM308 -121q-12 -12 -29 -12q-16 0 -27 10.5t-11 27.5q0 19 12.5 30t30.5 11q21 0 35 -14.5t14 -40.5q0 -68 -72 -82l-4 7
q56 12 56 49q0 9 -5 14z" />
    <glyph glyph-name="Rcaron.short" horiz-adv-x="586" 
d="M171 885l4 5l122 -50l122 50l4 -5l-126 -106zM17 0v7q37 10 44.5 46t7.5 199v246q0 163 -7.5 199t-44.5 46v7h263q288 0 288 -178q0 -97 -73.5 -146.5t-181.5 -49.5h-40q126 -20 151 -182q16 -95 42.5 -138t70.5 -43q36 0 52 35l6 -3q-24 -52 -95 -52q-59 0 -98.5 41
t-58.5 145q-9 54 -14.5 81t-15 53.5t-16 35.5t-23.5 17.5t-32.5 9t-46.5 0.5h-45v-124q0 -163 7.5 -199t44.5 -46v-7h-185zM276 741h-126v-357h159q179 0 179 173q0 94 -46.5 139t-165.5 45z" />
    <glyph glyph-name="s.alt" horiz-adv-x="364" 
d="M176 -7q-69 0 -112 25.5t-43 53.5q0 31 31 31q30 0 39 -40q9 -35 25.5 -48.5t59.5 -13.5q61 0 88 26.5t27 67.5q0 40 -28.5 65t-95.5 50t-99 58t-32 82q0 59 41.5 92.5t103.5 33.5q61 0 99.5 -18t38.5 -48q0 -27 -28 -27q-17 0 -25.5 10t-14.5 31q-7 24 -21.5 33.5
t-48.5 9.5q-46 0 -74.5 -20.5t-28.5 -57.5q0 -36 26 -58t87 -45q78 -31 112 -65.5t34 -88.5q0 -62 -45.5 -100.5t-115.5 -38.5z" />
    <glyph glyph-name="sacute.alt" horiz-adv-x="364" 
d="M148 534l-5 5l93 141q20 29 40 29q12 0 20 -8t8 -20q0 -18 -23 -37zM176 -7q-69 0 -112 25.5t-43 53.5q0 31 31 31q30 0 39 -40q9 -35 25.5 -48.5t59.5 -13.5q61 0 88 26.5t27 67.5q0 40 -28.5 65t-95.5 50t-99 58t-32 82q0 59 41.5 92.5t103.5 33.5q61 0 99.5 -18
t38.5 -48q0 -27 -28 -27q-17 0 -25.5 10t-14.5 31q-7 24 -21.5 33.5t-48.5 9.5q-46 0 -74.5 -20.5t-28.5 -57.5q0 -36 26 -58t87 -45q78 -31 112 -65.5t34 -88.5q0 -62 -45.5 -100.5t-115.5 -38.5z" />
    <glyph glyph-name="scircumflex.alt" horiz-adv-x="364" 
d="M75 537l112 175l112 -175l-7 -4l-105 100l-105 -100zM176 -7q-69 0 -112 25.5t-43 53.5q0 31 31 31q30 0 39 -40q9 -35 25.5 -48.5t59.5 -13.5q61 0 88 26.5t27 67.5q0 40 -28.5 65t-95.5 50t-99 58t-32 82q0 59 41.5 92.5t103.5 33.5q61 0 99.5 -18t38.5 -48
q0 -27 -28 -27q-17 0 -25.5 10t-14.5 31q-7 24 -21.5 33.5t-48.5 9.5q-46 0 -74.5 -20.5t-28.5 -57.5q0 -36 26 -58t87 -45q78 -31 112 -65.5t34 -88.5q0 -62 -45.5 -100.5t-115.5 -38.5z" />
    <glyph glyph-name="scedilla.alt" horiz-adv-x="364" 
d="M246 -124q0 -73 -148 -76l-1 8q51 4 76 19t25 36q0 38 -77 42l-3 5l51 83q-66 1 -107 26t-41 53q0 31 31 31q30 0 39 -40q9 -35 25.5 -48.5t59.5 -13.5q61 0 88 26.5t27 67.5q0 40 -28.5 65t-95.5 50t-99 58t-32 82q0 59 41.5 92.5t103.5 33.5q61 0 99.5 -18t38.5 -48
q0 -27 -28 -27q-17 0 -25.5 10t-14.5 31q-7 24 -21.5 33.5t-48.5 9.5q-46 0 -74.5 -20.5t-28.5 -57.5q0 -36 26 -58t87 -45q78 -31 112 -65.5t34 -88.5q0 -62 -44.5 -100.5t-112.5 -38.5l-28 -46q40 -4 67 -22.5t27 -48.5z" />
    <glyph glyph-name="scaron.alt" horiz-adv-x="364" 
d="M66 714l7 4l105 -100l105 100l7 -4l-112 -175zM176 -7q-69 0 -112 25.5t-43 53.5q0 31 31 31q30 0 39 -40q9 -35 25.5 -48.5t59.5 -13.5q61 0 88 26.5t27 67.5q0 40 -28.5 65t-95.5 50t-99 58t-32 82q0 59 41.5 92.5t103.5 33.5q61 0 99.5 -18t38.5 -48q0 -27 -28 -27
q-17 0 -25.5 10t-14.5 31q-7 24 -21.5 33.5t-48.5 9.5q-46 0 -74.5 -20.5t-28.5 -57.5q0 -36 26 -58t87 -45q78 -31 112 -65.5t34 -88.5q0 -62 -45.5 -100.5t-115.5 -38.5z" />
    <glyph glyph-name="scommaaccent.alt" horiz-adv-x="364" 
d="M176 -7q-69 0 -112 25.5t-43 53.5q0 31 31 31q30 0 39 -40q9 -35 25.5 -48.5t59.5 -13.5q61 0 88 26.5t27 67.5q0 40 -28.5 65t-95.5 50t-99 58t-32 82q0 59 41.5 92.5t103.5 33.5q61 0 99.5 -18t38.5 -48q0 -27 -28 -27q-17 0 -25.5 10t-14.5 31q-7 24 -21.5 33.5
t-48.5 9.5q-46 0 -74.5 -20.5t-28.5 -57.5q0 -36 26 -58t87 -45q78 -31 112 -65.5t34 -88.5q0 -62 -45.5 -100.5t-115.5 -38.5zM199 -121q-12 -12 -29 -12q-16 0 -27 10.5t-11 27.5q0 19 12.5 30t30.5 11q21 0 35 -14.5t14 -40.5q0 -68 -72 -82l-4 7q56 12 56 49q0 9 -5 14z
" />
    <glyph glyph-name="t.alt" horiz-adv-x="230" 
d="M23 0v7q28 7 34 29.5t6 116.5v303h-45v8q46 7 74.5 40t36.5 113h8v-151h82v-10h-82v-303q0 -93 7.5 -115.5t42.5 -30.5v-7h-164z" />
    <glyph glyph-name="tcommaaccent.alt" horiz-adv-x="230" 
d="M23 0v7q28 7 34 29.5t6 116.5v303h-45v8q46 7 74.5 40t36.5 113h8v-151h82v-10h-82v-303q0 -93 7.5 -115.5t42.5 -30.5v-7h-164zM122 -121q-12 -12 -29 -12q-16 0 -27 10.5t-11 27.5q0 19 12.5 30t30.5 11q21 0 35 -14.5t14 -40.5q0 -68 -72 -82l-4 7q56 12 56 49
q0 9 -5 14z" />
    <glyph glyph-name="tcaron.alt" horiz-adv-x="230" 
d="M198 529l-6 2l11 129q5 49 32 49q12 0 19 -7.5t7 -18.5q0 -13 -9 -34zM23 0v7q28 7 34 29.5t6 116.5v303h-45v8q46 7 74.5 40t36.5 113h8v-151h82v-10h-82v-303q0 -93 7.5 -115.5t42.5 -30.5v-7h-164z" />
    <glyph glyph-name="w.alt" horiz-adv-x="640" 
d="M179 -5l-118 360q-20 62 -33 80.5t-32 24.5v6h147v-6q-23 -4 -24.5 -21t17.5 -81l81 -249l117 369h13l128 -380l81 237q18 53 19 80.5t-8 34t-33 10.5v6h110v-6q-24 -6 -37.5 -26t-39.5 -99l-116 -340h-13l-128 372l-119 -372h-12z" />
    <glyph glyph-name="wcircumflex.alt" horiz-adv-x="640" 
d="M230 537l112 175l112 -175l-7 -4l-105 100l-105 -100zM179 -5l-118 360q-20 62 -33 80.5t-32 24.5v6h147v-6q-23 -4 -24.5 -21t17.5 -81l81 -249l117 369h13l128 -380l81 237q18 53 19 80.5t-8 34t-33 10.5v6h110v-6q-24 -6 -37.5 -26t-39.5 -99l-116 -340h-13l-128 372
l-119 -372h-12z" />
    <glyph glyph-name="wgrave.alt" horiz-adv-x="640" 
d="M399 534l-133 110q-23 19 -23 37q0 12 8 20t20 8q20 0 40 -29l93 -141zM179 -5l-118 360q-20 62 -33 80.5t-32 24.5v6h147v-6q-23 -4 -24.5 -21t17.5 -81l81 -249l117 369h13l128 -380l81 237q18 53 19 80.5t-8 34t-33 10.5v6h110v-6q-24 -6 -37.5 -26t-39.5 -99
l-116 -340h-13l-128 372l-119 -372h-12z" />
    <glyph glyph-name="wacute.alt" horiz-adv-x="640" 
d="M304 534l-5 5l93 141q20 29 40 29q12 0 20 -8t8 -20q0 -18 -23 -37zM179 -5l-118 360q-20 62 -33 80.5t-32 24.5v6h147v-6q-23 -4 -24.5 -21t17.5 -81l81 -249l117 369h13l128 -380l81 237q18 53 19 80.5t-8 34t-33 10.5v6h110v-6q-24 -6 -37.5 -26t-39.5 -99l-116 -340
h-13l-128 372l-119 -372h-12z" />
    <glyph glyph-name="wdieresis.alt" horiz-adv-x="640" 
d="M422 560q-18 0 -30.5 12.5t-12.5 31.5q0 18 12.5 30t30.5 12t30.5 -12t12.5 -30q0 -19 -12.5 -31.5t-30.5 -12.5zM262 560q-18 0 -30.5 12.5t-12.5 31.5q0 18 12.5 30t30.5 12t30.5 -12t12.5 -30q0 -19 -12.5 -31.5t-30.5 -12.5zM179 -5l-118 360q-20 62 -33 80.5
t-32 24.5v6h147v-6q-23 -4 -24.5 -21t17.5 -81l81 -249l117 369h13l128 -380l81 237q18 53 19 80.5t-8 34t-33 10.5v6h110v-6q-24 -6 -37.5 -26t-39.5 -99l-116 -340h-13l-128 372l-119 -372h-12z" />
    <glyph glyph-name="tbar.alt" horiz-adv-x="230" 
d="M23 0v7q28 7 34 29.5t6 116.5v146h-41v9h41v148h-45v8q46 7 74.5 40t36.5 113h8v-151h82v-10h-82v-148h80v-9h-80v-146q0 -93 7.5 -115.5t42.5 -30.5v-7h-164z" />
    <glyph glyph-name="sacute.altpl" horiz-adv-x="364" 
d="M168 532l-7 4l32 135q10 42 36 42q11 0 20.5 -7.5t9.5 -20.5q0 -14 -13 -34zM176 -7q-69 0 -112 25.5t-43 53.5q0 31 31 31q30 0 39 -40q9 -35 25.5 -48.5t59.5 -13.5q61 0 88 26.5t27 67.5q0 40 -28.5 65t-95.5 50t-99 58t-32 82q0 59 41.5 92.5t103.5 33.5
q61 0 99.5 -18t38.5 -48q0 -27 -28 -27q-17 0 -25.5 10t-14.5 31q-7 24 -21.5 33.5t-48.5 9.5q-46 0 -74.5 -20.5t-28.5 -57.5q0 -36 26 -58t87 -45q78 -31 112 -65.5t34 -88.5q0 -62 -45.5 -100.5t-115.5 -38.5z" />
    <glyph glyph-name="cacute.pl" horiz-adv-x="424" 
d="M239 532l-7 4l32 135q10 42 36 42q11 0 20.5 -7.5t9.5 -20.5q0 -14 -13 -34zM258 -7q-96 0 -164 66.5t-68 176.5q0 104 73 171.5t161 67.5q54 0 98.5 -16.5t44.5 -45.5q0 -14 -9 -24.5t-26 -10.5q-6 0 -10.5 1.5l-7.5 2.5t-6.5 5t-5 6.5t-4 8.5t-3.5 8.5t-4 11t-4 11.5
q-11 33 -62 33q-69 0 -113 -54t-44 -171q0 -235 170 -235q81 0 130 59l6 -6q-52 -66 -152 -66z" />
    <glyph glyph-name="nacute.pl" horiz-adv-x="503" 
d="M245 532l-7 4l32 135q10 42 36 42q11 0 20.5 -7.5t9.5 -20.5q0 -14 -13 -34zM25 0v7q29 8 34.5 30.5t5.5 115.5v129q0 88 -5 104.5t-36 19.5v8l115 62v-110l33 31q84 77 150 77q118 0 118 -121v-200q0 -94 5.5 -116t34.5 -30v-7h-159v7q32 8 38.5 30.5t6.5 115.5v216
q0 88 -66 88q-49 0 -128 -72l-33 -31v-201q0 -93 6.5 -115.5t37.5 -30.5v-7h-158z" />
    <glyph glyph-name="oacute.pl" horiz-adv-x="505" 
d="M236 532l-7 4l32 135q10 42 36 42q11 0 20.5 -7.5t9.5 -20.5q0 -14 -13 -34zM252 -9q-83 0 -153 66t-70 174q0 109 70.5 177t152.5 68q83 0 153.5 -68t70.5 -177t-70.5 -174.5t-153.5 -65.5zM252 -1q64 0 104 55.5t40 176.5t-40.5 179t-103.5 58q-62 0 -102.5 -58
t-40.5 -179t40 -176.5t103 -55.5z" />
    <glyph glyph-name="sacute.pl" horiz-adv-x="367" 
d="M168 532l-7 4l32 135q10 42 36 42q11 0 20.5 -7.5t9.5 -20.5q0 -14 -13 -34zM181 1q106 0 106 94q0 41 -26.5 65.5t-89.5 49.5q-67 26 -101.5 60t-34.5 83q0 58 40 90.5t102 32.5q45 0 75 -12.5t37 -12.5q13 0 17 17h8v-101h-8q-18 55 -48 77.5t-81 22.5q-45 0 -70 -20.5
t-25 -57.5q0 -36 23.5 -56.5t85.5 -45.5q75 -31 110.5 -66t35.5 -89q0 -62 -43 -100.5t-113 -38.5q-50 0 -87 18t-43 18q-13 0 -16 -18h-9v130h8q29 -140 147 -140z" />
    <glyph glyph-name="zacute.pl" horiz-adv-x="396" 
d="M181 532l-7 4l32 135q10 42 36 42q11 0 20.5 -7.5t9.5 -20.5q0 -14 -13 -34zM369 -10q-23 10 -130 10h-229l276 458h-136q-38 0 -62.5 -14t-34 -29.5t-24.5 -49.5h-8l21 111q22 -10 129 -10h198l-280 -458h152q66 0 90.5 24.5t46.5 89.5h8z" />
    <glyph glyph-name="f.short" horiz-adv-x="224" 
d="M25 0v7q29 8 34.5 30.5t5.5 115.5v303h-49v8q31 5 40 22t9 71v67q0 70 31.5 104t77.5 34q23 0 38.5 -10.5t15.5 -28.5q0 -14 -8.5 -23t-23.5 -9q-23 0 -35 26q-11 26 -25 26t-26 -14.5t-12 -36.5q0 -37 21 -87t21 -94v-45h91v-10h-91v-303q0 -93 8.5 -115.5t50.5 -30.5
v-7h-174z" />
    <glyph glyph-name="f_f.short" horiz-adv-x="447" 
d="M248 0v7q29 8 34.5 30.5t5.5 115.5v303h-148v-303q0 -93 8.5 -115.5t50.5 -30.5v-7h-174v7q29 8 34.5 30.5t5.5 115.5v303h-49v8q30 5 39.5 20t9.5 52v11q0 108 48.5 159t117.5 51q66 0 85 -34q30 39 82 39q23 0 38 -10.5t15 -28.5q0 -14 -8.5 -23t-23.5 -9q-23 0 -34 26
t-26 26q-14 0 -26 -14.5t-12 -36.5q0 -37 21 -87t21 -94v-45h92v-10h-92v-303q0 -93 8.5 -115.5t50.5 -30.5v-7h-174zM140 466h148v158q0 28 7 56q-28 0 -34 30q-5 25 -10.5 32t-24.5 7q-41 0 -63.5 -37.5t-22.5 -131.5v-114z" />
    <glyph glyph-name="caron.alt" horiz-adv-x="500" 
d="M222 583l-6 2l11 129q5 49 32 49q12 0 19 -7.5t7 -18.5q0 -13 -9 -34z" />
    <glyph glyph-name="circumflex.uc" horiz-adv-x="456" 
d="M102 782l126 106l126 -106l-4 -5l-122 50l-122 -50z" />
    <glyph glyph-name="caron.uc" horiz-adv-x="456" 
d="M102 885l4 5l122 -50l122 50l4 -5l-126 -106z" />
    <glyph glyph-name="four.alt" horiz-adv-x="587" 
d="M530 190h-88q1 -82 5 -117t13.5 -47t33.5 -19v-7h-185v7q24 7 33.5 19t13.5 47t5 117h-334v7l342 553h12l-313 -505h293v246l81 132v-378h122z" />
    <glyph glyph-name="hyphen.uc" horiz-adv-x="282" 
d="M39 348l13 50h191l-14 -50h-190z" />
    <glyph glyph-name="endash.uc" horiz-adv-x="503" 
d="M41 370v13h421v-13h-421z" />
    <glyph glyph-name="emdash.uc" horiz-adv-x="881" 
d="M41 370v13h799v-13h-799z" />
    <glyph glyph-name="parenleft.uc" horiz-adv-x="298" 
d="M286 -90l-5 -6q-38 31 -72 69.5t-69.5 94.5t-56.5 130.5t-21 157.5t21 157.5t56.5 130.5t69.5 93.5t72 68.5l5 -5q-161 -151 -161 -445q0 -297 161 -446z" />
    <glyph glyph-name="bracketleft.uc" horiz-adv-x="251" 
d="M71 804h167v-9h-114v-877h114v-9h-167v895z" />
    <glyph glyph-name="braceleft.uc" horiz-adv-x="273" 
d="M260 -95q-85 0 -139.5 30.5t-54.5 89.5q0 42 38.5 126.5t38.5 118.5q0 17 -3.5 28t-14.5 25t-38 21t-69 7v9q42 0 69 7t38 21t14.5 25t3.5 28q0 34 -38.5 118.5t-38.5 126.5q0 59 54.5 90t139.5 31v-8q-71 0 -105 -25.5t-34 -82.5q0 -39 30 -121.5t30 -116.5
q0 -85 -112 -97q112 -12 112 -98q0 -34 -30 -116t-30 -121q0 -57 34.5 -83t104.5 -26v-7z" />
    <glyph glyph-name="parenright.uc" horiz-adv-x="298" 
d="M12 -90q161 149 161 446q0 294 -161 445l5 5q38 -31 72 -68.5t69.5 -93.5t56.5 -130.5t21 -157.5t-21 -157.5t-56.5 -130.5t-69.5 -94.5t-72 -69.5z" />
    <glyph glyph-name="bracketright.uc" horiz-adv-x="251" 
d="M180 804v-895h-167v9h114v877h-114v9h167z" />
    <glyph glyph-name="braceright.uc" horiz-adv-x="273" 
d="M13 -95v7q70 0 104.5 26t34.5 83q0 39 -30 121t-30 116q0 86 112 98q-112 12 -112 97q0 34 30 116.5t30 121.5q0 57 -34 82.5t-105 25.5v8q85 0 139.5 -31t54.5 -90q0 -42 -38.5 -126.5t-38.5 -118.5q0 -17 3.5 -28t14.5 -25t38 -21t69 -7v-9q-42 0 -69 -7t-38 -21
t-14.5 -25t-3.5 -28q0 -34 38.5 -118.5t38.5 -126.5q0 -59 -54.5 -89.5t-139.5 -30.5z" />
    <glyph glyph-name="guillemotleft.uc" horiz-adv-x="343" 
d="M296 161l-132 159v8l131 159l7 -4l-74 -159l75 -159zM179 161l-133 159v8l132 159l6 -4l-73 -159l74 -159z" />
    <glyph glyph-name="guilsinglleft.uc" horiz-adv-x="226" 
d="M179 161l-133 159v8l132 159l6 -4l-68 -159l69 -159z" />
    <glyph glyph-name="guillemotright.uc" horiz-adv-x="343" 
d="M47 161l-6 4l74 159l-73 159l6 4l132 -159v-8zM165 161l-6 4l74 159l-73 159l6 4l131 -159v-8z" />
    <glyph glyph-name="guilsinglright.uc" horiz-adv-x="226" 
d="M48 161l-6 4l69 159l-68 159l6 4l132 -159v-8z" />
    <glyph glyph-name="ampersand.alt" horiz-adv-x="741" 
d="M571 324l-48 -113q132 -149 163 -176q26 -22 47 -28v-7h-119l-124 138q-76 -148 -215 -148q-111 0 -180 55.5t-69 142.5q0 155 209 234q-85 102 -85 178q-1 74 49 117t118 43q40 0 72 -15.5t38 -15.5q19 0 27 25h8v-130h-9q-31 127 -135 127q-49 0 -78.5 -31t-29.5 -86
q0 -34 15.5 -68.5t37 -61t55.5 -64.5q4 -3 5.5 -5t4.5 -5t5 -6l153 -172q1 -1 12 -13.5t17 -18.5l45 107q34 82 35 99q1 23 -31 32q-4 1 -10 2v6h146v-6q-23 -6 -35 -10.5t-29 -18t-32 -39.5t-33 -68zM110 192q0 -86 42.5 -139.5t122.5 -53.5q133 0 207 148l-215 239l-27 30
q-130 -66 -130 -224z" />
    <glyph glyph-name="asterisk.small" horiz-adv-x="304" 
d="M113 528q-21 -27 -41 -14q-21 14 1 44q9 11 35 32.5t38 34.5q-17 3 -49 4t-46 5q-15 4 -22 13.5t-3 20.5q6 24 40 13q13 -5 39.5 -23t43.5 -27q-3 18 -12.5 50.5t-9.5 46.5q0 34 24 34q25 0 25 -34q0 -14 -9.5 -46t-11.5 -51q18 9 44 27t39 23q33 11 41 -13
q4 -11 -3 -20.5t-23 -13.5q-14 -4 -46 -5t-50 -4q12 -12 39 -34t36 -33q20 -30 1 -44q-20 -13 -41 14q-8 11 -20.5 44t-19.5 48q-9 -17 -20 -49t-19 -43z" />
    <glyph glyph-name="slash.uc" horiz-adv-x="425" 
d="M389 790l14 -7l-369 -846l-14 7z" />
    <glyph glyph-name="at.uc" horiz-adv-x="829" 
d="M699 76l5 -7q-43 -40 -119.5 -71.5t-181.5 -31.5q-76 0 -142 20.5t-119 61.5t-84 110.5t-31 158.5q0 190 127.5 314.5t306.5 124.5q151 0 247.5 -83.5t96.5 -225.5q0 -139 -90.5 -227.5t-244.5 -86.5l15 91l-18 -18q-32 -31 -45 -42.5t-33.5 -22t-41.5 -10.5
q-56 0 -94.5 46.5t-38.5 125.5q0 123 76 205t166 82q34 0 68 -17.5t45 -17.5q29 0 44 25h7l-46 -272q-21 -118 -11 -140q8 -18 43 -6q172 61 172 270q0 138 -93 224t-232 86q-168 0 -280.5 -108t-112.5 -297q0 -171 99 -266.5t244 -95.5q185 0 296 101zM293 298
q0 -153 68 -153q23 0 44 15t61 56l21 22l43 257q7 38 -11 62.5t-63 24.5q-64 0 -113.5 -83.5t-49.5 -200.5z" />
    <glyph glyph-name="backslash.uc" horiz-adv-x="425" 
d="M36 790l369 -846l-14 -7l-369 846z" />
    <glyph glyph-name="exclamdown.uc" 
d="M107 760q21 0 35 -13.5t14 -34.5t-14 -35t-35 -14q-20 0 -34.5 14t-14.5 35t14 34.5t35 13.5zM112 559q3 -120 14 -234.5t20.5 -184t9.5 -88.5q0 -27 -13.5 -43t-36.5 -16t-36.5 16t-13.5 43q0 19 9.5 88.5t21 184t14.5 234.5h11z" />
    <glyph glyph-name="questiondown.uc" horiz-adv-x="398" 
d="M245 760q21 0 35 -13.5t14 -34.5t-14.5 -35t-34.5 -14q-21 0 -35 14t-14 35t14 34.5t35 13.5zM252 559h8q-2 -60 -25 -118.5t-50 -97.5t-49 -92.5t-22 -105.5q0 -78 30.5 -110t88.5 -32q44 0 61 34q4 6 9 18.5t8.5 18t11.5 10.5t20 5q16 0 25 -10t9 -25
q0 -25 -37.5 -42.5t-107.5 -17.5q-83 0 -140.5 41t-57.5 117q0 40 21 81t51.5 77t61.5 72.5t55.5 82.5t28.5 94z" />
    <glyph glyph-name="arrowleft.001" horiz-adv-x="774" 
d="M37 360l365 226l5 -7l-253 -218h574v-10h-574l253 -218l-5 -7l-365 226v8z" />
    <glyph glyph-name="arrowright.001" horiz-adv-x="774" 
d="M45 351v10h574l-252 218l4 7l365 -226v-8l-365 -226l-4 7l252 218h-574z" />
    <glyph glyph-name="arrowleft.002" horiz-adv-x="936" 
d="M37 358l279 255h15l-275 -252h461l107 139h13l-107 -139h57l107 139h14l-107 -139h57l107 139h13l-107 -139h57l107 139h13l-107 -139h57l107 139h14l-111 -144l111 -134h-14l-107 129h-57l107 -129h-13l-107 129h-57l107 -129h-13l-107 129h-57l107 -129h-14l-107 129
h-57l107 -129h-13l-107 129h-460l274 -242h-15l-279 245v4z" />
    <glyph glyph-name="arrowright.002" horiz-adv-x="936" 
d="M899 354l-280 -245h-14l273 242h-459l-107 -129h-13l107 129h-57l-107 -129h-13l107 129h-57l-107 -129h-14l107 129h-57l-107 -129h-13l107 129h-57l-107 -129h-14l111 134l-111 144h14l107 -139h57l-107 139h13l107 -139h57l-107 139h14l107 -139h57l-107 139h13
l107 -139h57l-107 139h13l107 -139h460l-274 252h14l280 -255v-4z" />
    <glyph glyph-name="arrowleft.003" horiz-adv-x="936" 
d="M37 352v8l276 248l8 -6l-184 -241h380l107 139h13l-107 -139h57l107 139h14l-107 -139h57l107 139h13l-107 -139h57l107 139h13l-107 -139h57l107 139h14l-111 -144l111 -134h-14l-107 129h-57l107 -129h-13l-107 129h-57l107 -129h-13l-107 129h-57l107 -129h-14
l-107 129h-57l107 -129h-13l-107 129h-380l184 -231l-8 -6z" />
    <glyph glyph-name="arrowright.003" horiz-adv-x="936" 
d="M899 352l-276 -238l-7 6l182 231h-379l-107 -129h-13l107 129h-57l-107 -129h-13l107 129h-57l-107 -129h-14l107 129h-57l-107 -129h-13l107 129h-57l-107 -129h-14l111 134l-111 144h14l107 -139h57l-107 139h13l107 -139h57l-107 139h14l107 -139h57l-107 139h13
l107 -139h57l-107 139h13l107 -139h379l-182 241l7 6l276 -248v-8z" />
    <glyph glyph-name="arrowleft.004" horiz-adv-x="954" 
d="M37 361q44 11 105 46t119.5 90t79.5 108l8 -3q-58 -186 -160 -241h345l102 125h14l-102 -125h57l102 125h13l-102 -125h57l102 125h14l-103 -125h57l103 125h13l-102 -125h57l102 125h13l-106 -130l106 -120h-13l-101 115h-58l102 -115h-13l-102 115h-58l103 -115h-14
l-101 115h-58l102 -115h-13l-101 115h-58l102 -115h-14l-101 115h-346q102 -55 160 -241l-8 -3q-31 79 -131 153t-173 91v10z" />
    <glyph glyph-name="arrowright.004" horiz-adv-x="954" 
d="M916 351q-72 -17 -172 -91t-131 -153l-8 3q58 186 159 241h-346l-101 -115h-13l102 115h-58l-101 -115h-14l103 115h-58l-102 -115h-13l102 115h-58l-101 -115h-13l102 115h-58l-101 -115h-14l106 120l-106 130h14l102 -125h57l-102 125h13l102 -125h57l-102 125h13
l103 -125h57l-103 125h14l102 -125h57l-102 125h13l102 -125h345q-101 55 -159 241l8 3q21 -53 79.5 -108t119 -90t104.5 -46v-10z" />
    <glyph glyph-name="bar.uc" horiz-adv-x="251" 
d="M118 788h15v-847h-15v847z" />
    <glyph glyph-name="sterling.alt" horiz-adv-x="534" 
d="M37 269v11h119q-5 15 -16.5 41.5t-13.5 32.5h-89v11h84q-49 116 -49 185q0 92 67.5 149t161.5 57q84 0 135 -34t51 -69q0 -15 -8.5 -25.5t-24.5 -10.5q-34 0 -43 36q0 1 -2 11.5t-3.5 15t-5.5 15t-8.5 16t-13 14t-18.5 12.5t-25 7.5t-33 3.5q-75 0 -112 -52.5t-37 -138.5
q0 -65 37 -192h223v-11h-220q15 -52 19 -74h201v-11h-199q8 -40 8 -76q0 -41 -10 -75q9 -4 39 -19.5t45 -21.5t42.5 -13t54.5 -7q113 0 135 129l9 -2q-8 -84 -47.5 -140t-110.5 -56q-25 0 -51 11.5t-41 23.5t-43 37t-39 34q-40 -100 -125 -100q-38 0 -59 20.5t-21 54.5
q0 38 26 59t67 21q46 0 86 -16q1 9 1 28q0 50 -20 108h-123zM10 69q0 -30 18.5 -48t51.5 -18q39 0 64 30t33 81q-41 26 -84 26q-37 0 -60 -19t-23 -52z" />
    <glyph glyph-name="acute.pl" horiz-adv-x="446" 
d="M200 532l-7 4l32 135q10 42 36 42q11 0 20.5 -7.5t9.5 -20.5q0 -14 -13 -34z" />
    <glyph glyph-name="grave.uc" horiz-adv-x="433" 
d="M330 778l-168 45q-40 11 -40 38q0 10 7.5 17.5t18.5 7.5q14 0 36 -12l149 -90z" />
    <glyph glyph-name="dieresis.uc" horiz-adv-x="477" 
d="M334 783q-19 0 -31 12.5t-12 31.5q0 18 12 30.5t31 12.5q17 0 29.5 -12.5t12.5 -30.5q0 -19 -12.5 -31.5t-29.5 -12.5zM142 783q-17 0 -29.5 12.5t-12.5 31.5q0 18 12.5 30.5t29.5 12.5q19 0 31 -12.5t12 -30.5q0 -19 -12 -31.5t-31 -12.5z" />
    <glyph glyph-name="macron.uc" horiz-adv-x="472" 
d="M339 831v-35h-206v35h206z" />
    <glyph glyph-name="acute.uc" horiz-adv-x="433" 
d="M114 778l-3 6l149 90q22 12 36 12q11 0 18.5 -7.5t7.5 -17.5q0 -27 -40 -38z" />
    <glyph glyph-name="breve.uc" horiz-adv-x="400" 
d="M200 827q71 0 91 54h9q-5 -37 -29 -67.5t-71 -30.5q-48 0 -72 30.5t-29 68.5h9q17 -55 92 -55z" />
    <glyph glyph-name="dotaccent.uc" horiz-adv-x="398" 
d="M199 783q-19 0 -32 13.5t-13 32.5t13 31.5t32 12.5t32 -12.5t13 -31.5t-13 -32.5t-32 -13.5z" />
    <glyph glyph-name="ring.uc" horiz-adv-x="362" 
d="M102 852q0 32 24 54.5t55 22.5q32 0 55.5 -22.5t23.5 -54.5q0 -33 -23.5 -55t-55.5 -22t-55.5 22t-23.5 55zM137 852q0 -31 12 -49.5t32 -18.5t32 18.5t12 49.5q0 30 -12 49.5t-32 19.5q-19 0 -31.5 -19.5t-12.5 -49.5z" />
    <glyph glyph-name="tilde.uc" horiz-adv-x="500" 
d="M201 864q11 0 54 -6.5t54 -6.5q24 0 51 46l7 -2q-13 -44 -31 -65.5t-36 -21.5q-14 0 -57 6t-53 6q-26 0 -58 -47l-6 2q15 44 35.5 66.5t39.5 22.5z" />
    <glyph glyph-name="hungarumlaut.uc" horiz-adv-x="433" 
d="M241 772l-5 6l62 86q21 30 39 30q25 0 25 -24q0 -18 -21 -33zM102 772l-5 6l62 86q9 12 12.5 16t11 9t15.5 5q25 0 25 -24q0 -20 -21 -33z" />
    <glyph glyph-name="acute.ucpl" horiz-adv-x="348" 
d="M163 779l-6 3l25 94q6 22 14 30.5t22 8.5q12 0 20 -8t8 -19q0 -18 -15 -34z" />
    <glyph glyph-name="idotaccent" 
d="M103 559q-19 0 -32 13t-13 32t13 32t32 13t32 -13t13 -32t-13 -32t-32 -13zM24 0v7q31 8 37 30.5t6 115.5v129q0 89 -5 105t-36 19v8l116 62v-323q0 -93 6.5 -115.5t38.5 -30.5v-7h-163z" />
    <glyph glyph-name="thinspace" horiz-adv-x="72" 
 />
    <glyph glyph-name="Gcommaaccent.alt" horiz-adv-x="673" 
d="M364 -8q-153 0 -242.5 107t-89.5 282q0 94 30 168t79.5 118t108 67t121.5 23q50 0 85.5 -10.5t57.5 -20.5t39 -10q22 0 30 28h9v-153h-9q-36 157 -212 157q-252 0 -252 -357q0 -391 245 -391q76 0 125 23.5t49 70.5v44q0 62 -0.5 96t-2.5 65t-5 44t-10 24t-15 14t-22 6v7
h133v-379h-8q-1 15 -7.5 20.5t-21.5 5.5q-14 0 -41.5 -12t-72 -24.5t-101.5 -12.5zM368 -121q-12 -12 -29 -12q-16 0 -27 10.5t-11 27.5q0 19 12.5 30t30.5 11q21 0 35 -14.5t14 -40.5q0 -68 -72 -82l-4 7q56 12 56 49q0 9 -5 14z" />
    <glyph glyph-name="commaaccent.alt" horiz-adv-x="500" 
d="M232 617q12 12 28 12t27 -10.5t11 -28.5q0 -19 -12 -30t-30 -11q-21 0 -35 15t-14 40q0 68 72 83l4 -8q-56 -12 -56 -49q0 -8 5 -13z" />
    <glyph glyph-name="bullet.alt" horiz-adv-x="337" 
d="M40 363l128 131l129 -131l-129 -128z" />
    <glyph glyph-name="periodcentered.alt" horiz-adv-x="194" 
d="M38 280l59 60l59 -60l-59 -59z" />
    <glyph glyph-name="periodcentered.ucalt" horiz-adv-x="194" 
d="M38 378l59 60l59 -60l-59 -59z" />
    </font>
</defs>
</svg>
