<?xml version="1.0" standalone="no"?>
<!DOCTYPE svg PUBLIC "-//W3C//DTD SVG 1.1//EN" "http://www.w3.org/Graphics/SVG/1.1/DTD/svg11.dtd" >
<svg xmlns="http://www.w3.org/2000/svg" xmlns:xlink="http://www.w3.org/1999/xlink" version="1.1">
<metadata>
Created by FontForge 20161003 at Tue Jul 17 20:53:07 2018
 By www-data
Copyright (c) 2018 Commercial Type, Inc.. All rights reserved.
</metadata>
<defs>
<font id="SchnyderLLightItalic" horiz-adv-x="437" >
  <font-face 
    font-family="SchnyderLLightItalic"
    font-weight="300"
    font-style="italic"
    font-stretch="normal"
    units-per-em="1000"
    panose-1="0 0 0 0 0 0 0 0 0 0"
    ascent="836"
    descent="-164"
    x-height="466"
    cap-height="750"
    bbox="-155 -295 1069 1039"
    underline-thickness="16"
    underline-position="-94"
    unicode-range="U+0020-FB04"
  />
<missing-glyph horiz-adv-x="500" 
d="M50 -164v942h400v-942h-400zM100 -114h300v842h-300v-842z" />
    <glyph glyph-name="f_f" unicode="ff" horiz-adv-x="448" 
d="M-17 0l2 7q29 7 39 29.5t28 116.5l60 303h-49l1 8q35 4 46 18t21 62l4 21q21 98 76 144.5t118 46.5q35 0 57.5 -12t28.5 -30q48 48 107 48q30 0 47 -12t17 -31q0 -14 -9 -22.5t-21 -8.5q-13 0 -22.5 9t-10.5 25q-3 25 -6 28t-10 3q-24 0 -41 -26.5t-31 -97.5l-32 -163h95
l-1 -10h-96l-59 -303q-18 -89 -14 -113t44 -33l-2 -7h-171l2 7q30 7 39.5 29t28.5 117l59 303h-143l-60 -303q-18 -89 -14 -113t44 -33l-2 -7h-170zM187 466h143l22 114q12 58 36 97q-26 2 -28 29q-3 23 -10.5 31.5t-29.5 8.5q-36 0 -62.5 -33t-44.5 -121z" />
    <glyph glyph-name="f_f_i" unicode="ffi" horiz-adv-x="642" 
d="M-17 0l2 7q29 7 39 29.5t28 116.5l60 303h-49l1 8q35 4 46 18t21 62l4 21q21 98 76 144.5t118 46.5q35 0 57.5 -12t28.5 -30q47 48 107 48q30 0 47 -12t17 -31q0 -14 -9 -22.5t-21 -8.5q-13 0 -22.5 9t-10.5 25q-3 25 -6 28t-10 3q-24 0 -41 -26.5t-31 -97.5l-32 -163h93
l127 10l-64 -323q-10 -51 -13.5 -73t-2 -40t8.5 -23.5t23 -9.5l-1 -7h-159l2 7q31 8 40.5 30t28.5 116l34 177q16 88 12.5 107t-37.5 19h-94l-59 -303q-18 -89 -14 -113t44 -33l-2 -7h-171l2 7q30 7 39.5 29t28.5 117l59 303h-143l-60 -303q-18 -89 -14 -113t44 -33l-2 -7
h-170zM187 466h143l22 115q12 57 35 96q-25 2 -27 29q-3 23 -10.5 31.5t-29.5 8.5q-36 0 -62.5 -33t-44.5 -121zM609 559q-19 0 -31.5 13t-12.5 32t12.5 32t31.5 13t32 -13t13 -32t-13 -32t-32 -13z" />
    <glyph glyph-name="f_f_l" unicode="ffl" horiz-adv-x="652" 
d="M-17 0l2 7q29 7 39 29.5t28 116.5l60 303h-49l1 8q35 4 46 18t21 62l4 21q21 98 76 144.5t118 46.5q37 0 60 -13t27 -32q49 49 114 49q44 0 69 -21l81 36l-121 -622q-10 -51 -13.5 -73t-2.5 -40t8.5 -23.5t23.5 -9.5l-2 -7h-159l2 7q30 7 40 29.5t29 116.5l83 423
q18 92 17 111h-3q-27 0 -30 31q-2 17 -8 24.5t-24 7.5q-30 0 -50.5 -24.5t-34.5 -96.5l-32 -163h91l-1 -10h-92l-59 -303q-18 -89 -14 -113t44 -33l-2 -7h-171l2 7q30 7 39.5 29t28.5 117l59 303h-143l-60 -303q-18 -89 -14 -113t44 -33l-2 -7h-170zM187 466h143l22 115
q12 56 37 96q-27 0 -29 29q-3 23 -10.5 31.5t-29.5 8.5q-36 0 -62.5 -33t-44.5 -121z" />
    <glyph glyph-name="f_b" unicode="fb" horiz-adv-x="738" 
d="M-17 0l2 7q29 7 39 29.5t28 116.5l60 303h-49l1 8q35 4 45.5 19.5t22.5 72.5l5 26q19 91 69 134.5t108 43.5q44 0 68 -21l82 36l-78 -404l28 27q83 76 156 76q71 0 106 -50.5t35 -127.5q0 -56 -17.5 -109t-50.5 -97.5t-88 -71.5t-124 -27q-43 0 -75 11.5t-51 23t-30 11.5
q-17 0 -24 -17h-8l111 568q16 87 15 99h-3q-29 0 -30 31q-2 17 -8.5 24.5t-23.5 7.5q-30 0 -50.5 -24.5t-35.5 -96.5l-32 -163h92l-1 -10h-92l-60 -303q-18 -89 -14 -113t44 -33l-2 -7h-170zM330 37q9 -17 37 -27.5t63 -10.5q96 0 150.5 95.5t54.5 225.5q0 76 -20.5 107.5
t-64.5 31.5q-58 0 -138 -74l-29 -27l-53 -273q-7 -30 0 -48z" />
    <glyph glyph-name="f_f_b" unicode="ffb" horiz-adv-x="954" 
d="M-17 0l2 7q29 7 39 29.5t28 116.5l60 303h-49l1 8q35 4 46 18t21 62l4 21q21 98 76 144.5t118 46.5q37 0 60 -13t27 -32q49 49 114 49q44 0 69 -21l82 36l-79 -404l29 27q82 76 156 76q70 0 105 -50.5t35 -127.5q0 -76 -29 -143.5t-94.5 -114.5t-156.5 -47
q-43 0 -75 11.5t-50.5 23t-29.5 11.5q-18 0 -25 -17h-7l110 568q16 87 15 99h-3q-27 0 -30 31q-2 17 -8 24.5t-24 7.5q-30 0 -50.5 -24.5t-34.5 -96.5l-32 -163h91l-1 -10h-92l-59 -303q-18 -89 -14 -113t44 -33l-2 -7h-171l2 7q30 7 39.5 29t28.5 117l59 303h-143l-60 -303
q-18 -89 -14 -113t44 -33l-2 -7h-170zM187 466h143l22 115q12 56 37 96q-27 0 -29 29q-3 23 -10.5 31.5t-29.5 8.5q-36 0 -62.5 -33t-44.5 -121zM547 37q9 -17 36.5 -27.5t63.5 -10.5q65 0 112.5 47.5t69.5 119t22 154.5q0 76 -20.5 107.5t-64.5 31.5q-58 0 -138 -74
l-28 -26l-54 -274q-6 -33 1 -48z" />
    <glyph glyph-name="f_f_h" unicode="ffh" horiz-adv-x="931" 
d="M-17 0l2 7q29 7 39 29.5t28 116.5l60 303h-49l1 8q35 4 46 18t21 62l4 21q21 98 76 144.5t118 46.5q37 0 60 -13t27 -32q49 49 114 49q46 0 70 -22l80 38l-79 -409l36 29q99 78 170 78q51 0 73.5 -33.5t11.5 -91.5l-38 -196q-19 -91 -17.5 -114.5t29.5 -31.5l-2 -7h-157
l2 7q32 7 42 29.5t29 116.5l38 196q12 62 1 85t-40 23q-54 0 -145 -73l-36 -29l-39 -202q-10 -51 -13.5 -73t-2.5 -40t8 -23.5t23 -9.5l-2 -7h-156l2 7q29 7 38.5 29.5t28.5 116.5l85 435q16 86 15 99h-3q-27 0 -30 31q-2 17 -8 24.5t-24 7.5q-30 0 -50.5 -24.5t-34.5 -96.5
l-32 -163h91l-1 -10h-92l-59 -303q-18 -89 -14 -113t44 -33l-2 -7h-171l2 7q30 7 39.5 29t28.5 117l59 303h-143l-60 -303q-18 -89 -14 -113t44 -33l-2 -7h-170zM187 466h143l22 115q12 56 37 96q-27 0 -29 29q-3 23 -10.5 31.5t-29.5 8.5q-36 0 -62.5 -33t-44.5 -121z" />
    <glyph glyph-name="f_f_j" unicode="ffj" horiz-adv-x="635" 
d="M-17 0l2 7q29 7 39 29.5t28 116.5l60 303h-49l1 8q35 4 46 18t21 62l4 21q21 98 76 144.5t118 46.5q35 0 57.5 -12t28.5 -30q47 48 107 48q30 0 47 -12t17 -31q0 -14 -9 -22.5t-21 -8.5q-13 0 -22.5 9t-10.5 25q-3 25 -6 28t-10 3q-24 0 -41 -26.5t-31 -97.5l-32 -163h93
l127 10l-79 -402q-23 -119 -122 -184q-49 -29 -73 -29q-18 0 -29 8.5t-11 22.5q0 12 9 20.5t24 8.5q17 0 32.5 -15.5t24.5 -15.5q8 0 15 5q24 15 47 131l59 304q16 88 12.5 107t-37.5 19h-94l-59 -303q-18 -89 -14 -113t44 -33l-2 -7h-171l2 7q30 7 39.5 29t28.5 117l59 303
h-143l-60 -303q-18 -89 -14 -113t44 -33l-2 -7h-170zM187 466h143l22 115q12 57 35 96q-25 2 -27 29q-3 23 -10.5 31.5t-29.5 8.5q-36 0 -62.5 -33t-44.5 -121zM609 559q-19 0 -31.5 13t-12.5 32t12.5 32t31.5 13t32 -13t13 -32t-13 -32t-32 -13z" />
    <glyph glyph-name="f_f_k" unicode="ffk" horiz-adv-x="876" 
d="M-17 0l2 7q29 7 39 29.5t28 116.5l60 303h-49l1 8q35 4 46 18t21 62l4 21q21 98 76 144.5t118 46.5q37 0 60 -13t27 -32q49 49 114 49q44 0 68 -21l82 37l-121 -623q-10 -51 -13.5 -73t-2.5 -40t8 -23.5t23 -9.5l-2 -7h-156l2 7q29 7 38.5 29t28.5 117l83 423
q18 100 17 111h-3q-27 0 -30 31q-2 17 -8 24.5t-24 7.5q-30 0 -50.5 -24.5t-34.5 -96.5l-32 -163h91l-1 -10h-92l-59 -303q-18 -89 -14 -113t44 -33l-2 -7h-171l2 7q30 7 39.5 29t28.5 117l59 303h-143l-60 -303q-18 -89 -14 -113t44 -33l-2 -7h-170zM187 466h143l22 115
q12 56 37 96q-27 0 -29 29q-3 23 -10.5 31.5t-29.5 8.5q-36 0 -62.5 -33t-44.5 -121zM685 0l2 8q15 0 22 13t-6 38l-123 185l3 6l189 151q21 17 27 30t-0.5 20t-22.5 9v6h115l-1 -6q-43 -10 -114 -67l-139 -111l153 -231q16 -25 25 -33t20 -10l-2 -8h-148z" />
    <glyph glyph-name="f_h" unicode="fh" horiz-adv-x="714" 
d="M-17 0l2 7q29 7 39 29.5t28 116.5l60 303h-49l1 8q35 4 45.5 19.5t22.5 72.5l5 26q19 91 69 134.5t108 43.5q45 0 69 -22l81 38l-80 -409l37 29q99 78 169 78q52 0 74.5 -33.5t11.5 -91.5l-39 -196q-18 -91 -16.5 -114.5t28.5 -31.5l-2 -7h-157l2 7q32 7 42.5 30
t28.5 116l39 196q12 62 0.5 85t-39.5 23q-54 0 -145 -73l-37 -29l-39 -202q-10 -51 -13.5 -73t-2 -40t8.5 -23.5t23 -9.5l-2 -7h-156l2 7q29 7 38.5 29.5t28.5 116.5l85 435q16 86 15 99h-3q-29 0 -30 31q-2 17 -8.5 24.5t-23.5 7.5q-30 0 -50.5 -24.5t-35.5 -96.5l-32 -163
h92l-1 -10h-92l-60 -303q-18 -89 -14 -113t44 -33l-2 -7h-170z" />
    <glyph glyph-name="f_i" unicode="fi" horiz-adv-x="425" 
d="M-17 0l2 7q29 7 39 29.5t28 116.5l60 303h-49l1 8q35 4 45.5 19.5t22.5 72.5l5 26q19 91 66 135.5t102 44.5q31 0 47.5 -12t16.5 -31q0 -14 -8.5 -22.5t-20.5 -8.5q-13 0 -22.5 9t-10.5 25q0 3 -1 8q-1 20 -10 22q-2 1 -6 1q-23 0 -40.5 -26.5t-31.5 -97.5l-32 -163h94
l126 10l-63 -323q-10 -51 -13.5 -73t-2.5 -40t8.5 -23.5t23.5 -9.5l-2 -7h-159l2 7q31 8 41 30t28 116l34 177q9 48 12 69.5t0 36t-10.5 17.5t-25.5 3h-94l-60 -303q-18 -89 -14 -113t44 -33l-2 -7h-170zM393 559q-19 0 -32 13t-13 32t13 32t32 13t32 -13t13 -32t-13 -32
t-32 -13z" />
    <glyph glyph-name="f_j" unicode="fj" horiz-adv-x="419" 
d="M-17 0l2 7q29 7 39 29.5t28 116.5l60 303h-49l1 8q35 4 45.5 19.5t22.5 72.5l5 26q19 91 66 135.5t102 44.5q31 0 47.5 -12t16.5 -31q0 -14 -8.5 -22.5t-20.5 -8.5q-13 0 -22.5 9t-10.5 25q0 3 -1 8q-1 20 -10 22q-2 1 -6 1q-23 0 -40.5 -26.5t-31.5 -97.5l-32 -163h94
l126 10l-78 -402q-24 -119 -123 -184q-49 -29 -72 -29q-40 0 -40 31q0 12 9 20.5t24 8.5q17 0 32 -15.5t24 -15.5t16 5q24 15 47 131l58 304q16 88 12.5 107t-36.5 19h-94l-60 -303q-18 -89 -14 -113t44 -33l-2 -7h-170zM393 559q-19 0 -32 13t-13 32t13 32t32 13t32 -13
t13 -32t-13 -32t-32 -13z" />
    <glyph glyph-name="f_k" unicode="fk" horiz-adv-x="659" 
d="M-17 0l2 7q29 7 39 29.5t28 116.5l60 303h-49l1 8q35 4 45.5 19.5t22.5 72.5l5 26q19 91 69 134.5t108 43.5q44 0 68 -21l82 37l-122 -623q-18 -91 -16 -114.5t32 -31.5l-2 -7h-156l2 7q29 7 39 29.5t28 116.5l82 423q18 92 17 111h-2q-29 0 -30 31q-2 17 -8.5 24.5
t-23.5 7.5q-30 0 -50.5 -24.5t-35.5 -96.5l-32 -163h92l-1 -10h-92l-60 -303q-18 -89 -14 -113t44 -33l-2 -7h-170zM468 0l2 8q15 0 22 13t-6 38l-123 185l3 6l189 151q21 17 27 30t-0.5 20t-22.5 9v6h115l-1 -6q-43 -10 -114 -67l-139 -111l153 -231q16 -25 25 -33t20 -10
l-2 -8h-148z" />
    <glyph glyph-name="f_l" unicode="fl" horiz-adv-x="426" 
d="M-17 0l2 7q29 7 39 29.5t28 116.5l60 303h-49l1 8q35 4 45.5 19.5t22.5 72.5l5 26q19 91 69 134.5t108 43.5q44 0 68 -21l82 36l-122 -622q-10 -51 -13.5 -73t-2 -40t8.5 -23.5t23 -9.5l-1 -7h-159l2 7q30 7 40 29.5t29 116.5l82 423q19 96 17 111h-2q-29 0 -30 31
q-2 17 -8.5 24.5t-23.5 7.5q-30 0 -50.5 -24.5t-35.5 -96.5l-32 -163h92l-1 -10h-92l-60 -303q-18 -89 -14 -113t44 -33l-2 -7h-170z" />
    <glyph glyph-name="g_j" unicode="gj" horiz-adv-x="641" 
d="M615 559q-19 0 -31.5 13t-12.5 32t12.5 32t31.5 13t32 -13t13 -32t-13 -32t-32 -13zM48 298q0 73 59.5 125t137.5 52q51 0 90 -26q51 51 97 51q32 0 32 -26q0 -27 -30 -27q-9 0 -25 5.5t-29 5.5q-22 0 -42 -11q58 -41 58 -113q0 -70 -59 -121.5t-138 -51.5q-47 0 -84 21
l-16 -8q-37 -17 -37 -44q0 -26 51 -37l147 -33q106 -22 106 -100q0 -21 -8 -40q9 -2 22.5 -16t24.5 -14q8 0 15 5q24 15 47 131l50 255q18 97 13 111q-3 11 -29 14l2 8l126 62l-79 -402q-23 -119 -122 -184q-48 -29 -73 -29q-27 0 -31 16q-61 -49 -179 -49q-45 0 -83.5 7.5
t-69 29.5t-30.5 56q0 67 123 107q-28 6 -44.5 23.5t-16.5 43.5q0 56 67 84l17 7q-60 40 -60 112zM326 357q0 109 -81 109q-56 0 -91.5 -58t-35.5 -129q0 -50 20.5 -79.5t60.5 -29.5q58 0 92.5 57t34.5 130zM15 -75q0 -46 38.5 -67t98.5 -21q74 0 125 25.5t51 64.5
q0 28 -26 42.5t-72 25.5l-132 30q-83 -33 -83 -100z" />
    <glyph glyph-name=".notdef" horiz-adv-x="500" 
d="M50 -164v942h400v-942h-400zM100 -114h300v842h-300v-842z" />
    <glyph glyph-name=".null" horiz-adv-x="0" 
 />
    <glyph glyph-name="nonmarkingreturn" horiz-adv-x="333" 
 />
    <glyph glyph-name="space" unicode=" " horiz-adv-x="179" 
 />
    <glyph glyph-name="exclam" unicode="!" horiz-adv-x="211" 
d="M93 191q30 179 41.5 337t13.5 172q9 56 54 56q43 0 43 -50q0 -30 -20.5 -92t-57 -179t-64.5 -244h-10zM70 -10q-21 0 -35 13.5t-14 34.5t14.5 35t34.5 14q21 0 35 -14t14 -35t-14 -34.5t-35 -13.5z" />
    <glyph glyph-name="quotedbl" unicode="&#x22;" horiz-adv-x="245" 
d="M137 572q1 8 1 25q0 18 -2.5 50.5t-2.5 46.5q0 69 42 69q31 0 31 -38q0 -26 -26 -77.5t-34 -75.5h-9zM235 572q1 8 1 25q0 18 -2.5 50.5t-2.5 46.5q0 69 42 69q31 0 31 -38q0 -26 -26 -77.5t-34 -75.5h-9z" />
    <glyph glyph-name="numbersign" unicode="#" horiz-adv-x="465" 
d="M44 1l98 267h-111v12h116l88 240h-112v12h117l80 218h14l-80 -218h132l80 218h14l-80 -218h110v-12h-114l-89 -240h111v-12h-115l-98 -267h-14l98 267h-131l-98 -267h-16zM162 280h131l89 240h-132z" />
    <glyph glyph-name="dollar" unicode="$" horiz-adv-x="488" 
d="M461 214q0 -86 -66 -148t-161 -71l-17 -90h-13l17 89h-14q-23 0 -46 3l-18 -92h-13l18 94q-65 13 -106 49t-41 79q0 40 32 40q17 0 25 -12t14 -38q17 -87 78 -107l74 379q-61 42 -91.5 83t-30.5 96q0 77 55 127t137 60l16 80h13l-15 -79q7 1 23 1q14 0 38 -2l15 80h13
l-16 -82q62 -9 100 -37.5t38 -59.5q0 -15 -8 -25.5t-25 -10.5q-28 0 -37 36q-4 21 -8 33t-20 29t-42 24l-61 -317q66 -48 104.5 -97t38.5 -114zM280 452q11 -7 26 -19l61 312q-17 3 -36 3q-17 0 -25 -1l-53 -276q3 -3 12.5 -9t14.5 -10zM157 605q0 -41 20 -67.5t64 -57.5
l52 265q-62 -9 -99 -46.5t-37 -93.5zM249 372q-2 1 -7 4t-7 5l-72 -374q20 -5 44 -5h16l66 343q-26 18 -40 27zM392 176q0 91 -92 160l-64 -332q73 8 114.5 55.5t41.5 116.5z" />
    <glyph glyph-name="percent" unicode="%" horiz-adv-x="721" 
d="M419 610q0 -87 -57 -159t-142 -72q-62 0 -98.5 41.5t-36.5 104.5q0 88 58 159.5t142 71.5q66 0 100 -41.5t34 -104.5zM83 -2l-11 8l624 748l11 -8zM140 501q0 -113 80 -113q58 0 101 81.5t43 166.5q0 111 -79 111q-60 0 -102.5 -80t-42.5 -166zM694 225q0 -87 -57.5 -159
t-141.5 -72q-63 0 -99.5 41.5t-36.5 104.5q0 88 58 159.5t142 71.5q66 0 100.5 -41.5t34.5 -104.5zM414 116q0 -113 81 -113q58 0 100.5 81.5t42.5 166.5q0 111 -79 111q-60 0 -102.5 -80t-42.5 -166z" />
    <glyph glyph-name="ampersand" unicode="&#x26;" horiz-adv-x="719" 
d="M223 -10q-95 0 -148.5 51.5t-53.5 132.5q0 177 249 255q-49 79 -49 148q0 79 48.5 131t121.5 52q61 0 99.5 -31.5t38.5 -86.5q0 -61 -48 -107t-131 -85q2 -4 7 -11.5l7 -10.5l114 -174q7 -10 19 -30l62 101q3 5 9 14q46 76 47 93q0 20 -35 26v8h145v-8q-27 -6 -38 -10
t-31.5 -17t-40 -38t-45.5 -68l-67 -109q96 -149 119 -176q24 -26 48 -33l-1 -7h-115l-96 144q-52 -78 -106.5 -116t-128.5 -38zM284 629q0 -72 60 -171q65 41 96 83t31 106q0 104 -83 104q-44 0 -74 -33.5t-30 -88.5zM102 185q0 -76 39 -126t113 -50q102 0 199 144l-135 203
q-30 44 -43 65q-71 -28 -122 -87t-51 -149z" />
    <glyph glyph-name="quotesingle" unicode="'" horiz-adv-x="148" 
d="M137 572q1 8 1 25q0 18 -2.5 50.5t-2.5 46.5q0 69 42 69q31 0 31 -38q0 -26 -26 -77.5t-34 -75.5h-9z" />
    <glyph glyph-name="parenleft" unicode="(" horiz-adv-x="292" 
d="M218 -106q-135 140 -135 355q0 342 312 547l4 -6q-46 -31 -89.5 -82t-83.5 -123.5t-64 -172.5t-24 -211q0 -198 87 -301z" />
    <glyph glyph-name="parenright" unicode=")" horiz-adv-x="294" 
d="M124 796q135 -140 135 -355q0 -342 -312 -547l-4 6q46 31 89.5 82t83.5 123.5t64 172.5t24 211q0 198 -87 301z" />
    <glyph glyph-name="asterisk" unicode="*" horiz-adv-x="296" 
d="M232 533q-7 -28 -25 -24q-20 3 -14 32q3 13 16.5 42.5t19.5 45.5q-15 -14 -36.5 -38t-30.5 -31q-25 -14 -37 2q-11 16 14 33q10 6 40.5 16.5t46.5 19.5q-18 1 -53.5 -0.5t-40.5 0.5q-29 6 -25 25q5 20 32 14q12 -2 41.5 -16t46.5 -20q-13 15 -36.5 36t-31.5 31
q-14 26 2 36q15 12 32 -13q7 -11 18.5 -42t18.5 -46q1 18 -0.5 54t0.5 41q2 14 9 20.5t16 4.5q20 -5 14 -32q-3 -13 -17 -43.5t-19 -45.5q13 12 34.5 36.5t32.5 32.5q24 15 35 -2q12 -15 -13 -33q-11 -6 -40 -17t-47 -20q17 0 53.5 2t41.5 -1q27 -6 24 -26q-3 -19 -32 -13
q-13 3 -41.5 16t-45.5 19q12 -13 35.5 -33.5t31.5 -31.5q16 -24 -1 -37q-16 -11 -33 14q-6 10 -16.5 40t-19.5 47q-1 -19 0.5 -52.5t-0.5 -42.5z" />
    <glyph glyph-name="plus" unicode="+" horiz-adv-x="474" 
d="M274 159h-13v186h-185v12h185v187h13v-187h184v-12h-184v-186z" />
    <glyph glyph-name="comma" unicode="," horiz-adv-x="186" 
d="M-8 -104l-3 6q39 19 63 50.5t19 50.5q-11 -6 -27 -6q-17 0 -29.5 12t-12.5 31q0 21 14 34t33 13q22 0 37 -14t15 -44q0 -42 -30.5 -77.5t-78.5 -55.5z" />
    <glyph glyph-name="hyphen" unicode="-" horiz-adv-x="262" 
d="M45 251l14 50h180l-14 -50h-180z" />
    <glyph glyph-name="period" unicode="." horiz-adv-x="182" 
d="M51 -10q-21 0 -35 13.5t-14 34.5t14 35t35 14q20 0 34.5 -14t14.5 -35t-14 -34.5t-35 -13.5z" />
    <glyph glyph-name="slash" unicode="/" horiz-adv-x="417" 
d="M494 801l13 -6l-598 -963l-13 6z" />
    <glyph glyph-name="zero" unicode="0" horiz-adv-x="628" 
d="M56 284q0 119 43 227t125 177.5t184 69.5q108 0 164.5 -81.5t56.5 -212.5q0 -118 -42.5 -225.5t-124.5 -177t-184 -69.5q-109 0 -165.5 81t-56.5 211zM546 522q0 106 -30.5 166.5t-107.5 60.5q-63 0 -115.5 -49t-85 -126.5t-50.5 -168t-18 -178.5q0 -226 139 -226
q62 0 114.5 49t85 126.5t50.5 167.5t18 178z" />
    <glyph glyph-name="one" unicode="1" horiz-adv-x="265" 
d="M200 0h-221l2 7q37 6 53.5 22t30 61t36.5 160l46 238q22 110 16 132.5t-59 18.5l1 7l174 115l-99 -511q-32 -163 -29 -199t51 -44z" />
    <glyph glyph-name="two" unicode="2" horiz-adv-x="499" 
d="M-29 0l242 226q123 113 172.5 200t49.5 174q0 149 -121 149q-33 0 -58 -9.5t-39 -27t-20.5 -30t-13.5 -32.5q-13 -41 -43 -41q-14 0 -23 9t-9 25q0 44 58.5 79.5t147.5 35.5q97 0 151.5 -44.5t54.5 -127.5q0 -39 -14.5 -77t-32.5 -66t-57.5 -67.5t-65.5 -62t-81 -68.5
q-20 -17 -30 -25l-187 -155h186q133 0 168 8.5t58 47.5h9l-41 -83q-13 -25 -18.5 -31.5t-19.5 -6.5h-423z" />
    <glyph glyph-name="three" unicode="3" horiz-adv-x="529" 
d="M181 750h385l-2 -8l-330 -292q43 26 98 26q85 0 129.5 -50.5t44.5 -127.5q0 -122 -91.5 -213t-236.5 -91q-82 0 -131.5 30.5t-49.5 73.5q0 18 9 28.5t24 10.5q13 0 22.5 -9.5t13 -17.5t10.5 -28q26 -79 108 -79q74 0 130.5 46t83.5 117t27 153q0 149 -108 149
q-27 0 -53.5 -10.5t-43 -22t-42.5 -33.5l-4 5l313 277h-137q-102 0 -142 -4t-55.5 -13.5t-32.5 -38.5h-9l41 89q11 23 15.5 28t13.5 5z" />
    <glyph glyph-name="four" unicode="4" horiz-adv-x="576" 
d="M519 179h-95q-14 -77 -16 -110t5 -44.5t29 -17.5l-1 -7h-182l1 7q25 6 36.5 17.5t22.5 44.5t26 110h-329l1 6l497 571h22l-98 -504q-2 -12 -4 -19h124zM71 233h284q2 7 4 19l78 403z" />
    <glyph glyph-name="five" unicode="5" horiz-adv-x="517" 
d="M546 750l-26 -44q-9 -15 -13 -18.5t-14 -3.5h-283l-89 -251q72 55 173 55q100 0 150 -51.5t50 -138.5q0 -120 -90.5 -213.5t-235.5 -93.5q-83 0 -132.5 31t-49.5 74q0 17 9 27.5t24 10.5q13 0 22 -9t13 -18.5t10 -27.5q26 -79 111 -79q73 0 129 48.5t83 120t27 150.5
q0 160 -129 160q-98 0 -173 -61l-5 4l117 328h322z" />
    <glyph glyph-name="six" unicode="6" horiz-adv-x="590" 
d="M574 319q0 -78 -36 -152t-107 -124.5t-158 -50.5q-108 0 -161 76.5t-53 197.5q0 85 26.5 170.5t75 158t124.5 117.5t165 45q78 0 125.5 -29.5t47.5 -66.5q0 -15 -8 -24t-21 -9q-28 0 -40 34q-7 22 -10.5 30.5t-15 25t-31 23.5t-48.5 7q-98 0 -172.5 -92.5t-112.5 -231.5
q94 94 214 94q96 0 146 -56t50 -143zM138 229q0 -104 34 -166t102 -62q62 0 114 51.5t79.5 130t27.5 162.5q0 164 -126 164q-112 0 -208 -99q-23 -94 -23 -181z" />
    <glyph glyph-name="seven" unicode="7" horiz-adv-x="472" 
d="M131 721q9 19 14 24t17 5h370l-2 -8l-395 -742h-10l363 684h-201h-70.5t-47.5 -4t-31 -5.5t-18.5 -13t-13 -16.5t-12.5 -26h-10z" />
    <glyph glyph-name="eight" unicode="8" horiz-adv-x="533" 
d="M499 196q0 -93 -70 -149.5t-182 -56.5q-98 0 -159.5 42.5t-61.5 124.5q0 144 221 229q-58 41 -88 83t-30 98q0 85 65.5 139t161.5 54q78 0 131.5 -35t53.5 -103q0 -63 -48 -117t-138 -86q68 -50 106 -102.5t38 -120.5zM339 430q6 -4 8 -6q68 28 107.5 77.5t39.5 115.5
q0 65 -38.5 100.5t-102.5 34.5q-70 0 -120.5 -39t-50.5 -103q0 -25 8 -45.5t32 -43.5t38.5 -34.5t57.5 -41.5q4 -3 6.5 -5t7 -5zM250 -1q81 0 135 45.5t54 119.5q0 59 -36.5 100.5t-115.5 94.5q-11 7 -31 21q-86 -37 -130 -88.5t-44 -127.5q0 -82 48.5 -123.5t119.5 -41.5z
" />
    <glyph glyph-name="nine" unicode="9" horiz-adv-x="594" 
d="M594 483q0 -67 -16.5 -136t-50 -132.5t-79.5 -113.5t-110 -79.5t-136 -29.5q-77 0 -125 29.5t-48 66.5q0 33 30 33q28 0 39 -34q16 -47 32 -62q25 -24 73 -24q98 0 173 93.5t112 231.5q-95 -95 -214 -95q-96 0 -146 56t-50 143q0 122 86 224.5t216 102.5q108 0 161 -76.5
t53 -197.5zM515 521q0 103 -34.5 165t-101.5 62q-62 0 -114 -51.5t-79.5 -130t-27.5 -161.5q0 -165 126 -165q111 0 208 100q23 94 23 181z" />
    <glyph glyph-name="colon" unicode=":" horiz-adv-x="190" 
d="M125 344q-21 0 -35 14t-14 35q0 20 14 34.5t35 14.5q20 0 34.5 -14.5t14.5 -34.5q0 -21 -14.5 -35t-34.5 -14zM56 -10q-21 0 -35 13.5t-14 34.5t14 35t35 14t35 -14t14 -35t-14 -34.5t-35 -13.5z" />
    <glyph glyph-name="semicolon" unicode=";" horiz-adv-x="191" 
d="M128 344q-20 0 -34.5 14t-14.5 35q0 20 14.5 34.5t34.5 14.5q21 0 35 -14.5t14 -34.5q0 -21 -14 -35t-35 -14zM-2 -104l-4 6q39 19 63.5 51t18.5 50q-9 -6 -27 -6q-17 0 -29 12t-12 31q0 21 13.5 34t33.5 13q21 0 36 -14t15 -44q0 -42 -30.5 -77.5t-77.5 -55.5z" />
    <glyph glyph-name="less" unicode="&#x3c;" horiz-adv-x="459" 
d="M73 343v15l351 147v-14l-334 -140l334 -140v-15z" />
    <glyph glyph-name="equal" unicode="=" horiz-adv-x="464" 
d="M76 406v13h381v-13h-381zM76 277v13h381v-13h-381z" />
    <glyph glyph-name="greater" unicode="&#x3e;" horiz-adv-x="481" 
d="M452 343l-351 -147v15l334 140l-334 140v14l351 -147v-15z" />
    <glyph glyph-name="question" unicode="?" horiz-adv-x="388" 
d="M437 623q0 -47 -25.5 -91t-64.5 -81.5t-80 -74.5t-77.5 -85.5t-51.5 -99.5h-9q13 55 41.5 106t60 89t61.5 76.5t49.5 85t19.5 97.5q0 102 -87 102q-28 0 -43.5 -8.5t-30.5 -26.5q-5 -7 -14.5 -25t-19 -27t-25.5 -9q-13 0 -20.5 8.5t-7.5 19.5q0 30 44 53.5t115 23.5
q78 0 121.5 -35.5t43.5 -97.5zM115 -10q-21 0 -35 13.5t-14 34.5t14.5 35t34.5 14q21 0 35 -14t14 -35t-14 -34.5t-35 -13.5z" />
    <glyph glyph-name="at" unicode="@" horiz-adv-x="820" 
d="M352 -166q-152 0 -247.5 81.5t-95.5 242.5q0 103 41 193.5t109.5 152t159.5 96.5t189 35q140 0 222 -73t82 -197q0 -63 -21.5 -124t-63 -115t-113 -87t-162.5 -33h-23l28 93l-24 -22q-45 -42 -70 -57t-58 -15q-51 0 -82.5 38.5t-31.5 113.5q0 91 46 165t110 110.5
t128 36.5q37 0 69 -17.5t45 -17.5q28 0 43 25h7l-83 -276q-35 -110 -35 -134q0 -42 83 -3q87 39 132 121t45 180q0 124 -77 198.5t-205 74.5q-123 0 -224.5 -50.5t-165 -154t-63.5 -242.5q0 -159 86 -243t226 -84q170 0 281 99l4 -6q-115 -105 -291 -105zM266 128
q0 -107 57 -107q22 0 44.5 13t63.5 51l30 27l78 262q11 37 -2 59q-16 28 -63 28q-78 0 -143 -98t-65 -235z" />
    <glyph glyph-name="A" unicode="A" horiz-adv-x="643" 
d="M-43 0v6q24 9 44 32t60 90l341 554q-4 33 -13.5 45t-27.5 17l2 6h100q8 0 10 -2.5t3 -11.5l69 -609q7 -58 15.5 -82.5t31.5 -37.5v-7h-148v7q24 5 29.5 23t-0.5 51l-18 151h-319l-64 -104q-19 -31 -27.5 -51t-6.5 -41t24 -30v-6h-105zM141 240h313l-50 427z" />
    <glyph glyph-name="B" unicode="B" horiz-adv-x="570" 
d="M215 0h-242l1 7q14 4 21.5 7.5t16.5 15t13.5 23t12.5 43t14.5 63t18.5 93.5l48 246q32 164 31.5 199.5t-34.5 45.5l1 7h255q110 0 163 -39.5t53 -109.5q0 -72 -56 -126t-172 -65v-1q104 -15 148 -59t44 -114q0 -60 -27.5 -106.5t-75.5 -74t-107 -41.5t-127 -14zM370 741
h-124l-64 -328h119q104 0 156.5 53.5t52.5 143.5q0 64 -31 97.5t-109 33.5zM301 405h-120l-77 -396h104q125 0 192.5 62.5t67.5 168.5q0 165 -167 165z" />
    <glyph glyph-name="C" unicode="C" horiz-adv-x="616" 
d="M566 116l6 -6q-78 -117 -240 -117q-71 0 -126 25.5t-88.5 71t-50 103.5t-16.5 127q0 81 26.5 158.5t75 140.5t126 101t171.5 38q60 0 111 -21t62 -21q12 0 18 6t13 22h10l-30 -153h-9q0 158 -175 158q-75 0 -136.5 -41.5t-99.5 -108.5t-58.5 -148t-20.5 -164
q0 -131 54.5 -204.5t159.5 -73.5q71 0 127.5 31t89.5 76z" />
    <glyph glyph-name="D" unicode="D" horiz-adv-x="654" 
d="M71 252l48 246q32 163 31.5 199t-34.5 46l2 7h204q171 0 254 -85t83 -222q0 -194 -137.5 -318.5t-360.5 -124.5h-189l2 7q14 4 21.5 7.5t16.5 15t13.5 23t12.5 43t14.5 63t18.5 93.5zM316 741h-70l-142 -733h59q192 0 301.5 125.5t109.5 322.5q0 131 -65.5 208t-192.5 77
z" />
    <glyph glyph-name="E" unicode="E" horiz-adv-x="541" 
d="M349 336q-1 40 -10 52q-17 22 -66 22h-91l-78 -401h221q68 0 104.5 21.5t67.5 93.5h10l-31 -106q-3 -12 -7.5 -15t-14.5 -3h-482l2 7q14 4 21.5 7.5t16.5 15t13.5 23t12.5 43t14.5 63t18.5 93.5l48 246q32 163 31.5 199t-34.5 46l2 7h430q8 0 10.5 -3.5t3.5 -17.5l9 -91
h-10q-12 60 -44 81.5t-94 21.5h-177l-62 -322h90q29 0 48 5.5t30.5 20t15 21.5t11.5 27h8l-30 -157h-8z" />
    <glyph glyph-name="F" unicode="F" horiz-adv-x="530" 
d="M-28 0l2 7q37 10 51 45.5t46 199.5l48 246q32 163 31.5 199t-34.5 46l2 7h465q8 0 10.5 -3t2.5 -18l7 -91h-10q-13 60 -45.5 81.5t-101.5 21.5h-200l-61 -315h97q13 0 24 1t20 4.5t15.5 5.5t12.5 9t9 9t8 11.5t6 11t5 12.5l5 11h8l-31 -158h-8q-1 40 -10 52
q-17 22 -66 22h-97l-32 -165q-32 -163 -31.5 -199t35.5 -46l-2 -7h-181z" />
    <glyph glyph-name="G" unicode="G" horiz-adv-x="664" 
d="M343 -8q-145 0 -218.5 92t-73.5 236q0 81 26.5 158.5t75 140.5t126 101t171.5 38q49 0 84 -10.5t55.5 -21t35.5 -10.5q23 0 35 28h10l-31 -153h-10q-1 78 -48 118t-131 40q-75 0 -136.5 -41.5t-99.5 -108.5t-58.5 -148t-20.5 -164q0 -286 208 -286q145 0 179 174l1 8
q9 49 12.5 72t0.5 39.5t-11 22t-27 9.5l2 7h178l-1 -7q-25 -6 -36.5 -17.5t-21.5 -44t-25 -108.5l-11 -57q-36 -44 -97 -75.5t-143 -31.5z" />
    <glyph glyph-name="H" unicode="H" horiz-adv-x="664" 
d="M-26 7q37 10 51 45.5t46 199.5l48 246q32 163 31.5 199t-34.5 46l2 7h181l-2 -7q-17 -4 -26 -10.5t-18 -18t-16.5 -41t-16 -67t-21.5 -108.5l-16 -83h370l16 83q32 163 31.5 199t-34.5 46l1 7h182l-2 -7q-17 -4 -26 -10.5t-18 -18t-17 -41t-16 -67t-22 -108.5l-48 -246
q-31 -163 -30 -199t35 -46l-2 -7h-182l2 7q27 7 39.5 24t24 60.5t34.5 160.5l30 155h-370l-30 -155q-32 -163 -31 -199t35 -46l-2 -7h-181z" />
    <glyph glyph-name="I" unicode="I" horiz-adv-x="214" 
d="M-28 0l2 7q14 4 21.5 7.5t16.5 15t13.5 23t12.5 43t14.5 63t18.5 93.5l48 246q32 163 31.5 199t-34.5 46l2 7h181l-2 -7q-17 -4 -26 -10.5t-18 -18t-16.5 -41t-16 -67t-21.5 -108.5l-48 -246q-32 -163 -31 -199t35 -46l-2 -7h-181z" />
    <glyph glyph-name="J" unicode="J" horiz-adv-x="356" 
d="M341 498l-72 -371q-12 -59 -59 -97.5t-115 -38.5q-55 0 -91 21.5t-36 54.5q0 19 11 30t28 11q38 0 41 -43q2 -34 13.5 -49.5t40.5 -15.5t49.5 19t27.5 54l82 425q32 163 31.5 199t-34.5 46l2 7h181l-1 -7q-27 -7 -39.5 -23.5t-25 -61t-34.5 -160.5z" />
    <glyph glyph-name="K" unicode="K" horiz-adv-x="593" 
d="M372 0l1 6q27 7 27 27t-19 50l-194 340l302 231q70 53 72 70q1 10 -15 16q-6 2 -16 4l2 6h116l-1 -6q-31 -4 -120 -72l-275 -210l219 -384q19 -34 32 -48t35 -24l-1 -6h-165zM-28 0l2 7q37 10 51 45.5t46 199.5l48 246q32 163 31.5 199t-34.5 46l2 7h181l-2 -7
q-17 -4 -26 -10.5t-18 -18t-16.5 -41t-16 -67t-21.5 -108.5l-48 -246q-32 -163 -31 -199t35 -46l-2 -7h-181z" />
    <glyph glyph-name="L" unicode="L" horiz-adv-x="510" 
d="M-28 0l2 7q37 10 51 45.5t46 199.5l48 246q32 163 31.5 199t-34.5 46l2 7h183l-2 -7q-15 -4 -23 -7.5t-17 -14.5t-14 -23.5t-13 -42.5t-15 -63.5t-18 -93.5l-95 -489h190q69 0 107 23t74 103h10l-39 -117q-4 -12 -8.5 -15t-14.5 -3h-451z" />
    <glyph glyph-name="M" unicode="M" horiz-adv-x="771" 
d="M-28 0l2 7q17 6 26 13t17.5 19t16.5 42t16 66.5t22 108.5l47 242q32 163 31.5 199t-34.5 46l2 7h121q8 0 10 -3.5t5 -20.5l106 -622l363 646h133l-1 -7q-17 -4 -26 -10.5t-18 -18t-17 -41t-16 -67t-22 -108.5l-48 -246q-32 -163 -31 -199t35 -46l-2 -7h-182l2 7
q27 7 39.5 24t24 60.5t34.5 160.5l91 470l-407 -725h-12l-126 728l-91 -469q-32 -163 -31 -199t39 -50l-2 -7h-117z" />
    <glyph glyph-name="N" unicode="N" horiz-adv-x="624" 
d="M-28 0l2 7q17 6 26 13t17.5 19t16.5 42t16 66.5t22 108.5l47 242q32 163 31.5 199t-34.5 46l2 7h117q12 0 17 -4.5t15 -25.5l256 -590l71 364q32 163 31 199.5t-38 49.5l1 7h118l-2 -7q-28 -10 -40.5 -27.5t-25 -62t-34.5 -159.5l-73 -381l-5 -23l-13 -70l-5 -23h-11
l-322 731l-92 -472q-32 -163 -31 -199t39 -50l-2 -7h-117z" />
    <glyph glyph-name="O" unicode="O" horiz-adv-x="715" 
d="M714 431q0 -62 -15.5 -123.5t-47.5 -118.5t-76.5 -101t-108.5 -70t-138 -26q-132 0 -204.5 94.5t-72.5 231.5q0 78 26 154.5t74 141t125.5 104.5t172.5 40q125 0 195 -95.5t70 -231.5zM449 749q-76 0 -138 -41.5t-99 -110.5t-57 -152.5t-20 -172.5q0 -271 193 -271
q73 0 132 44t95 116t55.5 156.5t19.5 171.5q0 126 -45.5 193t-135.5 67z" />
    <glyph glyph-name="P" unicode="P" horiz-adv-x="539" 
d="M-26 7q37 10 51 45.5t46 199.5l48 246q32 163 31.5 199t-34.5 46l2 7h237q236 0 236 -175q0 -78 -45.5 -133t-114.5 -79t-153 -24h-110l-17 -87q-32 -163 -31 -199t37 -46l-2 -7h-183zM351 741h-105l-76 -393h105q45 0 85 12t75 38.5t55.5 74t20.5 112.5q0 88 -40 122
t-120 34z" />
    <glyph glyph-name="Q" unicode="Q" horiz-adv-x="716" 
d="M50 318q0 78 26 154.5t74 141t125.5 104.5t172.5 40q125 0 195.5 -95.5t70.5 -231.5q0 -87 -29 -169.5t-91 -151.5t-146 -98q10 -79 31 -116.5t62 -37.5q39 0 71 33l4 -5q-42 -46 -108 -46q-123 0 -135 155q-23 -3 -47 -3q-89 0 -152.5 46t-93.5 118.5t-30 161.5z
M134 259q1 -194 95 -239q-33 24 -33 68q0 41 29 66.5t78 25.5q115 0 141 -145q89 56 137.5 184.5t48.5 269.5q0 126 -46 193t-136 67q-77 0 -138 -41.5t-99 -111.5t-57.5 -156t-19.5 -181zM327 1q20 0 45 5q-6 85 -23.5 122.5t-59.5 37.5q-37 0 -59.5 -22.5t-22.5 -56.5
q0 -36 25 -58.5t74 -26.5q7 -1 21 -1z" />
    <glyph glyph-name="R" unicode="R" horiz-adv-x="609" 
d="M-26 7q37 10 51 45.5t46 199.5l48 246q32 163 31.5 199t-34.5 46l2 7h253q255 0 255 -166q0 -70 -42.5 -118t-106 -69t-142.5 -21h-35q64 -12 90 -56.5t29 -133.5q9 -171 96 -171q35 0 61 26l4 -5q-35 -44 -99 -44q-29 0 -52 7.5t-44 26.5t-33.5 57.5t-14.5 94.5
q-2 51 -3.5 81t-7.5 54t-12.5 35t-21.5 18.5t-29.5 8.5t-43.5 1h-44l-24 -124q-32 -163 -31.5 -199t35.5 -46l-2 -7h-181zM366 741h-120l-69 -357h155q38 0 72.5 10t67 32t52 65t19.5 101q0 84 -42.5 116.5t-134.5 32.5z" />
    <glyph glyph-name="S" unicode="S" horiz-adv-x="551" 
d="M320 453q5 -3 31 -20t32.5 -21.5t28.5 -20.5t29.5 -24t23.5 -24.5t22.5 -29.5t15 -30.5t11.5 -37t3 -40.5q0 -69 -39.5 -119t-95 -71.5t-116.5 -21.5q-50 0 -95 16.5t-74.5 33.5t-43.5 17q-19 0 -26 -21h-9l29 169h9q-5 -82 53.5 -144t156.5 -62q78 0 130 42t52 118
q0 47 -25 87t-56.5 64.5t-86.5 58.5q-80 50 -118.5 96t-38.5 111q0 86 62.5 132t153.5 46q39 0 72 -8.5t50.5 -19t33 -19t23.5 -8.5q19 0 26 25h11l-23 -133h-10q-3 69 -53 111.5t-131 42.5q-64 0 -110 -33t-46 -94q0 -50 32 -84.5t106 -83.5z" />
    <glyph glyph-name="T" unicode="T" horiz-adv-x="592" 
d="M162 0l2 7q14 4 21.5 7.5t16.5 15t13.5 23t12.5 43t14.5 63t18.5 93.5l96 489h-80q-66 0 -107 -26.5t-75 -101.5h-9l39 116q4 15 7.5 18t12.5 3h505q8 0 10.5 -3t2.5 -18l-2 -116h-10q-6 74 -39 101t-101 27h-75l-95 -489q-32 -163 -31.5 -198.5t35.5 -46.5l-2 -7h-181z
" />
    <glyph glyph-name="U" unicode="U" horiz-adv-x="639" 
d="M317 -8q-142 0 -204.5 82t-31.5 243l32 169q32 175 32.5 211t-32.5 46l1 7h183l-2 -7q-28 -7 -40.5 -22.5t-26 -64t-35.5 -170.5l-32 -177q-27 -149 11.5 -227.5t155.5 -78.5q84 0 145.5 54t84.5 166l54 263q19 95 27 139.5t7 72.5t-8 33.5t-26 11.5l1 7h113l-2 -7
q-37 -10 -51 -45.5t-50 -211.5l-54 -264q-51 -230 -252 -230z" />
    <glyph glyph-name="V" unicode="V" horiz-adv-x="626" 
d="M238 -5l-85 618q-11 89 -21 107q-8 15 -24 24l1 6h149l-1 -6q-23 -7 -28.5 -24t0.5 -61l71 -552l295 517q15 26 23 43t11.5 33.5t-3.5 27t-24 16.5l2 6h105l-2 -6q-26 -11 -43.5 -30.5t-57.5 -89.5l-359 -629h-9z" />
    <glyph glyph-name="W" unicode="W" horiz-adv-x="882" 
d="M229 -5l-77 628q-10 78 -18 95q-8 16 -26 25l2 7h146l-2 -7q-21 -6 -26.5 -22.5t-0.5 -58.5l66 -556l164 281l-27 236q-7 63 -14 85.5t-30 34.5l2 7h144l-1 -7q-21 -6 -26.5 -22t-0.5 -60l21 -185l85 148q19 33 27 52.5t6 38.5t-21 28l2 7h97l-2 -7q-24 -10 -41.5 -30
t-56.5 -89l-94 -164l40 -349l286 512q18 33 26 53.5t4.5 39t-24.5 27.5l2 7h104l-2 -7q-25 -10 -43 -31t-56 -89l-351 -628h-10l-44 376l-220 -376h-10z" />
    <glyph glyph-name="X" unicode="X" horiz-adv-x="622" 
d="M-33 0l1 6q33 16 55.5 36.5t73.5 79.5l207 242l-121 269q-37 81 -50 95q-10 11 -25 16l2 6h170l-2 -6q-20 -4 -27.5 -15t-4 -33t19.5 -58l100 -221l181 216q43 50 47.5 76t-28.5 35l2 6h118l-2 -6q-34 -14 -53 -32t-75 -84l-185 -221l126 -279q7 -15 17.5 -38.5
t14.5 -32.5t11.5 -21.5t15 -19t17.5 -10.5l-1 -6h-175l1 6q33 10 37 34t-22 83l-104 231l-203 -237q-78 -91 -15 -111l-1 -6h-123z" />
    <glyph glyph-name="Y" unicode="Y" horiz-adv-x="596" 
d="M347 0h-181l1 7q38 10 51.5 45t46.5 200l23 117l-88 255q-24 64 -37.5 87t-38.5 33l2 6h162l-2 -6q-23 -5 -28 -21t8 -54l97 -281l186 236q15 19 24.5 31.5t18 26t11 22t2 17t-6.5 14t-17 9.5l2 6h105l-2 -6q-25 -10 -50 -33t-75 -87l-191 -242l-25 -130
q-32 -163 -31.5 -198.5t35.5 -46.5z" />
    <glyph glyph-name="Z" unicode="Z" horiz-adv-x="576" 
d="M-28 0l566 741h-219q-79 0 -119.5 -29.5t-76.5 -101.5h-9l51 140h473l-571 -741h251q95 0 138 33t81 124h9l-50 -166h-524z" />
    <glyph glyph-name="bracketleft" unicode="[" horiz-adv-x="260" 
d="M199 793h164l-2 -9h-112l-171 -881h112l-2 -9h-164z" />
    <glyph glyph-name="backslash" unicode="\" horiz-adv-x="413" 
d="M140 800l224 -964l-15 -4l-223 963z" />
    <glyph glyph-name="bracketright" unicode="]" horiz-adv-x="262" 
d="M272 793l-175 -899h-164l2 9h112l171 881h-112l2 9h164z" />
    <glyph glyph-name="asciicircum" unicode="^" horiz-adv-x="376" 
d="M92 489l160 267h7l159 -267l-8 -4l-155 259l-154 -259z" />
    <glyph glyph-name="underscore" unicode="_" horiz-adv-x="354" 
d="M-66 -86v12h369v-12h-369z" />
    <glyph glyph-name="grave" unicode="`" 
d="M340 535l-122 109q-17 17 -17 34q0 30 30 30q21 0 35 -29l81 -140z" />
    <glyph glyph-name="a" unicode="a" horiz-adv-x="416" 
d="M103 -4q-45 0 -73 23.5t-28 65.5q0 44 32 70q28 24 143 68l28 12q68 27 85 76l13 69q17 85 -72 85q-48 0 -71 -40q-13 -21 -24.5 -31t-27.5 -10q-28 0 -28 24q0 30 42.5 47.5t108.5 17.5q71 0 111.5 -25.5t30.5 -85.5l-41 -218q-15 -76 -15 -102q0 -33 24 -33q17 0 35 11
l3 -6q-29 -19 -65 -19q-45 0 -62.5 22t-9.5 52l-19 -16q-34 -30 -60 -43.5t-60 -13.5zM74 102q0 -39 18.5 -60t48.5 -21q32 0 75 35l28 23l41 207q-17 -33 -77 -59l-24 -10q-64 -28 -87 -52.5t-23 -62.5z" />
    <glyph glyph-name="b" unicode="b" horiz-adv-x="506" 
d="M199 -9q-43 0 -75 11.5t-50.5 23t-29.5 11.5q-18 0 -25 -17h-7l110 568q0 2 1 4q17 92 12 105q-5 10 -31 13h-3l2 7l129 58l-78 -404l28 27q83 76 157 76q70 0 105 -50.5t35 -127.5q0 -56 -17.5 -109t-50.5 -97.5t-88 -71.5t-124 -27zM99 37q8 -17 36 -27.5t64 -10.5
q65 0 112.5 47.5t69.5 119t22 154.5q0 76 -20.5 107.5t-64.5 31.5q-58 0 -138 -74l-29 -27l-53 -273q-6 -33 1 -48z" />
    <glyph glyph-name="c" unicode="c" horiz-adv-x="413" 
d="M366 72q-65 -79 -163 -79q-78 0 -131 50t-53 151q0 114 76.5 197.5t193.5 83.5q57 0 90 -17.5t33 -45.5q0 -13 -8.5 -22t-23.5 -9q-26 0 -43 43q-11 29 -24 36q-11 5 -24 5q-88 0 -141 -90.5t-53 -206.5q0 -162 122 -162q82 0 145 71z" />
    <glyph glyph-name="d" unicode="d" horiz-adv-x="509" 
d="M326 0l16 83l-9 -10q-76 -80 -153 -80q-78 0 -118.5 54.5t-40.5 138.5q0 52 17 102t49 92t85.5 68t119.5 26q67 0 117 -50l32 164q18 94 13 108q-4 12 -32 14h-3l1 7l132 58l-122 -622q-18 -91 -15 -114.5t37 -31.5l-2 -7h-124zM97 161q0 -73 26.5 -112.5t75.5 -39.5
q62 0 137 77l9 9l62 317q-55 53 -115 53q-59 0 -104.5 -46t-68 -114.5t-22.5 -143.5z" />
    <glyph glyph-name="e" unicode="e" horiz-adv-x="422" 
d="M19 192q0 114 73.5 199t183.5 85q62 0 101.5 -38.5t32.5 -113.5h-288q-27 -75 -27 -156q0 -162 122 -162q82 0 145 71l4 -5q-66 -80 -163 -80q-78 0 -131 50t-53 150zM276 467q-48 0 -87 -36.5t-63 -96.5h216q11 76 -6.5 104.5t-59.5 28.5z" />
    <glyph glyph-name="f" unicode="f" horiz-adv-x="232" 
d="M-17 0l2 7q29 7 39 29.5t28 116.5l60 303h-49l1 8q35 4 45.5 19.5t22.5 72.5l5 26q19 91 66 135.5t102 44.5q31 0 47.5 -12t16.5 -31q0 -14 -8.5 -22.5t-20.5 -8.5q-13 0 -22.5 9t-10.5 25q0 3 -1 8q-1 20 -10 22q-2 1 -6 1q-23 0 -40.5 -26.5t-31.5 -97.5l-32 -163h96
l-1 -10h-96l-60 -303q-18 -89 -14 -113t44 -33l-2 -7h-170z" />
    <glyph glyph-name="g" unicode="g" horiz-adv-x="429" 
d="M48 298q0 73 59.5 125t137.5 52q51 0 90 -26q51 51 97 51q32 0 32 -26q0 -27 -30 -27q-9 0 -25 5.5t-29 5.5q-22 0 -42 -11q58 -41 58 -113q0 -70 -59 -121.5t-138 -51.5q-47 0 -84 21l-16 -8q-37 -17 -37 -44q0 -26 51 -37l147 -33q106 -22 106 -100q0 -61 -62 -96.5
t-159 -35.5q-45 0 -83.5 7.5t-69 29.5t-30.5 56q0 67 123 107q-28 6 -44.5 23.5t-16.5 43.5q0 56 67 84l17 7q-60 40 -60 112zM326 357q0 109 -81 109q-56 0 -91.5 -58t-35.5 -129q0 -50 20.5 -79.5t60.5 -29.5q58 0 92.5 57t34.5 130zM15 -75q0 -46 38.5 -67t98.5 -21
q74 0 125 25.5t51 64.5q0 28 -26 42.5t-72 25.5l-132 30q-83 -33 -83 -100z" />
    <glyph glyph-name="h" unicode="h" horiz-adv-x="494" 
d="M-20 0l1 7q30 7 39.5 29.5t27.5 116.5l85 435q19 94 14 108q-5 11 -30 14l1 7l125 59l-79 -409l36 29q100 78 170 78q51 0 74 -33.5t11 -91.5l-38 -196q-19 -91 -17.5 -114.5t29.5 -31.5l-2 -7h-157l2 7q32 7 42 29.5t29 116.5l38 196q22 108 -38 108q-54 0 -145 -73
l-37 -30l-39 -201q-10 -51 -13.5 -73t-2.5 -40t8 -23.5t23 -9.5l-1 -7h-156z" />
    <glyph glyph-name="i" unicode="i" horiz-adv-x="206" 
d="M174 559q-19 0 -32 13t-13 32t13 32t32 13t32 -13t13 -32t-13 -32t-32 -13zM-21 0l2 7q31 8 40.5 30t28.5 116l25 129q18 96 14 109q-5 12 -29 15l1 8l126 62l-63 -323q-10 -51 -13.5 -73t-2.5 -40t8.5 -23.5t23.5 -9.5l-2 -7h-159z" />
    <glyph glyph-name="j" unicode="j" horiz-adv-x="198" 
d="M172 559q-19 0 -32 13t-13 32t13 32t32 13t32 -13t13 -32t-13 -32t-32 -13zM107 74q-23 -118 -123 -184q-47 -29 -72 -29q-40 0 -40 31q0 12 9 20.5t24 8.5q17 0 32 -15.5t24 -15.5t16 5q24 15 47 131l49 255q19 97 14 111q-3 11 -29 14l2 8l125 62z" />
    <glyph glyph-name="k" unicode="k" horiz-adv-x="439" 
d="M-20 0l1 7q29 6 38.5 28t28.5 118l83 423q20 105 16 120q-4 12 -30 14h-3l1 8l128 58l-121 -623q-10 -51 -13.5 -73t-2.5 -40t8 -23.5t23 -9.5l-1 -7h-156zM248 0l2 8q15 0 22 13t-6 38l-123 185l3 6l189 151q21 17 27 30t-0.5 20t-22.5 9v6h115l-1 -6q-43 -10 -114 -67
l-139 -111l153 -231q16 -25 25 -33t20 -10l-2 -8h-148z" />
    <glyph glyph-name="l" unicode="l" horiz-adv-x="208" 
d="M-20 0l1 7q31 7 41 29.5t28 116.5l83 423q20 104 16 119q-4 13 -30 15h-5l2 7l129 58l-121 -622q-10 -51 -13.5 -73t-2.5 -40t8.5 -23.5t23.5 -9.5l-2 -7h-158z" />
    <glyph glyph-name="m" unicode="m" horiz-adv-x="747" 
d="M-20 0l1 7q30 7 39.5 29.5t27.5 116.5l25 129q19 96 14 110q-3 11 -29 14l2 8l125 62l-19 -96l13 10q104 84 171 84q44 0 66.5 -26t20.5 -71l16 13q105 84 171 84q50 0 73 -33.5t11 -91.5l-38 -196q-19 -91 -17.5 -114.5t29.5 -31.5l-2 -7h-157l2 7q32 7 42 29.5
t29 116.5l38 196q22 108 -37 108q-47 0 -146 -79l-14 -12q-1 -3 -2 -8.5t-1 -8.5l-39 -196q-18 -91 -16.5 -114.5t28.5 -31.5l-1 -7h-157l1 7q32 7 42.5 30t28.5 116l39 196q12 62 0.5 85t-38.5 23q-47 0 -146 -79l-12 -10l-42 -215q-10 -51 -13.5 -73t-2.5 -40t8 -23.5
t23 -9.5l-1 -7h-156z" />
    <glyph glyph-name="n" unicode="n" horiz-adv-x="494" 
d="M-20 0l1 7q30 7 39.5 29.5t27.5 116.5l25 129q19 96 14 110q-3 11 -29 14l2 8l125 62l-21 -109l36 29q100 78 170 78q51 0 74 -33.5t11 -91.5l-38 -196q-19 -91 -17.5 -114.5t29.5 -31.5l-2 -7h-157l2 7q32 7 42 29.5t29 116.5l38 196q22 108 -38 108q-54 0 -145 -73
l-37 -29l-39 -202q-10 -51 -13.5 -73t-2.5 -40t8 -23.5t23 -9.5l-1 -7h-156z" />
    <glyph glyph-name="o" unicode="o" horiz-adv-x="497" 
d="M27 194q0 49 17.5 98t49 90.5t83 67.5t113.5 26q84 0 132 -60.5t48 -141.5q0 -66 -30 -130t-91.5 -108.5t-138.5 -44.5q-89 0 -136 60t-47 143zM394 301q0 75 -26.5 121t-77.5 46q-58 0 -102 -47.5t-64.5 -114t-20.5 -137.5q0 -77 26 -123.5t81 -46.5q81 0 132.5 96
t51.5 206z" />
    <glyph glyph-name="p" unicode="p" horiz-adv-x="505" 
d="M-62 -166l2 7q29 7 39 29.5t28 116.5l57 295q18 87 16 103.5t-31 20.5l2 8l125 62l-21 -108l31 29q83 77 154 77q69 0 104 -50.5t35 -127.5q0 -75 -29.5 -142.5t-93.5 -114t-151 -46.5q-72 0 -115 42l-9 -48q-10 -52 -13.5 -73.5t-2 -39.5t8.5 -23t24 -10l-1 -7h-159z
M183 384l-30 -28l-61 -310q46 -43 111 -43q63 0 109 46.5t68 116.5t22 152q0 75 -19.5 108t-59.5 33q-60 0 -140 -75z" />
    <glyph glyph-name="q" unicode="q" horiz-adv-x="500" 
d="M247 -166l1 7q33 7 44 29.5t30 116.5l19 99l-20 -20q-72 -73 -140 -73q-80 0 -119.5 54t-39.5 138q0 52 17 102.5t49.5 93.5t87.5 69t124 26q39 0 68 -12t47 -24t29 -12q24 0 37 33h7l-92 -474q-18 -91 -16.5 -114.5t27.5 -31.5l-1 -7h-159zM98 161q0 -74 25.5 -113
t74.5 -39q54 0 126 71l20 20l53 275q8 45 -24 70q-29 22 -72 22q-65 0 -112.5 -46.5t-69 -114.5t-21.5 -145z" />
    <glyph glyph-name="r" unicode="r" horiz-adv-x="322" 
d="M-20 0l1 7q29 6 38.5 28t28.5 118l24 117q20 104 16 119q-5 13 -30 17l2 8l125 62l-24 -121l61 54q42 38 60.5 50.5t36.5 12.5q19 0 29 -9.5t10 -24.5t-10 -25t-29 -10q-12 0 -28.5 8.5t-26.5 8.5q-17 0 -44 -23l-61 -56l-37 -188q-19 -91 -16.5 -114.5t33.5 -31.5l-1 -7
h-158z" />
    <glyph glyph-name="s" unicode="s" horiz-adv-x="357" 
d="M315 132q0 -64 -48.5 -101.5t-115.5 -37.5q-44 0 -85.5 20t-51.5 20q-14 0 -21 -20h-9l27 134h8q-1 -69 36 -107.5t96 -38.5q51 0 78 28t27 69q0 38 -22 63t-73 58q-100 63 -100 135q0 54 38 88t100 34q30 0 52.5 -9t36 -18.5t23.5 -9.5q15 0 23 22h9l-19 -105h-9
q-6 57 -39 84t-77 27q-38 0 -64.5 -21t-26.5 -53q0 -17 5 -30t22 -28t26.5 -21.5t41.5 -27.5q57 -38 84.5 -73t27.5 -81z" />
    <glyph glyph-name="t" unicode="t" horiz-adv-x="247" 
d="M197 30q-33 -36 -88 -36q-46 0 -66.5 26t-11.5 74l71 362h-41l2 9q96 12 133 143h9l-28 -142h97l-2 -10h-97l-68 -347q-20 -100 32 -100q27 0 55 26z" />
    <glyph glyph-name="u" unicode="u" horiz-adv-x="487" 
d="M124 -8q-51 0 -74.5 34t-12.5 92l30 152q21 104 16 120q-3 12 -27 15q-1 1 -3 1l2 8l126 62l-72 -368q-21 -99 42 -99q56 0 141 67l33 26l33 168q20 105 15 120q-5 12 -29 16l2 8l126 62l-64 -323q-18 -91 -15.5 -114.5t36.5 -31.5l-2 -7h-122l18 89l-33 -25
q-93 -72 -166 -72z" />
    <glyph glyph-name="v" unicode="v" horiz-adv-x="402" 
d="M133 -5l-48 360q-9 64 -16.5 82t-25.5 23l1 6h141l-1 -6q-26 -4 -31 -21.5t2 -80.5l35 -267l141 243q33 53 42 80t1.5 35t-30.5 11l1 6h104l-1 -6q-21 -5 -37.5 -25t-67.5 -101l-198 -339h-12z" />
    <glyph glyph-name="w" unicode="w" horiz-adv-x="595" 
d="M120 -5l-36 360q-6 61 -15.5 80t-28.5 25l1 6h139v-6q-22 -4 -27 -21.5t1 -80.5l26 -263l125 206l-6 55q-6 62 -14.5 80t-27.5 24l1 6h139l-1 -6q-23 -4 -28.5 -21.5t0.5 -79.5l28 -261l132 239q23 43 34 66t9.5 35.5t-8 15.5t-24.5 6l1 6h105l-1 -6q-18 -4 -28 -10.5
t-28.5 -32.5t-48.5 -80l-189 -342h-11l-32 291l-175 -291h-12z" />
    <glyph glyph-name="x" unicode="x" horiz-adv-x="424" 
d="M-28 0l1 6q36 13 57 30.5t65 72.5l88 112l-49 136q-22 59 -36.5 78t-33.5 25l1 6h153l-1 -6q-28 -4 -30.5 -20t17.5 -72l35 -97l73 89q64 77 45 92q-6 6 -23 8l1 6h107l-1 -6q-31 -10 -50.5 -26t-69.5 -77l-79 -96l54 -150q21 -58 35.5 -78.5t31.5 -26.5l-1 -6h-150l1 6
q29 4 31.5 21t-17.5 72l-40 111l-83 -103q-65 -80 -35 -96q5 -3 14 -5l-1 -6h-110z" />
    <glyph glyph-name="y" unicode="y" horiz-adv-x="402" 
d="M0 -171q-21 0 -31 8.5t-8 21.5q2 30 35 30q13 0 29 -8t28 -8q32 0 83 90l20 37l-69 357q-12 61 -21 79t-27 24l1 6h142l-1 -6q-23 -4 -28.5 -21t4.5 -79l49 -266l127 241q30 53 37.5 79.5t0.5 34.5t-29 11l1 6h106l-1 -6q-24 -6 -42.5 -27t-61.5 -98l-197 -372
q-75 -134 -147 -134z" />
    <glyph glyph-name="z" unicode="z" horiz-adv-x="410" 
d="M324 -10q-19 10 -124 10h-226l358 458h-131q-37 0 -63.5 -14t-39 -29.5t-33.5 -49.5h-8l42 111q21 -10 125 -10h200l-361 -458h141q64 0 92.5 24.5t63.5 89.5h7z" />
    <glyph glyph-name="braceleft" unicode="{" horiz-adv-x="278" 
d="M205 -98l-2 -8q-86 0 -130.5 28.5t-43.5 82.5q0 45 33.5 94.5t66.5 95.5t33 82q0 64 -108 64v9q40 0 68 8t41.5 18.5t21 27.5t8.5 27t1 25q0 28 -17 86t-17 92q0 79 60 120.5t159 41.5l-2 -8q-161 -2 -161 -136q0 -28 10 -90t10 -88q0 -115 -130 -129q91 -10 91 -76
q0 -29 -17.5 -64.5t-39 -64t-39 -68t-17.5 -75.5q0 -95 121 -95z" />
    <glyph glyph-name="bar" unicode="|" horiz-adv-x="268" 
d="M150 820h15v-926h-15v926z" />
    <glyph glyph-name="braceright" unicode="}" horiz-adv-x="278" 
d="M117 788l3 8q86 0 130.5 -28.5t43.5 -82.5q0 -36 -21 -75t-46 -68t-46 -64.5t-21 -64.5q0 -64 109 -64v-9q-40 0 -68 -8t-41.5 -18.5t-21 -27.5t-8.5 -27t-1 -25q0 -28 17 -86t17 -92q0 -79 -60 -120.5t-159 -41.5l1 8q162 2 162 136q0 28 -10 90t-10 88q0 115 130 129
q-91 10 -91 76q0 36 28 81.5t56.5 95t28.5 95.5q0 95 -122 95z" />
    <glyph glyph-name="asciitilde" unicode="~" horiz-adv-x="361" 
d="M154 407q16 0 65.5 -10t64.5 -10q28 0 61 47l6 -3q-25 -49 -44 -68.5t-40 -19.5q-18 0 -67 10t-63 10q-32 0 -70 -48l-6 3q50 89 93 89z" />
    <glyph glyph-name="uni00A0" unicode="&#xa0;" horiz-adv-x="179" 
 />
    <glyph glyph-name="exclamdown" unicode="&#xa1;" horiz-adv-x="197" 
d="M147 520q21 0 35 -13.5t14 -34.5t-14.5 -35t-34.5 -14q-21 0 -35 14t-14 35t14 34.5t35 13.5zM124 319q-30 -179 -41.5 -337t-13.5 -172q-9 -56 -54 -56q-43 0 -43 50q0 30 20.5 92t57 179t64.5 244h10z" />
    <glyph glyph-name="cent" unicode="&#xa2;" horiz-adv-x="421" 
d="M363 77l4 -5q-65 -79 -163 -79h-5l-17 -87h-12l17 88q-72 5 -119.5 53.5t-47.5 142.5q0 112 74 196.5t187 88.5l17 88h12l-17 -88q56 -1 88 -18t32 -45q0 -13 -8.5 -22t-22.5 -9q-15 0 -24.5 10.5t-17.5 32.5q-5 13 -8.5 19.5t-14 14t-26.5 7.5l-89 -458q5 -1 16 -1
q83 0 145 71zM95 164q0 -137 95 -156l89 457q-56 -5 -99.5 -51.5t-64 -112.5t-20.5 -137z" />
    <glyph glyph-name="sterling" unicode="&#xa3;" horiz-adv-x="495" 
d="M23 270v11h123q-2 9 -17 74h-89v11h86q-21 78 -21 127q0 119 72.5 191t184.5 72q76 0 121.5 -31.5t45.5 -68.5q0 -16 -9.5 -27.5t-26.5 -11.5q-33 0 -43 41q-1 3 -3.5 17.5t-4 20.5t-8 18.5t-14.5 18t-23 10.5t-35 5q-84 0 -129 -72.5t-45 -187.5q0 -46 8 -122h217v-11
h-216q5 -45 5 -74h194v-11h-194q-3 -73 -34.5 -118t-85.5 -86h164q87 0 125 4t53.5 13t29.5 33h8l-38 -84q-10 -22 -14.5 -27t-15.5 -5h-406l69 54q49 38 71.5 78t22.5 96q0 21 -3 42h-125z" />
    <glyph glyph-name="yen" unicode="&#xa5;" horiz-adv-x="537" 
d="M64 287v11h184l15 74h-182v11h182l-79 241q-21 62 -34.5 85.5t-39.5 34.5l2 6h163l-2 -6q-23 -5 -28.5 -21t6.5 -54l89 -272l157 227q22 33 31.5 48.5t16 32t1 25t-21.5 14.5l2 6h104l-2 -6q-27 -10 -52 -34t-69 -89l-163 -235l-1 -3h187v-11h-189l-14 -74h186v-11h-188
l-7 -35q-32 -163 -31.5 -198.5t35.5 -46.5l-2 -7h-181l2 7q38 10 51.5 45t46.5 200l7 35h-182z" />
    <glyph glyph-name="brokenbar" unicode="&#xa6;" horiz-adv-x="268" 
d="M150 820h15v-380h-15v380zM165 274v-380h-15v380h15z" />
    <glyph glyph-name="section" unicode="&#xa7;" horiz-adv-x="494" 
d="M195 -146q60 0 96.5 37t36.5 94q0 33 -14 62.5t-31.5 50t-63.5 68.5l-7.5 7.5l-6.5 6.5t-7 8q-61 65 -84 104.5t-23 87.5q0 105 99 152q-17 34 -17 76q0 75 47.5 120t126.5 45q68 0 108.5 -29t40.5 -60q0 -13 -7.5 -22t-22.5 -9q-29 0 -37 37q-3 16 -6.5 26t-11.5 23
t-24.5 19.5t-40.5 6.5q-58 0 -89 -30.5t-31 -80.5q0 -12 2 -23.5t4 -19.5t9.5 -20t11 -18t16 -20.5t17.5 -19.5t23 -24t25 -26q76 -80 104 -122t28 -94q0 -87 -99 -148q20 -38 20 -77q0 -92 -59.5 -144t-133.5 -52q-79 0 -124.5 37t-45.5 83q0 17 9 27t23 10q28 0 33 -39
q7 -56 28.5 -83t77.5 -27zM253 256q85 -88 109 -127q48 37 48 91q0 14 -2 26t-9 25.5t-12.5 22.5t-20 26t-23 26.5t-30 32t-33.5 35.5q-63 67 -85 108q-51 -29 -51 -96q0 -29 14.5 -57t30.5 -46t64 -67z" />
    <glyph glyph-name="dieresis" unicode="&#xa8;" 
d="M371 560q-18 0 -30.5 12.5t-12.5 31.5q0 18 12.5 30t30.5 12t30.5 -12t12.5 -30q0 -19 -12.5 -31.5t-30.5 -12.5zM213 560q-18 0 -30.5 12.5t-12.5 31.5q0 18 12.5 30t30.5 12t30.5 -12t12.5 -30q0 -19 -12.5 -31.5t-30.5 -12.5z" />
    <glyph glyph-name="copyright" unicode="&#xa9;" horiz-adv-x="840" 
d="M450 759q159 0 272.5 -113t113.5 -272q0 -158 -114 -271.5t-272 -113.5q-159 0 -273 113.5t-114 271.5q0 159 114 272t273 113zM450 -2q154 0 265 110t111 266t-111 266t-265 110t-265.5 -110t-111.5 -266t111.5 -266t265.5 -110zM464 146q-93 0 -150 62.5t-57 166.5
q0 110 63 169t146 59q39 0 70.5 -12.5t38.5 -12.5q12 0 17 17h7v-102h-7q-29 102 -126 102q-64 0 -102 -52.5t-38 -158.5q0 -116 42.5 -171.5t103.5 -55.5q83 0 130 60l4 -5q-46 -66 -142 -66z" />
    <glyph glyph-name="ordfeminine" unicode="&#xaa;" horiz-adv-x="305" 
d="M137 391q-34 0 -55.5 18t-21.5 50q0 33 25 55q8 6 20.5 13t23 11.5t32 13t34.5 14.5l19 8q59 24 68 66v-1l9 46q12 64 -56 64q-35 0 -53 -30q-18 -31 -40 -31t-22 18q0 22 32.5 36t82.5 14q56 0 88 -20t24 -65l-31 -167q-12 -67 -12 -78q0 -23 19 -23q16 0 27 7l2 -5
q-17 -14 -51 -14q-36 0 -49.5 16.5t-7.5 40.5l-16 -14q-26 -23 -45 -33t-46 -10zM119 471q0 -28 13 -43.5t35 -15.5q27 0 57 27l22 19l31 154q-13 -25 -60 -45l-19 -8q-45 -19 -62 -38.5t-17 -49.5z" />
    <glyph glyph-name="guillemotleft" unicode="&#xab;" horiz-adv-x="335" 
d="M256 67l-98 159l1 8l159 159l6 -4l-109 -161l47 -157zM140 67l-97 159v8l159 159l6 -4l-108 -161l47 -157z" />
    <glyph glyph-name="registered" unicode="&#xae;" horiz-adv-x="510" 
d="M313 758q92 0 158 -65.5t66 -158.5q0 -94 -65.5 -159.5t-158.5 -65.5t-159.5 66t-66.5 159t66.5 158.5t159.5 65.5zM313 318q88 0 151 63t63 153t-63 152.5t-151 62.5q-89 0 -152.5 -62.5t-63.5 -152.5q0 -91 63.5 -153.5t152.5 -62.5zM228 424v4q11 3 13.5 14t2.5 62v78
q0 49 -2.5 61t-13.5 14v4h91q93 0 93 -56q0 -31 -24 -47t-59 -16h-10q21 -3 32.5 -16t17.5 -41q13 -54 40 -54q14 0 20 8l2 -3q-12 -14 -34 -14q-23 0 -38 12t-23 47q-11 44 -17.5 52.5t-30.5 8.5h-10v-38q0 -51 2.5 -62t14.5 -14v-4h-67zM317 656h-39v-109h49q51 0 51 53
q0 28 -13.5 42t-47.5 14z" />
    <glyph glyph-name="macron" unicode="&#xaf;" 
d="M199 610h192l-7 -34h-192z" />
    <glyph glyph-name="degree" unicode="&#xb0;" horiz-adv-x="239" 
d="M205 758q39 0 65.5 -27t26.5 -66q0 -40 -26.5 -67t-65.5 -27q-38 0 -64.5 27.5t-26.5 66.5q0 38 26.5 65.5t64.5 27.5zM126 665q0 -35 23 -59.5t56 -24.5q34 0 57 24.5t23 59.5t-23 59t-57 24q-33 0 -56 -24t-23 -59z" />
    <glyph glyph-name="twosuperior" unicode="&#xb2;" horiz-adv-x="364" 
d="M96 465l120 112q59 55 81 97.5t22 88.5q0 70 -53 70q-19 0 -30.5 -9t-14 -16t-6.5 -22q-9 -27 -27 -27q-9 0 -15.5 6t-6.5 18q0 22 28 39.5t72 17.5q50 0 80 -22.5t30 -62.5q0 -32 -22 -65.5t-46 -54.5t-77 -64l-75 -60h92q63 0 80.5 4t27.5 21h7l-29 -55
q-5 -11 -8 -13.5t-8 -2.5h-222z" />
    <glyph glyph-name="threesuperior" unicode="&#xb3;" horiz-adv-x="346" 
d="M201 836h194v-4l-162 -144q20 10 43 10q45 0 67 -25t22 -62q0 -58 -46 -103.5t-120 -45.5q-39 0 -63.5 14.5t-24.5 35.5q0 24 23 24q19 0 26 -28q8 -39 44 -39q50 0 79 47t29 109q0 65 -43 65q-32 0 -69 -32l-5 5l142 126h-56q-71 0 -85.5 -3t-25.5 -20h-7l25 55l4 8
t2.5 4t3 2.5t3.5 0.5z" />
    <glyph glyph-name="acute" unicode="&#xb4;" 
d="M218 534l-5 5l103 143q20 27 41 27q11 0 18.5 -7t7.5 -18q0 -21 -26 -41z" />
    <glyph glyph-name="paragraph" unicode="&#xb6;" horiz-adv-x="476" 
d="M314 394h-57q-82 0 -127.5 43t-45.5 116q0 93 71 145t173 52h233l-1 -7q-27 -7 -40 -24t-25 -62t-35 -162l-53 -276q-61 -313 -260 -313q-75 0 -75 43q0 15 10.5 24.5t26.5 9.5q24 0 43.5 -29.5t43.5 -29.5q40 0 79.5 55t65.5 188l112 573h-71z" />
    <glyph glyph-name="periodcentered" unicode="&#xb7;" horiz-adv-x="179" 
d="M95 232q-21 0 -35 13.5t-14 34.5t14 35t35 14q20 0 34.5 -14t14.5 -35t-14 -34.5t-35 -13.5z" />
    <glyph glyph-name="cedilla" unicode="&#xb8;" 
d="M131 -200l1 8q110 8 110 57q0 36 -69 40l-1 5q61 76 69 88h11l-39 -51q35 -4 57 -20t22 -44q0 -36 -39 -59t-122 -24z" />
    <glyph glyph-name="onesuperior" unicode="&#xb9;" horiz-adv-x="268" 
d="M242 465h-124l1 6q25 4 34.5 21.5t24.5 96.5l23 118q10 53 7.5 63.5t-28.5 10.5l1 4l98 57l-48 -253q-15 -80 -14 -97t25 -21v-6z" />
    <glyph glyph-name="ordmasculine" unicode="&#xba;" horiz-adv-x="348" 
d="M77 543q0 80 53.5 146.5t144.5 66.5q63 0 99 -45.5t36 -106.5q0 -79 -55 -146t-140 -67q-67 0 -102.5 45t-35.5 107zM349 624q0 56 -18.5 90.5t-55.5 34.5q-43 0 -75.5 -35.5t-47.5 -85.5t-15 -103q0 -57 19 -92t59 -35t72 36t47 87t15 103z" />
    <glyph glyph-name="guillemotright" unicode="&#xbb;" horiz-adv-x="335" 
d="M15 67l-5 4l110 157l-47 161l6 4l97 -159l-1 -8zM131 67l-6 4l110 157l-46 161l6 4l97 -159l-1 -8z" />
    <glyph glyph-name="onequarter" unicode="&#xbc;" horiz-adv-x="484" 
d="M347 465h-124l1 6q25 4 34.5 21.5t24.5 96.5l23 118q10 53 7.5 63.5t-28.5 10.5l1 4l98 57l-48 -253q-15 -80 -14 -97t25 -21v-6zM83 371l1 8h363l-1 -8h-363zM332 -5h-47q-8 -50 -6 -61t16 -15v-6h-104v6q17 4 24 16t17 60h-165l1 4l259 288h14l-47 -244l-1 -7h66z
M111 36h129l1 7l35 177z" />
    <glyph glyph-name="onehalf" unicode="&#xbd;" horiz-adv-x="484" 
d="M347 465h-124l1 6q25 4 34.5 21.5t24.5 96.5l23 118q10 53 7.5 63.5t-28.5 10.5l1 4l98 57l-48 -253q-15 -80 -14 -97t25 -21v-6zM83 371l1 8h363l-1 -8h-363zM76 -87l120 112q59 55 81 97.5t22 88.5q0 70 -53 70q-19 0 -30.5 -9t-14 -16t-6.5 -22q-9 -27 -27 -27
q-9 0 -15.5 6t-6.5 18q0 22 28 39.5t72 17.5q50 0 80 -22.5t30 -62.5q0 -32 -22 -65.5t-46 -54.5t-77 -64l-75 -60h92q63 0 80.5 4t27.5 21h7l-29 -55q-5 -11 -8 -13.5t-8 -2.5h-222z" />
    <glyph glyph-name="threequarters" unicode="&#xbe;" horiz-adv-x="484" 
d="M276 836h194v-4l-162 -144q20 10 43 10q45 0 67 -25t22 -62q0 -58 -46 -103.5t-120 -45.5q-39 0 -63.5 14.5t-24.5 35.5q0 24 23 24q19 0 26 -28q8 -39 44 -39q50 0 79 47t29 109q0 65 -43 65q-32 0 -69 -32l-5 5l142 126h-56q-71 0 -85.5 -3t-25.5 -20h-7l25 55l4 8
t2.5 4t3 2.5t3.5 0.5zM83 371l1 8h363l-1 -8h-363zM332 -5h-47q-8 -50 -6 -61t16 -15v-6h-104v6q17 4 24 16t17 60h-165l1 4l259 288h14l-47 -244l-1 -7h66zM111 36h129l1 7l35 177z" />
    <glyph glyph-name="questiondown" unicode="&#xbf;" horiz-adv-x="344" 
d="M259 471q21 0 35 -13.5t14 -34.5t-14.5 -35t-34.5 -14q-21 0 -35 14t-14 35t14 34.5t35 13.5zM-63 -162q0 47 25.5 91t64.5 81.5t80 74.5t77.5 85.5t51.5 99.5h9q-13 -55 -41.5 -106t-60 -89t-61.5 -76.5t-49.5 -85t-19.5 -97.5q0 -102 87 -102q28 0 43.5 8.5t30.5 26.5
q5 7 14.5 25t19 27t25.5 9q13 0 20.5 -8.5t7.5 -19.5q0 -30 -44 -53.5t-115 -23.5q-78 0 -121.5 35.5t-43.5 97.5z" />
    <glyph glyph-name="Agrave" unicode="&#xc0;" horiz-adv-x="643" 
d="M519 778l-159 45q-35 12 -35 34q0 11 8 20t21 9t33 -12l135 -90zM-43 0v6q24 9 44 32t60 90l341 554q-4 33 -13.5 45t-27.5 17l2 6h100q8 0 10 -2.5t3 -11.5l69 -609q7 -58 15.5 -82.5t31.5 -37.5v-7h-148v7q24 5 29.5 23t-0.5 51l-18 151h-319l-64 -104
q-19 -31 -27.5 -51t-6.5 -41t24 -30v-6h-105zM141 240h313l-50 427z" />
    <glyph glyph-name="Aacute" unicode="&#xc1;" horiz-adv-x="643" 
d="M337 778l-3 6l148 91q20 12 38 12q11 0 18 -8.5t7 -19.5q0 -24 -45 -37zM-43 0v6q24 9 44 32t60 90l341 554q-4 33 -13.5 45t-27.5 17l2 6h100q8 0 10 -2.5t3 -11.5l69 -609q7 -58 15.5 -82.5t31.5 -37.5v-7h-148v7q24 5 29.5 23t-0.5 51l-18 151h-319l-64 -104
q-19 -31 -27.5 -51t-6.5 -41t24 -30v-6h-105zM141 240h313l-50 427z" />
    <glyph glyph-name="Acircumflex" unicode="&#xc2;" horiz-adv-x="643" 
d="M309 782l144 106l103 -106l-4 -5l-111 50l-127 -50zM-43 0v6q24 9 44 32t60 90l341 554q-4 33 -13.5 45t-27.5 17l2 6h100q8 0 10 -2.5t3 -11.5l69 -609q7 -58 15.5 -82.5t31.5 -37.5v-7h-148v7q24 5 29.5 23t-0.5 51l-18 151h-319l-64 -104q-19 -31 -27.5 -51t-6.5 -41
t24 -30v-6h-105zM141 240h313l-50 427z" />
    <glyph glyph-name="Atilde" unicode="&#xc3;" horiz-adv-x="643" 
d="M397 864q12 0 52 -6.5t51 -6.5q24 0 59 46l7 -2q-21 -44 -43 -65.5t-40 -21.5q-13 0 -54 6t-52 6q-25 0 -65 -47l-6 2q23 44 47.5 66.5t43.5 22.5zM-43 0v6q24 9 44 32t60 90l341 554q-4 33 -13.5 45t-27.5 17l2 6h100q8 0 10 -2.5t3 -11.5l69 -609q7 -58 15.5 -82.5
t31.5 -37.5v-7h-148v7q24 5 29.5 23t-0.5 51l-18 151h-319l-64 -104q-19 -31 -27.5 -51t-6.5 -41t24 -30v-6h-105zM141 240h313l-50 427z" />
    <glyph glyph-name="Adieresis" unicode="&#xc4;" horiz-adv-x="643" 
d="M532 783q-18 0 -30 12.5t-12 31.5q0 18 12 30.5t30 12.5t30.5 -12.5t12.5 -30.5q0 -19 -12.5 -31.5t-30.5 -12.5zM341 783q-18 0 -30 12.5t-12 31.5q0 18 12 30.5t30 12.5t30.5 -12.5t12.5 -30.5q0 -19 -12.5 -31.5t-30.5 -12.5zM-43 0v6q24 9 44 32t60 90l341 554
q-4 33 -13.5 45t-27.5 17l2 6h100q8 0 10 -2.5t3 -11.5l69 -609q7 -58 15.5 -82.5t31.5 -37.5v-7h-148v7q24 5 29.5 23t-0.5 51l-18 151h-319l-64 -104q-19 -31 -27.5 -51t-6.5 -41t24 -30v-6h-105zM141 240h313l-50 427z" />
    <glyph glyph-name="Aring" unicode="&#xc5;" horiz-adv-x="643" 
d="M447 929q35 0 53.5 -20t18.5 -49q0 -35 -23.5 -60t-61.5 -25q-35 0 -54 20.5t-19 49.5q0 34 24 59t62 25zM434 784q25 0 38.5 22.5t13.5 56.5q0 58 -40 58q-25 0 -38.5 -22.5t-13.5 -56.5q0 -58 40 -58zM-43 0v6q24 9 44 32t60 90l341 554q-4 33 -13.5 45t-27.5 17l2 6
h100q8 0 10 -2.5t3 -11.5l69 -609q7 -58 15.5 -82.5t31.5 -37.5v-7h-148v7q24 5 29.5 23t-0.5 51l-18 151h-319l-64 -104q-19 -31 -27.5 -51t-6.5 -41t24 -30v-6h-105zM141 240h313l-50 427z" />
    <glyph glyph-name="AE" unicode="&#xc6;" horiz-adv-x="900" 
d="M339 0l2 7q38 10 51.5 43t43.5 187h-267l-84 -111q-24 -31 -35 -53t-9.5 -40t21.5 -27l-1 -6h-106l1 6q23 10 46 33.5t72 86.5l418 555q23 33 18 44.5t-36 17.5l2 7h431q8 0 10.5 -3.5t2.5 -17.5l10 -91h-10q-13 60 -45 81.5t-93 21.5h-168l-62 -322h82q28 0 47 5.5
t30.5 20t15 21.5t11.5 27h9l-30 -157h-9q0 40 -10 53q-16 21 -66 21h-82l-78 -401h211q69 0 105.5 21.5t67.5 93.5h10l-32 -106q-3 -12 -7.5 -15t-13.5 -3h-474zM439 252l90 464l-354 -471h263z" />
    <glyph glyph-name="Ccedilla" unicode="&#xc7;" horiz-adv-x="617" 
d="M187 -200l1 8q110 8 110 57q0 36 -69 40l-1 5q53 66 67 85q-122 13 -183 102.5t-61 222.5q0 81 26.5 158.5t75 140.5t126 101t171.5 38q60 0 111 -21t62 -21q12 0 18 6t13 22h10l-30 -153h-9q0 158 -175 158q-75 0 -136.5 -41.5t-99.5 -108.5t-58.5 -148t-20.5 -164
q0 -131 54.5 -204.5t159.5 -73.5q71 0 127.5 31t89.5 76l6 -6q-78 -117 -240 -117q-18 0 -27 1l-36 -47q35 -4 57 -20t22 -44q0 -36 -39 -59t-122 -24z" />
    <glyph glyph-name="Egrave" unicode="&#xc8;" horiz-adv-x="541" 
d="M451 778l-159 45q-35 12 -35 34q0 11 8 20t21 9t33 -12l135 -90zM349 336q-1 40 -10 52q-17 22 -66 22h-91l-78 -401h221q68 0 104.5 21.5t67.5 93.5h10l-31 -106q-3 -12 -7.5 -15t-14.5 -3h-482l2 7q14 4 21.5 7.5t16.5 15t13.5 23t12.5 43t14.5 63t18.5 93.5l48 246
q32 163 31.5 199t-34.5 46l2 7h430q8 0 10.5 -3.5t3.5 -17.5l9 -91h-10q-12 60 -44 81.5t-94 21.5h-177l-62 -322h90q29 0 48 5.5t30.5 20t15 21.5t11.5 27h8l-30 -157h-8z" />
    <glyph glyph-name="Eacute" unicode="&#xc9;" horiz-adv-x="541" 
d="M269 778l-3 6l148 91q19 12 38 12q11 0 18 -8.5t7 -19.5q0 -24 -45 -37zM349 336q-1 40 -10 52q-17 22 -66 22h-91l-78 -401h221q68 0 104.5 21.5t67.5 93.5h10l-31 -106q-3 -12 -7.5 -15t-14.5 -3h-482l2 7q14 4 21.5 7.5t16.5 15t13.5 23t12.5 43t14.5 63t18.5 93.5
l48 246q32 163 31.5 199t-34.5 46l2 7h430q8 0 10.5 -3.5t3.5 -17.5l9 -91h-10q-12 60 -44 81.5t-94 21.5h-177l-62 -322h90q29 0 48 5.5t30.5 20t15 21.5t11.5 27h8l-30 -157h-8z" />
    <glyph glyph-name="Ecircumflex" unicode="&#xca;" horiz-adv-x="541" 
d="M241 782l144 106l103 -106l-4 -5l-111 50l-127 -50zM349 336q-1 40 -10 52q-17 22 -66 22h-91l-78 -401h221q68 0 104.5 21.5t67.5 93.5h10l-31 -106q-3 -12 -7.5 -15t-14.5 -3h-482l2 7q14 4 21.5 7.5t16.5 15t13.5 23t12.5 43t14.5 63t18.5 93.5l48 246
q32 163 31.5 199t-34.5 46l2 7h430q8 0 10.5 -3.5t3.5 -17.5l9 -91h-10q-12 60 -44 81.5t-94 21.5h-177l-62 -322h90q29 0 48 5.5t30.5 20t15 21.5t11.5 27h8l-30 -157h-8z" />
    <glyph glyph-name="Edieresis" unicode="&#xcb;" horiz-adv-x="541" 
d="M464 783q-18 0 -30 12.5t-12 31.5q0 18 12 30.5t30 12.5t30.5 -12.5t12.5 -30.5q0 -19 -12.5 -31.5t-30.5 -12.5zM273 783q-18 0 -30 12.5t-12 31.5q0 18 12 30.5t30 12.5t30.5 -12.5t12.5 -30.5q0 -19 -12.5 -31.5t-30.5 -12.5zM349 336q-1 40 -10 52q-17 22 -66 22h-91
l-78 -401h221q68 0 104.5 21.5t67.5 93.5h10l-31 -106q-3 -12 -7.5 -15t-14.5 -3h-482l2 7q14 4 21.5 7.5t16.5 15t13.5 23t12.5 43t14.5 63t18.5 93.5l48 246q32 163 31.5 199t-34.5 46l2 7h430q8 0 10.5 -3.5t3.5 -17.5l9 -91h-10q-12 60 -44 81.5t-94 21.5h-177l-62 -322
h90q29 0 48 5.5t30.5 20t15 21.5t11.5 27h8l-30 -157h-8z" />
    <glyph glyph-name="Igrave" unicode="&#xcc;" horiz-adv-x="214" 
d="M299 778l-159 45q-35 12 -35 34q0 11 8 20t21 9t33 -12l135 -90zM-28 0l2 7q14 4 21.5 7.5t16.5 15t13.5 23t12.5 43t14.5 63t18.5 93.5l48 246q32 163 31.5 199t-34.5 46l2 7h181l-2 -7q-17 -4 -26 -10.5t-18 -18t-16.5 -41t-16 -67t-21.5 -108.5l-48 -246
q-32 -163 -31 -199t35 -46l-2 -7h-181z" />
    <glyph glyph-name="Iacute" unicode="&#xcd;" horiz-adv-x="214" 
d="M116 778l-3 6l148 91q19 12 38 12q11 0 18 -8.5t7 -19.5q0 -24 -45 -37zM-28 0l2 7q14 4 21.5 7.5t16.5 15t13.5 23t12.5 43t14.5 63t18.5 93.5l48 246q32 163 31.5 199t-34.5 46l2 7h181l-2 -7q-17 -4 -26 -10.5t-18 -18t-16.5 -41t-16 -67t-21.5 -108.5l-48 -246
q-32 -163 -31 -199t35 -46l-2 -7h-181z" />
    <glyph glyph-name="Icircumflex" unicode="&#xce;" horiz-adv-x="214" 
d="M89 782l144 106l103 -106l-4 -5l-111 50l-127 -50zM-28 0l2 7q14 4 21.5 7.5t16.5 15t13.5 23t12.5 43t14.5 63t18.5 93.5l48 246q32 163 31.5 199t-34.5 46l2 7h181l-2 -7q-17 -4 -26 -10.5t-18 -18t-16.5 -41t-16 -67t-21.5 -108.5l-48 -246q-32 -163 -31 -199t35 -46
l-2 -7h-181z" />
    <glyph glyph-name="Idieresis" unicode="&#xcf;" horiz-adv-x="214" 
d="M278 783q-18 0 -30 12.5t-12 31.5q0 18 12 30.5t30 12.5t30.5 -12.5t12.5 -30.5q0 -19 -12.5 -31.5t-30.5 -12.5zM157 783q-18 0 -30.5 12.5t-12.5 31.5q0 18 12.5 30.5t30.5 12.5t30.5 -12.5t12.5 -30.5q0 -19 -12.5 -31.5t-30.5 -12.5zM-28 0l2 7q14 4 21.5 7.5
t16.5 15t13.5 23t12.5 43t14.5 63t18.5 93.5l48 246q32 163 31.5 199t-34.5 46l2 7h181l-2 -7q-17 -4 -26 -10.5t-18 -18t-16.5 -41t-16 -67t-21.5 -108.5l-48 -246q-32 -163 -31 -199t35 -46l-2 -7h-181z" />
    <glyph glyph-name="Eth" unicode="&#xd0;" horiz-adv-x="654" 
d="M71 252l27 136h-73l2 8h72l20 102q32 163 31.5 199t-34.5 46l2 7h204q171 0 254 -85t83 -222q0 -194 -137.5 -318.5t-360.5 -124.5h-189l2 7q14 4 21.5 7.5t16.5 15t13.5 23t12.5 43t14.5 63t18.5 93.5zM329 388h-151l-74 -380h59q192 0 301.5 125.5t109.5 322.5
q0 131 -65.5 208t-192.5 77h-70l-67 -345h152z" />
    <glyph glyph-name="Ntilde" unicode="&#xd1;" horiz-adv-x="624" 
d="M399 864q11 0 51 -6.5t52 -6.5q24 0 59 46l7 -2q-21 -44 -43 -65.5t-40 -21.5q-13 0 -54 6t-52 6q-25 0 -65 -47l-6 2q23 44 47.5 66.5t43.5 22.5zM-28 0l2 7q17 6 26 13t17.5 19t16.5 42t16 66.5t22 108.5l47 242q32 163 31.5 199t-34.5 46l2 7h117q12 0 17 -4.5
t15 -25.5l256 -590l71 364q32 163 31 199.5t-38 49.5l1 7h118l-2 -7q-28 -10 -40.5 -27.5t-25 -62t-34.5 -159.5l-73 -381l-5 -23l-13 -70l-5 -23h-11l-322 731l-92 -472q-32 -163 -31 -199t39 -50l-2 -7h-117z" />
    <glyph glyph-name="Ograve" unicode="&#xd2;" horiz-adv-x="715" 
d="M542 778l-159 45q-35 12 -35 34q0 11 8 20t21 9t33 -12l135 -90zM714 431q0 -62 -15.5 -123.5t-47.5 -118.5t-76.5 -101t-108.5 -70t-138 -26q-132 0 -204.5 94.5t-72.5 231.5q0 78 26 154.5t74 141t125.5 104.5t172.5 40q125 0 195 -95.5t70 -231.5zM449 749
q-76 0 -138 -41.5t-99 -110.5t-57 -152.5t-20 -172.5q0 -271 193 -271q73 0 132 44t95 116t55.5 156.5t19.5 171.5q0 126 -45.5 193t-135.5 67z" />
    <glyph glyph-name="Oacute" unicode="&#xd3;" horiz-adv-x="715" 
d="M359 778l-3 6l148 91q20 12 38 12q11 0 18 -8.5t7 -19.5q0 -24 -45 -37zM714 431q0 -62 -15.5 -123.5t-47.5 -118.5t-76.5 -101t-108.5 -70t-138 -26q-132 0 -204.5 94.5t-72.5 231.5q0 78 26 154.5t74 141t125.5 104.5t172.5 40q125 0 195 -95.5t70 -231.5zM449 749
q-76 0 -138 -41.5t-99 -110.5t-57 -152.5t-20 -172.5q0 -271 193 -271q73 0 132 44t95 116t55.5 156.5t19.5 171.5q0 126 -45.5 193t-135.5 67z" />
    <glyph glyph-name="Ocircumflex" unicode="&#xd4;" horiz-adv-x="715" 
d="M328 782l144 106l103 -106l-4 -5l-111 50l-127 -50zM714 431q0 -62 -15.5 -123.5t-47.5 -118.5t-76.5 -101t-108.5 -70t-138 -26q-132 0 -204.5 94.5t-72.5 231.5q0 78 26 154.5t74 141t125.5 104.5t172.5 40q125 0 195 -95.5t70 -231.5zM449 749q-76 0 -138 -41.5
t-99 -110.5t-57 -152.5t-20 -172.5q0 -271 193 -271q73 0 132 44t95 116t55.5 156.5t19.5 171.5q0 126 -45.5 193t-135.5 67z" />
    <glyph glyph-name="Otilde" unicode="&#xd5;" horiz-adv-x="715" 
d="M419 864q11 0 51 -6.5t52 -6.5q24 0 59 46l7 -2q-21 -44 -43 -65.5t-40 -21.5q-13 0 -54 6t-52 6q-25 0 -65 -47l-6 2q23 44 47.5 66.5t43.5 22.5zM714 431q0 -62 -15.5 -123.5t-47.5 -118.5t-76.5 -101t-108.5 -70t-138 -26q-132 0 -204.5 94.5t-72.5 231.5
q0 78 26 154.5t74 141t125.5 104.5t172.5 40q125 0 195 -95.5t70 -231.5zM449 749q-76 0 -138 -41.5t-99 -110.5t-57 -152.5t-20 -172.5q0 -271 193 -271q73 0 132 44t95 116t55.5 156.5t19.5 171.5q0 126 -45.5 193t-135.5 67z" />
    <glyph glyph-name="Odieresis" unicode="&#xd6;" horiz-adv-x="715" 
d="M551 783q-18 0 -30 12.5t-12 31.5q0 18 12 30.5t30 12.5t30.5 -12.5t12.5 -30.5q0 -19 -12.5 -31.5t-30.5 -12.5zM360 783q-18 0 -30 12.5t-12 31.5q0 18 12 30.5t30 12.5t30.5 -12.5t12.5 -30.5q0 -19 -12.5 -31.5t-30.5 -12.5zM714 431q0 -62 -15.5 -123.5
t-47.5 -118.5t-76.5 -101t-108.5 -70t-138 -26q-132 0 -204.5 94.5t-72.5 231.5q0 78 26 154.5t74 141t125.5 104.5t172.5 40q125 0 195 -95.5t70 -231.5zM449 749q-76 0 -138 -41.5t-99 -110.5t-57 -152.5t-20 -172.5q0 -271 193 -271q73 0 132 44t95 116t55.5 156.5
t19.5 171.5q0 126 -45.5 193t-135.5 67z" />
    <glyph glyph-name="multiply" unicode="&#xd7;" horiz-adv-x="389" 
d="M70 505l9 9l146 -153l145 151l8 -9l-144 -151l144 -151l-9 -9l-144 150l-143 -150l-9 10l143 150z" />
    <glyph glyph-name="Oslash" unicode="&#xd8;" horiz-adv-x="715" 
d="M714 431q0 -62 -15.5 -123.5t-47.5 -118.5t-76.5 -101t-108.5 -70t-138 -26q-70 0 -125 29l-39 -74l-11 5l40 74q-69 40 -105.5 118.5t-36.5 173.5q0 78 26 154.5t74 141t125.5 104.5t172.5 40q66 0 120 -30l39 74l11 -5l-40 -75q65 -41 100 -119t35 -172zM449 749
q-76 0 -138 -41.5t-99 -110.5t-57 -152.5t-20 -172.5q0 -160 69 -226l355 665q-43 38 -110 38zM630 489q0 150 -62 213l-355 -664q44 -37 115 -37q73 0 132 44t95 116t55.5 156.5t19.5 171.5z" />
    <glyph glyph-name="Ugrave" unicode="&#xd9;" horiz-adv-x="639" 
d="M535 778l-159 45q-35 12 -35 34q0 11 8 20t21 9t33 -12l135 -90zM317 -8q-142 0 -204.5 82t-31.5 243l32 169q32 175 32.5 211t-32.5 46l1 7h183l-2 -7q-28 -7 -40.5 -22.5t-26 -64t-35.5 -170.5l-32 -177q-27 -149 11.5 -227.5t155.5 -78.5q84 0 145.5 54t84.5 166
l54 263q19 95 27 139.5t7 72.5t-8 33.5t-26 11.5l1 7h113l-2 -7q-37 -10 -51 -45.5t-50 -211.5l-54 -264q-51 -230 -252 -230z" />
    <glyph glyph-name="Uacute" unicode="&#xda;" horiz-adv-x="639" 
d="M354 778l-3 6l148 91q19 12 38 12q11 0 18 -8.5t7 -19.5q0 -24 -45 -37zM317 -8q-142 0 -204.5 82t-31.5 243l32 169q32 175 32.5 211t-32.5 46l1 7h183l-2 -7q-28 -7 -40.5 -22.5t-26 -64t-35.5 -170.5l-32 -177q-27 -149 11.5 -227.5t155.5 -78.5q84 0 145.5 54
t84.5 166l54 263q19 95 27 139.5t7 72.5t-8 33.5t-26 11.5l1 7h113l-2 -7q-37 -10 -51 -45.5t-50 -211.5l-54 -264q-51 -230 -252 -230z" />
    <glyph glyph-name="Ucircumflex" unicode="&#xdb;" horiz-adv-x="639" 
d="M328 782l144 106l103 -106l-4 -5l-111 50l-127 -50zM317 -8q-142 0 -204.5 82t-31.5 243l32 169q32 175 32.5 211t-32.5 46l1 7h183l-2 -7q-28 -7 -40.5 -22.5t-26 -64t-35.5 -170.5l-32 -177q-27 -149 11.5 -227.5t155.5 -78.5q84 0 145.5 54t84.5 166l54 263
q19 95 27 139.5t7 72.5t-8 33.5t-26 11.5l1 7h113l-2 -7q-37 -10 -51 -45.5t-50 -211.5l-54 -264q-51 -230 -252 -230z" />
    <glyph glyph-name="Udieresis" unicode="&#xdc;" horiz-adv-x="639" 
d="M548 783q-18 0 -30 12.5t-12 31.5q0 18 12 30.5t30 12.5t30.5 -12.5t12.5 -30.5q0 -19 -12.5 -31.5t-30.5 -12.5zM357 783q-18 0 -30 12.5t-12 31.5q0 18 12 30.5t30 12.5t30.5 -12.5t12.5 -30.5q0 -19 -12.5 -31.5t-30.5 -12.5zM317 -8q-142 0 -204.5 82t-31.5 243
l32 169q32 175 32.5 211t-32.5 46l1 7h183l-2 -7q-28 -7 -40.5 -22.5t-26 -64t-35.5 -170.5l-32 -177q-27 -149 11.5 -227.5t155.5 -78.5q84 0 145.5 54t84.5 166l54 263q19 95 27 139.5t7 72.5t-8 33.5t-26 11.5l1 7h113l-2 -7q-37 -10 -51 -45.5t-50 -211.5l-54 -264
q-51 -230 -252 -230z" />
    <glyph glyph-name="Yacute" unicode="&#xdd;" horiz-adv-x="596" 
d="M349 778l-3 6l148 91q20 12 38 12q11 0 18 -8.5t7 -19.5q0 -24 -45 -37zM347 0h-181l1 7q38 10 51.5 45t46.5 200l23 117l-88 255q-24 64 -37.5 87t-38.5 33l2 6h162l-2 -6q-23 -5 -28 -21t8 -54l97 -281l186 236q15 19 24.5 31.5t18 26t11 22t2 17t-6.5 14t-17 9.5l2 6
h105l-2 -6q-25 -10 -50 -33t-75 -87l-191 -242l-25 -130q-32 -163 -31.5 -198.5t35.5 -46.5z" />
    <glyph glyph-name="Thorn" unicode="&#xde;" horiz-adv-x="538" 
d="M-28 0l2 7q14 4 21.5 7.5t16.5 15t13.5 23t12.5 43t14.5 63t18.5 93.5l48 246q32 163 31.5 199t-34.5 46l2 7h181l-2 -7q-22 -5 -33 -15t-21 -36.5t-23 -84.5h108q236 0 236 -175q0 -78 -45.5 -133t-114.5 -79t-154 -24h-110q-16 -85 -19 -120.5t4 -48.5t30 -20l-2 -7
h-181zM151 252q-3 -17 -9 -47h106q45 0 84.5 12t75 38.5t56 74t20.5 112.5q0 88 -40.5 122t-120.5 34h-104q-12 -53 -20 -100z" />
    <glyph glyph-name="germandbls" unicode="&#xdf;" horiz-adv-x="492" 
d="M122 154q-18 -91 -16 -115t29 -32l-2 -7h-153l2 7q29 8 38.5 29t28.5 117l60 303h-49v8q32 5 43.5 18.5t20.5 55.5l3 14q22 100 83.5 155t139.5 55q61 0 103.5 -28t42.5 -82q0 -25 -9.5 -47t-28 -40t-33.5 -29.5t-40 -27.5t-34 -22q-34 -24 -50 -43.5t-16 -45.5
q0 -7 1 -13.5t4.5 -13t5.5 -11t8.5 -11t9.5 -10t12.5 -10.5t13 -10t14.5 -11t15 -11q49 -39 75 -74.5t26 -84.5q0 -65 -46 -105.5t-115 -40.5q-40 0 -76.5 16.5t-42.5 16.5q-14 0 -20 -17h-9l24 122h8q0 -66 33 -97.5t83 -31.5q53 0 78.5 31t25.5 74q0 39 -20 65t-65 58
q-46 33 -67 62.5t-21 68.5q0 16 5 31t10.5 24.5t19.5 23t20.5 19t26 19.5t24.5 18q87 66 87 164q0 95 -84 95q-109 0 -146 -183z" />
    <glyph glyph-name="agrave" unicode="&#xe0;" horiz-adv-x="416" 
d="M300 535l-122 109q-17 17 -17 34q0 30 30 30q21 0 35 -29l81 -140zM103 -4q-45 0 -73 23.5t-28 65.5q0 44 32 70q28 24 143 68l28 12q68 27 85 76l13 69q17 85 -72 85q-48 0 -71 -40q-13 -21 -24.5 -31t-27.5 -10q-28 0 -28 24q0 30 42.5 47.5t108.5 17.5
q71 0 111.5 -25.5t30.5 -85.5l-41 -218q-15 -76 -15 -102q0 -33 24 -33q17 0 35 11l3 -6q-29 -19 -65 -19q-45 0 -62.5 22t-9.5 52l-19 -16q-34 -30 -60 -43.5t-60 -13.5zM74 102q0 -39 18.5 -60t48.5 -21q32 0 75 35l28 23l41 207q-17 -33 -77 -59l-24 -10
q-64 -28 -87 -52.5t-23 -62.5z" />
    <glyph glyph-name="aacute" unicode="&#xe1;" horiz-adv-x="416" 
d="M202 534l-5 5l103 143q20 27 41 27q11 0 18.5 -7t7.5 -18q0 -21 -26 -41zM103 -4q-45 0 -73 23.5t-28 65.5q0 44 32 70q28 24 143 68l28 12q68 27 85 76l13 69q17 85 -72 85q-48 0 -71 -40q-13 -21 -24.5 -31t-27.5 -10q-28 0 -28 24q0 30 42.5 47.5t108.5 17.5
q71 0 111.5 -25.5t30.5 -85.5l-41 -218q-15 -76 -15 -102q0 -33 24 -33q17 0 35 11l3 -6q-29 -19 -65 -19q-45 0 -62.5 22t-9.5 52l-19 -16q-34 -30 -60 -43.5t-60 -13.5zM74 102q0 -39 18.5 -60t48.5 -21q32 0 75 35l28 23l41 207q-17 -33 -77 -59l-24 -10
q-64 -28 -87 -52.5t-23 -62.5z" />
    <glyph glyph-name="acircumflex" unicode="&#xe2;" horiz-adv-x="416" 
d="M133 537l142 175l76 -175l-7 -4l-84 100l-122 -100zM103 -4q-45 0 -73 23.5t-28 65.5q0 44 32 70q28 24 143 68l28 12q68 27 85 76l13 69q17 85 -72 85q-48 0 -71 -40q-13 -21 -24.5 -31t-27.5 -10q-28 0 -28 24q0 30 42.5 47.5t108.5 17.5q71 0 111.5 -25.5t30.5 -85.5
l-41 -218q-15 -76 -15 -102q0 -33 24 -33q17 0 35 11l3 -6q-29 -19 -65 -19q-45 0 -62.5 22t-9.5 52l-19 -16q-34 -30 -60 -43.5t-60 -13.5zM74 102q0 -39 18.5 -60t48.5 -21q32 0 75 35l28 23l41 207q-17 -33 -77 -59l-24 -10q-64 -28 -87 -52.5t-23 -62.5z" />
    <glyph glyph-name="atilde" unicode="&#xe3;" horiz-adv-x="416" 
d="M211 635q13 0 50 -6t48 -6q24 0 57 47l6 -3q-18 -43 -39.5 -65t-39.5 -22q-14 0 -52 5.5t-48 5.5q-26 0 -63 -49l-6 3q21 43 45 66.5t42 23.5zM103 -4q-45 0 -73 23.5t-28 65.5q0 44 32 70q28 24 143 68l28 12q68 27 85 76l13 69q17 85 -72 85q-48 0 -71 -40
q-13 -21 -24.5 -31t-27.5 -10q-28 0 -28 24q0 30 42.5 47.5t108.5 17.5q71 0 111.5 -25.5t30.5 -85.5l-41 -218q-15 -76 -15 -102q0 -33 24 -33q17 0 35 11l3 -6q-29 -19 -65 -19q-45 0 -62.5 22t-9.5 52l-19 -16q-34 -30 -60 -43.5t-60 -13.5zM74 102q0 -39 18.5 -60
t48.5 -21q32 0 75 35l28 23l41 207q-17 -33 -77 -59l-24 -10q-64 -28 -87 -52.5t-23 -62.5z" />
    <glyph glyph-name="adieresis" unicode="&#xe4;" horiz-adv-x="416" 
d="M327 560q-18 0 -30.5 12.5t-12.5 31.5q0 18 12.5 30t30.5 12t30.5 -12t12.5 -30q0 -19 -12.5 -31.5t-30.5 -12.5zM169 560q-18 0 -30.5 12.5t-12.5 31.5q0 18 12.5 30t30.5 12t30.5 -12t12.5 -30q0 -19 -12.5 -31.5t-30.5 -12.5zM103 -4q-45 0 -73 23.5t-28 65.5
q0 44 32 70q28 24 143 68l28 12q68 27 85 76l13 69q17 85 -72 85q-48 0 -71 -40q-13 -21 -24.5 -31t-27.5 -10q-28 0 -28 24q0 30 42.5 47.5t108.5 17.5q71 0 111.5 -25.5t30.5 -85.5l-41 -218q-15 -76 -15 -102q0 -33 24 -33q17 0 35 11l3 -6q-29 -19 -65 -19
q-45 0 -62.5 22t-9.5 52l-19 -16q-34 -30 -60 -43.5t-60 -13.5zM74 102q0 -39 18.5 -60t48.5 -21q32 0 75 35l28 23l41 207q-17 -33 -77 -59l-24 -10q-64 -28 -87 -52.5t-23 -62.5z" />
    <glyph glyph-name="aring" unicode="&#xe5;" horiz-adv-x="416" 
d="M258 685q36 0 54.5 -20t18.5 -49q0 -35 -24.5 -60t-65.5 -25q-37 0 -56 20t-19 49q0 35 25.5 60t66.5 25zM241 540q26 0 41.5 23t15.5 57q0 56 -41 56q-26 0 -42 -23t-16 -57q0 -56 42 -56zM103 -4q-45 0 -73 23.5t-28 65.5q0 44 32 70q28 24 143 68l28 12q68 27 85 76
l13 69q17 85 -72 85q-48 0 -71 -40q-13 -21 -24.5 -31t-27.5 -10q-28 0 -28 24q0 30 42.5 47.5t108.5 17.5q71 0 111.5 -25.5t30.5 -85.5l-41 -218q-15 -76 -15 -102q0 -33 24 -33q17 0 35 11l3 -6q-29 -19 -65 -19q-45 0 -62.5 22t-9.5 52l-19 -16q-34 -30 -60 -43.5
t-60 -13.5zM74 102q0 -39 18.5 -60t48.5 -21q32 0 75 35l28 23l41 207q-17 -33 -77 -59l-24 -10q-64 -28 -87 -52.5t-23 -62.5z" />
    <glyph glyph-name="ae" unicode="&#xe6;" horiz-adv-x="679" 
d="M103 -4q-45 0 -73 23.5t-28 65.5q0 44 32 70q28 24 143 68l28 12q73 29 85 79l13 66q17 85 -72 85q-48 0 -71 -40q-13 -21 -24.5 -31t-27.5 -10q-28 0 -28 24q0 30 42.5 47.5t108.5 17.5q114 0 138 -58q69 61 160 61q62 0 101.5 -38.5t32.5 -113.5h-287q-27 -75 -27 -156
q0 -162 121 -162q83 0 145 71l4 -5q-66 -80 -163 -80q-58 0 -104 28.5t-67 85.5l-53 -51q-64 -59 -129 -59zM529 467q-47 0 -86 -36.5t-63 -96.5h215q11 76 -6 104.5t-60 28.5zM74 102q0 -39 18.5 -60t48.5 -21q41 0 84 37l58 54q-11 36 -11 80q0 42 10 78l3 17
q-16 -34 -77 -60l-24 -10q-64 -28 -87 -52.5t-23 -62.5z" />
    <glyph glyph-name="ccedilla" unicode="&#xe7;" horiz-adv-x="414" 
d="M71 -198l1 8q110 8 110 57q0 36 -69 40l-1 5q49 61 65 83q-69 7 -113.5 57t-44.5 142q0 114 76.5 197.5t193.5 83.5q57 0 90 -17.5t33 -45.5q0 -13 -8.5 -22t-23.5 -9q-26 0 -43 43q-11 29 -24 36q-11 5 -24 5q-88 0 -141 -90.5t-53 -206.5q0 -162 122 -162q82 0 145 71
l4 -5q-65 -79 -163 -79q-11 0 -16 1l-34 -45q35 -4 57 -20t22 -44q0 -36 -39 -59t-122 -24z" />
    <glyph glyph-name="egrave" unicode="&#xe8;" horiz-adv-x="422" 
d="M331 535l-122 109q-17 17 -17 34q0 30 30 30q21 0 35 -29l81 -140zM19 192q0 114 73.5 199t183.5 85q62 0 101.5 -38.5t32.5 -113.5h-288q-27 -75 -27 -156q0 -162 122 -162q82 0 145 71l4 -5q-66 -80 -163 -80q-78 0 -131 50t-53 150zM276 467q-48 0 -87 -36.5
t-63 -96.5h216q11 76 -6.5 104.5t-59.5 28.5z" />
    <glyph glyph-name="eacute" unicode="&#xe9;" horiz-adv-x="422" 
d="M233 534l-5 5l103 143q20 27 41 27q11 0 18.5 -7t7.5 -18q0 -21 -26 -41zM19 192q0 114 73.5 199t183.5 85q62 0 101.5 -38.5t32.5 -113.5h-288q-27 -75 -27 -156q0 -162 122 -162q82 0 145 71l4 -5q-66 -80 -163 -80q-78 0 -131 50t-53 150zM276 467q-48 0 -87 -36.5
t-63 -96.5h216q11 76 -6.5 104.5t-59.5 28.5z" />
    <glyph glyph-name="ecircumflex" unicode="&#xea;" horiz-adv-x="422" 
d="M166 537l142 175l76 -175l-7 -4l-84 100l-122 -100zM19 192q0 114 73.5 199t183.5 85q62 0 101.5 -38.5t32.5 -113.5h-288q-27 -75 -27 -156q0 -162 122 -162q82 0 145 71l4 -5q-66 -80 -163 -80q-78 0 -131 50t-53 150zM276 467q-48 0 -87 -36.5t-63 -96.5h216
q11 76 -6.5 104.5t-59.5 28.5z" />
    <glyph glyph-name="edieresis" unicode="&#xeb;" horiz-adv-x="422" 
d="M360 560q-18 0 -30.5 12.5t-12.5 31.5q0 18 12.5 30t30.5 12t30.5 -12t12.5 -30q0 -19 -12.5 -31.5t-30.5 -12.5zM202 560q-18 0 -30.5 12.5t-12.5 31.5q0 18 12.5 30t30.5 12t30.5 -12t12.5 -30q0 -19 -12.5 -31.5t-30.5 -12.5zM19 192q0 114 73.5 199t183.5 85
q62 0 101.5 -38.5t32.5 -113.5h-288q-27 -75 -27 -156q0 -162 122 -162q82 0 145 71l4 -5q-66 -80 -163 -80q-78 0 -131 50t-53 150zM276 467q-48 0 -87 -36.5t-63 -96.5h216q11 76 -6.5 104.5t-59.5 28.5z" />
    <glyph glyph-name="igrave" unicode="&#xec;" horiz-adv-x="207" 
d="M215 535l-122 109q-17 17 -17 34q0 30 30 30q21 0 35 -29l81 -140zM-21 0l2 7q31 8 40.5 30t28.5 116l25 129q19 97 14 111q-5 10 -29 13l1 8l126 62l-63 -323q-10 -51 -13.5 -73t-2.5 -40t8.5 -23.5t23.5 -9.5l-2 -7h-159z" />
    <glyph glyph-name="iacute" unicode="&#xed;" horiz-adv-x="207" 
d="M117 534l-5 5l103 143q20 27 41 27q11 0 18.5 -7t7.5 -18q0 -21 -26 -41zM-21 0l2 7q31 8 40.5 30t28.5 116l25 129q19 97 14 111q-5 10 -29 13l1 8l126 62l-63 -323q-10 -51 -13.5 -73t-2.5 -40t8.5 -23.5t23.5 -9.5l-2 -7h-159z" />
    <glyph glyph-name="icircumflex" unicode="&#xee;" horiz-adv-x="207" 
d="M52 537l142 175l76 -175l-7 -4l-84 100l-122 -100zM-21 0l2 7q31 8 40.5 30t28.5 116l25 129q19 97 14 111q-5 10 -29 13l1 8l126 62l-63 -323q-10 -51 -13.5 -73t-2.5 -40t8.5 -23.5t23.5 -9.5l-2 -7h-159z" />
    <glyph glyph-name="idieresis" unicode="&#xef;" horiz-adv-x="207" 
d="M231 560q-18 0 -30.5 12.5t-12.5 31.5q0 18 12.5 30t30.5 12t30.5 -12t12.5 -30q0 -19 -12.5 -31.5t-30.5 -12.5zM105 560q-18 0 -30.5 12.5t-12.5 31.5q0 18 12.5 30t30.5 12t30.5 -12t12.5 -30q0 -19 -12.5 -31.5t-30.5 -12.5zM-21 0l2 7q31 8 40.5 30t28.5 116l25 129
q19 97 14 111q-5 10 -29 13l1 8l126 62l-63 -323q-10 -51 -13.5 -73t-2.5 -40t8.5 -23.5t23.5 -9.5l-2 -7h-159z" />
    <glyph glyph-name="eth" unicode="&#xf0;" horiz-adv-x="497" 
d="M473 345q0 -161 -71.5 -257.5t-191.5 -96.5q-89 0 -136 60t-47 143q0 49 17.5 98t49 90.5t83 67.5t113.5 26q63 0 105 -36q-14 98 -65 182l-126 -49l-4 9l125 48q-53 83 -126 128l5 4q104 -44 166 -115l126 48l3 -8l-122 -47q96 -115 96 -295zM394 301q0 75 -26.5 121
t-77.5 46q-58 0 -102 -47.5t-64.5 -114t-20.5 -137.5q0 -77 26 -123.5t81 -46.5q81 0 132.5 96t51.5 206z" />
    <glyph glyph-name="ntilde" unicode="&#xf1;" horiz-adv-x="494" 
d="M276 635q13 0 50 -6t48 -6q24 0 57 47l6 -3q-18 -43 -39.5 -65t-39.5 -22q-14 0 -52 5.5t-48 5.5q-26 0 -63 -49l-6 3q21 43 45 66.5t42 23.5zM-20 0l1 7q30 7 39.5 29.5t27.5 116.5l25 129q19 96 14 110q-3 11 -29 14l2 8l125 62l-21 -109l36 29q100 78 170 78
q51 0 74 -33.5t11 -91.5l-38 -196q-19 -91 -17.5 -114.5t29.5 -31.5l-2 -7h-157l2 7q32 7 42 29.5t29 116.5l38 196q22 108 -38 108q-54 0 -145 -73l-37 -29l-39 -202q-10 -51 -13.5 -73t-2.5 -40t8 -23.5t23 -9.5l-1 -7h-156z" />
    <glyph glyph-name="ograve" unicode="&#xf2;" horiz-adv-x="497" 
d="M351 535l-122 109q-17 17 -17 34q0 30 30 30q21 0 35 -29l81 -140zM27 194q0 49 17.5 98t49 90.5t83 67.5t113.5 26q84 0 132 -60.5t48 -141.5q0 -66 -30 -130t-91.5 -108.5t-138.5 -44.5q-89 0 -136 60t-47 143zM394 301q0 75 -26.5 121t-77.5 46q-58 0 -102 -47.5
t-64.5 -114t-20.5 -137.5q0 -77 26 -123.5t81 -46.5q81 0 132.5 96t51.5 206z" />
    <glyph glyph-name="oacute" unicode="&#xf3;" horiz-adv-x="497" 
d="M255 534l-5 5l103 143q20 27 41 27q11 0 18.5 -7t7.5 -18q0 -21 -26 -41zM27 194q0 49 17.5 98t49 90.5t83 67.5t113.5 26q84 0 132 -60.5t48 -141.5q0 -66 -30 -130t-91.5 -108.5t-138.5 -44.5q-89 0 -136 60t-47 143zM394 301q0 75 -26.5 121t-77.5 46
q-58 0 -102 -47.5t-64.5 -114t-20.5 -137.5q0 -77 26 -123.5t81 -46.5q81 0 132.5 96t51.5 206z" />
    <glyph glyph-name="ocircumflex" unicode="&#xf4;" horiz-adv-x="497" 
d="M187 537l142 175l76 -175l-7 -4l-84 100l-122 -100zM27 194q0 49 17.5 98t49 90.5t83 67.5t113.5 26q84 0 132 -60.5t48 -141.5q0 -66 -30 -130t-91.5 -108.5t-138.5 -44.5q-89 0 -136 60t-47 143zM394 301q0 75 -26.5 121t-77.5 46q-58 0 -102 -47.5t-64.5 -114
t-20.5 -137.5q0 -77 26 -123.5t81 -46.5q81 0 132.5 96t51.5 206z" />
    <glyph glyph-name="otilde" unicode="&#xf5;" horiz-adv-x="497" 
d="M264 635q13 0 50 -6t48 -6q24 0 57 47l6 -3q-18 -43 -39.5 -65t-39.5 -22q-14 0 -52 5.5t-48 5.5q-26 0 -63 -49l-6 3q21 43 45 66.5t42 23.5zM27 194q0 49 17.5 98t49 90.5t83 67.5t113.5 26q84 0 132 -60.5t48 -141.5q0 -66 -30 -130t-91.5 -108.5t-138.5 -44.5
q-89 0 -136 60t-47 143zM394 301q0 75 -26.5 121t-77.5 46q-58 0 -102 -47.5t-64.5 -114t-20.5 -137.5q0 -77 26 -123.5t81 -46.5q81 0 132.5 96t51.5 206z" />
    <glyph glyph-name="odieresis" unicode="&#xf6;" horiz-adv-x="497" 
d="M381 560q-18 0 -30.5 12.5t-12.5 31.5q0 18 12.5 30t30.5 12t30.5 -12t12.5 -30q0 -19 -12.5 -31.5t-30.5 -12.5zM223 560q-18 0 -30.5 12.5t-12.5 31.5q0 18 12.5 30t30.5 12t30.5 -12t12.5 -30q0 -19 -12.5 -31.5t-30.5 -12.5zM27 194q0 49 17.5 98t49 90.5t83 67.5
t113.5 26q84 0 132 -60.5t48 -141.5q0 -66 -30 -130t-91.5 -108.5t-138.5 -44.5q-89 0 -136 60t-47 143zM394 301q0 75 -26.5 121t-77.5 46q-58 0 -102 -47.5t-64.5 -114t-20.5 -137.5q0 -77 26 -123.5t81 -46.5q81 0 132.5 96t51.5 206z" />
    <glyph glyph-name="divide" unicode="&#xf7;" horiz-adv-x="483" 
d="M225 494q0 19 13.5 32t31.5 13t31.5 -13t13.5 -32q0 -18 -13.5 -31t-31.5 -13t-31.5 13t-13.5 31zM79 345v12h381v-12h-381zM225 205q0 18 13.5 31t31.5 13t31.5 -13t13.5 -31q0 -19 -13.5 -32t-31.5 -13t-31.5 13t-13.5 32z" />
    <glyph glyph-name="oslash" unicode="&#xf8;" horiz-adv-x="496" 
d="M27 194q0 49 17.5 98t49 90.5t83 67.5t113.5 26q43 0 77 -17l-11 -21q1 -1 3.5 -4.5t4.5 -5.5l-215 -407q24 -22 61 -22q81 0 132.5 96t51.5 206q0 82 -30 127l14 26q-2 1 -5.5 2.5t-5.5 2.5l31 59l11 -5l-31 -59q44 -26 68 -75t24 -105q0 -66 -30 -130t-91.5 -108.5
t-138.5 -44.5q-37 0 -71 13l10 17l-9 9l216 408q-27 30 -66 30q-58 0 -102 -47.5t-64.5 -114t-20.5 -137.5q0 -96 37 -139l-11 -22q1 0 5 -1.5t5 -2.5l-35 -67l-10 5l35 66q-50 24 -76 74.5t-26 111.5z" />
    <glyph glyph-name="ugrave" unicode="&#xf9;" horiz-adv-x="487" 
d="M353 535l-122 109q-17 17 -17 34q0 30 30 30q21 0 35 -29l81 -140zM124 -8q-51 0 -74.5 34t-12.5 92l30 152q21 104 16 120q-3 12 -27 15q-1 1 -3 1l2 8l126 62l-72 -368q-21 -99 42 -99q56 0 141 67l33 26l33 168q20 105 15 120q-5 12 -29 16l2 8l126 62l-64 -323
q-18 -91 -15.5 -114.5t36.5 -31.5l-2 -7h-122l18 89l-33 -25q-93 -72 -166 -72z" />
    <glyph glyph-name="uacute" unicode="&#xfa;" horiz-adv-x="487" 
d="M255 534l-5 5l103 143q20 27 41 27q11 0 18.5 -7t7.5 -18q0 -21 -26 -41zM124 -8q-51 0 -74.5 34t-12.5 92l30 152q21 104 16 120q-3 12 -27 15q-1 1 -3 1l2 8l126 62l-72 -368q-21 -99 42 -99q56 0 141 67l33 26l33 168q20 105 15 120q-5 12 -29 16l2 8l126 62l-64 -323
q-18 -91 -15.5 -114.5t36.5 -31.5l-2 -7h-122l18 89l-33 -25q-93 -72 -166 -72z" />
    <glyph glyph-name="ucircumflex" unicode="&#xfb;" horiz-adv-x="487" 
d="M190 537l142 175l76 -175l-7 -4l-84 100l-122 -100zM124 -8q-51 0 -74.5 34t-12.5 92l30 152q21 104 16 120q-3 12 -27 15q-1 1 -3 1l2 8l126 62l-72 -368q-21 -99 42 -99q56 0 141 67l33 26l33 168q20 105 15 120q-5 12 -29 16l2 8l126 62l-64 -323
q-18 -91 -15.5 -114.5t36.5 -31.5l-2 -7h-122l18 89l-33 -25q-93 -72 -166 -72z" />
    <glyph glyph-name="udieresis" unicode="&#xfc;" horiz-adv-x="487" 
d="M384 560q-18 0 -30.5 12.5t-12.5 31.5q0 18 12.5 30t30.5 12t30.5 -12t12.5 -30q0 -19 -12.5 -31.5t-30.5 -12.5zM226 560q-18 0 -30.5 12.5t-12.5 31.5q0 18 12.5 30t30.5 12t30.5 -12t12.5 -30q0 -19 -12.5 -31.5t-30.5 -12.5zM124 -8q-51 0 -74.5 34t-12.5 92l30 152
q21 104 16 120q-3 12 -27 15q-1 1 -3 1l2 8l126 62l-72 -368q-21 -99 42 -99q56 0 141 67l33 26l33 168q20 105 15 120q-5 12 -29 16l2 8l126 62l-64 -323q-18 -91 -15.5 -114.5t36.5 -31.5l-2 -7h-122l18 89l-33 -25q-93 -72 -166 -72z" />
    <glyph glyph-name="yacute" unicode="&#xfd;" horiz-adv-x="402" 
d="M226 534l-5 5l103 143q20 27 41 27q11 0 18.5 -7t7.5 -18q0 -21 -26 -41zM0 -171q-21 0 -31 8.5t-8 21.5q2 30 35 30q13 0 29 -8t28 -8q32 0 83 90l20 37l-69 357q-12 61 -21 79t-27 24l1 6h142l-1 -6q-23 -4 -28.5 -21t4.5 -79l49 -266l127 241q30 53 37.5 79.5
t0.5 34.5t-29 11l1 6h106l-1 -6q-24 -6 -42.5 -27t-61.5 -98l-197 -372q-75 -134 -147 -134z" />
    <glyph glyph-name="thorn" unicode="&#xfe;" horiz-adv-x="504" 
d="M-65 -166l1 7q29 7 39 29.5t28 116.5l117 601q0 2 1 5q17 91 13 104q-6 10 -31 13h-3l1 7l130 58l-79 -406l30 28q83 77 154 77q70 0 104.5 -50.5t34.5 -127.5q0 -75 -29.5 -142.5t-93.5 -114t-151 -46.5q-72 0 -115 42l-9 -48q-10 -52 -13.5 -73.5t-2 -39.5t8.5 -23
t24 -10l-1 -7h-158zM179 384l-30 -28l-60 -310q44 -43 110 -43q63 0 109.5 46.5t68.5 116.5t22 152q0 141 -80 141q-59 0 -140 -75z" />
    <glyph glyph-name="ydieresis" unicode="&#xff;" horiz-adv-x="402" 
d="M352 560q-18 0 -30.5 12.5t-12.5 31.5q0 18 12.5 30t30.5 12t30.5 -12t12.5 -30q0 -19 -12.5 -31.5t-30.5 -12.5zM194 560q-18 0 -30.5 12.5t-12.5 31.5q0 18 12.5 30t30.5 12t30.5 -12t12.5 -30q0 -19 -12.5 -31.5t-30.5 -12.5zM0 -171q-21 0 -31 8.5t-8 21.5
q2 30 35 30q13 0 29 -8t28 -8q32 0 83 90l20 37l-69 357q-12 61 -21 79t-27 24l1 6h142l-1 -6q-23 -4 -28.5 -21t4.5 -79l49 -266l127 241q30 53 37.5 79.5t0.5 34.5t-29 11l1 6h106l-1 -6q-24 -6 -42.5 -27t-61.5 -98l-197 -372q-75 -134 -147 -134z" />
    <glyph glyph-name="Amacron" unicode="&#x100;" horiz-adv-x="643" 
d="M541 831l-7 -35h-202l7 35h202zM-43 0v6q24 9 44 32t60 90l341 554q-4 33 -13.5 45t-27.5 17l2 6h100q8 0 10 -2.5t3 -11.5l69 -609q7 -58 15.5 -82.5t31.5 -37.5v-7h-148v7q24 5 29.5 23t-0.5 51l-18 151h-319l-64 -104q-19 -31 -27.5 -51t-6.5 -41t24 -30v-6h-105z
M141 240h313l-50 427z" />
    <glyph glyph-name="amacron" unicode="&#x101;" horiz-adv-x="416" 
d="M158 610h192l-7 -34h-192zM103 -4q-45 0 -73 23.5t-28 65.5q0 44 32 70q28 24 143 68l28 12q68 27 85 76l13 69q17 85 -72 85q-48 0 -71 -40q-13 -21 -24.5 -31t-27.5 -10q-28 0 -28 24q0 30 42.5 47.5t108.5 17.5q71 0 111.5 -25.5t30.5 -85.5l-41 -218
q-15 -76 -15 -102q0 -33 24 -33q17 0 35 11l3 -6q-29 -19 -65 -19q-45 0 -62.5 22t-9.5 52l-19 -16q-34 -30 -60 -43.5t-60 -13.5zM74 102q0 -39 18.5 -60t48.5 -21q32 0 75 35l28 23l41 207q-17 -33 -77 -59l-24 -10q-64 -28 -87 -52.5t-23 -62.5z" />
    <glyph glyph-name="Abreve" unicode="&#x102;" horiz-adv-x="643" 
d="M443 827q75 0 99 54h8q-6 -36 -36.5 -67t-80.5 -31q-47 0 -66 30.5t-14 68.5h9q0 -23 20.5 -39t60.5 -16zM-43 0v6q24 9 44 32t60 90l341 554q-4 33 -13.5 45t-27.5 17l2 6h100q8 0 10 -2.5t3 -11.5l69 -609q7 -58 15.5 -82.5t31.5 -37.5v-7h-148v7q24 5 29.5 23t-0.5 51
l-18 151h-319l-64 -104q-19 -31 -27.5 -51t-6.5 -41t24 -30v-6h-105zM141 240h313l-50 427z" />
    <glyph glyph-name="abreve" unicode="&#x103;" horiz-adv-x="416" 
d="M248 585q70 0 99 74h8q-8 -50 -37.5 -84t-76.5 -34q-48 0 -66 34t-8 85h9q-3 -75 72 -75zM103 -4q-45 0 -73 23.5t-28 65.5q0 44 32 70q28 24 143 68l28 12q68 27 85 76l13 69q17 85 -72 85q-48 0 -71 -40q-13 -21 -24.5 -31t-27.5 -10q-28 0 -28 24q0 30 42.5 47.5
t108.5 17.5q71 0 111.5 -25.5t30.5 -85.5l-41 -218q-15 -76 -15 -102q0 -33 24 -33q17 0 35 11l3 -6q-29 -19 -65 -19q-45 0 -62.5 22t-9.5 52l-19 -16q-34 -30 -60 -43.5t-60 -13.5zM74 102q0 -39 18.5 -60t48.5 -21q32 0 75 35l28 23l41 207q-17 -33 -77 -59l-24 -10
q-64 -28 -87 -52.5t-23 -62.5z" />
    <glyph glyph-name="Aogonek" unicode="&#x104;" horiz-adv-x="643" 
d="M-43 6q24 9 44 32t60 90l341 554q-3 32 -12.5 44.5t-28.5 17.5l2 6h100q8 0 10 -2.5t3 -11.5l69 -609q1 -6 2.5 -19t2 -18t2.5 -15t3 -14t3 -11.5t4 -11.5t4.5 -9.5t6 -8.5t8 -6.5t9.5 -6.5v-7h-78q-38 0 -71.5 -32t-33.5 -69t36 -37q24 0 44 16l4 -5q-36 -43 -85 -43
q-28 0 -44.5 14t-16.5 39q0 31 28.5 58.5t55.5 40t53 20.5l-27 230h-319l-64 -104q-19 -31 -27.5 -51t-6.5 -41t24 -30v-6h-105v6zM142 241h312l-50 426z" />
    <glyph glyph-name="aogonek" unicode="&#x105;" horiz-adv-x="413" 
d="M103 -4q-45 0 -73 23.5t-28 65.5q0 44 32 70q28 24 143 68l28 12q68 27 85 76l13 69q17 85 -72 85q-48 0 -71 -40q-13 -21 -24.5 -31t-27.5 -10q-28 0 -28 24q0 30 42.5 47.5t108.5 17.5q71 0 111.5 -25.5t30.5 -85.5l-41 -218q-15 -76 -15 -102q0 -33 24 -33q17 0 35 11
l3 -6q-9 -6 -33 -17q-35 -13 -58 -39.5t-23 -58.5q0 -37 37 -37q23 0 43 16l4 -5q-36 -43 -84 -43q-28 0 -44.5 14t-16.5 39q0 28 24.5 53.5t49 38t52.5 21.5q-2 0 -7.5 -0.5t-8.5 -0.5q-45 0 -62.5 21.5t-9.5 52.5l-19 -16q-34 -30 -60 -43.5t-60 -13.5zM74 102
q0 -39 18.5 -60t48.5 -21q32 0 75 35l28 23l41 207q-17 -33 -77 -59l-24 -10q-64 -28 -87 -52.5t-23 -62.5z" />
    <glyph glyph-name="Cacute" unicode="&#x106;" horiz-adv-x="616" 
d="M348 778l-3 6l148 91q20 12 38 12q11 0 18 -8.5t7 -19.5q0 -24 -45 -37zM566 116l6 -6q-78 -117 -240 -117q-71 0 -126 25.5t-88.5 71t-50 103.5t-16.5 127q0 81 26.5 158.5t75 140.5t126 101t171.5 38q60 0 111 -21t62 -21q12 0 18 6t13 22h10l-30 -153h-9
q0 158 -175 158q-75 0 -136.5 -41.5t-99.5 -108.5t-58.5 -148t-20.5 -164q0 -131 54.5 -204.5t159.5 -73.5q71 0 127.5 31t89.5 76z" />
    <glyph glyph-name="cacute" unicode="&#x107;" horiz-adv-x="414" 
d="M243 534l-5 5l103 143q20 27 41 27q11 0 18.5 -7t7.5 -18q0 -21 -26 -41zM366 72q-65 -79 -163 -79q-78 0 -131 50t-53 151q0 114 76.5 197.5t193.5 83.5q57 0 90 -17.5t33 -45.5q0 -13 -8.5 -22t-23.5 -9q-26 0 -43 43q-11 29 -24 36q-11 5 -24 5q-88 0 -141 -90.5
t-53 -206.5q0 -162 122 -162q82 0 145 71z" />
    <glyph glyph-name="Ccircumflex" unicode="&#x108;" horiz-adv-x="616" 
d="M321 782l144 106l103 -106l-4 -5l-111 50l-127 -50zM566 116l6 -6q-78 -117 -240 -117q-71 0 -126 25.5t-88.5 71t-50 103.5t-16.5 127q0 81 26.5 158.5t75 140.5t126 101t171.5 38q60 0 111 -21t62 -21q12 0 18 6t13 22h10l-30 -153h-9q0 158 -175 158
q-75 0 -136.5 -41.5t-99.5 -108.5t-58.5 -148t-20.5 -164q0 -131 54.5 -204.5t159.5 -73.5q71 0 127.5 31t89.5 76z" />
    <glyph glyph-name="ccircumflex" unicode="&#x109;" horiz-adv-x="414" 
d="M178 537l142 175l76 -175l-7 -4l-84 100l-122 -100zM366 72q-65 -79 -163 -79q-78 0 -131 50t-53 151q0 114 76.5 197.5t193.5 83.5q57 0 90 -17.5t33 -45.5q0 -13 -8.5 -22t-23.5 -9q-26 0 -43 43q-11 29 -24 36q-11 5 -24 5q-88 0 -141 -90.5t-53 -206.5
q0 -162 122 -162q82 0 145 71z" />
    <glyph glyph-name="Cdotaccent" unicode="&#x10a;" horiz-adv-x="616" 
d="M450 783q-19 0 -32 13.5t-13 32.5t13 31.5t32 12.5t32 -12.5t13 -31.5t-13 -32.5t-32 -13.5zM566 116l6 -6q-78 -117 -240 -117q-71 0 -126 25.5t-88.5 71t-50 103.5t-16.5 127q0 81 26.5 158.5t75 140.5t126 101t171.5 38q60 0 111 -21t62 -21q12 0 18 6t13 22h10
l-30 -153h-9q0 158 -175 158q-75 0 -136.5 -41.5t-99.5 -108.5t-58.5 -148t-20.5 -164q0 -131 54.5 -204.5t159.5 -73.5q71 0 127.5 31t89.5 76z" />
    <glyph glyph-name="cdotaccent" unicode="&#x10b;" horiz-adv-x="414" 
d="M289 559q-19 0 -32 13t-13 32t13 32t32 13t32 -13t13 -32t-13 -32t-32 -13zM366 72q-65 -79 -163 -79q-78 0 -131 50t-53 151q0 114 76.5 197.5t193.5 83.5q57 0 90 -17.5t33 -45.5q0 -13 -8.5 -22t-23.5 -9q-26 0 -43 43q-11 29 -24 36q-11 5 -24 5q-88 0 -141 -90.5
t-53 -206.5q0 -162 122 -162q82 0 145 71z" />
    <glyph glyph-name="Ccaron" unicode="&#x10c;" horiz-adv-x="616" 
d="M343 885l5 5l109 -50l129 50l5 -5l-146 -106zM566 116l6 -6q-78 -117 -240 -117q-71 0 -126 25.5t-88.5 71t-50 103.5t-16.5 127q0 81 26.5 158.5t75 140.5t126 101t171.5 38q60 0 111 -21t62 -21q12 0 18 6t13 22h10l-30 -153h-9q0 158 -175 158q-75 0 -136.5 -41.5
t-99.5 -108.5t-58.5 -148t-20.5 -164q0 -131 54.5 -204.5t159.5 -73.5q71 0 127.5 31t89.5 76z" />
    <glyph glyph-name="ccaron" unicode="&#x10d;" horiz-adv-x="414" 
d="M210 714l7 4l83 -100l123 100l5 -4l-143 -175zM366 72q-65 -79 -163 -79q-78 0 -131 50t-53 151q0 114 76.5 197.5t193.5 83.5q57 0 90 -17.5t33 -45.5q0 -13 -8.5 -22t-23.5 -9q-26 0 -43 43q-11 29 -24 36q-11 5 -24 5q-88 0 -141 -90.5t-53 -206.5q0 -162 122 -162
q82 0 145 71z" />
    <glyph glyph-name="Dcaron" unicode="&#x10e;" horiz-adv-x="654" 
d="M267 885l5 5l109 -50l129 50l5 -5l-146 -106zM71 252l48 246q32 163 31.5 199t-34.5 46l2 7h204q171 0 254 -85t83 -222q0 -194 -137.5 -318.5t-360.5 -124.5h-189l2 7q14 4 21.5 7.5t16.5 15t13.5 23t12.5 43t14.5 63t18.5 93.5zM316 741h-70l-142 -733h59
q192 0 301.5 125.5t109.5 322.5q0 131 -65.5 208t-192.5 77z" />
    <glyph glyph-name="dcaron" unicode="&#x10f;" horiz-adv-x="509" 
d="M326 0l16 83l-9 -10q-76 -80 -153 -80q-78 0 -118.5 54.5t-40.5 138.5q0 52 17 102t49 92t85.5 68t119.5 26q67 0 117 -50l32 164q18 94 13 108q-4 12 -32 14h-3l1 7l132 58l-122 -622q-18 -91 -15 -114.5t37 -31.5l-2 -7h-124zM560 583l-6 2l36 130q14 48 39 48
q20 0 20 -22q0 -17 -16 -43zM97 161q0 -73 26.5 -112.5t75.5 -39.5q62 0 137 77l9 9l62 317q-55 53 -115 53q-59 0 -104.5 -46t-68 -114.5t-22.5 -143.5z" />
    <glyph glyph-name="Dcroat" unicode="&#x110;" horiz-adv-x="654" 
d="M71 252l27 136h-73l2 8h72l20 102q32 163 31.5 199t-34.5 46l2 7h204q171 0 254 -85t83 -222q0 -194 -137.5 -318.5t-360.5 -124.5h-189l2 7q14 4 21.5 7.5t16.5 15t13.5 23t12.5 43t14.5 63t18.5 93.5zM329 388h-151l-74 -380h59q192 0 301.5 125.5t109.5 322.5
q0 131 -65.5 208t-192.5 77h-70l-67 -345h152z" />
    <glyph glyph-name="dcroat" unicode="&#x111;" horiz-adv-x="509" 
d="M326 0l16 83l-9 -10q-76 -80 -153 -80q-78 0 -118.5 54.5t-40.5 138.5q0 52 17 102t49 92t85.5 68t119.5 26q67 0 117 -50l28 145h-142l1 9h143l2 10q18 94 13 108q-4 12 -32 14h-3l1 7l132 58l-39 -197h74l-2 -9h-73l-82 -416q-18 -91 -15 -114.5t37 -31.5l-2 -7h-124z
M97 161q0 -73 26.5 -112.5t75.5 -39.5q62 0 137 77l9 9l62 317q-55 53 -115 53q-59 0 -104.5 -46t-68 -114.5t-22.5 -143.5z" />
    <glyph glyph-name="Emacron" unicode="&#x112;" horiz-adv-x="541" 
d="M473 831l-7 -35h-202l7 35h202zM349 336q-1 40 -10 52q-17 22 -66 22h-91l-78 -401h221q68 0 104.5 21.5t67.5 93.5h10l-31 -106q-3 -12 -7.5 -15t-14.5 -3h-482l2 7q14 4 21.5 7.5t16.5 15t13.5 23t12.5 43t14.5 63t18.5 93.5l48 246q32 163 31.5 199t-34.5 46l2 7h430
q8 0 10.5 -3.5t3.5 -17.5l9 -91h-10q-12 60 -44 81.5t-94 21.5h-177l-62 -322h90q29 0 48 5.5t30.5 20t15 21.5t11.5 27h8l-30 -157h-8z" />
    <glyph glyph-name="emacron" unicode="&#x113;" horiz-adv-x="422" 
d="M190 610h192l-7 -34h-192zM19 192q0 114 73.5 199t183.5 85q62 0 101.5 -38.5t32.5 -113.5h-288q-27 -75 -27 -156q0 -162 122 -162q82 0 145 71l4 -5q-66 -80 -163 -80q-78 0 -131 50t-53 150zM276 467q-48 0 -87 -36.5t-63 -96.5h216q11 76 -6.5 104.5t-59.5 28.5z" />
    <glyph glyph-name="Ebreve" unicode="&#x114;" horiz-adv-x="541" 
d="M375 827q75 0 99 54h8q-6 -36 -36.5 -67t-80.5 -31q-47 0 -66 30.5t-14 68.5h9q0 -23 20.5 -39t60.5 -16zM349 336q-1 40 -10 52q-17 22 -66 22h-91l-78 -401h221q68 0 104.5 21.5t67.5 93.5h10l-31 -106q-3 -12 -7.5 -15t-14.5 -3h-482l2 7q14 4 21.5 7.5t16.5 15
t13.5 23t12.5 43t14.5 63t18.5 93.5l48 246q32 163 31.5 199t-34.5 46l2 7h430q8 0 10.5 -3.5t3.5 -17.5l9 -91h-10q-12 60 -44 81.5t-94 21.5h-177l-62 -322h90q29 0 48 5.5t30.5 20t15 21.5t11.5 27h8l-30 -157h-8z" />
    <glyph glyph-name="ebreve" unicode="&#x115;" horiz-adv-x="422" 
d="M280 585q70 0 99 74h8q-8 -50 -37.5 -84t-76.5 -34q-48 0 -66 34t-8 85h9q-3 -75 72 -75zM19 192q0 114 73.5 199t183.5 85q62 0 101.5 -38.5t32.5 -113.5h-288q-27 -75 -27 -156q0 -162 122 -162q82 0 145 71l4 -5q-66 -80 -163 -80q-78 0 -131 50t-53 150zM276 467
q-48 0 -87 -36.5t-63 -96.5h216q11 76 -6.5 104.5t-59.5 28.5z" />
    <glyph glyph-name="Edotaccent" unicode="&#x116;" horiz-adv-x="541" 
d="M370 783q-19 0 -32 13.5t-13 32.5t13 31.5t32 12.5t32 -12.5t13 -31.5t-13 -32.5t-32 -13.5zM349 336q-1 40 -10 52q-17 22 -66 22h-91l-78 -401h221q68 0 104.5 21.5t67.5 93.5h10l-31 -106q-3 -12 -7.5 -15t-14.5 -3h-482l2 7q14 4 21.5 7.5t16.5 15t13.5 23t12.5 43
t14.5 63t18.5 93.5l48 246q32 163 31.5 199t-34.5 46l2 7h430q8 0 10.5 -3.5t3.5 -17.5l9 -91h-10q-12 60 -44 81.5t-94 21.5h-177l-62 -322h90q29 0 48 5.5t30.5 20t15 21.5t11.5 27h8l-30 -157h-8z" />
    <glyph glyph-name="edotaccent" unicode="&#x117;" horiz-adv-x="422" 
d="M277 559q-19 0 -32 13t-13 32t13 32t32 13t32 -13t13 -32t-13 -32t-32 -13zM19 192q0 114 73.5 199t183.5 85q62 0 101.5 -38.5t32.5 -113.5h-288q-27 -75 -27 -156q0 -162 122 -162q82 0 145 71l4 -5q-66 -80 -163 -80q-78 0 -131 50t-53 150zM276 467q-48 0 -87 -36.5
t-63 -96.5h216q11 76 -6.5 104.5t-59.5 28.5z" />
    <glyph glyph-name="Eogonek" unicode="&#x118;" horiz-adv-x="542" 
d="M407 -127q-36 -43 -85 -43q-28 0 -44.5 14t-16.5 39q0 24 15.5 45.5t39.5 35.5t43.5 22.5t36.5 13.5h-424l2 7q14 4 21.5 7.5t16.5 15t13.5 23t12.5 43t14.5 63t18.5 93.5l48 246q32 163 31.5 199t-34.5 46l2 7h430q8 0 10.5 -3.5t3.5 -17.5l9 -91h-10q-12 60 -44 81.5
t-94 21.5h-177l-62 -322h90q29 0 48 5.5t30.5 20t15 21.5t11.5 27h8l-30 -157h-8q-1 40 -10 52q-17 22 -66 22h-91l-78 -401h221q68 0 104.5 21.5t67.5 93.5h10l-31 -106q-3 -12 -7.5 -15t-14.5 -3h-46q-35 -14 -60.5 -42t-25.5 -60q0 -16 9.5 -26t27.5 -10q23 0 43 16z" />
    <glyph glyph-name="eogonek" unicode="&#x119;" horiz-adv-x="424" 
d="M271 -127q-36 -43 -85 -43q-28 0 -44.5 14t-16.5 39q0 70 133 116q-28 -7 -52 -7q-78 0 -131 50t-53 150q0 114 73.5 199t183.5 85q62 0 101.5 -38.5t32.5 -113.5h-288q-27 -75 -27 -156q0 -162 122 -162q82 0 145 71l4 -5q-37 -44 -93 -68q-90 -44 -90 -106
q0 -36 37 -36q23 0 43 16zM279 467q-48 0 -87 -36.5t-63 -96.5h216q11 76 -6.5 104.5t-59.5 28.5z" />
    <glyph glyph-name="Ecaron" unicode="&#x11a;" horiz-adv-x="541" 
d="M263 885l5 5l109 -50l129 50l5 -5l-146 -106zM349 336q-1 40 -10 52q-17 22 -66 22h-91l-78 -401h221q68 0 104.5 21.5t67.5 93.5h10l-31 -106q-3 -12 -7.5 -15t-14.5 -3h-482l2 7q14 4 21.5 7.5t16.5 15t13.5 23t12.5 43t14.5 63t18.5 93.5l48 246q32 163 31.5 199
t-34.5 46l2 7h430q8 0 10.5 -3.5t3.5 -17.5l9 -91h-10q-12 60 -44 81.5t-94 21.5h-177l-62 -322h90q29 0 48 5.5t30.5 20t15 21.5t11.5 27h8l-30 -157h-8z" />
    <glyph glyph-name="ecaron" unicode="&#x11b;" horiz-adv-x="422" 
d="M198 714l7 4l83 -100l123 100l5 -4l-143 -175zM19 192q0 114 73.5 199t183.5 85q62 0 101.5 -38.5t32.5 -113.5h-288q-27 -75 -27 -156q0 -162 122 -162q82 0 145 71l4 -5q-66 -80 -163 -80q-78 0 -131 50t-53 150zM276 467q-48 0 -87 -36.5t-63 -96.5h216
q11 76 -6.5 104.5t-59.5 28.5z" />
    <glyph glyph-name="Gcircumflex" unicode="&#x11c;" horiz-adv-x="664" 
d="M329 782l144 106l103 -106l-4 -5l-111 50l-127 -50zM343 -8q-145 0 -218.5 92t-73.5 236q0 81 26.5 158.5t75 140.5t126 101t171.5 38q49 0 84 -10.5t55.5 -21t35.5 -10.5q23 0 35 28h10l-31 -153h-10q-1 78 -48 118t-131 40q-75 0 -136.5 -41.5t-99.5 -108.5t-58.5 -148
t-20.5 -164q0 -286 208 -286q145 0 179 174l1 8q9 49 12.5 72t0.5 39.5t-11 22t-27 9.5l2 7h178l-1 -7q-25 -6 -36.5 -17.5t-21.5 -44t-25 -108.5l-11 -57q-36 -44 -97 -75.5t-143 -31.5z" />
    <glyph glyph-name="gcircumflex" unicode="&#x11d;" horiz-adv-x="424" 
d="M145 537l142 175l76 -175l-7 -4l-84 100l-122 -100zM48 298q0 73 59.5 125t137.5 52q51 0 90 -26q51 51 97 51q32 0 32 -26q0 -27 -30 -27q-9 0 -25 5.5t-29 5.5q-22 0 -42 -11q58 -41 58 -113q0 -70 -59 -121.5t-138 -51.5q-47 0 -84 21l-16 -8q-37 -17 -37 -44
q0 -26 51 -37l147 -33q106 -22 106 -100q0 -61 -62 -96.5t-159 -35.5q-45 0 -83.5 7.5t-69 29.5t-30.5 56q0 67 123 107q-28 6 -44.5 23.5t-16.5 43.5q0 56 67 84l17 7q-60 40 -60 112zM326 357q0 109 -81 109q-56 0 -91.5 -58t-35.5 -129q0 -50 20.5 -79.5t60.5 -29.5
q58 0 92.5 57t34.5 130zM15 -75q0 -46 38.5 -67t98.5 -21q74 0 125 25.5t51 64.5q0 28 -26 42.5t-72 25.5l-132 30q-83 -33 -83 -100z" />
    <glyph glyph-name="Gbreve" unicode="&#x11e;" horiz-adv-x="664" 
d="M463 827q75 0 99 54h8q-6 -36 -36.5 -67t-80.5 -31q-47 0 -66 30.5t-14 68.5h9q0 -23 20.5 -39t60.5 -16zM343 -8q-145 0 -218.5 92t-73.5 236q0 81 26.5 158.5t75 140.5t126 101t171.5 38q49 0 84 -10.5t55.5 -21t35.5 -10.5q23 0 35 28h10l-31 -153h-10q-1 78 -48 118
t-131 40q-75 0 -136.5 -41.5t-99.5 -108.5t-58.5 -148t-20.5 -164q0 -286 208 -286q145 0 179 174l1 8q9 49 12.5 72t0.5 39.5t-11 22t-27 9.5l2 7h178l-1 -7q-25 -6 -36.5 -17.5t-21.5 -44t-25 -108.5l-11 -57q-36 -44 -97 -75.5t-143 -31.5z" />
    <glyph glyph-name="gbreve" unicode="&#x11f;" horiz-adv-x="424" 
d="M259 585q70 0 99 74h8q-8 -50 -37.5 -84t-76.5 -34q-48 0 -66 34t-8 85h9q-3 -75 72 -75zM48 298q0 73 59.5 125t137.5 52q51 0 90 -26q51 51 97 51q32 0 32 -26q0 -27 -30 -27q-9 0 -25 5.5t-29 5.5q-22 0 -42 -11q58 -41 58 -113q0 -70 -59 -121.5t-138 -51.5
q-47 0 -84 21l-16 -8q-37 -17 -37 -44q0 -26 51 -37l147 -33q106 -22 106 -100q0 -61 -62 -96.5t-159 -35.5q-45 0 -83.5 7.5t-69 29.5t-30.5 56q0 67 123 107q-28 6 -44.5 23.5t-16.5 43.5q0 56 67 84l17 7q-60 40 -60 112zM326 357q0 109 -81 109q-56 0 -91.5 -58
t-35.5 -129q0 -50 20.5 -79.5t60.5 -29.5q58 0 92.5 57t34.5 130zM15 -75q0 -46 38.5 -67t98.5 -21q74 0 125 25.5t51 64.5q0 28 -26 42.5t-72 25.5l-132 30q-83 -33 -83 -100z" />
    <glyph glyph-name="Gdotaccent" unicode="&#x120;" horiz-adv-x="664" 
d="M454 783q-19 0 -32 13.5t-13 32.5t13 31.5t32 12.5t32 -12.5t13 -31.5t-13 -32.5t-32 -13.5zM343 -8q-145 0 -218.5 92t-73.5 236q0 81 26.5 158.5t75 140.5t126 101t171.5 38q49 0 84 -10.5t55.5 -21t35.5 -10.5q23 0 35 28h10l-31 -153h-10q-1 78 -48 118t-131 40
q-75 0 -136.5 -41.5t-99.5 -108.5t-58.5 -148t-20.5 -164q0 -286 208 -286q145 0 179 174l1 8q9 49 12.5 72t0.5 39.5t-11 22t-27 9.5l2 7h178l-1 -7q-25 -6 -36.5 -17.5t-21.5 -44t-25 -108.5l-11 -57q-36 -44 -97 -75.5t-143 -31.5z" />
    <glyph glyph-name="gdotaccent" unicode="&#x121;" horiz-adv-x="424" 
d="M256 559q-19 0 -32 13t-13 32t13 32t32 13t32 -13t13 -32t-13 -32t-32 -13zM48 298q0 73 59.5 125t137.5 52q51 0 90 -26q51 51 97 51q32 0 32 -26q0 -27 -30 -27q-9 0 -25 5.5t-29 5.5q-22 0 -42 -11q58 -41 58 -113q0 -70 -59 -121.5t-138 -51.5q-47 0 -84 21l-16 -8
q-37 -17 -37 -44q0 -26 51 -37l147 -33q106 -22 106 -100q0 -61 -62 -96.5t-159 -35.5q-45 0 -83.5 7.5t-69 29.5t-30.5 56q0 67 123 107q-28 6 -44.5 23.5t-16.5 43.5q0 56 67 84l17 7q-60 40 -60 112zM326 357q0 109 -81 109q-56 0 -91.5 -58t-35.5 -129q0 -50 20.5 -79.5
t60.5 -29.5q58 0 92.5 57t34.5 130zM15 -75q0 -46 38.5 -67t98.5 -21q74 0 125 25.5t51 64.5q0 28 -26 42.5t-72 25.5l-132 30q-83 -33 -83 -100z" />
    <glyph glyph-name="Gcommaaccent" unicode="&#x122;" horiz-adv-x="664" 
d="M343 -8q-145 0 -218.5 92t-73.5 236q0 81 26.5 158.5t75 140.5t126 101t171.5 38q49 0 84 -10.5t55.5 -21t35.5 -10.5q23 0 35 28h10l-31 -153h-10q-1 78 -48 118t-131 40q-75 0 -136.5 -41.5t-99.5 -108.5t-58.5 -148t-20.5 -164q0 -286 208 -286q145 0 179 174l1 8
q9 49 12.5 72t0.5 39.5t-11 22t-27 9.5l2 7h178l-1 -7q-25 -6 -36.5 -17.5t-21.5 -44t-25 -108.5l-11 -57q-36 -44 -97 -75.5t-143 -31.5zM317 -54q44 0 44 -49q0 -33 -23.5 -56.5t-63.5 -31.5l-3 7q29 6 46.5 20t17.5 31q0 5 -1 7q-7 -7 -23 -7t-27 10.5t-11 27.5
q0 19 12.5 30t31.5 11z" />
    <glyph glyph-name="gcommaaccent" unicode="&#x123;" horiz-adv-x="424" 
d="M259 549q-21 0 -34.5 14t-13.5 39q0 69 79 85l3 -8q-56 -12 -59 -49q0 -7 4 -11q10 10 27 10q16 0 27 -10.5t11 -28.5q0 -19 -12.5 -30t-31.5 -11zM48 298q0 73 59.5 125t137.5 52q51 0 90 -26q51 51 97 51q32 0 32 -26q0 -27 -30 -27q-9 0 -25 5.5t-29 5.5
q-22 0 -42 -11q58 -41 58 -113q0 -70 -59 -121.5t-138 -51.5q-47 0 -84 21l-16 -8q-37 -17 -37 -44q0 -26 51 -37l147 -33q106 -22 106 -100q0 -61 -62 -96.5t-159 -35.5q-45 0 -83.5 7.5t-69 29.5t-30.5 56q0 67 123 107q-28 6 -44.5 23.5t-16.5 43.5q0 56 67 84l17 7
q-60 40 -60 112zM326 357q0 109 -81 109q-56 0 -91.5 -58t-35.5 -129q0 -50 20.5 -79.5t60.5 -29.5q58 0 92.5 57t34.5 130zM15 -75q0 -46 38.5 -67t98.5 -21q74 0 125 25.5t51 64.5q0 28 -26 42.5t-72 25.5l-132 30q-83 -33 -83 -100z" />
    <glyph glyph-name="Hcircumflex" unicode="&#x124;" horiz-adv-x="664" 
d="M315 782l144 106l103 -106l-4 -5l-111 50l-127 -50zM-26 7q37 10 51 45.5t46 199.5l48 246q32 163 31.5 199t-34.5 46l2 7h181l-2 -7q-17 -4 -26 -10.5t-18 -18t-16.5 -41t-16 -67t-21.5 -108.5l-16 -83h370l16 83q32 163 31.5 199t-34.5 46l1 7h182l-2 -7
q-17 -4 -26 -10.5t-18 -18t-17 -41t-16 -67t-22 -108.5l-48 -246q-31 -163 -30 -199t35 -46l-2 -7h-182l2 7q27 7 39.5 24t24 60.5t34.5 160.5l30 155h-370l-30 -155q-32 -163 -31 -199t35 -46l-2 -7h-181z" />
    <glyph glyph-name="hcircumflex" unicode="&#x125;" horiz-adv-x="494" 
d="M242 812l144 106l103 -106l-4 -5l-111 50l-127 -50zM-20 0l1 7q30 7 39.5 29.5t27.5 116.5l85 435q19 94 14 108q-5 11 -30 14l1 7l125 59l-79 -409l36 29q100 78 170 78q51 0 74 -33.5t11 -91.5l-38 -196q-19 -91 -17.5 -114.5t29.5 -31.5l-2 -7h-157l2 7q32 7 42 29.5
t29 116.5l38 196q22 108 -38 108q-54 0 -145 -73l-37 -30l-39 -201q-10 -51 -13.5 -73t-2.5 -40t8 -23.5t23 -9.5l-1 -7h-156z" />
    <glyph glyph-name="Hbar" unicode="&#x126;" horiz-adv-x="664" 
d="M-26 7q37 10 51 45.5t46 199.5l48 246q3 15 7.5 39t6.5 32h-86l1 8h86q19 107 16 132.5t-34 33.5l2 7h181l-2 -7q-24 -6 -35 -17.5t-22 -44t-26 -104.5h370q19 107 16 132.5t-34 33.5l1 7h182l-2 -7q-24 -6 -35 -17.5t-22 -44t-26 -104.5h84l-1 -8h-85q-2 -8 -6.5 -32
t-7.5 -39l-48 -246q-31 -163 -30 -199t35 -46l-2 -7h-182l2 7q27 7 39.5 24t24 60.5t34.5 160.5l30 155h-370l-30 -155q-32 -163 -31 -199t35 -46l-2 -7h-181zM183 415h370l16 83q3 15 7.5 39t6.5 32h-370q-2 -8 -6.5 -32t-7.5 -39z" />
    <glyph glyph-name="hbar" unicode="&#x127;" horiz-adv-x="494" 
d="M-20 0l1 7q30 7 39.5 29.5t27.5 116.5l81 416h-72l1 9h73l2 10q19 94 14 108q-5 11 -30 14l1 7l125 59l-38 -198h143l-1 -9h-144l-39 -202l36 29q100 78 170 78q51 0 74 -33.5t11 -91.5l-38 -196q-19 -91 -17.5 -114.5t29.5 -31.5l-2 -7h-157l2 7q32 7 42 29.5t29 116.5
l38 196q22 108 -38 108q-54 0 -145 -73l-37 -30l-39 -201q-10 -51 -13.5 -73t-2.5 -40t8 -23.5t23 -9.5l-1 -7h-156z" />
    <glyph glyph-name="Itilde" unicode="&#x128;" horiz-adv-x="214" 
d="M177 864q11 0 51 -6.5t52 -6.5q24 0 59 46l7 -2q-21 -44 -43 -65.5t-40 -21.5q-13 0 -54 6t-52 6q-25 0 -65 -47l-6 2q23 44 47.5 66.5t43.5 22.5zM-28 0l2 7q14 4 21.5 7.5t16.5 15t13.5 23t12.5 43t14.5 63t18.5 93.5l48 246q32 163 31.5 199t-34.5 46l2 7h181l-2 -7
q-17 -4 -26 -10.5t-18 -18t-16.5 -41t-16 -67t-21.5 -108.5l-48 -246q-32 -163 -31 -199t35 -46l-2 -7h-181z" />
    <glyph glyph-name="itilde" unicode="&#x129;" horiz-adv-x="207" 
d="M126 635q13 0 50 -6t48 -6q24 0 57 47l6 -3q-18 -43 -39.5 -65t-39.5 -22q-14 0 -52 5.5t-48 5.5q-26 0 -63 -49l-6 3q21 43 45 66.5t42 23.5zM-21 0l2 7q31 8 40.5 30t28.5 116l25 129q19 97 14 111q-5 10 -29 13l1 8l126 62l-63 -323q-10 -51 -13.5 -73t-2.5 -40
t8.5 -23.5t23.5 -9.5l-2 -7h-159z" />
    <glyph glyph-name="Imacron" unicode="&#x12a;" horiz-adv-x="214" 
d="M320 831l-7 -35h-202l7 35h202zM-28 0l2 7q14 4 21.5 7.5t16.5 15t13.5 23t12.5 43t14.5 63t18.5 93.5l48 246q32 163 31.5 199t-34.5 46l2 7h181l-2 -7q-17 -4 -26 -10.5t-18 -18t-16.5 -41t-16 -67t-21.5 -108.5l-48 -246q-32 -163 -31 -199t35 -46l-2 -7h-181z" />
    <glyph glyph-name="imacron" unicode="&#x12b;" horiz-adv-x="207" 
d="M77 610h192l-7 -34h-192zM-21 0l2 7q31 8 40.5 30t28.5 116l25 129q19 97 14 111q-5 10 -29 13l1 8l126 62l-63 -323q-10 -51 -13.5 -73t-2.5 -40t8.5 -23.5t23.5 -9.5l-2 -7h-159z" />
    <glyph glyph-name="Ibreve" unicode="&#x12c;" horiz-adv-x="214" 
d="M223 827q75 0 99 54h8q-6 -36 -36.5 -67t-80.5 -31q-47 0 -66 30.5t-14 68.5h9q0 -23 20.5 -39t60.5 -16zM-28 0l2 7q14 4 21.5 7.5t16.5 15t13.5 23t12.5 43t14.5 63t18.5 93.5l48 246q32 163 31.5 199t-34.5 46l2 7h181l-2 -7q-17 -4 -26 -10.5t-18 -18t-16.5 -41
t-16 -67t-21.5 -108.5l-48 -246q-32 -163 -31 -199t35 -46l-2 -7h-181z" />
    <glyph glyph-name="ibreve" unicode="&#x12d;" horiz-adv-x="207" 
d="M167 585q70 0 99 74h8q-8 -50 -37.5 -84t-76.5 -34q-48 0 -66 34t-8 85h9q-3 -75 72 -75zM-21 0l2 7q31 8 40.5 30t28.5 116l25 129q19 97 14 111q-5 10 -29 13l1 8l126 62l-63 -323q-10 -51 -13.5 -73t-2.5 -40t8.5 -23.5t23.5 -9.5l-2 -7h-159z" />
    <glyph glyph-name="Iogonek" unicode="&#x12e;" horiz-adv-x="222" 
d="M-20 0l2 7q14 4 21.5 7.5t16.5 15t13.5 23t12.5 43t14.5 63t18.5 93.5l48 246q32 163 31.5 199t-34.5 46l2 7h181l-2 -7q-17 -4 -26 -10.5t-18 -18t-16.5 -41t-16 -67t-21.5 -108.5l-48 -246q-32 -163 -31 -199t35 -46l-2 -7h-42q-35 -14 -60.5 -42t-25.5 -60
q0 -16 9.5 -26t27.5 -10q23 0 43 16l5 -5q-36 -43 -85 -43q-28 0 -44.5 14t-16.5 39q0 24 15.5 45.5t39.5 35.5t43.5 22.5t36.5 13.5h-127z" />
    <glyph glyph-name="iogonek" unicode="&#x12f;" horiz-adv-x="210" 
d="M176 559q-19 0 -32 13t-13 32t13 32t32 13t32 -13t13 -32t-13 -32t-32 -13zM-19 0l2 7q31 8 40.5 30t28.5 116l25 129q18 96 14 109q-5 12 -29 15l1 8l126 62l-63 -323q-10 -51 -13.5 -73t-2.5 -40t8.5 -23.5t23.5 -9.5l-2 -7h-28q-35 -14 -60.5 -42t-25.5 -60
q0 -16 9.5 -26t27.5 -10q23 0 43 16l5 -5q-36 -43 -85 -43q-28 0 -44.5 14t-16.5 39q0 24 15.5 45.5t39.5 35.5t43.5 22.5t36.5 13.5h-119z" />
    <glyph glyph-name="Idotaccent" unicode="&#x130;" horiz-adv-x="214" 
d="M218 783q-19 0 -32 13.5t-13 32.5t13 31.5t32 12.5t32 -12.5t13 -31.5t-13 -32.5t-32 -13.5zM-28 0l2 7q14 4 21.5 7.5t16.5 15t13.5 23t12.5 43t14.5 63t18.5 93.5l48 246q32 163 31.5 199t-34.5 46l2 7h181l-2 -7q-17 -4 -26 -10.5t-18 -18t-16.5 -41t-16 -67
t-21.5 -108.5l-48 -246q-32 -163 -31 -199t35 -46l-2 -7h-181z" />
    <glyph glyph-name="dotlessi" unicode="&#x131;" horiz-adv-x="207" 
d="M-21 0l2 7q31 8 40.5 30t28.5 116l25 129q19 97 14 111q-5 10 -29 13l1 8l126 62l-63 -323q-10 -51 -13.5 -73t-2.5 -40t8.5 -23.5t23.5 -9.5l-2 -7h-159z" />
    <glyph glyph-name="IJ" unicode="&#x132;" horiz-adv-x="571" 
d="M-28 0l2 7q14 4 21.5 7.5t16.5 15t13.5 23t12.5 43t14.5 63t18.5 93.5l48 246q32 163 31.5 199t-34.5 46l2 7h181l-2 -7q-17 -4 -26 -10.5t-18 -18t-16.5 -41t-16 -67t-21.5 -108.5l-48 -246q-32 -163 -31 -199t35 -46l-2 -7h-181zM556 498l-72 -371q-12 -59 -59 -97.5
t-115 -38.5q-55 0 -91 21.5t-36 54.5q0 19 11 30t28 11q38 0 41 -43q2 -34 13.5 -49.5t40.5 -15.5t49.5 19t27.5 54l82 425q32 163 31.5 199t-34.5 46l2 7h181l-1 -7q-27 -7 -39.5 -23.5t-25 -61t-34.5 -160.5z" />
    <glyph glyph-name="ij" unicode="&#x133;" horiz-adv-x="400" 
d="M174 559q-19 0 -32 13t-13 32t13 32t32 13t32 -13t13 -32t-13 -32t-32 -13zM374 559q-19 0 -32 13t-13 32t13 32t32 13t32 -13t13 -32t-13 -32t-32 -13zM-21 0l2 7q31 8 40.5 30t28.5 116l25 129q18 96 14 109q-5 12 -29 15l1 8l126 62l-63 -323q-10 -51 -13.5 -73
t-2.5 -40t8.5 -23.5t23.5 -9.5l-2 -7h-159zM309 74q-23 -118 -123 -184q-47 -29 -72 -29q-40 0 -40 31q0 12 9 20.5t24 8.5q17 0 32 -15.5t24 -15.5t16 5q24 15 47 131l49 255q19 97 14 111q-3 11 -29 14l2 8l125 62z" />
    <glyph glyph-name="Jcircumflex" unicode="&#x134;" horiz-adv-x="356" 
d="M229 782l144 106l103 -106l-4 -5l-111 50l-127 -50zM341 498l-72 -371q-12 -59 -59 -97.5t-115 -38.5q-55 0 -91 21.5t-36 54.5q0 19 11 30t28 11q38 0 41 -43q2 -34 13.5 -49.5t40.5 -15.5t49.5 19t27.5 54l82 425q32 163 31.5 199t-34.5 46l2 7h181l-1 -7
q-27 -7 -39.5 -23.5t-25 -61t-34.5 -160.5z" />
    <glyph glyph-name="jcircumflex" unicode="&#x135;" horiz-adv-x="202" 
d="M52 537l142 175l76 -175l-7 -4l-84 100l-122 -100zM107 74q-23 -118 -123 -184q-47 -29 -72 -29q-40 0 -40 31q0 12 9 20.5t24 8.5q17 0 32 -15.5t24 -15.5t16 5q24 15 47 131l49 255q19 97 14 111q-3 11 -29 14l2 8l125 62z" />
    <glyph glyph-name="Kcommaaccent" unicode="&#x136;" horiz-adv-x="593" 
d="M372 0l1 6q27 7 27 27t-19 50l-194 340l302 231q70 53 72 70q1 10 -15 16q-6 2 -16 4l2 6h116l-1 -6q-31 -4 -120 -72l-275 -210l219 -384q19 -34 32 -48t35 -24l-1 -6h-165zM-28 0l2 7q37 10 51 45.5t46 199.5l48 246q32 163 31.5 199t-34.5 46l2 7h181l-2 -7
q-17 -4 -26 -10.5t-18 -18t-16.5 -41t-16 -67t-21.5 -108.5l-48 -246q-32 -163 -31 -199t35 -46l-2 -7h-181zM248 -54q44 0 44 -49q0 -33 -23.5 -56.5t-63.5 -31.5l-3 7q29 6 46.5 20t17.5 31q0 5 -1 7q-7 -7 -23 -7t-27 10.5t-11 27.5q0 19 12.5 30t31.5 11z" />
    <glyph glyph-name="kcommaaccent" unicode="&#x137;" horiz-adv-x="439" 
d="M-20 0l1 7q29 6 38.5 28t28.5 118l83 423q20 105 16 120q-4 12 -30 14h-3l1 8l128 58l-121 -623q-10 -51 -13.5 -73t-2.5 -40t8 -23.5t23 -9.5l-1 -7h-156zM248 0l2 8q15 0 22 13t-6 38l-123 185l3 6l189 151q21 17 27 30t-0.5 20t-22.5 9v6h115l-1 -6q-43 -10 -114 -67
l-139 -111l153 -231q16 -25 25 -33t20 -10l-2 -8h-148zM175 -54q44 0 44 -49q0 -33 -23.5 -56.5t-63.5 -31.5l-3 7q29 6 46.5 20t17.5 31q0 5 -1 7q-7 -7 -23 -7t-27 10.5t-11 27.5q0 19 12.5 30t31.5 11z" />
    <glyph glyph-name="Lacute" unicode="&#x139;" horiz-adv-x="510" 
d="M121 778l-3 6l148 91q20 12 38 12q11 0 18 -8.5t7 -19.5q0 -24 -45 -37zM-28 0l2 7q37 10 51 45.5t46 199.5l48 246q32 163 31.5 199t-34.5 46l2 7h183l-2 -7q-15 -4 -23 -7.5t-17 -14.5t-14 -23.5t-13 -42.5t-15 -63.5t-18 -93.5l-95 -489h190q69 0 107 23t74 103h10
l-39 -117q-4 -12 -8.5 -15t-14.5 -3h-451z" />
    <glyph glyph-name="lacute" unicode="&#x13a;" horiz-adv-x="207" 
d="M111 778l-3 6l148 91q20 12 38 12q11 0 18 -8.5t7 -19.5q0 -24 -45 -37zM-20 0l1 7q31 7 41 29.5t28 116.5l83 423q20 104 16 119q-4 13 -30 15h-5l2 7l129 58l-121 -622q-10 -51 -13.5 -73t-2.5 -40t8.5 -23.5t23.5 -9.5l-2 -7h-158z" />
    <glyph glyph-name="Lcommaaccent" unicode="&#x13b;" horiz-adv-x="510" 
d="M-28 0l2 7q37 10 51 45.5t46 199.5l48 246q32 163 31.5 199t-34.5 46l2 7h183l-2 -7q-15 -4 -23 -7.5t-17 -14.5t-14 -23.5t-13 -42.5t-15 -63.5t-18 -93.5l-95 -489h190q69 0 107 23t74 103h10l-39 -117q-4 -12 -8.5 -15t-14.5 -3h-451zM226 -54q44 0 44 -49
q0 -33 -23.5 -56.5t-63.5 -31.5l-3 7q29 6 46.5 20t17.5 31q0 5 -1 7q-7 -7 -23 -7t-27 10.5t-11 27.5q0 19 12.5 30t31.5 11z" />
    <glyph glyph-name="lcommaaccent" unicode="&#x13c;" horiz-adv-x="207" 
d="M-20 0l1 7q31 7 41 29.5t28 116.5l83 423q20 104 16 119q-4 13 -30 15h-5l2 7l129 58l-121 -622q-10 -51 -13.5 -73t-2.5 -40t8.5 -23.5t23.5 -9.5l-2 -7h-158zM42 -54q44 0 44 -49q0 -33 -23.5 -56.5t-63.5 -31.5l-3 7q29 6 46.5 20t17.5 31q0 5 -1 7q-7 -7 -23 -7
t-27 10.5t-11 27.5q0 19 12.5 30t31.5 11z" />
    <glyph glyph-name="Lcaron" unicode="&#x13d;" horiz-adv-x="510" 
d="M305 582l-6 2l36 130q14 48 39 48q20 0 20 -22q0 -17 -16 -43zM-28 0l2 7q37 10 51 45.5t46 199.5l48 246q32 163 31.5 199t-34.5 46l2 7h183l-2 -7q-15 -4 -23 -7.5t-17 -14.5t-14 -23.5t-13 -42.5t-15 -63.5t-18 -93.5l-95 -489h190q69 0 107 23t74 103h10l-39 -117
q-4 -12 -8.5 -15t-14.5 -3h-451z" />
    <glyph glyph-name="lcaron" unicode="&#x13e;" horiz-adv-x="207" 
d="M-20 0l1 7q31 7 41 29.5t28 116.5l83 423q20 104 16 119q-4 13 -30 15h-5l2 7l129 58l-121 -622q-10 -51 -13.5 -73t-2.5 -40t8.5 -23.5t23.5 -9.5l-2 -7h-158zM266 583l-6 2l36 130q14 48 39 48q20 0 20 -22q0 -17 -16 -43z" />
    <glyph glyph-name="Ldot" unicode="&#x13f;" horiz-adv-x="510" 
d="M-28 0l2 7q37 10 51 45.5t46 199.5l48 246q32 163 31.5 199t-34.5 46l2 7h183l-2 -7q-15 -4 -23 -7.5t-17 -14.5t-14 -23.5t-13 -42.5t-15 -63.5t-18 -93.5l-95 -489h190q69 0 107 23t74 103h10l-39 -117q-4 -12 -8.5 -15t-14.5 -3h-451zM393 342q-21 0 -35 14t-14 35
q0 20 14 34.5t35 14.5t35 -14.5t14 -34.5q0 -21 -14 -35t-35 -14z" />
    <glyph glyph-name="ldot" unicode="&#x140;" horiz-adv-x="258" 
d="M-20 0l1 7q31 7 41 29.5t28 116.5l83 423q20 104 16 119q-4 13 -30 15h-5l2 7l129 58l-121 -622q-10 -51 -13.5 -73t-2.5 -40t8.5 -23.5t23.5 -9.5l-2 -7h-158zM257 316q-21 0 -35 14t-14 35q0 20 14 34t35 14q20 0 34.5 -14t14.5 -34q0 -21 -14.5 -35t-34.5 -14z" />
    <glyph glyph-name="Lslash" unicode="&#x141;" horiz-adv-x="510" 
d="M-28 0l2 7q37 10 51 45.5t46 199.5l12 61l-97 -59l-5 7l104 63l34 174q32 163 31.5 199t-34.5 46l2 7h183l-2 -7q-15 -4 -23 -7.5t-17 -14.5t-14 -23.5t-13 -42.5t-15 -63.5t-18 -93.5l-23 -118l156 95l5 -7l-163 -99l-70 -360h190q69 0 107 23t74 103h10l-39 -117
q-4 -12 -8.5 -15t-14.5 -3h-451z" />
    <glyph glyph-name="lslash" unicode="&#x142;" horiz-adv-x="208" 
d="M-20 0l1 7q31 7 41 29.5t28 116.5l40 204l-72 -48l-5 7l79 53l41 207q20 104 16 119q-4 13 -30 15h-5l2 7l129 58l-68 -349l67 45l6 -7l-75 -50l-51 -261q-10 -51 -13.5 -73t-2.5 -40t8.5 -23.5t23.5 -9.5l-2 -7h-158z" />
    <glyph glyph-name="Nacute" unicode="&#x143;" horiz-adv-x="624" 
d="M335 778l-3 6l148 91q20 12 38 12q11 0 18 -8.5t7 -19.5q0 -24 -45 -37zM-28 0l2 7q17 6 26 13t17.5 19t16.5 42t16 66.5t22 108.5l47 242q32 163 31.5 199t-34.5 46l2 7h117q12 0 17 -4.5t15 -25.5l256 -590l71 364q32 163 31 199.5t-38 49.5l1 7h118l-2 -7
q-28 -10 -40.5 -27.5t-25 -62t-34.5 -159.5l-73 -381l-5 -23l-13 -70l-5 -23h-11l-322 731l-92 -472q-32 -163 -31 -199t39 -50l-2 -7h-117z" />
    <glyph glyph-name="nacute" unicode="&#x144;" horiz-adv-x="494" 
d="M263 534l-5 5l103 143q20 27 41 27q11 0 18.5 -7t7.5 -18q0 -21 -26 -41zM-20 0l1 7q30 7 39.5 29.5t27.5 116.5l25 129q19 96 14 110q-3 11 -29 14l2 8l125 62l-21 -109l36 29q100 78 170 78q51 0 74 -33.5t11 -91.5l-38 -196q-19 -91 -17.5 -114.5t29.5 -31.5l-2 -7
h-157l2 7q32 7 42 29.5t29 116.5l38 196q22 108 -38 108q-54 0 -145 -73l-37 -29l-39 -202q-10 -51 -13.5 -73t-2.5 -40t8 -23.5t23 -9.5l-1 -7h-156z" />
    <glyph glyph-name="Ncommaaccent" unicode="&#x145;" horiz-adv-x="624" 
d="M-28 0l2 7q17 6 26 13t17.5 19t16.5 42t16 66.5t22 108.5l47 242q32 163 31.5 199t-34.5 46l2 7h117q12 0 17 -4.5t15 -25.5l256 -590l71 364q32 163 31 199.5t-38 49.5l1 7h118l-2 -7q-28 -10 -40.5 -27.5t-25 -62t-34.5 -159.5l-73 -381l-5 -23l-13 -70l-5 -23h-11
l-322 731l-92 -472q-32 -163 -31 -199t39 -50l-2 -7h-117zM264 -54q44 0 44 -49q0 -33 -23.5 -56.5t-63.5 -31.5l-3 7q29 6 46.5 20t17.5 31q0 5 -1 7q-7 -7 -23 -7t-27 10.5t-11 27.5q0 19 12.5 30t31.5 11z" />
    <glyph glyph-name="ncommaaccent" unicode="&#x146;" horiz-adv-x="494" 
d="M-20 0l1 7q30 7 39.5 29.5t27.5 116.5l25 129q19 96 14 110q-3 11 -29 14l2 8l125 62l-21 -109l36 29q100 78 170 78q51 0 74 -33.5t11 -91.5l-38 -196q-19 -91 -17.5 -114.5t29.5 -31.5l-2 -7h-157l2 7q32 7 42 29.5t29 116.5l38 196q22 108 -38 108q-54 0 -145 -73
l-37 -29l-39 -202q-10 -51 -13.5 -73t-2.5 -40t8 -23.5t23 -9.5l-1 -7h-156zM196 -54q44 0 44 -49q0 -33 -23.5 -56.5t-63.5 -31.5l-3 7q29 6 46.5 20t17.5 31q0 5 -1 7q-7 -7 -23 -7t-27 10.5t-11 27.5q0 19 12.5 30t31.5 11z" />
    <glyph glyph-name="Ncaron" unicode="&#x147;" horiz-adv-x="624" 
d="M329 885l5 5l109 -50l129 50l5 -5l-146 -106zM-28 0l2 7q17 6 26 13t17.5 19t16.5 42t16 66.5t22 108.5l47 242q32 163 31.5 199t-34.5 46l2 7h117q12 0 17 -4.5t15 -25.5l256 -590l71 364q32 163 31 199.5t-38 49.5l1 7h118l-2 -7q-28 -10 -40.5 -27.5t-25 -62
t-34.5 -159.5l-73 -381l-5 -23l-13 -70l-5 -23h-11l-322 731l-92 -472q-32 -163 -31 -199t39 -50l-2 -7h-117z" />
    <glyph glyph-name="ncaron" unicode="&#x148;" horiz-adv-x="494" 
d="M230 714l7 4l83 -100l123 100l5 -4l-143 -175zM-20 0l1 7q30 7 39.5 29.5t27.5 116.5l25 129q19 96 14 110q-3 11 -29 14l2 8l125 62l-21 -109l36 29q100 78 170 78q51 0 74 -33.5t11 -91.5l-38 -196q-19 -91 -17.5 -114.5t29.5 -31.5l-2 -7h-157l2 7q32 7 42 29.5
t29 116.5l38 196q22 108 -38 108q-54 0 -145 -73l-37 -29l-39 -202q-10 -51 -13.5 -73t-2.5 -40t8 -23.5t23 -9.5l-1 -7h-156z" />
    <glyph glyph-name="napostrophe" unicode="&#x149;" horiz-adv-x="494" 
d="M105 764q21 0 36 -13.5t15 -42.5q0 -38 -27.5 -73.5t-70.5 -58.5l-3 6q31 20 52 47t21 47q0 3 -2 9q-10 -8 -25 -8q-17 0 -29.5 11.5t-12.5 30.5q0 20 13.5 32.5t32.5 12.5zM-20 0l1 7q30 7 39.5 29.5t27.5 116.5l25 129q19 96 14 110q-3 11 -29 14l2 8l125 62l-21 -109
l36 29q100 78 170 78q51 0 74 -33.5t11 -91.5l-38 -196q-19 -91 -17.5 -114.5t29.5 -31.5l-2 -7h-157l2 7q32 7 42 29.5t29 116.5l38 196q22 108 -38 108q-54 0 -145 -73l-37 -29l-39 -202q-10 -51 -13.5 -73t-2.5 -40t8 -23.5t23 -9.5l-1 -7h-156z" />
    <glyph glyph-name="Eng" unicode="&#x14a;" horiz-adv-x="624" 
d="M-28 0l2 7q17 6 26 13t17.5 19t16.5 42t16 66.5t22 108.5l47 242q32 163 31.5 199t-34.5 46l2 7h117q12 0 17 -4.5t15 -25.5l257 -590l70 364q32 163 31 199.5t-38 49.5l1 7h118l-2 -7q-28 -10 -40.5 -27.5t-25 -62t-34.5 -159.5l-94 -487q-14 -71 -44.5 -105.5
t-93.5 -34.5q-54 0 -88 22t-34 54q0 18 11.5 29t29.5 11q37 0 39 -43q0 -34 8.5 -49t35.5 -15q53 0 81.5 30t42.5 91l-323 731l-92 -472q-32 -163 -31 -199t39 -50l-2 -7h-117z" />
    <glyph glyph-name="eng" unicode="&#x14b;" horiz-adv-x="491" 
d="M-20 0l1 7q30 7 39.5 29.5t27.5 116.5l25 129q19 96 14 110q-3 11 -29 14l2 8l125 62l-21 -109l36 29q100 78 170 78q51 0 74 -33.5t11 -91.5l-53 -275q-23 -118 -123 -184q-47 -29 -72 -29q-40 0 -40 31q0 12 9 20.5t24 8.5q17 0 32 -15.5t24 -15.5t16 5q24 15 47 131
l62 323q22 108 -38 108q-54 0 -145 -73l-37 -29l-39 -202q-10 -51 -13.5 -73t-2.5 -40t8 -23.5t23 -9.5l-1 -7h-156z" />
    <glyph glyph-name="Omacron" unicode="&#x14c;" horiz-adv-x="715" 
d="M559 831l-7 -35h-202l7 35h202zM714 431q0 -62 -15.5 -123.5t-47.5 -118.5t-76.5 -101t-108.5 -70t-138 -26q-132 0 -204.5 94.5t-72.5 231.5q0 78 26 154.5t74 141t125.5 104.5t172.5 40q125 0 195 -95.5t70 -231.5zM449 749q-76 0 -138 -41.5t-99 -110.5t-57 -152.5
t-20 -172.5q0 -271 193 -271q73 0 132 44t95 116t55.5 156.5t19.5 171.5q0 126 -45.5 193t-135.5 67z" />
    <glyph glyph-name="omacron" unicode="&#x14d;" horiz-adv-x="497" 
d="M211 610h192l-7 -34h-192zM27 194q0 49 17.5 98t49 90.5t83 67.5t113.5 26q84 0 132 -60.5t48 -141.5q0 -66 -30 -130t-91.5 -108.5t-138.5 -44.5q-89 0 -136 60t-47 143zM394 301q0 75 -26.5 121t-77.5 46q-58 0 -102 -47.5t-64.5 -114t-20.5 -137.5q0 -77 26 -123.5
t81 -46.5q81 0 132.5 96t51.5 206z" />
    <glyph glyph-name="Obreve" unicode="&#x14e;" horiz-adv-x="715" 
d="M461 827q75 0 99 54h8q-6 -36 -36.5 -67t-80.5 -31q-47 0 -66 30.5t-14 68.5h9q0 -23 20.5 -39t60.5 -16zM714 431q0 -62 -15.5 -123.5t-47.5 -118.5t-76.5 -101t-108.5 -70t-138 -26q-132 0 -204.5 94.5t-72.5 231.5q0 78 26 154.5t74 141t125.5 104.5t172.5 40
q125 0 195 -95.5t70 -231.5zM449 749q-76 0 -138 -41.5t-99 -110.5t-57 -152.5t-20 -172.5q0 -271 193 -271q73 0 132 44t95 116t55.5 156.5t19.5 171.5q0 126 -45.5 193t-135.5 67z" />
    <glyph glyph-name="obreve" unicode="&#x14f;" horiz-adv-x="497" 
d="M301 585q70 0 99 74h8q-8 -50 -37.5 -84t-76.5 -34q-48 0 -66 34t-8 85h9q-3 -75 72 -75zM27 194q0 49 17.5 98t49 90.5t83 67.5t113.5 26q84 0 132 -60.5t48 -141.5q0 -66 -30 -130t-91.5 -108.5t-138.5 -44.5q-89 0 -136 60t-47 143zM394 301q0 75 -26.5 121t-77.5 46
q-58 0 -102 -47.5t-64.5 -114t-20.5 -137.5q0 -77 26 -123.5t81 -46.5q81 0 132.5 96t51.5 206z" />
    <glyph glyph-name="Ohungarumlaut" unicode="&#x150;" horiz-adv-x="715" 
d="M498 772l-5 5l82 91q22 26 41 26q10 0 16 -6t6 -15q0 -18 -32 -38zM362 772l-5 5l82 91q22 26 41 26q9 0 15 -6t6 -15q0 -19 -32 -38zM714 431q0 -62 -15.5 -123.5t-47.5 -118.5t-76.5 -101t-108.5 -70t-138 -26q-132 0 -204.5 94.5t-72.5 231.5q0 78 26 154.5t74 141
t125.5 104.5t172.5 40q125 0 195 -95.5t70 -231.5zM449 749q-76 0 -138 -41.5t-99 -110.5t-57 -152.5t-20 -172.5q0 -271 193 -271q73 0 132 44t95 116t55.5 156.5t19.5 171.5q0 126 -45.5 193t-135.5 67z" />
    <glyph glyph-name="ohungarumlaut" unicode="&#x151;" horiz-adv-x="497" 
d="M350 540l-5 2l63 137q18 39 40 39q10 0 16 -6t6 -15q0 -14 -17 -34zM236 540l-5 2l63 137q11 21 19 30t21 9q10 0 16 -6t6 -15q0 -14 -17 -34zM27 194q0 49 17.5 98t49 90.5t83 67.5t113.5 26q84 0 132 -60.5t48 -141.5q0 -66 -30 -130t-91.5 -108.5t-138.5 -44.5
q-89 0 -136 60t-47 143zM394 301q0 75 -26.5 121t-77.5 46q-58 0 -102 -47.5t-64.5 -114t-20.5 -137.5q0 -77 26 -123.5t81 -46.5q81 0 132.5 96t51.5 206z" />
    <glyph glyph-name="OE" unicode="&#x152;" horiz-adv-x="955" 
d="M763 336q0 40 -10 53q-16 21 -66 21h-82l-78 -401h211q69 0 105.5 21.5t67.5 93.5h10l-32 -106q-3 -12 -7.5 -15t-13.5 -3h-528q-139 0 -213 91t-74 227q0 82 29.5 158.5t83 138t138.5 98.5t188 37h470q8 0 10.5 -3.5t2.5 -17.5l10 -91h-10q-13 60 -45 81.5t-93 21.5
h-168l-62 -322h82q28 0 47 5.5t30.5 20t15 21.5t11.5 27h9l-30 -157h-9zM137 291q0 -130 57 -206t161 -76q39 0 60.5 18.5t38 67.5t40.5 161q28 115 46 234q20 117 21.5 167.5t-13.5 67t-56 16.5q-70 0 -129 -26t-100 -70.5t-70 -102.5t-42.5 -121.5t-13.5 -129.5z" />
    <glyph glyph-name="oe" unicode="&#x153;" horiz-adv-x="789" 
d="M27 194q0 49 17.5 98t49 90.5t83 67.5t113.5 26q55 0 95.5 -27.5t61.5 -72.5q77 100 196 100q62 0 101.5 -38.5t32.5 -113.5h-288q-13 -36 -21 -81q0 -6 -2 -16q-4 -27 -4 -59q0 -162 122 -162q82 0 145 71l4 -5q-66 -80 -163 -80q-54 0 -98 24.5t-66 73.5
q-78 -99 -196 -99q-89 0 -136 60t-47 143zM394 301q0 75 -26.5 121t-77.5 46q-58 0 -102 -47.5t-64.5 -114t-20.5 -137.5q0 -77 26 -123.5t81 -46.5q81 0 132.5 96t51.5 206zM643 467q-48 0 -87 -36.5t-63 -96.5h216q11 76 -6.5 104.5t-59.5 28.5z" />
    <glyph glyph-name="Racute" unicode="&#x154;" horiz-adv-x="609" 
d="M282 778l-3 6l148 91q19 12 38 12q11 0 18 -8.5t7 -19.5q0 -24 -45 -37zM-26 7q37 10 51 45.5t46 199.5l48 246q32 163 31.5 199t-34.5 46l2 7h253q255 0 255 -166q0 -70 -42.5 -118t-106 -69t-142.5 -21h-35q64 -12 90 -56.5t29 -133.5q9 -171 96 -171q35 0 61 26l4 -5
q-35 -44 -99 -44q-29 0 -52 7.5t-44 26.5t-33.5 57.5t-14.5 94.5q-2 51 -3.5 81t-7.5 54t-12.5 35t-21.5 18.5t-29.5 8.5t-43.5 1h-44l-24 -124q-32 -163 -31.5 -199t35.5 -46l-2 -7h-181zM366 741h-120l-69 -357h155q38 0 72.5 10t67 32t52 65t19.5 101q0 84 -42.5 116.5
t-134.5 32.5z" />
    <glyph glyph-name="racute" unicode="&#x155;" horiz-adv-x="322" 
d="M208 534l-5 5l103 143q20 27 41 27q11 0 18.5 -7t7.5 -18q0 -21 -26 -41zM-20 0l1 7q29 6 38.5 28t28.5 118l24 117q20 104 16 119q-5 13 -30 17l2 8l125 62l-24 -121l61 54q42 38 60.5 50.5t36.5 12.5q19 0 29 -9.5t10 -24.5t-10 -25t-29 -10q-12 0 -28.5 8.5t-26.5 8.5
q-17 0 -44 -23l-61 -56l-37 -188q-19 -91 -16.5 -114.5t33.5 -31.5l-1 -7h-158z" />
    <glyph glyph-name="Rcommaaccent" unicode="&#x156;" horiz-adv-x="609" 
d="M-26 7q37 10 51 45.5t46 199.5l48 246q32 163 31.5 199t-34.5 46l2 7h253q255 0 255 -166q0 -70 -42.5 -118t-106 -69t-142.5 -21h-35q64 -12 90 -56.5t29 -133.5q9 -171 96 -171q35 0 61 26l4 -5q-35 -44 -99 -44q-29 0 -52 7.5t-44 26.5t-33.5 57.5t-14.5 94.5
q-2 51 -3.5 81t-7.5 54t-12.5 35t-21.5 18.5t-29.5 8.5t-43.5 1h-44l-24 -124q-32 -163 -31.5 -199t35.5 -46l-2 -7h-181zM366 741h-120l-69 -357h155q38 0 72.5 10t67 32t52 65t19.5 101q0 84 -42.5 116.5t-134.5 32.5zM255 -54q44 0 44 -49q0 -33 -23.5 -56.5t-63.5 -31.5
l-3 7q29 6 46.5 20t17.5 31q0 5 -1 7q-7 -7 -23 -7t-27 10.5t-11 27.5q0 19 12.5 30t31.5 11z" />
    <glyph glyph-name="rcommaaccent" unicode="&#x157;" horiz-adv-x="322" 
d="M-20 0l1 7q29 6 38.5 28t28.5 118l24 117q20 104 16 119q-5 13 -30 17l2 8l125 62l-24 -121l61 54q42 38 60.5 50.5t36.5 12.5q19 0 29 -9.5t10 -24.5t-10 -25t-29 -10q-12 0 -28.5 8.5t-26.5 8.5q-17 0 -44 -23l-61 -56l-37 -188q-19 -91 -16.5 -114.5t33.5 -31.5l-1 -7
h-158zM47 -54q44 0 44 -49q0 -33 -23.5 -56.5t-63.5 -31.5l-3 7q29 6 46.5 20t17.5 31q0 5 -1 7q-7 -7 -23 -7t-27 10.5t-11 27.5q0 19 12.5 30t31.5 11z" />
    <glyph glyph-name="Rcaron" unicode="&#x158;" horiz-adv-x="609" 
d="M270 885l5 5l109 -50l129 50l5 -5l-146 -106zM-26 7q37 10 51 45.5t46 199.5l48 246q32 163 31.5 199t-34.5 46l2 7h253q255 0 255 -166q0 -70 -42.5 -118t-106 -69t-142.5 -21h-35q64 -12 90 -56.5t29 -133.5q9 -171 96 -171q35 0 61 26l4 -5q-35 -44 -99 -44
q-29 0 -52 7.5t-44 26.5t-33.5 57.5t-14.5 94.5q-2 51 -3.5 81t-7.5 54t-12.5 35t-21.5 18.5t-29.5 8.5t-43.5 1h-44l-24 -124q-32 -163 -31.5 -199t35.5 -46l-2 -7h-181zM366 741h-120l-69 -357h155q38 0 72.5 10t67 32t52 65t19.5 101q0 84 -42.5 116.5t-134.5 32.5z" />
    <glyph glyph-name="rcaron" unicode="&#x159;" horiz-adv-x="322" 
d="M160 714l7 4l83 -100l123 100l5 -4l-143 -175zM-20 0l1 7q29 6 38.5 28t28.5 118l24 117q20 104 16 119q-5 13 -30 17l2 8l125 62l-24 -121l61 54q42 38 60.5 50.5t36.5 12.5q19 0 29 -9.5t10 -24.5t-10 -25t-29 -10q-12 0 -28.5 8.5t-26.5 8.5q-17 0 -44 -23l-61 -56
l-37 -188q-19 -91 -16.5 -114.5t33.5 -31.5l-1 -7h-158z" />
    <glyph glyph-name="Sacute" unicode="&#x15a;" horiz-adv-x="551" 
d="M265 778l-3 6l148 91q20 12 38 12q11 0 18 -8.5t7 -19.5q0 -24 -45 -37zM320 453q5 -3 31 -20t32.5 -21.5t28.5 -20.5t29.5 -24t23.5 -24.5t22.5 -29.5t15 -30.5t11.5 -37t3 -40.5q0 -69 -39.5 -119t-95 -71.5t-116.5 -21.5q-50 0 -95 16.5t-74.5 33.5t-43.5 17
q-19 0 -26 -21h-9l29 169h9q-5 -82 53.5 -144t156.5 -62q78 0 130 42t52 118q0 47 -25 87t-56.5 64.5t-86.5 58.5q-80 50 -118.5 96t-38.5 111q0 86 62.5 132t153.5 46q39 0 72 -8.5t50.5 -19t33 -19t23.5 -8.5q19 0 26 25h11l-23 -133h-10q-3 69 -53 111.5t-131 42.5
q-64 0 -110 -33t-46 -94q0 -50 32 -84.5t106 -83.5z" />
    <glyph glyph-name="sacute" unicode="&#x15b;" horiz-adv-x="357" 
d="M175 534l-5 5l103 143q20 27 41 27q11 0 18.5 -7t7.5 -18q0 -21 -26 -41zM315 132q0 -64 -48.5 -101.5t-115.5 -37.5q-44 0 -85.5 20t-51.5 20q-14 0 -21 -20h-9l27 134h8q-1 -69 36 -107.5t96 -38.5q51 0 78 28t27 69q0 38 -22 63t-73 58q-100 63 -100 135q0 54 38 88
t100 34q30 0 52.5 -9t36 -18.5t23.5 -9.5q15 0 23 22h9l-19 -105h-9q-6 57 -39 84t-77 27q-38 0 -64.5 -21t-26.5 -53q0 -17 5 -30t22 -28t26.5 -21.5t41.5 -27.5q57 -38 84.5 -73t27.5 -81z" />
    <glyph glyph-name="Scircumflex" unicode="&#x15c;" horiz-adv-x="551" 
d="M230 782l144 106l103 -106l-4 -5l-111 50l-127 -50zM320 453q5 -3 31 -20t32.5 -21.5t28.5 -20.5t29.5 -24t23.5 -24.5t22.5 -29.5t15 -30.5t11.5 -37t3 -40.5q0 -69 -39.5 -119t-95 -71.5t-116.5 -21.5q-50 0 -95 16.5t-74.5 33.5t-43.5 17q-19 0 -26 -21h-9l29 169h9
q-5 -82 53.5 -144t156.5 -62q78 0 130 42t52 118q0 47 -25 87t-56.5 64.5t-86.5 58.5q-80 50 -118.5 96t-38.5 111q0 86 62.5 132t153.5 46q39 0 72 -8.5t50.5 -19t33 -19t23.5 -8.5q19 0 26 25h11l-23 -133h-10q-3 69 -53 111.5t-131 42.5q-64 0 -110 -33t-46 -94
q0 -50 32 -84.5t106 -83.5z" />
    <glyph glyph-name="scircumflex" unicode="&#x15d;" horiz-adv-x="357" 
d="M110 537l142 175l76 -175l-7 -4l-84 100l-122 -100zM315 132q0 -64 -48.5 -101.5t-115.5 -37.5q-44 0 -85.5 20t-51.5 20q-14 0 -21 -20h-9l27 134h8q-1 -69 36 -107.5t96 -38.5q51 0 78 28t27 69q0 38 -22 63t-73 58q-100 63 -100 135q0 54 38 88t100 34q30 0 52.5 -9
t36 -18.5t23.5 -9.5q15 0 23 22h9l-19 -105h-9q-6 57 -39 84t-77 27q-38 0 -64.5 -21t-26.5 -53q0 -17 5 -30t22 -28t26.5 -21.5t41.5 -27.5q57 -38 84.5 -73t27.5 -81z" />
    <glyph glyph-name="Scedilla" unicode="&#x15e;" horiz-adv-x="580" 
d="M164 -200l1 8q110 8 110 57q0 36 -69 40l-1 5q51 64 66 84q-44 3 -84.5 19.5t-67 31.5t-40.5 15q-19 0 -26 -21h-9l29 169h9q-5 -82 53.5 -144t156.5 -62q78 0 130 42t52 118q0 47 -25 87t-56.5 64.5t-86.5 58.5q-80 50 -118.5 96t-38.5 111q0 86 62.5 132t153.5 46
q39 0 72 -8.5t50.5 -19t33 -19t23.5 -8.5q19 0 26 25h11l-23 -133h-10q-3 69 -53 111.5t-131 42.5q-64 0 -110 -33t-46 -94q0 -50 32 -84.5t106 -83.5q5 -3 31 -20t32.5 -21.5t28.5 -20.5t29.5 -24t23.5 -24.5t22.5 -29.5t15 -30.5t11.5 -37t3 -40.5q0 -69 -39.5 -119
t-95 -71.5t-116.5 -21.5h-11l-35 -46q35 -4 57 -20t22 -44q0 -36 -39 -59t-122 -24z" />
    <glyph glyph-name="scedilla" unicode="&#x15f;" horiz-adv-x="357" 
d="M17 -201l1 8q110 8 110 57q0 36 -69 40l-1 5q55 68 67 86q-31 4 -65 21t-46 17q-14 0 -21 -20h-9l27 134h8q-1 -69 36 -107.5t96 -38.5q51 0 78 28t27 69q0 38 -22 63t-73 58q-100 63 -100 135q0 54 38 88t100 34q30 0 52.5 -9t36 -18.5t23.5 -9.5q15 0 23 22h9l-19 -105
h-9q-6 57 -39 84t-77 27q-38 0 -64.5 -21t-26.5 -53q0 -17 5 -30t22 -28t26.5 -21.5t41.5 -27.5q57 -38 84.5 -73t27.5 -81q0 -64 -48.5 -101.5t-115.5 -37.5q-11 0 -16 1l-36 -48q35 -4 57 -20t22 -44q0 -36 -39 -59t-122 -24z" />
    <glyph glyph-name="Scaron" unicode="&#x160;" horiz-adv-x="551" 
d="M255 885l5 5l109 -50l129 50l5 -5l-146 -106zM320 453q5 -3 31 -20t32.5 -21.5t28.5 -20.5t29.5 -24t23.5 -24.5t22.5 -29.5t15 -30.5t11.5 -37t3 -40.5q0 -69 -39.5 -119t-95 -71.5t-116.5 -21.5q-50 0 -95 16.5t-74.5 33.5t-43.5 17q-19 0 -26 -21h-9l29 169h9
q-5 -82 53.5 -144t156.5 -62q78 0 130 42t52 118q0 47 -25 87t-56.5 64.5t-86.5 58.5q-80 50 -118.5 96t-38.5 111q0 86 62.5 132t153.5 46q39 0 72 -8.5t50.5 -19t33 -19t23.5 -8.5q19 0 26 25h11l-23 -133h-10q-3 69 -53 111.5t-131 42.5q-64 0 -110 -33t-46 -94
q0 -50 32 -84.5t106 -83.5z" />
    <glyph glyph-name="scaron" unicode="&#x161;" horiz-adv-x="357" 
d="M147 714l7 4l83 -100l123 100l5 -4l-143 -175zM315 132q0 -64 -48.5 -101.5t-115.5 -37.5q-44 0 -85.5 20t-51.5 20q-14 0 -21 -20h-9l27 134h8q-1 -69 36 -107.5t96 -38.5q51 0 78 28t27 69q0 38 -22 63t-73 58q-100 63 -100 135q0 54 38 88t100 34q30 0 52.5 -9
t36 -18.5t23.5 -9.5q15 0 23 22h9l-19 -105h-9q-6 57 -39 84t-77 27q-38 0 -64.5 -21t-26.5 -53q0 -17 5 -30t22 -28t26.5 -21.5t41.5 -27.5q57 -38 84.5 -73t27.5 -81z" />
    <glyph glyph-name="Tcommaaccent" unicode="&#x162;" horiz-adv-x="592" 
d="M162 0l2 7q14 4 21.5 7.5t16.5 15t13.5 23t12.5 43t14.5 63t18.5 93.5l96 489h-80q-66 0 -107 -26.5t-75 -101.5h-9l39 116q4 15 7.5 18t12.5 3h505q8 0 10.5 -3t2.5 -18l-2 -116h-10q-6 74 -39 101t-101 27h-75l-95 -489q-32 -163 -31.5 -198.5t35.5 -46.5l-2 -7h-181z
M241 -54q44 0 44 -49q0 -33 -23.5 -56.5t-63.5 -31.5l-3 7q29 6 46.5 20t17.5 31q0 5 -1 7q-7 -7 -23 -7t-27 10.5t-11 27.5q0 19 12.5 30t31.5 11z" />
    <glyph glyph-name="tcommaaccent" unicode="&#x163;" horiz-adv-x="247" 
d="M197 30q-33 -36 -88 -36q-46 0 -66.5 26t-11.5 74l71 362h-41l2 9q96 12 133 143h9l-28 -142h97l-2 -10h-97l-68 -347q-20 -100 32 -100q27 0 55 26zM83 -54q44 0 44 -49q0 -33 -23.5 -56.5t-63.5 -31.5l-3 7q29 6 46.5 20t17.5 31q0 5 -1 7q-7 -7 -23 -7t-27 10.5
t-11 27.5q0 19 12.5 30t31.5 11z" />
    <glyph glyph-name="Tcaron" unicode="&#x164;" horiz-adv-x="592" 
d="M299 885l5 5l109 -50l129 50l5 -5l-146 -106zM162 0l2 7q14 4 21.5 7.5t16.5 15t13.5 23t12.5 43t14.5 63t18.5 93.5l96 489h-80q-66 0 -107 -26.5t-75 -101.5h-9l39 116q4 15 7.5 18t12.5 3h505q8 0 10.5 -3t2.5 -18l-2 -116h-10q-6 74 -39 101t-101 27h-75l-95 -489
q-32 -163 -31.5 -198.5t35.5 -46.5l-2 -7h-181z" />
    <glyph glyph-name="tcaron" unicode="&#x165;" horiz-adv-x="247" 
d="M240 529l-6 2l36 130q14 48 39 48q20 0 20 -22q0 -17 -16 -43zM197 30q-33 -36 -88 -36q-46 0 -66.5 26t-11.5 74l71 362h-41l2 9q96 12 133 143h9l-28 -142h97l-2 -10h-97l-68 -347q-20 -100 32 -100q27 0 55 26z" />
    <glyph glyph-name="Tbar" unicode="&#x166;" horiz-adv-x="581" 
d="M162 0l2 7q14 4 21.5 7.5t16.5 15t13.5 23t12.5 43t14.5 63t18.5 93.5l33 170h-139l1 8h140l61 311h-80q-66 0 -107 -26.5t-75 -101.5h-9l39 116q4 15 7.5 18t12.5 3h505q8 0 10.5 -3t2.5 -18l-2 -116h-10q-6 74 -39 101t-101 27h-75l-60 -311h141l-1 -8h-142l-33 -170
q-32 -163 -31.5 -198.5t35.5 -46.5l-2 -7h-181z" />
    <glyph glyph-name="tbar" unicode="&#x167;" horiz-adv-x="247" 
d="M197 30q-33 -36 -88 -36q-46 0 -66.5 26t-11.5 74l40 205h-38l1 9h39l29 148h-41l2 9q96 12 133 143h9l-28 -142h97l-2 -10h-97l-29 -148h96l-2 -9h-96l-37 -190q-20 -100 32 -100q27 0 55 26z" />
    <glyph glyph-name="Utilde" unicode="&#x168;" horiz-adv-x="639" 
d="M432 864q12 0 52 -6.5t51 -6.5q24 0 59 46l7 -2q-21 -44 -43 -65.5t-40 -21.5q-13 0 -54 6t-52 6q-25 0 -65 -47l-6 2q23 44 47.5 66.5t43.5 22.5zM317 -8q-142 0 -204.5 82t-31.5 243l32 169q32 175 32.5 211t-32.5 46l1 7h183l-2 -7q-28 -7 -40.5 -22.5t-26 -64
t-35.5 -170.5l-32 -177q-27 -149 11.5 -227.5t155.5 -78.5q84 0 145.5 54t84.5 166l54 263q19 95 27 139.5t7 72.5t-8 33.5t-26 11.5l1 7h113l-2 -7q-37 -10 -51 -45.5t-50 -211.5l-54 -264q-51 -230 -252 -230z" />
    <glyph glyph-name="utilde" unicode="&#x169;" horiz-adv-x="487" 
d="M279 635q13 0 50 -6t48 -6q24 0 57 47l6 -3q-18 -43 -39.5 -65t-39.5 -22q-14 0 -52 5.5t-48 5.5q-26 0 -63 -49l-6 3q21 43 45 66.5t42 23.5zM124 -8q-51 0 -74.5 34t-12.5 92l30 152q21 104 16 120q-3 12 -27 15q-1 1 -3 1l2 8l126 62l-72 -368q-21 -99 42 -99
q56 0 141 67l33 26l33 168q20 105 15 120q-5 12 -29 16l2 8l126 62l-64 -323q-18 -91 -15.5 -114.5t36.5 -31.5l-2 -7h-122l18 89l-33 -25q-93 -72 -166 -72z" />
    <glyph glyph-name="Umacron" unicode="&#x16a;" horiz-adv-x="639" 
d="M556 831l-7 -35h-202l7 35h202zM317 -8q-142 0 -204.5 82t-31.5 243l32 169q32 175 32.5 211t-32.5 46l1 7h183l-2 -7q-28 -7 -40.5 -22.5t-26 -64t-35.5 -170.5l-32 -177q-27 -149 11.5 -227.5t155.5 -78.5q84 0 145.5 54t84.5 166l54 263q19 95 27 139.5t7 72.5
t-8 33.5t-26 11.5l1 7h113l-2 -7q-37 -10 -51 -45.5t-50 -211.5l-54 -264q-51 -230 -252 -230z" />
    <glyph glyph-name="umacron" unicode="&#x16b;" horiz-adv-x="487" 
d="M214 610h192l-7 -34h-192zM124 -8q-51 0 -74.5 34t-12.5 92l30 152q21 104 16 120q-3 12 -27 15q-1 1 -3 1l2 8l126 62l-72 -368q-21 -99 42 -99q56 0 141 67l33 26l33 168q20 105 15 120q-5 12 -29 16l2 8l126 62l-64 -323q-18 -91 -15.5 -114.5t36.5 -31.5l-2 -7h-122
l18 89l-33 -25q-93 -72 -166 -72z" />
    <glyph glyph-name="Ubreve" unicode="&#x16c;" horiz-adv-x="639" 
d="M458 827q75 0 99 54h8q-6 -36 -36.5 -67t-80.5 -31q-47 0 -66 30.5t-14 68.5h9q0 -23 20.5 -39t60.5 -16zM317 -8q-142 0 -204.5 82t-31.5 243l32 169q32 175 32.5 211t-32.5 46l1 7h183l-2 -7q-28 -7 -40.5 -22.5t-26 -64t-35.5 -170.5l-32 -177q-27 -149 11.5 -227.5
t155.5 -78.5q84 0 145.5 54t84.5 166l54 263q19 95 27 139.5t7 72.5t-8 33.5t-26 11.5l1 7h113l-2 -7q-37 -10 -51 -45.5t-50 -211.5l-54 -264q-51 -230 -252 -230z" />
    <glyph glyph-name="ubreve" unicode="&#x16d;" horiz-adv-x="487" 
d="M304 585q70 0 99 74h8q-8 -50 -37.5 -84t-76.5 -34q-48 0 -66 34t-8 85h9q-3 -75 72 -75zM124 -8q-51 0 -74.5 34t-12.5 92l30 152q21 104 16 120q-3 12 -27 15q-1 1 -3 1l2 8l126 62l-72 -368q-21 -99 42 -99q56 0 141 67l33 26l33 168q20 105 15 120q-5 12 -29 16l2 8
l126 62l-64 -323q-18 -91 -15.5 -114.5t36.5 -31.5l-2 -7h-122l18 89l-33 -25q-93 -72 -166 -72z" />
    <glyph glyph-name="Uring" unicode="&#x16e;" horiz-adv-x="639" 
d="M468 905q35 0 53.5 -20t18.5 -49q0 -35 -23.5 -60t-61.5 -25q-35 0 -54 20.5t-19 49.5q0 34 24 59t62 25zM455 760q25 0 38.5 22.5t13.5 56.5q0 58 -40 58q-25 0 -38.5 -22.5t-13.5 -56.5q0 -58 40 -58zM317 -8q-142 0 -204.5 82t-31.5 243l32 169q32 175 32.5 211
t-32.5 46l1 7h183l-2 -7q-28 -7 -40.5 -22.5t-26 -64t-35.5 -170.5l-32 -177q-27 -149 11.5 -227.5t155.5 -78.5q84 0 145.5 54t84.5 166l54 263q19 95 27 139.5t7 72.5t-8 33.5t-26 11.5l1 7h113l-2 -7q-37 -10 -51 -45.5t-50 -211.5l-54 -264q-51 -230 -252 -230z" />
    <glyph glyph-name="uring" unicode="&#x16f;" horiz-adv-x="487" 
d="M317 685q36 0 54.5 -20t18.5 -49q0 -35 -24.5 -60t-65.5 -25q-37 0 -56 20t-19 49q0 35 25.5 60t66.5 25zM300 540q26 0 41.5 23t15.5 57q0 56 -41 56q-26 0 -42 -23t-16 -57q0 -56 42 -56zM124 -8q-51 0 -74.5 34t-12.5 92l30 152q21 104 16 120q-3 12 -27 15q-1 1 -3 1
l2 8l126 62l-72 -368q-21 -99 42 -99q56 0 141 67l33 26l33 168q20 105 15 120q-5 12 -29 16l2 8l126 62l-64 -323q-18 -91 -15.5 -114.5t36.5 -31.5l-2 -7h-122l18 89l-33 -25q-93 -72 -166 -72z" />
    <glyph glyph-name="Uhungarumlaut" unicode="&#x170;" horiz-adv-x="639" 
d="M492 772l-5 5l82 91q22 26 41 26q10 0 16 -6t6 -15q0 -18 -32 -38zM356 772l-5 5l82 91q22 26 41 26q9 0 15 -6t6 -15q0 -19 -32 -38zM317 -8q-142 0 -204.5 82t-31.5 243l32 169q32 175 32.5 211t-32.5 46l1 7h183l-2 -7q-28 -7 -40.5 -22.5t-26 -64t-35.5 -170.5
l-32 -177q-27 -149 11.5 -227.5t155.5 -78.5q84 0 145.5 54t84.5 166l54 263q19 95 27 139.5t7 72.5t-8 33.5t-26 11.5l1 7h113l-2 -7q-37 -10 -51 -45.5t-50 -211.5l-54 -264q-51 -230 -252 -230z" />
    <glyph glyph-name="uhungarumlaut" unicode="&#x171;" horiz-adv-x="487" 
d="M350 540l-5 2l63 137q18 39 40 39q10 0 16 -6t6 -15q0 -14 -17 -34zM236 540l-5 2l63 137q11 21 19 30t21 9q10 0 16 -6t6 -15q0 -14 -17 -34zM124 -8q-51 0 -74.5 34t-12.5 92l30 152q21 104 16 120q-3 12 -27 15q-1 1 -3 1l2 8l126 62l-72 -368q-21 -99 42 -99
q56 0 141 67l33 26l33 168q20 105 15 120q-5 12 -29 16l2 8l126 62l-64 -323q-18 -91 -15.5 -114.5t36.5 -31.5l-2 -7h-122l18 89l-33 -25q-93 -72 -166 -72z" />
    <glyph glyph-name="Uogonek" unicode="&#x172;" horiz-adv-x="638" 
d="M301 -170q-28 0 -44.5 14t-16.5 39q0 68 128 113q-23 -4 -51 -4q-142 0 -204.5 82t-31.5 243l32 169q33 175 33 212t-34 45l2 7h182l-1 -7q-28 -7 -40.5 -22.5t-26 -64t-35.5 -170.5l-32 -177q-27 -149 11.5 -227.5t155.5 -78.5q84 0 145.5 54t84.5 166l54 263
q19 95 27 139.5t7 72.5t-8 33.5t-26 11.5l1 7h113l-2 -7q-37 -10 -51 -45.5t-50 -211.5l-54 -260q-19 -95 -61.5 -147.5t-108.5 -75.5q-41 -14 -69.5 -42t-28.5 -63q0 -16 9.5 -26t27.5 -10q23 0 43 16l5 -5q-36 -43 -85 -43z" />
    <glyph glyph-name="uogonek" unicode="&#x173;" horiz-adv-x="487" 
d="M124 -8q-51 0 -74.5 34t-12.5 92l30 152q21 104 16 120q-3 12 -27 15q-1 1 -3 1l2 8l126 62l-72 -368q-21 -99 42 -99q56 0 141 67l33 26l33 168q20 105 15 120q-5 12 -29 16l2 8l126 62l-64 -323q-18 -91 -15.5 -114.5t36.5 -31.5l-2 -7h-107q-35 -14 -60.5 -42
t-25.5 -60q0 -16 9.5 -26t27.5 -10q23 0 43 16l5 -5q-36 -43 -85 -43q-28 0 -44.5 14t-16.5 39q0 24 15.5 45.5t39.5 35.5t43.5 22.5t36.5 13.5h-3l18 89l-33 -25q-93 -72 -166 -72z" />
    <glyph glyph-name="Wcircumflex" unicode="&#x174;" horiz-adv-x="882" 
d="M432 782l144 106l103 -106l-4 -5l-111 50l-127 -50zM229 -5l-77 628q-10 78 -18 95q-8 16 -26 25l2 7h146l-2 -7q-21 -6 -26.5 -22.5t-0.5 -58.5l66 -556l164 281l-27 236q-7 63 -14 85.5t-30 34.5l2 7h144l-1 -7q-21 -6 -26.5 -22t-0.5 -60l21 -185l85 148
q19 33 27 52.5t6 38.5t-21 28l2 7h97l-2 -7q-24 -10 -41.5 -30t-56.5 -89l-94 -164l40 -349l286 512q18 33 26 53.5t4.5 39t-24.5 27.5l2 7h104l-2 -7q-25 -10 -43 -31t-56 -89l-351 -628h-10l-44 376l-220 -376h-10z" />
    <glyph glyph-name="wcircumflex" unicode="&#x175;" horiz-adv-x="595" 
d="M234 537l142 175l76 -175l-7 -4l-84 100l-122 -100zM120 -5l-36 360q-6 61 -15.5 80t-28.5 25l1 6h139v-6q-22 -4 -27 -21.5t1 -80.5l26 -263l125 206l-6 55q-6 62 -14.5 80t-27.5 24l1 6h139l-1 -6q-23 -4 -28.5 -21.5t0.5 -79.5l28 -261l132 239q23 43 34 66t9.5 35.5
t-8 15.5t-24.5 6l1 6h105l-1 -6q-18 -4 -28 -10.5t-28.5 -32.5t-48.5 -80l-189 -342h-11l-32 291l-175 -291h-12z" />
    <glyph glyph-name="Ycircumflex" unicode="&#x176;" horiz-adv-x="596" 
d="M310 782l144 106l103 -106l-4 -5l-111 50l-127 -50zM347 0h-181l1 7q38 10 51.5 45t46.5 200l23 117l-88 255q-24 64 -37.5 87t-38.5 33l2 6h162l-2 -6q-23 -5 -28 -21t8 -54l97 -281l186 236q15 19 24.5 31.5t18 26t11 22t2 17t-6.5 14t-17 9.5l2 6h105l-2 -6
q-25 -10 -50 -33t-75 -87l-191 -242l-25 -130q-32 -163 -31.5 -198.5t35.5 -46.5z" />
    <glyph glyph-name="ycircumflex" unicode="&#x177;" horiz-adv-x="402" 
d="M160 537l142 175l76 -175l-7 -4l-84 100l-122 -100zM0 -171q-21 0 -31 8.5t-8 21.5q2 30 35 30q13 0 29 -8t28 -8q32 0 83 90l20 37l-69 357q-12 61 -21 79t-27 24l1 6h142l-1 -6q-23 -4 -28.5 -21t4.5 -79l49 -266l127 241q30 53 37.5 79.5t0.5 34.5t-29 11l1 6h106
l-1 -6q-24 -6 -42.5 -27t-61.5 -98l-197 -372q-75 -134 -147 -134z" />
    <glyph glyph-name="Ydieresis" unicode="&#x178;" horiz-adv-x="596" 
d="M533 783q-18 0 -30 12.5t-12 31.5q0 18 12 30.5t30 12.5t30.5 -12.5t12.5 -30.5q0 -19 -12.5 -31.5t-30.5 -12.5zM342 783q-18 0 -30 12.5t-12 31.5q0 18 12 30.5t30 12.5t30.5 -12.5t12.5 -30.5q0 -19 -12.5 -31.5t-30.5 -12.5zM347 0h-181l1 7q38 10 51.5 45t46.5 200
l23 117l-88 255q-24 64 -37.5 87t-38.5 33l2 6h162l-2 -6q-23 -5 -28 -21t8 -54l97 -281l186 236q15 19 24.5 31.5t18 26t11 22t2 17t-6.5 14t-17 9.5l2 6h105l-2 -6q-25 -10 -50 -33t-75 -87l-191 -242l-25 -130q-32 -163 -31.5 -198.5t35.5 -46.5z" />
    <glyph glyph-name="Zacute" unicode="&#x179;" horiz-adv-x="576" 
d="M278 778l-3 6l148 91q20 12 38 12q11 0 18 -8.5t7 -19.5q0 -24 -45 -37zM-28 0l566 741h-219q-79 0 -119.5 -29.5t-76.5 -101.5h-9l51 140h473l-571 -741h251q95 0 138 33t81 124h9l-50 -166h-524z" />
    <glyph glyph-name="zacute" unicode="&#x17a;" horiz-adv-x="410" 
d="M210 534l-5 5l103 143q20 27 41 27q11 0 18.5 -7t7.5 -18q0 -21 -26 -41zM324 -10q-19 10 -124 10h-226l358 458h-131q-37 0 -63.5 -14t-39 -29.5t-33.5 -49.5h-8l42 111q21 -10 125 -10h200l-361 -458h141q64 0 92.5 24.5t63.5 89.5h7z" />
    <glyph glyph-name="Zdotaccent" unicode="&#x17b;" horiz-adv-x="576" 
d="M380 783q-19 0 -32 13.5t-13 32.5t13 31.5t32 12.5t32 -12.5t13 -31.5t-13 -32.5t-32 -13.5zM-28 0l566 741h-219q-79 0 -119.5 -29.5t-76.5 -101.5h-9l51 140h473l-571 -741h251q95 0 138 33t81 124h9l-50 -166h-524z" />
    <glyph glyph-name="zdotaccent" unicode="&#x17c;" horiz-adv-x="410" 
d="M256 559q-19 0 -32 13t-13 32t13 32t32 13t32 -13t13 -32t-13 -32t-32 -13zM324 -10q-19 10 -124 10h-226l358 458h-131q-37 0 -63.5 -14t-39 -29.5t-33.5 -49.5h-8l42 111q21 -10 125 -10h200l-361 -458h141q64 0 92.5 24.5t63.5 89.5h7z" />
    <glyph glyph-name="Zcaron" unicode="&#x17d;" horiz-adv-x="576" 
d="M273 885l5 5l109 -50l129 50l5 -5l-146 -106zM-28 0l566 741h-219q-79 0 -119.5 -29.5t-76.5 -101.5h-9l51 140h473l-571 -741h251q95 0 138 33t81 124h9l-50 -166h-524z" />
    <glyph glyph-name="zcaron" unicode="&#x17e;" horiz-adv-x="410" 
d="M177 714l7 4l83 -100l123 100l5 -4l-143 -175zM324 -10q-19 10 -124 10h-226l358 458h-131q-37 0 -63.5 -14t-39 -29.5t-33.5 -49.5h-8l42 111q21 -10 125 -10h200l-361 -458h141q64 0 92.5 24.5t63.5 89.5h7z" />
    <glyph glyph-name="florin" unicode="&#x192;" horiz-adv-x="345" 
d="M99 456l1 10h66l20 106q19 100 64.5 145t100.5 45q38 0 58 -13.5t20 -32.5q0 -29 -29 -29t-32 32q-2 21 -6.5 27.5t-17.5 6.5q-29 0 -45 -27t-31 -104l-29 -156h89l-1 -10h-90l-60 -317q-28 -149 -72.5 -202.5t-102.5 -53.5q-32 0 -54 13.5t-22 35.5q0 29 29 29t32 -33
q2 -22 7 -28.5t18 -6.5q16 0 25.5 8t21.5 43t25 95t35 176l45 241h-65z" />
    <glyph glyph-name="Aringacute" unicode="&#x1fa;" horiz-adv-x="643" 
d="M350 928l-3 6l148 91q19 12 38 12q11 0 18 -8.5t7 -19.5q0 -24 -45 -37zM445 929q35 0 53.5 -20t18.5 -49q0 -35 -23.5 -60t-61.5 -25q-35 0 -54 20.5t-19 49.5q0 34 24 59t62 25zM432 784q25 0 38.5 22.5t13.5 56.5q0 58 -40 58q-25 0 -38.5 -22.5t-13.5 -56.5
q0 -58 40 -58zM-43 0v6q24 9 44 32t60 90l341 554q-4 33 -13.5 45t-27.5 17l2 6h100q8 0 10 -2.5t3 -11.5l69 -609q7 -58 15.5 -82.5t31.5 -37.5v-7h-148v7q24 5 29.5 23t-0.5 51l-18 151h-319l-64 -104q-19 -31 -27.5 -51t-6.5 -41t24 -30v-6h-105zM141 240h313l-50 427z
" />
    <glyph glyph-name="aringacute" unicode="&#x1fb;" horiz-adv-x="416" 
d="M183 710l-3 6l148 91q19 12 38 12q11 0 18 -8.5t7 -19.5q0 -24 -45 -37zM258 685q36 0 54.5 -20t18.5 -49q0 -35 -24.5 -60t-65.5 -25q-37 0 -56 20t-19 49q0 35 25.5 60t66.5 25zM241 540q26 0 41.5 23t15.5 57q0 56 -41 56q-26 0 -42 -23t-16 -57q0 -56 42 -56zM103 -4
q-45 0 -73 23.5t-28 65.5q0 44 32 70q28 24 143 68l28 12q68 27 85 76l13 69q17 85 -72 85q-48 0 -71 -40q-13 -21 -24.5 -31t-27.5 -10q-28 0 -28 24q0 30 42.5 47.5t108.5 17.5q71 0 111.5 -25.5t30.5 -85.5l-41 -218q-15 -76 -15 -102q0 -33 24 -33q17 0 35 11l3 -6
q-29 -19 -65 -19q-45 0 -62.5 22t-9.5 52l-19 -16q-34 -30 -60 -43.5t-60 -13.5zM74 102q0 -39 18.5 -60t48.5 -21q32 0 75 35l28 23l41 207q-17 -33 -77 -59l-24 -10q-64 -28 -87 -52.5t-23 -62.5z" />
    <glyph glyph-name="AEacute" unicode="&#x1fc;" horiz-adv-x="900" 
d="M631 778l-3 6l148 91q20 12 38 12q11 0 18 -8.5t7 -19.5q0 -24 -45 -37zM339 0l2 7q38 10 51.5 43t43.5 187h-267l-84 -111q-24 -31 -35 -53t-9.5 -40t21.5 -27l-1 -6h-106l1 6q23 10 46 33.5t72 86.5l418 555q23 33 18 44.5t-36 17.5l2 7h431q8 0 10.5 -3.5t2.5 -17.5
l10 -91h-10q-13 60 -45 81.5t-93 21.5h-168l-62 -322h82q28 0 47 5.5t30.5 20t15 21.5t11.5 27h9l-30 -157h-9q0 40 -10 53q-16 21 -66 21h-82l-78 -401h211q69 0 105.5 21.5t67.5 93.5h10l-32 -106q-3 -12 -7.5 -15t-13.5 -3h-474zM439 252l90 464l-354 -471h263z" />
    <glyph glyph-name="aeacute" unicode="&#x1fd;" horiz-adv-x="679" 
d="M363 534l-5 5l103 143q20 27 41 27q11 0 18.5 -7t7.5 -18q0 -21 -26 -41zM103 -4q-45 0 -73 23.5t-28 65.5q0 44 32 70q28 24 143 68l28 12q73 29 85 79l13 66q17 85 -72 85q-48 0 -71 -40q-13 -21 -24.5 -31t-27.5 -10q-28 0 -28 24q0 30 42.5 47.5t108.5 17.5
q114 0 138 -58q69 61 160 61q62 0 101.5 -38.5t32.5 -113.5h-287q-27 -75 -27 -156q0 -162 121 -162q83 0 145 71l4 -5q-66 -80 -163 -80q-58 0 -104 28.5t-67 85.5l-53 -51q-64 -59 -129 -59zM529 467q-47 0 -86 -36.5t-63 -96.5h215q11 76 -6 104.5t-60 28.5zM74 102
q0 -39 18.5 -60t48.5 -21q41 0 84 37l58 54q-11 36 -11 80q0 42 10 78l3 17q-16 -34 -77 -60l-24 -10q-64 -28 -87 -52.5t-23 -62.5z" />
    <glyph glyph-name="Oslashacute" unicode="&#x1fe;" horiz-adv-x="712" 
d="M361 778l-3 6l148 91q20 12 38 12q11 0 18 -8.5t7 -19.5q0 -24 -45 -37zM714 431q0 -62 -15.5 -123.5t-47.5 -118.5t-76.5 -101t-108.5 -70t-138 -26q-70 0 -125 29l-39 -74l-11 5l40 74q-69 40 -105.5 118.5t-36.5 173.5q0 78 26 154.5t74 141t125.5 104.5t172.5 40
q66 0 120 -30l39 74l11 -5l-40 -75q65 -41 100 -119t35 -172zM449 749q-76 0 -138 -41.5t-99 -110.5t-57 -152.5t-20 -172.5q0 -160 69 -226l355 665q-43 38 -110 38zM630 489q0 150 -62 213l-355 -664q44 -37 115 -37q73 0 132 44t95 116t55.5 156.5t19.5 171.5z" />
    <glyph glyph-name="oslashacute" unicode="&#x1ff;" horiz-adv-x="492" 
d="M255 534l-5 5l103 143q20 27 41 27q11 0 18.5 -7t7.5 -18q0 -21 -26 -41zM27 194q0 49 17.5 98t49 90.5t83 67.5t113.5 26q43 0 77 -17l-11 -21q1 -1 3.5 -4.5t4.5 -5.5l-215 -407q24 -22 61 -22q81 0 132.5 96t51.5 206q0 82 -30 127l14 26q-2 1 -5.5 2.5t-5.5 2.5
l31 59l11 -5l-31 -59q44 -26 68 -75t24 -105q0 -66 -30 -130t-91.5 -108.5t-138.5 -44.5q-37 0 -71 13l10 17l-9 9l216 408q-27 30 -66 30q-58 0 -102 -47.5t-64.5 -114t-20.5 -137.5q0 -96 37 -139l-11 -22q1 0 5 -1.5t5 -2.5l-35 -67l-10 5l35 66q-50 24 -76 74.5
t-26 111.5z" />
    <glyph glyph-name="Scommaaccent" unicode="&#x218;" horiz-adv-x="551" 
d="M320 453q5 -3 31 -20t32.5 -21.5t28.5 -20.5t29.5 -24t23.5 -24.5t22.5 -29.5t15 -30.5t11.5 -37t3 -40.5q0 -69 -39.5 -119t-95 -71.5t-116.5 -21.5q-50 0 -95 16.5t-74.5 33.5t-43.5 17q-19 0 -26 -21h-9l29 169h9q-5 -82 53.5 -144t156.5 -62q78 0 130 42t52 118
q0 47 -25 87t-56.5 64.5t-86.5 58.5q-80 50 -118.5 96t-38.5 111q0 86 62.5 132t153.5 46q39 0 72 -8.5t50.5 -19t33 -19t23.5 -8.5q19 0 26 25h11l-23 -133h-10q-3 69 -53 111.5t-131 42.5q-64 0 -110 -33t-46 -94q0 -50 32 -84.5t106 -83.5zM229 -54q44 0 44 -49
q0 -33 -23.5 -56.5t-63.5 -31.5l-3 7q29 6 46.5 20t17.5 31q0 5 -1 7q-7 -7 -23 -7t-27 10.5t-11 27.5q0 19 12.5 30t31.5 11z" />
    <glyph glyph-name="scommaaccent" unicode="&#x219;" horiz-adv-x="357" 
d="M315 132q0 -64 -48.5 -101.5t-115.5 -37.5q-44 0 -85.5 20t-51.5 20q-14 0 -21 -20h-9l27 134h8q-1 -69 36 -107.5t96 -38.5q51 0 78 28t27 69q0 38 -22 63t-73 58q-100 63 -100 135q0 54 38 88t100 34q30 0 52.5 -9t36 -18.5t23.5 -9.5q15 0 23 22h9l-19 -105h-9
q-6 57 -39 84t-77 27q-38 0 -64.5 -21t-26.5 -53q0 -17 5 -30t22 -28t26.5 -21.5t41.5 -27.5q57 -38 84.5 -73t27.5 -81zM122 -54q44 0 44 -49q0 -33 -23.5 -56.5t-63.5 -31.5l-3 7q29 6 46.5 20t17.5 31q0 5 -1 7q-7 -7 -23 -7t-27 10.5t-11 27.5q0 19 12.5 30t31.5 11z
" />
    <glyph glyph-name="uni021A" unicode="&#x21a;" horiz-adv-x="592" 
d="M162 0l2 7q14 4 21.5 7.5t16.5 15t13.5 23t12.5 43t14.5 63t18.5 93.5l96 489h-80q-66 0 -107 -26.5t-75 -101.5h-9l39 116q4 15 7.5 18t12.5 3h505q8 0 10.5 -3t2.5 -18l-2 -116h-10q-6 74 -39 101t-101 27h-75l-95 -489q-32 -163 -31.5 -198.5t35.5 -46.5l-2 -7h-181z
M241 -54q44 0 44 -49q0 -33 -23.5 -56.5t-63.5 -31.5l-3 7q29 6 46.5 20t17.5 31q0 5 -1 7q-7 -7 -23 -7t-27 10.5t-11 27.5q0 19 12.5 30t31.5 11z" />
    <glyph glyph-name="uni021B" unicode="&#x21b;" horiz-adv-x="247" 
d="M197 30q-33 -36 -88 -36q-46 0 -66.5 26t-11.5 74l71 362h-41l2 9q96 12 133 143h9l-28 -142h97l-2 -10h-97l-68 -347q-20 -100 32 -100q27 0 55 26zM83 -54q44 0 44 -49q0 -33 -23.5 -56.5t-63.5 -31.5l-3 7q29 6 46.5 20t17.5 31q0 5 -1 7q-7 -7 -23 -7t-27 10.5
t-11 27.5q0 19 12.5 30t31.5 11z" />
    <glyph glyph-name="dotlessj" unicode="&#x237;" horiz-adv-x="202" 
d="M107 74q-23 -118 -123 -184q-47 -29 -72 -29q-40 0 -40 31q0 12 9 20.5t24 8.5q17 0 32 -15.5t24 -15.5t16 5q24 15 47 131l49 255q19 97 14 111q-3 11 -29 14l2 8l125 62z" />
    <glyph glyph-name="circumflex" unicode="&#x2c6;" 
d="M174 537l142 175l76 -175l-7 -4l-84 100l-122 -100z" />
    <glyph glyph-name="caron" unicode="&#x2c7;" 
d="M208 714l7 4l83 -100l123 100l5 -4l-143 -175z" />
    <glyph glyph-name="breve" unicode="&#x2d8;" 
d="M288 585q70 0 99 74h8q-8 -50 -37.5 -84t-76.5 -34q-48 0 -66 34t-8 85h9q-3 -75 72 -75z" />
    <glyph glyph-name="dotaccent" unicode="&#x2d9;" 
d="M291 559q-19 0 -32 13t-13 32t13 32t32 13t32 -13t13 -32t-13 -32t-32 -13z" />
    <glyph glyph-name="ring" unicode="&#x2da;" 
d="M309 685q36 0 54.5 -20t18.5 -49q0 -35 -24.5 -60t-65.5 -25q-37 0 -56 20t-19 49q0 35 25.5 60t66.5 25zM292 540q26 0 41.5 23t15.5 57q0 56 -41 56q-26 0 -42 -23t-16 -57q0 -56 42 -56z" />
    <glyph glyph-name="ogonek" unicode="&#x2db;" 
d="M223 -127q-36 -43 -85 -43q-28 0 -44.5 14t-16.5 39q0 24 15.5 45.5t39.5 35.5t43.5 22.5t36.5 13.5h12q-35 -14 -60.5 -42t-25.5 -60q0 -16 9.5 -26t27.5 -10q23 0 43 16z" />
    <glyph glyph-name="tilde" unicode="&#x2dc;" 
d="M254 635q13 0 50 -6t48 -6q24 0 57 47l6 -3q-18 -43 -39.5 -65t-39.5 -22q-14 0 -52 5.5t-48 5.5q-26 0 -63 -49l-6 3q21 43 45 66.5t42 23.5z" />
    <glyph glyph-name="hungarumlaut" unicode="&#x2dd;" 
d="M305 540l-5 2l63 137q18 39 40 39q10 0 16 -6t6 -15q0 -14 -17 -34zM191 540l-5 2l63 137q19 39 40 39q10 0 16 -6t6 -15q0 -14 -17 -34z" />
    <glyph glyph-name="Wgrave" unicode="&#x1e80;" horiz-adv-x="882" 
d="M641 778l-159 45q-35 12 -35 34q0 11 8 20t21 9t33 -12l135 -90zM229 -5l-77 628q-10 78 -18 95q-8 16 -26 25l2 7h146l-2 -7q-21 -6 -26.5 -22.5t-0.5 -58.5l66 -556l164 281l-27 236q-7 63 -14 85.5t-30 34.5l2 7h144l-1 -7q-21 -6 -26.5 -22t-0.5 -60l21 -185l85 148
q19 33 27 52.5t6 38.5t-21 28l2 7h97l-2 -7q-24 -10 -41.5 -30t-56.5 -89l-94 -164l40 -349l286 512q18 33 26 53.5t4.5 39t-24.5 27.5l2 7h104l-2 -7q-25 -10 -43 -31t-56 -89l-351 -628h-10l-44 376l-220 -376h-10z" />
    <glyph glyph-name="wgrave" unicode="&#x1e81;" horiz-adv-x="595" 
d="M397 535l-122 109q-17 17 -17 34q0 30 30 30q21 0 35 -29l81 -140zM120 -5l-36 360q-6 61 -15.5 80t-28.5 25l1 6h139v-6q-22 -4 -27 -21.5t1 -80.5l26 -263l125 206l-6 55q-6 62 -14.5 80t-27.5 24l1 6h139l-1 -6q-23 -4 -28.5 -21.5t0.5 -79.5l28 -261l132 239
q23 43 34 66t9.5 35.5t-8 15.5t-24.5 6l1 6h105l-1 -6q-18 -4 -28 -10.5t-28.5 -32.5t-48.5 -80l-189 -342h-11l-32 291l-175 -291h-12z" />
    <glyph glyph-name="Wacute" unicode="&#x1e82;" horiz-adv-x="882" 
d="M458 778l-3 6l148 91q19 12 38 12q11 0 18 -8.5t7 -19.5q0 -24 -45 -37zM229 -5l-77 628q-10 78 -18 95q-8 16 -26 25l2 7h146l-2 -7q-21 -6 -26.5 -22.5t-0.5 -58.5l66 -556l164 281l-27 236q-7 63 -14 85.5t-30 34.5l2 7h144l-1 -7q-21 -6 -26.5 -22t-0.5 -60l21 -185
l85 148q19 33 27 52.5t6 38.5t-21 28l2 7h97l-2 -7q-24 -10 -41.5 -30t-56.5 -89l-94 -164l40 -349l286 512q18 33 26 53.5t4.5 39t-24.5 27.5l2 7h104l-2 -7q-25 -10 -43 -31t-56 -89l-351 -628h-10l-44 376l-220 -376h-10z" />
    <glyph glyph-name="wacute" unicode="&#x1e83;" horiz-adv-x="595" 
d="M299 534l-5 5l103 143q20 27 41 27q11 0 18.5 -7t7.5 -18q0 -21 -26 -41zM120 -5l-36 360q-6 61 -15.5 80t-28.5 25l1 6h139v-6q-22 -4 -27 -21.5t1 -80.5l26 -263l125 206l-6 55q-6 62 -14.5 80t-27.5 24l1 6h139l-1 -6q-23 -4 -28.5 -21.5t0.5 -79.5l28 -261l132 239
q23 43 34 66t9.5 35.5t-8 15.5t-24.5 6l1 6h105l-1 -6q-18 -4 -28 -10.5t-28.5 -32.5t-48.5 -80l-189 -342h-11l-32 291l-175 -291h-12z" />
    <glyph glyph-name="Wdieresis" unicode="&#x1e84;" horiz-adv-x="882" 
d="M654 783q-18 0 -30 12.5t-12 31.5q0 18 12 30.5t30 12.5t30.5 -12.5t12.5 -30.5q0 -19 -12.5 -31.5t-30.5 -12.5zM463 783q-18 0 -30 12.5t-12 31.5q0 18 12 30.5t30 12.5t30.5 -12.5t12.5 -30.5q0 -19 -12.5 -31.5t-30.5 -12.5zM229 -5l-77 628q-10 78 -18 95
q-8 16 -26 25l2 7h146l-2 -7q-21 -6 -26.5 -22.5t-0.5 -58.5l66 -556l164 281l-27 236q-7 63 -14 85.5t-30 34.5l2 7h144l-1 -7q-21 -6 -26.5 -22t-0.5 -60l21 -185l85 148q19 33 27 52.5t6 38.5t-21 28l2 7h97l-2 -7q-24 -10 -41.5 -30t-56.5 -89l-94 -164l40 -349l286 512
q18 33 26 53.5t4.5 39t-24.5 27.5l2 7h104l-2 -7q-25 -10 -43 -31t-56 -89l-351 -628h-10l-44 376l-220 -376h-10z" />
    <glyph glyph-name="wdieresis" unicode="&#x1e85;" horiz-adv-x="595" 
d="M428 560q-18 0 -30.5 12.5t-12.5 31.5q0 18 12.5 30t30.5 12t30.5 -12t12.5 -30q0 -19 -12.5 -31.5t-30.5 -12.5zM270 560q-18 0 -30.5 12.5t-12.5 31.5q0 18 12.5 30t30.5 12t30.5 -12t12.5 -30q0 -19 -12.5 -31.5t-30.5 -12.5zM120 -5l-36 360q-6 61 -15.5 80t-28.5 25
l1 6h139v-6q-22 -4 -27 -21.5t1 -80.5l26 -263l125 206l-6 55q-6 62 -14.5 80t-27.5 24l1 6h139l-1 -6q-23 -4 -28.5 -21.5t0.5 -79.5l28 -261l132 239q23 43 34 66t9.5 35.5t-8 15.5t-24.5 6l1 6h105l-1 -6q-18 -4 -28 -10.5t-28.5 -32.5t-48.5 -80l-189 -342h-11l-32 291
l-175 -291h-12z" />
    <glyph glyph-name="Ygrave" unicode="&#x1ef2;" horiz-adv-x="596" 
d="M520 778l-159 45q-35 12 -35 34q0 11 8 20t21 9t33 -12l135 -90zM347 0h-181l1 7q38 10 51.5 45t46.5 200l23 117l-88 255q-24 64 -37.5 87t-38.5 33l2 6h162l-2 -6q-23 -5 -28 -21t8 -54l97 -281l186 236q15 19 24.5 31.5t18 26t11 22t2 17t-6.5 14t-17 9.5l2 6h105
l-2 -6q-25 -10 -50 -33t-75 -87l-191 -242l-25 -130q-32 -163 -31.5 -198.5t35.5 -46.5z" />
    <glyph glyph-name="ygrave" unicode="&#x1ef3;" horiz-adv-x="402" 
d="M318 535l-122 109q-17 17 -17 34q0 30 30 30q21 0 35 -29l81 -140zM0 -171q-21 0 -31 8.5t-8 21.5q2 30 35 30q13 0 29 -8t28 -8q32 0 83 90l20 37l-69 357q-12 61 -21 79t-27 24l1 6h142l-1 -6q-23 -4 -28.5 -21t4.5 -79l49 -266l127 241q30 53 37.5 79.5t0.5 34.5
t-29 11l1 6h106l-1 -6q-24 -6 -42.5 -27t-61.5 -98l-197 -372q-75 -134 -147 -134z" />
    <glyph glyph-name="endash" unicode="&#x2013;" horiz-adv-x="494" 
d="M49 275v12h418v-12h-418z" />
    <glyph glyph-name="emdash" unicode="&#x2014;" horiz-adv-x="868" 
d="M49 275v12h792v-12h-792z" />
    <glyph glyph-name="quoteleft" unicode="&#x2018;" horiz-adv-x="176" 
d="M175 591q-22 0 -37 13.5t-15 42.5q0 38 27.5 73t70.5 59l3 -7q-31 -19 -52 -46t-21 -48q0 -4 2 -8q9 7 26 7t29 -11.5t12 -30.5q0 -20 -13 -32t-32 -12z" />
    <glyph glyph-name="quoteright" unicode="&#x2019;" horiz-adv-x="171" 
d="M178 764q21 0 36 -13.5t15 -42.5q0 -38 -27.5 -73.5t-70.5 -58.5l-3 6q31 20 52 47t21 47q0 3 -2 9q-10 -8 -25 -8q-17 0 -29.5 11.5t-12.5 30.5q0 20 13.5 32.5t32.5 12.5z" />
    <glyph glyph-name="quotesinglbase" unicode="&#x201a;" horiz-adv-x="177" 
d="M52 88q21 0 36 -13.5t15 -42.5q0 -38 -27.5 -73.5t-70.5 -58.5l-3 6q31 20 52 47t21 47q0 3 -2 9q-10 -8 -25 -8q-17 0 -29.5 11.5t-12.5 30.5q0 20 13.5 32.5t32.5 12.5z" />
    <glyph glyph-name="quotedblleft" unicode="&#x201c;" horiz-adv-x="297" 
d="M295 591q-21 0 -36 13.5t-15 42.5q0 38 27.5 73t70.5 59l3 -7q-31 -19 -52 -46t-21 -48q0 -4 2 -8q9 7 25 7q17 0 29.5 -11.5t12.5 -30.5q0 -20 -13.5 -32t-32.5 -12zM175 591q-22 0 -37 13.5t-15 42.5q0 38 27.5 73t70.5 59l3 -7q-31 -19 -52 -46t-21 -48q0 -4 2 -8
q9 7 26 7t29 -11.5t12 -30.5q0 -20 -13 -32t-32 -12z" />
    <glyph glyph-name="quotedblright" unicode="&#x201d;" horiz-adv-x="292" 
d="M298 764q22 0 37 -13.5t15 -42.5q0 -38 -27.5 -73.5t-70.5 -58.5l-3 6q31 20 52 47t21 47q0 3 -2 9q-10 -8 -26 -8q-17 0 -29 11.5t-12 30.5q0 20 13 32.5t32 12.5zM178 764q21 0 36 -13.5t15 -42.5q0 -38 -27.5 -73.5t-70.5 -58.5l-3 6q31 20 52 47t21 47q0 3 -2 9
q-10 -8 -25 -8q-17 0 -29.5 11.5t-12.5 30.5q0 20 13.5 32.5t32.5 12.5z" />
    <glyph glyph-name="quotedblbase" unicode="&#x201e;" horiz-adv-x="297" 
d="M172 88q22 0 37 -13.5t15 -42.5q0 -38 -27.5 -73.5t-70.5 -58.5l-3 6q31 20 52 47t21 47q0 3 -2 9q-10 -8 -26 -8q-17 0 -29 11.5t-12 30.5q0 20 13 32.5t32 12.5zM52 88q21 0 36 -13.5t15 -42.5q0 -38 -27.5 -73.5t-70.5 -58.5l-3 6q31 20 52 47t21 47q0 3 -2 9
q-10 -8 -25 -8q-17 0 -29.5 11.5t-12.5 30.5q0 20 13.5 32.5t32.5 12.5z" />
    <glyph glyph-name="dagger" unicode="&#x2020;" horiz-adv-x="331" 
d="M345 547q-17 0 -51 15.5t-54 15.5q-10 -44 4 -122q-12 -35 -54.5 -198t-61.5 -260h-9q19 96 38 255t22 203q41 68 51 122q-20 0 -55.5 -12.5t-51.5 -12.5q-18 0 -28 9t-10 23t11.5 24t31.5 10q17 0 51 -16t53 -16q4 25 -2 66t-6 53q0 23 12 36.5t30 13.5q34 0 34 -35
q0 -22 -27.5 -69.5t-30.5 -64.5q20 0 56 13t53 13t27 -9t10 -23t-11.5 -24t-31.5 -10z" />
    <glyph glyph-name="daggerdbl" unicode="&#x2021;" horiz-adv-x="331" 
d="M158 375q22 29 42.5 92t29.5 111q-20 0 -55.5 -12.5t-51.5 -12.5q-18 0 -28 9t-10 23t11.5 24t31.5 10q17 0 51 -16t53 -16q4 25 -2 66t-6 53q0 23 12 36.5t30 13.5q34 0 34 -35q0 -22 -27.5 -69.5t-30.5 -64.5q20 0 56 13t53 13t27 -9t10 -23t-11.5 -24t-31.5 -10
q-17 0 -51 15.5t-54 15.5q-26 -132 -7 -203q-43 -55 -72 -204q20 0 56 12.5t52 12.5q17 0 27.5 -9.5t10.5 -22.5q0 -15 -12 -24.5t-32 -9.5q-17 0 -51 16t-53 16q-4 -25 2.5 -66t6.5 -53q0 -23 -12.5 -36.5t-30.5 -13.5q-34 0 -34 35q0 22 28 69.5t31 64.5q-20 0 -56.5 -13
t-53.5 -13t-26.5 9t-9.5 22q0 15 11 25t31 10q17 0 51.5 -15.5t53.5 -15.5q9 44 12.5 98.5t-5.5 105.5z" />
    <glyph glyph-name="bullet" unicode="&#x2022;" horiz-adv-x="322" 
d="M173 402q47 0 81 -33.5t34 -81.5t-33.5 -81t-81.5 -33t-81 33t-33 81t33 81.5t81 33.5z" />
    <glyph glyph-name="ellipsis" unicode="&#x2026;" horiz-adv-x="603" 
d="M447 -10q-21 0 -35 13.5t-14 34.5t14 35t35 14q20 0 34.5 -14t14.5 -35t-14 -34.5t-35 -13.5zM272 -10q-21 0 -35 13.5t-14 34.5t14 35t35 14q20 0 34.5 -14t14.5 -35t-14 -34.5t-35 -13.5zM97 -10q-21 0 -35 13.5t-14 34.5t14 35t35 14q20 0 34.5 -14t14.5 -35
t-14 -34.5t-35 -13.5z" />
    <glyph glyph-name="perthousand" unicode="&#x2030;" horiz-adv-x="1093" 
d="M419 610q0 -87 -57 -159t-142 -72q-62 0 -98.5 41.5t-36.5 104.5q0 88 58 159.5t142 71.5q66 0 100 -41.5t34 -104.5zM83 -2l-11 8l624 748l11 -8zM140 501q0 -113 80 -113q58 0 101 81.5t43 166.5q0 111 -79 111q-60 0 -102.5 -80t-42.5 -166zM694 225q0 -87 -57.5 -159
t-141.5 -72q-63 0 -99.5 41.5t-36.5 104.5q0 88 58 159.5t142 71.5q66 0 100.5 -41.5t34.5 -104.5zM1069 225q0 -87 -57 -159t-142 -72q-63 0 -99 41.5t-36 104.5q0 88 58 159.5t142 71.5q66 0 100 -41.5t34 -104.5zM414 116q0 -113 81 -113q58 0 100.5 81.5t42.5 166.5
q0 111 -79 111q-60 0 -102.5 -80t-42.5 -166zM790 116q0 -113 80 -113q58 0 101 81.5t43 166.5q0 111 -80 111q-60 0 -102 -80t-42 -166z" />
    <glyph glyph-name="minute" unicode="&#x2032;" horiz-adv-x="137" 
d="M107 589l-6 3q13 31 22.5 75.5t10.5 46.5q12 43 43 43q14 0 22.5 -8.5t8.5 -22.5q0 -13 -7 -26.5t-14.5 -22t-23.5 -24.5q-38 -38 -56 -64z" />
    <glyph glyph-name="second" unicode="&#x2033;" horiz-adv-x="236" 
d="M107 589l-6 3q13 31 22.5 75.5t10.5 46.5q12 43 43 43q14 0 22.5 -8.5t8.5 -22.5q0 -13 -7 -26.5t-14.5 -22t-23.5 -24.5q-38 -38 -56 -64zM206 589l-6 3q13 31 22.5 75.5t10.5 46.5q12 43 43 43q14 0 22.5 -8.5t8.5 -22.5q0 -13 -7 -26.5t-14.5 -22t-23.5 -24.5
q-38 -38 -56 -64z" />
    <glyph glyph-name="guilsinglleft" unicode="&#x2039;" horiz-adv-x="220" 
d="M140 67l-97 159v8l159 159l6 -4l-103 -161l42 -157z" />
    <glyph glyph-name="guilsinglright" unicode="&#x203a;" horiz-adv-x="219" 
d="M17 67l-6 4l106 157l-43 161l7 4l96 -159l-1 -8z" />
    <glyph glyph-name="fraction" unicode="&#x2044;" horiz-adv-x="474" 
d="M77 371l1 8h363l-1 -8h-363z" />
    <glyph glyph-name="Euro" unicode="&#x20ac;" horiz-adv-x="605" 
d="M30 335v11h69q1 30 10 74h-63v11h66q32 139 124.5 233t232.5 94q83 0 128 -32.5t45 -70.5q0 -17 -9.5 -27t-23.5 -10q-31 0 -40 40q0 1 -2 12.5t-3 15.5t-4.5 14.5t-7.5 15.5t-12 12.5t-17.5 11t-24 6.5t-31.5 3q-98 0 -168.5 -91.5t-100.5 -226.5h268v-11h-270
q-8 -42 -11 -74h265v-11h-266q-3 -30 -3 -60q0 -132 49.5 -198t135.5 -66q107 0 173 96l6 -6q-68 -106 -198 -106q-113 0 -181.5 83t-68.5 227q0 20 1 30h-68z" />
    <glyph glyph-name="trademark" unicode="&#x2122;" horiz-adv-x="733" 
d="M215 446v4q11 3 15 9.5t5.5 24.5t1.5 64v197h-34q-29 0 -43 -11t-22 -44h-5l7 52q1 6 2.5 7t5.5 1h224q4 0 5 -1t2 -7l7 -52h-5q-8 33 -22 44t-44 11h-33v-197q0 -45 2 -63.5t6 -25t15 -9.5v-4h-90zM417 446v4q15 4 18 19t3 84v90q0 69 -3 84t-18 19v4h70q4 0 7 -7
l92 -236l101 243h69v-4q-15 -4 -18 -19t-3 -84v-90q0 -68 3.5 -83.5t18.5 -19.5v-4h-90v4q15 4 18.5 19.5t3.5 83.5v185l-121 -293h-7l-117 293v-185q0 -69 3 -84t17 -19v-4h-47z" />
    <glyph glyph-name="onethird" unicode="&#x2153;" horiz-adv-x="484" 
d="M347 465h-124l1 6q25 4 34.5 21.5t24.5 96.5l23 118q10 53 7.5 63.5t-28.5 10.5l1 4l98 57l-48 -253q-15 -80 -14 -97t25 -21v-6zM83 371l1 8h363l-1 -8h-363zM180 285h194v-4l-162 -144q20 10 43 10q45 0 67 -25t22 -62q0 -58 -46 -103.5t-120 -45.5q-39 0 -63.5 14.5
t-24.5 35.5q0 24 23 24q19 0 26 -28q8 -39 44 -39q50 0 79 47t29 109q0 65 -43 65q-32 0 -69 -32l-5 5l142 126h-56q-71 0 -85.5 -3t-25.5 -20h-7l25 55l4 8t2.5 4t3 2.5t3.5 0.5z" />
    <glyph glyph-name="twothirds" unicode="&#x2154;" horiz-adv-x="484" 
d="M171 465l120 112q59 55 81 97.5t22 88.5q0 70 -53 70q-19 0 -30.5 -9t-14 -16t-6.5 -22q-9 -27 -27 -27q-9 0 -15.5 6t-6.5 18q0 22 28 39.5t72 17.5q50 0 80 -22.5t30 -62.5q0 -32 -22 -65.5t-46 -54.5t-77 -64l-75 -60h92q63 0 80.5 4t27.5 21h7l-29 -55
q-5 -11 -8 -13.5t-8 -2.5h-222zM83 371l1 8h363l-1 -8h-363zM180 285h194v-4l-162 -144q20 10 43 10q45 0 67 -25t22 -62q0 -58 -46 -103.5t-120 -45.5q-39 0 -63.5 14.5t-24.5 35.5q0 24 23 24q19 0 26 -28q8 -39 44 -39q50 0 79 47t29 109q0 65 -43 65q-32 0 -69 -32l-5 5
l142 126h-56q-71 0 -85.5 -3t-25.5 -20h-7l25 55l4 8t2.5 4t3 2.5t3.5 0.5z" />
    <glyph glyph-name="oneeighth" unicode="&#x215b;" horiz-adv-x="484" 
d="M347 465h-124l1 6q25 4 34.5 21.5t24.5 96.5l23 118q10 53 7.5 63.5t-28.5 10.5l1 4l98 57l-48 -253q-15 -80 -14 -97t25 -21v-6zM83 371l1 8h363l-1 -8h-363zM336 22q0 -50 -36.5 -80.5t-94.5 -30.5q-50 0 -81 20.5t-31 60.5q0 70 106 112q-29 21 -42.5 41.5t-13.5 48.5
q0 41 34 68t82 27q41 0 68 -16.5t27 -49.5q0 -61 -89 -98q26 -19 38.5 -30t22.5 -30t10 -43zM250 135q6 -4 8 -6q63 26 63 92q0 30 -17 45.5t-45 15.5q-31 0 -54 -17t-23 -47q0 -16 11 -32t20.5 -23.5t36.5 -27.5zM205 -82q38 0 62 21t24 57q0 27 -16 47.5t-54 44.5
q-2 2 -7.5 5.5t-7.5 5.5q-76 -33 -76 -104q0 -38 22 -57.5t53 -19.5z" />
    <glyph glyph-name="threeeighths" unicode="&#x215c;" horiz-adv-x="484" 
d="M276 836h194v-4l-162 -144q20 10 43 10q45 0 67 -25t22 -62q0 -58 -46 -103.5t-120 -45.5q-39 0 -63.5 14.5t-24.5 35.5q0 24 23 24q19 0 26 -28q8 -39 44 -39q50 0 79 47t29 109q0 65 -43 65q-32 0 -69 -32l-5 5l142 126h-56q-71 0 -85.5 -3t-25.5 -20h-7l25 55l4 8
t2.5 4t3 2.5t3.5 0.5zM83 371l1 8h363l-1 -8h-363zM336 22q0 -50 -36.5 -80.5t-94.5 -30.5q-50 0 -81 20.5t-31 60.5q0 70 106 112q-29 21 -42.5 41.5t-13.5 48.5q0 41 34 68t82 27q41 0 68 -16.5t27 -49.5q0 -61 -89 -98q26 -19 38.5 -30t22.5 -30t10 -43zM250 135
q6 -4 8 -6q63 26 63 92q0 30 -17 45.5t-45 15.5q-31 0 -54 -17t-23 -47q0 -16 11 -32t20.5 -23.5t36.5 -27.5zM205 -82q38 0 62 21t24 57q0 27 -16 47.5t-54 44.5q-2 2 -7.5 5.5t-7.5 5.5q-76 -33 -76 -104q0 -38 22 -57.5t53 -19.5z" />
    <glyph glyph-name="fiveeighths" unicode="&#x215d;" horiz-adv-x="484" 
d="M473 836l-20 -37q-6 -10 -13 -10h-140l-41 -108q33 25 81 25q102 0 102 -94q0 -56 -44.5 -102.5t-118.5 -46.5q-40 0 -65 15t-25 36q0 23 23 23q8 0 13.5 -4.5t7.5 -9t5 -16.5q10 -37 43 -37q51 0 80 49t29 107q0 40 -12 56.5t-39 16.5q-50 0 -86 -29l-4 2l60 164h164z
M83 371l1 8h363l-1 -8h-363zM336 22q0 -50 -36.5 -80.5t-94.5 -30.5q-50 0 -81 20.5t-31 60.5q0 70 106 112q-29 21 -42.5 41.5t-13.5 48.5q0 41 34 68t82 27q41 0 68 -16.5t27 -49.5q0 -61 -89 -98q26 -19 38.5 -30t22.5 -30t10 -43zM250 135q6 -4 8 -6q63 26 63 92
q0 30 -17 45.5t-45 15.5q-31 0 -54 -17t-23 -47q0 -16 11 -32t20.5 -23.5t36.5 -27.5zM205 -82q38 0 62 21t24 57q0 27 -16 47.5t-54 44.5q-2 2 -7.5 5.5t-7.5 5.5q-76 -33 -76 -104q0 -38 22 -57.5t53 -19.5z" />
    <glyph glyph-name="seveneighths" unicode="&#x215e;" horiz-adv-x="484" 
d="M270 836h203v-6l-200 -365h-9l178 324h-97q-64 0 -80 -5.5t-28 -29.5h-7l26 69q6 13 14 13zM83 371l1 8h363l-1 -8h-363zM336 22q0 -50 -36.5 -80.5t-94.5 -30.5q-50 0 -81 20.5t-31 60.5q0 70 106 112q-29 21 -42.5 41.5t-13.5 48.5q0 41 34 68t82 27q41 0 68 -16.5
t27 -49.5q0 -61 -89 -98q26 -19 38.5 -30t22.5 -30t10 -43zM250 135q6 -4 8 -6q63 26 63 92q0 30 -17 45.5t-45 15.5q-31 0 -54 -17t-23 -47q0 -16 11 -32t20.5 -23.5t36.5 -27.5zM205 -82q38 0 62 21t24 57q0 27 -16 47.5t-54 44.5q-2 2 -7.5 5.5t-7.5 5.5
q-76 -33 -76 -104q0 -38 22 -57.5t53 -19.5z" />
    <glyph glyph-name="arrowleft" unicode="&#x2190;" horiz-adv-x="754" 
d="M62 361q72 19 172.5 84t130.5 135l8 -3q-31 -92 -71.5 -140.5t-92.5 -75.5h544v-10h-544q52 -27 92.5 -75.5t71.5 -140.5l-8 -3q-21 49 -81 98t-119.5 79.5t-102.5 41.5v10z" />
    <glyph glyph-name="arrowright" unicode="&#x2192;" horiz-adv-x="764" 
d="M70 351v10h544q-52 27 -92.5 75.5t-71.5 140.5l7 3q30 -70 130.5 -135t173.5 -84v-10q-43 -11 -103 -41.5t-120 -79.5t-81 -98l-7 3q31 92 71.5 140.5t92.5 75.5h-544z" />
    <glyph glyph-name="minus" unicode="&#x2212;" horiz-adv-x="470" 
d="M76 345v12h372v-12h-372z" />
    <glyph glyph-name="Pcircle" unicode="&#x24c5;" horiz-adv-x="840" 
d="M450 759q159 0 272.5 -113t113.5 -272q0 -158 -114 -271.5t-272 -113.5q-159 0 -273 113.5t-114 271.5q0 159 114 272t273 113zM450 -2q154 0 265 110t111 266t-111 266t-265 110t-265.5 -110t-111.5 -266t111.5 -266t265.5 -110zM315 148v6q22 5 26.5 27t4.5 118v148
q0 96 -4.5 118t-26.5 27v6h153q169 0 169 -115q0 -63 -47.5 -95t-121.5 -32h-59v-57q0 -53 0.5 -76.5t4.5 -40.5t9.5 -21t18.5 -7v-6h-127zM467 590h-58v-226h58q23 0 39 3.5t34 14t27 34.5t9 61t-9.5 61.5t-27 35t-33.5 13.5t-39 3z" />
    <glyph glyph-name="commaaccent" unicode="&#xf6c3;" horiz-adv-x="490" 
d="M189 -54q44 0 44 -49q0 -33 -23.5 -56.5t-63.5 -31.5l-3 7q29 6 46.5 20t17.5 31q0 5 -1 7q-7 -7 -23 -7t-27 10.5t-11 27.5q0 19 12.5 30t31.5 11z" />
    <glyph glyph-name="fi" unicode="&#xfb01;" horiz-adv-x="425" 
d="M-17 0l2 7q29 7 39 29.5t28 116.5l60 303h-49l1 8q35 4 45.5 19.5t22.5 72.5l5 26q19 91 66 135.5t102 44.5q31 0 47.5 -12t16.5 -31q0 -14 -8.5 -22.5t-20.5 -8.5q-13 0 -22.5 9t-10.5 25q0 3 -1 8q-1 20 -10 22q-2 1 -6 1q-23 0 -40.5 -26.5t-31.5 -97.5l-32 -163h94
l126 10l-63 -323q-10 -51 -13.5 -73t-2.5 -40t8.5 -23.5t23.5 -9.5l-2 -7h-159l2 7q31 8 41 30t28 116l34 177q16 88 12.5 107t-36.5 19h-94l-60 -303q-18 -89 -14 -113t44 -33l-2 -7h-170zM393 559q-19 0 -32 13t-13 32t13 32t32 13t32 -13t13 -32t-13 -32t-32 -13z" />
    <glyph glyph-name="fl" unicode="&#xfb02;" horiz-adv-x="426" 
d="M-17 0l2 7q29 7 39 29.5t28 116.5l60 303h-49l1 8q35 4 45.5 19.5t22.5 72.5l5 26q19 91 69 134.5t108 43.5q44 0 68 -21l82 36l-122 -622q-10 -51 -13.5 -73t-2 -40t8.5 -23.5t23 -9.5l-1 -7h-159l2 7q30 7 40 29.5t29 116.5l82 423q19 96 17 111h-2q-29 0 -30 31
q-2 17 -8.5 24.5t-23.5 7.5q-30 0 -50.5 -24.5t-35.5 -96.5l-32 -163h92l-1 -10h-92l-60 -303q-18 -89 -14 -113t44 -33l-2 -7h-170z" />
    <glyph glyph-name="A.alt" horiz-adv-x="621" 
d="M-39 0l1 6q24 9 41 29.5t57 91.5l375 629h13l72 -619q8 -68 16 -94t29 -37l-1 -6h-149l1 6q25 6 30.5 23t0.5 62l-17 141h-297l-63 -106q-14 -26 -21.5 -43t-9.5 -33t5 -26.5t23 -17.5l-1 -6h-105zM138 240h291l-50 404z" />
    <glyph glyph-name="Agrave.alt" horiz-adv-x="621" 
d="M529 778l-159 45q-35 12 -35 34q0 11 8 20t21 9t33 -12l135 -90zM-39 0l1 6q24 9 41 29.5t57 91.5l375 629h13l72 -619q8 -68 16 -94t29 -37l-1 -6h-149l1 6q25 6 30.5 23t0.5 62l-17 141h-297l-63 -106q-14 -26 -21.5 -43t-9.5 -33t5 -26.5t23 -17.5l-1 -6h-105z
M138 240h291l-50 404z" />
    <glyph glyph-name="Aacute.alt" horiz-adv-x="621" 
d="M347 778l-3 6l148 91q19 12 38 12q11 0 18 -8.5t7 -19.5q0 -24 -45 -37zM-39 0l1 6q24 9 41 29.5t57 91.5l375 629h13l72 -619q8 -68 16 -94t29 -37l-1 -6h-149l1 6q25 6 30.5 23t0.5 62l-17 141h-297l-63 -106q-14 -26 -21.5 -43t-9.5 -33t5 -26.5t23 -17.5l-1 -6h-105z
M138 240h291l-50 404z" />
    <glyph glyph-name="Acircumflex.alt" horiz-adv-x="621" 
d="M319 782l144 106l103 -106l-4 -5l-111 50l-127 -50zM-39 0l1 6q24 9 41 29.5t57 91.5l375 629h13l72 -619q8 -68 16 -94t29 -37l-1 -6h-149l1 6q25 6 30.5 23t0.5 62l-17 141h-297l-63 -106q-14 -26 -21.5 -43t-9.5 -33t5 -26.5t23 -17.5l-1 -6h-105zM138 240h291
l-50 404z" />
    <glyph glyph-name="Atilde.alt" horiz-adv-x="621" 
d="M407 864q12 0 52 -6.5t51 -6.5q24 0 59 46l7 -2q-21 -44 -43 -65.5t-40 -21.5q-13 0 -54 6t-52 6q-25 0 -65 -47l-6 2q23 44 47.5 66.5t43.5 22.5zM-39 0l1 6q24 9 41 29.5t57 91.5l375 629h13l72 -619q8 -68 16 -94t29 -37l-1 -6h-149l1 6q25 6 30.5 23t0.5 62l-17 141
h-297l-63 -106q-14 -26 -21.5 -43t-9.5 -33t5 -26.5t23 -17.5l-1 -6h-105zM138 240h291l-50 404z" />
    <glyph glyph-name="Adieresis.alt" horiz-adv-x="621" 
d="M542 783q-18 0 -30 12.5t-12 31.5q0 18 12 30.5t30 12.5t30.5 -12.5t12.5 -30.5q0 -19 -12.5 -31.5t-30.5 -12.5zM351 783q-18 0 -30 12.5t-12 31.5q0 18 12 30.5t30 12.5t30.5 -12.5t12.5 -30.5q0 -19 -12.5 -31.5t-30.5 -12.5zM-39 0l1 6q24 9 41 29.5t57 91.5l375 629
h13l72 -619q8 -68 16 -94t29 -37l-1 -6h-149l1 6q25 6 30.5 23t0.5 62l-17 141h-297l-63 -106q-14 -26 -21.5 -43t-9.5 -33t5 -26.5t23 -17.5l-1 -6h-105zM138 240h291l-50 404z" />
    <glyph glyph-name="Aring.alt" horiz-adv-x="621" 
d="M456 929q35 0 53.5 -20t18.5 -49q0 -35 -23.5 -60t-61.5 -25q-35 0 -54 20.5t-19 49.5q0 34 24 59t62 25zM443 784q25 0 38.5 22.5t13.5 56.5q0 58 -40 58q-25 0 -38.5 -22.5t-13.5 -56.5q0 -58 40 -58zM-39 0l1 6q24 9 41 29.5t57 91.5l375 629h13l72 -619q8 -68 16 -94
t29 -37l-1 -6h-149l1 6q25 6 30.5 23t0.5 62l-17 141h-297l-63 -106q-14 -26 -21.5 -43t-9.5 -33t5 -26.5t23 -17.5l-1 -6h-105zM138 240h291l-50 404z" />
    <glyph glyph-name="Amacron.alt" horiz-adv-x="621" 
d="M551 831l-7 -35h-202l7 35h202zM-39 0l1 6q24 9 41 29.5t57 91.5l375 629h13l72 -619q8 -68 16 -94t29 -37l-1 -6h-149l1 6q25 6 30.5 23t0.5 62l-17 141h-297l-63 -106q-14 -26 -21.5 -43t-9.5 -33t5 -26.5t23 -17.5l-1 -6h-105zM138 240h291l-50 404z" />
    <glyph glyph-name="Abreve.alt" horiz-adv-x="621" 
d="M452 827q75 0 99 54h8q-6 -36 -36.5 -67t-80.5 -31q-47 0 -66 30.5t-14 68.5h9q0 -23 20.5 -39t60.5 -16zM-39 0l1 6q24 9 41 29.5t57 91.5l375 629h13l72 -619q8 -68 16 -94t29 -37l-1 -6h-149l1 6q25 6 30.5 23t0.5 62l-17 141h-297l-63 -106q-14 -26 -21.5 -43
t-9.5 -33t5 -26.5t23 -17.5l-1 -6h-105zM138 240h291l-50 404z" />
    <glyph glyph-name="Aogonek.alt" horiz-adv-x="613" 
d="M-43 0l1 6q24 9 41 29.5t57 91.5l375 629h13l72 -619q8 -68 16 -94t29 -37l-1 -6h-74q-35 0 -69 -31.5t-34 -69.5q0 -37 36 -37q24 0 44 16l4 -5q-36 -43 -85 -43q-28 0 -44.5 14t-16.5 39q0 43 43.5 74.5t88.5 44.5l-28 230h-296l-63 -106q-14 -26 -21.5 -43t-9.5 -33
t5 -26.5t23 -17.5l-1 -6h-105zM135 241h289l-48 404z" />
    <glyph glyph-name="Aringacute.alt" horiz-adv-x="621" 
d="M363 930l-3 6l148 91q20 12 38 12q11 0 18 -8.5t7 -19.5q0 -24 -45 -37zM456 929q35 0 53.5 -20t18.5 -49q0 -35 -23.5 -60t-61.5 -25q-35 0 -54 20.5t-19 49.5q0 34 24 59t62 25zM443 784q25 0 38.5 22.5t13.5 56.5q0 58 -40 58q-25 0 -38.5 -22.5t-13.5 -56.5
q0 -58 40 -58zM-39 0l1 6q24 9 41 29.5t57 91.5l375 629h13l72 -619q8 -68 16 -94t29 -37l-1 -6h-149l1 6q25 6 30.5 23t0.5 62l-17 141h-297l-63 -106q-14 -26 -21.5 -43t-9.5 -33t5 -26.5t23 -17.5l-1 -6h-105zM138 240h291l-50 404z" />
    <glyph glyph-name="C.alt" horiz-adv-x="623" 
d="M340 2q81 0 139.5 43t93.5 115h9l-35 -154h-10q-3 17 -8 23t-16 6t-63.5 -21t-113.5 -21q-144 0 -214.5 88.5t-70.5 238.5q0 81 26.5 158.5t75 140.5t126 101t171.5 38q60 0 111 -21t62 -21q12 0 18 6t13 22h10l-30 -153h-9q0 158 -175 158q-75 0 -136.5 -41.5
t-99.5 -108.5t-58.5 -148t-20.5 -164q0 -134 53 -209.5t152 -75.5z" />
    <glyph glyph-name="Ccedilla.alt" horiz-adv-x="623" 
d="M187 -200l1 8q110 8 110 57q0 36 -69 40l-1 5q54 67 67 85q-123 13 -183.5 100t-60.5 225q0 81 26.5 158.5t75 140.5t126 101t171.5 38q60 0 111 -21t62 -21q12 0 18 6t13 22h10l-30 -153h-9q0 158 -175 158q-75 0 -136.5 -41.5t-99.5 -108.5t-58.5 -148t-20.5 -164
q0 -134 53 -209.5t152 -75.5q81 0 139.5 43t93.5 115h9l-35 -154h-10q-3 17 -8 23t-16 6t-63.5 -21t-113.5 -21q-21 0 -31 1l-36 -47q35 -4 57 -20t22 -44q0 -36 -39 -59t-122 -24z" />
    <glyph glyph-name="Cacute.alt" horiz-adv-x="623" 
d="M348 778l-3 6l148 91q20 12 38 12q11 0 18 -8.5t7 -19.5q0 -24 -45 -37zM340 2q81 0 139.5 43t93.5 115h9l-35 -154h-10q-3 17 -8 23t-16 6t-63.5 -21t-113.5 -21q-144 0 -214.5 88.5t-70.5 238.5q0 81 26.5 158.5t75 140.5t126 101t171.5 38q60 0 111 -21t62 -21
q12 0 18 6t13 22h10l-30 -153h-9q0 158 -175 158q-75 0 -136.5 -41.5t-99.5 -108.5t-58.5 -148t-20.5 -164q0 -134 53 -209.5t152 -75.5z" />
    <glyph glyph-name="Ccircumflex.alt" horiz-adv-x="623" 
d="M321 782l144 106l103 -106l-4 -5l-111 50l-127 -50zM340 2q81 0 139.5 43t93.5 115h9l-35 -154h-10q-3 17 -8 23t-16 6t-63.5 -21t-113.5 -21q-144 0 -214.5 88.5t-70.5 238.5q0 81 26.5 158.5t75 140.5t126 101t171.5 38q60 0 111 -21t62 -21q12 0 18 6t13 22h10
l-30 -153h-9q0 158 -175 158q-75 0 -136.5 -41.5t-99.5 -108.5t-58.5 -148t-20.5 -164q0 -134 53 -209.5t152 -75.5z" />
    <glyph glyph-name="Cdotaccent.alt" horiz-adv-x="623" 
d="M450 783q-19 0 -32 13.5t-13 32.5t13 31.5t32 12.5t32 -12.5t13 -31.5t-13 -32.5t-32 -13.5zM340 2q81 0 139.5 43t93.5 115h9l-35 -154h-10q-3 17 -8 23t-16 6t-63.5 -21t-113.5 -21q-144 0 -214.5 88.5t-70.5 238.5q0 81 26.5 158.5t75 140.5t126 101t171.5 38
q60 0 111 -21t62 -21q12 0 18 6t13 22h10l-30 -153h-9q0 158 -175 158q-75 0 -136.5 -41.5t-99.5 -108.5t-58.5 -148t-20.5 -164q0 -134 53 -209.5t152 -75.5z" />
    <glyph glyph-name="Ccaron.alt" horiz-adv-x="623" 
d="M343 885l5 5l109 -50l129 50l5 -5l-146 -106zM340 2q81 0 139.5 43t93.5 115h9l-35 -154h-10q-3 17 -8 23t-16 6t-63.5 -21t-113.5 -21q-144 0 -214.5 88.5t-70.5 238.5q0 81 26.5 158.5t75 140.5t126 101t171.5 38q60 0 111 -21t62 -21q12 0 18 6t13 22h10l-30 -153h-9
q0 158 -175 158q-75 0 -136.5 -41.5t-99.5 -108.5t-58.5 -148t-20.5 -164q0 -134 53 -209.5t152 -75.5z" />
    <glyph glyph-name="G.alt" horiz-adv-x="660" 
d="M343 -8q-75 0 -132 26t-91.5 71.5t-51.5 103.5t-17 127q0 82 26.5 159.5t75 140t126 100.5t171.5 38q49 0 84 -10.5t55.5 -21t35.5 -10.5q23 0 35 28h10l-31 -153h-10q-1 78 -48 118t-131 40q-75 0 -136.5 -41.5t-99.5 -108.5t-58.5 -148t-20.5 -164q0 -286 208 -286
q68 0 109.5 33t51.5 86l6 28q31 169 29.5 200t-37.5 39l1 7h133l-74 -379h-9q2 26 -23 26q-15 0 -38.5 -12t-61.5 -24.5t-87 -12.5z" />
    <glyph glyph-name="Gcircumflex.alt" horiz-adv-x="660" 
d="M326 782l144 106l103 -106l-4 -5l-111 50l-127 -50zM343 -8q-75 0 -132 26t-91.5 71.5t-51.5 103.5t-17 127q0 82 26.5 159.5t75 140t126 100.5t171.5 38q49 0 84 -10.5t55.5 -21t35.5 -10.5q23 0 35 28h10l-31 -153h-10q-1 78 -48 118t-131 40q-75 0 -136.5 -41.5
t-99.5 -108.5t-58.5 -148t-20.5 -164q0 -286 208 -286q68 0 109.5 33t51.5 86l6 28q31 169 29.5 200t-37.5 39l1 7h133l-74 -379h-9q2 26 -23 26q-15 0 -38.5 -12t-61.5 -24.5t-87 -12.5z" />
    <glyph glyph-name="Gbreve.alt" horiz-adv-x="660" 
d="M460 827q75 0 99 54h8q-6 -36 -36.5 -67t-80.5 -31q-47 0 -66 30.5t-14 68.5h9q0 -23 20.5 -39t60.5 -16zM343 -8q-75 0 -132 26t-91.5 71.5t-51.5 103.5t-17 127q0 82 26.5 159.5t75 140t126 100.5t171.5 38q49 0 84 -10.5t55.5 -21t35.5 -10.5q23 0 35 28h10l-31 -153
h-10q-1 78 -48 118t-131 40q-75 0 -136.5 -41.5t-99.5 -108.5t-58.5 -148t-20.5 -164q0 -286 208 -286q68 0 109.5 33t51.5 86l6 28q31 169 29.5 200t-37.5 39l1 7h133l-74 -379h-9q2 26 -23 26q-15 0 -38.5 -12t-61.5 -24.5t-87 -12.5z" />
    <glyph glyph-name="Gdotaccent.alt" horiz-adv-x="660" 
d="M451 783q-19 0 -32 13.5t-13 32.5t13 31.5t32 12.5t32 -12.5t13 -31.5t-13 -32.5t-32 -13.5zM343 -8q-75 0 -132 26t-91.5 71.5t-51.5 103.5t-17 127q0 82 26.5 159.5t75 140t126 100.5t171.5 38q49 0 84 -10.5t55.5 -21t35.5 -10.5q23 0 35 28h10l-31 -153h-10
q-1 78 -48 118t-131 40q-75 0 -136.5 -41.5t-99.5 -108.5t-58.5 -148t-20.5 -164q0 -286 208 -286q68 0 109.5 33t51.5 86l6 28q31 169 29.5 200t-37.5 39l1 7h133l-74 -379h-9q2 26 -23 26q-15 0 -38.5 -12t-61.5 -24.5t-87 -12.5z" />
    <glyph glyph-name="J.alt" horiz-adv-x="214" 
d="M-104 -156q-51 0 -51 39q0 16 11 26t28 10q21 0 39 -22.5t30 -22.5q9 0 17 5q33 21 55 138l94 481q32 163 31.5 199t-34.5 46l2 7h181l-2 -7q-17 -4 -26 -10.5t-17.5 -17.5t-16.5 -41.5t-16 -66.5t-22 -109l-77 -395q-31 -158 -149 -231q-41 -28 -77 -28z" />
    <glyph glyph-name="Jcircumflex.alt" horiz-adv-x="214" 
d="M89 782l144 106l103 -106l-4 -5l-111 50l-127 -50zM-104 -156q-51 0 -51 39q0 16 11 26t28 10q21 0 39 -22.5t30 -22.5q9 0 17 5q33 21 55 138l94 481q32 163 31.5 199t-34.5 46l2 7h181l-2 -7q-17 -4 -26 -10.5t-17.5 -17.5t-16.5 -41.5t-16 -66.5t-22 -109l-77 -395
q-31 -158 -149 -231q-41 -28 -77 -28z" />
    <glyph glyph-name="K.alt" horiz-adv-x="596" 
d="M-28 0l2 7q37 8 51 44t46 201l48 246q34 178 32 208q-2 26 -25 34q-4 1 -10 3l2 7h181l-2 -7q-17 -4 -26 -10.5t-18 -18t-16.5 -41t-16 -67t-21.5 -108.5l-21 -109l321 266q68 56 68 70q-1 11 -29 19l1 6h117l-2 -6q-47 -11 -123 -74l-317 -262q38 18 86 18
q79 0 110.5 -47t31.5 -143q0 -157 19 -192q18 -30 53 -30q38 0 64 29l4 -5q-43 -46 -105 -46q-31 0 -51.5 9t-38 33.5t-25 74t-5.5 125.5q2 105 -13.5 142.5t-62.5 37.5q-53 0 -106 -38l-24 -124q-32 -163 -31 -199t35 -46l-2 -7h-181z" />
    <glyph glyph-name="Kcommaaccent.alt" horiz-adv-x="596" 
d="M-28 0l2 7q37 8 51 44t46 201l48 246q34 178 32 208q-2 26 -25 34q-4 1 -10 3l2 7h181l-2 -7q-17 -4 -26 -10.5t-18 -18t-16.5 -41t-16 -67t-21.5 -108.5l-21 -109l321 266q68 56 68 70q-1 11 -29 19l1 6h117l-2 -6q-47 -11 -123 -74l-317 -262q38 18 86 18
q79 0 110.5 -47t31.5 -143q0 -157 19 -192q18 -30 53 -30q38 0 64 29l4 -5q-43 -46 -105 -46q-31 0 -51.5 9t-38 33.5t-25 74t-5.5 125.5q2 105 -13.5 142.5t-62.5 37.5q-53 0 -106 -38l-24 -124q-32 -163 -31 -199t35 -46l-2 -7h-181zM256 -54q44 0 44 -49
q0 -33 -23.5 -56.5t-63.5 -31.5l-3 7q29 6 46.5 20t17.5 31q0 5 -1 7q-7 -7 -23 -7t-27 10.5t-11 27.5q0 19 12.5 30t31.5 11z" />
    <glyph glyph-name="Q.alt" horiz-adv-x="716" 
d="M599 0q-12 0 -22 12l-37 48q-94 -68 -213 -68q-131 0 -204 94.5t-73 231.5q0 78 26 154.5t74 141t125.5 104.5t172.5 40q125 0 195.5 -95.5t70.5 -231.5q0 -89 -32.5 -177t-93.5 -152l43 -55q28 -37 55 -41l-1 -6h-86zM448 749q-76 0 -138 -41.5t-99 -110.5t-57 -152.5
t-20 -172.5q0 -271 193 -271q107 0 184 95l-112 142q-25 31 -50 35l1 6h94q8 0 16 -10l90 -117q80 143 80 337q0 126 -46 193t-136 67z" />
    <glyph glyph-name="R.alt" horiz-adv-x="602" 
d="M-28 0l2 7q37 10 51 45.5t46 199.5l48 246q32 163 31.5 199t-34.5 46l2 7h253q255 0 255 -166q0 -101 -82 -153.5t-202 -54.5l133 -298q15 -34 28 -49t36 -23l-2 -6h-114l-168 376h-80l-24 -124q-32 -163 -31 -199t35 -46l-2 -7h-181zM366 741h-120l-69 -357h155
q38 0 72.5 10t67 32t52 64.5t19.5 101.5q0 84 -42.5 116.5t-134.5 32.5z" />
    <glyph glyph-name="Racute.alt" horiz-adv-x="602" 
d="M288 778l-3 6l148 91q19 12 38 12q11 0 18 -8.5t7 -19.5q0 -24 -45 -37zM-28 0l2 7q37 10 51 45.5t46 199.5l48 246q32 163 31.5 199t-34.5 46l2 7h253q255 0 255 -166q0 -101 -82 -153.5t-202 -54.5l133 -298q15 -34 28 -49t36 -23l-2 -6h-114l-168 376h-80l-24 -124
q-32 -163 -31 -199t35 -46l-2 -7h-181zM366 741h-120l-69 -357h155q38 0 72.5 10t67 32t52 64.5t19.5 101.5q0 84 -42.5 116.5t-134.5 32.5z" />
    <glyph glyph-name="Rcommaaccent.alt" horiz-adv-x="602" 
d="M-28 0l2 7q37 10 51 45.5t46 199.5l48 246q32 163 31.5 199t-34.5 46l2 7h253q255 0 255 -166q0 -101 -82 -153.5t-202 -54.5l133 -298q15 -34 28 -49t36 -23l-2 -6h-114l-168 376h-80l-24 -124q-32 -163 -31 -199t35 -46l-2 -7h-181zM366 741h-120l-69 -357h155
q38 0 72.5 10t67 32t52 64.5t19.5 101.5q0 84 -42.5 116.5t-134.5 32.5zM258 -54q44 0 44 -49q0 -33 -23.5 -56.5t-63.5 -31.5l-3 7q29 6 46.5 20t17.5 31q0 5 -1 7q-7 -7 -23 -7t-27 10.5t-11 27.5q0 19 12.5 30t31.5 11z" />
    <glyph glyph-name="Rcaron.alt" horiz-adv-x="602" 
d="M276 885l5 5l109 -50l129 50l5 -5l-146 -106zM-28 0l2 7q37 10 51 45.5t46 199.5l48 246q32 163 31.5 199t-34.5 46l2 7h253q255 0 255 -166q0 -101 -82 -153.5t-202 -54.5l133 -298q15 -34 28 -49t36 -23l-2 -6h-114l-168 376h-80l-24 -124q-32 -163 -31 -199t35 -46
l-2 -7h-181zM366 741h-120l-69 -357h155q38 0 72.5 10t67 32t52 64.5t19.5 101.5q0 84 -42.5 116.5t-134.5 32.5z" />
    <glyph glyph-name="W.alt" horiz-adv-x="874" 
d="M228 -5l-76 628q-10 78 -18 95q-10 16 -26 25l2 7h146l-2 -7q-21 -6 -27 -23t-1 -58l68 -561l175 282l-23 240q-6 61 -13.5 84.5t-30.5 35.5l1 7h146l-2 -7q-20 -6 -25 -22t-1 -60l51 -539l260 501q19 35 26.5 54.5t4.5 38t-24 27.5l2 7h104l-2 -7q-25 -10 -43.5 -31
t-55.5 -89l-327 -628h-10l-36 373l-232 -373h-11z" />
    <glyph glyph-name="Wcircumflex.alt" horiz-adv-x="874" 
d="M361 782l144 106l103 -106l-4 -5l-111 50l-127 -50zM228 -5l-76 628q-10 78 -18 95q-10 16 -26 25l2 7h146l-2 -7q-21 -6 -27 -23t-1 -58l68 -561l175 282l-23 240q-6 61 -13.5 84.5t-30.5 35.5l1 7h146l-2 -7q-20 -6 -25 -22t-1 -60l51 -539l260 501q19 35 26.5 54.5
t4.5 38t-24 27.5l2 7h104l-2 -7q-25 -10 -43.5 -31t-55.5 -89l-327 -628h-10l-36 373l-232 -373h-11z" />
    <glyph glyph-name="Wgrave.alt" horiz-adv-x="874" 
d="M571 778l-159 45q-35 12 -35 34q0 11 8 20t21 9t33 -12l135 -90zM228 -5l-76 628q-10 78 -18 95q-10 16 -26 25l2 7h146l-2 -7q-21 -6 -27 -23t-1 -58l68 -561l175 282l-23 240q-6 61 -13.5 84.5t-30.5 35.5l1 7h146l-2 -7q-20 -6 -25 -22t-1 -60l51 -539l260 501
q19 35 26.5 54.5t4.5 38t-24 27.5l2 7h104l-2 -7q-25 -10 -43.5 -31t-55.5 -89l-327 -628h-10l-36 373l-232 -373h-11z" />
    <glyph glyph-name="Wacute.alt" horiz-adv-x="874" 
d="M388 778l-3 6l148 91q19 12 38 12q11 0 18 -8.5t7 -19.5q0 -24 -45 -37zM228 -5l-76 628q-10 78 -18 95q-10 16 -26 25l2 7h146l-2 -7q-21 -6 -27 -23t-1 -58l68 -561l175 282l-23 240q-6 61 -13.5 84.5t-30.5 35.5l1 7h146l-2 -7q-20 -6 -25 -22t-1 -60l51 -539l260 501
q19 35 26.5 54.5t4.5 38t-24 27.5l2 7h104l-2 -7q-25 -10 -43.5 -31t-55.5 -89l-327 -628h-10l-36 373l-232 -373h-11z" />
    <glyph glyph-name="Wdieresis.alt" horiz-adv-x="874" 
d="M584 783q-18 0 -30 12.5t-12 31.5q0 18 12 30.5t30 12.5t30.5 -12.5t12.5 -30.5q0 -19 -12.5 -31.5t-30.5 -12.5zM393 783q-18 0 -30 12.5t-12 31.5q0 18 12 30.5t30 12.5t30.5 -12.5t12.5 -30.5q0 -19 -12.5 -31.5t-30.5 -12.5zM228 -5l-76 628q-10 78 -18 95
q-10 16 -26 25l2 7h146l-2 -7q-21 -6 -27 -23t-1 -58l68 -561l175 282l-23 240q-6 61 -13.5 84.5t-30.5 35.5l1 7h146l-2 -7q-20 -6 -25 -22t-1 -60l51 -539l260 501q19 35 26.5 54.5t4.5 38t-24 27.5l2 7h104l-2 -7q-25 -10 -43.5 -31t-55.5 -89l-327 -628h-10l-36 373
l-232 -373h-11z" />
    <glyph glyph-name="J.alt1" horiz-adv-x="467" 
d="M316 202l57 296q32 163 31.5 199t-34.5 46l2 7h181l-1 -7q-27 -7 -39.5 -23.5t-25 -61t-34.5 -160.5l-53 -272q-22 -116 -90 -175t-163 -59q-74 0 -121 30.5t-47 78.5q0 23 11 35t29 12q40 0 40 -56q0 -47 20 -69t68 -22q71 0 109.5 48t59.5 153z" />
    <glyph glyph-name="Jcircumflex.alt1" horiz-adv-x="467" 
d="M343 782l144 106l103 -106l-4 -5l-111 50l-127 -50zM316 202l57 296q32 163 31.5 199t-34.5 46l2 7h181l-1 -7q-27 -7 -39.5 -23.5t-25 -61t-34.5 -160.5l-53 -272q-22 -116 -90 -175t-163 -59q-74 0 -121 30.5t-47 78.5q0 23 11 35t29 12q40 0 40 -56q0 -47 20 -69
t68 -22q71 0 109.5 48t59.5 153z" />
    <glyph glyph-name="Cacute.altpl" horiz-adv-x="623" 
d="M438 781l38 100q14 36 35 36q11 0 18.5 -7.5t7.5 -17.5q0 -16 -17 -34l-77 -80zM340 2q81 0 139.5 43t93.5 115h9l-35 -154h-10q-3 17 -8 23t-16 6t-63.5 -21t-113.5 -21q-144 0 -214.5 88.5t-70.5 238.5q0 81 26.5 158.5t75 140.5t126 101t171.5 38q60 0 111 -21t62 -21
q12 0 18 6t13 22h10l-30 -153h-9q0 158 -175 158q-75 0 -136.5 -41.5t-99.5 -108.5t-58.5 -148t-20.5 -164q0 -134 53 -209.5t152 -75.5z" />
    <glyph glyph-name="R.long" horiz-adv-x="744" 
d="M-28 0l2 7q37 10 51 45.5t46 199.5l48 246q32 163 31.5 199t-34.5 46l2 7h253q255 0 255 -166q0 -100 -80.5 -153t-199.5 -55q69 -11 109 -51.5t65 -118.5q34 -112 63 -155.5t79 -43.5q42 0 72 34l5 -5q-36 -48 -107 -47q-59 0 -106 39t-80 143q-23 76 -39 115t-39 60.5
t-45 25.5t-68 4h-80l-24 -124q-32 -163 -31 -199t35 -46l-2 -7h-181zM366 741h-120l-69 -357h155q38 0 72.5 10t67 32t52 65t19.5 101q0 84 -42.5 116.5t-134.5 32.5z" />
    <glyph glyph-name="Racute.long" horiz-adv-x="744" 
d="M288 778l-3 6l148 91q19 12 38 12q11 0 18 -8.5t7 -19.5q0 -24 -45 -37zM-28 0l2 7q37 10 51 45.5t46 199.5l48 246q32 163 31.5 199t-34.5 46l2 7h253q255 0 255 -166q0 -100 -80.5 -153t-199.5 -55q69 -11 109 -51.5t65 -118.5q34 -112 63 -155.5t79 -43.5q42 0 72 34
l5 -5q-36 -48 -107 -47q-59 0 -106 39t-80 143q-23 76 -39 115t-39 60.5t-45 25.5t-68 4h-80l-24 -124q-32 -163 -31 -199t35 -46l-2 -7h-181zM366 741h-120l-69 -357h155q38 0 72.5 10t67 32t52 65t19.5 101q0 84 -42.5 116.5t-134.5 32.5z" />
    <glyph glyph-name="Rcommaaccent.long" horiz-adv-x="744" 
d="M-28 0l2 7q37 10 51 45.5t46 199.5l48 246q32 163 31.5 199t-34.5 46l2 7h253q255 0 255 -166q0 -100 -80.5 -153t-199.5 -55q69 -11 109 -51.5t65 -118.5q34 -112 63 -155.5t79 -43.5q42 0 72 34l5 -5q-36 -48 -107 -47q-59 0 -106 39t-80 143q-23 76 -39 115t-39 60.5
t-45 25.5t-68 4h-80l-24 -124q-32 -163 -31 -199t35 -46l-2 -7h-181zM366 741h-120l-69 -357h155q38 0 72.5 10t67 32t52 65t19.5 101q0 84 -42.5 116.5t-134.5 32.5zM308 -54q44 0 44 -49q0 -33 -23.5 -56.5t-63.5 -31.5l-3 7q29 6 46.5 20t17.5 31q0 5 -1 7q-7 -7 -23 -7
t-27 10.5t-11 27.5q0 19 12.5 30t31.5 11z" />
    <glyph glyph-name="Rcaron.long" horiz-adv-x="744" 
d="M276 885l5 5l109 -50l129 50l5 -5l-146 -106zM-28 0l2 7q37 10 51 45.5t46 199.5l48 246q32 163 31.5 199t-34.5 46l2 7h253q255 0 255 -166q0 -100 -80.5 -153t-199.5 -55q69 -11 109 -51.5t65 -118.5q34 -112 63 -155.5t79 -43.5q42 0 72 34l5 -5q-36 -48 -107 -47
q-59 0 -106 39t-80 143q-23 76 -39 115t-39 60.5t-45 25.5t-68 4h-80l-24 -124q-32 -163 -31 -199t35 -46l-2 -7h-181zM366 741h-120l-69 -357h155q38 0 72.5 10t67 32t52 65t19.5 101q0 84 -42.5 116.5t-134.5 32.5z" />
    <glyph glyph-name="Cacute.pl" horiz-adv-x="616" 
d="M438 781l38 100q14 36 35 36q11 0 18.5 -7.5t7.5 -17.5q0 -16 -17 -34l-77 -80zM566 116l6 -6q-78 -117 -240 -117q-71 0 -126 25.5t-88.5 71t-50 103.5t-16.5 127q0 81 26.5 158.5t75 140.5t126 101t171.5 38q60 0 111 -21t62 -21q12 0 18 6t13 22h10l-30 -153h-9
q0 158 -175 158q-75 0 -136.5 -41.5t-99.5 -108.5t-58.5 -148t-20.5 -164q0 -131 54.5 -204.5t159.5 -73.5q71 0 127.5 31t89.5 76z" />
    <glyph glyph-name="Nacute.pl" horiz-adv-x="624" 
d="M406 781l38 100q14 36 35 36q11 0 18.5 -7.5t7.5 -17.5q0 -16 -17 -34l-77 -80zM-28 0l2 7q17 6 26 13t17.5 19t16.5 42t16 66.5t22 108.5l47 242q32 163 31.5 199t-34.5 46l2 7h117q12 0 17 -4.5t15 -25.5l256 -590l71 364q32 163 31 199.5t-38 49.5l1 7h118l-2 -7
q-28 -10 -40.5 -27.5t-25 -62t-34.5 -159.5l-73 -381l-5 -23l-13 -70l-5 -23h-11l-322 731l-92 -472q-32 -163 -31 -199t39 -50l-2 -7h-117z" />
    <glyph glyph-name="Oacute.pl" horiz-adv-x="715" 
d="M442 781l38 100q14 36 35 36q11 0 18.5 -7.5t7.5 -17.5q0 -16 -17 -34l-77 -80zM714 431q0 -62 -15.5 -123.5t-47.5 -118.5t-76.5 -101t-108.5 -70t-138 -26q-132 0 -204.5 94.5t-72.5 231.5q0 78 26 154.5t74 141t125.5 104.5t172.5 40q125 0 195 -95.5t70 -231.5z
M449 749q-76 0 -138 -41.5t-99 -110.5t-57 -152.5t-20 -172.5q0 -271 193 -271q73 0 132 44t95 116t55.5 156.5t19.5 171.5q0 126 -45.5 193t-135.5 67z" />
    <glyph glyph-name="Sacute.pl" horiz-adv-x="551" 
d="M345 781l38 100q13 36 35 36q11 0 18.5 -7.5t7.5 -17.5q0 -16 -17 -34l-77 -80zM320 453q5 -3 31 -20t32.5 -21.5t28.5 -20.5t29.5 -24t23.5 -24.5t22.5 -29.5t15 -30.5t11.5 -37t3 -40.5q0 -69 -39.5 -119t-95 -71.5t-116.5 -21.5q-50 0 -95 16.5t-74.5 33.5t-43.5 17
q-19 0 -26 -21h-9l29 169h9q-5 -82 53.5 -144t156.5 -62q78 0 130 42t52 118q0 47 -25 87t-56.5 64.5t-86.5 58.5q-80 50 -118.5 96t-38.5 111q0 86 62.5 132t153.5 46q39 0 72 -8.5t50.5 -19t33 -19t23.5 -8.5q19 0 26 25h11l-23 -133h-10q-3 69 -53 111.5t-131 42.5
q-64 0 -110 -33t-46 -94q0 -50 32 -84.5t106 -83.5z" />
    <glyph glyph-name="Zacute.pl" horiz-adv-x="576" 
d="M371 781l38 100q13 36 35 36q11 0 18.5 -7.5t7.5 -17.5q0 -16 -17 -34l-77 -80zM-28 0l566 741h-219q-79 0 -119.5 -29.5t-76.5 -101.5h-9l51 140h473l-571 -741h251q95 0 138 33t81 124h9l-50 -166h-524z" />
    <glyph glyph-name="R.short" horiz-adv-x="588" 
d="M-28 0l2 7q37 10 51 45.5t46 199.5l48 246q32 163 31.5 199t-34.5 46l2 7h253q255 0 255 -166q0 -70 -42.5 -118t-106 -69t-142.5 -21h-34q121 -21 118 -190q-1 -91 17 -132t55 -41q39 0 60 35l6 -3q-35 -53 -104 -53q-58 0 -87.5 41t-28.5 146q1 58 -1 91t-7 56.5
t-19 33t-31 13t-50 3.5h-54l-24 -124q-32 -163 -31 -199t35 -46l-2 -7h-181zM366 741h-120l-69 -357h155q38 0 72.5 10t67 32t52 65t19.5 101q0 84 -42.5 116.5t-134.5 32.5z" />
    <glyph glyph-name="Racute.short" horiz-adv-x="588" 
d="M289 778l-3 6l148 91q20 12 38 12q11 0 18 -8.5t7 -19.5q0 -24 -45 -37zM-28 0l2 7q37 10 51 45.5t46 199.5l48 246q32 163 31.5 199t-34.5 46l2 7h253q255 0 255 -166q0 -70 -42.5 -118t-106 -69t-142.5 -21h-34q121 -21 118 -190q-1 -91 17 -132t55 -41q39 0 60 35
l6 -3q-35 -53 -104 -53q-58 0 -87.5 41t-28.5 146q1 58 -1 91t-7 56.5t-19 33t-31 13t-50 3.5h-54l-24 -124q-32 -163 -31 -199t35 -46l-2 -7h-181zM366 741h-120l-69 -357h155q38 0 72.5 10t67 32t52 65t19.5 101q0 84 -42.5 116.5t-134.5 32.5z" />
    <glyph glyph-name="Rcommaaccent.short" horiz-adv-x="588" 
d="M-28 0l2 7q37 10 51 45.5t46 199.5l48 246q32 163 31.5 199t-34.5 46l2 7h253q255 0 255 -166q0 -70 -42.5 -118t-106 -69t-142.5 -21h-34q121 -21 118 -190q-1 -91 17 -132t55 -41q39 0 60 35l6 -3q-35 -53 -104 -53q-58 0 -87.5 41t-28.5 146q1 58 -1 91t-7 56.5
t-19 33t-31 13t-50 3.5h-54l-24 -124q-32 -163 -31 -199t35 -46l-2 -7h-181zM366 741h-120l-69 -357h155q38 0 72.5 10t67 32t52 65t19.5 101q0 84 -42.5 116.5t-134.5 32.5zM245 -54q44 0 44 -49q0 -33 -23.5 -56.5t-63.5 -31.5l-3 7q29 6 46.5 20t17.5 31q0 5 -1 7
q-7 -7 -23 -7t-27 10.5t-11 27.5q0 19 12.5 30t31.5 11z" />
    <glyph glyph-name="Rcaron.short" horiz-adv-x="588" 
d="M277 885l5 5l109 -50l129 50l5 -5l-146 -106zM-28 0l2 7q37 10 51 45.5t46 199.5l48 246q32 163 31.5 199t-34.5 46l2 7h253q255 0 255 -166q0 -70 -42.5 -118t-106 -69t-142.5 -21h-34q121 -21 118 -190q-1 -91 17 -132t55 -41q39 0 60 35l6 -3q-35 -53 -104 -53
q-58 0 -87.5 41t-28.5 146q1 58 -1 91t-7 56.5t-19 33t-31 13t-50 3.5h-54l-24 -124q-32 -163 -31 -199t35 -46l-2 -7h-181zM366 741h-120l-69 -357h155q38 0 72.5 10t67 32t52 65t19.5 101q0 84 -42.5 116.5t-134.5 32.5z" />
    <glyph glyph-name="s.alt" horiz-adv-x="359" 
d="M205 286q57 -38 84.5 -73t27.5 -81q0 -64 -48 -101.5t-117 -37.5q-72 0 -112 34t-40 74q0 38 33 38q31 0 33 -42q1 -20 3.5 -33t10.5 -29.5t26 -25t46 -8.5q52 0 79 28t27 69q0 38 -22 63t-73 58q-100 63 -100 135q0 54 38 88t100 34q64 0 99.5 -26.5t35.5 -58.5
q0 -34 -30 -34t-36 41l-2 12q-1 13 -1.5 15t-3.5 12t-7.5 13t-11.5 8.5t-18 7t-25 1.5q-38 0 -64.5 -21t-26.5 -53q0 -22 13.5 -41.5t28.5 -30.5t53 -35z" />
    <glyph glyph-name="sacute.alt" horiz-adv-x="359" 
d="M179 534l-5 5l103 143q20 27 41 27q11 0 18.5 -7t7.5 -18q0 -21 -26 -41zM205 286q57 -38 84.5 -73t27.5 -81q0 -64 -48 -101.5t-117 -37.5q-72 0 -112 34t-40 74q0 38 33 38q31 0 33 -42q1 -20 3.5 -33t10.5 -29.5t26 -25t46 -8.5q52 0 79 28t27 69q0 38 -22 63t-73 58
q-100 63 -100 135q0 54 38 88t100 34q64 0 99.5 -26.5t35.5 -58.5q0 -34 -30 -34t-36 41l-2 12q-1 13 -1.5 15t-3.5 12t-7.5 13t-11.5 8.5t-18 7t-25 1.5q-38 0 -64.5 -21t-26.5 -53q0 -22 13.5 -41.5t28.5 -30.5t53 -35z" />
    <glyph glyph-name="scircumflex.alt" horiz-adv-x="359" 
d="M110 537l142 175l76 -175l-7 -4l-84 100l-122 -100zM205 286q57 -38 84.5 -73t27.5 -81q0 -64 -48 -101.5t-117 -37.5q-72 0 -112 34t-40 74q0 38 33 38q31 0 33 -42q1 -20 3.5 -33t10.5 -29.5t26 -25t46 -8.5q52 0 79 28t27 69q0 38 -22 63t-73 58q-100 63 -100 135
q0 54 38 88t100 34q64 0 99.5 -26.5t35.5 -58.5q0 -34 -30 -34t-36 41l-2 12q-1 13 -1.5 15t-3.5 12t-7.5 13t-11.5 8.5t-18 7t-25 1.5q-38 0 -64.5 -21t-26.5 -53q0 -22 13.5 -41.5t28.5 -30.5t53 -35z" />
    <glyph glyph-name="scedilla.alt" horiz-adv-x="359" 
d="M28 -199l1 8q110 8 110 57q0 36 -69 40l-1 5q49 62 65 83q-64 4 -99 37t-35 70q0 38 33 38q31 0 33 -42q1 -20 3.5 -33t10.5 -29.5t26 -25t46 -8.5q52 0 79 28t27 69q0 38 -22 63t-73 58q-100 63 -100 135q0 54 38 88t100 34q64 0 99.5 -26.5t35.5 -58.5q0 -34 -30 -34
t-36 41l-2 12q-1 13 -1.5 15t-3.5 12t-7.5 13t-11.5 8.5t-18 7t-25 1.5q-38 0 -64.5 -21t-26.5 -53q0 -22 13.5 -41.5t28.5 -30.5t53 -35q57 -38 84.5 -73t27.5 -81q0 -64 -48 -101.5t-117 -37.5h-7l-35 -45q35 -4 57 -20t22 -44q0 -36 -39 -59t-122 -24z" />
    <glyph glyph-name="scaron.alt" horiz-adv-x="359" 
d="M135 714l7 4l83 -100l123 100l5 -4l-143 -175zM205 286q57 -38 84.5 -73t27.5 -81q0 -64 -48 -101.5t-117 -37.5q-72 0 -112 34t-40 74q0 38 33 38q31 0 33 -42q1 -20 3.5 -33t10.5 -29.5t26 -25t46 -8.5q52 0 79 28t27 69q0 38 -22 63t-73 58q-100 63 -100 135
q0 54 38 88t100 34q64 0 99.5 -26.5t35.5 -58.5q0 -34 -30 -34t-36 41l-2 12q-1 13 -1.5 15t-3.5 12t-7.5 13t-11.5 8.5t-18 7t-25 1.5q-38 0 -64.5 -21t-26.5 -53q0 -22 13.5 -41.5t28.5 -30.5t53 -35z" />
    <glyph glyph-name="scommaaccent.alt" horiz-adv-x="359" 
d="M205 286q57 -38 84.5 -73t27.5 -81q0 -64 -48 -101.5t-117 -37.5q-72 0 -112 34t-40 74q0 38 33 38q31 0 33 -42q1 -20 3.5 -33t10.5 -29.5t26 -25t46 -8.5q52 0 79 28t27 69q0 38 -22 63t-73 58q-100 63 -100 135q0 54 38 88t100 34q64 0 99.5 -26.5t35.5 -58.5
q0 -34 -30 -34t-36 41l-2 12q-1 13 -1.5 15t-3.5 12t-7.5 13t-11.5 8.5t-18 7t-25 1.5q-38 0 -64.5 -21t-26.5 -53q0 -22 13.5 -41.5t28.5 -30.5t53 -35zM123 -54q44 0 44 -49q0 -33 -23.5 -56.5t-63.5 -31.5l-3 7q29 6 46.5 20t17.5 31q0 5 -1 7q-7 -7 -23 -7t-27 10.5
t-11 27.5q0 19 12.5 30t31.5 11z" />
    <glyph glyph-name="t.alt" horiz-adv-x="223" 
d="M-17 0l2 7q29 7 39 29.5t28 116.5l60 303h-44l1 8q54 7 85.5 38.5t52.5 114.5h8l-30 -151h81l-2 -10h-80l-59 -303q-19 -91 -16 -114.5t37 -31.5l-2 -7h-161z" />
    <glyph glyph-name="tcommaaccent.alt" horiz-adv-x="223" 
d="M-17 0l2 7q29 7 39 29.5t28 116.5l60 303h-44l1 8q54 7 85.5 38.5t52.5 114.5h8l-30 -151h81l-2 -10h-80l-59 -303q-19 -91 -16 -114.5t37 -31.5l-2 -7h-161zM43 -54q44 0 44 -49q0 -33 -23.5 -56.5t-63.5 -31.5l-3 7q29 6 46.5 20t17.5 31q0 5 -1 7q-7 -7 -23 -7
t-27 10.5t-11 27.5q0 19 12.5 30t31.5 11z" />
    <glyph glyph-name="tcaron.alt" horiz-adv-x="223" 
d="M247 529l-6 2l36 130q14 48 39 48q20 0 20 -22q0 -17 -16 -43zM-17 0l2 7q29 7 39 29.5t28 116.5l60 303h-44l1 8q54 7 85.5 38.5t52.5 114.5h8l-30 -151h81l-2 -10h-80l-59 -303q-19 -91 -16 -114.5t37 -31.5l-2 -7h-161z" />
    <glyph glyph-name="w.alt" horiz-adv-x="584" 
d="M119 -5l-35 360q-6 61 -15.5 80t-28.5 25l1 6h143l-1 -6q-22 -4 -27 -21t1 -81l22 -242l176 362h12l34 -373l122 230q28 53 34 80.5t-1.5 34t-30.5 10.5l1 6h109l-1 -6q-25 -6 -42 -26.5t-58 -98.5l-180 -340h-13l-32 365l-178 -365h-12z" />
    <glyph glyph-name="wcircumflex.alt" horiz-adv-x="584" 
d="M253 537l142 175l76 -175l-7 -4l-84 100l-122 -100zM119 -5l-35 360q-6 61 -15.5 80t-28.5 25l1 6h143l-1 -6q-22 -4 -27 -21t1 -81l22 -242l176 362h12l34 -373l122 230q28 53 34 80.5t-1.5 34t-30.5 10.5l1 6h109l-1 -6q-25 -6 -42 -26.5t-58 -98.5l-180 -340h-13
l-32 365l-178 -365h-12z" />
    <glyph glyph-name="wgrave.alt" horiz-adv-x="584" 
d="M416 535l-122 109q-17 17 -17 34q0 30 30 30q21 0 35 -29l81 -140zM119 -5l-35 360q-6 61 -15.5 80t-28.5 25l1 6h143l-1 -6q-22 -4 -27 -21t1 -81l22 -242l176 362h12l34 -373l122 230q28 53 34 80.5t-1.5 34t-30.5 10.5l1 6h109l-1 -6q-25 -6 -42 -26.5t-58 -98.5
l-180 -340h-13l-32 365l-178 -365h-12z" />
    <glyph glyph-name="wacute.alt" horiz-adv-x="584" 
d="M318 534l-5 5l103 143q20 27 41 27q11 0 18.5 -7t7.5 -18q0 -21 -26 -41zM119 -5l-35 360q-6 61 -15.5 80t-28.5 25l1 6h143l-1 -6q-22 -4 -27 -21t1 -81l22 -242l176 362h12l34 -373l122 230q28 53 34 80.5t-1.5 34t-30.5 10.5l1 6h109l-1 -6q-25 -6 -42 -26.5
t-58 -98.5l-180 -340h-13l-32 365l-178 -365h-12z" />
    <glyph glyph-name="wdieresis.alt" horiz-adv-x="584" 
d="M448 560q-18 0 -30.5 12.5t-12.5 31.5q0 18 12.5 30t30.5 12t30.5 -12t12.5 -30q0 -19 -12.5 -31.5t-30.5 -12.5zM290 560q-18 0 -30.5 12.5t-12.5 31.5q0 18 12.5 30t30.5 12t30.5 -12t12.5 -30q0 -19 -12.5 -31.5t-30.5 -12.5zM119 -5l-35 360q-6 61 -15.5 80t-28.5 25
l1 6h143l-1 -6q-22 -4 -27 -21t1 -81l22 -242l176 362h12l34 -373l122 230q28 53 34 80.5t-1.5 34t-30.5 10.5l1 6h109l-1 -6q-25 -6 -42 -26.5t-58 -98.5l-180 -340h-13l-32 365l-178 -365h-12z" />
    <glyph glyph-name="tbar.alt" horiz-adv-x="223" 
d="M-17 0l2 7q29 7 39 29.5t28 116.5l29 146h-39l1 9h40l29 148h-44l1 8q54 7 85.5 38.5t52.5 114.5h8l-30 -151h81l-2 -10h-80l-29 -148h79l-1 -9h-80l-28 -146q-19 -91 -16 -114.5t37 -31.5l-2 -7h-161z" />
    <glyph glyph-name="sacute.altpl" horiz-adv-x="359" 
d="M215 532l-6 3l44 138q12 39 38 39q10 0 18.5 -7.5t8.5 -21.5q0 -16 -14 -35zM205 286q57 -38 84.5 -73t27.5 -81q0 -64 -48 -101.5t-117 -37.5q-72 0 -112 34t-40 74q0 38 33 38q31 0 33 -42q1 -20 3.5 -33t10.5 -29.5t26 -25t46 -8.5q52 0 79 28t27 69q0 38 -22 63
t-73 58q-100 63 -100 135q0 54 38 88t100 34q64 0 99.5 -26.5t35.5 -58.5q0 -34 -30 -34t-36 41l-2 12q-1 13 -1.5 15t-3.5 12t-7.5 13t-11.5 8.5t-18 7t-25 1.5q-38 0 -64.5 -21t-26.5 -53q0 -22 13.5 -41.5t28.5 -30.5t53 -35z" />
    <glyph glyph-name="cacute.pl" horiz-adv-x="413" 
d="M279 532l-6 3l44 138q12 39 38 39q10 0 18.5 -7.5t8.5 -21.5q0 -16 -14 -35zM366 72q-65 -79 -163 -79q-78 0 -131 50t-53 151q0 114 76.5 197.5t193.5 83.5q57 0 90 -17.5t33 -45.5q0 -13 -8.5 -22t-23.5 -9q-26 0 -43 43q-11 29 -24 36q-11 5 -24 5q-88 0 -141 -90.5
t-53 -206.5q0 -162 122 -162q82 0 145 71z" />
    <glyph glyph-name="nacute.pl" horiz-adv-x="494" 
d="M288 532l-6 3l44 138q12 39 38 39q10 0 18.5 -7.5t8.5 -21.5q0 -16 -14 -35zM-20 0l1 7q30 7 39.5 29.5t27.5 116.5l25 129q19 96 14 110q-3 11 -29 14l2 8l125 62l-21 -109l36 29q100 78 170 78q51 0 74 -33.5t11 -91.5l-38 -196q-19 -91 -17.5 -114.5t29.5 -31.5l-2 -7
h-157l2 7q32 7 42 29.5t29 116.5l38 196q22 108 -38 108q-54 0 -145 -73l-37 -29l-39 -202q-10 -51 -13.5 -73t-2.5 -40t8 -23.5t23 -9.5l-1 -7h-156z" />
    <glyph glyph-name="oacute.pl" horiz-adv-x="497" 
d="M287 532l-6 3l44 138q12 39 38 39q10 0 18.5 -7.5t8.5 -21.5q0 -16 -14 -35zM27 194q0 49 17.5 98t49 90.5t83 67.5t113.5 26q84 0 132 -60.5t48 -141.5q0 -66 -30 -130t-91.5 -108.5t-138.5 -44.5q-89 0 -136 60t-47 143zM394 301q0 75 -26.5 121t-77.5 46
q-58 0 -102 -47.5t-64.5 -114t-20.5 -137.5q0 -77 26 -123.5t81 -46.5q81 0 132.5 96t51.5 206z" />
    <glyph glyph-name="sacute.pl" horiz-adv-x="357" 
d="M205 532l-6 3l44 138q12 39 38 39q10 0 18.5 -7.5t8.5 -21.5q0 -16 -14 -35zM315 132q0 -64 -48.5 -101.5t-115.5 -37.5q-44 0 -85.5 20t-51.5 20q-14 0 -21 -20h-9l27 134h8q-1 -69 36 -107.5t96 -38.5q51 0 78 28t27 69q0 38 -22 63t-73 58q-100 63 -100 135
q0 54 38 88t100 34q30 0 52.5 -9t36 -18.5t23.5 -9.5q15 0 23 22h9l-19 -105h-9q-6 57 -39 84t-77 27q-38 0 -64.5 -21t-26.5 -53q0 -17 5 -30t22 -28t26.5 -21.5t41.5 -27.5q57 -38 84.5 -73t27.5 -81z" />
    <glyph glyph-name="zacute.pl" horiz-adv-x="410" 
d="M248 532l-6 3l44 138q12 39 38 39q10 0 18.5 -7.5t8.5 -21.5q0 -16 -14 -35zM324 -10q-19 10 -124 10h-226l358 458h-131q-37 0 -63.5 -14t-39 -29.5t-33.5 -49.5h-8l42 111q21 -10 125 -10h200l-361 -458h141q64 0 92.5 24.5t63.5 89.5h7z" />
    <glyph glyph-name="f.short" horiz-adv-x="220" 
d="M-21 0l2 7q30 8 39.5 30t27.5 116l60 303h-48l1 8q33 5 44 21t22 72l9 44q21 108 76 144q24 17 56 17q26 0 39 -11t13 -27q0 -13 -8.5 -22t-23.5 -9q-26 0 -37 30q-7 18 -20 18q-22 0 -35 -25t-13 -60q0 -8 9 -58.5t-2 -91.5l-7 -40h89l-1 -10h-90l-59 -303
q-18 -91 -14 -114.5t44 -31.5l-2 -7h-171z" />
    <glyph glyph-name="f_f.short" horiz-adv-x="440" 
d="M-17 0l2 7q29 7 39 29.5t28 116.5l60 303h-49l1 8q35 4 46 17.5t21 61.5l4 21q21 100 73.5 146t112.5 46q32 0 54.5 -11t27.5 -27q13 16 29 27q24 17 56 17q26 0 39 -11t13 -27q0 -13 -8.5 -22t-23.5 -9q-26 0 -37 30q-7 18 -20 18q-22 0 -35 -25t-13 -60q0 -8 9 -58.5
t-2 -91.5l-7 -40h89l-1 -10h-90l-59 -303q-18 -91 -14 -114.5t44 -31.5l-2 -7h-171l2 7q30 8 39.5 30t27.5 116l60 303h-143l-60 -303q-18 -89 -14 -113t44 -33l-2 -7h-170zM187 466h143l26 133q8 45 25 82h-2q-28 0 -31 29q-2 20 -9 28t-27 8q-33 0 -57 -30t-40 -109z" />
    <glyph glyph-name="caron.alt" horiz-adv-x="490" 
d="M287 583l-6 2l36 130q14 48 39 48q20 0 20 -22q0 -17 -16 -43z" />
    <glyph glyph-name="circumflex.uc" horiz-adv-x="447" 
d="M207 782l144 106l103 -106l-4 -5l-111 50l-127 -50z" />
    <glyph glyph-name="caron.uc" horiz-adv-x="447" 
d="M227 885l5 5l109 -50l129 50l5 -5l-146 -106z" />
    <glyph glyph-name="four.alt" horiz-adv-x="569" 
d="M256 7q35 9 49 38t37 145h-326l1 7l443 553h11l-405 -505h287q0 1 0.5 3.5t0.5 3.5l47 239l104 132l-72 -371l-1 -7h119l-42 -55h-88q-11 -63 -15.5 -94.5t-2 -51.5t9.5 -26t24 -11l-1 -7h-182z" />
    <glyph glyph-name="hyphen.uc" horiz-adv-x="274" 
d="M62 348l14 50h189l-14 -50h-189z" />
    <glyph glyph-name="endash.uc" horiz-adv-x="491" 
d="M64 370v13h418v-13h-418z" />
    <glyph glyph-name="emdash.uc" horiz-adv-x="865" 
d="M63 370v13h793v-13h-793z" />
    <glyph glyph-name="parenleft.uc" horiz-adv-x="298" 
d="M220 -96q-160 165 -129 415q10 92 43 173.5t80.5 141.5t90.5 100t91 72l5 -6q-54 -40 -101 -99t-91 -165.5t-58 -235.5q-35 -263 76 -390z" />
    <glyph glyph-name="bracketleft.uc" horiz-adv-x="258" 
d="M189 804h164l-2 -9h-112l-170 -877h112l-2 -9h-164z" />
    <glyph glyph-name="braceleft.uc" horiz-adv-x="278" 
d="M205 -88l-2 -7q-86 0 -133.5 29.5t-40.5 85.5q4 37 35 85.5t62 94.5t34 78q4 34 -18.5 54t-88.5 20v9q44 0 73 8.5t42 24t18 28t6 29.5q4 32 -16 107.5t-15 112.5q7 67 67 101.5t151 34.5l-2 -8q-146 -2 -159 -120q-5 -35 7.5 -109t8.5 -105q-11 -96 -128 -109
q52 -6 73 -28.5t16 -59.5q-4 -38 -54 -122t-55 -129q-14 -103 119 -105z" />
    <glyph glyph-name="parenright.uc" horiz-adv-x="295" 
d="M-54 -90q39 29 75.5 70.5t73 102t63.5 146t38 183.5q35 262 -76 389l7 5q160 -165 129 -413q-31 -297 -306 -489z" />
    <glyph glyph-name="bracketright.uc" horiz-adv-x="262" 
d="M286 804l-174 -895h-164l2 9h112l170 877h-112l2 9h164z" />
    <glyph glyph-name="braceright.uc" horiz-adv-x="274" 
d="M116 799l2 8q86 0 133 -29.5t40 -85.5q-5 -46 -65.5 -134t-64.5 -125q-4 -34 18 -53.5t88 -19.5v-9q-44 0 -73 -8.5t-42 -24t-17.5 -28t-5.5 -29.5q-4 -32 16 -108t15 -113q-7 -66 -67.5 -100.5t-150.5 -34.5l2 7q146 3 159 121q5 34 -7.5 108t-8.5 105q10 98 128 109
q-52 7 -73 29.5t-16 58.5q3 38 53.5 122.5t55.5 128.5q14 105 -119 105z" />
    <glyph glyph-name="guillemotleft.uc" horiz-adv-x="335" 
d="M274 161l-99 159l1 8l160 159l5 -4l-102 -161l42 -157zM158 161l-99 159l1 8l160 159l5 -4l-102 -161l42 -157z" />
    <glyph glyph-name="guilsinglleft.uc" horiz-adv-x="219" 
d="M158 161l-99 159l1 8l161 159l5 -4l-97 -161l36 -157z" />
    <glyph glyph-name="guillemotright.uc" horiz-adv-x="337" 
d="M33 161l-5 4l104 157l-42 161l8 4l98 -159l-1 -8zM149 161l-5 4l103 157l-41 161l7 4l99 -159l-1 -8z" />
    <glyph glyph-name="guilsinglright.uc" horiz-adv-x="221" 
d="M33 161l-5 4l99 157l-37 161l8 4l98 -159v-8z" />
    <glyph glyph-name="ampersand.alt" horiz-adv-x="721" 
d="M570 325l-67 -109q97 -149 118 -173q25 -29 49 -36l-1 -7h-115l-96 145q-52 -79 -106 -117t-129 -38q-95 0 -148.5 51.5t-53.5 132.5q0 179 250 253q-50 82 -50 151q0 79 50.5 130.5t130.5 51.5q40 0 72 -15.5t37 -15.5q17 0 30 25h9l-26 -130h-9q-1 64 -32 95.5
t-81 31.5q-54 0 -86 -33t-32 -92q0 -47 19.5 -91.5t60.5 -106.5l114 -174q4 -6 10.5 -16t8.5 -13l62 100q4 6 11 18q44 73 44 90q1 19 -34 25v8h145v-8q-34 -8 -50 -14.5t-43.5 -35t-61.5 -83.5zM102 185q0 -76 39 -126t113 -50q103 0 199 144l-135 204l-42 63
q-71 -26 -122.5 -85t-51.5 -150z" />
    <glyph glyph-name="asterisk.small" horiz-adv-x="294" 
d="M168 539q-27 -24 -42 -5q-18 19 10 42q11 10 41 25.5t44 24.5q-17 6 -47.5 14.5t-42.5 14.5q-30 15 -18 39q13 22 42 4q12 -8 33.5 -31t36.5 -35q1 18 -1.5 54.5t1.5 44.5q3 15 11.5 23t19.5 6q23 -6 17 -39q-3 -14 -19.5 -43.5t-22.5 -46.5q22 5 50.5 17t41.5 14
q35 3 37 -22q2 -11 -7 -19t-25 -9q-15 -1 -46.5 5t-49.5 7q8 -11 30.5 -39.5t28.5 -41.5q13 -33 -8 -43q-24 -10 -37 21q-6 14 -11 49.5t-9 50.5q-12 -14 -30 -43.5t-28 -38.5z" />
    <glyph glyph-name="slash.uc" horiz-adv-x="412" 
d="M486 790l13 -7l-524 -844l-13 6z" />
    <glyph glyph-name="at.uc" horiz-adv-x="848" 
d="M393 -40q-152 0 -247.5 81.5t-95.5 242.5q0 103 41 193.5t109.5 152t159.5 96.5t189 35q140 0 222 -73t82 -197q0 -63 -21.5 -124t-63 -115t-113 -87t-162.5 -33h-23l28 93l-24 -22q-45 -42 -70 -57t-58 -15q-51 0 -82.5 38.5t-31.5 113.5q0 91 46 165t110 110.5
t128 36.5q36 0 69 -17.5t45 -17.5q28 0 43 25h7l-83 -276q-35 -110 -35 -134q0 -42 83 -3q87 39 132 121t45 180q0 124 -77 198.5t-205 74.5q-123 0 -224.5 -50.5t-165 -154t-63.5 -242.5q0 -159 86 -243t226 -84q170 0 281 99l4 -6q-115 -105 -291 -105zM307 254
q0 -107 57 -107q22 0 44.5 13t63.5 51l30 27l78 262q11 37 -2 59q-16 28 -63 28q-78 0 -143 -98t-65 -235z" />
    <glyph glyph-name="backslash.uc" horiz-adv-x="421" 
d="M145 790l201 -846l-14 -7l-201 846z" />
    <glyph glyph-name="exclamdown.uc" horiz-adv-x="215" 
d="M201 760q21 0 35 -13.5t14 -34.5t-14.5 -35t-34.5 -14q-21 0 -35 14t-14 35t14 34.5t35 13.5zM178 559q-30 -179 -41.5 -337t-13.5 -172q-9 -56 -54 -56q-43 0 -43 50q0 30 20.5 92t57 179t64.5 244h10z" />
    <glyph glyph-name="questiondown.uc" horiz-adv-x="381" 
d="M315 760q21 0 35 -13.5t14 -34.5t-14.5 -35t-34.5 -14q-21 0 -35 14t-14 35t14 34.5t35 13.5zM-7 127q0 47 25.5 91t64.5 81.5t80 74.5t77.5 85.5t51.5 99.5h9q-13 -55 -41.5 -106t-60 -89t-61.5 -76.5t-49.5 -85t-19.5 -97.5q0 -102 87 -102q28 0 43.5 8.5t30.5 26.5
q5 7 14.5 25t19 27t25.5 9q13 0 20.5 -8.5t7.5 -19.5q0 -30 -44 -53.5t-115 -23.5q-78 0 -121.5 35.5t-43.5 97.5z" />
    <glyph glyph-name="arrowleft.001" horiz-adv-x="754" 
d="M62 360l365 226l5 -7l-253 -218h574v-10h-574l253 -218l-5 -7l-365 226v8z" />
    <glyph glyph-name="arrowright.001" horiz-adv-x="764" 
d="M70 351v10h573l-252 218l5 7l365 -226v-8l-365 -226l-5 7l252 218h-573z" />
    <glyph glyph-name="arrowleft.002" horiz-adv-x="960" 
d="M62 358l279 255h15l-275 -252h460l107 139h14l-107 -139h57l107 139h13l-107 -139h57l107 139h14l-107 -139h57l107 139h13l-107 -139h57l107 139h13l-111 -144l111 -134h-13l-107 129h-57l107 -129h-13l-107 129h-57l107 -129h-14l-107 129h-57l107 -129h-13l-107 129
h-57l107 -129h-14l-107 129h-459l274 -242h-15l-279 245v4z" />
    <glyph glyph-name="arrowright.002" horiz-adv-x="956" 
d="M951 354l-279 -245h-15l273 242h-458l-107 -129h-14l107 129h-57l-107 -129h-13l107 129h-57l-107 -129h-14l107 129h-57l-107 -129h-13l107 129h-57l-107 -129h-13l111 134l-111 144h13l107 -139h57l-107 139h13l107 -139h57l-107 139h14l107 -139h57l-107 139h13
l107 -139h57l-107 139h14l107 -139h459l-274 252h15l279 -255v-4z" />
    <glyph glyph-name="arrowleft.003" horiz-adv-x="960" 
d="M62 352v8l276 248l7 -6l-183 -241h379l107 139h14l-107 -139h57l107 139h13l-107 -139h57l107 139h14l-107 -139h57l107 139h13l-107 -139h57l107 139h13l-111 -144l111 -134h-13l-107 129h-57l107 -129h-13l-107 129h-57l107 -129h-14l-107 129h-57l107 -129h-13
l-107 129h-57l107 -129h-14l-107 129h-379l183 -231l-7 -6z" />
    </font>
</defs>
</svg>
