<?xml version="1.0" encoding="utf-8"?>
<!-- Generator: Adobe Illustrator 14.0.0, SVG Export Plug-In . SVG Version: 6.00 Build 43363)  -->
<!DOCTYPE svg PUBLIC "-//W3C//DTD SVG 1.1//EN" "http://www.w3.org/Graphics/SVG/1.1/DTD/svg11.dtd">
<svg version="1.1" id="Layer_1" xmlns="http://www.w3.org/2000/svg" xmlns:xlink="http://www.w3.org/1999/xlink" x="0px" y="0px"
	 width="38px" height="16.581px" viewBox="0 0 38 16.581" enable-background="new 0 0 38 16.581" xml:space="preserve">
<path fill="#FFFFFF" d="M36.507,6.396H11.59V5.795C11.59,2.607,8.982,0,5.795,0C2.608,0,0,2.607,0,5.795v4.189
	c0,3.187,2.608,5.794,5.795,5.794c3.188,0,5.795-2.607,5.795-5.794V9.382h15.883c-0.162,0.895-0.938,1.573-1.88,1.573v5.626h2.898
	v-3.574h2.896v3.574h2.897v-5.626c-0.94,0-1.717-0.679-1.879-1.573h4.101C37.331,9.382,38,8.713,38,7.889S37.331,6.396,36.507,6.396
	 M8.603,9.984c0,1.548-1.26,2.808-2.808,2.808s-2.808-1.26-2.808-2.808V5.795c0-1.549,1.26-2.809,2.808-2.809
	s2.808,1.26,2.808,2.809V9.984z"/>
</svg>
