<?xml version="1.0" encoding="utf-8"?>
<!-- Generator: Adobe Illustrator 14.0.0, SVG Export Plug-In . SVG Version: 6.00 Build 43363)  -->
<!DOCTYPE svg PUBLIC "-//W3C//DTD SVG 1.1//EN" "http://www.w3.org/Graphics/SVG/1.1/DTD/svg11.dtd">
<svg version="1.1" id="Layer_1" xmlns="http://www.w3.org/2000/svg" xmlns:xlink="http://www.w3.org/1999/xlink" x="0px" y="0px"
	 width="102.657px" height="153.984px" viewBox="0 0 102.657 153.984" enable-background="new 0 0 102.657 153.984"
	 xml:space="preserve">
<path fill="#03694F" d="M51.329,0C35.619,0,0,7.887,0,44.268c0,31.103,42.87,78.614,42.87,78.614h8.458h8.457
	c0,0,42.871-47.512,42.871-78.614C102.657,7.887,67.038,0,51.329,0"/>
<path fill="#46A487" d="M51.329,0c-10.802,0-35.29,7.887-35.29,44.268c0,31.103,29.474,78.614,29.474,78.614h5.815h5.814
	c0,0,29.475-47.512,29.475-78.614C86.618,7.887,62.129,0,51.329,0"/>
<path fill="#03694F" d="M51.329,0c-4.695,0-15.339,7.887-15.339,44.268c0,31.103,12.811,78.614,12.811,78.614h2.528h2.527
	c0,0,12.811-47.512,12.811-78.614C66.667,7.887,56.023,0,51.329,0"/>
<path fill="#46A487" d="M62.841,134.521v15.646c0,2.1-1.717,3.817-3.815,3.817H43.378c-2.099,0-3.816-1.718-3.816-3.817v-15.646"/>
<line fill="none" stroke="#03694F" stroke-width="1.6" stroke-miterlimit="10" x1="59.024" y1="122.882" x2="59.024" y2="134.521"/>
<line fill="none" stroke="#03694F" stroke-width="1.6" stroke-miterlimit="10" x1="43.633" y1="122.882" x2="43.633" y2="134.521"/>
<path fill="#03694F" d="M54.257,143.702h0.003c-0.003-0.008-0.01-0.014-0.014-0.021c-0.006-0.008-0.012-0.015-0.018-0.023
	c-0.713-1.203-2.717-2.19-2.717-2.991c0-0.357,0.176-0.495,0.237-0.633l0.008-0.031c0.049-0.097,0.082-0.202,0.082-0.318
	c0-0.396-0.322-0.719-0.719-0.719c-0.398,0-0.72,0.322-0.72,0.719c0,0.116,0.033,0.222,0.082,0.318l0.008,0.031
	c0.062,0.138,0.237,0.275,0.237,0.633c0,0.801-2.003,1.788-2.717,2.991c-0.005,0.009-0.011,0.016-0.017,0.023
	c-0.004,0.007-0.01,0.013-0.014,0.021h0.003c-0.394,0.596-0.626,1.307-0.626,2.074c0,2.077,1.685,3.764,3.764,3.764
	c2.078,0,3.763-1.687,3.763-3.764C54.883,145.009,54.651,144.298,54.257,143.702"/>
<path fill="#03694F" d="M43.158,143.702h0.003c-0.004-0.008-0.01-0.014-0.015-0.021c-0.005-0.008-0.01-0.015-0.016-0.023
	c-0.713-1.203-2.717-2.19-2.717-2.991c0-0.357,0.175-0.495,0.237-0.633l0.008-0.031c0.048-0.097,0.082-0.202,0.082-0.318
	c0-0.396-0.322-0.719-0.72-0.719c-0.397,0-0.719,0.322-0.719,0.719c0,0.116,0.033,0.222,0.082,0.318l0.008,0.031
	c0.061,0.138,0.237,0.275,0.237,0.633c0,0.801-2.004,1.788-2.717,2.991c-0.006,0.009-0.012,0.016-0.018,0.023
	c-0.003,0.007-0.009,0.013-0.013,0.021h0.003c-0.394,0.596-0.626,1.307-0.626,2.074c0,2.077,1.685,3.764,3.763,3.764
	c2.079,0,3.764-1.687,3.764-3.764C43.784,145.009,43.552,144.298,43.158,143.702"/>
<path fill="#03694F" d="M65.358,143.702h0.002c-0.004-0.008-0.01-0.014-0.014-0.021c-0.006-0.008-0.011-0.015-0.017-0.023
	c-0.714-1.203-2.718-2.19-2.718-2.991c0-0.357,0.176-0.495,0.237-0.633l0.009-0.031c0.047-0.097,0.082-0.202,0.082-0.318
	c0-0.396-0.322-0.719-0.721-0.719c-0.396,0-0.719,0.322-0.719,0.719c0,0.116,0.033,0.222,0.082,0.318l0.008,0.031
	c0.061,0.138,0.236,0.275,0.236,0.633c0,0.801-2.004,1.788-2.717,2.991c-0.006,0.009-0.011,0.016-0.017,0.023
	c-0.004,0.007-0.01,0.013-0.014,0.021h0.003c-0.395,0.596-0.626,1.307-0.626,2.074c0,2.077,1.685,3.764,3.763,3.764
	c2.079,0,3.764-1.687,3.764-3.764C65.983,145.009,65.751,144.298,65.358,143.702"/>
<path fill="#03694F" d="M51.329,0C35.619,0,0,7.887,0,44.268c0,31.103,42.87,78.614,42.87,78.614h8.458h8.457
	c0,0,42.871-47.512,42.871-78.614C102.657,7.887,67.038,0,51.329,0"/>
<path fill="#46A487" d="M51.329,0c-10.802,0-35.29,7.887-35.29,44.268c0,31.103,29.474,78.614,29.474,78.614h5.815h5.814
	c0,0,29.475-47.512,29.475-78.614C86.618,7.887,62.129,0,51.329,0"/>
<path fill="#03694F" d="M51.329,0c-4.695,0-15.339,7.887-15.339,44.268c0,31.103,12.811,78.614,12.811,78.614h2.528h2.527
	c0,0,12.811-47.512,12.811-78.614C66.667,7.887,56.023,0,51.329,0"/>
<path fill="#46A487" d="M62.841,134.521v15.646c0,2.1-1.717,3.817-3.815,3.817H43.378c-2.099,0-3.816-1.718-3.816-3.817v-15.646"/>
<line fill="none" stroke="#03694F" stroke-width="1.6" stroke-miterlimit="10" x1="59.024" y1="122.882" x2="59.024" y2="134.521"/>
<line fill="none" stroke="#03694F" stroke-width="1.6" stroke-miterlimit="10" x1="43.633" y1="122.882" x2="43.633" y2="134.521"/>
<path fill="#03694F" d="M54.257,143.702h0.003c-0.003-0.008-0.01-0.014-0.014-0.021c-0.006-0.008-0.012-0.015-0.018-0.023
	c-0.713-1.203-2.717-2.19-2.717-2.991c0-0.357,0.176-0.495,0.237-0.633l0.008-0.031c0.049-0.097,0.082-0.202,0.082-0.318
	c0-0.396-0.322-0.719-0.719-0.719c-0.398,0-0.72,0.322-0.72,0.719c0,0.116,0.033,0.222,0.082,0.318l0.008,0.031
	c0.062,0.138,0.237,0.275,0.237,0.633c0,0.801-2.003,1.788-2.717,2.991c-0.005,0.009-0.011,0.016-0.017,0.023
	c-0.004,0.007-0.01,0.013-0.014,0.021h0.003c-0.394,0.596-0.626,1.307-0.626,2.074c0,2.077,1.685,3.764,3.764,3.764
	c2.078,0,3.763-1.687,3.763-3.764C54.883,145.009,54.651,144.298,54.257,143.702"/>
<path fill="#03694F" d="M43.158,143.702h0.003c-0.004-0.008-0.01-0.014-0.015-0.021c-0.005-0.008-0.01-0.015-0.016-0.023
	c-0.713-1.203-2.717-2.19-2.717-2.991c0-0.357,0.175-0.495,0.237-0.633l0.008-0.031c0.048-0.097,0.082-0.202,0.082-0.318
	c0-0.396-0.322-0.719-0.72-0.719c-0.397,0-0.719,0.322-0.719,0.719c0,0.116,0.033,0.222,0.082,0.318l0.008,0.031
	c0.061,0.138,0.237,0.275,0.237,0.633c0,0.801-2.004,1.788-2.717,2.991c-0.006,0.009-0.012,0.016-0.018,0.023
	c-0.003,0.007-0.009,0.013-0.013,0.021h0.003c-0.394,0.596-0.626,1.307-0.626,2.074c0,2.077,1.685,3.764,3.763,3.764
	c2.079,0,3.764-1.687,3.764-3.764C43.784,145.009,43.552,144.298,43.158,143.702"/>
<path fill="#03694F" d="M65.358,143.702h0.002c-0.004-0.008-0.01-0.014-0.014-0.021c-0.006-0.008-0.011-0.015-0.017-0.023
	c-0.714-1.203-2.718-2.19-2.718-2.991c0-0.357,0.176-0.495,0.237-0.633l0.009-0.031c0.047-0.097,0.082-0.202,0.082-0.318
	c0-0.396-0.322-0.719-0.721-0.719c-0.396,0-0.719,0.322-0.719,0.719c0,0.116,0.033,0.222,0.082,0.318l0.008,0.031
	c0.061,0.138,0.236,0.275,0.236,0.633c0,0.801-2.004,1.788-2.717,2.991c-0.006,0.009-0.011,0.016-0.017,0.023
	c-0.004,0.007-0.01,0.013-0.014,0.021h0.003c-0.395,0.596-0.626,1.307-0.626,2.074c0,2.077,1.685,3.764,3.763,3.764
	c2.079,0,3.764-1.687,3.764-3.764C65.983,145.009,65.751,144.298,65.358,143.702"/>
</svg>
