<?xml version="1.0" encoding="utf-8"?>
<!-- Generator: Adobe Illustrator 14.0.0, SVG Export Plug-In . SVG Version: 6.00 Build 43363)  -->
<!DOCTYPE svg PUBLIC "-//W3C//DTD SVG 1.1//EN" "http://www.w3.org/Graphics/SVG/1.1/DTD/svg11.dtd">
<svg version="1.1" id="Layer_1" xmlns="http://www.w3.org/2000/svg" xmlns:xlink="http://www.w3.org/1999/xlink" x="0px" y="0px"
	 width="75.33px" height="46.465px" viewBox="0 0 75.33 46.465" enable-background="new 0 0 75.33 46.465" xml:space="preserve">
<path fill="#052D3E" d="M75.33,46.465c-6.892-3.42-11.941-6.014-17.265-7.508c-2.225-0.75-5.327-0.141-7.586,0.726
	c-12.482,4.789-23.805,3.665-34.022-5.479c-1.512-1.353-3.728-1.92-5.618-2.849c-1.82-0.896-3.577-1.978-5.48-2.626
	C3.812,28.2,2.087,28.19,0,27.886c2.813-2.96,5.173-6.562,8.489-8.631c3.661-2.285,7.777-0.181,11.667,1.18
	c2.609,0.912,3.088,0.551,3.336,0.133s-0.04-2.084-0.382-3.006C20.625,10.877,16.654,5.182,11.6,0
	c4.65,0.266,9.979,3.867,12.439,6.644c-0.127-0.772-0.299-1.407-0.736-2.717c3.769,1.292,6.775,4.441,8.464,7.003
	c0.17-0.347,0.561-0.868,0.807-2.1c3.045,1.814,5.976,6.265,7.747,10.009c2.823-1.81,17.48-11.239,30.112-17.852
	c-0.041,2.75-2.687,10.854-6.187,13.854c1.37-0.212,4.698-0.873,6.812-0.563c-0.844,2.969-3.295,5.717-5.312,7.376
	c0.952,0.146,1.725,0.006,3.312,0.25c-1.975,2.7-5.816,5.497-9.213,6.338C66.831,32.677,72.138,39.193,75.33,46.465"/>
<path fill="#EBC21D" d="M24.925,24.493c0,0-0.865,4.711,4.446,8.072c3.843,2.433,10.218,2.883,18.646,1.151
	c6.896-1.417,12.434,5.293,12.365,5.966c-1.964-0.683-4.463-1.539-8.575-0.266c-3.673,1.137-10.577,4.178-19.398,2.72
	c-8.669-1.432-11.858-4.958-11.858-4.958S17.772,28.922,24.925,24.493"/>
<path fill="#E16E87" d="M22.384,38.551c0,0-1.585-1.918-1.7-5.147c-0.209-5.792,4.559-10.832,9.5-10.832
	c-4.64-1.469-4.552-1.203-8.32-1.651c-2.252-0.267-7.069-3.09-10.376-2.647c-2.595,0.346-5.052,1.318-8.743,6.482
	c3.094,0.228,5.512,1.809,5.512,1.809l-0.764,3.209c0,0,4.786,0.583,7.788,3.588C17.437,35.521,21.198,37.984,22.384,38.551"/>
<path fill="#FFFFFF" d="M5.358,28.729c0,0,4.481-6.955,10.824-3.617c3.167,1.667-0.211,7.288,0.274,9.092
	C9.824,30.836,5.358,28.729,5.358,28.729"/>
<path fill="#FFFFFF" d="M58.438,23.821c2.052-1.414,4.326-3.417,5.525-6.056c-2.558-0.067-5.692,0.796-8.931,2.084
	c2.155-1.623,5.22-6.789,6.066-9.653c-6.541,3.827-24.939,15.993-33.011,15.993c0,3.465,4.886,5.781,10.966,5.781
	c3.94,0,12.091-1.598,13.612-2.019c1.922-0.531,7.933-2.755,10.422-6.297C61.781,23.5,60.003,23.615,58.438,23.821"/>
</svg>
