<?xml version="1.0" encoding="utf-8"?>
<!-- Generator: Adobe Illustrator 14.0.0, SVG Export Plug-In . SVG Version: 6.00 Build 43363)  -->
<!DOCTYPE svg PUBLIC "-//W3C//DTD SVG 1.1//EN" "http://www.w3.org/Graphics/SVG/1.1/DTD/svg11.dtd">
<svg version="1.1" id="Layer_1" xmlns="http://www.w3.org/2000/svg" xmlns:xlink="http://www.w3.org/1999/xlink" x="0px" y="0px"
	 width="74.21px" height="57.521px" viewBox="0 0 74.21 57.521" enable-background="new 0 0 74.21 57.521" xml:space="preserve">
<path fill="#052D3E" d="M3.658,57.521c6.134-4.646,10.613-8.132,15.565-10.592c2.045-1.15,5.207-1.132,7.588-0.7
	c13.157,2.38,24.071-0.832,32.407-11.721c1.232-1.609,3.305-2.578,4.988-3.844c1.622-1.219,3.146-2.608,4.896-3.602
	c1.422-0.807,3.113-1.138,5.107-1.825c-3.316-2.385-6.304-5.484-9.947-6.9c-4.022-1.562-7.676,1.271-11.244,3.332
	c-2.394,1.383-2.93,1.117-3.252,0.752c-0.321-0.365-0.35-2.054-0.185-3.024C50.778,12.368,53.619,6.033,57.62,0
	c-4.52,1.127-9.084,5.658-10.984,8.845c-0.02-0.782,0.032-1.438,0.217-2.807c-3.461,1.971-5.828,5.625-7.012,8.456
	c-0.229-0.309-0.711-0.748-1.183-1.912c-2.654,2.35-4.705,7.269-5.748,11.276C29.798,22.605,13.642,16.071,0,11.926
	c0.553,2.695,4.661,10.164,8.659,12.459c-1.385,0.047-4.779,0.017-6.798,0.717c1.382,2.76,4.302,5.003,6.593,6.256
	c-0.909,0.321-1.693,0.328-3.208,0.863c2.443,2.283,6.739,4.317,10.232,4.513C9.44,42.392,5.44,49.781,3.658,57.521"/>
<path fill="#EBC21D" d="M49.091,26.546c0,0,1.727,4.467-2.867,8.759c-3.322,3.106-9.501,4.735-18.104,4.603
	c-7.039-0.106-11.23,7.518-11.039,8.164c1.803-1.034,4.099-2.341,8.377-1.856c3.82,0.433,11.17,2.134,19.565-0.94
	c8.251-3.021,10.729-7.08,10.729-7.08S56.942,29.567,49.091,26.546"/>
<path fill="#E16E87" d="M54.204,39.885c0,0,1.2-2.179,0.712-5.373c-0.874-5.73-6.496-9.794-11.351-8.874
	c4.285-2.307,4.248-2.028,7.867-3.171c2.164-0.683,6.369-4.352,9.701-4.533c2.614-0.143,5.209,0.354,9.797,4.742
	c-2.996,0.799-5.078,2.802-5.078,2.802l1.349,3.011c0,0-4.595,1.464-6.983,4.975C58.5,35.986,55.263,39.107,54.204,39.885"/>
<path fill="#FFFFFF" d="M69.103,27.063c0,0-5.699-5.998-11.309-1.537c-2.801,2.227,1.564,7.121,1.423,8.982
	C65.108,29.966,69.103,27.063,69.103,27.063"/>
<path fill="#FFFFFF" d="M16.037,32.127c-2.28-1.007-4.886-2.552-6.558-4.921c2.501-0.543,5.743-0.278,9.164,0.385
	c-2.419-1.193-6.393-5.698-7.758-8.356c7.139,2.543,27.481,11.069,35.411,9.566c0.645,3.405-3.723,6.591-9.697,7.724
	c-3.872,0.733-12.177,0.681-13.75,0.551c-1.988-0.164-8.307-1.229-11.413-4.246C12.692,32.434,14.462,32.216,16.037,32.127"/>
</svg>
