<?xml version="1.0" encoding="utf-8"?>
<!-- Generator: Adobe Illustrator 14.0.0, SVG Export Plug-In . SVG Version: 6.00 Build 43363)  -->
<!DOCTYPE svg PUBLIC "-//W3C//DTD SVG 1.1//EN" "http://www.w3.org/Graphics/SVG/1.1/DTD/svg11.dtd">
<svg version="1.1" id="Layer_1" xmlns="http://www.w3.org/2000/svg" xmlns:xlink="http://www.w3.org/1999/xlink" x="0px" y="0px"
	 width="88.259px" height="67.552px" viewBox="0 0 88.259 67.552" enable-background="new 0 0 88.259 67.552" xml:space="preserve">
<path fill="#052D3E" d="M69.376,32.464c1.323,0.747,6.141,2.489,8.155,4.266c-2.835,0.938-9.505,1.08-14.635-0.54
	c1.619,0.833,3.331,2.278,3.996,4.267c-5.292,1.404-10.585-0.162-13.286-1.553c1.514,1.553,2.156,2.756,2.593,5.279
	c-3.672,1.188-10.639-1.404-13.951-2.156c-8.352,8.528-18.235,6.53-19.916,8.613C16.822,57.469,12.727,66.865,0,67.552
	C7.218,56.011,35.895,17.779,45.028,6.479c2.048-2.534,5.07-5.401,8.13-6.129c3.096-0.739,6.655-0.568,8.992,3.079
	c1.073,1.673,3.691,2.354,5.348,3.33c-3.968,2.309-8.004,3.581-12.133,7.177c-0.904,0.788-1.76,2.365-1.777,3.602
	c-0.012,0.745,1.504,1.855,2.537,2.217c6.651,2.335,24.971,7.128,32.135,10.927C83.31,34.084,72.292,33.193,69.376,32.464"/>
<path fill="#E16E87" d="M53.969,18.318c0,0-11.613-7.153-17.571-0.779C41.269,11.629,46.929,0,55.785,0
	c5.113,0,7.143,4.296,7.143,4.296s-3.541,1.4-4.189,3.848C58.222,10.093,50.785,14.305,53.969,18.318"/>
<path fill="#FFFFFF" d="M62.536,9.331c0,0-7.146-2.572-11.034-1.816c-3.888,0.755-4.699,4.104-3.888,5.778
	c0.81,1.674,4.387,0.122,5.973,4.246C53.698,14.769,55.822,12.897,62.536,9.331"/>
<path fill="#EBC21D" d="M42.249,42.027c0,0-9.361-8.104-14.833-2.776c-5.473,5.328-7.169,10.728-7.905,15.156
	c1.913-2.147,3.512-4.644,7.184-5.147C35.96,47.988,39.152,45.803,42.249,42.027"/>
</svg>
