<?xml version="1.0" encoding="utf-8"?>
<!-- Generator: Adobe Illustrator 14.0.0, SVG Export Plug-In . SVG Version: 6.00 Build 43363)  -->
<!DOCTYPE svg PUBLIC "-//W3C//DTD SVG 1.1//EN" "http://www.w3.org/Graphics/SVG/1.1/DTD/svg11.dtd">
<svg version="1.1" id="Layer_1" xmlns="http://www.w3.org/2000/svg" xmlns:xlink="http://www.w3.org/1999/xlink" x="0px" y="0px"
	 width="56.05px" height="80.5px" viewBox="0 0 56.05 80.5" enable-background="new 0 0 56.05 80.5" xml:space="preserve">
<path fill="#052D3E" d="M7.953,38.365c-1.248,0.186-2.983,0.271-5.464,0.738c2.341,4.041,9.167,8.287,14.755,8.259
	C8.726,58.138,6.726,68.334,3.815,80.5c4.403-0.291,12.398-0.653,18.075-1.132c-1.236-3.908-3.291-6.775-3.291-10.52
	c0-3.225,2.24-4.637,5.42-5.182c8.023-1.377,14.777-6.786,19.712-13.982c2.808-4.031,8.007-6.57,12.318-10.945
	c-6.826-1.214-12.767-9.517-20.969-0.916C30.629,25.062,26.487,13.187,21.887,0c-4.359,4.196-5.59,11.055-4.744,17.863
	C13.421,13.493,9.165,8.31,5.457,3.958c-0.732,0.903-2.796,7.958,2.801,17.563c-1.304-1.013-4.804-4.631-7.361-6.938
	c-0.688,3.958,1.506,11.055,4.962,15.343c-1.562-0.82-3.265-1.865-5.822-3.04C-0.475,30.698,4.425,36.092,7.953,38.365"/>
<path fill="#EBC21D" d="M18.709,70.343c0,0-4.089-6.332-0.992-12.012c3.097-5.677,13.593-9.807,16.692-14.84
	c3.096-5.034,0.355,11.016,5.855,10.606c-2.114,3.116-8.18,7.547-14.063,9.088C20.972,64.555,18.362,64.484,18.709,70.343"/>
<path fill="#E16E87" d="M51.704,37.195c0,0-3.391,0.198-4.763,3.161c-1.092,2.359-2.839,8.825-2.839,8.825s-2.225,3.235-3.838,4.916
	c-1.248,1.299-9.334-5.17-5.855-10.605c1.871-2.925,0.813-5.046,0.672-5.667c1.069-2.334,4.36-3.846,7.951-3.846
	C45.937,33.978,51.704,37.195,51.704,37.195"/>
<path fill="#FFFFFF" d="M52.444,41.935c0,0-5.186-2.405-10.572-1.685c-3.485,0.467-5.7,0.917-5.119,3.873
	c0.486,2.481,3.238,5.289,7.35,5.059C46.466,46.265,51.45,42.703,52.444,41.935"/>
<path fill="#FFFFFF" d="M32.567,37.667c-3.104-4.448-16.562-18.396-16.562-18.396s0.892,7.055,4.197,12.602
	c-5.225-4.011-10.512-7.79-10.512-7.79s2.248,7.521,6.857,12.476c-4.254-2.04-7.939-3.697-7.939-3.697s2.596,4.866,6.594,8.363
	c-2.659-0.515-4.657-0.867-4.657-0.867s4.795,5.285,9.952,6.319c3.86,0.773,5.085,0.551,6.812-0.131
	C30.795,45.169,34.545,40.5,32.567,37.667"/>
</svg>
