<?xml version="1.0" encoding="utf-8"?>
<!-- Generator: Adobe Illustrator 14.0.0, SVG Export Plug-In . SVG Version: 6.00 Build 43363)  -->
<!DOCTYPE svg PUBLIC "-//W3C//DTD SVG 1.1//EN" "http://www.w3.org/Graphics/SVG/1.1/DTD/svg11.dtd">
<svg version="1.1" id="Layer_1" xmlns="http://www.w3.org/2000/svg" xmlns:xlink="http://www.w3.org/1999/xlink" x="0px" y="0px"
	 width="88.26px" height="67.553px" viewBox="0 0 88.26 67.553" enable-background="new 0 0 88.26 67.553" xml:space="preserve">
<path fill="#052D3E" d="M18.883,32.465c-1.322,0.747-6.14,2.489-8.154,4.267c2.835,0.938,9.505,1.08,14.635-0.54
	c-1.619,0.832-3.331,2.277-3.996,4.267c5.292,1.404,10.585-0.162,13.286-1.553c-1.513,1.553-2.156,2.756-2.593,5.278
	c3.672,1.188,10.639-1.403,13.951-2.155c8.352,8.528,18.234,6.53,19.916,8.612c5.511,6.829,9.605,16.224,22.332,16.912
	C81.042,56.011,52.365,17.779,43.232,6.479c-2.048-2.534-5.07-5.399-8.13-6.129c-3.097-0.739-6.655-0.568-8.992,3.079
	c-1.073,1.673-3.692,2.354-5.347,3.331c3.967,2.308,8.003,3.581,12.132,7.177c0.905,0.787,1.76,2.365,1.777,3.603
	c0.012,0.745-1.504,1.854-2.536,2.217C25.484,22.091,7.164,26.885,0,30.683C4.95,34.085,15.967,33.193,18.883,32.465"/>
<path fill="#E16E87" d="M34.291,18.318c0,0,11.613-7.152,17.571-0.778C46.991,11.629,41.331,0,32.475,0
	c-5.112,0-7.142,4.297-7.142,4.297s3.541,1.4,4.188,3.849C30.038,10.094,37.476,14.306,34.291,18.318"/>
<path fill="#FFFFFF" d="M25.725,9.332c0,0,7.146-2.573,11.034-1.816c3.888,0.755,4.698,4.104,3.888,5.778
	c-0.81,1.674-4.387,0.122-5.973,4.246C34.563,14.769,32.438,12.897,25.725,9.332"/>
<path fill="#EBC21D" d="M46.012,42.029c0,0,9.36-8.106,14.832-2.777c5.474,5.328,7.17,10.727,7.905,15.156
	c-1.913-2.147-3.512-4.644-7.184-5.147C52.3,47.988,49.108,45.804,46.012,42.029"/>
</svg>
