<?xml version="1.0" encoding="utf-8"?>
<!-- Generator: Adobe Illustrator 14.0.0, SVG Export Plug-In . SVG Version: 6.00 Build 43363)  -->
<!DOCTYPE svg PUBLIC "-//W3C//DTD SVG 1.1//EN" "http://www.w3.org/Graphics/SVG/1.1/DTD/svg11.dtd">
<svg version="1.1" id="Layer_1" xmlns="http://www.w3.org/2000/svg" xmlns:xlink="http://www.w3.org/1999/xlink" x="0px" y="0px"
	 width="1399.999px" height="138.957px" viewBox="0 0 1399.999 138.957" enable-background="new 0 0 1399.999 138.957"
	 xml:space="preserve">
<g>
	<defs>
		<rect id="SVGID_1_" y="-2.753" width="1399.999" height="143.043"/>
	</defs>
	<clipPath id="SVGID_2_">
		<use xlink:href="#SVGID_1_"  overflow="visible"/>
	</clipPath>
	<rect x="197.029" y="117.446" clip-path="url(#SVGID_2_)" fill="#EBC21D" width="41.469" height="20.733"/>
	<rect x="240.978" y="117.446" clip-path="url(#SVGID_2_)" fill="#EBC21D" width="41.469" height="20.733"/>
	<rect x="66.072" y="117.446" clip-path="url(#SVGID_2_)" fill="#EBC21D" width="41.469" height="20.733"/>
	<rect x="109.484" y="117.446" clip-path="url(#SVGID_2_)" fill="#EBC21D" width="41.469" height="20.733"/>
	
		<rect x="152.804" y="117.446" transform="matrix(0.9996 0.0274 -0.0274 0.9996 3.5625 -4.7009)" clip-path="url(#SVGID_2_)" fill="#EBC21D" width="41.469" height="20.733"/>
	
		<rect x="22.566" y="117.447" transform="matrix(0.9994 -0.0337 0.0337 0.9994 -4.2886 1.534)" clip-path="url(#SVGID_2_)" fill="#EBC21D" width="41.468" height="20.734"/>
	
		<rect x="-21.125" y="117.446" transform="matrix(0.9997 0.0258 -0.0258 0.9997 3.2957 0.0526)" clip-path="url(#SVGID_2_)" fill="#EBC21D" width="41.469" height="20.734"/>
	<rect x="284.482" y="117.446" clip-path="url(#SVGID_2_)" fill="#EBC21D" width="41.469" height="20.733"/>
	<rect x="546.511" y="117.446" clip-path="url(#SVGID_2_)" fill="#EBC21D" width="41.469" height="20.733"/>
	<rect x="590.46" y="117.446" clip-path="url(#SVGID_2_)" fill="#EBC21D" width="41.469" height="20.733"/>
	<rect x="415.553" y="117.446" clip-path="url(#SVGID_2_)" fill="#EBC21D" width="41.469" height="20.733"/>
	<rect x="458.966" y="117.446" clip-path="url(#SVGID_2_)" fill="#EBC21D" width="41.469" height="20.733"/>
	
		<rect x="502.287" y="117.446" transform="matrix(0.9996 0.0274 -0.0274 0.9996 3.6934 -14.2643)" clip-path="url(#SVGID_2_)" fill="#EBC21D" width="41.469" height="20.733"/>
	
		<rect x="372.048" y="117.447" transform="matrix(0.9994 -0.0337 0.0337 0.9994 -4.0895 13.3278)" clip-path="url(#SVGID_2_)" fill="#EBC21D" width="41.468" height="20.734"/>
	
		<rect x="328.358" y="117.446" transform="matrix(0.9997 0.0258 -0.0258 0.9997 3.412 -8.9594)" clip-path="url(#SVGID_2_)" fill="#EBC21D" width="41.469" height="20.734"/>
	<rect x="634.366" y="117.446" clip-path="url(#SVGID_2_)" fill="#EBC21D" width="41.469" height="20.733"/>
	<rect x="896.395" y="117.446" clip-path="url(#SVGID_2_)" fill="#EBC21D" width="41.47" height="20.733"/>
	<rect x="940.343" y="117.446" clip-path="url(#SVGID_2_)" fill="#EBC21D" width="41.47" height="20.733"/>
	<rect x="765.438" y="117.446" clip-path="url(#SVGID_2_)" fill="#EBC21D" width="41.469" height="20.733"/>
	<rect x="808.85" y="117.446" clip-path="url(#SVGID_2_)" fill="#EBC21D" width="41.47" height="20.733"/>
	
		<rect x="852.17" y="117.446" transform="matrix(0.9996 0.0274 -0.0274 0.9996 3.8244 -23.8387)" clip-path="url(#SVGID_2_)" fill="#EBC21D" width="41.469" height="20.733"/>
	
		<rect x="721.932" y="117.447" transform="matrix(0.9994 -0.0337 0.0337 0.9994 -3.8903 25.1355)" clip-path="url(#SVGID_2_)" fill="#EBC21D" width="41.468" height="20.734"/>
	
		<rect x="678.242" y="117.446" transform="matrix(0.9997 0.0258 -0.0258 0.9997 3.5283 -17.9818)" clip-path="url(#SVGID_2_)" fill="#EBC21D" width="41.468" height="20.734"/>
	<rect x="983.848" y="117.446" clip-path="url(#SVGID_2_)" fill="#EBC21D" width="41.47" height="20.733"/>
	<rect x="1245.877" y="117.446" clip-path="url(#SVGID_2_)" fill="#EBC21D" width="41.469" height="20.733"/>
	<rect x="1289.826" y="117.446" clip-path="url(#SVGID_2_)" fill="#EBC21D" width="41.469" height="20.733"/>
	<rect x="1114.92" y="117.446" clip-path="url(#SVGID_2_)" fill="#EBC21D" width="41.469" height="20.733"/>
	<rect x="1158.332" y="117.446" clip-path="url(#SVGID_2_)" fill="#EBC21D" width="41.469" height="20.733"/>
	
		<rect x="1201.652" y="117.446" transform="matrix(0.9996 0.0274 -0.0274 0.9996 3.9553 -33.402)" clip-path="url(#SVGID_2_)" fill="#EBC21D" width="41.469" height="20.733"/>
	
		<rect x="1071.414" y="117.447" transform="matrix(0.9994 -0.0337 0.0337 0.9994 -3.6913 36.9294)" clip-path="url(#SVGID_2_)" fill="#EBC21D" width="41.468" height="20.734"/>
	
		<rect x="1027.724" y="117.446" transform="matrix(0.9997 0.0258 -0.0258 0.9997 3.6445 -26.9935)" clip-path="url(#SVGID_2_)" fill="#EBC21D" width="41.469" height="20.734"/>
	<rect x="1378.287" y="117.446" clip-path="url(#SVGID_2_)" fill="#EBC21D" width="41.469" height="20.733"/>
	
		<rect x="1334.781" y="117.447" transform="matrix(0.9994 -0.0337 0.0337 0.9994 -3.5411 45.8161)" clip-path="url(#SVGID_2_)" fill="#EBC21D" width="41.469" height="20.734"/>
	<rect x="218.86" y="94.159" clip-path="url(#SVGID_2_)" fill="#EBC21D" width="41.469" height="20.734"/>
	<rect x="262.809" y="94.159" clip-path="url(#SVGID_2_)" fill="#EBC21D" width="41.468" height="20.734"/>
	<rect x="87.903" y="94.159" clip-path="url(#SVGID_2_)" fill="#EBC21D" width="41.468" height="20.734"/>
	<rect x="131.315" y="94.159" clip-path="url(#SVGID_2_)" fill="#EBC21D" width="41.469" height="20.734"/>
	
		<rect x="174.635" y="94.16" transform="matrix(0.9996 0.0273 -0.0273 0.9996 2.9309 -5.3025)" clip-path="url(#SVGID_2_)" fill="#EBC21D" width="41.469" height="20.734"/>
	
		<rect x="44.397" y="94.161" transform="matrix(0.9994 -0.0337 0.0337 0.9994 -3.4903 2.2575)" clip-path="url(#SVGID_2_)" fill="#EBC21D" width="41.468" height="20.733"/>
	
		<rect x="0.706" y="94.16" transform="matrix(0.9997 0.0258 -0.0258 0.9997 2.705 -0.5186)" clip-path="url(#SVGID_2_)" fill="#EBC21D" width="41.469" height="20.734"/>
	<rect x="306.313" y="94.159" clip-path="url(#SVGID_2_)" fill="#EBC21D" width="41.469" height="20.734"/>
	<rect x="568.342" y="94.159" clip-path="url(#SVGID_2_)" fill="#EBC21D" width="41.469" height="20.734"/>
	<rect x="612.291" y="94.159" clip-path="url(#SVGID_2_)" fill="#EBC21D" width="41.469" height="20.734"/>
	<rect x="437.385" y="94.159" clip-path="url(#SVGID_2_)" fill="#EBC21D" width="41.469" height="20.734"/>
	<rect x="480.797" y="94.159" clip-path="url(#SVGID_2_)" fill="#EBC21D" width="41.469" height="20.734"/>
	
		<rect x="524.117" y="94.16" transform="matrix(0.9996 0.0273 -0.0273 0.9996 3.0615 -14.8577)" clip-path="url(#SVGID_2_)" fill="#EBC21D" width="41.469" height="20.734"/>
	
		<rect x="393.879" y="94.161" transform="matrix(0.9994 -0.0337 0.0337 0.9994 -3.2913 14.0513)" clip-path="url(#SVGID_2_)" fill="#EBC21D" width="41.468" height="20.733"/>
	
		<rect x="350.189" y="94.16" transform="matrix(0.9997 0.0258 -0.0258 0.9997 2.8214 -9.5387)" clip-path="url(#SVGID_2_)" fill="#EBC21D" width="41.469" height="20.734"/>
	<rect x="656.197" y="94.159" clip-path="url(#SVGID_2_)" fill="#EBC21D" width="41.469" height="20.734"/>
	<rect x="918.226" y="94.159" clip-path="url(#SVGID_2_)" fill="#EBC21D" width="41.47" height="20.734"/>
	<rect x="962.175" y="94.159" clip-path="url(#SVGID_2_)" fill="#EBC21D" width="41.469" height="20.734"/>
	<rect x="787.268" y="94.159" clip-path="url(#SVGID_2_)" fill="#EBC21D" width="41.47" height="20.734"/>
	<rect x="830.681" y="94.159" clip-path="url(#SVGID_2_)" fill="#EBC21D" width="41.47" height="20.734"/>
	
		<rect x="874.002" y="94.16" transform="matrix(0.9996 0.0273 -0.0273 0.9996 3.1923 -24.4238)" clip-path="url(#SVGID_2_)" fill="#EBC21D" width="41.469" height="20.734"/>
	
		<rect x="743.763" y="94.161" transform="matrix(0.9994 -0.0337 0.0337 0.9994 -3.0919 25.8583)" clip-path="url(#SVGID_2_)" fill="#EBC21D" width="41.469" height="20.733"/>
	
		<rect x="700.073" y="94.16" transform="matrix(0.9997 0.0258 -0.0258 0.9997 2.938 -18.5692)" clip-path="url(#SVGID_2_)" fill="#EBC21D" width="41.469" height="20.734"/>
	<rect x="1005.679" y="94.159" clip-path="url(#SVGID_2_)" fill="#EBC21D" width="41.47" height="20.734"/>
	<rect x="1267.708" y="94.159" clip-path="url(#SVGID_2_)" fill="#EBC21D" width="41.469" height="20.734"/>
	<rect x="1311.657" y="94.159" clip-path="url(#SVGID_2_)" fill="#EBC21D" width="41.469" height="20.734"/>
	<rect x="1136.751" y="94.159" clip-path="url(#SVGID_2_)" fill="#EBC21D" width="41.469" height="20.734"/>
	<rect x="1180.163" y="94.159" clip-path="url(#SVGID_2_)" fill="#EBC21D" width="41.469" height="20.734"/>
	
		<rect x="1223.483" y="94.16" transform="matrix(0.9996 0.0273 -0.0273 0.9996 3.323 -33.9789)" clip-path="url(#SVGID_2_)" fill="#EBC21D" width="41.469" height="20.734"/>
	
		<rect x="1093.245" y="94.161" transform="matrix(0.9994 -0.0337 0.0337 0.9994 -2.8928 37.652)" clip-path="url(#SVGID_2_)" fill="#EBC21D" width="41.469" height="20.733"/>
	
		<rect x="1049.555" y="94.16" transform="matrix(0.9997 0.0258 -0.0258 0.9997 3.0544 -27.5894)" clip-path="url(#SVGID_2_)" fill="#EBC21D" width="41.469" height="20.734"/>
	
		<rect x="1356.612" y="94.161" transform="matrix(0.9994 -0.0337 0.0337 0.9994 -2.7429 46.5396)" clip-path="url(#SVGID_2_)" fill="#EBC21D" width="41.469" height="20.733"/>
	<rect x="197.029" y="70.873" clip-path="url(#SVGID_2_)" fill="#EBC21D" width="41.469" height="20.734"/>
	<rect x="240.978" y="70.873" clip-path="url(#SVGID_2_)" fill="#EBC21D" width="41.469" height="20.734"/>
	<rect x="66.072" y="70.873" clip-path="url(#SVGID_2_)" fill="#EBC21D" width="41.469" height="20.734"/>
	<rect x="109.484" y="70.873" clip-path="url(#SVGID_2_)" fill="#EBC21D" width="41.469" height="20.734"/>
	
		<rect x="152.804" y="70.874" transform="matrix(0.9996 0.0274 -0.0274 0.9996 2.2881 -4.7184)" clip-path="url(#SVGID_2_)" fill="#EBC21D" width="41.469" height="20.733"/>
	
		<rect x="22.566" y="70.873" transform="matrix(0.9994 -0.0337 0.0337 0.9994 -2.7169 1.5075)" clip-path="url(#SVGID_2_)" fill="#EBC21D" width="41.468" height="20.734"/>
	
		<rect x="-21.125" y="70.872" transform="matrix(0.9997 0.0258 -0.0258 0.9997 2.0948 0.0371)" clip-path="url(#SVGID_2_)" fill="#EBC21D" width="41.469" height="20.735"/>
	<rect x="284.482" y="70.873" clip-path="url(#SVGID_2_)" fill="#EBC21D" width="41.469" height="20.734"/>
	<rect x="546.511" y="70.873" clip-path="url(#SVGID_2_)" fill="#EBC21D" width="41.469" height="20.734"/>
	<rect x="590.46" y="70.873" clip-path="url(#SVGID_2_)" fill="#EBC21D" width="41.469" height="20.734"/>
	<rect x="415.553" y="70.873" clip-path="url(#SVGID_2_)" fill="#EBC21D" width="41.469" height="20.734"/>
	<rect x="458.966" y="70.873" clip-path="url(#SVGID_2_)" fill="#EBC21D" width="41.469" height="20.734"/>
	
		<rect x="502.287" y="70.874" transform="matrix(0.9996 0.0274 -0.0274 0.9996 2.4189 -14.2817)" clip-path="url(#SVGID_2_)" fill="#EBC21D" width="41.469" height="20.733"/>
	
		<rect x="372.048" y="70.873" transform="matrix(0.9994 -0.0337 0.0337 0.9994 -2.5179 13.3013)" clip-path="url(#SVGID_2_)" fill="#EBC21D" width="41.468" height="20.734"/>
	
		<rect x="328.358" y="70.872" transform="matrix(0.9997 0.0258 -0.0258 0.9997 2.211 -8.9748)" clip-path="url(#SVGID_2_)" fill="#EBC21D" width="41.469" height="20.735"/>
	<rect x="634.366" y="70.873" clip-path="url(#SVGID_2_)" fill="#EBC21D" width="41.469" height="20.734"/>
	<rect x="896.395" y="70.873" clip-path="url(#SVGID_2_)" fill="#EBC21D" width="41.47" height="20.734"/>
	<rect x="940.343" y="70.873" clip-path="url(#SVGID_2_)" fill="#EBC21D" width="41.47" height="20.734"/>
	<rect x="765.438" y="70.873" clip-path="url(#SVGID_2_)" fill="#EBC21D" width="41.469" height="20.734"/>
	<rect x="808.85" y="70.873" clip-path="url(#SVGID_2_)" fill="#EBC21D" width="41.47" height="20.734"/>
	
		<rect x="852.17" y="70.874" transform="matrix(0.9996 0.0274 -0.0274 0.9996 2.55 -23.8561)" clip-path="url(#SVGID_2_)" fill="#EBC21D" width="41.469" height="20.733"/>
	
		<rect x="721.932" y="70.873" transform="matrix(0.9994 -0.0337 0.0337 0.9994 -2.3186 25.1089)" clip-path="url(#SVGID_2_)" fill="#EBC21D" width="41.468" height="20.734"/>
	
		<rect x="678.242" y="70.872" transform="matrix(0.9997 0.0258 -0.0258 0.9997 2.3273 -17.9973)" clip-path="url(#SVGID_2_)" fill="#EBC21D" width="41.468" height="20.735"/>
	<rect x="983.848" y="70.873" clip-path="url(#SVGID_2_)" fill="#EBC21D" width="41.47" height="20.734"/>
	<rect x="1245.877" y="70.873" clip-path="url(#SVGID_2_)" fill="#EBC21D" width="41.469" height="20.734"/>
	<rect x="1289.826" y="70.873" clip-path="url(#SVGID_2_)" fill="#EBC21D" width="41.469" height="20.734"/>
	<rect x="1114.92" y="70.873" clip-path="url(#SVGID_2_)" fill="#EBC21D" width="41.469" height="20.734"/>
	<rect x="1158.332" y="70.873" clip-path="url(#SVGID_2_)" fill="#EBC21D" width="41.469" height="20.734"/>
	
		<rect x="1201.652" y="70.874" transform="matrix(0.9996 0.0274 -0.0274 0.9996 2.6809 -33.4195)" clip-path="url(#SVGID_2_)" fill="#EBC21D" width="41.469" height="20.733"/>
	
		<rect x="1071.414" y="70.873" transform="matrix(0.9994 -0.0337 0.0337 0.9994 -2.1195 36.9029)" clip-path="url(#SVGID_2_)" fill="#EBC21D" width="41.468" height="20.734"/>
	
		<rect x="1027.724" y="70.872" transform="matrix(0.9997 0.0258 -0.0258 0.9997 2.4435 -27.009)" clip-path="url(#SVGID_2_)" fill="#EBC21D" width="41.469" height="20.735"/>
	<rect x="1378.287" y="70.873" clip-path="url(#SVGID_2_)" fill="#EBC21D" width="41.469" height="20.734"/>
	
		<rect x="1334.781" y="70.873" transform="matrix(0.9994 -0.0337 0.0337 0.9994 -1.9695 45.7896)" clip-path="url(#SVGID_2_)" fill="#EBC21D" width="41.469" height="20.734"/>
	<rect x="218.86" y="47.587" clip-path="url(#SVGID_2_)" fill="#EBC21D" width="41.469" height="20.734"/>
	<rect x="262.809" y="47.587" clip-path="url(#SVGID_2_)" fill="#EBC21D" width="41.468" height="20.734"/>
	<rect x="87.903" y="47.587" clip-path="url(#SVGID_2_)" fill="#EBC21D" width="41.468" height="20.734"/>
	<rect x="131.315" y="47.587" clip-path="url(#SVGID_2_)" fill="#EBC21D" width="41.469" height="20.734"/>
	
		<rect x="174.635" y="47.587" transform="matrix(0.9996 0.0273 -0.0273 0.9996 1.6561 -5.3153)" clip-path="url(#SVGID_2_)" fill="#EBC21D" width="41.469" height="20.734"/>
	
		<rect x="44.397" y="47.587" transform="matrix(0.9994 -0.0337 0.0337 0.9994 -1.9186 2.231)" clip-path="url(#SVGID_2_)" fill="#EBC21D" width="41.468" height="20.734"/>
	
		<rect x="0.706" y="47.587" transform="matrix(0.9997 0.0258 -0.0258 0.9997 1.5016 -0.5336)" clip-path="url(#SVGID_2_)" fill="#EBC21D" width="41.469" height="20.734"/>
	<rect x="306.313" y="47.587" clip-path="url(#SVGID_2_)" fill="#EBC21D" width="41.469" height="20.734"/>
	<rect x="568.342" y="47.587" clip-path="url(#SVGID_2_)" fill="#EBC21D" width="41.469" height="20.734"/>
	<rect x="612.291" y="47.587" clip-path="url(#SVGID_2_)" fill="#EBC21D" width="41.469" height="20.734"/>
	<rect x="437.385" y="47.587" clip-path="url(#SVGID_2_)" fill="#EBC21D" width="41.469" height="20.734"/>
	<rect x="480.797" y="47.587" clip-path="url(#SVGID_2_)" fill="#EBC21D" width="41.469" height="20.734"/>
	
		<rect x="524.117" y="47.587" transform="matrix(0.9996 0.0273 -0.0273 0.9996 1.7865 -14.8623)" clip-path="url(#SVGID_2_)" fill="#EBC21D" width="41.469" height="20.734"/>
	
		<rect x="393.879" y="47.587" transform="matrix(0.9994 -0.0337 0.0337 0.9994 -1.7196 14.0247)" clip-path="url(#SVGID_2_)" fill="#EBC21D" width="41.468" height="20.734"/>
	
		<rect x="350.189" y="47.587" transform="matrix(0.9997 0.0258 -0.0258 0.9997 1.6178 -9.5455)" clip-path="url(#SVGID_2_)" fill="#EBC21D" width="41.469" height="20.734"/>
	<rect x="656.197" y="47.587" clip-path="url(#SVGID_2_)" fill="#EBC21D" width="41.469" height="20.734"/>
	<rect x="918.226" y="47.587" clip-path="url(#SVGID_2_)" fill="#EBC21D" width="41.47" height="20.734"/>
	<rect x="962.175" y="47.587" clip-path="url(#SVGID_2_)" fill="#EBC21D" width="41.469" height="20.734"/>
	<rect x="787.268" y="47.587" clip-path="url(#SVGID_2_)" fill="#EBC21D" width="41.47" height="20.734"/>
	<rect x="830.681" y="47.587" clip-path="url(#SVGID_2_)" fill="#EBC21D" width="41.47" height="20.734"/>
	
		<rect x="874.002" y="47.587" transform="matrix(0.9996 0.0273 -0.0273 0.9996 1.9171 -24.4202)" clip-path="url(#SVGID_2_)" fill="#EBC21D" width="41.469" height="20.734"/>
	
		<rect x="743.763" y="47.587" transform="matrix(0.9994 -0.0337 0.0337 0.9994 -1.5203 25.8318)" clip-path="url(#SVGID_2_)" fill="#EBC21D" width="41.469" height="20.734"/>
	
		<rect x="700.073" y="47.587" transform="matrix(0.9997 0.0258 -0.0258 0.9997 1.7341 -18.5678)" clip-path="url(#SVGID_2_)" fill="#EBC21D" width="41.469" height="20.734"/>
	<rect x="1005.679" y="47.587" clip-path="url(#SVGID_2_)" fill="#EBC21D" width="41.47" height="20.734"/>
	<rect x="1267.708" y="47.587" clip-path="url(#SVGID_2_)" fill="#EBC21D" width="41.469" height="20.734"/>
	<rect x="1311.657" y="47.587" clip-path="url(#SVGID_2_)" fill="#EBC21D" width="41.469" height="20.734"/>
	<rect x="1136.751" y="47.587" clip-path="url(#SVGID_2_)" fill="#EBC21D" width="41.469" height="20.734"/>
	<rect x="1180.163" y="47.587" clip-path="url(#SVGID_2_)" fill="#EBC21D" width="41.469" height="20.734"/>
	
		<rect x="1223.484" y="47.587" transform="matrix(0.9996 0.0273 -0.0273 0.9996 2.0475 -33.9671)" clip-path="url(#SVGID_2_)" fill="#EBC21D" width="41.469" height="20.734"/>
	
		<rect x="1093.245" y="47.587" transform="matrix(0.9994 -0.0337 0.0337 0.9994 -1.3212 37.6255)" clip-path="url(#SVGID_2_)" fill="#EBC21D" width="41.469" height="20.734"/>
	
		<rect x="1049.555" y="47.587" transform="matrix(0.9997 0.0258 -0.0258 0.9997 1.8503 -27.5797)" clip-path="url(#SVGID_2_)" fill="#EBC21D" width="41.469" height="20.734"/>
	
		<rect x="1356.612" y="47.587" transform="matrix(0.9994 -0.0337 0.0337 0.9994 -1.1713 46.5131)" clip-path="url(#SVGID_2_)" fill="#EBC21D" width="41.469" height="20.734"/>
	<rect x="197.029" y="24.085" clip-path="url(#SVGID_2_)" fill="#EBC21D" width="41.469" height="20.735"/>
	<rect x="240.978" y="24.085" clip-path="url(#SVGID_2_)" fill="#EBC21D" width="41.469" height="20.735"/>
	<rect x="66.072" y="24.085" clip-path="url(#SVGID_2_)" fill="#EBC21D" width="41.469" height="20.735"/>
	<rect x="109.484" y="24.085" clip-path="url(#SVGID_2_)" fill="#EBC21D" width="41.469" height="20.735"/>
	
		<rect x="152.804" y="24.085" transform="matrix(0.9996 0.0273 -0.0273 0.9996 1.0068 -4.7318)" clip-path="url(#SVGID_2_)" fill="#EBC21D" width="41.469" height="20.734"/>
	
		<rect x="22.566" y="24.086" transform="matrix(0.9994 -0.0337 0.0337 0.9994 -1.138 1.4808)" clip-path="url(#SVGID_2_)" fill="#EBC21D" width="41.468" height="20.733"/>
	
		<rect x="-21.125" y="24.085" transform="matrix(0.9997 0.0258 -0.0258 0.9997 0.8891 0.0215)" clip-path="url(#SVGID_2_)" fill="#EBC21D" width="41.469" height="20.734"/>
	<rect x="284.482" y="24.085" clip-path="url(#SVGID_2_)" fill="#EBC21D" width="41.469" height="20.735"/>
	<rect x="546.511" y="24.085" clip-path="url(#SVGID_2_)" fill="#EBC21D" width="41.469" height="20.735"/>
	<rect x="590.46" y="24.085" clip-path="url(#SVGID_2_)" fill="#EBC21D" width="41.469" height="20.735"/>
	<rect x="415.553" y="24.085" clip-path="url(#SVGID_2_)" fill="#EBC21D" width="41.469" height="20.735"/>
	<rect x="458.966" y="24.085" clip-path="url(#SVGID_2_)" fill="#EBC21D" width="41.469" height="20.735"/>
	
		<rect x="502.287" y="24.085" transform="matrix(0.9996 0.0273 -0.0273 0.9996 1.1375 -14.287)" clip-path="url(#SVGID_2_)" fill="#EBC21D" width="41.469" height="20.734"/>
	
		<rect x="372.048" y="24.086" transform="matrix(0.9994 -0.0337 0.0337 0.9994 -0.9389 13.2747)" clip-path="url(#SVGID_2_)" fill="#EBC21D" width="41.468" height="20.733"/>
	
		<rect x="328.358" y="24.085" transform="matrix(0.9997 0.0258 -0.0258 0.9997 1.0055 -8.9986)" clip-path="url(#SVGID_2_)" fill="#EBC21D" width="41.469" height="20.734"/>
	<rect x="634.366" y="24.085" clip-path="url(#SVGID_2_)" fill="#EBC21D" width="41.469" height="20.735"/>
	<rect x="896.395" y="24.085" clip-path="url(#SVGID_2_)" fill="#EBC21D" width="41.47" height="20.735"/>
	<rect x="940.343" y="24.085" clip-path="url(#SVGID_2_)" fill="#EBC21D" width="41.47" height="20.735"/>
	<rect x="765.438" y="24.085" clip-path="url(#SVGID_2_)" fill="#EBC21D" width="41.469" height="20.735"/>
	<rect x="808.85" y="24.085" clip-path="url(#SVGID_2_)" fill="#EBC21D" width="41.47" height="20.735"/>
	
		<rect x="852.17" y="24.085" transform="matrix(0.9996 0.0273 -0.0273 0.9996 1.2683 -23.8531)" clip-path="url(#SVGID_2_)" fill="#EBC21D" width="41.469" height="20.734"/>
	
		<rect x="721.932" y="24.086" transform="matrix(0.9994 -0.0337 0.0337 0.9994 -0.7397 25.0823)" clip-path="url(#SVGID_2_)" fill="#EBC21D" width="41.468" height="20.733"/>
	
		<rect x="678.242" y="24.085" transform="matrix(0.9997 0.0258 -0.0258 0.9997 1.1221 -18.0293)" clip-path="url(#SVGID_2_)" fill="#EBC21D" width="41.468" height="20.734"/>
	<rect x="983.848" y="24.085" clip-path="url(#SVGID_2_)" fill="#EBC21D" width="41.47" height="20.735"/>
	<rect x="1245.877" y="24.085" clip-path="url(#SVGID_2_)" fill="#EBC21D" width="41.469" height="20.735"/>
	<rect x="1289.826" y="24.085" clip-path="url(#SVGID_2_)" fill="#EBC21D" width="41.469" height="20.735"/>
	<rect x="1114.92" y="24.085" clip-path="url(#SVGID_2_)" fill="#EBC21D" width="41.469" height="20.735"/>
	<rect x="1158.332" y="24.085" clip-path="url(#SVGID_2_)" fill="#EBC21D" width="41.469" height="20.735"/>
	
		<rect x="1201.652" y="24.085" transform="matrix(0.9996 0.0273 -0.0273 0.9996 1.3989 -33.4083)" clip-path="url(#SVGID_2_)" fill="#EBC21D" width="41.469" height="20.734"/>
	
		<rect x="1071.414" y="24.086" transform="matrix(0.9994 -0.0337 0.0337 0.9994 -0.5406 36.8762)" clip-path="url(#SVGID_2_)" fill="#EBC21D" width="41.468" height="20.733"/>
	
		<rect x="1027.724" y="24.085" transform="matrix(0.9997 0.0258 -0.0258 0.9997 1.2385 -27.0492)" clip-path="url(#SVGID_2_)" fill="#EBC21D" width="41.469" height="20.734"/>
	<rect x="1378.287" y="24.085" clip-path="url(#SVGID_2_)" fill="#EBC21D" width="41.469" height="20.735"/>
	
		<rect x="1334.781" y="24.086" transform="matrix(0.9994 -0.0337 0.0337 0.9994 -0.3906 45.763)" clip-path="url(#SVGID_2_)" fill="#EBC21D" width="41.469" height="20.733"/>
	<rect x="218.86" y="0.799" clip-path="url(#SVGID_2_)" fill="#EBC21D" width="41.469" height="20.734"/>
	<rect x="262.809" y="0.799" clip-path="url(#SVGID_2_)" fill="#EBC21D" width="41.468" height="20.734"/>
	<rect x="87.903" y="0.799" clip-path="url(#SVGID_2_)" fill="#EBC21D" width="41.468" height="20.734"/>
	<rect x="131.315" y="0.799" clip-path="url(#SVGID_2_)" fill="#EBC21D" width="41.469" height="20.734"/>
	
		<rect x="174.635" y="0.8" transform="matrix(0.9996 0.0274 -0.0274 0.9996 0.3787 -5.342)" clip-path="url(#SVGID_2_)" fill="#EBC21D" width="41.469" height="20.733"/>
	
		<rect x="44.397" y="0.799" transform="matrix(0.9994 -0.0337 0.0337 0.9994 -0.3397 2.2043)" clip-path="url(#SVGID_2_)" fill="#EBC21D" width="41.468" height="20.734"/>
	
		<rect x="0.706" y="0.798" transform="matrix(0.9997 0.0258 -0.0258 0.9997 0.295 -0.5492)" clip-path="url(#SVGID_2_)" fill="#EBC21D" width="41.469" height="20.735"/>
	<rect x="306.313" y="0.799" clip-path="url(#SVGID_2_)" fill="#EBC21D" width="41.469" height="20.734"/>
	<rect x="568.342" y="0.799" clip-path="url(#SVGID_2_)" fill="#EBC21D" width="41.469" height="20.734"/>
	<rect x="612.291" y="0.799" clip-path="url(#SVGID_2_)" fill="#EBC21D" width="41.469" height="20.734"/>
	<rect x="437.385" y="0.799" clip-path="url(#SVGID_2_)" fill="#EBC21D" width="41.469" height="20.734"/>
	<rect x="480.797" y="0.799" clip-path="url(#SVGID_2_)" fill="#EBC21D" width="41.469" height="20.734"/>
	
		<rect x="524.117" y="0.8" transform="matrix(0.9996 0.0274 -0.0274 0.9996 0.5096 -14.9054)" clip-path="url(#SVGID_2_)" fill="#EBC21D" width="41.469" height="20.733"/>
	
		<rect x="393.879" y="0.799" transform="matrix(0.9994 -0.0337 0.0337 0.9994 -0.1407 13.9981)" clip-path="url(#SVGID_2_)" fill="#EBC21D" width="41.468" height="20.734"/>
	
		<rect x="350.189" y="0.798" transform="matrix(0.9997 0.0258 -0.0258 0.9997 0.4113 -9.5611)" clip-path="url(#SVGID_2_)" fill="#EBC21D" width="41.469" height="20.735"/>
	<rect x="656.197" y="0.799" clip-path="url(#SVGID_2_)" fill="#EBC21D" width="41.469" height="20.734"/>
	<rect x="918.226" y="0.799" clip-path="url(#SVGID_2_)" fill="#EBC21D" width="41.47" height="20.734"/>
	<rect x="962.175" y="0.799" clip-path="url(#SVGID_2_)" fill="#EBC21D" width="41.469" height="20.734"/>
	<rect x="787.268" y="0.799" clip-path="url(#SVGID_2_)" fill="#EBC21D" width="41.47" height="20.734"/>
	<rect x="830.681" y="0.799" clip-path="url(#SVGID_2_)" fill="#EBC21D" width="41.47" height="20.734"/>
	
		<rect x="874.002" y="0.8" transform="matrix(0.9996 0.0274 -0.0274 0.9996 0.6406 -24.4797)" clip-path="url(#SVGID_2_)" fill="#EBC21D" width="41.469" height="20.733"/>
	
		<rect x="743.763" y="0.799" transform="matrix(0.9994 -0.0337 0.0337 0.9994 0.0587 25.8052)" clip-path="url(#SVGID_2_)" fill="#EBC21D" width="41.469" height="20.734"/>
	
		<rect x="700.073" y="0.798" transform="matrix(0.9997 0.0258 -0.0258 0.9997 0.5276 -18.5834)" clip-path="url(#SVGID_2_)" fill="#EBC21D" width="41.469" height="20.735"/>
	<rect x="1005.679" y="0.799" clip-path="url(#SVGID_2_)" fill="#EBC21D" width="41.47" height="20.734"/>
	<rect x="1267.708" y="0.799" clip-path="url(#SVGID_2_)" fill="#EBC21D" width="41.469" height="20.734"/>
	<rect x="1311.657" y="0.799" clip-path="url(#SVGID_2_)" fill="#EBC21D" width="41.469" height="20.734"/>
	<rect x="1136.751" y="0.799" clip-path="url(#SVGID_2_)" fill="#EBC21D" width="41.469" height="20.734"/>
	<rect x="1180.163" y="0.799" clip-path="url(#SVGID_2_)" fill="#EBC21D" width="41.469" height="20.734"/>
	
		<rect x="1223.483" y="0.8" transform="matrix(0.9996 0.0274 -0.0274 0.9996 0.7715 -34.0431)" clip-path="url(#SVGID_2_)" fill="#EBC21D" width="41.469" height="20.733"/>
	
		<rect x="1093.245" y="0.799" transform="matrix(0.9994 -0.0337 0.0337 0.9994 0.2577 37.5988)" clip-path="url(#SVGID_2_)" fill="#EBC21D" width="41.469" height="20.734"/>
	
		<rect x="1049.555" y="0.798" transform="matrix(0.9997 0.0258 -0.0258 0.9997 0.6438 -27.5953)" clip-path="url(#SVGID_2_)" fill="#EBC21D" width="41.469" height="20.735"/>
	
		<rect x="1356.612" y="0.799" transform="matrix(0.9994 -0.0337 0.0337 0.9994 0.4077 46.4864)" clip-path="url(#SVGID_2_)" fill="#EBC21D" width="41.469" height="20.734"/>
</g>
</svg>
