<?xml version="1.0" encoding="utf-8"?>
<!-- Generator: Adobe Illustrator 16.0.0, SVG Export Plug-In . SVG Version: 6.00 Build 0)  -->
<!DOCTYPE svg PUBLIC "-//W3C//DTD SVG 1.1//EN" "http://www.w3.org/Graphics/SVG/1.1/DTD/svg11.dtd">
<svg version="1.1" id="Layer_1" xmlns="http://www.w3.org/2000/svg" xmlns:xlink="http://www.w3.org/1999/xlink" x="0px" y="0px"
	 width="32px" height="62px" viewBox="-0.85 -0.467 32 62" enable-background="new -0.85 -0.467 32 62" xml:space="preserve">
<path fill="#242424" d="M30.41,15.205c0,8.396-6.809,15.203-15.206,15.203c-8.396,0-15.205-6.809-15.205-15.203
	C-0.001,6.806,6.808,0,15.204,0C23.603,0,30.41,6.806,30.41,15.205"/>
<line fill="none" stroke="#FFFFFF" stroke-miterlimit="10" x1="8.462" y1="15.205" x2="20.863" y2="15.205"/>
<polygon fill="#FFFFFF" points="17.55,19.295 16.869,18.563 20.478,15.205 16.869,11.847 17.55,11.115 21.949,15.205 "/>
<path fill="#FFFFFF" d="M30.41,45.612c0,8.396-6.811,15.204-15.205,15.204C6.808,60.816,0,54.008,0,45.612
	c0-8.397,6.808-15.204,15.205-15.204C23.601,30.408,30.41,37.215,30.41,45.612"/>
<line fill="none" stroke="#010101" stroke-miterlimit="10" x1="8.71" y1="45.612" x2="21.113" y2="45.612"/>
<polygon fill="#010101" points="17.798,49.702 17.117,48.969 20.728,45.613 17.117,42.256 17.798,41.522 22.197,45.613 "/>
</svg>
