<?xml version="1.0" encoding="utf-8"?>
<!-- Generator: Adobe Illustrator 14.0.0, SVG Export Plug-In . SVG Version: 6.00 Build 43363)  -->
<!DOCTYPE svg PUBLIC "-//W3C//DTD SVG 1.1//EN" "http://www.w3.org/Graphics/SVG/1.1/DTD/svg11.dtd">
<svg version="1.1" id="Layer_1" xmlns="http://www.w3.org/2000/svg" xmlns:xlink="http://www.w3.org/1999/xlink" x="0px" y="0px"
	 width="180px" height="16.758px" viewBox="0 0 180 16.758" enable-background="new 0 0 180 16.758" xml:space="preserve">
<path fill="#46A487" d="M18.313,8.426V8.38c0-4.583,3.426-8.38,8.102-8.38c2.893,0,4.629,1.066,6.296,2.593l-0.856,0.88
	c-1.413-1.365-3.033-2.385-5.463-2.385c-3.889,0-6.829,3.172-6.829,7.245V8.38c0,4.099,2.986,7.292,6.852,7.292
	c2.337,0,3.935-0.902,5.578-2.521l0.811,0.787c-1.713,1.688-3.565,2.82-6.435,2.82C21.739,16.758,18.313,13.079,18.313,8.426"/>
<path fill="#46A487" d="M57.624,8.426V8.38c0-4.422,3.264-8.38,8.171-8.38c4.907,0,8.125,3.913,8.125,8.333V8.38
	c0,4.421-3.264,8.378-8.171,8.378C60.841,16.758,57.624,12.848,57.624,8.426 M72.67,8.426V8.38c0-4.004-2.917-7.292-6.921-7.292
	c-4.005,0-6.875,3.24-6.875,7.245V8.38c0,4.003,2.917,7.292,6.921,7.292S72.67,12.432,72.67,8.426"/>
<path fill="#46A487" d="M102.443,0.279h5.395c5.094,0,8.611,3.494,8.611,8.054V8.38c0,4.562-3.52,8.103-8.611,8.103h-5.395V0.279z
	 M103.648,1.389v13.98h4.188c4.515,0,7.358-3.078,7.358-6.944V8.38c0-3.843-2.846-6.991-7.358-6.991H103.648z"/>
<polygon fill="#46A487" points="145.458,0.278 156.986,0.278 156.986,1.389 146.664,1.389 146.664,7.755 155.945,7.755 
	155.945,8.865 146.664,8.865 146.664,15.372 157.104,15.372 157.104,16.48 145.458,16.48 "/>
</svg>
