<?xml version="1.0" encoding="utf-8"?>
<!-- Generator: Adobe Illustrator 14.0.0, SVG Export Plug-In . SVG Version: 6.00 Build 43363)  -->
<!DOCTYPE svg PUBLIC "-//W3C//DTD SVG 1.1//EN" "http://www.w3.org/Graphics/SVG/1.1/DTD/svg11.dtd">
<svg version="1.1" id="Layer_1" xmlns="http://www.w3.org/2000/svg" xmlns:xlink="http://www.w3.org/1999/xlink" x="0px" y="0px"
	 width="179.999px" height="16.759px" viewBox="0 0 179.999 16.759" enable-background="new 0 0 179.999 16.759"
	 xml:space="preserve">
<path fill="#F04F2B" d="M11.944,6.458h-0.231c-0.502-1.48-1.162-2.729-1.979-3.749C8.63,1.358,7.4,0.684,6.042,0.684
	c-0.741,0-1.335,0.197-1.783,0.589c-0.494,0.426-0.741,0.989-0.741,1.69c0,0.749,0.274,1.344,0.822,1.783
	C4.949,5.218,5.93,5.71,7.28,6.229l2.21,0.833c1.196,0.455,2.103,0.995,2.72,1.619c0.78,0.788,1.169,1.744,1.169,2.871
	c0,0.655-0.137,1.303-0.411,1.938c-0.274,0.637-0.654,1.198-1.139,1.685c-1.096,1.08-2.535,1.62-4.318,1.62
	c-1.28,0-2.974-0.231-5.08-0.693c-0.579-0.132-0.972-0.198-1.181-0.198c-0.432,0-0.69,0.194-0.776,0.579H0.231L0,9.167h0.231
	c0.533,1.76,1.49,3.427,2.87,5c0.734,0.849,1.421,1.446,2.061,1.793c0.64,0.349,1.365,0.521,2.176,0.521
	c0.779,0,1.404-0.209,1.875-0.624c0.532-0.463,0.798-1.057,0.798-1.783c0-0.779-0.312-1.424-0.938-1.932
	c-0.57-0.472-1.373-0.904-2.407-1.296L4.351,9.942C2.924,9.388,1.837,8.756,1.088,8.044c-0.694-0.648-1.042-1.481-1.042-2.5
	c0-1.356,0.528-2.533,1.586-3.529c1.173-1.096,2.697-1.644,4.571-1.644c0.772,0,1.976,0.182,3.611,0.543
	c0.471,0.109,0.826,0.163,1.065,0.163c0.309,0,0.494-0.178,0.556-0.533h0.243L11.944,6.458z"/>
<path fill="#242424" d="M18.313,8.426V8.38c0-4.583,3.426-8.38,8.102-8.38c2.893,0,4.629,1.066,6.296,2.593l-0.856,0.88
	c-1.413-1.365-3.033-2.385-5.463-2.385c-3.889,0-6.829,3.172-6.829,7.245V8.38c0,4.098,2.986,7.292,6.852,7.292
	c2.337,0,3.935-0.902,5.578-2.522l0.811,0.787c-1.713,1.688-3.565,2.822-6.435,2.822C21.739,16.759,18.313,13.079,18.313,8.426"/>
<path fill="#F04F2B" d="M47.216,0.914v11.518c0,1.095,0.029,1.834,0.087,2.215c0.058,0.383,0.186,0.693,0.388,0.933
	c0.339,0.394,1.018,0.617,2.036,0.671v0.231h-9.698V16.25c1.018-0.054,1.697-0.277,2.037-0.671c0.208-0.239,0.341-0.546,0.399-0.921
	c0.058-0.374,0.086-1.116,0.086-2.227V0.914c-1.203,0.218-2.391,0.854-3.564,1.91c-0.834,0.779-1.474,1.667-1.921,2.662h-0.232
	l0.694-5.52c0.348,0.323,0.709,0.523,1.083,0.601s1.17,0.116,2.39,0.116h7.974c1.05,0,1.763-0.042,2.141-0.127
	s0.748-0.283,1.111-0.59l0.625,5.52h-0.231c-0.517-1.219-1.308-2.257-2.373-3.113C49.215,1.57,48.203,1.084,47.216,0.914"/>
<path fill="#242424" d="M57.624,8.426V8.38c0-4.422,3.264-8.38,8.171-8.38c4.907,0,8.125,3.913,8.125,8.333V8.38
	c0,4.422-3.264,8.379-8.171,8.379C60.841,16.759,57.624,12.847,57.624,8.426 M72.67,8.426V8.38c0-4.004-2.917-7.292-6.921-7.292
	c-4.005,0-6.875,3.24-6.875,7.245V8.38c0,4.004,2.917,7.292,6.921,7.292S72.67,12.431,72.67,8.426"/>
<path fill="#F04F2B" d="M87.777,0.371c2.099,0,3.975,0.667,5.625,2.002c2.006,1.621,3.01,3.73,3.01,6.331
	c0,2.431-1.004,4.459-3.01,6.087c-1.644,1.335-3.514,2.003-5.613,2.003s-3.97-0.668-5.614-2.003
	c-1.998-1.628-2.997-3.699-2.997-6.213c0-2.554,0.999-4.623,2.997-6.205C83.867,1.038,85.732,0.371,87.777,0.371 M87.79,0.683
	c-0.818,0-1.505,0.303-2.06,0.903c-0.942,1.02-1.412,3.349-1.412,6.992c0,2.63,0.27,4.639,0.81,6.028
	c0.224,0.579,0.573,1.036,1.047,1.371c0.475,0.337,1.017,0.505,1.627,0.505c0.825,0,1.512-0.303,2.059-0.903
	c0.942-1.019,1.413-3.322,1.413-6.91c0-2.738-0.268-4.775-0.799-6.11c-0.255-0.633-0.652-1.123-1.192-1.471
	C88.857,0.819,88.36,0.683,87.79,0.683"/>
<path fill="#242424" d="M102.444,0.279h5.394c5.093,0,8.61,3.494,8.61,8.054V8.38c0,4.561-3.518,8.103-8.61,8.103h-5.394V0.279z
	 M103.648,1.389V15.37h4.189c4.515,0,7.36-3.079,7.36-6.944V8.38c0-3.843-2.846-6.991-7.36-6.991H103.648z"/>
<path fill="#F04F2B" d="M128.188,8.623v3.808c0,1.097,0.024,1.834,0.076,2.217c0.049,0.383,0.168,0.691,0.353,0.932
	c0.293,0.393,0.887,0.618,1.781,0.671v0.232h-9.085V16.25c0.896-0.053,1.489-0.278,1.783-0.671c0.185-0.24,0.302-0.549,0.353-0.932
	s0.075-1.12,0.075-2.217V4.746c0-1.103-0.024-1.846-0.075-2.228c-0.051-0.384-0.168-0.696-0.353-0.943
	c-0.294-0.386-0.888-0.607-1.783-0.661V0.683h6.644c1.76,0,3.145,0.08,4.154,0.238c1.012,0.158,1.907,0.442,2.686,0.852
	c0.703,0.354,1.27,0.848,1.701,1.48c0.332,0.486,0.498,1.031,0.498,1.631c0,0.872-0.359,1.597-1.076,2.171s-1.732,0.955-3.043,1.141
	c0.879,0.153,1.541,0.417,1.99,0.787c0.447,0.37,0.926,1.05,1.436,2.037l1.342,2.593c0.54,1.049,1.003,1.744,1.389,2.083
	c0.34,0.293,0.914,0.478,1.725,0.555v0.232h-6.944c-1.466-3.503-2.485-5.69-3.062-6.558c-0.574-0.868-1.287-1.302-2.135-1.302
	H128.188z M128.188,8.346h0.671c1.15,0,1.96-0.302,2.432-0.902c0.485-0.625,0.729-1.556,0.729-2.789
	c0-1.212-0.243-2.143-0.729-2.789c-0.24-0.325-0.549-0.557-0.927-0.695s-0.88-0.209-1.505-0.209h-0.671V8.346z"/>
<polygon fill="#242424" points="145.459,0.278 156.986,0.278 156.986,1.389 146.664,1.389 146.664,7.755 155.945,7.755 
	155.945,8.865 146.664,8.865 146.664,15.371 157.103,15.371 157.103,16.481 145.459,16.481 "/>
<path fill="#F04F2B" d="M172.789,9.051v3.38c0,1.097,0.025,1.834,0.075,2.217s0.168,0.691,0.353,0.932
	c0.295,0.393,0.887,0.618,1.782,0.671v0.232h-9.085V16.25c0.895-0.053,1.488-0.278,1.783-0.671c0.185-0.24,0.302-0.549,0.352-0.932
	c0.051-0.383,0.076-1.12,0.076-2.217v-2.36l-3.9-6.471c-0.58-0.955-1.078-1.615-1.498-1.979c-0.422-0.363-0.963-0.597-1.627-0.707
	V0.683h9.189v0.231c-0.841,0.101-1.262,0.491-1.262,1.17c0,0.532,0.285,1.274,0.856,2.222l2.708,4.479l0.811-1.295
	c1.064-1.713,1.597-3.237,1.597-4.572c0-0.587-0.08-1.038-0.243-1.354c-0.16-0.317-0.424-0.533-0.787-0.649V0.683h6.03v0.231
	c-0.603,0.17-1.09,0.383-1.464,0.637c-0.374,0.255-0.844,0.688-1.406,1.296c-1.173,1.281-2.218,2.686-3.136,4.215L172.789,9.051z"/>
</svg>
