<?xml version="1.0" encoding="utf-8"?>
<!-- Generator: Adobe Illustrator 14.0.0, SVG Export Plug-In . SVG Version: 6.00 Build 43363)  -->
<!DOCTYPE svg PUBLIC "-//W3C//DTD SVG 1.1//EN" "http://www.w3.org/Graphics/SVG/1.1/DTD/svg11.dtd">
<svg version="1.1" id="Layer_1" xmlns="http://www.w3.org/2000/svg" xmlns:xlink="http://www.w3.org/1999/xlink" x="0px" y="0px"
	 width="180px" height="50.057px" viewBox="0 0 180 50.057" enable-background="new 0 0 180 50.057" xml:space="preserve">
<path fill="#FFFFFF" d="M11.944,6.491h-0.231c-0.502-1.48-1.162-2.729-1.979-3.749C8.63,1.392,7.4,0.717,6.042,0.717
	c-0.741,0-1.335,0.197-1.783,0.59c-0.494,0.425-0.741,0.988-0.741,1.69c0,0.749,0.274,1.343,0.822,1.784
	c0.609,0.47,1.59,0.963,2.94,1.481l2.21,0.834c1.196,0.454,2.103,0.995,2.72,1.619c0.78,0.788,1.169,1.744,1.169,2.87
	c0,0.657-0.137,1.303-0.411,1.939c-0.274,0.636-0.654,1.198-1.139,1.684c-1.096,1.081-2.535,1.62-4.318,1.62
	c-1.28,0-2.974-0.231-5.08-0.694c-0.579-0.131-0.972-0.197-1.181-0.197c-0.432,0-0.69,0.194-0.776,0.579H0.231L0,9.201h0.231
	c0.533,1.76,1.49,3.426,2.87,5c0.734,0.849,1.421,1.447,2.061,1.794c0.64,0.348,1.365,0.521,2.176,0.521
	c0.779,0,1.404-0.209,1.875-0.624c0.532-0.463,0.798-1.058,0.798-1.783c0-0.78-0.312-1.424-0.938-1.933
	c-0.57-0.47-1.373-0.903-2.407-1.296L4.351,9.977C2.924,9.421,1.837,8.789,1.088,8.078c-0.694-0.648-1.042-1.482-1.042-2.5
	c0-1.357,0.528-2.534,1.586-3.53c1.173-1.095,2.697-1.644,4.571-1.644c0.772,0,1.976,0.182,3.611,0.544
	c0.471,0.108,0.826,0.162,1.065,0.162c0.309,0,0.494-0.178,0.556-0.533h0.243L11.944,6.491z"/>
<path fill="#FFFFFF" d="M18.313,41.724v-0.046c0-4.584,3.426-8.38,8.102-8.38c2.893,0,4.629,1.065,6.296,2.593l-0.856,0.879
	c-1.413-1.365-3.033-2.385-5.463-2.385c-3.889,0-6.829,3.172-6.829,7.247v0.046c0,4.096,2.986,7.292,6.852,7.292
	c2.337,0,3.935-0.903,5.578-2.523l0.811,0.786c-1.713,1.69-3.565,2.824-6.435,2.824C21.739,50.057,18.313,46.377,18.313,41.724"/>
<path fill="#FFFFFF" d="M47.217,0.948v11.518c0,1.094,0.029,1.833,0.087,2.215s0.186,0.692,0.388,0.933
	c0.339,0.393,1.018,0.616,2.036,0.67v0.232H40.03v-0.232c1.018-0.054,1.697-0.277,2.037-0.67c0.208-0.241,0.341-0.546,0.399-0.921
	s0.086-1.117,0.086-2.228V0.948c-1.203,0.216-2.391,0.853-3.564,1.91c-0.834,0.779-1.474,1.667-1.921,2.663h-0.232L37.529,0
	c0.348,0.323,0.709,0.524,1.083,0.601c0.374,0.077,1.17,0.116,2.39,0.116h7.974c1.05,0,1.763-0.042,2.141-0.127
	S51.865,0.307,52.228,0l0.625,5.521h-0.231c-0.517-1.221-1.308-2.258-2.373-3.114C49.216,1.604,48.204,1.118,47.217,0.948"/>
<path fill="#FFFFFF" d="M57.625,41.724v-0.046c0-4.422,3.264-8.38,8.171-8.38c4.907,0,8.125,3.912,8.125,8.334v0.046
	c0,4.421-3.264,8.379-8.171,8.379C60.841,50.057,57.625,46.145,57.625,41.724 M72.67,41.724v-0.046c0-4.005-2.917-7.293-6.921-7.293
	c-4.005,0-6.875,3.241-6.875,7.247v0.046c0,4.004,2.917,7.292,6.921,7.292S72.67,45.729,72.67,41.724"/>
<path fill="#FFFFFF" d="M87.778,0.405c2.099,0,3.974,0.667,5.625,2.002c2.006,1.621,3.01,3.731,3.01,6.331
	c0,2.432-1.004,4.46-3.01,6.088c-1.645,1.335-3.514,2.002-5.613,2.002s-3.97-0.667-5.614-2.002
	c-1.998-1.628-2.997-3.699-2.997-6.214c0-2.555,0.999-4.623,2.997-6.205C83.867,1.072,85.733,0.405,87.778,0.405 M87.79,0.717
	c-0.818,0-1.505,0.301-2.06,0.903c-0.942,1.019-1.412,3.348-1.412,6.992c0,2.631,0.27,4.641,0.81,6.029
	c0.224,0.579,0.573,1.036,1.047,1.371c0.475,0.336,1.017,0.504,1.627,0.504c0.825,0,1.512-0.301,2.059-0.902
	c0.942-1.019,1.413-3.323,1.413-6.91c0-2.739-0.267-4.777-0.798-6.112c-0.255-0.632-0.652-1.123-1.192-1.47
	C88.858,0.853,88.361,0.717,87.79,0.717"/>
<path fill="#FFFFFF" d="M102.445,33.576h5.393c5.093,0,8.611,3.494,8.611,8.056v0.046c0,4.559-3.519,8.102-8.611,8.102h-5.393
	V33.576z M103.648,34.687v13.981h4.189c4.515,0,7.361-3.079,7.361-6.944v-0.046c0-3.843-2.847-6.991-7.361-6.991H103.648z"/>
<path fill="#FFFFFF" d="M128.189,8.658v3.808c0,1.095,0.024,1.833,0.075,2.215c0.05,0.383,0.168,0.693,0.353,0.933
	c0.293,0.393,0.888,0.617,1.782,0.671v0.231h-9.085v-0.231c0.895-0.054,1.488-0.278,1.782-0.671c0.186-0.24,0.303-0.55,0.354-0.933
	c0.05-0.382,0.075-1.12,0.075-2.215V4.78c0-1.104-0.025-1.846-0.075-2.229c-0.051-0.381-0.168-0.696-0.354-0.942
	c-0.294-0.386-0.888-0.606-1.782-0.661V0.717h6.645c1.758,0,3.143,0.08,4.153,0.238c1.011,0.158,1.906,0.44,2.686,0.85
	c0.702,0.355,1.269,0.849,1.702,1.482c0.331,0.485,0.497,1.029,0.497,1.631c0,0.872-0.359,1.595-1.077,2.171
	c-0.717,0.575-1.731,0.955-3.043,1.14c0.88,0.154,1.543,0.417,1.99,0.787s0.926,1.05,1.436,2.037l1.343,2.593
	c0.54,1.049,1.003,1.744,1.389,2.083c0.339,0.293,0.914,0.479,1.724,0.556v0.231h-6.944c-1.466-3.503-2.486-5.689-3.061-6.557
	c-0.575-0.868-1.287-1.301-2.136-1.301H128.189z M128.189,8.38h0.671c1.149,0,1.96-0.302,2.431-0.903
	c0.486-0.625,0.729-1.555,0.729-2.789c0-1.213-0.242-2.142-0.729-2.79c-0.239-0.324-0.548-0.556-0.926-0.693
	c-0.378-0.14-0.88-0.209-1.505-0.209h-0.671V8.38z"/>
<polygon fill="#FFFFFF" points="145.46,33.575 156.987,33.575 156.987,34.687 146.664,34.687 146.664,41.053 155.946,41.053 
	155.946,42.164 146.664,42.164 146.664,48.668 157.104,48.668 157.104,49.779 145.46,49.779 "/>
<path fill="#FFFFFF" d="M172.79,9.085v3.381c0,1.095,0.024,1.833,0.074,2.215c0.051,0.383,0.168,0.693,0.354,0.933
	c0.293,0.393,0.886,0.617,1.782,0.671v0.23h-9.086v-0.23c0.896-0.054,1.49-0.278,1.783-0.671c0.186-0.24,0.303-0.55,0.353-0.933
	c0.05-0.382,0.075-1.12,0.075-2.215v-2.362l-3.899-6.471c-0.581-0.956-1.08-1.615-1.5-1.978s-0.962-0.598-1.626-0.707V0.717h9.19
	v0.231c-0.842,0.1-1.262,0.49-1.262,1.17c0,0.532,0.284,1.272,0.856,2.222l2.708,4.479l0.811-1.296
	C174.468,5.809,175,4.286,175,2.951c0-0.587-0.081-1.038-0.243-1.355c-0.161-0.316-0.424-0.532-0.787-0.648V0.717H180v0.231
	c-0.602,0.17-1.09,0.383-1.464,0.637c-0.374,0.255-0.844,0.687-1.406,1.296c-1.173,1.281-2.219,2.685-3.137,4.214L172.79,9.085z"/>
</svg>
