<?xml version="1.0" encoding="utf-8"?>
<!-- Generator: Adobe Illustrator 14.0.0, SVG Export Plug-In . SVG Version: 6.00 Build 43363)  -->
<!DOCTYPE svg PUBLIC "-//W3C//DTD SVG 1.1//EN" "http://www.w3.org/Graphics/SVG/1.1/DTD/svg11.dtd">
<svg version="1.1" id="Layer_1" xmlns="http://www.w3.org/2000/svg" xmlns:xlink="http://www.w3.org/1999/xlink" x="0px" y="0px"
	 width="2118.136px" height="777.028px" viewBox="0 0 2118.136 777.028" enable-background="new 0 0 2118.136 777.028"
	 xml:space="preserve">
<path fill="#FFFFFF" d="M2017.738,153.319c0,0-58.207,80.98-173.258,83.145c-115.054,2.164-291.331-79.964-415.057-116.87
	C1165.59,40.897,459.656-71.913,128.763,62.257C36.75,99.567,6.981,187.794,2.181,235.059c-3.187,31.401-1.941,50.172-1.941,50.172
	c-3.736,96.602,71.547,177.945,168.146,181.685c0.633,0.024,1.897,0.049,1.897,0.049c73.637,3.962,196.764-11.034,303.961-11.13
	c128.354-0.115,246.168,32.271,277.955,48.539c-55.681,28.594-270.298,239.053-270.298,239.053s-11.84,10.797-9.897,20.893
	c3.425,17.814,39.914,16.916,60.259-2.788c201.829-195.469,301.437-228.226,301.437-228.226s329.021,67.909,637.58,46.905
	c543.897-37.024,646.856-426.892,646.856-426.892H2017.738z"/>
<path fill="#0D122C" d="M706.027,373.583c-0.322,8.321-7.329,14.806-15.65,14.483c-8.326-0.32-14.81-7.328-14.487-15.649
	c0.322-8.323,7.327-14.81,15.652-14.486C699.864,358.251,706.351,365.26,706.027,373.583"/>
<path fill="#FFFFFF" d="M574.334,637.27c2.956,8.953,10.15,13.355,10.15,13.355l-8.534,7.804
	C565.747,647.272,573.485,634.703,574.334,637.27"/>
<path fill="#FFFFFF" d="M602.153,611.831c2.957,8.953,10.151,13.355,10.151,13.355l-8.534,7.804
	C593.568,621.833,601.306,609.263,602.153,611.831"/>
<path fill="#FFFFFF" d="M629.974,586.391c2.957,8.953,10.151,13.355,10.151,13.355l-8.534,7.804
	C621.388,596.393,629.126,583.824,629.974,586.391"/>
<path fill="#FFFFFF" d="M657.794,560.952c2.957,8.952,10.151,13.354,10.151,13.354l-8.534,7.806
	C649.208,570.954,656.945,558.383,657.794,560.952"/>
<path fill="#FFFFFF" d="M685.613,535.512c2.957,8.952,10.151,13.354,10.151,13.354l-8.534,7.806
	C677.028,545.514,684.766,532.944,685.613,535.512"/>
<path fill="#FFFFFF" d="M713.434,510.073c2.957,8.952,10.151,13.354,10.151,13.354l-8.534,7.806
	C704.848,520.074,712.586,507.504,713.434,510.073"/>
<path fill="#FFFFFF" d="M546.514,662.71c2.956,8.952,10.15,13.354,10.15,13.354l-8.534,7.806
	C537.928,672.712,545.665,660.142,546.514,662.71"/>
<path fill="#FFFFFF" d="M518.693,688.15c2.956,8.952,10.15,13.354,10.15,13.354l-8.534,7.806
	C510.107,698.152,517.845,685.582,518.693,688.15"/>
<path fill="#FFFFFF" d="M490.873,713.589c2.957,8.952,10.15,13.354,10.15,13.354l-8.533,7.805
	C482.287,723.591,490.025,711.021,490.873,713.589"/>
</svg>
