<?xml version="1.0" encoding="utf-8"?>
<!-- Generator: Adobe Illustrator 14.0.0, SVG Export Plug-In . SVG Version: 6.00 Build 43363)  -->
<!DOCTYPE svg PUBLIC "-//W3C//DTD SVG 1.1//EN" "http://www.w3.org/Graphics/SVG/1.1/DTD/svg11.dtd">
<svg version="1.1" id="Layer_1" xmlns="http://www.w3.org/2000/svg" xmlns:xlink="http://www.w3.org/1999/xlink" x="0px" y="0px"
	 width="180px" height="16.759px" viewBox="0 0 180 16.759" enable-background="new 0 0 180 16.759" xml:space="preserve">
<path fill="#F04F2B" d="M11.944,6.255h-0.231c-0.502-1.481-1.162-2.73-1.979-3.749C8.631,1.155,7.4,0.479,6.042,0.479
	c-0.741,0-1.335,0.197-1.782,0.59C3.766,1.495,3.518,2.058,3.518,2.76c0,0.748,0.274,1.343,0.822,1.783
	c0.609,0.471,1.59,0.964,2.94,1.481l2.21,0.834c1.195,0.454,2.104,0.994,2.721,1.619c0.779,0.788,1.168,1.744,1.168,2.87
	c0,0.657-0.137,1.303-0.41,1.939c-0.274,0.636-0.654,1.197-1.14,1.684c-1.096,1.081-2.534,1.62-4.317,1.62
	c-1.28,0-2.975-0.231-5.08-0.694c-0.58-0.131-0.973-0.197-1.182-0.197c-0.432,0-0.689,0.194-0.775,0.58H0.231L0,8.964h0.231
	c0.532,1.76,1.489,3.426,2.87,5c0.734,0.849,1.421,1.446,2.061,1.794c0.641,0.348,1.365,0.521,2.176,0.521
	c0.779,0,1.404-0.209,1.875-0.625c0.532-0.463,0.799-1.058,0.799-1.782c0-0.78-0.313-1.425-0.938-1.934
	c-0.569-0.47-1.373-0.903-2.407-1.296L4.352,9.738C2.924,9.184,1.838,8.552,1.088,7.841c-0.693-0.648-1.041-1.482-1.041-2.5
	c0-1.357,0.527-2.534,1.586-3.53c1.172-1.095,2.696-1.643,4.57-1.643c0.771,0,1.977,0.181,3.611,0.544
	c0.471,0.108,0.826,0.162,1.064,0.162c0.31,0,0.494-0.178,0.557-0.533h0.242L11.944,6.255z"/>
<path fill="#F04F2B" d="M47.217,1.069v11.518c0,1.095,0.029,1.834,0.087,2.216s0.187,0.691,0.388,0.933
	c0.34,0.394,1.019,0.616,2.036,0.671v0.231h-9.698v-0.231c1.019-0.055,1.697-0.277,2.037-0.671c0.209-0.241,0.342-0.546,0.399-0.921
	s0.086-1.117,0.086-2.228V1.069c-1.203,0.216-2.392,0.854-3.563,1.91c-0.834,0.779-1.475,1.667-1.922,2.662h-0.231l0.694-5.521
	c0.348,0.324,0.709,0.525,1.082,0.602c0.375,0.077,1.17,0.116,2.391,0.116h7.974c1.05,0,1.763-0.042,2.142-0.127
	c0.377-0.085,0.748-0.283,1.11-0.591l0.625,5.521h-0.231c-0.517-1.219-1.307-2.257-2.372-3.113
	C49.216,1.726,48.203,1.24,47.217,1.069"/>
<path fill="#F04F2B" d="M87.777,0.168c2.1,0,3.975,0.667,5.626,2.002c2.006,1.621,3.01,3.731,3.01,6.331
	c0,2.431-1.004,4.46-3.01,6.087c-1.645,1.336-3.515,2.003-5.613,2.003s-3.97-0.667-5.614-2.003
	c-1.998-1.627-2.997-3.699-2.997-6.213c0-2.555,0.999-4.623,2.997-6.205C83.867,0.835,85.732,0.168,87.777,0.168 M87.79,0.479
	c-0.818,0-1.505,0.301-2.06,0.903c-0.942,1.019-1.412,3.348-1.412,6.992c0,2.63,0.27,4.64,0.81,6.027
	c0.224,0.58,0.573,1.037,1.047,1.373c0.476,0.336,1.017,0.504,1.627,0.504c0.825,0,1.513-0.302,2.06-0.902
	c0.941-1.02,1.412-3.323,1.412-6.91c0-2.739-0.267-4.777-0.799-6.112c-0.255-0.633-0.652-1.123-1.191-1.47
	C88.857,0.616,88.361,0.479,87.79,0.479"/>
<path fill="#F04F2B" d="M128.189,8.42v3.808c0,1.095,0.024,1.833,0.075,2.216c0.05,0.382,0.168,0.692,0.353,0.933
	c0.293,0.393,0.888,0.616,1.782,0.67v0.231h-9.085v-0.231c0.895-0.054,1.488-0.277,1.782-0.67c0.186-0.24,0.303-0.551,0.354-0.933
	c0.05-0.383,0.075-1.121,0.075-2.216V4.542c0-1.103-0.025-1.846-0.075-2.228c-0.051-0.382-0.168-0.697-0.354-0.943
	c-0.294-0.386-0.888-0.605-1.782-0.66V0.479h6.645c1.758,0,3.143,0.08,4.153,0.238c1.011,0.158,1.906,0.441,2.686,0.851
	c0.702,0.354,1.269,0.848,1.702,1.481c0.331,0.485,0.497,1.031,0.497,1.631c0,0.872-0.359,1.596-1.077,2.171
	c-0.717,0.575-1.731,0.956-3.043,1.141c0.88,0.153,1.543,0.416,1.99,0.787c0.447,0.37,0.926,1.049,1.436,2.036l1.343,2.593
	c0.54,1.051,1.003,1.744,1.389,2.083c0.339,0.293,0.914,0.479,1.724,0.556v0.231h-6.944c-1.466-3.503-2.486-5.688-3.061-6.556
	c-0.575-0.868-1.287-1.302-2.136-1.302H128.189z M128.189,8.143h0.671c1.149,0,1.96-0.301,2.431-0.903
	c0.486-0.624,0.729-1.555,0.729-2.789c0-1.212-0.242-2.141-0.729-2.789c-0.239-0.325-0.548-0.556-0.926-0.694
	c-0.378-0.14-0.88-0.209-1.505-0.209h-0.671V8.143z"/>
<path fill="#F04F2B" d="M172.79,8.848v3.381c0,1.096,0.024,1.834,0.074,2.216c0.051,0.383,0.168,0.692,0.354,0.933
	c0.293,0.393,0.886,0.617,1.782,0.67v0.232h-9.086v-0.232c0.896-0.053,1.49-0.277,1.783-0.67c0.186-0.24,0.303-0.55,0.353-0.933
	c0.05-0.382,0.075-1.12,0.075-2.216V9.867l-3.899-6.471c-0.581-0.956-1.08-1.616-1.5-1.979c-0.42-0.362-0.962-0.597-1.626-0.706
	V0.48h9.19v0.231c-0.842,0.1-1.262,0.49-1.262,1.169c0,0.533,0.284,1.274,0.856,2.222l2.708,4.48l0.811-1.296
	C174.468,5.572,175,4.049,175,2.714c0-0.587-0.081-1.038-0.243-1.354c-0.161-0.316-0.424-0.532-0.787-0.648V0.48H180v0.231
	c-0.602,0.17-1.09,0.383-1.464,0.637c-0.374,0.254-0.844,0.688-1.406,1.296c-1.173,1.281-2.219,2.685-3.137,4.214L172.79,8.848z"/>
</svg>
