<?xml version="1.0" encoding="utf-8"?>
<!-- Generator: Adobe Illustrator 14.0.0, SVG Export Plug-In . SVG Version: 6.00 Build 43363)  -->
<!DOCTYPE svg PUBLIC "-//W3C//DTD SVG 1.1//EN" "http://www.w3.org/Graphics/SVG/1.1/DTD/svg11.dtd">
<svg version="1.1" id="Layer_1" xmlns="http://www.w3.org/2000/svg" xmlns:xlink="http://www.w3.org/1999/xlink" x="0px" y="0px"
	 width="180px" height="16.759px" viewBox="0 0 180 16.759" enable-background="new 0 0 180 16.759" xml:space="preserve">
<path fill="#242424" d="M18.313,8.426V8.38c0-4.584,3.426-8.38,8.103-8.38c2.893,0,4.629,1.064,6.295,2.593l-0.855,0.879
	c-1.413-1.366-3.033-2.385-5.463-2.385c-3.889,0-6.829,3.172-6.829,7.247V8.38c0,4.096,2.985,7.292,6.853,7.292
	c2.336,0,3.935-0.903,5.578-2.524l0.811,0.787c-1.713,1.69-3.565,2.824-6.436,2.824C21.739,16.759,18.313,13.078,18.313,8.426"/>
<path fill="#242424" d="M57.625,8.426V8.38c0-4.422,3.264-8.38,8.17-8.38c4.907,0,8.125,3.912,8.125,8.334V8.38
	c0,4.421-3.264,8.379-8.17,8.379C60.842,16.759,57.625,12.847,57.625,8.426 M72.67,8.426V8.38c0-4.005-2.916-7.293-6.92-7.293
	c-4.006,0-6.875,3.241-6.875,7.247V8.38c0,4.004,2.916,7.292,6.92,7.292S72.67,12.431,72.67,8.426"/>
<path fill="#242424" d="M102.445,0.277h5.393c5.093,0,8.611,3.494,8.611,8.056V8.38c0,4.56-3.519,8.102-8.611,8.102h-5.393V0.277z
	 M103.648,1.389v13.98h4.189c4.515,0,7.361-3.078,7.361-6.943V8.38c0-3.843-2.847-6.991-7.361-6.991H103.648z"/>
<polygon fill="#242424" points="145.46,0.277 156.987,0.277 156.987,1.388 146.664,1.388 146.664,7.754 155.946,7.754 
	155.946,8.865 146.664,8.865 146.664,15.37 157.104,15.37 157.104,16.481 145.46,16.481 "/>
</svg>
