<?xml version="1.0" encoding="utf-8"?>
<!-- Generator: Adobe Illustrator 14.0.0, SVG Export Plug-In . SVG Version: 6.00 Build 43363)  -->
<!DOCTYPE svg PUBLIC "-//W3C//DTD SVG 1.1//EN" "http://www.w3.org/Graphics/SVG/1.1/DTD/svg11.dtd">
<svg version="1.1" id="Layer_1" xmlns="http://www.w3.org/2000/svg" xmlns:xlink="http://www.w3.org/1999/xlink" x="0px" y="0px"
	 width="32.466px" height="38.043px" viewBox="0 0 32.466 38.043" enable-background="new 0 0 32.466 38.043" xml:space="preserve">
<path fill="#264C4C" d="M28.048,14.551l0.004-0.003C22.987,11.58,17.585,7.053,16.233,0C14.88,7.053,9.478,11.58,4.413,14.548
	l0.004,0.003C1.791,15.938,0,18.692,0,21.867c0,4.571,3.705,8.276,8.275,8.276c2.824,0,5.314-1.417,6.808-3.576
	c-0.445,3.49-1.925,8.92-6.517,11.476h7.667H23.9c-4.592-2.556-6.072-7.985-6.518-11.476c1.494,2.159,3.984,3.576,6.809,3.576
	c4.57,0,8.275-3.705,8.275-8.276C32.466,18.692,30.673,15.938,28.048,14.551"/>
</svg>
