<?xml version="1.0" encoding="utf-8"?>
<!-- Generator: Adobe Illustrator 14.0.0, SVG Export Plug-In . SVG Version: 6.00 Build 43363)  -->
<!DOCTYPE svg PUBLIC "-//W3C//DTD SVG 1.1//EN" "http://www.w3.org/Graphics/SVG/1.1/DTD/svg11.dtd">
<svg version="1.1" id="Layer_1" xmlns="http://www.w3.org/2000/svg" xmlns:xlink="http://www.w3.org/1999/xlink" x="0px" y="0px"
	 width="4257.755px" height="700px" viewBox="0 0 4257.755 700" enable-background="new 0 0 4257.755 700" xml:space="preserve">
<g>
	<defs>
		<rect id="SVGID_1_" width="1399.999" height="700"/>
	</defs>
	<clipPath id="SVGID_2_">
		<use xlink:href="#SVGID_1_"  overflow="visible"/>
	</clipPath>
	<path clip-path="url(#SVGID_2_)" fill="#D72027" d="M82.096,433.271l-13.152-1.464C72.992,432.5,77.403,432.946,82.096,433.271"/>
	<path clip-path="url(#SVGID_2_)" fill="#D72027" d="M78.94,443.871l22.868,0.261C89.195,443.641,79.914,443.438,78.94,443.871"/>
	<path clip-path="url(#SVGID_2_)" fill="#D72027" d="M653.03,639.642c43.33-2.134,110.596-4.517,58.373-4.259l-50.875,0.655
		C669.644,637.528,663.942,638.671,653.03,639.642"/>
	<path clip-path="url(#SVGID_2_)" fill="#D72027" d="M349.072,530.729c-4.928,0.203-10.255,0.414-15.464,0.624
		c17.412,0.518,33.592,1.006,48.693,1.439C371.905,532.172,360.759,531.468,349.072,530.729"/>
	<path clip-path="url(#SVGID_2_)" fill="#D72027" d="M138.416,529.225l32.829-2.813
		C159.816,527.044,148.833,527.949,138.416,529.225"/>
	<path clip-path="url(#SVGID_2_)" fill="#D72027" d="M28.124,375.382l-51.849-1.709C-23.432,376.346,2.687,375.17,28.124,375.382"/>
	<path clip-path="url(#SVGID_2_)" fill="#D72027" d="M622.29,437.442c-9.222-0.896-19.594-1.278-30.94-1.252
		C600.056,437.113,609.806,437.634,622.29,437.442"/>
	<path clip-path="url(#SVGID_2_)" fill="#D72027" d="M70.293,165.429c2.288-0.152,3.379-0.337,6.078-0.477
		C69.495,164.907,69.096,165.117,70.293,165.429"/>
	<path clip-path="url(#SVGID_2_)" fill="#D72027" d="M583.957,104.263c3.156,0.603,3.215,1.585,3.896,2.511
		C591.349,106.323,591.009,105.565,583.957,104.263"/>
	<path clip-path="url(#SVGID_2_)" fill="#D72027" d="M206.526,277.922c1.607-0.091,2.64-0.195,4.822-0.294
		C190.206,276.242,193.584,276.851,206.526,277.922"/>
	<path clip-path="url(#SVGID_2_)" fill="#D72027" d="M124.371,603.899c0.517,0.063,1.842,0.098,2.464,0.155
		c0.516-0.063,1.209-0.145,1.807-0.202L124.371,603.899z"/>
	<path clip-path="url(#SVGID_2_)" fill="#D72027" d="M86.449,598.967c63.359,2.1,55.568,3.294,42.192,4.886l146.758-1.632
		L86.449,598.967z"/>
	<path clip-path="url(#SVGID_2_)" fill="#D72027" d="M67.43,407.892l-45.724,3.464c-75.28-4.181-49.326-7.206-113.659-3.955
		c159.383,0.491,16.333,13.465,175.539,13.947l-33.521,2.283c1.549-0.654-7.838-0.759-6.243-1.406
		c-76.312,4.441,115.22,3.3,92.528,9.021c-12.203,1.993-35.352,3.386-54.254,2.025l39.412,4.443
		c-3.086,1.293-30.729,0.976-27.726-0.311l12.719,6.777l-4.693-0.05c25.026,0.967,63.64,3.157,80.09,4.227
		c-22.856,1.723-16.907-0.862-36.784-0.422l38.614,3.753c-41.301,1.528-81.357-1.582-75.455-4.174
		c-159.09,3.504,40.103,3.113-52.823,10.676l-20.216-3.543c-90.38,2.284-57.633,5.049-113.987,9.055
		c29.427-0.949,142.006-8.019,181.734-3.946c-12.062,1.146-17.787,2.661,14.291,4.856c-56.636,0.021-42.743,2.166-39.506,4.851
		l-75.08-0.184c21.659,2.903,59.874,2.673,93.678,4.38c-7.392,3.236-65.542,3.905-114.527,4.667
		c-11.921,5.181,93.208-3.576,107.358,2.555c-28.7,4.309,1.947,7.333,46.873,12.485c-25.848,3.017-45.9-0.525-67.383,0.556
		l59.874,2.673c-1.431,0.654-19.829,0.443-29.11,0.336c23.232,2.252,74.998,0.185,95.426,3.725
		c82.636,0.955-120.851,7.27-26.963,11.652c-21.307,1.08-45.994-0.522-75.045-0.192c61.587,6.013,44.738,5.155,127.668,10.092
		l-49.291,4.204c56.366-3.09,123.058,0.859,177.828,4.317c27.244-1.096,51.039-2.033,62.385-2.662l40.28,5.52
		c-12.32,0.667-38.075,0.109-69.437-0.793c6.218,0.376,12.319,0.731,17.987,1.011c-27.726,1.973-71.045,0.95-112.979-0.463
		c14.784-0.673,30.6-1.341,46.299-1.988c-45.583-1.364-96.082-2.639-140.023-2.354c8.648,0.358,16.098,1.049,20.275,1.809
		c-12.367-0.357-23.431-0.584-30.929-0.419c-7.908,0.187,8.706,0.763,27.843,1.666l-83.645,1.255l33.228,0.303l-52.365,7.221
		c84.244,5.166,208.193,9.659,242.735,17.858c-61.352-2.035-100.201-0.437-172.899-0.548c76.969-2.238-32.713-6.35-17.072-10.6
		c-8.072,2.218-42.732,1.73-54.829,1.166l70.012,7.579c-59.464-0.172-44.574,1.609-69.156,3.589
		c117.508-1.496,78.26,5.648,114.305,8.732c-39.482,0.192-79.727-0.547-70.246-4.31c-88.456,4.15,138.016,5.363,62.854,9.438
		c-0.951-0.919,5.092-1.414-14.96-1.776c35.07,2.146,7.287,7.392-27.092,6.156l-0.809-0.916c-13.892,6.1-0.857,18.566,98.945,19.477
		c-12.894,0.06-120.311-0.8-140.481-1.169l335.791,10.882c-85.687-0.958-289.844,2.721-338.255-2.336
		c-12.202,1.452-26.458,3.249,3.79,6.309c12.202-0.989,123.949-2.468,131.763-1.114c-95.449,3.716-51.039,2.58-132.397,7.159
		c18.386-1.484,152.79,0.165,148.495,2.512c-20.11-0.366-132.678,0.194-146.664-0.662L263.76,624.1
		c-23.748-1.458-111.828-0.258-149.128,1.049c25.848-0.606-2.405,5.049,10.665,6.606l30.612-2.477
		c-19.958,6.596,185.536,6.515,178.613,13.057c-27.279-0.792-167.724-1.956-184.339,1.371
		c67.572,1.524,325.043,6.751,377.056,12.538l-38.614,1.111l43.999,4.44c-101.691-2.767-315.667-10.525-398.914-14.764
		c-30.588,2.468-96.962,2.368-99.11,1.282l-23.372,8.604c78.94-0.384,79.116,6.58,144.834,6.252l-48.071,4.882
		c-29.673,3.393,104.554,5.539,29.274,9.617c-5.045,1.406-101.55,4.203-54.887,4.445c90.005-2.296,137.324,4.306,76.711,6.279
		c21.542,0.084,48.129,1.365,56.671,1.898c-18.397,1.479-66.75-0.612-56.976,2.601c79.949,0.536-6.771,6.533,67.571,1.518
		c22.856,3.144-16.438,3.34-12.954,7.03c51.685-1.175,175.892,3.313,198.713,6.46c-20.357-0.185-46.827,0.522-58.924,0.865
		c-7.216,6.44-43.53,9.898-44.222,15.904c-19.36,0.554-42.803,3.452-77.228,2.218c14.15,0.863,41.254,1.657,43.202,3.51
		c-69.155,3.585-10.771-4.13-93.853-1.397c46.463,0.232,64.144,4.792,93.184,7.43c71.76-0.813,13.751-6.096-15.265-8.739
		c99.004-0.012,202.69,4.587,248.472,10.866c24.581,4.989-63.969,2.163-49.901,3.029c-17.306,9.371,172.9,7.982,101.457,15.766
		c-63.078,3.088-125.521,0.138-171.01,0.823c-23.889-4.064,40.045-6.239,37.522-8.994l-29.849,3.391
		c-20.967-1.293-36.889-4.006-18.609-5.483c-56.67,2.588-10.888,15.833-63.194,23.062c21.143,1.286,43.025,3.503,68.404,2.454
		l-8.824-2.288c50.875-2.103,70.352,4.306,94.1,1.41c35.774,3.069,92.012,6.509,63.219,10.83l-71.925,0.811
		c21.026-0.092,42.826-2.823,20.885-4.039c31.902,1.803-97.338,6.625-3.156,8.599l49.842-3.028
		c36.15,3.082,112.544,6.89,89.829,10.718c71.044-1.741-8.131-0.883,74.998-3.603c-103.415,2.358,4.353-9.794-104.331-6.005
		c96.482-2.792,40.913-4.832,123.175-8.482c-23.713,0.113-45.373,1.292-33.686-1.921c-6.935-0.145-15.746-0.488-20.909-0.705
		c0.634-0.098,1.033-0.133,1.772-0.217c-0.88,0.064-1.947,0.112-2.804,0.176c-3.556-0.138-4.294-0.15-0.939,0.067
		c-10.407,0.765-22.868,1.386-36.103,1.638c-54.512-1.596-52.787-6.707-80.97-8.435c11.276-1.908,27.233,0.797,52.529-0.244
		l-42.134-2.582c52.683-0.256,87.506-5.068,118.388-0.574l2.346-4.044c29.568-2.381,41.313-5.656,19.172-7.675
		c11.393-1.907-58.36-4.819-17.107-3.156l-32.653-6.342l13.177-0.061c6.64-6.257-87.26-12.881,7.849-20.034
		c-13.294-2.107-29.568-4.284-14.608-7.809l45.595-0.687c-15.922-2.704,45.607-8.122-1.889-9.285
		c122.658-2.917,26.764-13.127,48.528-17.884l-59.521-0.181c3.379-3.273-13.516-6.414-37.417-10.478l-52.588,0.25
		c-43.166-3.504,37.406-9.01,32.02-14.552c20.111,0.377,14.877,1.781,2.699,2.776c118.845-6.622-86.45-13.971,0.117-19.976
		c-19.113-1.497-12.613-2.581,0.622-3.63c0.117,0.139,1.091,0.264,2.757,0.371c0.634-0.153,0.739-0.382,0.634-0.615
		c9.069-0.66,19.583-1.341,28.042-2.078c-12.812,0.627-23.349,1.226-28.218,1.749c-1.092-1.155-7.627-2.906-20.803-4.621
		l56.519-0.73c-0.775-0.14-0.658-0.253-1.631-0.397c20.849-1.683-26.752-1.354-69.238-0.455c-9.304-0.864-20.474-1.656-34.107-2.27
		c91.224-1.367-30.718-4.501,66.561-6.368c-47.437-1.156-35.692-8.627-135.482-9.541c13-0.059,19.219-0.565,19.993,0.361
		c11.428-1.912,22.739-3.823-5.385-5.539l71.842-0.812l-96.564-4.177c43.741-2.538,69.178-3.59,124.465-1.07
		c-85.018-6.084-32.032-4.937-116.299-10.111l46.452,0.252c-1.772-1.849-63.993-4.805-25.579-5.921
		c88.292-4.136,12.203-20.471,94.252-31.091c-136.784,2.061,61.271-4.936-44.726-5.356c32.313-0.618,50.593-2.1,78.718-0.378
		c-31.786-5.42,51.285-8.144-38.098-11.887c32.489-0.62,47.437,1.161,66.667,0.609c-7.027-0.436-28.159-1.722-8.823-2.286
		c19.219-0.552,27.127,0.794,41.242,1.651c-5.444-5.536-105.129-6.097-198.712-6.499c44.292-2.807,38.039-4.205-23.314-6.231
		c30.588-0.977,62.644-2.605,73.614,0.834c4.47-1.936,44.867-11.823-30.131-12.02c19.02-0.606,5.562-2.705-3.097-3.214
		c4.47-4.344,11.228-4.726,4.13-8.989l-12.238,1.182c-90.486-1.684-20.216-3.545-31.081-6.982l9.281,0.099
		c65.26-7.882-31.281-3.404,43.201-11.18l-56.284,0.424c-121.027-0.727,71.409-6.892,25.121-11.404l-32.137,1.629
		c-41.395-2.464,164.593-6.889,179.74-9.365c10.512-0.539,16.872,0.853,24.663,1.605c71.384-6.481-73.696-0.84-90.826-5.669
		c39.728-0.891,101.081,1.146,108.507-2.104c32.162-1.618-129.111-9.428-52.857-13.862c-30.647,0.977-61.235,1.946-84.244-0.295
		c-10.97-3.438,115.818-9.296,19.219-12.401c8.366-0.437,16.391-0.602,24.006-0.62c-24.922-2.628-41.395-8.541-93.783-10.125
		c194.394-2.428-94.534-16.339,84.737-16.281l-9.621-8.084l18.327,0.212c11.885-5.169-31.105-6.995-74.13-8.812
		c12.202-1.195,28.922-0.324,38.32-0.224c36.15-7.552,28.535-8.303-60.778-14.633l58.15-0.658
		c-33.78-1.717,91.201-10.916,23.372-18.321c6.583,0.072,17.905,0.225,26.071,0.813c-68.24-8.332,161.332-19.946-50.476-23.001
		l-52.188-5.497c-16.45,7.112-91.906-1.06-127.082,1.866c-12.425-2.797,63.887-7.231,74.763-3.795l-10.595,0.539
		c110.432,1.262,39.131-8.84,114.293-8.648c-5.433-13.998,55.685-27.642,60.39-40.752l-85.828,1.51l4.964-4.573
		c19.958-1.201,67.113-1.611,63.593,1.651c48.61-1.716-40.761-5.473-59.44-5.564c34.777-6.389,100.084,2.495,102.149,0.536
		l-6.395-2.661l-10.055,0.601c-35.059-2.156-72.206-2.349-67.993-6.27c17.176-2.481,52.927-1.273,56.248-2.25
		c6.078,0.005,8.94-0.325,2.464-1.498l7.333-5.762l-67.771,2.304c-33.403-2.555,3.556-5.418-73.214-2.76
		c118.364-3.903,42.509-21.494,79.257-23.891c-49.408-3.576-48.528-7.107-42.567-11.481c-14.115,1.088-90.311,1.738-80.982-2.034
		c157.211,1.378,68.262-6.909,181.335-9.957c-74.999,2.725-18.515-10.726-124.982-6.45c12.719-3.147,58.807-0.19,95.813-2.58
		c-60.895-7.491,39.587-16.511,19.02-25.771c-20.627-0.146-52.189,1.406-82.895-0.58l103.181-4.89
		c-10.137-1.829-119.115-1.685-47.495-5.025c-17.366,0.471-43.519,1.175-50.137-0.051c100.577-18.144-82.378-37.072,106.573-55.496
		c-39.963,2.495-43.952,0.832-45.442-1.074c-9.563,1.24-50.981-0.027-78.917,0.215l77.661-7.713
		c-77.626-1.406-5.245-8.27-79.457-9.075l13.341,2.443c-87.599-3.249-194.676,4.546-307.08,4.07
		c99.58,3.637-147.461,9.591-4.928,15.559c-22.914,1.317-36.196-1.124-62.267-0.419c48.176,1.512,58.231,3.338,36.607,6.725
		l-11.921-0.384c11.78,9.512-35.751,13.589-67.396,24.274l55.592-0.791c-7.439,2.296-24.863,2.779-38.755,3.853
		c84.244,2.637,4.729-6.447,97.655-4.048c-113.095,3.046-1.713,16.192-130.226,18.25c-0.657,3.533,64.345-1.035,63.594,2.496
		l-34.777,0.937l44.808,0.893c-7.391,2.315-50.874,3.483-80.324,3.57c3.496-0.563-8.225-1.598-10.771-2.199
		c-40.961,3.003,13.986,8.467,0.633,9.498l21.425-3.395c32.536,9.641-13.118,21.409,57.61,30.723l26.211-0.707
		c48.552,7.111-28.816,5.695-6.359,13.504l-6.254-0.283c26.13,1.563,39.329,3.649,36.326,5.786
		c-30.706-1.972-59.698,3.71-93.666,1.123c52.072,7.712,40.902,3.814,138.357,8.908l-43.483,1.175
		c39.353,1.736,60.097,1.881,71.385,5.78c-37.359-3.198-66.316,2.488-115.677-1.095c-95.132,8.184,96.083,12.151-43.084,15.906
		c120.428,3.756,66.867-7.081,92.645-4.978c39.388-1.763,90.004,3.103,77.907,5.67c-2.686,2.613-154.044,4.444-151.732,11.021
		c0.552-0.653-8.53-0.699-8.014-1.352c-30.741,2.462,41.559,4.821-8.307,7.841c72.781,1.692-4.189,3.92,88.655,4.407l-21.459-6.032
		c24.264,3.419,132.948,6.626,80.243,12.259c-18.715-0.438-43.343-2.115-57.129-3.267c-27.385,1.646,18.198,3.172-9.961,4.88
		c-92.986-0.486-20.228-7.331-91.097-10.994c-39.247,1.767,67.313,6.93-33.345,5.089c127.997,2.646-16.157,6.479,81.58,10.932
		l-55.685-0.294c8.764,0.705,35.071,2.165,33.639,3.463l-72.194-2.349c61.587,3.605-53.855,6.951-20.334,10.409
		c-1.724-7.242,67.09-1.625,107.711-4.687c74.528,8.93-145.643,5.136-118.916,15.134c-7.873-1.354,33.428-5.082,59.217-2.966
		c-11.428,1.903-32.829,4.417-62.045,5.586c11.569,6.624,57.282-1.018,91.484,1.802c-67.83,2.256,27.643,3.253,49.338,6.157
		l-56.613,0.021c-36.314,7.547,117.989,2.001,74.107,8.796l-78.518-2.872l20.286,3.543l-64.391-0.729
		c47.777,3.853,35.434,5.054,17.354,8.831c39.881-0.878,102.723,0.493,104.53,3.836c-33.662,2.28-53.831-1.276-45.724,3.463
		c-35.434-1.071-79.89-2.242-27.749-4.305c-18.42-0.212-35.527-1.056-53.749-1.273c-38.66,2.456-8.812,6.172-8.307,7.887
		c2.124-0.661,5.186-1.449,13.235-1.854l78.436,6.87c-21.261,1.082-38.332,0.224-55.052-0.626
		c6.125,1.392,32.161,2.354,37.007,4.399c-46.006-0.528-93.502-0.401-115.161-3.298l51.05,6.545
		c-19.993,0.438-54.945,3.36-71.9,2.51c-27.045,3.63,89.266,8.902,53.573,13.714c8.929,0.25,17.471,0.751,24.054,1.774
		c-10.419,4.521-66.856,8.527-3.778,13.886l-82.496,3.041c18.726,4.198,103.92-4.115,135.036,2.872
		c26.318,4.949-70.363,1.849-93.337,3.583c41.594,2.461,126.214,6.74,59.077,11.286C61.353,410.477,73.554,409.298,67.43,407.892
		 M104.013,459.657c-11.897-1.003-48.563-3.003-15.182-3.735C153.703,457.064,122.681,457.947,104.013,459.657 M240.271,538.351
		c-18.702-0.746-9.445-1.9,11.98-3.201C256.885,536.094,254.796,537.164,240.271,538.351 M634.374,757.563
		c-0.915-0.043-1.595-0.074-2.745-0.107C653.688,755.219,644.981,756.012,634.374,757.563 M609.805,762.21
		c7.896,0.467,15.746,0.435,23.654,0.235c-14.326-0.323-15.3-1.367-11.287-2.555C607.341,760.222,597.086,760.82,609.805,762.21
		 M587.489,263.254l-14.807,0.903C556.431,262.115,571.133,262.688,587.489,263.254"/>
	<path clip-path="url(#SVGID_2_)" fill="#D72027" d="M162.82,529.428c9.563-0.283,20.11-0.362,30.764-0.43
		C184.069,528.604,173.075,528.596,162.82,529.428"/>
	<path clip-path="url(#SVGID_2_)" fill="#D72027" d="M37.698,375.697c0.458-0.054,0.281-0.104,0.633-0.157
		c-3.39-0.087-6.828-0.133-10.207-0.158L37.698,375.697z"/>
	<path clip-path="url(#SVGID_2_)" fill="#D72027" d="M129.874,690.237c8.143-0.956,18.503-1.489,29.216-1.845
		C145.255,688.341,133.569,688.776,129.874,690.237"/>
	<polygon clip-path="url(#SVGID_2_)" fill="#D72027" points="329.7,684.616 330.627,685.542 450.129,685.408 	"/>
	<path clip-path="url(#SVGID_2_)" fill="#D72027" d="M43.823,636.335c-28.617,4.308,73.731,1.021,37.992,4.916
		c28.241,1.011,29.18-3.184,53.585-2.146C105.586,636.506,122.424,635.141,43.823,636.335"/>
	<path clip-path="url(#SVGID_2_)" fill="#D72027" d="M135.4,639.106c4.67,0.416,10.407,0.856,18.163,1.326
		C146.089,639.68,140.363,639.325,135.4,639.106"/>
	<polygon clip-path="url(#SVGID_2_)" fill="#D72027" points="648.126,94.113 673.047,91.342 632.884,93.131 	"/>
	<path clip-path="url(#SVGID_2_)" fill="#D72027" d="M559.494,88.795l76.148-0.652l-68.92-1.664
		C570.101,87.105,576.718,88.318,559.494,88.795"/>
	<polygon clip-path="url(#SVGID_2_)" fill="#D72027" points="7.556,429.781 6.019,430.428 74.904,429.219 	"/>
	<path clip-path="url(#SVGID_2_)" fill="#D72027" d="M-80.267,398.248c-2.863,1.287,12.496,2.8,9.574,4.093
		C-83.129,399.535,5.608,397.899-80.267,398.248"/>
	<path clip-path="url(#SVGID_2_)" fill="#D72027" d="M397.491-11.68c5.138-1.233-53.522-0.79-64.05-0.978
		C346.433-10.592,412.737-11.732,397.491-11.68"/>
	<polygon clip-path="url(#SVGID_2_)" fill="#D72027" points="530.659,8.691 506.705,8.33 565.393,11.334 	"/>
	<path clip-path="url(#SVGID_2_)" fill="#D72027" d="M529.567,27.739c99.946-1.8-16.128-6.901,19.418-10.295l22.764-0.56
		l-80.402-1.531C504.073,19.479,557.455,24.835,529.567,27.739"/>
	<path clip-path="url(#SVGID_2_)" fill="#D72027" d="M313.407,37.896c38.906-0.627,33.474,2.196,12.18-2.368
		c-4.242,0.229-6.706,0.295-9.856,0.429C316.347,36.368,316.179,36.934,313.407,37.896"/>
	<path clip-path="url(#SVGID_2_)" fill="#D72027" d="M315.731,35.957C312.931,33.951,283.055,37.269,315.731,35.957"/>
	<path clip-path="url(#SVGID_2_)" fill="#D72027" d="M338.019,45.222l-34.72-2.644c-23.002,0.553-28.168,2.904-44.842,2.031
		C277.455,47.32,300.289,46.763,338.019,45.222"/>
	<path clip-path="url(#SVGID_2_)" fill="#D72027" d="M410.959,47.727l-14.7-1.369C386.627,46.598,383.281,46.958,410.959,47.727"/>
	<path clip-path="url(#SVGID_2_)" fill="#D72027" d="M365.235,43.453l31.024,2.903c16.142-0.383,48.51-0.423-11.2-1.333
		C414.655,45.262,386.179,44.687,365.235,43.453"/>
	<path clip-path="url(#SVGID_2_)" fill="#D72027" d="M380.467,41.81c21.742-1.482,35.42-3.397,70-0.745
		C436.705,36.009,366.467,36.753,380.467,41.81"/>
	<path clip-path="url(#SVGID_2_)" fill="#D72027" d="M632.929,28.713l29.26-1.982l-33.502-1.714
		C645.305,25.873,601.611,28.836,632.929,28.713"/>
	<path clip-path="url(#SVGID_2_)" fill="#D72027" d="M286.275,61.683c21.266,0.165,56.672-0.89,83.846-1.086l-24.374-1.952
		C331.187,59.647,317.761,61.549,286.275,61.683"/>
	<path clip-path="url(#SVGID_2_)" fill="#D72027" d="M370.121,60.597l36.54,2.92C410.959,60.908,393.599,60.432,370.121,60.597"/>
	<polygon clip-path="url(#SVGID_2_)" fill="#D72027" points="521.881,48.198 445.217,43.4 522.931,49.122 	"/>
	<polygon clip-path="url(#SVGID_2_)" fill="#D72027" points="283.615,72.836 234.391,71.18 308.759,74.129 	"/>
	<path clip-path="url(#SVGID_2_)" fill="#D72027" d="M292.225,80.233c-40.74-1.226-68.978,1.68-94.066,0.385
		c7.308,2.01,42.308,3.725,73.766,5.27C254.355,84.247,258.863,82.497,292.225,80.233"/>
	<path clip-path="url(#SVGID_2_)" fill="#D72027" d="M317.761,88.483c-9.744-0.82-27.286-1.67-45.836-2.596
		C281.347,86.76,294.856,87.618,317.761,88.483"/>
	<path clip-path="url(#SVGID_2_)" fill="#D72027" d="M396.091,68.491c-12.81,0.227-46.452,0.661-60.704,2.299l59.822-1.149
		C395.587,69.291,395.825,68.893,396.091,68.491"/>
	<path clip-path="url(#SVGID_2_)" fill="#D72027" d="M397.155,69.601l-1.946,0.041c-1.274,1.246-2.632,2.11-3.318,2.48
		C392.409,71.805,393.935,71.045,397.155,69.601"/>
	<path clip-path="url(#SVGID_2_)" fill="#D72027" d="M396.399,68.202c-0.14,0.104-0.308,0.185-0.308,0.289
		C402.013,68.381,403.987,68.313,396.399,68.202"/>
	<path clip-path="url(#SVGID_2_)" fill="#D72027" d="M467.799,55.854c33.404,1.716,69.258,5.293,120.288,1.831
		C547.137,56.453,518.087,58.436,467.799,55.854"/>
	<path clip-path="url(#SVGID_2_)" fill="#D72027" d="M471.187,66.775l13.678-3.103c-15.792,0.062-38.864,0.621-55.44-0.229
		L471.187,66.775z"/>
	<polygon clip-path="url(#SVGID_2_)" fill="#D72027" points="490.185,68.295 471.187,66.774 466.091,67.926 	"/>
	<path clip-path="url(#SVGID_2_)" fill="#D72027" d="M373.775,83.17c26.04,1.34,28.238,2.806,32.396,4.461
		c11.76-1.774,18.116-3.609,17.99-5.353C405.359,82.033,371.661,81.269,373.775,83.17"/>
	<path clip-path="url(#SVGID_2_)" fill="#D72027" d="M390.393,76.576c1.358,0.092,2.016,0.211,3.416,0.297
		C398.863,76.689,400.473,76.544,390.393,76.576"/>
	<path clip-path="url(#SVGID_2_)" fill="#D72027" d="M405.737,103.931c3.318-0.091,7.406-0.17,10.906-0.263
		c-3.5-0.02-6.874-0.034-10.332-0.061L405.737,103.931z"/>
	<path clip-path="url(#SVGID_2_)" fill="#D72027" d="M435.305,81.981c11.55-1.334-3.08-2.132-21.546-2.892
		c6.02,0.997,9.912,2.056,10.402,3.189C432.631,82.389,438.231,82.411,435.305,81.981"/>
	<path clip-path="url(#SVGID_2_)" fill="#D72027" d="M345.747,93.03c12.516-0.695,23.1-1.482,32.886-2.311
		C359.691,91.399,330.123,92.784,345.747,93.03"/>
	<path clip-path="url(#SVGID_2_)" fill="#D72027" d="M377.233,77.323c-0.966-0.066-2.016-0.127-2.632-0.199
		C361.749,77.56,368.035,77.506,377.233,77.323"/>
	<path clip-path="url(#SVGID_2_)" fill="#D72027" d="M377.233,77.323c8.638,0.687,23.408,1.226,36.526,1.768
		c-4.704-0.812-11.13-1.565-19.95-2.218C389.567,77.039,383.099,77.205,377.233,77.323"/>
	<path clip-path="url(#SVGID_2_)" fill="#D72027" d="M789.771,108.868c-55.44-0.235-106.667-3.741-47.194-6.77
		c-41.566-2.978-223.944-1.03-325.934,1.57c24.192,0.092,46.55,0.092,79.296,3.158c30.24-1.074,70.812-6.802,120.988-4.216
		c28.546,4.061-19.614,3.326-48.944,5.301c69.118-1.678,100.562,5.166,202.146,4.281l-35.798-3.561
		C750.123,108.566,775.393,109.857,789.771,108.868"/>
	<path clip-path="url(#SVGID_2_)" fill="#D72027" d="M422.313,97.828l-6.846-1.262c-9.73,1.438-31.85,2.468-75.25,4.362
		c27.062,2.099,47.642,2.535,66.094,2.678l7.728-6.211L422.313,97.828z"/>
	<path clip-path="url(#SVGID_2_)" fill="#D72027" d="M415.201,90.903c60.354,0.984,86.002,4.015,151.284,2.159
		c-4.172-3.702-50.386-2.595-76.566-4.806c14.938,5.974-33.572-1.716-67.816,2.601c-10.248-1.175-13.398-2.23-15.932-3.227
		c-7.308,1.076-16.394,2.113-27.538,3.089c1.358-0.054,2.394-0.092,3.752-0.137l-0.196-0.028c0.406,0,0.546,0.006,0.91,0.006
		c7.56-0.258,12.11-0.343,7.728-0.053c0.784,0.021,1.064,0.094,1.274,0.125c8.372,0.041,15.722,0.151,22.764,0.271
		c-12.446,1.729-15.666,0.271-22.764-0.271c-2.94-0.019-5.754-0.066-9.002-0.072c-0.294,0.006-0.504,0.015-0.714,0.022l33.082,5.984
		C423.811,95.3,422.103,93.715,415.201,90.903"/>
	<path clip-path="url(#SVGID_2_)" fill="#D72027" d="M717.825,60.876c-5.334,0.186-9.632,0.178-14.014,0.19
		C711.203,61.454,716.257,61.602,717.825,60.876"/>
	<path clip-path="url(#SVGID_2_)" fill="#D72027" d="M681.397,63.338c-8.414-0.437-32.55-0.798-26.362-2.212
		c18.158-1.227,28.952,0.006,48.775-0.06c-15.988-0.851-43.273-2.981-72.632-0.309l8.246,0.423
		c-20.72,2.409-95.984,5.504-104.258,5.083C589.417,65.562,628.099,64.94,681.397,63.338"/>
	<path clip-path="url(#SVGID_2_)" fill="#D72027" d="M563.671,77.293l29.61,4.981l52.192-2.537l-31.346,0.129
		C626.433,77.033,587.807,77.646,563.671,77.293"/>
	<polygon clip-path="url(#SVGID_2_)" fill="#D72027" points="375.763,104.5 312.049,103.84 402.013,106.718 	"/>
	<polygon clip-path="url(#SVGID_2_)" fill="#D72027" points="383.407,110.976 327.967,110.736 361.398,112.445 	"/>
	<path clip-path="url(#SVGID_2_)" fill="#D72027" d="M1070.835,476.373l15.693,1.464
		C1081.699,477.144,1076.436,476.697,1070.835,476.373"/>
	<path clip-path="url(#SVGID_2_)" fill="#D72027" d="M1074.602,465.773l-27.286-0.262
		C1062.365,466.003,1073.439,466.205,1074.602,465.773"/>
	<path clip-path="url(#SVGID_2_)" fill="#D72027" d="M389.595,270.004c-51.702,2.132-131.964,4.515-69.65,4.257l60.704-0.654
		C369.771,272.115,376.575,270.974,389.595,270.004"/>
	<path clip-path="url(#SVGID_2_)" fill="#D72027" d="M752.279,378.915c5.88-0.203,12.235-0.414,18.451-0.623
		c-20.775-0.52-40.082-1.006-58.1-1.44C725.035,377.472,738.335,378.176,752.279,378.915"/>
	<path clip-path="url(#SVGID_2_)" fill="#D72027" d="M1003.635,380.42l-39.172,2.812C978.099,382.6,991.203,381.694,1003.635,380.42
		"/>
	<path clip-path="url(#SVGID_2_)" fill="#D72027" d="M1135.235,534.264l61.866,1.708
		C1196.751,533.299,1165.587,534.476,1135.235,534.264"/>
	<path clip-path="url(#SVGID_2_)" fill="#D72027" d="M405.737,177.293c-23.688,1.841-33.67,3.306-36.61,4.592
		C403.987,179.668,456.347,177.879,405.737,177.293"/>
	<path clip-path="url(#SVGID_2_)" fill="#D72027" d="M426.275,472.202c11.004,0.896,23.38,1.277,36.918,1.252
		C452.805,472.532,441.171,472.01,426.275,472.202"/>
	<path clip-path="url(#SVGID_2_)" fill="#D72027" d="M369.337,187.2c6.048-0.324,9.114-0.644,14.28-0.974
		c-10.178-1.345-18.382-2.698-14.49-4.342C343.143,183.521,327.155,185.396,369.337,187.2"/>
	<path clip-path="url(#SVGID_2_)" fill="#D72027" d="M356.891,137.028C352.929,135.655,350.185,136.811,356.891,137.028"/>
	<path clip-path="url(#SVGID_2_)" fill="#D72027" d="M597.103,130.35c6.832,0.292,15.526,0.514,29.54,0.549
		C612.013,130.785,602.717,130.594,597.103,130.35"/>
	<path clip-path="url(#SVGID_2_)" fill="#D72027" d="M747.364,200.879c0,0.041-0.21,0.072-0.21,0.119
		C759.055,200.59,756.787,200.659,747.364,200.879"/>
	<path clip-path="url(#SVGID_2_)" fill="#D72027" d="M384.513,134.962c-7.462,0.516-13.678,1.109-18.046,1.757
		C371.171,136.435,377.051,135.9,384.513,134.962"/>
	<path clip-path="url(#SVGID_2_)" fill="#D72027" d="M355.799,135.24c2.73-0.475,4.242-0.847,5.88-1.2
		C351.529,133.867,345.201,134.02,355.799,135.24"/>
	<path clip-path="url(#SVGID_2_)" fill="#D72027" d="M360.167,138.941c-0.952-0.785,1.89-1.519,6.3-2.224
		c-4.102,0.271-7.532,0.384-9.576,0.311C357.843,137.432,359.075,138,360.167,138.941"/>
	<path clip-path="url(#SVGID_2_)" fill="#D72027" d="M922.364,631.723c-1.918,0.091-3.149,0.194-5.754,0.294
		C941.839,633.402,937.807,632.793,922.364,631.723"/>
	<path clip-path="url(#SVGID_2_)" fill="#D72027" d="M1020.394,305.746c-0.616-0.064-2.198-0.1-2.94-0.157
		c-0.616,0.063-1.442,0.145-2.156,0.203L1020.394,305.746z"/>
	<path clip-path="url(#SVGID_2_)" fill="#D72027" d="M1065.641,310.678c-75.6-2.101-66.304-3.294-50.344-4.887l-175.112,1.633
		L1065.641,310.678z"/>
	<path clip-path="url(#SVGID_2_)" fill="#D72027" d="M318.987,348.215l-54.558,3.464c-89.824-4.182-58.856-7.206-135.618-3.955
		c190.176,0.491,19.488,13.464,209.454,13.946l-39.998,2.284c1.848-0.655-9.352-0.761-7.448-1.406
		c-91.056,4.44,137.48,3.299,110.404,9.02c-14.56,1.994-42.182,3.387-64.736,2.027l47.026,4.443
		c-3.682,1.292-36.666,0.976-33.082-0.312l15.176,6.777l-5.6-0.05c29.862,0.967,75.936,3.157,95.564,4.227
		c-27.272,1.724-20.174-0.863-43.89-0.422l46.074,3.753c-49.28,1.528-97.076-1.581-90.034-4.174
		c-189.826,3.505,47.852,3.113-63.028,10.676l-24.122-3.542c-107.842,2.284-68.768,5.048-136.01,9.055
		c35.112-0.95,169.442-8.02,216.846-3.946c-14.392,1.146-21.224,2.66,17.052,4.855c-67.578,0.022-51.002,2.166-47.138,4.852
		l-89.586-0.185c25.844,2.903,71.442,2.673,111.776,4.381c-8.82,3.235-78.204,3.905-136.654,4.666
		c-14.224,5.182,111.216-3.575,128.1,2.556c-34.244,4.308,2.324,7.333,55.93,12.485c-30.842,3.016-54.768-0.526-80.402,0.555
		l71.442,2.673c-1.708,0.654-23.66,0.442-34.734,0.336c27.72,2.252,89.488,0.185,113.862,3.726
		c98.602,0.954-144.2,7.27-32.172,11.651c-25.424,1.08-54.88-0.522-89.544-0.192c73.486,6.014,53.382,5.155,152.334,10.092
		l-58.814,4.205c67.256-3.091,146.832,0.858,212.184,4.317c32.508-1.097,60.9-2.034,74.438-2.663l48.062,5.52
		c-14.699,0.667-45.43,0.11-82.852-0.793c7.42,0.376,14.7,0.732,21.462,1.011c-33.082,1.973-84.77,0.951-134.806-0.463
		c17.64-0.672,36.512-1.34,55.244-1.988c-54.39-1.363-114.646-2.638-167.076-2.355c10.318,0.36,19.208,1.051,24.192,1.811
		c-14.756-0.357-27.958-0.585-36.904-0.419c-9.436,0.186,10.388,0.762,33.222,1.665l-99.806,1.255l39.648,0.303l-62.482,7.222
		c100.52,5.166,248.416,9.658,289.632,17.857c-73.206-2.034-119.56-0.437-206.304-0.547c91.84-2.238-39.032-6.351-20.37-10.6
		c-9.632,2.217-50.988,1.729-65.422,1.165l83.538,7.578c-70.952-0.171-53.186,1.61-82.516,3.591
		c140.21-1.497,93.38,5.648,136.388,8.731c-47.11,0.192-95.13-0.547-83.818-4.31c-105.546,4.15,164.682,5.363,74.998,9.438
		c-1.134-0.919,6.076-1.414-17.85-1.776c41.846,2.146,8.694,7.392-32.326,6.157l-0.966-0.917
		c-16.576,6.1-1.022,18.566,118.062,19.477c-15.386,0.06-143.556-0.8-167.622-1.168l400.666,10.882
		c-102.242-0.959-345.842,2.721-403.606-2.336c-14.56,1.451-31.57,3.248,4.522,6.309c14.56-0.99,147.896-2.469,157.22-1.114
		c-113.89,3.716-60.9,2.578-157.976,7.158c21.938-1.483,182.308,0.165,177.184,2.513c-23.996-0.366-158.312,0.194-175-0.663
		l157.43,5.841c-28.336-1.458-133.434-0.257-177.94,1.049c30.842-0.605-2.87,5.049,12.726,6.606l36.526-2.477
		c-23.814,6.595,221.382,6.515,213.122,13.057c-32.55-0.792-200.13-1.955-219.954,1.37c80.626,1.525,387.842,6.753,449.904,12.539
		l-46.074,1.111l52.5,4.441c-121.338-2.767-376.656-10.525-475.986-14.765c-36.498,2.469-54.334,0.688-50.176,4.384
		c-43.204,1.306-65.52-2.016-68.082-3.102l-27.888,8.604c94.192-0.384,94.402,6.579,172.816,6.251l-97.552-9.346
		c93.954-0.379,267.148,5.404,250.53,11.499c-37.45,1.553-167.538-1.159-198.926-1.031c32.438,0.791,61.866,5.785,38.934,6.347
		l-50.344-2.587c-35.406,3.394,124.754,5.539,34.93,9.617c-6.02,1.407-121.17,4.202-65.492,4.445
		c107.394-2.295,439.628-2.744,520.282-1.214c-7.238,0.494-102.676,7.393-155.722,9c-84.183,2.317-200.705-3.479-273.028-1.507
		c25.704,0.085,57.428,1.365,67.62,1.899c-21.952,1.479-79.646-0.612-67.984,2.6c95.396,0.536-8.078,6.534,80.626,1.518
		c27.272,3.144-19.614,3.341-15.456,7.031c61.67-1.175,209.874,3.313,237.104,6.459c-24.29-0.185-55.874,0.522-70.308,0.865
		c-8.61,6.441-51.94,9.897-52.766,15.905c-23.1,0.553-51.072,3.45-92.148,2.218c16.884,0.863,49.224,1.656,51.548,3.51
		c-82.516,3.585-12.852-4.131-111.986-1.397c55.44,0.232,76.538,4.791,111.188,7.43c85.624-0.813,16.408-6.097-18.214-8.739
		c118.132-0.013,241.851,4.587,296.479,10.865c29.33,4.989-76.328,2.163-59.542,3.029c-20.65,9.371,206.304,7.983,121.058,15.766
		c-75.264,3.088-149.771,0.139-204.05,0.824c-28.504-4.065,47.782-6.24,44.771-8.995l-35.615,3.391
		c-25.019-1.292-44.016-4.005-22.204-5.482c-67.62,2.587-12.992,15.832-75.404,23.062c25.228,1.285,51.338,3.502,81.62,2.454
		l-10.528-2.288c60.704-2.103,83.944,4.305,112.28,1.41c42.686,3.068,109.788,6.508,75.432,10.829l-85.819,0.811
		c25.088-0.092,51.1-2.823,24.92-4.038c38.065,1.802-116.144,6.624-3.767,8.599l59.473-3.028
		c43.134,3.081,134.288,6.889,107.184,10.717c84.771-1.741-9.702-0.882,89.488-3.602c-123.396,2.357,5.193-9.795-124.488-6.006
		c115.122-2.792,48.818-4.832,146.972-8.482c-28.293,0.114-54.138,1.293-40.193-1.92c-8.274-0.146-18.788-0.489-24.948-0.706
		c0.756-0.098,1.232-0.132,2.114-0.217c-1.05,0.063-2.324,0.112-3.347,0.177c-4.241-0.139-5.123-0.151-1.119,0.066
		c-12.418,0.766-27.286,1.387-43.078,1.638c-65.044-1.595-62.986-6.706-96.614-8.435c13.454-1.907,32.494,0.798,62.678-0.244
		l-50.273-2.582c62.859-0.255,104.412-5.067,141.26-0.573l2.8-4.044c35.28-2.381,49.294-5.657,22.876-7.676
		c13.594-1.907-69.636-4.818-20.412-3.156l-38.962-6.342l15.723-0.06c7.924-6.257-104.118-12.882,9.365-20.035
		c-15.861-2.106-35.279-4.283-17.43-7.809l54.404-0.687c-18.998-2.704,54.418-8.122-2.254-9.284
		c146.355-2.918,31.934-13.128,57.903-17.885l-71.021-0.181c4.032-3.273-16.128-6.414-44.646-10.477l-62.748,0.249
		c-51.506-3.504,44.632-9.009,38.206-14.552c23.996,0.377,17.752,1.782,3.221,2.776c141.806-6.622-103.152-13.97,0.14-19.976
		c-22.806-1.497-15.05-2.581,0.742-3.63c0.14,0.14,1.302,0.264,3.29,0.371c0.756-0.153,0.882-0.382,0.756-0.614
		c10.822-0.661,23.366-1.341,33.46-2.079c-15.288,0.627-27.86,1.226-33.67,1.749c-1.302-1.155-9.101-2.905-24.822-4.62l67.438-0.732
		c-0.924-0.139-0.784-0.251-1.946-0.396c24.878-1.684-31.92-1.354-82.614-0.456c-11.102-0.864-24.43-1.656-40.698-2.269
		c108.851-1.368-36.651-4.502,79.422-6.369c-56.602-1.156-42.588-8.626-161.657-9.54c15.512-0.06,22.932-0.565,23.855,0.36
		c13.636-1.912,27.132-3.823-6.426-5.54l85.722-0.811l-115.22-4.177c52.192-2.537,82.544-3.589,148.512-1.069
		c-101.443-6.084-38.22-4.937-138.768-10.112l55.426,0.253c-2.114-1.849-76.355-4.806-30.52-5.922
		c105.35-4.136,14.56-20.47,112.462-31.09c-163.212,2.061,73.108-4.936-53.368-5.356c38.556-0.619,60.368-2.1,93.926-0.379
		c-37.926-5.421,61.194-8.144-45.458-11.886c38.767-0.621,56.603,1.16,79.548,0.608c-8.386-0.436-33.6-1.722-10.527-2.286
		c22.932-0.552,32.367,0.794,49.21,1.652c-6.496-5.537-125.44-6.098-237.104-6.499c52.851-2.807,45.388-4.206-27.818-6.231
		c36.498-0.978,74.746-2.606,87.837,0.834c5.334-1.936,53.535-11.824-35.952-12.021c22.693-0.605,6.636-2.704-3.696-3.214
		c5.334-4.344,13.398-4.725,4.928-8.989l-14.602,1.182c-107.968-1.683-24.122-3.544-37.086-6.981l11.074,0.098
		c77.867-7.882-37.324-3.403,51.548-11.18l-67.158,0.424c-144.41-0.727,85.204-6.892,29.974-11.403l-38.346,1.628
		c-49.392-2.464,196.392-6.889,214.466-9.365c12.544-0.54,20.133,0.853,29.428,1.606c85.177-6.481-87.934-0.84-108.374-5.669
		c47.404-0.892,120.61,1.146,129.473-2.104c38.374-1.618-154.057-9.428-63.07-13.862c-36.567,0.978-73.065,1.947-100.52-0.295
		c-13.091-3.438,138.193-9.296,22.932-12.4c9.982-0.438,19.558-0.603,28.644-0.62c-29.735-2.629-49.392-8.542-111.901-10.125
		c231.952-2.429-112.798-16.34,101.107-16.282l-11.479-8.084l21.868,0.211c14.182-5.168-37.114-6.993-88.452-8.811
		c14.56-1.195,34.51-0.323,45.724-0.224c43.134-7.552,34.048-8.302-72.52-14.633l69.384-0.657
		c-40.306-1.717,108.822-10.916,27.888-18.322c7.854,0.073,21.364,0.225,31.108,0.813c-81.424-8.332,192.5-19.946-60.229-23
		l-62.271-5.499c-19.628,7.114-109.662-1.058-151.634,1.867c-14.826-2.796,76.23-7.231,89.208-3.795l-12.643,0.539
		c131.769,1.263,46.69-8.84,136.374-8.647c-6.481-13.998,66.444-27.642,72.059-40.754l-102.41,1.512l5.922-4.573
		c23.813-1.201,80.08-1.612,75.88,1.651c58.002-1.717-48.636-5.473-70.924-5.565c41.496-6.388,119.42,2.496,121.884,0.536
		l-7.63-2.66l-11.998,0.6c-41.832-2.156-86.156-2.348-81.13-6.27c20.496-2.482,63.154-1.273,67.116-2.249
		c7.252,0.005,10.668-0.325,2.939-1.498l8.75-5.763l-80.863,2.304c-39.858-2.554,4.241-5.418-87.36-2.76
		c141.231-3.903,50.722-21.493,94.569-23.89c-58.953-3.577-57.903-7.108-50.791-11.482c-16.843,1.088-107.759,1.739-96.629-2.034
		c187.586,1.379,81.452-6.908,216.37-9.957c-89.487,2.724-22.092-10.725-149.128-6.45c15.176-3.146,70.168-0.19,114.324-2.579
		c-72.66-7.492,47.236-16.511,22.694-25.771c-24.612-0.146-62.272,1.406-98.91-0.58l123.116-4.89
		c-12.097-1.829-142.128-1.685-56.672-5.025c-20.721,0.471-51.927,1.176-59.822-0.05C987.025,85.523,768.724,66.594,994.18,48.17
		c-47.685,2.495-52.444,0.832-54.223-1.073c-11.41,1.239-60.83-0.029-94.164,0.214l92.666-7.713
		c-92.624-1.405-6.258-8.27-94.808-9.075l15.918,2.444c-104.524-3.249-232.288,4.545-366.408,4.07
		c118.818,3.637-175.952,9.59-5.88,15.558c-27.342,1.317-43.19-1.123-74.298-0.419c57.484,1.512,69.482,3.339,43.68,6.725
		l-14.224-0.383c14.056,9.512-42.658,13.588-80.416,24.273L428.355,82c-8.876,2.296-29.666,2.779-46.242,3.854
		c100.52,2.636,5.642-6.448,116.522-4.048c-134.946,3.045-2.044,16.192-155.386,18.25c-0.784,3.532,76.776-1.036,75.88,2.495
		l-41.496,0.936l53.466,0.894c-8.82,2.315-60.704,3.484-95.844,3.57c4.172-0.562-9.814-1.598-12.852-2.199
		c-48.874,3.003,16.688,8.468,0.756,9.499l25.564-3.396c38.822,9.641-15.652,21.409,68.74,30.723l31.276-0.707
		c57.932,7.111-34.384,5.696-7.588,13.505l-7.462-0.284c31.178,1.563,46.928,3.65,43.344,5.787
		c-36.638-1.972-71.232,3.709-111.762,1.123c62.132,7.712,48.804,3.813,165.088,8.908l-51.884,1.175
		c46.956,1.734,71.708,1.88,85.176,5.78c-44.576-3.198-79.128,2.487-138.026-1.096c-113.512,8.185,114.646,12.152-51.408,15.906
		c143.696,3.757,79.786-7.081,110.544-4.977c46.998-1.764,107.394,3.102,92.96,5.67c-3.206,2.613-183.806,4.443-181.048,11.021
		c0.658-0.655-10.178-0.7-9.562-1.352c-36.68,2.461,49.588,4.82-9.912,7.84c86.842,1.691-4.998,3.92,105.784,4.407l-25.606-6.032
		c28.952,3.42,158.634,6.626,95.746,12.26c-22.33-0.438-51.716-2.116-68.166-3.267c-32.676,1.646,21.714,3.172-11.886,4.879
		c-110.95-0.486-24.136-7.33-108.696-10.993c-46.83,1.767,80.318,6.93-39.788,5.089c152.726,2.646-19.278,6.479,97.342,10.931
		l-66.444-0.294c10.458,0.705,41.846,2.165,40.138,3.462l-86.142-2.347c73.486,3.605-64.26,6.95-24.262,10.408
		c-2.058-7.241,80.052-1.625,128.52-4.688c88.928,8.932-173.782,5.137-141.89,15.135c-9.394-1.354,39.886-5.082,70.658-2.966
		c-13.636,1.903-39.172,4.418-74.032,5.586c13.804,6.624,68.348-1.017,109.158,1.803c-80.934,2.255,32.984,3.252,58.87,6.156
		l-67.55,0.021c-43.33,7.548,140.784,2.002,88.424,8.797l-93.688-2.873l24.206,3.543l-76.832-0.729
		c57.008,3.853,42.28,5.055,20.706,8.831c47.586-0.878,122.57,0.493,124.726,3.837c-40.166,2.279-64.232-1.277-54.558,3.462
		c-42.28-1.07-95.326-2.242-33.11-4.305c-21.98-0.212-42.392-1.056-64.134-1.272c-46.13,2.456-10.514,6.172-9.912,7.887
		c2.534-0.661,6.188-1.449,15.792-1.855l93.59,6.871c-25.368,1.081-45.738,0.223-65.688-0.626
		c7.308,1.391,38.374,2.354,44.156,4.398c-54.894-0.528-111.566-0.401-137.41-3.298l60.914,6.546
		c-23.856,0.438-65.562,3.359-85.792,2.509c-32.27,3.629,106.512,8.902,63.924,13.713c10.654,0.25,20.846,0.753,28.7,1.775
		c-12.432,4.522-79.772,8.527-4.508,13.887l-98.434,3.04c22.344,4.198,123.998-4.115,161.126,2.873
		c31.402,4.949-83.958,1.848-111.37,3.582c49.63,2.461,150.598,6.74,70.49,11.286C311.735,350.8,326.295,349.62,318.987,348.215
		 M362.64,399.979c-14.196-1.003-57.946-3.003-18.116-3.735C421.929,397.387,384.914,398.27,362.64,399.979 M525.221,478.673
		c-22.316-0.745-11.27-1.899,14.294-3.2C545.045,476.417,542.553,477.485,525.221,478.673 M995.468,697.886
		c-1.093-0.043-1.904-0.073-3.276-0.108C1018.512,695.541,1008.124,696.335,995.468,697.886 M966.151,702.532
		c9.422,0.467,18.788,0.435,28.224,0.236c-17.094-0.323-18.256-1.368-13.468-2.555C963.211,700.544,950.976,701.144,966.151,702.532
		 M939.523,203.577l-17.668,0.902C902.465,202.438,920.008,203.011,939.523,203.577"/>
	<path clip-path="url(#SVGID_2_)" fill="#D72027" d="M974.515,380.217c-11.409,0.284-23.995,0.361-36.708,0.429
		C949.161,381.039,962.279,381.049,974.515,380.217"/>
	<path clip-path="url(#SVGID_2_)" fill="#D72027" d="M1123.812,533.947c-0.546,0.053-0.337,0.104-0.756,0.157
		c4.046,0.087,8.147,0.134,12.18,0.158L1123.812,533.947z"/>
	<path clip-path="url(#SVGID_2_)" fill="#D72027" d="M1013.827,219.407c-9.716,0.956-22.078,1.488-34.86,1.845
		C995.473,221.303,1009.417,220.869,1013.827,219.407"/>
	<path clip-path="url(#SVGID_2_)" fill="#D72027" d="M326.399,122.813l17.57,2.978c-3.346-1.44,11.424-1.955,22.12-2.681
		C350.297,123.175,327.491,123.744,326.399,122.813"/>
	<path clip-path="url(#SVGID_2_)" fill="#D72027" d="M744.355,96.981c-8.274-0.436-0.896-0.923-9.297-1.352l-31.388,0.119
		C705.729,97.603,731.027,98.897,744.355,96.981"/>
	<path clip-path="url(#SVGID_2_)" fill="#D72027" d="M550.819,120.059c56.812-0.235,37.534-2.104,27.006-4.188
		c0.21,0.125,0.686,0.244,0,0.369C498.319,115.624,524.639,117.848,550.819,120.059"/>
	<path clip-path="url(#SVGID_2_)" fill="#D72027" d="M575.907,115.388c-2.66-0.644-4.158-1.298-1.428-1.927
		C542.629,113.217,567.843,114.241,575.907,115.388"/>
	<path clip-path="url(#SVGID_2_)" fill="#D72027" d="M403.511,141.542c14.588-0.988-72.632-0.62-49.532-1.181
		C281.697,139.259,441.521,146.954,403.511,141.542"/>
	<polygon clip-path="url(#SVGID_2_)" fill="#D72027" points="737.999,118.371 667.859,119.118 724.391,120.286 	"/>
	<path clip-path="url(#SVGID_2_)" fill="#D72027" d="M686.521,134.832l19.418-3.331c-11.761,0.05-18.663-0.373-23.927-0.894
		C679.689,132.661,665.731,134.91,686.521,134.832"/>
	<path clip-path="url(#SVGID_2_)" fill="#D72027" d="M682.013,130.608c1.358-1.069-0.14-2.086-11.62-2.683
		C671.135,128.504,673.459,129.75,682.013,130.608"/>
	<polygon clip-path="url(#SVGID_2_)" fill="#D72027" points="759.055,122.925 744.425,123.909 739.287,126.262 	"/>
	<path clip-path="url(#SVGID_2_)" fill="#D72027" d="M672.983,170.641l20.104,3.636c24.052,0.37,38.752-0.62,29.19-1.974
		C705.519,171.432,696.223,170.082,672.983,170.641"/>
	<path clip-path="url(#SVGID_2_)" fill="#D72027" d="M865.035,159.646c-14.56,0.982-30.17,1.049-53.284,1.604l86.954,0.11
		L865.035,159.646z"/>
	<path clip-path="url(#SVGID_2_)" fill="#D72027" d="M885.377,170.248c24.136,0.361,69.216,5.275,63.784,0.669
		C925.235,170.548,905.201,166.905,885.377,170.248"/>
	<polygon clip-path="url(#SVGID_2_)" fill="#D72027" points="775.394,225.028 774.287,224.104 631.697,224.236 	"/>
	<path clip-path="url(#SVGID_2_)" fill="#D72027" d="M1116.503,273.31c34.146-4.309-87.976-1.022-45.332-4.916
		c-33.697-1.011-34.817,3.183-63.939,2.145C1042.808,273.139,1022.717,274.503,1116.503,273.31"/>
	<path clip-path="url(#SVGID_2_)" fill="#D72027" d="M1007.232,270.539c-5.571-0.417-12.417-0.858-21.671-1.327
		C994.479,269.965,1001.312,270.318,1007.232,270.539"/>
	<path clip-path="url(#SVGID_2_)" fill="#D72027" d="M1227.761,442.291l-21.854-0.211c-23.674,0.429-25.424,1.076-29.119,2.376
		L1227.761,442.291z"/>
	<polygon clip-path="url(#SVGID_2_)" fill="#D72027" points="1159.777,479.863 1161.611,479.217 1079.417,480.425 	"/>
	<path clip-path="url(#SVGID_2_)" fill="#D72027" d="M1264.567,511.396c3.415-1.286-14.91-2.8-11.424-4.094
		C1267.982,510.11,1162.102,511.744,1264.567,511.396"/>
	<polygon clip-path="url(#SVGID_2_)" fill="#D72027" points="1541.952,716.581 556.952,716.581 423.433,472.089 395.623,195.853 
		520.481,47.042 1541.952,56.605 	"/>
</g>
<rect x="1391.887" y="55.201" fill="#D72027" width="2865.868" height="644.799"/>
</svg>
