<svg id="Home" xmlns="http://www.w3.org/2000/svg" viewBox="0 0 540 90"><defs><style>.cls-1{fill:#ecc218;}.cls-2{fill:#fff;}</style></defs><title>storycode-wizard-textArtboard 24@2x</title><path class="cls-1" d="M48.18,71.41,68.72,17.92a7.32,7.32,0,0,0,.41-1.11c.09-.35.15-.64.19-.9,0-1-.83-2-2.47-2.76s-2.47-1.39-2.47-1.79a1,1,0,0,1,.52-.89,2.35,2.35,0,0,1,1.38-.36H84.17a2.4,2.4,0,0,1,1.38.36,1,1,0,0,1,.51.89c0,.61-.57,1.07-1.7,1.36a9.06,9.06,0,0,0-2.14.7,2.84,2.84,0,0,0-1.17,1.19,4.08,4.08,0,0,0-.35,1.84,3.61,3.61,0,0,0,.08.68,5.13,5.13,0,0,1,.08.79L86.28,78a5.41,5.41,0,0,0,.89,3,7.2,7.2,0,0,0,2.9,1.68c.51.18,1.2.4,2.06.65q2,.6,2,1.41a1.16,1.16,0,0,1-.41.9,1.66,1.66,0,0,1-1.11.35H70.72a2.84,2.84,0,0,1-1.43-.3,1.12,1.12,0,0,1-.57-1c0-.58.88-1.12,2.66-1.62.65-.18,1.19-.35,1.62-.49a3.51,3.51,0,0,0,1.9-1.14,3.89,3.89,0,0,0,.49-2.17V78.19L70.29,21,46.06,84.2a2.86,2.86,0,0,1-.81,1.33,1.72,1.72,0,0,1-1.14.41,1.65,1.65,0,0,1-1.62-1.36c-.08-.18-.13-.32-.17-.43L16.91,21.77l-3.8,56.42v.43a3.64,3.64,0,0,0,.54,2.09A4.1,4.1,0,0,0,15.44,82a23.17,23.17,0,0,0,3,1.13c1.44.44,2.16.94,2.16,1.52a1,1,0,0,1-.51,1,2.86,2.86,0,0,1-1.44.3H4.44A2.89,2.89,0,0,1,3,85.64a1,1,0,0,1-.51-1c0-.58.85-1.1,2.55-1.57.68-.22,1.22-.38,1.62-.49a5.27,5.27,0,0,0,3-1.89,9,9,0,0,0,.92-4.12L14.47,19c0-.79.09-1.62.16-2.49l0-.27a2.89,2.89,0,0,0-.43-1.79A6,6,0,0,0,12,13.2L11.43,13q-2.28-.81-2.28-1.68a1.06,1.06,0,0,1,.47-.92,2.13,2.13,0,0,1,1.27-.33H30.45a2.16,2.16,0,0,1,1.28.33,1.08,1.08,0,0,1,.46.92c0,.54-1,1.19-3,2s-3,1.74-3,2.93a3.93,3.93,0,0,0,.13,1,12.82,12.82,0,0,0,.63,1.65Z"/><path class="cls-1" d="M125.19,32l17.57,46a16.84,16.84,0,0,0,1.61,3.32,6.67,6.67,0,0,0,1.88,2,5.71,5.71,0,0,0,1.63.8c.73.25,1.1.55,1.1.91a.8.8,0,0,1-.4.66,2,2,0,0,1-1,.21H133.73a2,2,0,0,1-1-.21.8.8,0,0,1-.4-.66c0-.38.41-.7,1.22-.95.32-.1.59-.19.79-.27a4,4,0,0,0,1.48-.8,1.32,1.32,0,0,0,.42-1,2.92,2.92,0,0,0-.11-.61.5.5,0,0,1,0-.19l-4.14-11H108.31l-3.15,8.5a2.32,2.32,0,0,0-.27.83,8,8,0,0,0-.07,1.18,2.49,2.49,0,0,0,.64,1.78,5.23,5.23,0,0,0,2.13,1.18l.79.22c1.17.31,1.75.7,1.75,1.18a.63.63,0,0,1-.34.57,2.27,2.27,0,0,1-1.07.19H98.44a2,2,0,0,1-1-.21.71.71,0,0,1-.36-.66c0-.16.79-.63,2.39-1.43a6.62,6.62,0,0,0,3.34-3.77L121,32Zm-5,7.28-11,29.06h22.08Z"/><path class="cls-1" d="M163.25,32.86a125.19,125.19,0,0,1,15.12.65A41.09,41.09,0,0,1,187,35.59,21.92,21.92,0,0,1,196.37,42a13.82,13.82,0,0,1,3.49,9,11.77,11.77,0,0,1-2.41,7.32A21.89,21.89,0,0,1,190,64.12l-.53.23c-.91.48-1.37.91-1.37,1.29a1.75,1.75,0,0,0,.34.84.52.52,0,0,0,.08.11l8.69,14.53a6.65,6.65,0,0,0,3.54,2.33c1.84.67,2.75,1.21,2.75,1.62a.87.87,0,0,1-.22.68,1.81,1.81,0,0,1-1,.19h-16a2,2,0,0,1-1-.21.78.78,0,0,1-.4-.66q0-.46,1.95-1.26c1.3-.53,2-1.25,2-2.16a3.07,3.07,0,0,0-.21-1.06,6.83,6.83,0,0,0-.59-1.18l-7.36-11.72a2.46,2.46,0,0,0-1-.91,3.34,3.34,0,0,0-1.46-.27l-.8,0c-1.77.08-3.51.11-5.23.11h-3.26a2.79,2.79,0,0,0-1.67.33,1.53,1.53,0,0,0-.38,1.23V80.59a2.77,2.77,0,0,0,.57,1.8,4.46,4.46,0,0,0,1.93,1.23,14.26,14.26,0,0,0,1.52.5c.91.22,1.36.54,1.36.95a.77.77,0,0,1-.39.66,2,2,0,0,1-1,.21H155.17a2,2,0,0,1-1-.21.77.77,0,0,1-.39-.66c0-.41.45-.73,1.36-.95a14.26,14.26,0,0,0,1.52-.5,4.62,4.62,0,0,0,1.91-1.25,2.67,2.67,0,0,0,.59-1.78V38.25a2.93,2.93,0,0,0-.49-1.78A4.37,4.37,0,0,0,157,35.21a9.36,9.36,0,0,0-1.29-.45c-.91-.28-1.37-.62-1.37-1a.74.74,0,0,1,.33-.64,1.52,1.52,0,0,1,.89-.23Zm3.57,4.36v24.7a2.51,2.51,0,0,0,.93,2.32c.62.38,2.3.57,5.06.57h.76q8.24,0,12.94-3.7A12.16,12.16,0,0,0,191.21,51a14.35,14.35,0,0,0-5.73-11.76q-5.73-4.55-15-4.55a6.14,6.14,0,0,0-3,.47A2.42,2.42,0,0,0,166.82,37.22Z"/><path class="cls-1" d="M224,58.28l22.72-20.07a1.69,1.69,0,0,0,.46-.59,1.81,1.81,0,0,0,.15-.78c0-.68-.87-1.3-2.62-1.85-.35-.1-.63-.19-.83-.27a2.36,2.36,0,0,1-.93-.46.78.78,0,0,1-.28-.6.66.66,0,0,1,.34-.59,1.85,1.85,0,0,1,1-.21h11.42a1.81,1.81,0,0,1,1,.23.72.72,0,0,1,.36.64c0,.16-1,.74-3,1.77a29.18,29.18,0,0,0-6.07,4.19l-5,4.51,14.83,36.62a5.39,5.39,0,0,0,3.21,2.84c1.63.66,2.45,1.13,2.45,1.41a.71.71,0,0,1-.36.66,2,2,0,0,1-1,.21H246.54a2,2,0,0,1-1-.21.8.8,0,0,1-.4-.66c0-.33.34-.62,1-.88l.3-.11a7.31,7.31,0,0,0,2.22-1.2,1.79,1.79,0,0,0,.66-1.38,2.73,2.73,0,0,0-.07-.57,6.28,6.28,0,0,0-.23-.76L236.59,49.48,224,60.59v20a2.77,2.77,0,0,0,.57,1.8,4.53,4.53,0,0,0,1.93,1.23,14.26,14.26,0,0,0,1.52.5c.91.22,1.37.54,1.37.95a.8.8,0,0,1-.4.66,2,2,0,0,1-1,.21H212.35a2,2,0,0,1-1-.21.78.78,0,0,1-.4-.66c0-.41.45-.73,1.36-.95a13.53,13.53,0,0,0,1.52-.5,4.6,4.6,0,0,0,1.92-1.25,2.73,2.73,0,0,0,.59-1.78V38.25a2.93,2.93,0,0,0-.5-1.78,4.29,4.29,0,0,0-1.67-1.26,9.36,9.36,0,0,0-1.29-.45c-.91-.28-1.36-.62-1.36-1a.73.73,0,0,1,.32-.64,1.52,1.52,0,0,1,.89-.23H227.6a1.52,1.52,0,0,1,.89.23.74.74,0,0,1,.33.64c0,.41-.46.75-1.37,1a9.36,9.36,0,0,0-1.29.45,4.16,4.16,0,0,0-1.69,1.26,3.07,3.07,0,0,0-.47,1.78Z"/><path class="cls-1" d="M297.5,32.86h1.78q1.59,0,2.88-.09c.86-.07,1.66-.16,2.39-.29L311,41.85a3.25,3.25,0,0,1,.32.59,1.09,1.09,0,0,1,.1.36.59.59,0,0,1-.23.46.89.89,0,0,1-.57.19c-.45,0-1.14-.52-2.07-1.54a29.8,29.8,0,0,0-2.25-2.3,22.59,22.59,0,0,0-6.87-3.77,26.27,26.27,0,0,0-8.31-1.2h-6.3a2,2,0,0,0-1.23.35,1.43,1.43,0,0,0-.32,1.06V52.13a1.18,1.18,0,0,0,.36.91,1.25,1.25,0,0,0,.89.35h7.85a8.21,8.21,0,0,0,2.58-.31,3,3,0,0,0,1.45-1,6.63,6.63,0,0,0,.56-1c.31-.63.66-.95,1.07-.95a1.22,1.22,0,0,1,.68.19,2.2,2.2,0,0,1,.57.57l5,7.32a1.44,1.44,0,0,0,.11.19,1.7,1.7,0,0,1,.19.57.53.53,0,0,1-.21.38.66.66,0,0,1-.47.19,14.77,14.77,0,0,1-1.75-1.06c-1.08-.71-2.21-1.37-3.37-2a10,10,0,0,0-2.66-.89,21.18,21.18,0,0,0-3.87-.28h-7.55a1.65,1.65,0,0,0-1,.28,1.07,1.07,0,0,0-.36.89V82.75a.89.89,0,0,0,.4.76,2.51,2.51,0,0,0,1.15.27h7.86a47.62,47.62,0,0,0,9-.67A22.67,22.67,0,0,0,307.74,81a27.09,27.09,0,0,0,5.14-3.66c1.68-1.51,2.66-2.26,2.94-2.26a1,1,0,0,1,.68.21.63.63,0,0,1,.27.51,1.56,1.56,0,0,1-.13.46,2.16,2.16,0,0,1-.33.53l-6.45,9.18H271.62a2,2,0,0,1-1-.21.76.76,0,0,1-.4-.66c0-.41.45-.73,1.36-.95a13.53,13.53,0,0,0,1.52-.5A4.66,4.66,0,0,0,275,82.37a2.72,2.72,0,0,0,.58-1.78V38.25a2.93,2.93,0,0,0-.49-1.78,4.29,4.29,0,0,0-1.67-1.26,9.36,9.36,0,0,0-1.29-.45c-.91-.28-1.36-.62-1.36-1a.73.73,0,0,1,.32-.64,1.52,1.52,0,0,1,.89-.23Z"/><path class="cls-1" d="M348.53,80.59a2.77,2.77,0,0,0,.57,1.8A4.57,4.57,0,0,0,351,83.62a13.26,13.26,0,0,0,1.51.5c.91.22,1.37.54,1.37.95a.8.8,0,0,1-.4.66,2,2,0,0,1-1,.21h-16a2,2,0,0,1-1-.21.81.81,0,0,1-.38-.66c0-.38.47-.7,1.4-.95a13.27,13.27,0,0,0,1.56-.5,4,4,0,0,0,1.84-1.21,2.9,2.9,0,0,0,.55-1.82V36.69a2.91,2.91,0,0,0-.32-1.67,1.61,1.61,0,0,0-1.24-.38h-3a19.79,19.79,0,0,0-5.9.82A14.64,14.64,0,0,0,325.24,38a20.9,20.9,0,0,0-3.11,3.32c-1.12,1.43-1.86,2.15-2.24,2.15a.84.84,0,0,1-.59-.29.87.87,0,0,1-.21-.59,1.42,1.42,0,0,1,0-.26,1,1,0,0,1,.06-.19l5-10.09c1.77.27,3.47.48,5.1.62s3.22.21,4.76.21h21q2.36,0,4.8-.21c1.63-.14,3.32-.35,5.07-.62l5,10.09c0,.07.06.17.1.28a.93.93,0,0,1,.06.25.76.76,0,0,1-.25.57.92.92,0,0,1-.63.23c-.35,0-1.09-.72-2.22-2.15A21.38,21.38,0,0,0,363.78,38,14.65,14.65,0,0,0,359,35.46a19.48,19.48,0,0,0-5.84-.82h-3.11a1.62,1.62,0,0,0-1.22.38,2.79,2.79,0,0,0-.34,1.67Z"/><path class="cls-1" d="M403.17,32.86H405c1.07,0,2,0,2.89-.09s1.65-.16,2.39-.29l6.45,9.37a3.25,3.25,0,0,1,.32.59,1.43,1.43,0,0,1,.1.36.59.59,0,0,1-.23.46.89.89,0,0,1-.57.19c-.46,0-1.15-.52-2.07-1.54a27.87,27.87,0,0,0-2.26-2.3,22.43,22.43,0,0,0-6.86-3.77,26.36,26.36,0,0,0-8.31-1.2h-6.3a1.91,1.91,0,0,0-1.23.35,1.39,1.39,0,0,0-.33,1.06V52.13a1.18,1.18,0,0,0,.36.91,1.27,1.27,0,0,0,.9.35h7.85a8.29,8.29,0,0,0,2.58-.31,2.93,2.93,0,0,0,1.44-1,5.77,5.77,0,0,0,.57-1c.3-.63.66-.95,1.06-.95a1.26,1.26,0,0,1,.69.19A2,2,0,0,1,405,51l5,7.32a1.44,1.44,0,0,0,.11.19,1.7,1.7,0,0,1,.19.57.53.53,0,0,1-.21.38.67.67,0,0,1-.47.19,14.77,14.77,0,0,1-1.75-1.06c-1.09-.71-2.21-1.37-3.38-2a10,10,0,0,0-2.65-.89,21.33,21.33,0,0,0-3.87-.28h-7.55a1.68,1.68,0,0,0-1.05.28,1.07,1.07,0,0,0-.36.89V82.75a.92.92,0,0,0,.4.76,2.56,2.56,0,0,0,1.16.27h7.85a47.67,47.67,0,0,0,9-.67A22.92,22.92,0,0,0,413.42,81a27.41,27.41,0,0,0,5.14-3.66c1.68-1.51,2.66-2.26,2.94-2.26a1.08,1.08,0,0,1,.68.21.63.63,0,0,1,.27.51,1.38,1.38,0,0,1-.14.46,2.14,2.14,0,0,1-.32.53l-6.45,9.18H377.3a2,2,0,0,1-1-.21.8.8,0,0,1-.4-.66c0-.41.46-.73,1.37-.95a14.26,14.26,0,0,0,1.52-.5,4.62,4.62,0,0,0,1.91-1.25,2.73,2.73,0,0,0,.59-1.78V38.25a2.93,2.93,0,0,0-.49-1.78,4.37,4.37,0,0,0-1.67-1.26,9.36,9.36,0,0,0-1.29-.45c-.91-.28-1.37-.62-1.37-1a.75.75,0,0,1,.32-.64,1.58,1.58,0,0,1,.9-.23Z"/><path class="cls-1" d="M437.51,32.86a125.07,125.07,0,0,1,15.12.65,40.79,40.79,0,0,1,8.67,2.08A21.89,21.89,0,0,1,470.64,42a13.87,13.87,0,0,1,3.49,9,11.83,11.83,0,0,1-2.41,7.32,21.94,21.94,0,0,1-7.46,5.84l-.53.23c-.91.48-1.36.91-1.36,1.29a1.75,1.75,0,0,0,.34.84.52.52,0,0,0,.07.11l8.69,14.53c.53.89,1.71,1.66,3.55,2.33s2.75,1.21,2.75,1.62a.87.87,0,0,1-.23.68,1.74,1.74,0,0,1-1,.19h-16a2,2,0,0,1-1-.21.8.8,0,0,1-.4-.66c0-.31.65-.73,2-1.26S463,82.56,463,81.65a3.07,3.07,0,0,0-.21-1.06,6.18,6.18,0,0,0-.59-1.18l-7.36-11.72a2.5,2.5,0,0,0-1-.91,3.37,3.37,0,0,0-1.46-.27l-.8,0c-1.77.08-3.52.11-5.24.11h-3.26a2.79,2.79,0,0,0-1.67.33,1.57,1.57,0,0,0-.38,1.23V80.59a2.77,2.77,0,0,0,.57,1.8,4.51,4.51,0,0,0,1.94,1.23,13.26,13.26,0,0,0,1.51.5c.91.22,1.37.54,1.37.95a.8.8,0,0,1-.4.66,2,2,0,0,1-1,.21H429.43a2,2,0,0,1-1-.21.78.78,0,0,1-.4-.66c0-.41.46-.73,1.37-.95a14,14,0,0,0,1.51-.5,4.6,4.6,0,0,0,1.92-1.25,2.73,2.73,0,0,0,.59-1.78V38.25a2.93,2.93,0,0,0-.5-1.78,4.25,4.25,0,0,0-1.66-1.26,9.36,9.36,0,0,0-1.29-.45c-.92-.28-1.37-.62-1.37-1a.75.75,0,0,1,.32-.64,1.54,1.54,0,0,1,.89-.23Zm3.57,4.36v24.7a2.51,2.51,0,0,0,.93,2.32q.93.57,5.07.57h.75q8.24,0,12.94-3.7A12.14,12.14,0,0,0,465.48,51a14.35,14.35,0,0,0-5.73-11.76q-5.73-4.55-15-4.55a6.09,6.09,0,0,0-3,.47A2.39,2.39,0,0,0,441.08,37.22Z"/><path class="cls-1" d="M519,33.39l5.5,8.31c.2.36.33.61.4.76a1.06,1.06,0,0,1,.09.34,1.08,1.08,0,0,1-.26.72.9.9,0,0,1-.69.31c-.3,0-.85-.4-1.63-1.18l-.3-.3a35.91,35.91,0,0,0-8.29-6.68,16.09,16.09,0,0,0-7.57-1.86,12.38,12.38,0,0,0-7.53,2.12,6.64,6.64,0,0,0-2.87,5.58q0,4.71,13,9.49l1.86.68c.3.1.74.26,1.33.49q8.91,3.22,12.1,5.88a18.37,18.37,0,0,1,4.8,5.62,13.74,13.74,0,0,1,1.57,6.49,14.91,14.91,0,0,1-5.67,12q-5.67,4.69-14.74,4.69a37.14,37.14,0,0,1-8-1,37.75,37.75,0,0,0-5.81-1,9,9,0,0,0-3.56.76,2,2,0,0,1-.31.11.53.53,0,0,1-.3-.11,4,4,0,0,1-.42-.42L483.2,73.11l-.07-.11a1.81,1.81,0,0,1-.31-.72.83.83,0,0,1,.27-.63.81.81,0,0,1,.57-.24c.58,0,1.56.66,3,2,.83.78,1.5,1.39,2,1.82a49.64,49.64,0,0,0,10.83,7.46A22.43,22.43,0,0,0,509,84.84q6.25,0,10-3.42a11.81,11.81,0,0,0,3.7-9.14,10.58,10.58,0,0,0-3.11-8q-3.12-3-12.26-6.28l-3-1.06q-7.74-2.68-9.79-4.21a13.24,13.24,0,0,1-3.61-4,9.42,9.42,0,0,1-1.13-4.63,10.61,10.61,0,0,1,4.36-8.8Q498.46,32,505.59,32a30.55,30.55,0,0,1,6,.7,29.89,29.89,0,0,0,4.5.7,6.52,6.52,0,0,0,2-.34,1.78,1.78,0,0,1,.34-.08.94.94,0,0,1,.34.14A1,1,0,0,1,519,33.39Z"/><path class="cls-1" d="M49.18,70.41,69.72,16.92a7.32,7.32,0,0,0,.41-1.11c.09-.35.15-.64.19-.9,0-1-.83-2-2.47-2.76s-2.47-1.39-2.47-1.79a1,1,0,0,1,.52-.89,2.35,2.35,0,0,1,1.38-.36H85.17a2.4,2.4,0,0,1,1.38.36,1,1,0,0,1,.51.89c0,.61-.57,1.07-1.7,1.36a9.06,9.06,0,0,0-2.14.7,2.84,2.84,0,0,0-1.17,1.19,4.08,4.08,0,0,0-.35,1.84,3.61,3.61,0,0,0,.08.68,5.13,5.13,0,0,1,.08.79L87.28,77a5.41,5.41,0,0,0,.89,3,7.2,7.2,0,0,0,2.9,1.68c.51.18,1.2.4,2.06.65q2,.6,2,1.41a1.16,1.16,0,0,1-.41.9,1.66,1.66,0,0,1-1.11.35H71.72a2.84,2.84,0,0,1-1.43-.3,1.12,1.12,0,0,1-.57-1c0-.58.88-1.12,2.66-1.62.65-.18,1.19-.35,1.62-.49a3.51,3.51,0,0,0,1.9-1.14,3.89,3.89,0,0,0,.49-2.17V77.19L71.29,20,47.06,83.2a2.86,2.86,0,0,1-.81,1.33,1.72,1.72,0,0,1-1.14.41,1.65,1.65,0,0,1-1.62-1.36c-.08-.18-.13-.32-.17-.43L17.91,20.77l-3.8,56.42v.43a3.64,3.64,0,0,0,.54,2.09A4.1,4.1,0,0,0,16.44,81a23.17,23.17,0,0,0,3,1.13c1.44.44,2.16.94,2.16,1.52a1,1,0,0,1-.51,1,2.86,2.86,0,0,1-1.44.3H5.44A2.89,2.89,0,0,1,4,84.64a1,1,0,0,1-.51-1c0-.58.85-1.1,2.55-1.57.68-.22,1.22-.38,1.62-.49a5.27,5.27,0,0,0,3-1.89,9,9,0,0,0,.92-4.12L15.47,18c0-.79.09-1.62.16-2.49l0-.27a2.89,2.89,0,0,0-.43-1.79A6,6,0,0,0,13,12.2L12.43,12q-2.28-.81-2.28-1.68a1.06,1.06,0,0,1,.47-.92,2.13,2.13,0,0,1,1.27-.33H31.45a2.16,2.16,0,0,1,1.28.33,1.08,1.08,0,0,1,.46.92c0,.54-1,1.19-3,2s-3,1.74-3,2.93a3.93,3.93,0,0,0,.13,1,12.82,12.82,0,0,0,.63,1.65Z"/><path class="cls-1" d="M126.19,31l17.57,46a16.84,16.84,0,0,0,1.61,3.32,6.67,6.67,0,0,0,1.88,2,5.71,5.71,0,0,0,1.63.8c.73.25,1.1.55,1.1.91a.8.8,0,0,1-.4.66,2,2,0,0,1-1,.21H134.73a2,2,0,0,1-1-.21.8.8,0,0,1-.4-.66c0-.38.41-.7,1.22-.95.32-.1.59-.19.79-.27a4,4,0,0,0,1.48-.8,1.32,1.32,0,0,0,.42-1,2.92,2.92,0,0,0-.11-.61.5.5,0,0,1,0-.19l-4.14-11H109.31l-3.15,8.5a2.32,2.32,0,0,0-.27.83,8,8,0,0,0-.07,1.18,2.49,2.49,0,0,0,.64,1.78,5.23,5.23,0,0,0,2.13,1.18l.79.22c1.17.31,1.75.7,1.75,1.18a.63.63,0,0,1-.34.57,2.27,2.27,0,0,1-1.07.19H99.44a2,2,0,0,1-1-.21.71.71,0,0,1-.36-.66c0-.16.79-.63,2.39-1.43a6.62,6.62,0,0,0,3.34-3.77L122,31Zm-5,7.28-11,29.06h22.08Z"/><path class="cls-1" d="M164.25,31.86a125.19,125.19,0,0,1,15.12.65A41.09,41.09,0,0,1,188,34.59,21.92,21.92,0,0,1,197.37,41a13.82,13.82,0,0,1,3.49,9,11.77,11.77,0,0,1-2.41,7.32A21.89,21.89,0,0,1,191,63.12l-.53.23c-.91.48-1.37.91-1.37,1.29a1.75,1.75,0,0,0,.34.84.52.52,0,0,0,.08.11l8.69,14.53a6.65,6.65,0,0,0,3.54,2.33c1.84.67,2.75,1.21,2.75,1.62a.87.87,0,0,1-.22.68,1.81,1.81,0,0,1-1,.19h-16a2,2,0,0,1-1-.21.78.78,0,0,1-.4-.66q0-.46,1.95-1.26c1.3-.53,2-1.25,2-2.16a3.07,3.07,0,0,0-.21-1.06,6.83,6.83,0,0,0-.59-1.18l-7.36-11.72a2.46,2.46,0,0,0-1-.91,3.34,3.34,0,0,0-1.46-.27l-.8,0c-1.77.08-3.51.11-5.23.11h-3.26a2.79,2.79,0,0,0-1.67.33,1.53,1.53,0,0,0-.38,1.23V79.59a2.77,2.77,0,0,0,.57,1.8,4.46,4.46,0,0,0,1.93,1.23,14.26,14.26,0,0,0,1.52.5c.91.22,1.36.54,1.36.95a.77.77,0,0,1-.39.66,2,2,0,0,1-1,.21H156.17a2,2,0,0,1-1-.21.77.77,0,0,1-.39-.66c0-.41.45-.73,1.36-.95a14.26,14.26,0,0,0,1.52-.5,4.62,4.62,0,0,0,1.91-1.25,2.67,2.67,0,0,0,.59-1.78V37.25a2.93,2.93,0,0,0-.49-1.78A4.37,4.37,0,0,0,158,34.21a9.36,9.36,0,0,0-1.29-.45c-.91-.28-1.37-.62-1.37-1a.74.74,0,0,1,.33-.64,1.52,1.52,0,0,1,.89-.23Zm3.57,4.36v24.7a2.51,2.51,0,0,0,.93,2.32c.62.38,2.3.57,5.06.57h.76q8.24,0,12.94-3.7A12.16,12.16,0,0,0,192.21,50a14.35,14.35,0,0,0-5.73-11.76q-5.73-4.55-15-4.55a6.14,6.14,0,0,0-3,.47A2.42,2.42,0,0,0,167.82,36.22Z"/><path class="cls-1" d="M225,57.28l22.72-20.07a1.69,1.69,0,0,0,.46-.59,1.81,1.81,0,0,0,.15-.78c0-.68-.87-1.3-2.62-1.85-.35-.1-.63-.19-.83-.27a2.36,2.36,0,0,1-.93-.46.78.78,0,0,1-.28-.6.66.66,0,0,1,.34-.59,1.85,1.85,0,0,1,1-.21h11.42a1.81,1.81,0,0,1,1,.23.72.72,0,0,1,.36.64c0,.16-1,.74-3,1.77a29.18,29.18,0,0,0-6.07,4.19l-5,4.51,14.83,36.62a5.39,5.39,0,0,0,3.21,2.84c1.63.66,2.45,1.13,2.45,1.41a.71.71,0,0,1-.36.66,2,2,0,0,1-1,.21H247.54a2,2,0,0,1-1-.21.8.8,0,0,1-.4-.66c0-.33.34-.62,1-.88l.3-.11a7.31,7.31,0,0,0,2.22-1.2,1.79,1.79,0,0,0,.66-1.38,2.73,2.73,0,0,0-.07-.57,6.28,6.28,0,0,0-.23-.76L237.59,48.48,225,59.59v20a2.77,2.77,0,0,0,.57,1.8,4.53,4.53,0,0,0,1.93,1.23,14.26,14.26,0,0,0,1.52.5c.91.22,1.37.54,1.37.95a.8.8,0,0,1-.4.66,2,2,0,0,1-1,.21H213.35a2,2,0,0,1-1-.21.78.78,0,0,1-.4-.66c0-.41.45-.73,1.36-.95a13.53,13.53,0,0,0,1.52-.5,4.6,4.6,0,0,0,1.92-1.25,2.73,2.73,0,0,0,.59-1.78V37.25a2.93,2.93,0,0,0-.5-1.78,4.29,4.29,0,0,0-1.67-1.26,9.36,9.36,0,0,0-1.29-.45c-.91-.28-1.36-.62-1.36-1a.73.73,0,0,1,.32-.64,1.52,1.52,0,0,1,.89-.23H228.6a1.52,1.52,0,0,1,.89.23.74.74,0,0,1,.33.64c0,.41-.46.75-1.37,1a9.36,9.36,0,0,0-1.29.45,4.16,4.16,0,0,0-1.69,1.26,3.07,3.07,0,0,0-.47,1.78Z"/><path class="cls-1" d="M298.5,31.86h1.78q1.59,0,2.88-.09c.86-.07,1.66-.16,2.39-.29L312,40.85a3.25,3.25,0,0,1,.32.59,1.09,1.09,0,0,1,.1.36.59.59,0,0,1-.23.46.89.89,0,0,1-.57.19c-.45,0-1.14-.52-2.07-1.54a29.8,29.8,0,0,0-2.25-2.3,22.59,22.59,0,0,0-6.87-3.77,26.27,26.27,0,0,0-8.31-1.2h-6.3a2,2,0,0,0-1.23.35,1.43,1.43,0,0,0-.32,1.06V51.13a1.18,1.18,0,0,0,.36.91,1.25,1.25,0,0,0,.89.35h7.85a8.21,8.21,0,0,0,2.58-.31,3,3,0,0,0,1.45-1,6.63,6.63,0,0,0,.56-1c.31-.63.66-.95,1.07-.95a1.22,1.22,0,0,1,.68.19,2.2,2.2,0,0,1,.57.57l5,7.32a1.44,1.44,0,0,0,.11.19,1.7,1.7,0,0,1,.19.57.53.53,0,0,1-.21.38.66.66,0,0,1-.47.19,14.77,14.77,0,0,1-1.75-1.06c-1.08-.71-2.21-1.37-3.37-2a10,10,0,0,0-2.66-.89,21.18,21.18,0,0,0-3.87-.28h-7.55a1.65,1.65,0,0,0-1,.28,1.07,1.07,0,0,0-.36.89V81.75a.89.89,0,0,0,.4.76,2.51,2.51,0,0,0,1.15.27h7.86a47.62,47.62,0,0,0,9-.67A22.67,22.67,0,0,0,308.74,80a27.09,27.09,0,0,0,5.14-3.66c1.68-1.51,2.66-2.26,2.94-2.26a1,1,0,0,1,.68.21.63.63,0,0,1,.27.51,1.56,1.56,0,0,1-.13.46,2.16,2.16,0,0,1-.33.53l-6.45,9.18H272.62a2,2,0,0,1-1-.21.76.76,0,0,1-.4-.66c0-.41.45-.73,1.36-.95a13.53,13.53,0,0,0,1.52-.5A4.66,4.66,0,0,0,276,81.37a2.72,2.72,0,0,0,.58-1.78V37.25a2.93,2.93,0,0,0-.49-1.78,4.29,4.29,0,0,0-1.67-1.26,9.36,9.36,0,0,0-1.29-.45c-.91-.28-1.36-.62-1.36-1a.73.73,0,0,1,.32-.64,1.52,1.52,0,0,1,.89-.23Z"/><path class="cls-1" d="M349.53,79.59a2.77,2.77,0,0,0,.57,1.8A4.57,4.57,0,0,0,352,82.62a13.26,13.26,0,0,0,1.51.5c.91.22,1.37.54,1.37.95a.8.8,0,0,1-.4.66,2,2,0,0,1-1,.21h-16a2,2,0,0,1-1-.21.81.81,0,0,1-.38-.66c0-.38.47-.7,1.4-.95a13.27,13.27,0,0,0,1.56-.5,4,4,0,0,0,1.84-1.21,2.9,2.9,0,0,0,.55-1.82V35.69a2.91,2.91,0,0,0-.32-1.67,1.61,1.61,0,0,0-1.24-.38h-3a19.79,19.79,0,0,0-5.9.82A14.64,14.64,0,0,0,326.24,37a20.9,20.9,0,0,0-3.11,3.32c-1.12,1.43-1.86,2.15-2.24,2.15a.84.84,0,0,1-.59-.29.87.87,0,0,1-.21-.59,1.42,1.42,0,0,1,0-.26,1,1,0,0,1,.06-.19l5-10.09c1.77.27,3.47.48,5.1.62s3.22.21,4.76.21h21q2.36,0,4.8-.21c1.63-.14,3.32-.35,5.07-.62l5,10.09c0,.07.06.17.1.28a.93.93,0,0,1,.06.25.76.76,0,0,1-.25.57.92.92,0,0,1-.63.23c-.35,0-1.09-.72-2.22-2.15A21.38,21.38,0,0,0,364.78,37,14.65,14.65,0,0,0,360,34.46a19.48,19.48,0,0,0-5.84-.82h-3.11a1.62,1.62,0,0,0-1.22.38,2.79,2.79,0,0,0-.34,1.67Z"/><path class="cls-1" d="M404.17,31.86H406c1.07,0,2,0,2.89-.09s1.65-.16,2.39-.29l6.45,9.37a3.25,3.25,0,0,1,.32.59,1.43,1.43,0,0,1,.1.36.59.59,0,0,1-.23.46.89.89,0,0,1-.57.19c-.46,0-1.15-.52-2.07-1.54a27.87,27.87,0,0,0-2.26-2.3,22.43,22.43,0,0,0-6.86-3.77,26.36,26.36,0,0,0-8.31-1.2h-6.3a1.91,1.91,0,0,0-1.23.35,1.39,1.39,0,0,0-.33,1.06V51.13a1.18,1.18,0,0,0,.36.91,1.27,1.27,0,0,0,.9.35h7.85a8.29,8.29,0,0,0,2.58-.31,2.93,2.93,0,0,0,1.44-1,5.77,5.77,0,0,0,.57-1c.3-.63.66-.95,1.06-.95a1.26,1.26,0,0,1,.69.19A2,2,0,0,1,406,50l5,7.32a1.44,1.44,0,0,0,.11.19,1.7,1.7,0,0,1,.19.57.53.53,0,0,1-.21.38.67.67,0,0,1-.47.19,14.77,14.77,0,0,1-1.75-1.06c-1.09-.71-2.21-1.37-3.38-2a10,10,0,0,0-2.65-.89,21.33,21.33,0,0,0-3.87-.28h-7.55a1.68,1.68,0,0,0-1.05.28,1.07,1.07,0,0,0-.36.89V81.75a.92.92,0,0,0,.4.76,2.56,2.56,0,0,0,1.16.27h7.85a47.67,47.67,0,0,0,9-.67A22.92,22.92,0,0,0,414.42,80a27.41,27.41,0,0,0,5.14-3.66c1.68-1.51,2.66-2.26,2.94-2.26a1.08,1.08,0,0,1,.68.21.63.63,0,0,1,.27.51,1.38,1.38,0,0,1-.14.46,2.14,2.14,0,0,1-.32.53l-6.45,9.18H378.3a2,2,0,0,1-1-.21.8.8,0,0,1-.4-.66c0-.41.46-.73,1.37-.95a14.26,14.26,0,0,0,1.52-.5,4.62,4.62,0,0,0,1.91-1.25,2.73,2.73,0,0,0,.59-1.78V37.25a2.93,2.93,0,0,0-.49-1.78,4.37,4.37,0,0,0-1.67-1.26,9.36,9.36,0,0,0-1.29-.45c-.91-.28-1.37-.62-1.37-1a.75.75,0,0,1,.32-.64,1.58,1.58,0,0,1,.9-.23Z"/><path class="cls-1" d="M438.51,31.86a125.07,125.07,0,0,1,15.12.65,40.79,40.79,0,0,1,8.67,2.08A21.89,21.89,0,0,1,471.64,41a13.87,13.87,0,0,1,3.49,9,11.83,11.83,0,0,1-2.41,7.32,21.94,21.94,0,0,1-7.46,5.84l-.53.23c-.91.48-1.36.91-1.36,1.29a1.75,1.75,0,0,0,.34.84.52.52,0,0,0,.07.11l8.69,14.53c.53.89,1.71,1.66,3.55,2.33s2.75,1.21,2.75,1.62a.87.87,0,0,1-.23.68,1.74,1.74,0,0,1-1,.19h-16a2,2,0,0,1-1-.21.8.8,0,0,1-.4-.66c0-.31.65-.73,2-1.26S464,81.56,464,80.65a3.07,3.07,0,0,0-.21-1.06,6.18,6.18,0,0,0-.59-1.18l-7.36-11.72a2.5,2.5,0,0,0-1-.91,3.37,3.37,0,0,0-1.46-.27l-.8,0c-1.77.08-3.52.11-5.24.11h-3.26a2.79,2.79,0,0,0-1.67.33,1.57,1.57,0,0,0-.38,1.23V79.59a2.77,2.77,0,0,0,.57,1.8,4.51,4.51,0,0,0,1.94,1.23,13.26,13.26,0,0,0,1.51.5c.91.22,1.37.54,1.37.95a.8.8,0,0,1-.4.66,2,2,0,0,1-1,.21H430.43a2,2,0,0,1-1-.21.78.78,0,0,1-.4-.66c0-.41.46-.73,1.37-.95a14,14,0,0,0,1.51-.5,4.6,4.6,0,0,0,1.92-1.25,2.73,2.73,0,0,0,.59-1.78V37.25a2.93,2.93,0,0,0-.5-1.78,4.25,4.25,0,0,0-1.66-1.26,9.36,9.36,0,0,0-1.29-.45c-.92-.28-1.37-.62-1.37-1a.75.75,0,0,1,.32-.64,1.54,1.54,0,0,1,.89-.23Zm3.57,4.36v24.7a2.51,2.51,0,0,0,.93,2.32q.93.57,5.07.57h.75q8.24,0,12.94-3.7A12.14,12.14,0,0,0,466.48,50a14.35,14.35,0,0,0-5.73-11.76q-5.73-4.55-15-4.55a6.09,6.09,0,0,0-3,.47A2.39,2.39,0,0,0,442.08,36.22Z"/><path class="cls-1" d="M520,32.39l5.5,8.31c.2.36.33.61.4.76a1.06,1.06,0,0,1,.09.34,1.08,1.08,0,0,1-.26.72.9.9,0,0,1-.69.31c-.3,0-.85-.4-1.63-1.18l-.3-.3a35.91,35.91,0,0,0-8.29-6.68,16.09,16.09,0,0,0-7.57-1.86,12.38,12.38,0,0,0-7.53,2.12,6.64,6.64,0,0,0-2.87,5.58q0,4.71,13,9.49l1.86.68c.3.1.74.26,1.33.49q8.91,3.22,12.1,5.88a18.37,18.37,0,0,1,4.8,5.62,13.74,13.74,0,0,1,1.57,6.49,14.91,14.91,0,0,1-5.67,12q-5.67,4.69-14.74,4.69a37.14,37.14,0,0,1-8-1,37.75,37.75,0,0,0-5.81-1,9,9,0,0,0-3.56.76,2,2,0,0,1-.31.11.53.53,0,0,1-.3-.11,4,4,0,0,1-.42-.42L484.2,72.11l-.07-.11a1.81,1.81,0,0,1-.31-.72.83.83,0,0,1,.27-.63.81.81,0,0,1,.57-.24c.58,0,1.56.66,3,2,.83.78,1.5,1.39,2,1.82a49.64,49.64,0,0,0,10.83,7.46A22.43,22.43,0,0,0,510,83.84q6.25,0,10-3.42a11.81,11.81,0,0,0,3.7-9.14,10.58,10.58,0,0,0-3.11-8q-3.12-3-12.26-6.28l-3-1.06q-7.74-2.68-9.79-4.21a13.24,13.24,0,0,1-3.61-4,9.42,9.42,0,0,1-1.13-4.63,10.61,10.61,0,0,1,4.36-8.8Q499.46,31,506.59,31a30.55,30.55,0,0,1,6,.7,29.89,29.89,0,0,0,4.5.7,6.52,6.52,0,0,0,2-.34,1.78,1.78,0,0,1,.34-.08.94.94,0,0,1,.34.14A1,1,0,0,1,520,32.39Z"/><path class="cls-1" d="M50.18,69.41,70.72,15.92a7.32,7.32,0,0,0,.41-1.11c.09-.35.15-.64.19-.9,0-1-.83-2-2.47-2.76s-2.47-1.39-2.47-1.79a1,1,0,0,1,.52-.89,2.35,2.35,0,0,1,1.38-.36H86.17a2.4,2.4,0,0,1,1.38.36,1,1,0,0,1,.51.89c0,.61-.57,1.07-1.7,1.36a9.06,9.06,0,0,0-2.14.7,2.84,2.84,0,0,0-1.17,1.19,4.08,4.08,0,0,0-.35,1.84,3.61,3.61,0,0,0,.08.68,5.13,5.13,0,0,1,.08.79L88.28,76a5.41,5.41,0,0,0,.89,3,7.2,7.2,0,0,0,2.9,1.68c.51.18,1.2.4,2.06.65q2,.6,2,1.41a1.16,1.16,0,0,1-.41.9,1.66,1.66,0,0,1-1.11.35H72.72a2.84,2.84,0,0,1-1.43-.3,1.12,1.12,0,0,1-.57-1c0-.58.88-1.12,2.66-1.62.65-.18,1.19-.35,1.62-.49a3.51,3.51,0,0,0,1.9-1.14,3.89,3.89,0,0,0,.49-2.17V76.19L72.29,19,48.06,82.2a2.86,2.86,0,0,1-.81,1.33,1.72,1.72,0,0,1-1.14.41,1.65,1.65,0,0,1-1.62-1.36c-.08-.18-.13-.32-.17-.43L18.91,19.77l-3.8,56.42v.43a3.64,3.64,0,0,0,.54,2.09A4.1,4.1,0,0,0,17.44,80a23.17,23.17,0,0,0,3,1.13c1.44.44,2.16.94,2.16,1.52a1,1,0,0,1-.51,1,2.86,2.86,0,0,1-1.44.3H6.44A2.89,2.89,0,0,1,5,83.64a1,1,0,0,1-.51-1c0-.58.85-1.1,2.55-1.57.68-.22,1.22-.38,1.62-.49a5.27,5.27,0,0,0,3-1.89,9,9,0,0,0,.92-4.12L16.47,17c0-.79.09-1.62.16-2.49l.05-.27a2.89,2.89,0,0,0-.43-1.79A6,6,0,0,0,14,11.2L13.43,11q-2.28-.81-2.28-1.68a1.06,1.06,0,0,1,.47-.92,2.13,2.13,0,0,1,1.27-.33H32.45a2.16,2.16,0,0,1,1.28.33,1.08,1.08,0,0,1,.46.92c0,.54-1,1.19-3,2s-3,1.74-3,2.93a3.93,3.93,0,0,0,.13,1,12.82,12.82,0,0,0,.63,1.65Z"/><path class="cls-1" d="M127.19,30l17.57,46a16.84,16.84,0,0,0,1.61,3.32,6.67,6.67,0,0,0,1.88,2,5.71,5.71,0,0,0,1.63.8c.73.25,1.1.55,1.1.91a.8.8,0,0,1-.4.66,2,2,0,0,1-1,.21H135.73a2,2,0,0,1-1-.21.8.8,0,0,1-.4-.66c0-.38.41-.7,1.22-.95.32-.1.59-.19.79-.27a4,4,0,0,0,1.48-.8,1.32,1.32,0,0,0,.42-1,2.92,2.92,0,0,0-.11-.61.5.5,0,0,1,0-.19l-4.14-11H110.31l-3.15,8.5a2.32,2.32,0,0,0-.27.83,8,8,0,0,0-.07,1.18,2.49,2.49,0,0,0,.64,1.78,5.23,5.23,0,0,0,2.13,1.18l.79.22c1.17.31,1.75.7,1.75,1.18a.63.63,0,0,1-.34.57,2.27,2.27,0,0,1-1.07.19H100.44a2,2,0,0,1-1-.21.71.71,0,0,1-.36-.66c0-.16.79-.63,2.39-1.43a6.62,6.62,0,0,0,3.34-3.77L123,30Zm-5,7.28-11,29.06h22.08Z"/><path class="cls-1" d="M165.25,30.86a125.19,125.19,0,0,1,15.12.65A41.09,41.09,0,0,1,189,33.59,21.92,21.92,0,0,1,198.37,40a13.82,13.82,0,0,1,3.49,9,11.77,11.77,0,0,1-2.41,7.32A21.89,21.89,0,0,1,192,62.12l-.53.23c-.91.48-1.37.91-1.37,1.29a1.75,1.75,0,0,0,.34.84.52.52,0,0,0,.08.11l8.69,14.53a6.65,6.65,0,0,0,3.54,2.33c1.84.67,2.75,1.21,2.75,1.62a.87.87,0,0,1-.22.68,1.81,1.81,0,0,1-1,.19h-16a2,2,0,0,1-1-.21.78.78,0,0,1-.4-.66q0-.46,1.95-1.26c1.3-.53,2-1.25,2-2.16a3.07,3.07,0,0,0-.21-1.06,6.83,6.83,0,0,0-.59-1.18l-7.36-11.72a2.46,2.46,0,0,0-1-.91,3.34,3.34,0,0,0-1.46-.27l-.8,0c-1.77.08-3.51.11-5.23.11h-3.26a2.79,2.79,0,0,0-1.67.33,1.53,1.53,0,0,0-.38,1.23V78.59a2.77,2.77,0,0,0,.57,1.8,4.46,4.46,0,0,0,1.93,1.23,14.26,14.26,0,0,0,1.52.5c.91.22,1.36.54,1.36.95a.77.77,0,0,1-.39.66,2,2,0,0,1-1,.21H157.17a2,2,0,0,1-1-.21.77.77,0,0,1-.39-.66c0-.41.45-.73,1.36-.95a14.26,14.26,0,0,0,1.52-.5,4.62,4.62,0,0,0,1.91-1.25,2.67,2.67,0,0,0,.59-1.78V36.25a2.93,2.93,0,0,0-.49-1.78A4.37,4.37,0,0,0,159,33.21a9.36,9.36,0,0,0-1.29-.45c-.91-.28-1.37-.62-1.37-1a.74.74,0,0,1,.33-.64,1.52,1.52,0,0,1,.89-.23Zm3.57,4.36v24.7a2.51,2.51,0,0,0,.93,2.32c.62.38,2.3.57,5.06.57h.76q8.24,0,12.94-3.7A12.16,12.16,0,0,0,193.21,49a14.35,14.35,0,0,0-5.73-11.76q-5.73-4.55-15-4.55a6.14,6.14,0,0,0-3,.47A2.42,2.42,0,0,0,168.82,35.22Z"/><path class="cls-1" d="M226,56.28l22.72-20.07a1.69,1.69,0,0,0,.46-.59,1.81,1.81,0,0,0,.15-.78c0-.68-.87-1.3-2.62-1.85-.35-.1-.63-.19-.83-.27a2.36,2.36,0,0,1-.93-.46.78.78,0,0,1-.28-.6.66.66,0,0,1,.34-.59,1.85,1.85,0,0,1,1-.21h11.42a1.81,1.81,0,0,1,1,.23.72.72,0,0,1,.36.64c0,.16-1,.74-3,1.77a29.18,29.18,0,0,0-6.07,4.19l-5,4.51,14.83,36.62a5.39,5.39,0,0,0,3.21,2.84c1.63.66,2.45,1.13,2.45,1.41a.71.71,0,0,1-.36.66,2,2,0,0,1-1,.21H248.54a2,2,0,0,1-1-.21.8.8,0,0,1-.4-.66c0-.33.34-.62,1-.88l.3-.11a7.31,7.31,0,0,0,2.22-1.2,1.79,1.79,0,0,0,.66-1.38,2.73,2.73,0,0,0-.07-.57,6.28,6.28,0,0,0-.23-.76L238.59,47.48,226,58.59v20a2.77,2.77,0,0,0,.57,1.8,4.53,4.53,0,0,0,1.93,1.23,14.26,14.26,0,0,0,1.52.5c.91.22,1.37.54,1.37.95a.8.8,0,0,1-.4.66,2,2,0,0,1-1,.21H214.35a2,2,0,0,1-1-.21.78.78,0,0,1-.4-.66c0-.41.45-.73,1.36-.95a13.53,13.53,0,0,0,1.52-.5,4.6,4.6,0,0,0,1.92-1.25,2.73,2.73,0,0,0,.59-1.78V36.25a2.93,2.93,0,0,0-.5-1.78,4.29,4.29,0,0,0-1.67-1.26,9.36,9.36,0,0,0-1.29-.45c-.91-.28-1.36-.62-1.36-1a.73.73,0,0,1,.32-.64,1.52,1.52,0,0,1,.89-.23H229.6a1.52,1.52,0,0,1,.89.23.74.74,0,0,1,.33.64c0,.41-.46.75-1.37,1a9.36,9.36,0,0,0-1.29.45,4.16,4.16,0,0,0-1.69,1.26,3.07,3.07,0,0,0-.47,1.78Z"/><path class="cls-1" d="M299.5,30.86h1.78q1.59,0,2.88-.09c.86-.07,1.66-.16,2.39-.29L313,39.85a3.25,3.25,0,0,1,.32.59,1.09,1.09,0,0,1,.1.36.59.59,0,0,1-.23.46.89.89,0,0,1-.57.19c-.45,0-1.14-.52-2.07-1.54a29.8,29.8,0,0,0-2.25-2.3,22.59,22.59,0,0,0-6.87-3.77,26.27,26.27,0,0,0-8.31-1.2h-6.3a2,2,0,0,0-1.23.35,1.43,1.43,0,0,0-.32,1.06V50.13a1.18,1.18,0,0,0,.36.91,1.25,1.25,0,0,0,.89.35h7.85a8.21,8.21,0,0,0,2.58-.31,3,3,0,0,0,1.45-1,6.63,6.63,0,0,0,.56-1c.31-.63.66-.95,1.07-.95a1.22,1.22,0,0,1,.68.19,2.2,2.2,0,0,1,.57.57l5,7.32a1.44,1.44,0,0,0,.11.19,1.7,1.7,0,0,1,.19.57.53.53,0,0,1-.21.38.66.66,0,0,1-.47.19,14.77,14.77,0,0,1-1.75-1.06c-1.08-.71-2.21-1.37-3.37-2a10,10,0,0,0-2.66-.89,21.18,21.18,0,0,0-3.87-.28h-7.55a1.65,1.65,0,0,0-1,.28,1.07,1.07,0,0,0-.36.89V80.75a.89.89,0,0,0,.4.76,2.51,2.51,0,0,0,1.15.27h7.86a47.62,47.62,0,0,0,9-.67A22.67,22.67,0,0,0,309.74,79a27.09,27.09,0,0,0,5.14-3.66c1.68-1.51,2.66-2.26,2.94-2.26a1,1,0,0,1,.68.21.63.63,0,0,1,.27.51,1.56,1.56,0,0,1-.13.46,2.16,2.16,0,0,1-.33.53l-6.45,9.18H273.62a2,2,0,0,1-1-.21.76.76,0,0,1-.4-.66c0-.41.45-.73,1.36-.95a13.53,13.53,0,0,0,1.52-.5A4.66,4.66,0,0,0,277,80.37a2.72,2.72,0,0,0,.58-1.78V36.25a2.93,2.93,0,0,0-.49-1.78,4.29,4.29,0,0,0-1.67-1.26,9.36,9.36,0,0,0-1.29-.45c-.91-.28-1.36-.62-1.36-1a.73.73,0,0,1,.32-.64,1.52,1.52,0,0,1,.89-.23Z"/><path class="cls-1" d="M350.53,78.59a2.77,2.77,0,0,0,.57,1.8A4.57,4.57,0,0,0,353,81.62a13.26,13.26,0,0,0,1.51.5c.91.22,1.37.54,1.37.95a.8.8,0,0,1-.4.66,2,2,0,0,1-1,.21h-16a2,2,0,0,1-1-.21.81.81,0,0,1-.38-.66c0-.38.47-.7,1.4-.95a13.27,13.27,0,0,0,1.56-.5,4,4,0,0,0,1.84-1.21,2.9,2.9,0,0,0,.55-1.82V34.69a2.91,2.91,0,0,0-.32-1.67,1.61,1.61,0,0,0-1.24-.38h-3a19.79,19.79,0,0,0-5.9.82A14.64,14.64,0,0,0,327.24,36a20.9,20.9,0,0,0-3.11,3.32c-1.12,1.43-1.86,2.15-2.24,2.15a.84.84,0,0,1-.59-.29.87.87,0,0,1-.21-.59,1.42,1.42,0,0,1,0-.26,1,1,0,0,1,.06-.19l5-10.09c1.77.27,3.47.48,5.1.62s3.22.21,4.76.21h21q2.36,0,4.8-.21c1.63-.14,3.32-.35,5.07-.62l5,10.09c0,.07.06.17.1.28a.93.93,0,0,1,.06.25.76.76,0,0,1-.25.57.92.92,0,0,1-.63.23c-.35,0-1.09-.72-2.22-2.15A21.38,21.38,0,0,0,365.78,36,14.65,14.65,0,0,0,361,33.46a19.48,19.48,0,0,0-5.84-.82h-3.11a1.62,1.62,0,0,0-1.22.38,2.79,2.79,0,0,0-.34,1.67Z"/><path class="cls-1" d="M405.17,30.86H407c1.07,0,2,0,2.89-.09s1.65-.16,2.39-.29l6.45,9.37a3.25,3.25,0,0,1,.32.59,1.43,1.43,0,0,1,.1.36.59.59,0,0,1-.23.46.89.89,0,0,1-.57.19c-.46,0-1.15-.52-2.07-1.54a27.87,27.87,0,0,0-2.26-2.3,22.43,22.43,0,0,0-6.86-3.77,26.36,26.36,0,0,0-8.31-1.2h-6.3a1.91,1.91,0,0,0-1.23.35,1.39,1.39,0,0,0-.33,1.06V50.13a1.18,1.18,0,0,0,.36.91,1.27,1.27,0,0,0,.9.35h7.85a8.29,8.29,0,0,0,2.58-.31,2.93,2.93,0,0,0,1.44-1,5.77,5.77,0,0,0,.57-1c.3-.63.66-.95,1.06-.95a1.26,1.26,0,0,1,.69.19A2,2,0,0,1,407,49l5,7.32a1.44,1.44,0,0,0,.11.19,1.7,1.7,0,0,1,.19.57.53.53,0,0,1-.21.38.67.67,0,0,1-.47.19,14.77,14.77,0,0,1-1.75-1.06c-1.09-.71-2.21-1.37-3.38-2a10,10,0,0,0-2.65-.89,21.33,21.33,0,0,0-3.87-.28h-7.55a1.68,1.68,0,0,0-1.05.28,1.07,1.07,0,0,0-.36.89V80.75a.92.92,0,0,0,.4.76,2.56,2.56,0,0,0,1.16.27h7.85a47.67,47.67,0,0,0,9-.67A22.92,22.92,0,0,0,415.42,79a27.41,27.41,0,0,0,5.14-3.66c1.68-1.51,2.66-2.26,2.94-2.26a1.08,1.08,0,0,1,.68.21.63.63,0,0,1,.27.51,1.38,1.38,0,0,1-.14.46,2.14,2.14,0,0,1-.32.53l-6.45,9.18H379.3a2,2,0,0,1-1-.21.8.8,0,0,1-.4-.66c0-.41.46-.73,1.37-.95a14.26,14.26,0,0,0,1.52-.5,4.62,4.62,0,0,0,1.91-1.25,2.73,2.73,0,0,0,.59-1.78V36.25a2.93,2.93,0,0,0-.49-1.78,4.37,4.37,0,0,0-1.67-1.26,9.36,9.36,0,0,0-1.29-.45c-.91-.28-1.37-.62-1.37-1a.75.75,0,0,1,.32-.64,1.58,1.58,0,0,1,.9-.23Z"/><path class="cls-1" d="M439.51,30.86a125.07,125.07,0,0,1,15.12.65,40.79,40.79,0,0,1,8.67,2.08A21.89,21.89,0,0,1,472.64,40a13.87,13.87,0,0,1,3.49,9,11.83,11.83,0,0,1-2.41,7.32,21.94,21.94,0,0,1-7.46,5.84l-.53.23c-.91.48-1.36.91-1.36,1.29a1.75,1.75,0,0,0,.34.84.52.52,0,0,0,.07.11l8.69,14.53c.53.89,1.71,1.66,3.55,2.33s2.75,1.21,2.75,1.62a.87.87,0,0,1-.23.68,1.74,1.74,0,0,1-1,.19h-16a2,2,0,0,1-1-.21.8.8,0,0,1-.4-.66c0-.31.65-.73,2-1.26S465,80.56,465,79.65a3.07,3.07,0,0,0-.21-1.06,6.18,6.18,0,0,0-.59-1.18l-7.36-11.72a2.5,2.5,0,0,0-1-.91,3.37,3.37,0,0,0-1.46-.27l-.8,0c-1.77.08-3.52.11-5.24.11h-3.26a2.79,2.79,0,0,0-1.67.33,1.57,1.57,0,0,0-.38,1.23V78.59a2.77,2.77,0,0,0,.57,1.8,4.51,4.51,0,0,0,1.94,1.23,13.26,13.26,0,0,0,1.51.5c.91.22,1.37.54,1.37.95a.8.8,0,0,1-.4.66,2,2,0,0,1-1,.21H431.43a2,2,0,0,1-1-.21.78.78,0,0,1-.4-.66c0-.41.46-.73,1.37-.95a14,14,0,0,0,1.51-.5,4.6,4.6,0,0,0,1.92-1.25,2.73,2.73,0,0,0,.59-1.78V36.25a2.93,2.93,0,0,0-.5-1.78,4.25,4.25,0,0,0-1.66-1.26,9.36,9.36,0,0,0-1.29-.45c-.92-.28-1.37-.62-1.37-1a.75.75,0,0,1,.32-.64,1.54,1.54,0,0,1,.89-.23Zm3.57,4.36v24.7a2.51,2.51,0,0,0,.93,2.32q.93.57,5.07.57h.75q8.24,0,12.94-3.7A12.14,12.14,0,0,0,467.48,49a14.35,14.35,0,0,0-5.73-11.76q-5.73-4.55-15-4.55a6.09,6.09,0,0,0-3,.47A2.39,2.39,0,0,0,443.08,35.22Z"/><path class="cls-1" d="M521,31.39l5.5,8.31c.2.36.33.61.4.76a1.06,1.06,0,0,1,.09.34,1.08,1.08,0,0,1-.26.72.9.9,0,0,1-.69.31c-.3,0-.85-.4-1.63-1.18l-.3-.3a35.91,35.91,0,0,0-8.29-6.68,16.09,16.09,0,0,0-7.57-1.86,12.38,12.38,0,0,0-7.53,2.12,6.64,6.64,0,0,0-2.87,5.58q0,4.71,13,9.49l1.86.68c.3.1.74.26,1.33.49q8.91,3.22,12.1,5.88a18.37,18.37,0,0,1,4.8,5.62,13.74,13.74,0,0,1,1.57,6.49,14.91,14.91,0,0,1-5.67,12q-5.67,4.69-14.74,4.69a37.14,37.14,0,0,1-8-1,37.75,37.75,0,0,0-5.81-1,9,9,0,0,0-3.56.76,2,2,0,0,1-.31.11.53.53,0,0,1-.3-.11,4,4,0,0,1-.42-.42L485.2,71.11l-.07-.11a1.81,1.81,0,0,1-.31-.72.83.83,0,0,1,.27-.63.81.81,0,0,1,.57-.24c.58,0,1.56.66,3,2,.83.78,1.5,1.39,2,1.82a49.64,49.64,0,0,0,10.83,7.46A22.43,22.43,0,0,0,511,82.84q6.25,0,10-3.42a11.81,11.81,0,0,0,3.7-9.14,10.58,10.58,0,0,0-3.11-8q-3.12-3-12.26-6.28l-3-1.06q-7.74-2.68-9.79-4.21a13.24,13.24,0,0,1-3.61-4,9.42,9.42,0,0,1-1.13-4.63,10.61,10.61,0,0,1,4.36-8.8Q500.46,30,507.59,30a30.55,30.55,0,0,1,6,.7,29.89,29.89,0,0,0,4.5.7,6.52,6.52,0,0,0,2-.34,1.78,1.78,0,0,1,.34-.08.94.94,0,0,1,.34.14A1,1,0,0,1,521,31.39Z"/><path class="cls-1" d="M51.18,68.41,71.72,14.92a7.32,7.32,0,0,0,.41-1.11c.09-.35.15-.64.19-.9,0-1-.83-2-2.47-2.76s-2.47-1.39-2.47-1.79a1,1,0,0,1,.52-.89,2.35,2.35,0,0,1,1.38-.36H87.17a2.4,2.4,0,0,1,1.38.36,1,1,0,0,1,.51.89c0,.61-.57,1.07-1.7,1.36a9.06,9.06,0,0,0-2.14.7,2.84,2.84,0,0,0-1.17,1.19,4.08,4.08,0,0,0-.35,1.84,3.61,3.61,0,0,0,.08.68,5.13,5.13,0,0,1,.08.79L89.28,75a5.41,5.41,0,0,0,.89,3,7.2,7.2,0,0,0,2.9,1.68c.51.18,1.2.4,2.06.65q2,.6,2,1.41a1.16,1.16,0,0,1-.41.9,1.66,1.66,0,0,1-1.11.35H73.72a2.84,2.84,0,0,1-1.43-.3,1.12,1.12,0,0,1-.57-1c0-.58.88-1.12,2.66-1.62.65-.18,1.19-.35,1.62-.49a3.51,3.51,0,0,0,1.9-1.14,3.89,3.89,0,0,0,.49-2.17V75.19L73.29,18,49.06,81.2a2.86,2.86,0,0,1-.81,1.33,1.72,1.72,0,0,1-1.14.41,1.65,1.65,0,0,1-1.62-1.36c-.08-.18-.13-.32-.17-.43L19.91,18.77l-3.8,56.42v.43a3.64,3.64,0,0,0,.54,2.09A4.1,4.1,0,0,0,18.44,79a23.17,23.17,0,0,0,3,1.13c1.44.44,2.16.94,2.16,1.52a1,1,0,0,1-.51,1,2.86,2.86,0,0,1-1.44.3H7.44A2.89,2.89,0,0,1,6,82.64a1,1,0,0,1-.51-1c0-.58.85-1.1,2.55-1.57.68-.22,1.22-.38,1.62-.49a5.27,5.27,0,0,0,3-1.89,9,9,0,0,0,.92-4.12L17.47,16c0-.79.09-1.62.16-2.49l.05-.27a2.89,2.89,0,0,0-.43-1.79A6,6,0,0,0,15,10.2L14.43,10q-2.28-.81-2.28-1.68a1.06,1.06,0,0,1,.47-.92,2.13,2.13,0,0,1,1.27-.33H33.45a2.16,2.16,0,0,1,1.28.33,1.08,1.08,0,0,1,.46.92c0,.54-1,1.19-3,2s-3,1.74-3,2.93a3.93,3.93,0,0,0,.13,1,12.82,12.82,0,0,0,.63,1.65Z"/><path class="cls-1" d="M128.19,29l17.57,46a16.84,16.84,0,0,0,1.61,3.32,6.67,6.67,0,0,0,1.88,2,5.71,5.71,0,0,0,1.63.8c.73.25,1.1.55,1.1.91a.8.8,0,0,1-.4.66,2,2,0,0,1-1,.21H136.73a2,2,0,0,1-1-.21.8.8,0,0,1-.4-.66c0-.38.41-.7,1.22-.95.32-.1.59-.19.79-.27a4,4,0,0,0,1.48-.8,1.32,1.32,0,0,0,.42-1,2.92,2.92,0,0,0-.11-.61.5.5,0,0,1,0-.19l-4.14-11H111.31l-3.15,8.5a2.32,2.32,0,0,0-.27.83,8,8,0,0,0-.07,1.18,2.49,2.49,0,0,0,.64,1.78,5.23,5.23,0,0,0,2.13,1.18l.79.22c1.17.31,1.75.7,1.75,1.18a.63.63,0,0,1-.34.57,2.27,2.27,0,0,1-1.07.19H101.44a2,2,0,0,1-1-.21.71.71,0,0,1-.36-.66c0-.16.79-.63,2.39-1.43a6.62,6.62,0,0,0,3.34-3.77L124,29Zm-5,7.28-11,29.06h22.08Z"/><path class="cls-1" d="M166.25,29.86a125.19,125.19,0,0,1,15.12.65A41.09,41.09,0,0,1,190,32.59,21.92,21.92,0,0,1,199.37,39a13.82,13.82,0,0,1,3.49,9,11.77,11.77,0,0,1-2.41,7.32A21.89,21.89,0,0,1,193,61.12l-.53.23c-.91.48-1.37.91-1.37,1.29a1.75,1.75,0,0,0,.34.84.52.52,0,0,0,.08.11l8.69,14.53a6.65,6.65,0,0,0,3.54,2.33c1.84.67,2.75,1.21,2.75,1.62a.87.87,0,0,1-.22.68,1.81,1.81,0,0,1-1,.19h-16a2,2,0,0,1-1-.21.78.78,0,0,1-.4-.66q0-.46,1.95-1.26c1.3-.53,2-1.25,2-2.16a3.07,3.07,0,0,0-.21-1.06,6.83,6.83,0,0,0-.59-1.18l-7.36-11.72a2.46,2.46,0,0,0-1-.91,3.34,3.34,0,0,0-1.46-.27l-.8,0c-1.77.08-3.51.11-5.23.11h-3.26a2.79,2.79,0,0,0-1.67.33,1.53,1.53,0,0,0-.38,1.23V77.59a2.77,2.77,0,0,0,.57,1.8,4.46,4.46,0,0,0,1.93,1.23,14.26,14.26,0,0,0,1.52.5c.91.22,1.36.54,1.36.95a.77.77,0,0,1-.39.66,2,2,0,0,1-1,.21H158.17a2,2,0,0,1-1-.21.77.77,0,0,1-.39-.66c0-.41.45-.73,1.36-.95a14.26,14.26,0,0,0,1.52-.5,4.62,4.62,0,0,0,1.91-1.25,2.67,2.67,0,0,0,.59-1.78V35.25a2.93,2.93,0,0,0-.49-1.78A4.37,4.37,0,0,0,160,32.21a9.36,9.36,0,0,0-1.29-.45c-.91-.28-1.37-.62-1.37-1a.74.74,0,0,1,.33-.64,1.52,1.52,0,0,1,.89-.23Zm3.57,4.36v24.7a2.51,2.51,0,0,0,.93,2.32c.62.38,2.3.57,5.06.57h.76q8.24,0,12.94-3.7A12.16,12.16,0,0,0,194.21,48a14.35,14.35,0,0,0-5.73-11.76q-5.73-4.55-15-4.55a6.14,6.14,0,0,0-3,.47A2.42,2.42,0,0,0,169.82,34.22Z"/><path class="cls-1" d="M227,55.28l22.72-20.07a1.69,1.69,0,0,0,.46-.59,1.81,1.81,0,0,0,.15-.78c0-.68-.87-1.3-2.62-1.85-.35-.1-.63-.19-.83-.27a2.36,2.36,0,0,1-.93-.46.78.78,0,0,1-.28-.6.66.66,0,0,1,.34-.59,1.85,1.85,0,0,1,1-.21h11.42a1.81,1.81,0,0,1,1,.23.72.72,0,0,1,.36.64c0,.16-1,.74-3,1.77a29.18,29.18,0,0,0-6.07,4.19l-5,4.51,14.83,36.62a5.39,5.39,0,0,0,3.21,2.84c1.63.66,2.45,1.13,2.45,1.41a.71.71,0,0,1-.36.66,2,2,0,0,1-1,.21H249.54a2,2,0,0,1-1-.21.8.8,0,0,1-.4-.66c0-.33.34-.62,1-.88l.3-.11a7.31,7.31,0,0,0,2.22-1.2,1.79,1.79,0,0,0,.66-1.38,2.73,2.73,0,0,0-.07-.57,6.28,6.28,0,0,0-.23-.76L239.59,46.48,227,57.59v20a2.77,2.77,0,0,0,.57,1.8,4.53,4.53,0,0,0,1.93,1.23,14.26,14.26,0,0,0,1.52.5c.91.22,1.37.54,1.37.95a.8.8,0,0,1-.4.66,2,2,0,0,1-1,.21H215.35a2,2,0,0,1-1-.21.78.78,0,0,1-.4-.66c0-.41.45-.73,1.36-.95a13.53,13.53,0,0,0,1.52-.5,4.6,4.6,0,0,0,1.92-1.25,2.73,2.73,0,0,0,.59-1.78V35.25a2.93,2.93,0,0,0-.5-1.78,4.29,4.29,0,0,0-1.67-1.26,9.36,9.36,0,0,0-1.29-.45c-.91-.28-1.36-.62-1.36-1a.73.73,0,0,1,.32-.64,1.52,1.52,0,0,1,.89-.23H230.6a1.52,1.52,0,0,1,.89.23.74.74,0,0,1,.33.64c0,.41-.46.75-1.37,1a9.36,9.36,0,0,0-1.29.45,4.16,4.16,0,0,0-1.69,1.26,3.07,3.07,0,0,0-.47,1.78Z"/><path class="cls-1" d="M300.5,29.86h1.78q1.59,0,2.88-.09c.86-.07,1.66-.16,2.39-.29L314,38.85a3.25,3.25,0,0,1,.32.59,1.09,1.09,0,0,1,.1.36.59.59,0,0,1-.23.46.89.89,0,0,1-.57.19c-.45,0-1.14-.52-2.07-1.54a29.8,29.8,0,0,0-2.25-2.3,22.59,22.59,0,0,0-6.87-3.77,26.27,26.27,0,0,0-8.31-1.2h-6.3a2,2,0,0,0-1.23.35,1.43,1.43,0,0,0-.32,1.06V49.13a1.18,1.18,0,0,0,.36.91,1.25,1.25,0,0,0,.89.35h7.85a8.21,8.21,0,0,0,2.58-.31,3,3,0,0,0,1.45-1,6.63,6.63,0,0,0,.56-1c.31-.63.66-.95,1.07-.95a1.22,1.22,0,0,1,.68.19,2.2,2.2,0,0,1,.57.57l5,7.32a1.44,1.44,0,0,0,.11.19,1.7,1.7,0,0,1,.19.57.53.53,0,0,1-.21.38.66.66,0,0,1-.47.19,14.77,14.77,0,0,1-1.75-1.06c-1.08-.71-2.21-1.37-3.37-2a10,10,0,0,0-2.66-.89,21.18,21.18,0,0,0-3.87-.28h-7.55a1.65,1.65,0,0,0-1,.28,1.07,1.07,0,0,0-.36.89V79.75a.89.89,0,0,0,.4.76,2.51,2.51,0,0,0,1.15.27h7.86a47.62,47.62,0,0,0,9-.67A22.67,22.67,0,0,0,310.74,78a27.09,27.09,0,0,0,5.14-3.66c1.68-1.51,2.66-2.26,2.94-2.26a1,1,0,0,1,.68.21.63.63,0,0,1,.27.51,1.56,1.56,0,0,1-.13.46,2.16,2.16,0,0,1-.33.53l-6.45,9.18H274.62a2,2,0,0,1-1-.21.76.76,0,0,1-.4-.66c0-.41.45-.73,1.36-.95a13.53,13.53,0,0,0,1.52-.5A4.66,4.66,0,0,0,278,79.37a2.72,2.72,0,0,0,.58-1.78V35.25a2.93,2.93,0,0,0-.49-1.78,4.29,4.29,0,0,0-1.67-1.26,9.36,9.36,0,0,0-1.29-.45c-.91-.28-1.36-.62-1.36-1a.73.73,0,0,1,.32-.64,1.52,1.52,0,0,1,.89-.23Z"/><path class="cls-1" d="M351.53,77.59a2.77,2.77,0,0,0,.57,1.8A4.57,4.57,0,0,0,354,80.62a13.26,13.26,0,0,0,1.51.5c.91.22,1.37.54,1.37.95a.8.8,0,0,1-.4.66,2,2,0,0,1-1,.21h-16a2,2,0,0,1-1-.21.81.81,0,0,1-.38-.66c0-.38.47-.7,1.4-.95a13.27,13.27,0,0,0,1.56-.5,4,4,0,0,0,1.84-1.21,2.9,2.9,0,0,0,.55-1.82V33.69a2.91,2.91,0,0,0-.32-1.67,1.61,1.61,0,0,0-1.24-.38h-3a19.79,19.79,0,0,0-5.9.82A14.64,14.64,0,0,0,328.24,35a20.9,20.9,0,0,0-3.11,3.32c-1.12,1.43-1.86,2.15-2.24,2.15a.84.84,0,0,1-.59-.29.87.87,0,0,1-.21-.59,1.42,1.42,0,0,1,0-.26,1,1,0,0,1,.06-.19l5-10.09c1.77.27,3.47.48,5.1.62s3.22.21,4.76.21h21q2.36,0,4.8-.21c1.63-.14,3.32-.35,5.07-.62l5,10.09c0,.07.06.17.1.28a.93.93,0,0,1,.06.25.76.76,0,0,1-.25.57.9.9,0,0,1-.63.23c-.35,0-1.09-.72-2.22-2.15A21.38,21.38,0,0,0,366.78,35,14.65,14.65,0,0,0,362,32.46a19.48,19.48,0,0,0-5.84-.82h-3.11a1.62,1.62,0,0,0-1.22.38,2.79,2.79,0,0,0-.34,1.67Z"/><path class="cls-1" d="M406.17,29.86H408c1.07,0,2,0,2.89-.09s1.65-.16,2.39-.29l6.45,9.37a3.25,3.25,0,0,1,.32.59,1.43,1.43,0,0,1,.1.36.59.59,0,0,1-.23.46.89.89,0,0,1-.57.19c-.46,0-1.15-.52-2.07-1.54a27.87,27.87,0,0,0-2.26-2.3,22.43,22.43,0,0,0-6.86-3.77,26.36,26.36,0,0,0-8.31-1.2h-6.3a1.91,1.91,0,0,0-1.23.35,1.39,1.39,0,0,0-.33,1.06V49.13a1.18,1.18,0,0,0,.36.91,1.27,1.27,0,0,0,.9.35h7.85a8.29,8.29,0,0,0,2.58-.31,2.93,2.93,0,0,0,1.44-1,5.77,5.77,0,0,0,.57-1c.3-.63.66-.95,1.06-.95a1.26,1.26,0,0,1,.69.19A2,2,0,0,1,408,48l5,7.32a1.44,1.44,0,0,0,.11.19,1.7,1.7,0,0,1,.19.57.53.53,0,0,1-.21.38.67.67,0,0,1-.47.19,14.77,14.77,0,0,1-1.75-1.06c-1.09-.71-2.21-1.37-3.38-2a10,10,0,0,0-2.65-.89,21.33,21.33,0,0,0-3.87-.28h-7.55a1.68,1.68,0,0,0-1.05.28,1.07,1.07,0,0,0-.36.89V79.75a.92.92,0,0,0,.4.76,2.56,2.56,0,0,0,1.16.27h7.85a47.67,47.67,0,0,0,9-.67A22.92,22.92,0,0,0,416.42,78a27.41,27.41,0,0,0,5.14-3.66c1.68-1.51,2.66-2.26,2.94-2.26a1.08,1.08,0,0,1,.68.21.63.63,0,0,1,.27.51,1.38,1.38,0,0,1-.14.46,2.14,2.14,0,0,1-.32.53l-6.45,9.18H380.3a2,2,0,0,1-1-.21.8.8,0,0,1-.4-.66c0-.41.46-.73,1.37-.95a14.26,14.26,0,0,0,1.52-.5,4.62,4.62,0,0,0,1.91-1.25,2.73,2.73,0,0,0,.59-1.78V35.25a2.93,2.93,0,0,0-.49-1.78,4.37,4.37,0,0,0-1.67-1.26,9.36,9.36,0,0,0-1.29-.45c-.91-.28-1.37-.62-1.37-1a.75.75,0,0,1,.32-.64,1.58,1.58,0,0,1,.9-.23Z"/><path class="cls-1" d="M440.51,29.86a125.07,125.07,0,0,1,15.12.65,40.79,40.79,0,0,1,8.67,2.08A21.89,21.89,0,0,1,473.64,39a13.87,13.87,0,0,1,3.49,9,11.83,11.83,0,0,1-2.41,7.32,21.94,21.94,0,0,1-7.46,5.84l-.53.23c-.91.48-1.36.91-1.36,1.29a1.75,1.75,0,0,0,.34.84.52.52,0,0,0,.07.11l8.69,14.53c.53.89,1.71,1.66,3.55,2.33s2.75,1.21,2.75,1.62a.87.87,0,0,1-.23.68,1.74,1.74,0,0,1-1,.19h-16a2,2,0,0,1-1-.21.8.8,0,0,1-.4-.66c0-.31.65-.73,2-1.26S466,79.56,466,78.65a3.07,3.07,0,0,0-.21-1.06,6.18,6.18,0,0,0-.59-1.18l-7.36-11.72a2.5,2.5,0,0,0-1-.91,3.37,3.37,0,0,0-1.46-.27l-.8,0c-1.77.08-3.52.11-5.24.11h-3.26a2.79,2.79,0,0,0-1.67.33,1.57,1.57,0,0,0-.38,1.23V77.59a2.77,2.77,0,0,0,.57,1.8,4.51,4.51,0,0,0,1.94,1.23,13.26,13.26,0,0,0,1.51.5c.91.22,1.37.54,1.37.95a.8.8,0,0,1-.4.66,2,2,0,0,1-1,.21H432.43a2,2,0,0,1-1-.21.78.78,0,0,1-.4-.66c0-.41.46-.73,1.37-.95a14,14,0,0,0,1.51-.5,4.6,4.6,0,0,0,1.92-1.25,2.73,2.73,0,0,0,.59-1.78V35.25a2.93,2.93,0,0,0-.5-1.78,4.25,4.25,0,0,0-1.66-1.26,9.36,9.36,0,0,0-1.29-.45c-.92-.28-1.37-.62-1.37-1a.75.75,0,0,1,.32-.64,1.54,1.54,0,0,1,.89-.23Zm3.57,4.36v24.7a2.51,2.51,0,0,0,.93,2.32q.93.57,5.07.57h.75q8.24,0,12.94-3.7A12.14,12.14,0,0,0,468.48,48a14.35,14.35,0,0,0-5.73-11.76q-5.73-4.55-15-4.55a6.09,6.09,0,0,0-3,.47A2.39,2.39,0,0,0,444.08,34.22Z"/><path class="cls-1" d="M522,30.39l5.5,8.31c.2.36.33.61.4.76a1.06,1.06,0,0,1,.09.34,1.08,1.08,0,0,1-.26.72.9.9,0,0,1-.69.31c-.3,0-.85-.4-1.63-1.18l-.3-.3a35.91,35.91,0,0,0-8.29-6.68,16.09,16.09,0,0,0-7.57-1.86,12.38,12.38,0,0,0-7.53,2.12,6.64,6.64,0,0,0-2.87,5.58q0,4.71,13,9.49l1.86.68c.3.1.74.26,1.33.49q8.91,3.22,12.1,5.88a18.37,18.37,0,0,1,4.8,5.62,13.74,13.74,0,0,1,1.57,6.49,14.91,14.91,0,0,1-5.67,12q-5.67,4.69-14.74,4.69a37.14,37.14,0,0,1-8-1,37.75,37.75,0,0,0-5.81-1,9,9,0,0,0-3.56.76,2,2,0,0,1-.31.11.53.53,0,0,1-.3-.11,4,4,0,0,1-.42-.42L486.2,70.11l-.07-.11a1.81,1.81,0,0,1-.31-.72.83.83,0,0,1,.27-.63.81.81,0,0,1,.57-.24c.58,0,1.56.66,3,2,.83.78,1.5,1.39,2,1.82a49.64,49.64,0,0,0,10.83,7.46A22.43,22.43,0,0,0,512,81.84q6.25,0,10-3.42a11.81,11.81,0,0,0,3.7-9.14,10.58,10.58,0,0,0-3.11-8q-3.12-3-12.26-6.28l-3-1.06q-7.74-2.68-9.79-4.21a13.24,13.24,0,0,1-3.61-4,9.42,9.42,0,0,1-1.13-4.63,10.61,10.61,0,0,1,4.36-8.8Q501.46,29,508.59,29a30.55,30.55,0,0,1,6,.7,29.89,29.89,0,0,0,4.5.7,6.52,6.52,0,0,0,2-.34,1.78,1.78,0,0,1,.34-.08.94.94,0,0,1,.34.14A1,1,0,0,1,522,30.39Z"/><path class="cls-1" d="M52.18,67.41,72.72,13.92a7.32,7.32,0,0,0,.41-1.11c.09-.35.15-.64.19-.9,0-1-.83-2-2.47-2.76s-2.47-1.39-2.47-1.79a1,1,0,0,1,.52-.89,2.35,2.35,0,0,1,1.38-.36H88.17a2.4,2.4,0,0,1,1.38.36,1,1,0,0,1,.51.89c0,.61-.57,1.07-1.7,1.36a9.06,9.06,0,0,0-2.14.7,2.84,2.84,0,0,0-1.17,1.19,4.08,4.08,0,0,0-.35,1.84,3.61,3.61,0,0,0,.08.68,5.13,5.13,0,0,1,.08.79L90.28,74a5.41,5.41,0,0,0,.89,3,7.2,7.2,0,0,0,2.9,1.68c.51.18,1.2.4,2.06.65q2,.6,2,1.41a1.16,1.16,0,0,1-.41.9,1.66,1.66,0,0,1-1.11.35H74.72a2.84,2.84,0,0,1-1.43-.3,1.12,1.12,0,0,1-.57-1c0-.58.88-1.12,2.66-1.62.65-.18,1.19-.35,1.62-.49a3.51,3.51,0,0,0,1.9-1.14,3.89,3.89,0,0,0,.49-2.17V74.19L74.29,17,50.06,80.2a2.86,2.86,0,0,1-.81,1.33,1.72,1.72,0,0,1-1.14.41,1.65,1.65,0,0,1-1.62-1.36c-.08-.18-.13-.32-.17-.43L20.91,17.77l-3.8,56.42v.43a3.64,3.64,0,0,0,.54,2.09A4.1,4.1,0,0,0,19.44,78a23.17,23.17,0,0,0,3,1.13c1.44.44,2.16.94,2.16,1.52a1,1,0,0,1-.51,1,2.86,2.86,0,0,1-1.44.3H8.44A2.89,2.89,0,0,1,7,81.64a1,1,0,0,1-.51-1c0-.58.85-1.1,2.55-1.57.68-.22,1.22-.38,1.62-.49a5.27,5.27,0,0,0,3-1.89,9,9,0,0,0,.92-4.12L18.47,15c0-.79.09-1.62.16-2.49l.05-.27a2.89,2.89,0,0,0-.43-1.79A6,6,0,0,0,16,9.2L15.43,9q-2.28-.81-2.28-1.68a1.06,1.06,0,0,1,.47-.92,2.13,2.13,0,0,1,1.27-.33H34.45a2.16,2.16,0,0,1,1.28.33,1.08,1.08,0,0,1,.46.92c0,.54-1,1.19-3,2s-3,1.74-3,2.93a3.93,3.93,0,0,0,.13,1,12.82,12.82,0,0,0,.63,1.65Z"/><path class="cls-1" d="M129.19,28l17.57,46a16.84,16.84,0,0,0,1.61,3.32,6.67,6.67,0,0,0,1.88,2,5.71,5.71,0,0,0,1.63.8c.73.25,1.1.55,1.1.91a.8.8,0,0,1-.4.66,2,2,0,0,1-1,.21H137.73a2,2,0,0,1-1-.21.8.8,0,0,1-.4-.66c0-.38.41-.7,1.22-.95.32-.1.59-.19.79-.27a4,4,0,0,0,1.48-.8,1.32,1.32,0,0,0,.42-1,2.92,2.92,0,0,0-.11-.61.5.5,0,0,1,0-.19l-4.14-11H112.31l-3.15,8.5a2.32,2.32,0,0,0-.27.83,8,8,0,0,0-.07,1.18,2.49,2.49,0,0,0,.64,1.78,5.23,5.23,0,0,0,2.13,1.18l.79.22c1.17.31,1.75.7,1.75,1.18a.63.63,0,0,1-.34.57,2.27,2.27,0,0,1-1.07.19H102.44a2,2,0,0,1-1-.21.71.71,0,0,1-.36-.66c0-.16.79-.63,2.39-1.43a6.62,6.62,0,0,0,3.34-3.77L125,28Zm-5,7.28-11,29.06h22.08Z"/><path class="cls-1" d="M167.25,28.86a125.19,125.19,0,0,1,15.12.65A41.09,41.09,0,0,1,191,31.59,21.92,21.92,0,0,1,200.37,38a13.82,13.82,0,0,1,3.49,9,11.77,11.77,0,0,1-2.41,7.32A21.89,21.89,0,0,1,194,60.12l-.53.23c-.91.48-1.37.91-1.37,1.29a1.75,1.75,0,0,0,.34.84.52.52,0,0,0,.08.11l8.69,14.53a6.65,6.65,0,0,0,3.54,2.33c1.84.67,2.75,1.21,2.75,1.62a.87.87,0,0,1-.22.68,1.81,1.81,0,0,1-1,.19h-16a2,2,0,0,1-1-.21.78.78,0,0,1-.4-.66q0-.46,1.95-1.26c1.3-.53,2-1.25,2-2.16a3.07,3.07,0,0,0-.21-1.06,6.83,6.83,0,0,0-.59-1.18l-7.36-11.72a2.46,2.46,0,0,0-1-.91,3.34,3.34,0,0,0-1.46-.27l-.8,0c-1.77.08-3.51.11-5.23.11h-3.26a2.79,2.79,0,0,0-1.67.33,1.53,1.53,0,0,0-.38,1.23V76.59a2.77,2.77,0,0,0,.57,1.8,4.46,4.46,0,0,0,1.93,1.23,14.26,14.26,0,0,0,1.52.5c.91.22,1.36.54,1.36.95a.77.77,0,0,1-.39.66,2,2,0,0,1-1,.21H159.17a2,2,0,0,1-1-.21.77.77,0,0,1-.39-.66c0-.41.45-.73,1.36-.95a14.26,14.26,0,0,0,1.52-.5,4.62,4.62,0,0,0,1.91-1.25,2.67,2.67,0,0,0,.59-1.78V34.25a2.93,2.93,0,0,0-.49-1.78A4.37,4.37,0,0,0,161,31.21a9.36,9.36,0,0,0-1.29-.45c-.91-.28-1.37-.62-1.37-1a.74.74,0,0,1,.33-.64,1.52,1.52,0,0,1,.89-.23Zm3.57,4.36v24.7a2.51,2.51,0,0,0,.93,2.32c.62.38,2.3.57,5.06.57h.76q8.24,0,12.94-3.7A12.16,12.16,0,0,0,195.21,47a14.35,14.35,0,0,0-5.73-11.76q-5.73-4.55-15-4.55a6.14,6.14,0,0,0-3,.47A2.42,2.42,0,0,0,170.82,33.22Z"/><path class="cls-1" d="M228,54.28l22.72-20.07a1.69,1.69,0,0,0,.46-.59,1.81,1.81,0,0,0,.15-.78c0-.68-.87-1.3-2.62-1.85-.35-.1-.63-.19-.83-.27a2.36,2.36,0,0,1-.93-.46.78.78,0,0,1-.28-.6.66.66,0,0,1,.34-.59,1.85,1.85,0,0,1,1-.21h11.42a1.81,1.81,0,0,1,1,.23.72.72,0,0,1,.36.64c0,.16-1,.74-3,1.77a29.18,29.18,0,0,0-6.07,4.19l-5,4.51,14.83,36.62a5.39,5.39,0,0,0,3.21,2.84c1.63.66,2.45,1.13,2.45,1.41a.71.71,0,0,1-.36.66,2,2,0,0,1-1,.21H250.54a2,2,0,0,1-1-.21.8.8,0,0,1-.4-.66c0-.33.34-.62,1-.88l.3-.11a7.31,7.31,0,0,0,2.22-1.2,1.79,1.79,0,0,0,.66-1.38,2.73,2.73,0,0,0-.07-.57,6.28,6.28,0,0,0-.23-.76L240.59,45.48,228,56.59v20a2.77,2.77,0,0,0,.57,1.8,4.53,4.53,0,0,0,1.93,1.23,14.26,14.26,0,0,0,1.52.5c.91.22,1.37.54,1.37.95a.8.8,0,0,1-.4.66,2,2,0,0,1-1,.21H216.35a2,2,0,0,1-1-.21.78.78,0,0,1-.4-.66c0-.41.45-.73,1.36-.95a13.53,13.53,0,0,0,1.52-.5,4.6,4.6,0,0,0,1.92-1.25,2.73,2.73,0,0,0,.59-1.78V34.25a2.93,2.93,0,0,0-.5-1.78,4.29,4.29,0,0,0-1.67-1.26,9.36,9.36,0,0,0-1.29-.45c-.91-.28-1.36-.62-1.36-1a.73.73,0,0,1,.32-.64,1.52,1.52,0,0,1,.89-.23H231.6a1.52,1.52,0,0,1,.89.23.74.74,0,0,1,.33.64c0,.41-.46.75-1.37,1a9.36,9.36,0,0,0-1.29.45,4.16,4.16,0,0,0-1.69,1.26,3.07,3.07,0,0,0-.47,1.78Z"/><path class="cls-1" d="M301.5,28.86h1.78q1.59,0,2.88-.09c.86-.07,1.66-.16,2.39-.29L315,37.85a3.25,3.25,0,0,1,.32.59,1.09,1.09,0,0,1,.1.36.59.59,0,0,1-.23.46.89.89,0,0,1-.57.19c-.45,0-1.14-.52-2.07-1.54a29.8,29.8,0,0,0-2.25-2.3,22.59,22.59,0,0,0-6.87-3.77,26.27,26.27,0,0,0-8.31-1.2h-6.3a2,2,0,0,0-1.23.35,1.43,1.43,0,0,0-.32,1.06V48.13a1.18,1.18,0,0,0,.36.91,1.25,1.25,0,0,0,.89.35h7.85a8.21,8.21,0,0,0,2.58-.31,3,3,0,0,0,1.45-1,6.63,6.63,0,0,0,.56-1c.31-.63.66-.95,1.07-.95a1.22,1.22,0,0,1,.68.19,2.2,2.2,0,0,1,.57.57l5,7.32a1.44,1.44,0,0,0,.11.19,1.7,1.7,0,0,1,.19.57.53.53,0,0,1-.21.38.66.66,0,0,1-.47.19,14.77,14.77,0,0,1-1.75-1.06c-1.08-.71-2.21-1.37-3.37-2a10,10,0,0,0-2.66-.89,21.18,21.18,0,0,0-3.87-.28h-7.55a1.65,1.65,0,0,0-1,.28,1.07,1.07,0,0,0-.36.89V78.75a.89.89,0,0,0,.4.76,2.51,2.51,0,0,0,1.15.27h7.86a47.62,47.62,0,0,0,9-.67A22.67,22.67,0,0,0,311.74,77a27.09,27.09,0,0,0,5.14-3.66c1.68-1.51,2.66-2.26,2.94-2.26a1,1,0,0,1,.68.21.63.63,0,0,1,.27.51,1.56,1.56,0,0,1-.13.46,2.16,2.16,0,0,1-.33.53l-6.45,9.18H275.62a2,2,0,0,1-1-.21.76.76,0,0,1-.4-.66c0-.41.45-.73,1.36-.95a13.53,13.53,0,0,0,1.52-.5A4.66,4.66,0,0,0,279,78.37a2.72,2.72,0,0,0,.58-1.78V34.25a2.93,2.93,0,0,0-.49-1.78,4.29,4.29,0,0,0-1.67-1.26,9.36,9.36,0,0,0-1.29-.45c-.91-.28-1.36-.62-1.36-1a.73.73,0,0,1,.32-.64,1.52,1.52,0,0,1,.89-.23Z"/><path class="cls-1" d="M352.53,76.59a2.77,2.77,0,0,0,.57,1.8A4.57,4.57,0,0,0,355,79.62a13.26,13.26,0,0,0,1.51.5c.91.22,1.37.54,1.37.95a.8.8,0,0,1-.4.66,2,2,0,0,1-1,.21h-16a2,2,0,0,1-1-.21.81.81,0,0,1-.38-.66c0-.38.47-.7,1.4-.95a13.27,13.27,0,0,0,1.56-.5,4,4,0,0,0,1.84-1.21,2.9,2.9,0,0,0,.55-1.82V32.69a2.91,2.91,0,0,0-.32-1.67,1.61,1.61,0,0,0-1.24-.38h-3a19.79,19.79,0,0,0-5.9.82A14.64,14.64,0,0,0,329.24,34a20.9,20.9,0,0,0-3.11,3.32c-1.12,1.43-1.86,2.15-2.24,2.15a.84.84,0,0,1-.59-.29.87.87,0,0,1-.21-.59,1.42,1.42,0,0,1,0-.26,1,1,0,0,1,.06-.19l5-10.09c1.77.27,3.47.48,5.1.62s3.22.21,4.76.21h21q2.36,0,4.8-.21c1.63-.14,3.32-.35,5.07-.62l5,10.09c0,.07.06.17.1.28a.93.93,0,0,1,.06.25.76.76,0,0,1-.25.57.9.9,0,0,1-.63.23c-.35,0-1.09-.72-2.22-2.15A21.38,21.38,0,0,0,367.78,34,14.65,14.65,0,0,0,363,31.46a19.48,19.48,0,0,0-5.84-.82h-3.11a1.62,1.62,0,0,0-1.22.38,2.79,2.79,0,0,0-.34,1.67Z"/><path class="cls-1" d="M407.17,28.86H409c1.07,0,2,0,2.89-.09s1.65-.16,2.39-.29l6.45,9.37a3.25,3.25,0,0,1,.32.59,1.43,1.43,0,0,1,.1.36.59.59,0,0,1-.23.46.89.89,0,0,1-.57.19c-.46,0-1.15-.52-2.07-1.54a27.87,27.87,0,0,0-2.26-2.3,22.43,22.43,0,0,0-6.86-3.77,26.36,26.36,0,0,0-8.31-1.2h-6.3a1.91,1.91,0,0,0-1.23.35,1.39,1.39,0,0,0-.33,1.06V48.13a1.18,1.18,0,0,0,.36.91,1.27,1.27,0,0,0,.9.35h7.85a8.29,8.29,0,0,0,2.58-.31,2.93,2.93,0,0,0,1.44-1,5.77,5.77,0,0,0,.57-1c.3-.63.66-.95,1.06-.95a1.26,1.26,0,0,1,.69.19A2,2,0,0,1,409,47l5,7.32a1.44,1.44,0,0,0,.11.19,1.7,1.7,0,0,1,.19.57.53.53,0,0,1-.21.38.67.67,0,0,1-.47.19,14.77,14.77,0,0,1-1.75-1.06c-1.09-.71-2.21-1.37-3.38-2a10,10,0,0,0-2.65-.89,21.33,21.33,0,0,0-3.87-.28h-7.55a1.68,1.68,0,0,0-1.05.28,1.07,1.07,0,0,0-.36.89V78.75a.92.92,0,0,0,.4.76,2.56,2.56,0,0,0,1.16.27h7.85a47.67,47.67,0,0,0,9-.67A22.92,22.92,0,0,0,417.42,77a27.41,27.41,0,0,0,5.14-3.66c1.68-1.51,2.66-2.26,2.94-2.26a1.08,1.08,0,0,1,.68.21.63.63,0,0,1,.27.51,1.38,1.38,0,0,1-.14.46,2.14,2.14,0,0,1-.32.53l-6.45,9.18H381.3a2,2,0,0,1-1-.21.8.8,0,0,1-.4-.66c0-.41.46-.73,1.37-.95a14.26,14.26,0,0,0,1.52-.5,4.62,4.62,0,0,0,1.91-1.25,2.73,2.73,0,0,0,.59-1.78V34.25a2.93,2.93,0,0,0-.49-1.78,4.37,4.37,0,0,0-1.67-1.26,9.36,9.36,0,0,0-1.29-.45c-.91-.28-1.37-.62-1.37-1a.75.75,0,0,1,.32-.64,1.58,1.58,0,0,1,.9-.23Z"/><path class="cls-1" d="M441.51,28.86a125.07,125.07,0,0,1,15.12.65,40.79,40.79,0,0,1,8.67,2.08A21.89,21.89,0,0,1,474.64,38a13.87,13.87,0,0,1,3.49,9,11.83,11.83,0,0,1-2.41,7.32,21.94,21.94,0,0,1-7.46,5.84l-.53.23c-.91.48-1.36.91-1.36,1.29a1.75,1.75,0,0,0,.34.84.52.52,0,0,0,.07.11l8.69,14.53c.53.89,1.71,1.66,3.55,2.33s2.75,1.21,2.75,1.62a.87.87,0,0,1-.23.68,1.74,1.74,0,0,1-1,.19h-16a2,2,0,0,1-1-.21.8.8,0,0,1-.4-.66c0-.31.65-.73,2-1.26S467,78.56,467,77.65a3.07,3.07,0,0,0-.21-1.06,6.18,6.18,0,0,0-.59-1.18l-7.36-11.72a2.5,2.5,0,0,0-1-.91,3.37,3.37,0,0,0-1.46-.27l-.8,0c-1.77.08-3.52.11-5.24.11h-3.26a2.79,2.79,0,0,0-1.67.33,1.57,1.57,0,0,0-.38,1.23V76.59a2.77,2.77,0,0,0,.57,1.8,4.51,4.51,0,0,0,1.94,1.23,13.26,13.26,0,0,0,1.51.5c.91.22,1.37.54,1.37.95a.8.8,0,0,1-.4.66,2,2,0,0,1-1,.21H433.43a2,2,0,0,1-1-.21.78.78,0,0,1-.4-.66c0-.41.46-.73,1.37-.95a14,14,0,0,0,1.51-.5,4.6,4.6,0,0,0,1.92-1.25,2.73,2.73,0,0,0,.59-1.78V34.25a2.93,2.93,0,0,0-.5-1.78,4.25,4.25,0,0,0-1.66-1.26,9.36,9.36,0,0,0-1.29-.45c-.92-.28-1.37-.62-1.37-1a.75.75,0,0,1,.32-.64,1.54,1.54,0,0,1,.89-.23Zm3.57,4.36v24.7a2.51,2.51,0,0,0,.93,2.32q.93.57,5.07.57h.75q8.24,0,12.94-3.7A12.14,12.14,0,0,0,469.48,47a14.35,14.35,0,0,0-5.73-11.76q-5.73-4.55-15-4.55a6.09,6.09,0,0,0-3,.47A2.39,2.39,0,0,0,445.08,33.22Z"/><path class="cls-1" d="M523,29.39l5.5,8.31c.2.36.33.61.4.76a1.06,1.06,0,0,1,.09.34,1.08,1.08,0,0,1-.26.72.9.9,0,0,1-.69.31c-.3,0-.85-.4-1.63-1.18l-.3-.3a35.91,35.91,0,0,0-8.29-6.68,16.09,16.09,0,0,0-7.57-1.86,12.38,12.38,0,0,0-7.53,2.12,6.64,6.64,0,0,0-2.87,5.58q0,4.71,13,9.49l1.86.68c.3.1.74.26,1.33.49q8.91,3.22,12.1,5.88a18.37,18.37,0,0,1,4.8,5.62,13.74,13.74,0,0,1,1.57,6.49,14.91,14.91,0,0,1-5.67,12q-5.67,4.69-14.74,4.69a37.14,37.14,0,0,1-8-1,37.75,37.75,0,0,0-5.81-1,9,9,0,0,0-3.56.76,2,2,0,0,1-.31.11.53.53,0,0,1-.3-.11,4,4,0,0,1-.42-.42L487.2,69.11l-.07-.11a1.81,1.81,0,0,1-.31-.72.83.83,0,0,1,.27-.63.81.81,0,0,1,.57-.24c.58,0,1.56.66,3,2,.83.78,1.5,1.39,2,1.82a49.64,49.64,0,0,0,10.83,7.46A22.43,22.43,0,0,0,513,80.84q6.25,0,10-3.42a11.81,11.81,0,0,0,3.7-9.14,10.58,10.58,0,0,0-3.11-8q-3.12-3-12.26-6.28l-3-1.06q-7.74-2.68-9.79-4.21a13.24,13.24,0,0,1-3.61-4,9.42,9.42,0,0,1-1.13-4.63,10.61,10.61,0,0,1,4.36-8.8Q502.46,28,509.59,28a30.55,30.55,0,0,1,6,.7,29.89,29.89,0,0,0,4.5.7,6.52,6.52,0,0,0,2-.34,1.78,1.78,0,0,1,.34-.08.94.94,0,0,1,.34.14A1,1,0,0,1,523,29.39Z"/><path class="cls-1" d="M53.18,66.41,73.72,12.92a7.32,7.32,0,0,0,.41-1.11c.09-.35.15-.64.19-.9,0-1-.83-2-2.47-2.76s-2.47-1.39-2.47-1.79a1,1,0,0,1,.52-.89,2.35,2.35,0,0,1,1.38-.36H89.17a2.4,2.4,0,0,1,1.38.36,1,1,0,0,1,.51.89c0,.61-.57,1.07-1.7,1.36a9.06,9.06,0,0,0-2.14.7,2.84,2.84,0,0,0-1.17,1.19,4.08,4.08,0,0,0-.35,1.84,3.61,3.61,0,0,0,.08.68,5.13,5.13,0,0,1,.08.79L91.28,73a5.41,5.41,0,0,0,.89,3,7.2,7.2,0,0,0,2.9,1.68c.51.18,1.2.4,2.06.65q2,.6,2,1.41a1.16,1.16,0,0,1-.41.9,1.66,1.66,0,0,1-1.11.35H75.72a2.84,2.84,0,0,1-1.43-.3,1.12,1.12,0,0,1-.57-1c0-.58.88-1.12,2.66-1.62.65-.18,1.19-.35,1.62-.49a3.51,3.51,0,0,0,1.9-1.14,3.89,3.89,0,0,0,.49-2.17V73.19L75.29,16,51.06,79.2a2.86,2.86,0,0,1-.81,1.33,1.72,1.72,0,0,1-1.14.41,1.65,1.65,0,0,1-1.62-1.36c-.08-.18-.13-.32-.17-.43L21.91,16.77l-3.8,56.42v.43a3.64,3.64,0,0,0,.54,2.09A4.1,4.1,0,0,0,20.44,77a23.17,23.17,0,0,0,3,1.13c1.44.44,2.16.94,2.16,1.52a1,1,0,0,1-.51,1,2.86,2.86,0,0,1-1.44.3H9.44A2.89,2.89,0,0,1,8,80.64a1,1,0,0,1-.51-1c0-.58.85-1.1,2.55-1.57.68-.22,1.22-.38,1.62-.49a5.27,5.27,0,0,0,3-1.89,9,9,0,0,0,.92-4.12L19.47,14c0-.79.09-1.62.16-2.49l.05-.27a2.89,2.89,0,0,0-.43-1.79A6,6,0,0,0,17,8.2L16.43,8q-2.28-.81-2.28-1.68a1.06,1.06,0,0,1,.47-.92,2.13,2.13,0,0,1,1.27-.33H35.45a2.16,2.16,0,0,1,1.28.33,1.08,1.08,0,0,1,.46.92c0,.54-1,1.19-3,2s-3,1.74-3,2.93a3.93,3.93,0,0,0,.13,1,13.42,13.42,0,0,0,.63,1.65Z"/><path class="cls-1" d="M130.19,27l17.57,46a16.84,16.84,0,0,0,1.61,3.32,6.67,6.67,0,0,0,1.88,2,5.71,5.71,0,0,0,1.63.8c.73.25,1.1.55,1.1.91a.8.8,0,0,1-.4.66,2,2,0,0,1-1,.21H138.73a2,2,0,0,1-1-.21.8.8,0,0,1-.4-.66c0-.38.41-.7,1.22-.95.32-.1.59-.19.79-.27a4,4,0,0,0,1.48-.8,1.32,1.32,0,0,0,.42-1,2.92,2.92,0,0,0-.11-.61.5.5,0,0,1,0-.19l-4.14-11H113.31l-3.15,8.5a2.32,2.32,0,0,0-.27.83,8,8,0,0,0-.07,1.18,2.49,2.49,0,0,0,.64,1.78,5.23,5.23,0,0,0,2.13,1.18l.79.22c1.17.31,1.75.7,1.75,1.18a.63.63,0,0,1-.34.57,2.27,2.27,0,0,1-1.07.19H103.44a2,2,0,0,1-1-.21.71.71,0,0,1-.36-.66c0-.16.79-.63,2.39-1.43a6.62,6.62,0,0,0,3.34-3.77L126,27Zm-5,7.28-11,29.06h22.08Z"/><path class="cls-1" d="M168.25,27.86a125.19,125.19,0,0,1,15.12.65A41.09,41.09,0,0,1,192,30.59,21.92,21.92,0,0,1,201.37,37a13.82,13.82,0,0,1,3.49,9,11.77,11.77,0,0,1-2.41,7.32A21.89,21.89,0,0,1,195,59.12l-.53.23c-.91.48-1.37.91-1.37,1.29a1.75,1.75,0,0,0,.34.84.52.52,0,0,0,.08.11l8.69,14.53a6.65,6.65,0,0,0,3.54,2.33c1.84.67,2.75,1.21,2.75,1.62a.87.87,0,0,1-.22.68,1.81,1.81,0,0,1-1,.19h-16a2,2,0,0,1-1-.21.78.78,0,0,1-.4-.66q0-.46,1.95-1.26c1.3-.53,2-1.25,2-2.16a3.07,3.07,0,0,0-.21-1.06,6.83,6.83,0,0,0-.59-1.18l-7.36-11.72a2.46,2.46,0,0,0-1-.91,3.34,3.34,0,0,0-1.46-.27l-.8,0c-1.77.08-3.51.11-5.23.11h-3.26a2.79,2.79,0,0,0-1.67.33,1.53,1.53,0,0,0-.38,1.23V75.59a2.77,2.77,0,0,0,.57,1.8,4.46,4.46,0,0,0,1.93,1.23,14.26,14.26,0,0,0,1.52.5c.91.22,1.36.54,1.36.95a.77.77,0,0,1-.39.66,2,2,0,0,1-1,.21H160.17a2,2,0,0,1-1-.21.77.77,0,0,1-.39-.66c0-.41.45-.73,1.36-.95a14.26,14.26,0,0,0,1.52-.5,4.62,4.62,0,0,0,1.91-1.25,2.67,2.67,0,0,0,.59-1.78V33.25a2.93,2.93,0,0,0-.49-1.78A4.37,4.37,0,0,0,162,30.21a9.36,9.36,0,0,0-1.29-.45c-.91-.28-1.37-.62-1.37-1a.74.74,0,0,1,.33-.64,1.52,1.52,0,0,1,.89-.23Zm3.57,4.36v24.7a2.51,2.51,0,0,0,.93,2.32c.62.38,2.3.57,5.06.57h.76q8.24,0,12.94-3.7A12.16,12.16,0,0,0,196.21,46a14.35,14.35,0,0,0-5.73-11.76q-5.73-4.55-15-4.55a6.14,6.14,0,0,0-3,.47A2.42,2.42,0,0,0,171.82,32.22Z"/><path class="cls-1" d="M229,53.28l22.72-20.07a1.69,1.69,0,0,0,.46-.59,1.81,1.81,0,0,0,.15-.78c0-.68-.87-1.3-2.62-1.85-.35-.11-.63-.19-.83-.27a2.36,2.36,0,0,1-.93-.46.78.78,0,0,1-.28-.6.66.66,0,0,1,.34-.59,1.85,1.85,0,0,1,1-.21h11.42a1.81,1.81,0,0,1,1,.23.72.72,0,0,1,.36.64c0,.16-1,.74-3,1.77a29.18,29.18,0,0,0-6.07,4.19l-5,4.51,14.83,36.62a5.39,5.39,0,0,0,3.21,2.84c1.63.66,2.45,1.13,2.45,1.41a.71.71,0,0,1-.36.66,2,2,0,0,1-1,.21H251.54a2,2,0,0,1-1-.21.8.8,0,0,1-.4-.66c0-.33.34-.62,1-.88l.3-.11a7.31,7.31,0,0,0,2.22-1.2,1.79,1.79,0,0,0,.66-1.38,2.73,2.73,0,0,0-.07-.57,6.28,6.28,0,0,0-.23-.76L241.59,44.48,229,55.59v20a2.77,2.77,0,0,0,.57,1.8,4.53,4.53,0,0,0,1.93,1.23,14.26,14.26,0,0,0,1.52.5c.91.22,1.37.54,1.37.95a.8.8,0,0,1-.4.66,2,2,0,0,1-1,.21H217.35a2,2,0,0,1-1-.21.78.78,0,0,1-.4-.66c0-.41.45-.73,1.36-.95a13.53,13.53,0,0,0,1.52-.5,4.6,4.6,0,0,0,1.92-1.25,2.73,2.73,0,0,0,.59-1.78V33.25a2.93,2.93,0,0,0-.5-1.78,4.29,4.29,0,0,0-1.67-1.26,9.36,9.36,0,0,0-1.29-.45c-.91-.28-1.36-.62-1.36-1a.73.73,0,0,1,.32-.64,1.52,1.52,0,0,1,.89-.23H232.6a1.52,1.52,0,0,1,.89.23.74.74,0,0,1,.33.64c0,.41-.46.75-1.37,1a9.36,9.36,0,0,0-1.29.45,4.16,4.16,0,0,0-1.69,1.26,3.07,3.07,0,0,0-.47,1.78Z"/><path class="cls-1" d="M302.5,27.86h1.78q1.59,0,2.88-.09c.86-.07,1.66-.16,2.39-.29L316,36.85a3.25,3.25,0,0,1,.32.59,1.09,1.09,0,0,1,.1.36.59.59,0,0,1-.23.46.89.89,0,0,1-.57.19c-.45,0-1.14-.52-2.07-1.54a28.06,28.06,0,0,0-2.25-2.3,22.59,22.59,0,0,0-6.87-3.77,26.27,26.27,0,0,0-8.31-1.2h-6.3a2,2,0,0,0-1.23.35,1.43,1.43,0,0,0-.32,1.06V47.13a1.18,1.18,0,0,0,.36.91,1.25,1.25,0,0,0,.89.35h7.85a8.21,8.21,0,0,0,2.58-.31,3,3,0,0,0,1.45-1,6.63,6.63,0,0,0,.56-1c.31-.63.66-.95,1.07-.95a1.22,1.22,0,0,1,.68.19,2.2,2.2,0,0,1,.57.57l5,7.32a1.44,1.44,0,0,0,.11.19,1.7,1.7,0,0,1,.19.57.53.53,0,0,1-.21.38.66.66,0,0,1-.47.19,14.77,14.77,0,0,1-1.75-1.06c-1.08-.71-2.21-1.37-3.37-2a10,10,0,0,0-2.66-.89,21.18,21.18,0,0,0-3.87-.28h-7.55a1.65,1.65,0,0,0-1,.28,1.07,1.07,0,0,0-.36.89V77.75a.89.89,0,0,0,.4.76,2.51,2.51,0,0,0,1.15.27h7.86a47.62,47.62,0,0,0,9-.67A22.67,22.67,0,0,0,312.74,76a27.09,27.09,0,0,0,5.14-3.66c1.68-1.51,2.66-2.26,2.94-2.26a1,1,0,0,1,.68.21.63.63,0,0,1,.27.51,1.56,1.56,0,0,1-.13.46,2.16,2.16,0,0,1-.33.53l-6.45,9.18H276.62a2,2,0,0,1-1-.21.76.76,0,0,1-.4-.66c0-.41.45-.73,1.36-.95a13.53,13.53,0,0,0,1.52-.5A4.66,4.66,0,0,0,280,77.37a2.72,2.72,0,0,0,.58-1.78V33.25a2.93,2.93,0,0,0-.49-1.78,4.29,4.29,0,0,0-1.67-1.26,9.36,9.36,0,0,0-1.29-.45c-.91-.28-1.36-.62-1.36-1a.73.73,0,0,1,.32-.64,1.52,1.52,0,0,1,.89-.23Z"/><path class="cls-1" d="M353.53,75.59a2.77,2.77,0,0,0,.57,1.8A4.57,4.57,0,0,0,356,78.62a13.26,13.26,0,0,0,1.51.5c.91.22,1.37.54,1.37.95a.8.8,0,0,1-.4.66,2,2,0,0,1-1,.21h-16a2,2,0,0,1-1-.21.81.81,0,0,1-.38-.66c0-.38.47-.7,1.4-.95a13.27,13.27,0,0,0,1.56-.5,4,4,0,0,0,1.84-1.21,2.9,2.9,0,0,0,.55-1.82V31.69a2.91,2.91,0,0,0-.32-1.67,1.61,1.61,0,0,0-1.24-.38h-3a19.79,19.79,0,0,0-5.9.82A14.64,14.64,0,0,0,330.24,33a20.9,20.9,0,0,0-3.11,3.32c-1.12,1.43-1.86,2.15-2.24,2.15a.84.84,0,0,1-.59-.29.87.87,0,0,1-.21-.59,1.42,1.42,0,0,1,0-.26,1,1,0,0,1,.06-.19l5-10.09c1.77.27,3.47.48,5.1.62s3.22.21,4.76.21h21q2.36,0,4.8-.21c1.63-.14,3.32-.35,5.07-.62l5,10.09c0,.07.06.17.1.28a.93.93,0,0,1,.06.25.76.76,0,0,1-.25.57.9.9,0,0,1-.63.23c-.35,0-1.09-.72-2.22-2.15A21.38,21.38,0,0,0,368.78,33,14.65,14.65,0,0,0,364,30.46a19.48,19.48,0,0,0-5.84-.82h-3.11a1.62,1.62,0,0,0-1.22.38,2.79,2.79,0,0,0-.34,1.67Z"/><path class="cls-1" d="M408.17,27.86H410c1.07,0,2,0,2.89-.09s1.65-.16,2.39-.29l6.45,9.37a3.25,3.25,0,0,1,.32.59,1.43,1.43,0,0,1,.1.36.59.59,0,0,1-.23.46.89.89,0,0,1-.57.19c-.46,0-1.15-.52-2.07-1.54a26.35,26.35,0,0,0-2.26-2.3,22.43,22.43,0,0,0-6.86-3.77,26.36,26.36,0,0,0-8.31-1.2h-6.3a1.91,1.91,0,0,0-1.23.35,1.39,1.39,0,0,0-.33,1.06V47.13a1.18,1.18,0,0,0,.36.91,1.27,1.27,0,0,0,.9.35h7.85a8.29,8.29,0,0,0,2.58-.31,2.93,2.93,0,0,0,1.44-1,5.77,5.77,0,0,0,.57-1c.3-.63.66-.95,1.06-.95a1.26,1.26,0,0,1,.69.19A2,2,0,0,1,410,46l5,7.32a1.44,1.44,0,0,0,.11.19,1.7,1.7,0,0,1,.19.57.53.53,0,0,1-.21.38.67.67,0,0,1-.47.19,14.77,14.77,0,0,1-1.75-1.06c-1.09-.71-2.21-1.37-3.38-2a10,10,0,0,0-2.65-.89,21.33,21.33,0,0,0-3.87-.28h-7.55a1.68,1.68,0,0,0-1.05.28,1.07,1.07,0,0,0-.36.89V77.75a.92.92,0,0,0,.4.76,2.56,2.56,0,0,0,1.16.27h7.85a47.67,47.67,0,0,0,9-.67A22.92,22.92,0,0,0,418.42,76a27.41,27.41,0,0,0,5.14-3.66c1.68-1.51,2.66-2.26,2.94-2.26a1.08,1.08,0,0,1,.68.21.63.63,0,0,1,.27.51,1.38,1.38,0,0,1-.14.46,2.14,2.14,0,0,1-.32.53l-6.45,9.18H382.3a2,2,0,0,1-1-.21.8.8,0,0,1-.4-.66c0-.41.46-.73,1.37-.95a14.26,14.26,0,0,0,1.52-.5,4.62,4.62,0,0,0,1.91-1.25,2.73,2.73,0,0,0,.59-1.78V33.25a2.93,2.93,0,0,0-.49-1.78,4.37,4.37,0,0,0-1.67-1.26,9.36,9.36,0,0,0-1.29-.45c-.91-.28-1.37-.62-1.37-1a.75.75,0,0,1,.32-.64,1.58,1.58,0,0,1,.9-.23Z"/><path class="cls-1" d="M442.51,27.86a125.07,125.07,0,0,1,15.12.65,40.79,40.79,0,0,1,8.67,2.08A21.89,21.89,0,0,1,475.64,37a13.87,13.87,0,0,1,3.49,9,11.83,11.83,0,0,1-2.41,7.32,21.94,21.94,0,0,1-7.46,5.84l-.53.23c-.91.48-1.36.91-1.36,1.29a1.75,1.75,0,0,0,.34.84.52.52,0,0,0,.07.11l8.69,14.53c.53.89,1.71,1.66,3.55,2.33s2.75,1.21,2.75,1.62a.87.87,0,0,1-.23.68,1.74,1.74,0,0,1-1,.19h-16a2,2,0,0,1-1-.21.8.8,0,0,1-.4-.66c0-.31.65-.73,2-1.26S468,77.56,468,76.65a3.07,3.07,0,0,0-.21-1.06,6.18,6.18,0,0,0-.59-1.18l-7.36-11.72a2.5,2.5,0,0,0-1-.91,3.37,3.37,0,0,0-1.46-.27l-.8,0c-1.77.08-3.52.11-5.24.11h-3.26a2.79,2.79,0,0,0-1.67.33,1.57,1.57,0,0,0-.38,1.23V75.59a2.77,2.77,0,0,0,.57,1.8,4.51,4.51,0,0,0,1.94,1.23,13.26,13.26,0,0,0,1.51.5c.91.22,1.37.54,1.37.95a.8.8,0,0,1-.4.66,2,2,0,0,1-1,.21H434.43a2,2,0,0,1-1-.21.78.78,0,0,1-.4-.66c0-.41.46-.73,1.37-.95a14,14,0,0,0,1.51-.5,4.6,4.6,0,0,0,1.92-1.25,2.73,2.73,0,0,0,.59-1.78V33.25a2.93,2.93,0,0,0-.5-1.78,4.25,4.25,0,0,0-1.66-1.26,9.36,9.36,0,0,0-1.29-.45c-.92-.28-1.37-.62-1.37-1a.75.75,0,0,1,.32-.64,1.54,1.54,0,0,1,.89-.23Zm3.57,4.36v24.7a2.51,2.51,0,0,0,.93,2.32q.93.57,5.07.57h.75q8.24,0,12.94-3.7A12.14,12.14,0,0,0,470.48,46a14.35,14.35,0,0,0-5.73-11.76q-5.73-4.55-15-4.55a6.09,6.09,0,0,0-3,.47A2.39,2.39,0,0,0,446.08,32.22Z"/><path class="cls-1" d="M524,28.39l5.5,8.31c.2.36.33.61.4.76a1.06,1.06,0,0,1,.09.34,1.08,1.08,0,0,1-.26.72.9.9,0,0,1-.69.31c-.3,0-.85-.4-1.63-1.18l-.3-.3a35.91,35.91,0,0,0-8.29-6.68,16.09,16.09,0,0,0-7.57-1.86,12.38,12.38,0,0,0-7.53,2.12,6.64,6.64,0,0,0-2.87,5.58q0,4.71,13,9.49l1.86.68c.3.1.74.26,1.33.49q8.91,3.22,12.1,5.88a18.37,18.37,0,0,1,4.8,5.62,13.74,13.74,0,0,1,1.57,6.49,14.91,14.91,0,0,1-5.67,12q-5.67,4.69-14.74,4.69a37.14,37.14,0,0,1-8-1,37.75,37.75,0,0,0-5.81-1,9,9,0,0,0-3.56.76,2,2,0,0,1-.31.11.53.53,0,0,1-.3-.11,4,4,0,0,1-.42-.42L488.2,68.11l-.07-.11a1.81,1.81,0,0,1-.31-.72.83.83,0,0,1,.27-.63.81.81,0,0,1,.57-.24c.58,0,1.56.66,3,2,.83.78,1.5,1.39,2,1.82a49.64,49.64,0,0,0,10.83,7.46A22.43,22.43,0,0,0,514,79.84q6.25,0,10-3.42a11.81,11.81,0,0,0,3.7-9.14,10.58,10.58,0,0,0-3.11-8q-3.12-3-12.26-6.28l-3-1.06q-7.74-2.68-9.79-4.21a13.06,13.06,0,0,1-3.6-4,9.32,9.32,0,0,1-1.14-4.63,10.61,10.61,0,0,1,4.36-8.8Q503.46,27,510.59,27a30.55,30.55,0,0,1,6,.7,29.89,29.89,0,0,0,4.5.7,6.52,6.52,0,0,0,2-.34,1.78,1.78,0,0,1,.34-.08.94.94,0,0,1,.34.14A1,1,0,0,1,524,28.39Z"/><path class="cls-1" d="M53.18,66.41,73.72,12.92a7.32,7.32,0,0,0,.41-1.11c.09-.35.15-.64.19-.9,0-1-.83-2-2.47-2.76s-2.47-1.39-2.47-1.79a1,1,0,0,1,.52-.89,2.35,2.35,0,0,1,1.38-.36H89.17a2.4,2.4,0,0,1,1.38.36,1,1,0,0,1,.51.89c0,.61-.57,1.07-1.7,1.36a9.06,9.06,0,0,0-2.14.7,2.84,2.84,0,0,0-1.17,1.19,4.08,4.08,0,0,0-.35,1.84,3.61,3.61,0,0,0,.08.68,5.13,5.13,0,0,1,.08.79L91.28,73a5.41,5.41,0,0,0,.89,3,7.2,7.2,0,0,0,2.9,1.68c.51.18,1.2.4,2.06.65q2,.6,2,1.41a1.16,1.16,0,0,1-.41.9,1.66,1.66,0,0,1-1.11.35H75.72a2.84,2.84,0,0,1-1.43-.3,1.12,1.12,0,0,1-.57-1c0-.58.88-1.12,2.66-1.62.65-.18,1.19-.35,1.62-.49a3.51,3.51,0,0,0,1.9-1.14,3.89,3.89,0,0,0,.49-2.17V73.19L75.29,16,51.06,79.2a2.86,2.86,0,0,1-.81,1.33,1.72,1.72,0,0,1-1.14.41,1.65,1.65,0,0,1-1.62-1.36c-.08-.18-.13-.32-.17-.43L21.91,16.77l-3.8,56.42v.43a3.64,3.64,0,0,0,.54,2.09A4.1,4.1,0,0,0,20.44,77a23.17,23.17,0,0,0,3,1.13c1.44.44,2.16.94,2.16,1.52a1,1,0,0,1-.51,1,2.86,2.86,0,0,1-1.44.3H9.44A2.89,2.89,0,0,1,8,80.64a1,1,0,0,1-.51-1c0-.58.85-1.1,2.55-1.57.68-.22,1.22-.38,1.62-.49a5.27,5.27,0,0,0,3-1.89,9,9,0,0,0,.92-4.12L19.47,14c0-.79.09-1.62.16-2.49l.05-.27a2.89,2.89,0,0,0-.43-1.79A6,6,0,0,0,17,8.2L16.43,8q-2.28-.81-2.28-1.68a1.06,1.06,0,0,1,.47-.92,2.13,2.13,0,0,1,1.27-.33H35.45a2.16,2.16,0,0,1,1.28.33,1.08,1.08,0,0,1,.46.92c0,.54-1,1.19-3,2s-3,1.74-3,2.93a3.93,3.93,0,0,0,.13,1,13.42,13.42,0,0,0,.63,1.65Z"/><path class="cls-1" d="M130.19,27l17.57,46a16.84,16.84,0,0,0,1.61,3.32,6.67,6.67,0,0,0,1.88,2,5.71,5.71,0,0,0,1.63.8c.73.25,1.1.55,1.1.91a.8.8,0,0,1-.4.66,2,2,0,0,1-1,.21H138.73a2,2,0,0,1-1-.21.8.8,0,0,1-.4-.66c0-.38.41-.7,1.22-.95.32-.1.59-.19.79-.27a4,4,0,0,0,1.48-.8,1.32,1.32,0,0,0,.42-1,2.92,2.92,0,0,0-.11-.61.5.5,0,0,1,0-.19l-4.14-11H113.31l-3.15,8.5a2.32,2.32,0,0,0-.27.83,8,8,0,0,0-.07,1.18,2.49,2.49,0,0,0,.64,1.78,5.23,5.23,0,0,0,2.13,1.18l.79.22c1.17.31,1.75.7,1.75,1.18a.63.63,0,0,1-.34.57,2.27,2.27,0,0,1-1.07.19H103.44a2,2,0,0,1-1-.21.71.71,0,0,1-.36-.66c0-.16.79-.63,2.39-1.43a6.62,6.62,0,0,0,3.34-3.77L126,27Zm-5,7.28-11,29.06h22.08Z"/><path class="cls-1" d="M168.25,27.86a125.19,125.19,0,0,1,15.12.65A41.09,41.09,0,0,1,192,30.59,21.92,21.92,0,0,1,201.37,37a13.82,13.82,0,0,1,3.49,9,11.77,11.77,0,0,1-2.41,7.32A21.89,21.89,0,0,1,195,59.12l-.53.23c-.91.48-1.37.91-1.37,1.29a1.75,1.75,0,0,0,.34.84.52.52,0,0,0,.08.11l8.69,14.53a6.65,6.65,0,0,0,3.54,2.33c1.84.67,2.75,1.21,2.75,1.62a.87.87,0,0,1-.22.68,1.81,1.81,0,0,1-1,.19h-16a2,2,0,0,1-1-.21.78.78,0,0,1-.4-.66q0-.46,1.95-1.26c1.3-.53,2-1.25,2-2.16a3.07,3.07,0,0,0-.21-1.06,6.83,6.83,0,0,0-.59-1.18l-7.36-11.72a2.46,2.46,0,0,0-1-.91,3.34,3.34,0,0,0-1.46-.27l-.8,0c-1.77.08-3.51.11-5.23.11h-3.26a2.79,2.79,0,0,0-1.67.33,1.53,1.53,0,0,0-.38,1.23V75.59a2.77,2.77,0,0,0,.57,1.8,4.46,4.46,0,0,0,1.93,1.23,14.26,14.26,0,0,0,1.52.5c.91.22,1.36.54,1.36.95a.77.77,0,0,1-.39.66,2,2,0,0,1-1,.21H160.17a2,2,0,0,1-1-.21.77.77,0,0,1-.39-.66c0-.41.45-.73,1.36-.95a14.26,14.26,0,0,0,1.52-.5,4.62,4.62,0,0,0,1.91-1.25,2.67,2.67,0,0,0,.59-1.78V33.25a2.93,2.93,0,0,0-.49-1.78A4.37,4.37,0,0,0,162,30.21a9.36,9.36,0,0,0-1.29-.45c-.91-.28-1.37-.62-1.37-1a.74.74,0,0,1,.33-.64,1.52,1.52,0,0,1,.89-.23Zm3.57,4.36v24.7a2.51,2.51,0,0,0,.93,2.32c.62.38,2.3.57,5.06.57h.76q8.24,0,12.94-3.7A12.16,12.16,0,0,0,196.21,46a14.35,14.35,0,0,0-5.73-11.76q-5.73-4.55-15-4.55a6.14,6.14,0,0,0-3,.47A2.42,2.42,0,0,0,171.82,32.22Z"/><path class="cls-1" d="M229,53.28l22.72-20.07a1.69,1.69,0,0,0,.46-.59,1.81,1.81,0,0,0,.15-.78c0-.68-.87-1.3-2.62-1.85-.35-.11-.63-.19-.83-.27a2.36,2.36,0,0,1-.93-.46.78.78,0,0,1-.28-.6.66.66,0,0,1,.34-.59,1.85,1.85,0,0,1,1-.21h11.42a1.81,1.81,0,0,1,1,.23.72.72,0,0,1,.36.64c0,.16-1,.74-3,1.77a29.18,29.18,0,0,0-6.07,4.19l-5,4.51,14.83,36.62a5.39,5.39,0,0,0,3.21,2.84c1.63.66,2.45,1.13,2.45,1.41a.71.71,0,0,1-.36.66,2,2,0,0,1-1,.21H251.54a2,2,0,0,1-1-.21.8.8,0,0,1-.4-.66c0-.33.34-.62,1-.88l.3-.11a7.31,7.31,0,0,0,2.22-1.2,1.79,1.79,0,0,0,.66-1.38,2.73,2.73,0,0,0-.07-.57,6.28,6.28,0,0,0-.23-.76L241.59,44.48,229,55.59v20a2.77,2.77,0,0,0,.57,1.8,4.53,4.53,0,0,0,1.93,1.23,14.26,14.26,0,0,0,1.52.5c.91.22,1.37.54,1.37.95a.8.8,0,0,1-.4.66,2,2,0,0,1-1,.21H217.35a2,2,0,0,1-1-.21.78.78,0,0,1-.4-.66c0-.41.45-.73,1.36-.95a13.53,13.53,0,0,0,1.52-.5,4.6,4.6,0,0,0,1.92-1.25,2.73,2.73,0,0,0,.59-1.78V33.25a2.93,2.93,0,0,0-.5-1.78,4.29,4.29,0,0,0-1.67-1.26,9.36,9.36,0,0,0-1.29-.45c-.91-.28-1.36-.62-1.36-1a.73.73,0,0,1,.32-.64,1.52,1.52,0,0,1,.89-.23H232.6a1.52,1.52,0,0,1,.89.23.74.74,0,0,1,.33.64c0,.41-.46.75-1.37,1a9.36,9.36,0,0,0-1.29.45,4.16,4.16,0,0,0-1.69,1.26,3.07,3.07,0,0,0-.47,1.78Z"/><path class="cls-1" d="M302.5,27.86h1.78q1.59,0,2.88-.09c.86-.07,1.66-.16,2.39-.29L316,36.85a3.25,3.25,0,0,1,.32.59,1.09,1.09,0,0,1,.1.36.59.59,0,0,1-.23.46.89.89,0,0,1-.57.19c-.45,0-1.14-.52-2.07-1.54a28.06,28.06,0,0,0-2.25-2.3,22.59,22.59,0,0,0-6.87-3.77,26.27,26.27,0,0,0-8.31-1.2h-6.3a2,2,0,0,0-1.23.35,1.43,1.43,0,0,0-.32,1.06V47.13a1.18,1.18,0,0,0,.36.91,1.25,1.25,0,0,0,.89.35h7.85a8.21,8.21,0,0,0,2.58-.31,3,3,0,0,0,1.45-1,6.63,6.63,0,0,0,.56-1c.31-.63.66-.95,1.07-.95a1.22,1.22,0,0,1,.68.19,2.2,2.2,0,0,1,.57.57l5,7.32a1.44,1.44,0,0,0,.11.19,1.7,1.7,0,0,1,.19.57.53.53,0,0,1-.21.38.66.66,0,0,1-.47.19,14.77,14.77,0,0,1-1.75-1.06c-1.08-.71-2.21-1.37-3.37-2a10,10,0,0,0-2.66-.89,21.18,21.18,0,0,0-3.87-.28h-7.55a1.65,1.65,0,0,0-1,.28,1.07,1.07,0,0,0-.36.89V77.75a.89.89,0,0,0,.4.76,2.51,2.51,0,0,0,1.15.27h7.86a47.62,47.62,0,0,0,9-.67A22.67,22.67,0,0,0,312.74,76a27.09,27.09,0,0,0,5.14-3.66c1.68-1.51,2.66-2.26,2.94-2.26a1,1,0,0,1,.68.21.63.63,0,0,1,.27.51,1.56,1.56,0,0,1-.13.46,2.16,2.16,0,0,1-.33.53l-6.45,9.18H276.62a2,2,0,0,1-1-.21.76.76,0,0,1-.4-.66c0-.41.45-.73,1.36-.95a13.53,13.53,0,0,0,1.52-.5A4.66,4.66,0,0,0,280,77.37a2.72,2.72,0,0,0,.58-1.78V33.25a2.93,2.93,0,0,0-.49-1.78,4.29,4.29,0,0,0-1.67-1.26,9.36,9.36,0,0,0-1.29-.45c-.91-.28-1.36-.62-1.36-1a.73.73,0,0,1,.32-.64,1.52,1.52,0,0,1,.89-.23Z"/><path class="cls-1" d="M353.53,75.59a2.77,2.77,0,0,0,.57,1.8A4.57,4.57,0,0,0,356,78.62a13.26,13.26,0,0,0,1.51.5c.91.22,1.37.54,1.37.95a.8.8,0,0,1-.4.66,2,2,0,0,1-1,.21h-16a2,2,0,0,1-1-.21.81.81,0,0,1-.38-.66c0-.38.47-.7,1.4-.95a13.27,13.27,0,0,0,1.56-.5,4,4,0,0,0,1.84-1.21,2.9,2.9,0,0,0,.55-1.82V31.69a2.91,2.91,0,0,0-.32-1.67,1.61,1.61,0,0,0-1.24-.38h-3a19.79,19.79,0,0,0-5.9.82A14.64,14.64,0,0,0,330.24,33a20.9,20.9,0,0,0-3.11,3.32c-1.12,1.43-1.86,2.15-2.24,2.15a.84.84,0,0,1-.59-.29.87.87,0,0,1-.21-.59,1.42,1.42,0,0,1,0-.26,1,1,0,0,1,.06-.19l5-10.09c1.77.27,3.47.48,5.1.62s3.22.21,4.76.21h21q2.36,0,4.8-.21c1.63-.14,3.32-.35,5.07-.62l5,10.09c0,.07.06.17.1.28a.93.93,0,0,1,.06.25.76.76,0,0,1-.25.57.9.9,0,0,1-.63.23c-.35,0-1.09-.72-2.22-2.15A21.38,21.38,0,0,0,368.78,33,14.65,14.65,0,0,0,364,30.46a19.48,19.48,0,0,0-5.84-.82h-3.11a1.62,1.62,0,0,0-1.22.38,2.79,2.79,0,0,0-.34,1.67Z"/><path class="cls-1" d="M408.17,27.86H410c1.07,0,2,0,2.89-.09s1.65-.16,2.39-.29l6.45,9.37a3.25,3.25,0,0,1,.32.59,1.43,1.43,0,0,1,.1.36.59.59,0,0,1-.23.46.89.89,0,0,1-.57.19c-.46,0-1.15-.52-2.07-1.54a26.35,26.35,0,0,0-2.26-2.3,22.43,22.43,0,0,0-6.86-3.77,26.36,26.36,0,0,0-8.31-1.2h-6.3a1.91,1.91,0,0,0-1.23.35,1.39,1.39,0,0,0-.33,1.06V47.13a1.18,1.18,0,0,0,.36.91,1.27,1.27,0,0,0,.9.35h7.85a8.29,8.29,0,0,0,2.58-.31,2.93,2.93,0,0,0,1.44-1,5.77,5.77,0,0,0,.57-1c.3-.63.66-.95,1.06-.95a1.26,1.26,0,0,1,.69.19A2,2,0,0,1,410,46l5,7.32a1.44,1.44,0,0,0,.11.19,1.7,1.7,0,0,1,.19.57.53.53,0,0,1-.21.38.67.67,0,0,1-.47.19,14.77,14.77,0,0,1-1.75-1.06c-1.09-.71-2.21-1.37-3.38-2a10,10,0,0,0-2.65-.89,21.33,21.33,0,0,0-3.87-.28h-7.55a1.68,1.68,0,0,0-1.05.28,1.07,1.07,0,0,0-.36.89V77.75a.92.92,0,0,0,.4.76,2.56,2.56,0,0,0,1.16.27h7.85a47.67,47.67,0,0,0,9-.67A22.92,22.92,0,0,0,418.42,76a27.41,27.41,0,0,0,5.14-3.66c1.68-1.51,2.66-2.26,2.94-2.26a1.08,1.08,0,0,1,.68.21.63.63,0,0,1,.27.51,1.38,1.38,0,0,1-.14.46,2.14,2.14,0,0,1-.32.53l-6.45,9.18H382.3a2,2,0,0,1-1-.21.8.8,0,0,1-.4-.66c0-.41.46-.73,1.37-.95a14.26,14.26,0,0,0,1.52-.5,4.62,4.62,0,0,0,1.91-1.25,2.73,2.73,0,0,0,.59-1.78V33.25a2.93,2.93,0,0,0-.49-1.78,4.37,4.37,0,0,0-1.67-1.26,9.36,9.36,0,0,0-1.29-.45c-.91-.28-1.37-.62-1.37-1a.75.75,0,0,1,.32-.64,1.58,1.58,0,0,1,.9-.23Z"/><path class="cls-1" d="M442.51,27.86a125.07,125.07,0,0,1,15.12.65,40.79,40.79,0,0,1,8.67,2.08A21.89,21.89,0,0,1,475.64,37a13.87,13.87,0,0,1,3.49,9,11.83,11.83,0,0,1-2.41,7.32,21.94,21.94,0,0,1-7.46,5.84l-.53.23c-.91.48-1.36.91-1.36,1.29a1.75,1.75,0,0,0,.34.84.52.52,0,0,0,.07.11l8.69,14.53c.53.89,1.71,1.66,3.55,2.33s2.75,1.21,2.75,1.62a.87.87,0,0,1-.23.68,1.74,1.74,0,0,1-1,.19h-16a2,2,0,0,1-1-.21.8.8,0,0,1-.4-.66c0-.31.65-.73,2-1.26S468,77.56,468,76.65a3.07,3.07,0,0,0-.21-1.06,6.18,6.18,0,0,0-.59-1.18l-7.36-11.72a2.5,2.5,0,0,0-1-.91,3.37,3.37,0,0,0-1.46-.27l-.8,0c-1.77.08-3.52.11-5.24.11h-3.26a2.79,2.79,0,0,0-1.67.33,1.57,1.57,0,0,0-.38,1.23V75.59a2.77,2.77,0,0,0,.57,1.8,4.51,4.51,0,0,0,1.94,1.23,13.26,13.26,0,0,0,1.51.5c.91.22,1.37.54,1.37.95a.8.8,0,0,1-.4.66,2,2,0,0,1-1,.21H434.43a2,2,0,0,1-1-.21.78.78,0,0,1-.4-.66c0-.41.46-.73,1.37-.95a14,14,0,0,0,1.51-.5,4.6,4.6,0,0,0,1.92-1.25,2.73,2.73,0,0,0,.59-1.78V33.25a2.93,2.93,0,0,0-.5-1.78,4.25,4.25,0,0,0-1.66-1.26,9.36,9.36,0,0,0-1.29-.45c-.92-.28-1.37-.62-1.37-1a.75.75,0,0,1,.32-.64,1.54,1.54,0,0,1,.89-.23Zm3.57,4.36v24.7a2.51,2.51,0,0,0,.93,2.32q.93.57,5.07.57h.75q8.24,0,12.94-3.7A12.14,12.14,0,0,0,470.48,46a14.35,14.35,0,0,0-5.73-11.76q-5.73-4.55-15-4.55a6.09,6.09,0,0,0-3,.47A2.39,2.39,0,0,0,446.08,32.22Z"/><path class="cls-1" d="M524,28.39l5.5,8.31c.2.36.33.61.4.76a1.06,1.06,0,0,1,.09.34,1.08,1.08,0,0,1-.26.72.9.9,0,0,1-.69.31c-.3,0-.85-.4-1.63-1.18l-.3-.3a35.91,35.91,0,0,0-8.29-6.68,16.09,16.09,0,0,0-7.57-1.86,12.38,12.38,0,0,0-7.53,2.12,6.64,6.64,0,0,0-2.87,5.58q0,4.71,13,9.49l1.86.68c.3.1.74.26,1.33.49q8.91,3.22,12.1,5.88a18.37,18.37,0,0,1,4.8,5.62,13.74,13.74,0,0,1,1.57,6.49,14.91,14.91,0,0,1-5.67,12q-5.67,4.69-14.74,4.69a37.14,37.14,0,0,1-8-1,37.75,37.75,0,0,0-5.81-1,9,9,0,0,0-3.56.76,2,2,0,0,1-.31.11.53.53,0,0,1-.3-.11,4,4,0,0,1-.42-.42L488.2,68.11l-.07-.11a1.81,1.81,0,0,1-.31-.72.83.83,0,0,1,.27-.63.81.81,0,0,1,.57-.24c.58,0,1.56.66,3,2,.83.78,1.5,1.39,2,1.82a49.64,49.64,0,0,0,10.83,7.46A22.43,22.43,0,0,0,514,79.84q6.25,0,10-3.42a11.81,11.81,0,0,0,3.7-9.14,10.58,10.58,0,0,0-3.11-8q-3.12-3-12.26-6.28l-3-1.06q-7.74-2.68-9.79-4.21a13.06,13.06,0,0,1-3.6-4,9.32,9.32,0,0,1-1.14-4.63,10.61,10.61,0,0,1,4.36-8.8Q503.46,27,510.59,27a30.55,30.55,0,0,1,6,.7,29.89,29.89,0,0,0,4.5.7,6.52,6.52,0,0,0,2-.34,1.78,1.78,0,0,1,.34-.08.94.94,0,0,1,.34.14A1,1,0,0,1,524,28.39Z"/><path class="cls-1" d="M54.18,65.41,74.72,11.92a7.32,7.32,0,0,0,.41-1.11c.09-.35.15-.64.19-.9,0-1-.83-2-2.47-2.76s-2.47-1.39-2.47-1.79a1,1,0,0,1,.52-.89,2.35,2.35,0,0,1,1.38-.36H90.17a2.4,2.4,0,0,1,1.38.36,1,1,0,0,1,.51.89c0,.61-.57,1.07-1.7,1.36a9.06,9.06,0,0,0-2.14.7,2.84,2.84,0,0,0-1.17,1.19,4.08,4.08,0,0,0-.35,1.84,3.61,3.61,0,0,0,.08.68,5.13,5.13,0,0,1,.08.79L92.28,72a5.41,5.41,0,0,0,.89,3,7.2,7.2,0,0,0,2.9,1.68c.51.18,1.2.4,2.06.65q2,.6,2,1.41a1.16,1.16,0,0,1-.41.9,1.66,1.66,0,0,1-1.11.35H76.72a2.84,2.84,0,0,1-1.43-.3,1.12,1.12,0,0,1-.57-1c0-.58.88-1.12,2.66-1.62.65-.18,1.19-.35,1.62-.49a3.51,3.51,0,0,0,1.9-1.14,3.89,3.89,0,0,0,.49-2.17V72.19L76.29,15,52.06,78.2a2.86,2.86,0,0,1-.81,1.33,1.72,1.72,0,0,1-1.14.41,1.65,1.65,0,0,1-1.62-1.36c-.08-.18-.13-.32-.17-.43L22.91,15.77l-3.8,56.42v.43a3.64,3.64,0,0,0,.54,2.09A4.1,4.1,0,0,0,21.44,76a23.17,23.17,0,0,0,3,1.13c1.44.44,2.16.94,2.16,1.52a1,1,0,0,1-.51,1,2.86,2.86,0,0,1-1.44.3H10.44A2.89,2.89,0,0,1,9,79.64a1,1,0,0,1-.51-1c0-.58.85-1.1,2.55-1.57.68-.22,1.22-.38,1.62-.49a5.27,5.27,0,0,0,3-1.89,9,9,0,0,0,.92-4.12L20.47,13c0-.79.09-1.62.16-2.49l.05-.27a2.89,2.89,0,0,0-.43-1.79A6,6,0,0,0,18,7.2L17.43,7q-2.28-.81-2.28-1.68a1.06,1.06,0,0,1,.47-.92,2.13,2.13,0,0,1,1.27-.33H36.45a2.16,2.16,0,0,1,1.28.33,1.08,1.08,0,0,1,.46.92c0,.54-1,1.19-3,1.95s-3,1.74-3,2.93a3.93,3.93,0,0,0,.13,1,13.42,13.42,0,0,0,.63,1.65Z"/><path class="cls-1" d="M131.19,26l17.57,46a16.84,16.84,0,0,0,1.61,3.32,6.67,6.67,0,0,0,1.88,2,5.71,5.71,0,0,0,1.63.8c.73.25,1.1.55,1.1.91a.8.8,0,0,1-.4.66,2,2,0,0,1-1,.21H139.73a2,2,0,0,1-1-.21.8.8,0,0,1-.4-.66c0-.38.41-.7,1.22-.95.32-.1.59-.19.79-.27a4,4,0,0,0,1.48-.8,1.32,1.32,0,0,0,.42-1,2.92,2.92,0,0,0-.11-.61.5.5,0,0,1,0-.19l-4.14-11H114.31l-3.15,8.5a2.32,2.32,0,0,0-.27.83,8,8,0,0,0-.07,1.18,2.49,2.49,0,0,0,.64,1.78,5.23,5.23,0,0,0,2.13,1.18l.79.22c1.17.31,1.75.7,1.75,1.18a.63.63,0,0,1-.34.57,2.27,2.27,0,0,1-1.07.19H104.44a2,2,0,0,1-1-.21.71.71,0,0,1-.36-.66c0-.16.79-.63,2.39-1.43a6.62,6.62,0,0,0,3.34-3.77L127,26Zm-5,7.28-11,29.06h22.08Z"/><path class="cls-1" d="M169.25,26.86a125.19,125.19,0,0,1,15.12.65A41.09,41.09,0,0,1,193,29.59,21.92,21.92,0,0,1,202.37,36a13.82,13.82,0,0,1,3.49,9,11.77,11.77,0,0,1-2.41,7.32A21.89,21.89,0,0,1,196,58.12l-.53.23c-.91.48-1.37.91-1.37,1.29a1.75,1.75,0,0,0,.34.84.52.52,0,0,0,.08.11l8.69,14.53a6.65,6.65,0,0,0,3.54,2.33c1.84.67,2.75,1.21,2.75,1.62a.87.87,0,0,1-.22.68,1.81,1.81,0,0,1-1,.19h-16a2,2,0,0,1-1-.21.78.78,0,0,1-.4-.66q0-.46,1.95-1.26c1.3-.53,2-1.25,2-2.16a3.07,3.07,0,0,0-.21-1.06,6.83,6.83,0,0,0-.59-1.18l-7.36-11.72a2.46,2.46,0,0,0-1-.91,3.34,3.34,0,0,0-1.46-.27l-.8,0c-1.77.08-3.51.11-5.23.11h-3.26a2.79,2.79,0,0,0-1.67.33,1.53,1.53,0,0,0-.38,1.23V74.59a2.77,2.77,0,0,0,.57,1.8,4.46,4.46,0,0,0,1.93,1.23,14.26,14.26,0,0,0,1.52.5c.91.22,1.36.54,1.36.95a.77.77,0,0,1-.39.66,2,2,0,0,1-1,.21H161.17a2,2,0,0,1-1-.21.77.77,0,0,1-.39-.66c0-.41.45-.73,1.36-.95a14.26,14.26,0,0,0,1.52-.5,4.62,4.62,0,0,0,1.91-1.25,2.67,2.67,0,0,0,.59-1.78V32.25a2.93,2.93,0,0,0-.49-1.78A4.37,4.37,0,0,0,163,29.21a9.36,9.36,0,0,0-1.29-.45c-.91-.28-1.37-.62-1.37-1a.74.74,0,0,1,.33-.64,1.52,1.52,0,0,1,.89-.23Zm3.57,4.36v24.7a2.51,2.51,0,0,0,.93,2.32c.62.38,2.3.57,5.06.57h.76q8.24,0,12.94-3.7A12.16,12.16,0,0,0,197.21,45a14.35,14.35,0,0,0-5.73-11.76q-5.73-4.55-15-4.55a6.14,6.14,0,0,0-3,.47A2.42,2.42,0,0,0,172.82,31.22Z"/><path class="cls-1" d="M230,52.28l22.72-20.07a1.69,1.69,0,0,0,.46-.59,1.81,1.81,0,0,0,.15-.78c0-.68-.87-1.3-2.62-1.85-.35-.11-.63-.19-.83-.27a2.36,2.36,0,0,1-.93-.46.78.78,0,0,1-.28-.6.66.66,0,0,1,.34-.59,1.85,1.85,0,0,1,1-.21h11.42a1.81,1.81,0,0,1,1,.23.72.72,0,0,1,.36.64c0,.16-1,.74-3,1.77a29.18,29.18,0,0,0-6.07,4.19l-5,4.51,14.83,36.62a5.39,5.39,0,0,0,3.21,2.84c1.63.66,2.45,1.13,2.45,1.41a.71.71,0,0,1-.36.66,2,2,0,0,1-1,.21H252.54a2,2,0,0,1-1-.21.8.8,0,0,1-.4-.66c0-.33.34-.62,1-.88l.3-.11a7.31,7.31,0,0,0,2.22-1.2,1.79,1.79,0,0,0,.66-1.38,2.73,2.73,0,0,0-.07-.57,6.28,6.28,0,0,0-.23-.76L242.59,43.48,230,54.59v20a2.77,2.77,0,0,0,.57,1.8,4.53,4.53,0,0,0,1.93,1.23,14.26,14.26,0,0,0,1.52.5c.91.22,1.37.54,1.37.95a.8.8,0,0,1-.4.66,2,2,0,0,1-1,.21H218.35a2,2,0,0,1-1-.21.78.78,0,0,1-.4-.66c0-.41.45-.73,1.36-.95a13.53,13.53,0,0,0,1.52-.5,4.6,4.6,0,0,0,1.92-1.25,2.73,2.73,0,0,0,.59-1.78V32.25a2.93,2.93,0,0,0-.5-1.78,4.29,4.29,0,0,0-1.67-1.26,9.36,9.36,0,0,0-1.29-.45c-.91-.28-1.36-.62-1.36-1a.73.73,0,0,1,.32-.64,1.52,1.52,0,0,1,.89-.23H233.6a1.52,1.52,0,0,1,.89.23.74.74,0,0,1,.33.64c0,.41-.46.75-1.37,1a9.36,9.36,0,0,0-1.29.45,4.16,4.16,0,0,0-1.69,1.26,3.07,3.07,0,0,0-.47,1.78Z"/><path class="cls-1" d="M303.5,26.86h1.78q1.59,0,2.88-.09c.86-.07,1.66-.16,2.39-.29L317,35.85a3.25,3.25,0,0,1,.32.59,1.09,1.09,0,0,1,.1.36.59.59,0,0,1-.23.46.89.89,0,0,1-.57.19c-.45,0-1.14-.52-2.07-1.54a28.06,28.06,0,0,0-2.25-2.3,22.59,22.59,0,0,0-6.87-3.77,26.27,26.27,0,0,0-8.31-1.2h-6.3a2,2,0,0,0-1.23.35,1.43,1.43,0,0,0-.32,1.06V46.13a1.18,1.18,0,0,0,.36.91,1.25,1.25,0,0,0,.89.35h7.85a8.21,8.21,0,0,0,2.58-.31,3,3,0,0,0,1.45-1,6.63,6.63,0,0,0,.56-1c.31-.63.66-.95,1.07-.95a1.22,1.22,0,0,1,.68.19,2.2,2.2,0,0,1,.57.57l5,7.32a1.44,1.44,0,0,0,.11.19,1.7,1.7,0,0,1,.19.57.53.53,0,0,1-.21.38.66.66,0,0,1-.47.19,14.77,14.77,0,0,1-1.75-1.06c-1.08-.71-2.21-1.37-3.37-2a10,10,0,0,0-2.66-.89,21.18,21.18,0,0,0-3.87-.28h-7.55a1.65,1.65,0,0,0-1,.28,1.07,1.07,0,0,0-.36.89V76.75a.89.89,0,0,0,.4.76,2.51,2.51,0,0,0,1.15.27h7.86a47.62,47.62,0,0,0,9-.67A22.67,22.67,0,0,0,313.74,75a27.09,27.09,0,0,0,5.14-3.66c1.68-1.51,2.66-2.26,2.94-2.26a1,1,0,0,1,.68.21.63.63,0,0,1,.27.51,1.56,1.56,0,0,1-.13.46,2.16,2.16,0,0,1-.33.53l-6.45,9.18H277.62a2,2,0,0,1-1-.21.76.76,0,0,1-.4-.66c0-.41.45-.73,1.36-.95a13.53,13.53,0,0,0,1.52-.5A4.66,4.66,0,0,0,281,76.37a2.72,2.72,0,0,0,.58-1.78V32.25a2.93,2.93,0,0,0-.49-1.78,4.29,4.29,0,0,0-1.67-1.26,9.36,9.36,0,0,0-1.29-.45c-.91-.28-1.36-.62-1.36-1a.73.73,0,0,1,.32-.64,1.52,1.52,0,0,1,.89-.23Z"/><path class="cls-1" d="M354.53,74.59a2.77,2.77,0,0,0,.57,1.8A4.57,4.57,0,0,0,357,77.62a13.26,13.26,0,0,0,1.51.5c.91.22,1.37.54,1.37.95a.8.8,0,0,1-.4.66,2,2,0,0,1-1,.21h-16a2,2,0,0,1-1-.21.81.81,0,0,1-.38-.66c0-.38.47-.7,1.4-.95a13.27,13.27,0,0,0,1.56-.5,4,4,0,0,0,1.84-1.21,2.9,2.9,0,0,0,.55-1.82V30.69a2.91,2.91,0,0,0-.32-1.67,1.61,1.61,0,0,0-1.24-.38h-3a19.79,19.79,0,0,0-5.9.82A14.64,14.64,0,0,0,331.24,32a20.9,20.9,0,0,0-3.11,3.32c-1.12,1.43-1.86,2.15-2.24,2.15a.84.84,0,0,1-.59-.29.87.87,0,0,1-.21-.59,1.42,1.42,0,0,1,0-.26,1,1,0,0,1,.06-.19l5-10.09c1.77.27,3.47.48,5.1.62s3.22.21,4.76.21h21q2.36,0,4.8-.21c1.63-.14,3.32-.35,5.07-.62l5,10.09c0,.07.06.17.1.28a.93.93,0,0,1,.06.25.76.76,0,0,1-.25.57.9.9,0,0,1-.63.23c-.35,0-1.09-.72-2.22-2.15A21.38,21.38,0,0,0,369.78,32,14.65,14.65,0,0,0,365,29.46a19.48,19.48,0,0,0-5.84-.82h-3.11a1.62,1.62,0,0,0-1.22.38,2.79,2.79,0,0,0-.34,1.67Z"/><path class="cls-1" d="M409.17,26.86H411c1.07,0,2,0,2.89-.09s1.65-.16,2.39-.29l6.45,9.37a3.25,3.25,0,0,1,.32.59,1.43,1.43,0,0,1,.1.36.59.59,0,0,1-.23.46.89.89,0,0,1-.57.19c-.46,0-1.15-.52-2.07-1.54a26.35,26.35,0,0,0-2.26-2.3,22.43,22.43,0,0,0-6.86-3.77,26.36,26.36,0,0,0-8.31-1.2h-6.3a1.91,1.91,0,0,0-1.23.35,1.39,1.39,0,0,0-.33,1.06V46.13a1.18,1.18,0,0,0,.36.91,1.27,1.27,0,0,0,.9.35h7.85a8.29,8.29,0,0,0,2.58-.31,2.93,2.93,0,0,0,1.44-1,5.77,5.77,0,0,0,.57-1c.3-.63.66-.95,1.06-.95a1.26,1.26,0,0,1,.69.19A2,2,0,0,1,411,45l5,7.32a1.44,1.44,0,0,0,.11.19,1.7,1.7,0,0,1,.19.57.53.53,0,0,1-.21.38.67.67,0,0,1-.47.19,14.77,14.77,0,0,1-1.75-1.06c-1.09-.71-2.21-1.37-3.38-2a10,10,0,0,0-2.65-.89,21.33,21.33,0,0,0-3.87-.28h-7.55a1.68,1.68,0,0,0-1.05.28,1.07,1.07,0,0,0-.36.89V76.75a.92.92,0,0,0,.4.76,2.56,2.56,0,0,0,1.16.27h7.85a47.67,47.67,0,0,0,9-.67A22.92,22.92,0,0,0,419.42,75a27.41,27.41,0,0,0,5.14-3.66c1.68-1.51,2.66-2.26,2.94-2.26a1.08,1.08,0,0,1,.68.21.63.63,0,0,1,.27.51,1.38,1.38,0,0,1-.14.46,2.14,2.14,0,0,1-.32.53l-6.45,9.18H383.3a2,2,0,0,1-1-.21.8.8,0,0,1-.4-.66c0-.41.46-.73,1.37-.95a14.26,14.26,0,0,0,1.52-.5,4.62,4.62,0,0,0,1.91-1.25,2.73,2.73,0,0,0,.59-1.78V32.25a2.93,2.93,0,0,0-.49-1.78,4.37,4.37,0,0,0-1.67-1.26,9.36,9.36,0,0,0-1.29-.45c-.91-.28-1.37-.62-1.37-1a.75.75,0,0,1,.32-.64,1.58,1.58,0,0,1,.9-.23Z"/><path class="cls-1" d="M443.51,26.86a125.07,125.07,0,0,1,15.12.65,40.79,40.79,0,0,1,8.67,2.08A21.89,21.89,0,0,1,476.64,36a13.87,13.87,0,0,1,3.49,9,11.83,11.83,0,0,1-2.41,7.32,21.94,21.94,0,0,1-7.46,5.84l-.53.23c-.91.48-1.36.91-1.36,1.29a1.75,1.75,0,0,0,.34.84.52.52,0,0,0,.07.11l8.69,14.53c.53.89,1.71,1.66,3.55,2.33s2.75,1.21,2.75,1.62a.87.87,0,0,1-.23.68,1.74,1.74,0,0,1-1,.19h-16a2,2,0,0,1-1-.21.8.8,0,0,1-.4-.66c0-.31.65-.73,2-1.26S469,76.56,469,75.65a3.07,3.07,0,0,0-.21-1.06,6.18,6.18,0,0,0-.59-1.18l-7.36-11.72a2.5,2.5,0,0,0-1-.91,3.37,3.37,0,0,0-1.46-.27l-.8,0c-1.77.08-3.52.11-5.24.11h-3.26a2.79,2.79,0,0,0-1.67.33,1.57,1.57,0,0,0-.38,1.23V74.59a2.77,2.77,0,0,0,.57,1.8,4.51,4.51,0,0,0,1.94,1.23,13.26,13.26,0,0,0,1.51.5c.91.22,1.37.54,1.37.95a.8.8,0,0,1-.4.66,2,2,0,0,1-1,.21H435.43a2,2,0,0,1-1-.21.78.78,0,0,1-.4-.66c0-.41.46-.73,1.37-.95a14,14,0,0,0,1.51-.5,4.6,4.6,0,0,0,1.92-1.25,2.73,2.73,0,0,0,.59-1.78V32.25a2.93,2.93,0,0,0-.5-1.78,4.25,4.25,0,0,0-1.66-1.26,9.36,9.36,0,0,0-1.29-.45c-.92-.28-1.37-.62-1.37-1a.75.75,0,0,1,.32-.64,1.54,1.54,0,0,1,.89-.23Zm3.57,4.36v24.7a2.51,2.51,0,0,0,.93,2.32q.93.57,5.07.57h.75q8.24,0,12.94-3.7A12.14,12.14,0,0,0,471.48,45a14.35,14.35,0,0,0-5.73-11.76q-5.73-4.55-15-4.55a6.09,6.09,0,0,0-3,.47A2.39,2.39,0,0,0,447.08,31.22Z"/><path class="cls-1" d="M525,27.39l5.5,8.31c.2.36.33.61.4.76a1.06,1.06,0,0,1,.09.34,1.08,1.08,0,0,1-.26.72.9.9,0,0,1-.69.31c-.3,0-.85-.4-1.63-1.18l-.3-.3a35.91,35.91,0,0,0-8.29-6.68,16.09,16.09,0,0,0-7.57-1.86,12.38,12.38,0,0,0-7.53,2.12,6.64,6.64,0,0,0-2.87,5.58q0,4.71,13,9.49l1.86.68c.3.1.74.26,1.33.49q8.91,3.22,12.1,5.88a18.37,18.37,0,0,1,4.8,5.62,13.74,13.74,0,0,1,1.57,6.49,14.91,14.91,0,0,1-5.67,12q-5.67,4.69-14.74,4.69a37.14,37.14,0,0,1-8-1,37.75,37.75,0,0,0-5.81-1,9,9,0,0,0-3.56.76,2,2,0,0,1-.31.11.53.53,0,0,1-.3-.11,4,4,0,0,1-.42-.42L489.2,67.11l-.07-.11a1.81,1.81,0,0,1-.31-.72.83.83,0,0,1,.27-.63.81.81,0,0,1,.57-.24c.58,0,1.56.66,3,2,.83.78,1.5,1.39,2,1.82a49.64,49.64,0,0,0,10.83,7.46A22.43,22.43,0,0,0,515,78.84q6.25,0,10-3.42a11.81,11.81,0,0,0,3.7-9.14,10.58,10.58,0,0,0-3.11-8q-3.12-3-12.26-6.28l-3-1.06q-7.74-2.68-9.79-4.21a13.06,13.06,0,0,1-3.6-4,9.32,9.32,0,0,1-1.14-4.63,10.61,10.61,0,0,1,4.36-8.8Q504.46,26,511.59,26a30.55,30.55,0,0,1,6,.7,29.89,29.89,0,0,0,4.5.7,6.52,6.52,0,0,0,2-.34,1.78,1.78,0,0,1,.34-.08.94.94,0,0,1,.34.14A1,1,0,0,1,525,27.39Z"/><path class="cls-2" d="M55.18,64.41,75.72,10.92a7.32,7.32,0,0,0,.41-1.11c.09-.35.15-.64.19-.9,0-1-.83-2-2.47-2.76s-2.47-1.39-2.47-1.79a1,1,0,0,1,.52-.89,2.35,2.35,0,0,1,1.38-.36H91.17a2.4,2.4,0,0,1,1.38.36,1,1,0,0,1,.51.89c0,.61-.57,1.07-1.7,1.36a9.06,9.06,0,0,0-2.14.7,2.84,2.84,0,0,0-1.17,1.19,4.08,4.08,0,0,0-.35,1.84,3.61,3.61,0,0,0,.08.68,5.13,5.13,0,0,1,.08.79L93.28,71a5.41,5.41,0,0,0,.89,3,7.2,7.2,0,0,0,2.9,1.68c.51.18,1.2.4,2.06.65q2,.6,2,1.41a1.16,1.16,0,0,1-.41.9,1.66,1.66,0,0,1-1.11.35H77.72a2.84,2.84,0,0,1-1.43-.3,1.12,1.12,0,0,1-.57-1c0-.58.88-1.12,2.66-1.62.65-.18,1.19-.35,1.62-.49a3.51,3.51,0,0,0,1.9-1.14,3.89,3.89,0,0,0,.49-2.17V71.19L77.29,14,53.06,77.2a2.86,2.86,0,0,1-.81,1.33,1.72,1.72,0,0,1-1.14.41,1.65,1.65,0,0,1-1.62-1.36c-.08-.18-.13-.32-.17-.43L23.91,14.77l-3.8,56.42v.43a3.64,3.64,0,0,0,.54,2.09A4.1,4.1,0,0,0,22.44,75a23.17,23.17,0,0,0,3,1.13c1.44.44,2.16.94,2.16,1.52a1,1,0,0,1-.51,1,2.86,2.86,0,0,1-1.44.3H11.44a2.89,2.89,0,0,1-1.44-.3,1,1,0,0,1-.51-1c0-.58.85-1.1,2.55-1.57.68-.22,1.22-.38,1.62-.49a5.27,5.27,0,0,0,3-1.89,9,9,0,0,0,.92-4.12L21.47,12c0-.79.09-1.62.16-2.49l.05-.27a2.89,2.89,0,0,0-.43-1.79A6,6,0,0,0,19,6.2L18.43,6q-2.28-.81-2.28-1.68a1.06,1.06,0,0,1,.47-.92,2.13,2.13,0,0,1,1.27-.33H37.45a2.16,2.16,0,0,1,1.28.33,1.08,1.08,0,0,1,.46.92c0,.54-1,1.19-3,1.95s-3,1.74-3,2.93a3.93,3.93,0,0,0,.13,1,13.42,13.42,0,0,0,.63,1.65Z"/><path class="cls-2" d="M132.19,25l17.57,46a16.84,16.84,0,0,0,1.61,3.32,6.67,6.67,0,0,0,1.88,2,5.71,5.71,0,0,0,1.63.8c.73.25,1.1.55,1.1.91a.8.8,0,0,1-.4.66,2,2,0,0,1-1,.21H140.73a2,2,0,0,1-1-.21.8.8,0,0,1-.4-.66c0-.38.41-.7,1.22-.95.32-.1.59-.19.79-.27a4,4,0,0,0,1.48-.8,1.32,1.32,0,0,0,.42-1,2.92,2.92,0,0,0-.11-.61.5.5,0,0,1,0-.19l-4.14-11H115.31l-3.15,8.5a2.32,2.32,0,0,0-.27.83,8,8,0,0,0-.07,1.18,2.49,2.49,0,0,0,.64,1.78,5.23,5.23,0,0,0,2.13,1.18l.79.22c1.17.31,1.75.7,1.75,1.18a.63.63,0,0,1-.34.57,2.27,2.27,0,0,1-1.07.19H105.44a2,2,0,0,1-1-.21.71.71,0,0,1-.36-.66c0-.16.79-.63,2.39-1.43a6.62,6.62,0,0,0,3.34-3.77L128,25Zm-5,7.28-11,29.06h22.08Z"/><path class="cls-2" d="M170.25,25.86a125.19,125.19,0,0,1,15.12.65A41.09,41.09,0,0,1,194,28.59,21.92,21.92,0,0,1,203.37,35a13.82,13.82,0,0,1,3.49,9,11.77,11.77,0,0,1-2.41,7.32A21.89,21.89,0,0,1,197,57.12l-.53.23c-.91.48-1.37.91-1.37,1.29a1.75,1.75,0,0,0,.34.84.52.52,0,0,0,.08.11l8.69,14.53a6.65,6.65,0,0,0,3.54,2.33c1.84.67,2.75,1.21,2.75,1.62a.87.87,0,0,1-.22.68,1.81,1.81,0,0,1-1,.19h-16a2,2,0,0,1-1-.21.78.78,0,0,1-.4-.66q0-.46,1.95-1.26c1.3-.53,2-1.25,2-2.16a3.07,3.07,0,0,0-.21-1.06,6.83,6.83,0,0,0-.59-1.18l-7.36-11.72a2.46,2.46,0,0,0-1-.91,3.34,3.34,0,0,0-1.46-.27l-.8,0c-1.77.08-3.51.11-5.23.11h-3.26a2.79,2.79,0,0,0-1.67.33,1.53,1.53,0,0,0-.38,1.23V73.59a2.77,2.77,0,0,0,.57,1.8,4.46,4.46,0,0,0,1.93,1.23,14.26,14.26,0,0,0,1.52.5c.91.22,1.36.54,1.36.95a.77.77,0,0,1-.39.66,2,2,0,0,1-1,.21H162.17a2,2,0,0,1-1-.21.77.77,0,0,1-.39-.66c0-.41.45-.73,1.36-.95a14.26,14.26,0,0,0,1.52-.5,4.62,4.62,0,0,0,1.91-1.25,2.67,2.67,0,0,0,.59-1.78V31.25a2.93,2.93,0,0,0-.49-1.78A4.37,4.37,0,0,0,164,28.21a9.36,9.36,0,0,0-1.29-.45c-.91-.28-1.37-.62-1.37-1a.74.74,0,0,1,.33-.64,1.52,1.52,0,0,1,.89-.23Zm3.57,4.36v24.7a2.51,2.51,0,0,0,.93,2.32c.62.38,2.3.57,5.06.57h.76q8.24,0,12.94-3.7A12.16,12.16,0,0,0,198.21,44a14.35,14.35,0,0,0-5.73-11.76q-5.73-4.55-15-4.55a6.14,6.14,0,0,0-3,.47A2.42,2.42,0,0,0,173.82,30.22Z"/><path class="cls-2" d="M231,51.28l22.72-20.07a1.69,1.69,0,0,0,.46-.59,1.81,1.81,0,0,0,.15-.78c0-.68-.87-1.3-2.62-1.85-.35-.11-.63-.19-.83-.27a2.36,2.36,0,0,1-.93-.46.78.78,0,0,1-.28-.6.66.66,0,0,1,.34-.59,1.85,1.85,0,0,1,1-.21h11.42a1.81,1.81,0,0,1,1,.23.72.72,0,0,1,.36.64c0,.16-1,.74-3,1.77a29.18,29.18,0,0,0-6.07,4.19l-5,4.51,14.83,36.62a5.39,5.39,0,0,0,3.21,2.84c1.63.66,2.45,1.13,2.45,1.41a.71.71,0,0,1-.36.66,2,2,0,0,1-1,.21H253.54a2,2,0,0,1-1-.21.8.8,0,0,1-.4-.66c0-.33.34-.62,1-.88l.3-.11a7.31,7.31,0,0,0,2.22-1.2,1.79,1.79,0,0,0,.66-1.38,2.73,2.73,0,0,0-.07-.57,6.28,6.28,0,0,0-.23-.76L243.59,42.48,231,53.59v20a2.77,2.77,0,0,0,.57,1.8,4.53,4.53,0,0,0,1.93,1.23,14.26,14.26,0,0,0,1.52.5c.91.22,1.37.54,1.37.95a.8.8,0,0,1-.4.66,2,2,0,0,1-1,.21H219.35a2,2,0,0,1-1-.21.78.78,0,0,1-.4-.66c0-.41.45-.73,1.36-.95a13.53,13.53,0,0,0,1.52-.5,4.6,4.6,0,0,0,1.92-1.25,2.73,2.73,0,0,0,.59-1.78V31.25a2.93,2.93,0,0,0-.5-1.78,4.29,4.29,0,0,0-1.67-1.26,9.36,9.36,0,0,0-1.29-.45c-.91-.28-1.36-.62-1.36-1a.73.73,0,0,1,.32-.64,1.52,1.52,0,0,1,.89-.23H234.6a1.52,1.52,0,0,1,.89.23.74.74,0,0,1,.33.64c0,.41-.46.75-1.37,1a9.36,9.36,0,0,0-1.29.45,4.16,4.16,0,0,0-1.69,1.26,3.07,3.07,0,0,0-.47,1.78Z"/><path class="cls-2" d="M304.5,25.86h1.78q1.59,0,2.88-.09c.86-.07,1.66-.16,2.39-.29L318,34.85a3.25,3.25,0,0,1,.32.59,1.09,1.09,0,0,1,.1.36.59.59,0,0,1-.23.46.89.89,0,0,1-.57.19c-.45,0-1.14-.52-2.07-1.54a28.06,28.06,0,0,0-2.25-2.3,22.59,22.59,0,0,0-6.87-3.77,26.27,26.27,0,0,0-8.31-1.2h-6.3a2,2,0,0,0-1.23.35,1.43,1.43,0,0,0-.32,1.06V45.13a1.18,1.18,0,0,0,.36.91,1.25,1.25,0,0,0,.89.35h7.85a8.21,8.21,0,0,0,2.58-.31,3,3,0,0,0,1.45-1,6.63,6.63,0,0,0,.56-1c.31-.63.66-.95,1.07-.95a1.22,1.22,0,0,1,.68.19,2.2,2.2,0,0,1,.57.57l5,7.32a1.44,1.44,0,0,0,.11.19,1.7,1.7,0,0,1,.19.57.53.53,0,0,1-.21.38.66.66,0,0,1-.47.19,14.77,14.77,0,0,1-1.75-1.06c-1.08-.71-2.21-1.37-3.37-2a10,10,0,0,0-2.66-.89,21.18,21.18,0,0,0-3.87-.28h-7.55a1.65,1.65,0,0,0-1,.28,1.07,1.07,0,0,0-.36.89V75.75a.89.89,0,0,0,.4.76,2.51,2.51,0,0,0,1.15.27h7.86a47.62,47.62,0,0,0,9-.67A22.67,22.67,0,0,0,314.74,74a27.09,27.09,0,0,0,5.14-3.66c1.68-1.51,2.66-2.26,2.94-2.26a1,1,0,0,1,.68.21.63.63,0,0,1,.27.51,1.56,1.56,0,0,1-.13.46,2.16,2.16,0,0,1-.33.53l-6.45,9.18H278.62a2,2,0,0,1-1-.21.76.76,0,0,1-.4-.66c0-.41.45-.73,1.36-.95a13.53,13.53,0,0,0,1.52-.5A4.66,4.66,0,0,0,282,75.37a2.72,2.72,0,0,0,.58-1.78V31.25a2.93,2.93,0,0,0-.49-1.78,4.29,4.29,0,0,0-1.67-1.26,9.36,9.36,0,0,0-1.29-.45c-.91-.28-1.36-.62-1.36-1a.73.73,0,0,1,.32-.64,1.52,1.52,0,0,1,.89-.23Z"/><path class="cls-2" d="M355.53,73.59a2.77,2.77,0,0,0,.57,1.8A4.57,4.57,0,0,0,358,76.62a13.26,13.26,0,0,0,1.51.5c.91.22,1.37.54,1.37.95a.8.8,0,0,1-.4.66,2,2,0,0,1-1,.21h-16a2,2,0,0,1-1-.21.81.81,0,0,1-.38-.66c0-.38.47-.7,1.4-.95a13.27,13.27,0,0,0,1.56-.5,4,4,0,0,0,1.84-1.21,2.9,2.9,0,0,0,.55-1.82V29.69a2.91,2.91,0,0,0-.32-1.67,1.61,1.61,0,0,0-1.24-.38h-3a19.79,19.79,0,0,0-5.9.82A14.64,14.64,0,0,0,332.24,31a20.9,20.9,0,0,0-3.11,3.32c-1.12,1.43-1.86,2.15-2.24,2.15a.84.84,0,0,1-.59-.29.87.87,0,0,1-.21-.59,1.42,1.42,0,0,1,0-.26,1,1,0,0,1,.06-.19l5-10.09c1.77.27,3.47.48,5.1.62s3.22.21,4.76.21h21q2.36,0,4.8-.21c1.63-.14,3.32-.35,5.07-.62l5,10.09c0,.07.06.17.1.28a.93.93,0,0,1,.06.25.76.76,0,0,1-.25.57.9.9,0,0,1-.63.23c-.35,0-1.09-.72-2.22-2.15A21.38,21.38,0,0,0,370.78,31,14.65,14.65,0,0,0,366,28.46a19.48,19.48,0,0,0-5.84-.82h-3.11a1.62,1.62,0,0,0-1.22.38,2.79,2.79,0,0,0-.34,1.67Z"/><path class="cls-2" d="M410.17,25.86H412c1.07,0,2,0,2.89-.09s1.65-.16,2.39-.29l6.45,9.37a3.25,3.25,0,0,1,.32.59,1.43,1.43,0,0,1,.1.36.59.59,0,0,1-.23.46.89.89,0,0,1-.57.19c-.46,0-1.15-.52-2.07-1.54a26.35,26.35,0,0,0-2.26-2.3,22.43,22.43,0,0,0-6.86-3.77,26.36,26.36,0,0,0-8.31-1.2h-6.3a1.91,1.91,0,0,0-1.23.35,1.39,1.39,0,0,0-.33,1.06V45.13a1.18,1.18,0,0,0,.36.91,1.27,1.27,0,0,0,.9.35h7.85a8.29,8.29,0,0,0,2.58-.31,2.93,2.93,0,0,0,1.44-1,5.77,5.77,0,0,0,.57-1c.3-.63.66-.95,1.06-.95a1.26,1.26,0,0,1,.69.19A2,2,0,0,1,412,44l5,7.32a1.44,1.44,0,0,0,.11.19,1.7,1.7,0,0,1,.19.57.53.53,0,0,1-.21.38.67.67,0,0,1-.47.19,14.77,14.77,0,0,1-1.75-1.06c-1.09-.71-2.21-1.37-3.38-2a10,10,0,0,0-2.65-.89,21.33,21.33,0,0,0-3.87-.28h-7.55a1.68,1.68,0,0,0-1.05.28,1.07,1.07,0,0,0-.36.89V75.75a.92.92,0,0,0,.4.76,2.56,2.56,0,0,0,1.16.27h7.85a47.67,47.67,0,0,0,9-.67A22.92,22.92,0,0,0,420.42,74a27.41,27.41,0,0,0,5.14-3.66c1.68-1.51,2.66-2.26,2.94-2.26a1.08,1.08,0,0,1,.68.21.63.63,0,0,1,.27.51,1.38,1.38,0,0,1-.14.46,2.14,2.14,0,0,1-.32.53l-6.45,9.18H384.3a2,2,0,0,1-1-.21.8.8,0,0,1-.4-.66c0-.41.46-.73,1.37-.95a14.26,14.26,0,0,0,1.52-.5,4.62,4.62,0,0,0,1.91-1.25,2.73,2.73,0,0,0,.59-1.78V31.25a2.93,2.93,0,0,0-.49-1.78,4.37,4.37,0,0,0-1.67-1.26,9.36,9.36,0,0,0-1.29-.45c-.91-.28-1.37-.62-1.37-1a.75.75,0,0,1,.32-.64,1.58,1.58,0,0,1,.9-.23Z"/><path class="cls-2" d="M444.51,25.86a125.07,125.07,0,0,1,15.12.65,40.79,40.79,0,0,1,8.67,2.08A21.89,21.89,0,0,1,477.64,35a13.87,13.87,0,0,1,3.49,9,11.83,11.83,0,0,1-2.41,7.32,21.94,21.94,0,0,1-7.46,5.84l-.53.23c-.91.48-1.36.91-1.36,1.29a1.75,1.75,0,0,0,.34.84.52.52,0,0,0,.07.11l8.69,14.53c.53.89,1.71,1.66,3.55,2.33s2.75,1.21,2.75,1.62a.87.87,0,0,1-.23.68,1.74,1.74,0,0,1-1,.19h-16a2,2,0,0,1-1-.21.8.8,0,0,1-.4-.66c0-.31.65-.73,2-1.26S470,75.56,470,74.65a3.07,3.07,0,0,0-.21-1.06,6.18,6.18,0,0,0-.59-1.18l-7.36-11.72a2.5,2.5,0,0,0-1-.91,3.37,3.37,0,0,0-1.46-.27l-.8,0c-1.77.08-3.52.11-5.24.11h-3.26a2.79,2.79,0,0,0-1.67.33,1.57,1.57,0,0,0-.38,1.23V73.59a2.77,2.77,0,0,0,.57,1.8,4.51,4.51,0,0,0,1.94,1.23,13.26,13.26,0,0,0,1.51.5c.91.22,1.37.54,1.37.95a.8.8,0,0,1-.4.66,2,2,0,0,1-1,.21H436.43a2,2,0,0,1-1-.21.78.78,0,0,1-.4-.66c0-.41.46-.73,1.37-.95a14,14,0,0,0,1.51-.5,4.6,4.6,0,0,0,1.92-1.25,2.73,2.73,0,0,0,.59-1.78V31.25a2.93,2.93,0,0,0-.5-1.78,4.25,4.25,0,0,0-1.66-1.26,9.36,9.36,0,0,0-1.29-.45c-.92-.28-1.37-.62-1.37-1a.75.75,0,0,1,.32-.64,1.54,1.54,0,0,1,.89-.23Zm3.57,4.36v24.7a2.51,2.51,0,0,0,.93,2.32q.93.57,5.07.57h.75q8.24,0,12.94-3.7A12.14,12.14,0,0,0,472.48,44a14.35,14.35,0,0,0-5.73-11.76q-5.73-4.55-15-4.55a6.09,6.09,0,0,0-3,.47A2.39,2.39,0,0,0,448.08,30.22Z"/><path class="cls-2" d="M526,26.39l5.5,8.31c.2.36.33.61.4.76a1.06,1.06,0,0,1,.09.34,1.08,1.08,0,0,1-.26.72.9.9,0,0,1-.69.31c-.3,0-.85-.4-1.63-1.18l-.3-.3a35.91,35.91,0,0,0-8.29-6.68,16.09,16.09,0,0,0-7.57-1.86,12.38,12.38,0,0,0-7.53,2.12,6.64,6.64,0,0,0-2.87,5.58q0,4.71,13,9.49l1.86.68c.3.1.74.26,1.33.49q8.91,3.22,12.1,5.88a18.37,18.37,0,0,1,4.8,5.62,13.74,13.74,0,0,1,1.57,6.49,14.91,14.91,0,0,1-5.67,12q-5.67,4.69-14.74,4.69a37.14,37.14,0,0,1-8-1,37.75,37.75,0,0,0-5.81-1,9,9,0,0,0-3.56.76,2,2,0,0,1-.31.11.53.53,0,0,1-.3-.11,4,4,0,0,1-.42-.42L490.2,66.11l-.07-.11a1.81,1.81,0,0,1-.31-.72.83.83,0,0,1,.27-.63.81.81,0,0,1,.57-.24c.58,0,1.56.66,3,2,.83.78,1.5,1.39,2,1.82a49.64,49.64,0,0,0,10.83,7.46A22.43,22.43,0,0,0,516,77.84q6.25,0,10-3.42a11.81,11.81,0,0,0,3.7-9.14,10.58,10.58,0,0,0-3.11-8q-3.12-3-12.26-6.28l-3-1.06q-7.74-2.68-9.79-4.21a13.06,13.06,0,0,1-3.6-4,9.32,9.32,0,0,1-1.14-4.63,10.61,10.61,0,0,1,4.36-8.8Q505.46,25,512.59,25a30.55,30.55,0,0,1,6,.7,29.89,29.89,0,0,0,4.5.7,6.52,6.52,0,0,0,2-.34,1.78,1.78,0,0,1,.34-.08.94.94,0,0,1,.34.14A1,1,0,0,1,526,26.39Z"/></svg>